<?xml version="1.0" encoding="iso-8859-1"?>
<!-- Generator: Adobe Illustrator 19.0.0, SVG Export Plug-In . SVG Version: 6.00 Build 0)  -->
<svg version="1.1" id="Capa_1" xmlns="http://www.w3.org/2000/svg" xmlns:xlink="http://www.w3.org/1999/xlink" x="0px" y="0px"
	 viewBox="0 0 512 512" style="enable-background:new 0 0 512 512;" xml:space="preserve">
<path style="fill:#BF6015;" d="M256,406c-46.015,0-89.446-11.758-122.292-33.108c-34.479-22.411-53.467-52.749-53.467-85.427
	c0-30.68,17.024-59.684,47.938-81.669H383.82c30.913,21.985,47.938,50.988,47.938,81.669c0,32.678-18.988,63.016-53.467,85.427
	C345.446,394.242,302.015,406,256,406z"/>
<path style="fill:#994C0F;" d="M383.82,205.796H256V406c46.015,0,89.446-11.758,122.292-33.108
	c34.479-22.411,53.467-52.749,53.467-85.427C431.758,256.785,414.733,227.781,383.82,205.796z"/>
<path style="fill:#D6702B;" d="M256,324.252c-35.148,0-68.356-9.235-93.509-26.003c-26.681-17.787-41.375-41.94-41.375-68.007
	c0-24.397,13.104-47.439,36.9-64.879l195.969,0.001c23.795,17.441,36.899,40.482,36.899,64.878c0,26.068-14.694,50.22-41.375,68.007
	C324.356,315.017,291.148,324.252,256,324.252z"/>
<path style="fill:#BF6015;" d="M353.985,165.363H256v158.889c35.148,0,68.356-9.235,93.509-26.003
	c26.681-17.787,41.375-41.94,41.375-68.007C390.884,205.845,377.78,182.804,353.985,165.363z"/>
<path style="fill:#E08344;" d="M256,258.853c-26.959,0-52.47-7.109-71.832-20.017c-20.891-13.928-32.397-32.947-32.397-53.556
	c0-26.515,10.69-51.108,30.1-69.248C201.214,97.955,227.54,88,256,88h12.262v30.004c0,6.235,4.586,11.462,10.669,12.158
	c48.627,5.567,81.298,27.717,81.298,55.118c0,20.609-11.505,39.629-32.397,53.556C308.47,251.744,282.959,258.853,256,258.853z"/>
<path style="fill:#D6702B;" d="M278.931,130.163c-6.082-0.696-10.669-5.923-10.669-12.158V88H256v170.853
	c26.959,0,52.47-7.109,71.832-20.017c20.891-13.928,32.397-32.947,32.397-53.556C360.229,157.879,327.557,135.729,278.931,130.163z"
	/>
<path style="fill:#FF6849;" d="M437.02,74.98C388.667,26.629,324.38,0,256,0S123.333,26.629,74.98,74.98
	C26.629,123.333,0,187.62,0,256s26.629,132.667,74.98,181.02C123.333,485.371,187.62,512,256,512s132.667-26.629,181.02-74.98
	C485.371,388.667,512,324.38,512,256S485.371,123.333,437.02,74.98z M30,256C30,131.383,131.383,30,256,30
	c56.922,0,108.989,21.162,148.767,56.02L86.02,404.768C51.162,364.989,30,312.922,30,256z M256,482
	c-56.922,0-108.989-21.162-148.767-56.02L425.98,107.232C460.838,147.011,482,199.078,482,256C482,380.617,380.617,482,256,482z"/>
<path style="fill:#FD4B2D;" d="M437.02,74.98C388.667,26.629,324.38,0,256,0v30c56.922,0,108.989,21.162,148.767,56.02L256,234.787
	v42.426l169.98-169.98C460.838,147.011,482,199.078,482,256c0,124.617-101.383,226-226,226v30c68.38,0,132.667-26.629,181.02-74.98
	C485.371,388.667,512,324.38,512,256S485.371,123.333,437.02,74.98z"/>
<g>
</g>
<g>
</g>
<g>
</g>
<g>
</g>
<g>
</g>
<g>
</g>
<g>
</g>
<g>
</g>
<g>
</g>
<g>
</g>
<g>
</g>
<g>
</g>
<g>
</g>
<g>
</g>
<g>
</g>
</svg>
