<?xml version="1.0" encoding="iso-8859-1"?>
<!-- Generator: Adobe Illustrator 19.0.0, SVG Export Plug-In . SVG Version: 6.00 Build 0)  -->
<svg version="1.1" id="Capa_1" xmlns="http://www.w3.org/2000/svg" xmlns:xlink="http://www.w3.org/1999/xlink" x="0px" y="0px"
	 viewBox="0 0 512 512" style="enable-background:new 0 0 512 512;" xml:space="preserve">
<polygon style="fill:#BF6015;" points="86.346,171.87 65.1,150.626 119.577,96.148 210.931,96.148 210.931,126.194 132.023,126.194 
	"/>
<polygon style="fill:#994C0F;" points="425.654,171.87 379.977,126.194 301.07,126.194 301.07,96.148 392.423,96.148 446.9,150.626 
	"/>
<polygon style="fill:#BF6015;" points="200.308,98.758 150.839,49.289 150.839,0 180.885,0 180.885,36.844 221.554,77.513 "/>
<g>
	<polygon style="fill:#994C0F;" points="311.692,98.758 290.446,77.513 331.116,36.844 331.116,0 361.162,0 361.162,49.289 	"/>
	<circle style="fill:#994C0F;" cx="256.004" cy="20.031" r="20.031"/>
</g>
<path style="fill:#D6702B;" d="M316.093,146.225H195.908V95.146c0-33.135,26.957-60.092,60.092-60.092s60.092,26.957,60.092,60.092
	V146.225z"/>
<path style="fill:#BF6015;" d="M256,35.054v111.171h60.092V95.146C316.093,62.011,289.135,35.054,256,35.054z"/>
<path style="fill:#E08344;" d="M256,512L153.7,409.699c-17.38-17.379-30.961-37.704-40.366-60.411s-14.175-46.683-14.175-71.261
	c0-86.483,70.358-156.841,156.841-156.841s156.841,70.358,156.841,156.841c0,24.578-4.769,48.554-14.175,71.261
	c-9.405,22.707-22.986,43.032-40.366,60.411L256,512z"/>
<path style="fill:#D6702B;" d="M256,121.186V512l102.3-102.301c17.38-17.379,30.961-37.704,40.366-60.411
	c9.405-22.707,14.175-46.683,14.175-71.261C412.842,191.544,342.482,121.186,256,121.186z"/>
<g>
</g>
<g>
</g>
<g>
</g>
<g>
</g>
<g>
</g>
<g>
</g>
<g>
</g>
<g>
</g>
<g>
</g>
<g>
</g>
<g>
</g>
<g>
</g>
<g>
</g>
<g>
</g>
<g>
</g>
</svg>
