<?xml version="1.0" encoding="iso-8859-1"?>
<!-- Generator: Adobe Illustrator 19.0.0, SVG Export Plug-In . SVG Version: 6.00 Build 0)  -->
<svg version="1.1" id="Capa_1" xmlns="http://www.w3.org/2000/svg" xmlns:xlink="http://www.w3.org/1999/xlink" x="0px" y="0px"
	 viewBox="0 0 512.001 512.001" style="enable-background:new 0 0 512.001 512.001;" xml:space="preserve">
<polygon style="fill:#00C3FF;" points="158.076,104.369 91,139.833 91,182.525 167.512,123.916 "/>
<g>
	<polygon style="fill:#FEDBAB;" points="158.076,104.369 115.415,16 91,16 91,70.188 51,80.188 51,90.77 0,110.77 0,117.213 
		29.787,147 90.975,147 	"/>
	<path style="fill:#FEDBAB;" d="M511.97,382.112l-7.775-4.273C503.704,377.568,455,350.345,455,311v-22.482
		c0-17.773-4.879-34.503-13.451-48.834C459.041,230.466,471,212.108,471,191h-30c0,12.111-8.658,22.235-20.108,24.517
		c-12.515-10.427-27.846-17.736-44.929-20.648l-166.942-28.456c-14.324-2.441-26.646-11.711-32.963-24.796l-8.545-17.7L91,172.525
		v46.194c0,39.204,18.546,75.307,50,98.13V466h-30v30h60l46.128-156.894c3.78-0.473,17.551-1.116,21.281-1.938l112.277-24.754
		c7.584,21.664,19.992,41.514,36.69,58.211c25.7,25.7,58.862,41.254,94.625,44.66V466h-30v30h60V391L511.97,382.112z"/>
</g>
<path style="fill:#FEC478;" d="M511.97,382.112l-7.775-4.273C503.704,377.568,455,350.345,455,311v-22.482
	c0-17.773-4.879-34.503-13.451-48.834C459.041,230.466,471,212.108,471,191h-30c0,12.111-8.658,22.235-20.108,24.517
	c-12.515-10.427-27.846-17.736-44.929-20.648L256,174.42v158.87l94.685-20.875c7.584,21.664,19.992,41.514,36.69,58.211
	c25.7,25.7,58.862,41.254,94.625,44.66V466h-30v30h60V391L511.97,382.112z"/>
<g>
	<polygon style="fill:#E08344;" points="0,110.77 51,90.77 90.975,147 29.787,147 0,117.213 	"/>
	<path style="fill:#E08344;" d="M391,198.705c-4.832-1.658-9.853-2.953-15.037-3.837l-166.942-28.456
		c-4.591-0.783-8.972-2.274-13.021-4.361v36.654c0,22.782,18.469,41.251,41.251,41.251h112.498
		C372.531,239.956,391,221.487,391,198.705L391,198.705z"/>
</g>
<path style="fill:#D6702B;" d="M375.963,194.868L256,174.42v65.536h93.749c22.782,0,41.251-18.469,41.251-41.251
	C386.168,197.047,381.147,195.752,375.963,194.868z"/>
<g>
</g>
<g>
</g>
<g>
</g>
<g>
</g>
<g>
</g>
<g>
</g>
<g>
</g>
<g>
</g>
<g>
</g>
<g>
</g>
<g>
</g>
<g>
</g>
<g>
</g>
<g>
</g>
<g>
</g>
</svg>
