<?xml version="1.0" encoding="iso-8859-1"?>
<!-- Generator: Adobe Illustrator 19.0.0, SVG Export Plug-In . SVG Version: 6.00 Build 0)  -->
<svg version="1.1" id="Capa_1" xmlns="http://www.w3.org/2000/svg" xmlns:xlink="http://www.w3.org/1999/xlink" x="0px" y="0px"
	 viewBox="0 0 512 512" style="enable-background:new 0 0 512 512;" xml:space="preserve">
<path style="fill:#0096DC;" d="M150.012,512c-0.278,0-0.553-0.001-0.831-0.003C74.642,511.556,14,449.955,14,374.679
	c0-37.521,10.316-65.271,20.293-92.107C44.473,255.187,55,226.87,55,186c0-27.285-6.83-47.724-20.301-60.747
	C21.394,112.389,6.001,111,0,111V81c20.392,0,40.64,8.268,55.551,22.685C68.986,116.673,85,141.498,85,186
	c0,46.266-12,78.545-22.587,107.024C52.944,318.496,44,342.554,44,374.679c0,58.832,47.264,106.975,105.358,107.32
	c0.214,0.001,0.434,0.002,0.647,0.002c46.454,0,86.875-29.672,100.72-74.014l28.637,8.941
	c-8.464,27.107-25.739,51.405-48.645,68.416C207.225,502.791,179.333,512,150.012,512z"/>
<path style="fill:#00AAF0;" d="M449.028,62.972C408.42,22.364,354.429,0,297,0S185.58,22.364,144.972,62.972S82,157.571,82,215
	s22.364,111.42,62.972,152.028C185.58,407.636,239.572,430,297,430s111.42-22.364,152.028-62.972
	C489.636,326.42,512,272.429,512,215S489.636,103.58,449.028,62.972z"/>
<path style="fill:#0096DC;" d="M449.028,62.972C408.42,22.364,354.429,0,297,0v430c57.429,0,111.42-22.364,152.028-62.972
	C489.636,326.42,512,272.429,512,215S489.636,103.58,449.028,62.972z"/>
<path style="fill:#00C3FF;" d="M455.083,118.989c-46.469-12.098-86.342-41.833-111.265-82.981
	C390.73,48.287,430.439,78.563,455.083,118.989z M306.84,30.263c14.855,32.069,37.466,60.124,65.859,81.526
	c28.934,21.81,62.826,35.885,98.532,41.015c3.586,10.016,6.33,20.427,8.15,31.151c-91.402-8.409-170.61-67.433-204.78-152.595
	C281.946,30.469,289.419,30,297,30C300.301,30,303.581,30.091,306.84,30.263z M482,215c0,9.929-0.796,19.675-2.31,29.185
	c-117.747-8.607-220.958-85.507-262.897-195.877c8.959-4.328,18.322-7.943,28.009-10.797
	c37.856,99.975,130.537,169.043,237.189,176.757C481.992,214.512,482,214.755,482,215z M195.393,181.079
	c-27.029,42.617-43.892,90.396-49.654,140.311c-7.75-10.987-14.333-22.852-19.571-35.413c9.432-44.925,27.74-88.167,53.433-126.435
	C184.617,166.899,189.883,174.082,195.393,181.079z M215.883,205.035c7.034,7.586,14.38,14.902,22.02,21.932
	C215.365,267.6,203.5,313.401,203.5,360.226c0,4.858,0.138,9.724,0.392,14.581c-10.846-6.344-20.991-13.758-30.29-22.1
	C174.871,300.347,189.373,249.776,215.883,205.035z M233.5,360.226c0-39.686,9.556-78.541,27.761-113.38
	c1.944,1.527,3.901,3.041,5.877,4.533c6.123,4.625,12.372,9.046,18.725,13.284c-14.666,29.555-22.363,62.307-22.363,95.563
	c0,12.548,1.084,25.021,3.228,37.284c-10.847-1.793-21.378-4.532-31.506-8.13C234.082,379.739,233.5,369.968,233.5,360.226z
	 M293.5,360.226c0-27.724,6.233-55.022,18.084-79.808c8.743,4.899,17.656,9.457,26.727,13.655
	c-9.718,20.584-14.811,43.149-14.811,66.153c0,12.625,1.506,25.067,4.486,37.166c-9.823,1.664-19.904,2.555-30.182,2.599
	C294.96,386.991,293.5,373.664,293.5,360.226z M353.5,360.226c0-19.029,4.311-37.681,12.537-54.609
	c9.494,3.531,19.121,6.703,28.871,9.482c-7.43,13.743-11.409,29.191-11.409,45.127c0,5.874,0.55,11.694,1.611,17.412
	c-8.932,4.858-18.309,8.995-28.049,12.347C354.697,380.301,353.5,370.34,353.5,360.226z M170.364,80.269
	c6.341-5.964,13.099-11.488,20.23-16.52c22.589,56.934,60.188,106.313,109.569,143.644c50.439,38.13,109.654,60.864,172.282,66.32
	c-2.791,8.317-6.162,16.37-10.058,24.116C333.865,283.671,220.903,199.493,170.364,80.269z M148.463,104.845
	c4.287,9.184,8.92,18.183,13.894,26.978c-20.868,28.868-37.743,60.642-50.03,94.033C112.118,222.262,112,218.645,112,215
	C112,173.764,125.566,135.64,148.463,104.845z M413.539,358.565c0.33-13.049,4.533-25.558,12.045-36.072
	c6.441,1.281,12.922,2.4,19.439,3.355C435.901,337.998,425.316,348.987,413.539,358.565z"/>
<g>
	<path style="fill:#00AAF0;" d="M297,74.283c40.417,61.675,107.279,102.761,182.381,109.671c-1.82-10.724-4.563-21.135-8.15-31.151
		c-35.706-5.129-69.598-19.205-98.532-41.015c-28.393-21.402-51.005-49.457-65.859-81.526C303.581,30.091,300.301,30,297,30V74.283z
		"/>
	<path style="fill:#00AAF0;" d="M455.083,118.989c-24.644-40.426-64.352-70.702-111.265-82.981
		C368.741,77.155,408.614,106.891,455.083,118.989z"/>
	<path style="fill:#00AAF0;" d="M311.584,280.417c-6.688,13.988-11.585,28.776-14.584,43.99v71.658
		c0.257,1.311,0.519,2.62,0.804,3.924c10.279-0.044,20.36-0.935,30.182-2.599c-2.98-12.098-4.486-24.541-4.486-37.166
		c0-23.003,5.093-45.568,14.811-66.153C329.24,289.874,320.327,285.317,311.584,280.417z"/>
	<path style="fill:#00AAF0;" d="M297,204.959v30.587c48.522,33.702,105.251,55.659,165.388,62.283
		c3.895-7.747,7.267-15.799,10.058-24.116c-62.628-5.456-121.844-28.19-172.282-66.32C299.101,206.589,298.052,205.773,297,204.959z
		"/>
	<path style="fill:#00AAF0;" d="M481.991,214.267c-72.344-5.232-138.254-38.703-184.991-90.895v42.254
		c49.623,44.98,113.654,73.512,182.69,78.558c1.514-9.51,2.31-19.255,2.31-29.185C482,214.755,481.992,214.512,481.991,214.267z"/>
	<path style="fill:#00AAF0;" d="M366.038,305.616c-8.226,16.929-12.537,35.58-12.537,54.609c0,10.114,1.197,20.076,3.562,29.759
		c9.739-3.352,19.117-7.488,28.049-12.347c-1.061-5.718-1.611-11.538-1.611-17.412c0-15.936,3.979-31.384,11.409-45.127
		C385.159,312.319,375.531,309.147,366.038,305.616z"/>
	<path style="fill:#00AAF0;" d="M413.539,358.565c11.777-9.578,22.362-20.567,31.484-32.717c-6.517-0.955-12.998-2.074-19.439-3.355
		C418.072,333.007,413.869,345.516,413.539,358.565z"/>
</g>
<g>
</g>
<g>
</g>
<g>
</g>
<g>
</g>
<g>
</g>
<g>
</g>
<g>
</g>
<g>
</g>
<g>
</g>
<g>
</g>
<g>
</g>
<g>
</g>
<g>
</g>
<g>
</g>
<g>
</g>
</svg>
