<?xml version="1.0" encoding="iso-8859-1"?>
<!-- Generator: Adobe Illustrator 19.0.0, SVG Export Plug-In . SVG Version: 6.00 Build 0)  -->
<svg version="1.1" id="Capa_1" xmlns="http://www.w3.org/2000/svg" xmlns:xlink="http://www.w3.org/1999/xlink" x="0px" y="0px"
	 viewBox="0 0 512 512" style="enable-background:new 0 0 512 512;" xml:space="preserve">
<path style="fill:#00AAF0;" d="M176,145h160V85h-20c-16.569,0-30-13.431-30-30V0h-60v55c0,16.569-13.431,30-30,30h-20V145z"/>
<path style="fill:#0096DC;" d="M316,85c-16.569,0-30-13.432-30-30V0h-30v145h80V85H316z"/>
<path style="fill:#CCEFFF;" d="M381,512H131V130h250V512z"/>
<path style="fill:#ACE3FC;" d="M381,512H256V130h125V512z"/>
<g>
	<rect x="131" y="130" style="fill:#00C3FF;" width="250" height="90"/>
	<path style="fill:#00C3FF;" d="M256,421.161c-24.813,0-45-20.187-45-45c0-13.888,5.408-26.944,15.228-36.762L256,309.626
		l29.772,29.773c9.82,9.818,15.228,22.874,15.228,36.762C301,400.974,280.813,421.161,256,421.161z"/>
</g>
<g>
	<rect x="256" y="130" style="fill:#00AAF0;" width="125" height="90"/>
	<path style="fill:#00AAF0;" d="M285.772,339.399L256,309.626v111.535c24.813,0,45-20.187,45-45
		C301,362.273,295.592,349.217,285.772,339.399z"/>
</g>
<g>
</g>
<g>
</g>
<g>
</g>
<g>
</g>
<g>
</g>
<g>
</g>
<g>
</g>
<g>
</g>
<g>
</g>
<g>
</g>
<g>
</g>
<g>
</g>
<g>
</g>
<g>
</g>
<g>
</g>
</svg>
