<?xml version="1.0" encoding="iso-8859-1"?>
<!-- Generator: Adobe Illustrator 19.0.0, SVG Export Plug-In . SVG Version: 6.00 Build 0)  -->
<svg version="1.1" id="Capa_1" xmlns="http://www.w3.org/2000/svg" xmlns:xlink="http://www.w3.org/1999/xlink" x="0px" y="0px"
	 viewBox="0 0 512 512" style="enable-background:new 0 0 512 512;" xml:space="preserve">
<path style="fill:#DCF4FF;" d="M256,245c-110.457,0-200,89.543-200,200v67h400v-67C456,334.543,366.457,245,256,245z"/>
<path style="fill:#CCEFFF;" d="M256,245c-0.251,0-0.499,0.009-0.75,0.009V512H456v-67C456,334.543,366.457,245,256,245z"/>
<path style="fill:#FFD2D2;" d="M156,30v113.745c0,55.14,44.104,100.844,99.242,101.253C310.818,245.409,356,200.481,356,145V30
	c0-16.569-13.431-30-30-30H186C169.431,0,156,13.431,156,30z"/>
<path style="fill:#FFA5B9;" d="M326,0h-70v244.993c55.228-0.001,100-44.765,100-99.993V30C356,13.432,342.569,0,326,0z"/>
<path style="fill:#87E694;" d="M326,0H186c-16.569,0-30,13.432-30,30v90h200V30C356,13.432,342.569,0,326,0z"/>
<path style="fill:#66CC70;" d="M326,0h-70v120h100V30C356,13.432,342.569,0,326,0z"/>
<rect x="284" y="45" style="fill:#00A621;" width="72" height="30"/>
<g>
	<rect x="156" y="45" style="fill:#66CC70;" width="70" height="30"/>
	<polygon style="fill:#66CC70;" points="401,392 371,392 371,362 341,362 341,392 311,392 311,422 341,422 341,452 371,452 371,422 
		401,422 	"/>
</g>
<path style="fill:#DCF4FF;" d="M256,105c-24.813,0-45-20.187-45-45s20.187-45,45-45s45,20.187,45,45S280.813,105,256,105z M256,45
	c-8.271,0-15,6.729-15,15s6.729,15,15,15s15-6.729,15-15S264.271,45,256,45z"/>
<path style="fill:#CCEFFF;" d="M256,15v30c8.271,0,15,6.729,15,15s-6.729,15-15,15v30c24.813,0,45-20.187,45-45S280.813,15,256,15z"
	/>
<path style="fill:#FFD2D2;" d="M331.64,259.814C308.304,250.272,282.77,245,256,245c-26.794,0-52.351,5.282-75.705,14.841
	l75.659,75.659L331.64,259.814z"/>
<path style="fill:#FFA5B9;" d="M256,245c-0.251,0-0.5,0.008-0.75,0.009v89.786l0.705,0.705l75.686-75.686
	C308.304,250.272,282.77,245,256,245z"/>
<g>
</g>
<g>
</g>
<g>
</g>
<g>
</g>
<g>
</g>
<g>
</g>
<g>
</g>
<g>
</g>
<g>
</g>
<g>
</g>
<g>
</g>
<g>
</g>
<g>
</g>
<g>
</g>
<g>
</g>
</svg>
