<?xml version="1.0" encoding="iso-8859-1"?>
<!-- Generator: Adobe Illustrator 19.0.0, SVG Export Plug-In . SVG Version: 6.00 Build 0)  -->
<svg version="1.1" id="Capa_1" xmlns="http://www.w3.org/2000/svg" xmlns:xlink="http://www.w3.org/1999/xlink" x="0px" y="0px"
	 viewBox="0 0 512 512" style="enable-background:new 0 0 512 512;" xml:space="preserve">
<path style="fill:#CCEFFF;" d="M376.177,512H135.822c-24.813,0-45-20.187-45-45V135c0-41.355,33.645-75,75-75h180.357
	c41.355,0,75,33.645,75,75v332C421.177,491.813,400.99,512,376.177,512z"/>
<path style="fill:#ACE3FC;" d="M346.177,60h-90.357v452h120.357c24.813,0,45-20.187,45-45V135C421.177,93.645,387.532,60,346.177,60
	z"/>
<path style="fill:#FF6849;" d="M420.821,420h-330V140h330V420z"/>
<path style="fill:#FD4B2D;" d="M420.821,420H255.999V140h164.822L420.821,420L420.821,420z"/>
<path style="fill:#0A4EAF;" d="M420.821,70h-330V0h330V70z"/>
<g>
	<path style="fill:#DCF4FF;" d="M255.822,283.651c-26.556,0-53.112,37.51-53.112,59.751c0,9.167,11.889,16.598,26.556,16.598
		c11.618,0,15.27-4.979,26.556-4.979c11.286,0,14.938,4.979,26.556,4.979c14.667,0,26.556-7.431,26.556-16.598
		C308.933,321.162,282.378,283.651,255.822,283.651z"/>
	<ellipse style="fill:#DCF4FF;" cx="225.949" cy="233.19" rx="19.917" ry="33.2"/>
</g>
<ellipse style="fill:#CCEFFF;" cx="285.7" cy="233.19" rx="19.917" ry="33.2"/>
<ellipse transform="matrix(-0.5 -0.866 0.866 -0.5 44.137 585.2789)" style="fill:#DCF4FF;" cx="191.021" cy="279.898" rx="19.917" ry="13.278"/>
<g>
	
		<ellipse transform="matrix(0.5 -0.866 0.866 0.5 -82.0933 417.5849)" style="fill:#CCEFFF;" cx="320.598" cy="279.888" rx="19.917" ry="13.278"/>
	<path style="fill:#CCEFFF;" d="M255.999,283.659v71.367c11.141,0.054,14.823,4.974,26.378,4.974
		c14.667,0,26.556-7.431,26.556-16.598C308.933,321.212,282.495,283.827,255.999,283.659z"/>
</g>
<path style="fill:#063E8B;" d="M420.821,70h-165V0h165V70z"/>
<g>
</g>
<g>
</g>
<g>
</g>
<g>
</g>
<g>
</g>
<g>
</g>
<g>
</g>
<g>
</g>
<g>
</g>
<g>
</g>
<g>
</g>
<g>
</g>
<g>
</g>
<g>
</g>
<g>
</g>
</svg>
