<?xml version="1.0" encoding="iso-8859-1"?>
<!-- Generator: Adobe Illustrator 19.0.0, SVG Export Plug-In . SVG Version: 6.00 Build 0)  -->
<svg version="1.1" id="Capa_1" xmlns="http://www.w3.org/2000/svg" xmlns:xlink="http://www.w3.org/1999/xlink" x="0px" y="0px"
	 viewBox="0 0 512 512" style="enable-background:new 0 0 512 512;" xml:space="preserve">
<polygon style="fill:#CCEFFF;" points="437.984,240.997 399.976,240.997 399.976,185.985 369.969,185.985 369.969,240.997 
	339.963,240.997 339.963,165.981 309.957,165.981 309.957,240.997 279.95,240.997 279.95,145.976 249.944,145.976 249.944,240.997 
	219.937,240.997 219.937,160.98 189.931,160.98 189.931,240.997 144.921,240.997 144.921,271.003 189.931,271.003 189.931,352.021 
	219.937,352.021 219.937,271.003 249.944,271.003 249.944,366.024 279.95,366.024 279.95,271.003 309.957,271.003 309.957,346.019 
	339.963,346.019 339.963,271.003 369.969,271.003 369.969,326.015 399.976,326.015 399.976,271.003 437.984,271.003 "/>
<polygon style="fill:#ACE3FC;" points="399.976,240.997 399.976,185.985 369.969,185.985 369.969,240.997 339.963,240.997 
	339.963,165.981 309.957,165.981 309.957,240.997 295.453,240.997 295.453,271.003 309.957,271.003 309.957,346.019 
	339.963,346.019 339.963,271.003 369.969,271.003 369.969,326.015 399.976,326.015 399.976,271.003 437.984,271.003 
	437.984,240.997 "/>
<path style="fill:#DCF4FF;" d="M159.924,361.023h-18.112c-62.868,0-119.164-40.217-140.082-100.073L0,256l1.729-4.95
	c20.919-59.857,77.214-100.072,140.082-100.072h18.112L159.924,361.023L159.924,361.023z"/>
<path style="fill:#CCEFFF;" d="M512,331.016h-15.003c-41.364,0-75.016-33.652-75.016-75.016s33.652-75.016,75.016-75.016H512
	V331.016z"/>
<g>
</g>
<g>
</g>
<g>
</g>
<g>
</g>
<g>
</g>
<g>
</g>
<g>
</g>
<g>
</g>
<g>
</g>
<g>
</g>
<g>
</g>
<g>
</g>
<g>
</g>
<g>
</g>
<g>
</g>
</svg>
