<?xml version="1.0" encoding="iso-8859-1"?>
<!-- Generator: Adobe Illustrator 19.0.0, SVG Export Plug-In . SVG Version: 6.00 Build 0)  -->
<svg version="1.1" id="Capa_1" xmlns="http://www.w3.org/2000/svg" xmlns:xlink="http://www.w3.org/1999/xlink" x="0px" y="0px"
	 viewBox="0 0 512.001 512.001" style="enable-background:new 0 0 512.001 512.001;" xml:space="preserve">
<path style="fill:#FFD2D2;" d="M8.851,108.565l99.714-99.714C120.367-2.95,139.5-2.95,151.3,8.851L503.15,360.7
	c11.801,11.801,11.801,30.934,0,42.734l-99.714,99.714c-11.801,11.801-30.934,11.801-42.734,0L8.851,151.3
	C-2.95,139.498-2.95,120.366,8.851,108.565z"/>
<path style="fill:#FFA5B9;" d="M503.15,360.7L256,113.551V398.45l104.7,104.7c11.801,11.801,30.933,11.801,42.734,0l99.714-99.714
	C514.951,391.634,514.951,372.501,503.15,360.7z"/>
<path style="fill:#FFD2D2;" d="M108.566,503.149L8.851,403.435c-11.801-11.801-11.801-30.934,0-42.734l351.85-351.85
	c11.801-11.801,30.934-11.801,42.734,0l99.714,99.714c11.801,11.801,11.801,30.934,0,42.734L151.3,503.149
	C139.499,514.95,120.366,514.95,108.566,503.149z"/>
<path style="fill:#FFA5B9;" d="M503.15,108.565L403.435,8.851c-11.801-11.801-30.934-11.801-42.735,0L256,113.551V398.45
	L503.15,151.301C514.951,139.498,514.951,120.366,503.15,108.565z"/>
<g>
	<circle style="fill:#F4717A;" cx="382.067" cy="80.078" r="20.145"/>
	<circle style="fill:#F4717A;" cx="431.927" cy="129.937" r="20.145"/>
</g>
<g>
	<circle style="fill:#FFA5B9;" cx="129.938" cy="431.926" r="20.145"/>
	<circle style="fill:#FFA5B9;" cx="80.078" cy="382.067" r="20.145"/>
</g>
<g>
	<circle style="fill:#F4717A;" cx="431.927" cy="382.067" r="20.145"/>
	<circle style="fill:#F4717A;" cx="382.067" cy="431.926" r="20.145"/>
</g>
<g>
	<circle style="fill:#FFA5B9;" cx="80.078" cy="129.937" r="20.145"/>
	<circle style="fill:#FFA5B9;" cx="129.938" cy="80.078" r="20.145"/>
</g>
<rect x="155.271" y="155.271" transform="matrix(-0.7071 0.7071 -0.7071 -0.7071 618.0303 255.9974)" style="fill:#FFE6E6;" width="201.452" height="201.452"/>
<polygon style="fill:#FFD2D2;" points="256,113.551 256,398.449 398.449,256 "/>
<g>
</g>
<g>
</g>
<g>
</g>
<g>
</g>
<g>
</g>
<g>
</g>
<g>
</g>
<g>
</g>
<g>
</g>
<g>
</g>
<g>
</g>
<g>
</g>
<g>
</g>
<g>
</g>
<g>
</g>
</svg>
