<?xml version="1.0" encoding="iso-8859-1"?>
<!-- Generator: Adobe Illustrator 19.0.0, SVG Export Plug-In . SVG Version: 6.00 Build 0)  -->
<svg version="1.1" id="Capa_1" xmlns="http://www.w3.org/2000/svg" xmlns:xlink="http://www.w3.org/1999/xlink" x="0px" y="0px"
	 viewBox="0 0 512 512" style="enable-background:new 0 0 512 512;" xml:space="preserve">
<polygon style="fill:#FD4B2D;" points="312.689,512 258.442,420.752 391.992,351.615 442.805,437.083 365.005,453.003 "/>
<polygon style="fill:#FF6849;" points="199.311,512 146.996,453.002 69.196,437.083 120.01,351.611 252.193,423.05 "/>
<path style="fill:#FFEA84;" d="M471.195,215.195c0-17.108-7.99-32.342-20.439-42.192c-5.633-4.457-7.646-11.97-4.997-18.647
	c5.855-14.754,5.158-31.943-3.396-46.758c-8.554-14.815-23.09-24.014-38.796-26.32c-7.106-1.044-12.606-6.544-13.65-13.65
	c-2.306-15.706-11.504-30.242-26.32-38.796c-14.815-8.554-32.004-9.251-46.758-3.396c-6.676,2.649-14.19,0.637-18.647-4.997
	C288.342,7.99,273.109,0,256,0s-32.342,7.99-42.192,20.439c-4.457,5.633-11.97,7.646-18.647,4.997
	c-14.754-5.855-31.943-5.158-46.758,3.396c-14.815,8.554-24.014,23.09-26.32,38.796c-1.044,7.106-6.544,12.606-13.65,13.65
	c-15.706,2.306-30.242,11.504-38.796,26.32s-9.251,32.004-3.396,46.758c2.649,6.676,0.637,14.19-4.997,18.647
	c-12.448,9.85-20.439,25.085-20.439,42.192s7.99,32.342,20.439,42.192c5.633,4.457,7.646,11.97,4.997,18.647
	c-5.855,14.754-5.158,31.943,3.396,46.758s23.09,24.014,38.796,26.32c7.106,1.044,12.606,6.544,13.65,13.65
	c2.306,15.706,11.504,30.242,26.32,38.796c14.815,8.554,32.004,9.251,46.758,3.396c6.676-2.649,14.19-0.637,18.647,4.997
	c9.85,12.448,25.085,20.439,42.192,20.439c17.108,0,32.342-7.99,42.192-20.439c4.457-5.633,11.97-7.646,18.647-4.997
	c14.754,5.855,31.943,5.158,46.758-3.396c14.815-8.554,24.014-23.09,26.32-38.796c1.044-7.106,6.544-12.606,13.65-13.65
	c15.706-2.306,30.242-11.504,38.796-26.32c8.554-14.815,9.251-32.004,3.396-46.758c-2.649-6.676-0.637-14.19,4.997-18.647
	C463.206,247.538,471.195,232.303,471.195,215.195z"/>
<path style="fill:#FFDC40;" d="M450.757,173.003c-5.633-4.457-7.646-11.97-4.997-18.647c5.855-14.754,5.158-31.943-3.396-46.758
	c-8.554-14.815-23.09-24.014-38.796-26.32c-7.106-1.043-12.606-6.544-13.65-13.65c-2.306-15.705-11.504-30.242-26.32-38.796
	c-14.815-8.554-32.004-9.251-46.758-3.396c-6.676,2.649-14.19,0.637-18.647-4.997C288.342,7.989,273.109,0,256,0v430.391
	c17.108,0,32.342-7.99,42.192-20.439c4.457-5.633,11.97-7.646,18.647-4.997c14.754,5.855,31.943,5.158,46.758-3.396
	c14.815-8.554,24.014-23.09,26.32-38.796c1.044-7.106,6.544-12.606,13.65-13.65c15.706-2.306,30.242-11.504,38.796-26.32
	c8.554-14.815,9.251-32.004,3.396-46.758c-2.649-6.676-0.637-14.19,4.997-18.647c12.448-9.85,20.439-25.085,20.439-42.192
	S463.206,182.853,450.757,173.003z"/>
<path style="fill:#FF6849;" d="M256,380.345c-91.064,0-165.15-74.086-165.15-165.15S164.936,50.045,256,50.045
	s165.15,74.086,165.15,165.15S347.065,380.345,256,380.345z M256,80.073c-74.507,0-135.123,60.616-135.123,135.123
	S181.493,350.318,256,350.318s135.123-60.616,135.123-135.123S330.508,80.073,256,80.073z"/>
<g>
	<path style="fill:#994C0F;" d="M256,214.846c-26.58,0-53.16,37.544-53.16,59.805c0,9.175,11.9,16.613,26.58,16.613
		c11.629,0,15.284-4.984,26.58-4.984c11.296,0,14.952,4.984,26.58,4.984c14.68,0,26.58-7.438,26.58-16.613
		C309.16,252.391,282.58,214.846,256,214.846z"/>
	<ellipse style="fill:#994C0F;" cx="226.096" cy="164.339" rx="19.935" ry="33.23"/>
</g>
<ellipse style="fill:#713708;" cx="285.9" cy="164.339" rx="19.935" ry="33.23"/>
<ellipse transform="matrix(-0.5 -0.866 0.866 -0.5 103.931 482.1659)" style="fill:#994C0F;" cx="191.153" cy="211.081" rx="19.935" ry="13.29"/>
<g>
	
		<ellipse transform="matrix(0.5 -0.866 0.866 0.5 -22.389 383.4027)" style="fill:#713708;" cx="320.847" cy="211.091" rx="19.935" ry="13.29"/>
	<path style="fill:#713708;" d="M256,286.281c11.296,0,14.952,4.984,26.58,4.984c14.68,0,26.58-7.438,26.58-16.613
		c0-22.261-26.58-59.805-53.16-59.805V286.281z"/>
</g>
<path style="fill:#FD4B2D;" d="M256,50.045v30.027c74.507,0,135.123,60.616,135.123,135.123S330.507,350.318,256,350.318v30.027
	c91.064,0,165.15-74.086,165.15-165.15S347.065,50.045,256,50.045z"/>
<g>
</g>
<g>
</g>
<g>
</g>
<g>
</g>
<g>
</g>
<g>
</g>
<g>
</g>
<g>
</g>
<g>
</g>
<g>
</g>
<g>
</g>
<g>
</g>
<g>
</g>
<g>
</g>
<g>
</g>
</svg>
