<?xml version="1.0" encoding="iso-8859-1"?>
<!-- Generator: Adobe Illustrator 19.0.0, SVG Export Plug-In . SVG Version: 6.00 Build 0)  -->
<svg version="1.1" id="Capa_1" xmlns="http://www.w3.org/2000/svg" xmlns:xlink="http://www.w3.org/1999/xlink" x="0px" y="0px"
	 viewBox="0 0 512 512" style="enable-background:new 0 0 512 512;" xml:space="preserve">
<polygon style="fill:#FD4B2D;" points="452,77 60,77 60,0 79.328,0 102.249,10.697 127.425,0.905 153.137,10.906 178.85,0.906 
	204.563,10.905 230.272,0.905 255.984,10.905 281.696,0.906 307.412,10.906 333.127,0.906 358.843,10.906 384.559,0.906 
	409.744,10.698 432.673,0 452,0 "/>
<polygon style="fill:#E8130F;" points="432.673,0 409.744,10.698 384.559,0.906 358.843,10.906 333.127,0.906 307.412,10.906 
	281.696,0.906 255.984,10.905 241,5.078 241,77 452,77 452,0 "/>
<path style="fill:#FF6849;" d="M437,512H75V62h362c16.87,0,23.422,19.4,25.889,26.703c3.866,11.446,7.289,27.489,10.174,47.683
	C478.826,176.73,482,230.22,482,287s-3.174,110.27-8.938,150.614c-2.885,20.194-6.308,36.237-10.174,47.683
	C460.422,492.6,453.87,512,437,512z"/>
<path style="fill:#E8130F;" d="M75,512c-16.87,0-23.422-19.4-25.889-26.703c-3.866-11.446-7.289-27.489-10.174-47.683
	C33.174,397.27,30,343.78,30,287s3.174-110.27,8.938-150.614c2.885-20.194,6.308-36.237,10.174-47.683C51.578,81.4,58.13,62,75,62
	s23.422,19.4,25.889,26.703c3.866,11.446,7.289,27.489,10.174,47.683C116.826,176.73,120,230.22,120,287
	s-3.174,110.27-8.938,150.614c-2.885,20.194-6.308,36.237-10.174,47.683C98.422,492.6,91.87,512,75,512z"/>
<path style="fill:#FD4B2D;" d="M473.063,136.386c-2.885-20.194-6.308-36.237-10.174-47.683C460.422,81.4,453.87,62,437,62H241
	c16.87,0,23.422,19.4,25.889,26.703c3.866,11.446,7.289,27.489,10.174,47.683C282.826,176.73,286,230.22,286,287
	s-3.174,110.27-8.938,150.614c-2.885,20.194-6.308,36.237-10.174,47.683C264.422,492.6,257.87,512,241,512h196
	c16.87,0,23.422-19.4,25.889-26.703c3.866-11.446,7.289-27.489,10.174-47.683C478.826,397.27,482,343.78,482,287
	S478.826,176.73,473.063,136.386z"/>
<g>
	<path style="fill:#DCF4FF;" d="M285,294.651c-26.556,0-53.112,37.51-53.112,59.751c0,9.167,11.889,16.598,26.556,16.598
		c11.618,0,15.27-4.979,26.556-4.979S299.938,371,311.556,371c14.667,0,26.556-7.431,26.556-16.598
		C338.112,332.162,311.556,294.651,285,294.651z"/>
	<ellipse style="fill:#DCF4FF;" cx="255.12" cy="244.19" rx="19.917" ry="33.2"/>
</g>
<ellipse style="fill:#CCEFFF;" cx="314.88" cy="244.19" rx="19.917" ry="33.2"/>
<ellipse transform="matrix(-0.5 -0.866 0.866 -0.5 78.3851 627.0438)" style="fill:#DCF4FF;" cx="220.202" cy="290.894" rx="19.917" ry="13.278"/>
<g>
	
		<ellipse transform="matrix(0.5 -0.866 0.866 0.5 -77.0349 448.3586)" style="fill:#CCEFFF;" cx="349.778" cy="290.894" rx="19.917" ry="13.278"/>
	<path style="fill:#CCEFFF;" d="M285.978,294.694c-0.126,24.786-0.858,48.848-2.147,71.359c0.387-0.012,0.763-0.032,1.169-0.032
		c11.286,0,14.938,4.979,26.556,4.979c14.667,0,26.556-7.431,26.556-16.598C338.112,332.435,312.204,295.596,285.978,294.694z"/>
</g>
<g>
</g>
<g>
</g>
<g>
</g>
<g>
</g>
<g>
</g>
<g>
</g>
<g>
</g>
<g>
</g>
<g>
</g>
<g>
</g>
<g>
</g>
<g>
</g>
<g>
</g>
<g>
</g>
<g>
</g>
</svg>
