<?xml version="1.0" encoding="iso-8859-1"?>
<!-- Generator: Adobe Illustrator 19.0.0, SVG Export Plug-In . SVG Version: 6.00 Build 0)  -->
<svg version="1.1" id="Capa_1" xmlns="http://www.w3.org/2000/svg" xmlns:xlink="http://www.w3.org/1999/xlink" x="0px" y="0px"
	 viewBox="0 0 512 512" style="enable-background:new 0 0 512 512;" xml:space="preserve">
<path style="fill:#00AAF0;" d="M46.44,263.5c9.716-6.148,20.866-11.865,33.398-17.065C127.137,226.809,189.699,216,256,216
	s128.862,10.809,176.161,30.435c12.533,5.2,23.683,10.917,33.399,17.065C495.758,244.392,512,262,512,196
	c0-33.17-28.354-63.203-79.839-84.565C384.862,91.809,322.301,81,256,81S127.137,91.809,79.838,111.435
	C28.354,132.797,0,162.83,0,196C0,271,16.242,244.392,46.44,263.5z"/>
<path style="fill:#0096DC;" d="M432.161,111.435C384.862,91.809,322.301,81,256,81v135c66.301,0,128.862,10.809,176.161,30.435
	c12.533,5.2,23.683,10.917,33.399,17.065C495.758,244.392,512,262,512,196C512,162.83,483.646,132.797,432.161,111.435z"/>
<path style="fill:#00C3FF;" d="M432.161,280.565C384.862,300.191,322.301,311,256,311s-128.863-10.809-176.162-30.435
	C28.354,259.203,0,229.17,0,196v120c0,33.17,28.354,63.203,79.838,84.565C127.137,420.191,189.699,431,256,431
	s128.862-10.809,176.161-30.435C483.646,379.203,512,349.17,512,316V196C512,229.17,483.646,259.203,432.161,280.565z"/>
<path style="fill:#00AAF0;" d="M432.161,280.565C384.862,300.191,322.301,311,256,311c-33.137,0-60,26.863-60,60s26.863,60,60,60
	c66.301,0,128.862-10.809,176.161-30.435C483.646,379.203,512,349.17,512,316V196C512,229.17,483.646,259.203,432.161,280.565z"/>
<g>
	<circle style="fill:#0A4EAF;" cx="256" cy="371" r="20"/>
	<circle style="fill:#0A4EAF;" cx="326" cy="366" r="20"/>
	<circle style="fill:#0A4EAF;" cx="396" cy="351" r="20"/>
</g>
<g>
</g>
<g>
</g>
<g>
</g>
<g>
</g>
<g>
</g>
<g>
</g>
<g>
</g>
<g>
</g>
<g>
</g>
<g>
</g>
<g>
</g>
<g>
</g>
<g>
</g>
<g>
</g>
<g>
</g>
</svg>
