<?xml version="1.0" encoding="iso-8859-1"?>
<!-- Generator: Adobe Illustrator 19.0.0, SVG Export Plug-In . SVG Version: 6.00 Build 0)  -->
<svg version="1.1" id="Capa_1" xmlns="http://www.w3.org/2000/svg" xmlns:xlink="http://www.w3.org/1999/xlink" x="0px" y="0px"
	 viewBox="0 0 512 512" style="enable-background:new 0 0 512 512;" xml:space="preserve">
<g>
	<rect x="241" y="15" style="fill:#E8130F;" width="30" height="60"/>
	
		<rect x="141.007" y="52.774" transform="matrix(-0.5 -0.866 0.866 -0.5 197.8173 249.7562)" style="fill:#E8130F;" width="59.999" height="29.999"/>
	
		<rect x="78.774" y="114.999" transform="matrix(-0.866 -0.5 0.5 -0.866 137.9725 296.9685)" style="fill:#E8130F;" width="59.999" height="29.999"/>
	<rect x="56" y="200" style="fill:#E8130F;" width="60" height="30"/>
	
		<rect x="93.78" y="270.001" transform="matrix(-0.5 -0.866 0.866 -0.5 -96.6349 544.2096)" style="fill:#E8130F;" width="29.999" height="59.999"/>
	
		<rect x="155.996" y="332.212" transform="matrix(-0.866 -0.5 0.5 -0.866 137.9721 761.3935)" style="fill:#E8130F;" width="29.999" height="59.999"/>
	<rect x="241" y="355" style="fill:#E8130F;" width="30" height="60"/>
	
		<rect x="311.018" y="347.216" transform="matrix(-0.5 -0.866 0.866 -0.5 197.844 838.6556)" style="fill:#E8130F;" width="59.999" height="29.999"/>
	
		<rect x="373.209" y="284.99" transform="matrix(-0.866 -0.5 0.5 -0.866 602.3965 761.3958)" style="fill:#E8130F;" width="59.999" height="29.999"/>
	<rect x="396" y="200" style="fill:#E8130F;" width="60" height="30"/>
	
		<rect x="388.22" y="99.989" transform="matrix(-0.5 -0.866 0.866 -0.5 492.2619 544.1804)" style="fill:#E8130F;" width="29.999" height="59.999"/>
	
		<rect x="325.988" y="37.775" transform="matrix(-0.866 -0.5 0.5 -0.866 602.4023 296.9654)" style="fill:#E8130F;" width="29.999" height="59.999"/>
	<path style="fill:#E8130F;" d="M276,215c0-11.046-8.954-20-20-20s-20,8.954-20,20c0,5.064,1.897,9.675,5,13.198V497h30V228.198
		C274.103,224.675,276,220.064,276,215z"/>
</g>
<path style="fill:#FF6849;" d="M256,430c-57.429,0-111.42-22.364-152.028-62.972S41,272.429,41,215s22.364-111.42,62.972-152.028
	S198.571,0,256,0s111.42,22.364,152.028,62.972C448.636,103.58,471,157.571,471,215s-22.364,111.42-62.972,152.028
	C367.42,407.636,313.429,430,256,430z M256,30C153.991,30,71,112.991,71,215s82.991,185,185,185s185-82.991,185-185
	S358.009,30,256,30z M256,370c-85.467,0-155-69.533-155-155S170.533,60,256,60s155,69.533,155,155S341.467,370,256,370z M256,90
	c-68.925,0-125,56.075-125,125s56.075,125,125,125s125-56.075,125-125S324.925,90,256,90z"/>
<g>
	<path style="fill:#FD4B2D;" d="M408.028,62.972C367.42,22.364,313.429,0,256,0v30c102.009,0,185,82.991,185,185
		s-82.991,185-185,185v30c57.429,0,111.42-22.364,152.028-62.972C448.636,326.42,471,272.429,471,215S448.636,103.58,408.028,62.972
		z"/>
	<path style="fill:#FD4B2D;" d="M411,215c0-85.467-69.533-155-155-155v30c68.925,0,125,56.075,125,125s-56.075,125-125,125v30
		C341.467,370,411,300.467,411,215z"/>
</g>
<rect x="156" y="482" style="fill:#FF6849;" width="200" height="30"/>
<rect x="256" y="482" style="fill:#FD4B2D;" width="100" height="30"/>
<g>
</g>
<g>
</g>
<g>
</g>
<g>
</g>
<g>
</g>
<g>
</g>
<g>
</g>
<g>
</g>
<g>
</g>
<g>
</g>
<g>
</g>
<g>
</g>
<g>
</g>
<g>
</g>
<g>
</g>
</svg>
