<?xml version="1.0" encoding="iso-8859-1"?>
<!-- Generator: Adobe Illustrator 19.0.0, SVG Export Plug-In . SVG Version: 6.00 Build 0)  -->
<svg version="1.1" id="Capa_1" xmlns="http://www.w3.org/2000/svg" xmlns:xlink="http://www.w3.org/1999/xlink" x="0px" y="0px"
	 viewBox="0 0 512 512" style="enable-background:new 0 0 512 512;" xml:space="preserve">
<path style="fill:#FF6849;" d="M256,461c-66.301,0-128.862-10.809-176.161-30.435C28.354,409.203,0,379.17,0,346V166h512v180
	c0,33.17-28.354,63.203-79.839,84.565C384.862,450.191,322.301,461,256,461z"/>
<path style="fill:#FD4B2D;" d="M256,166v295c66.301,0,128.862-10.809,176.161-30.435C483.646,409.203,512,379.17,512,346V166H256z"
	/>
<path style="fill:#DCF4FF;" d="M256,281c-66.301,0-128.862-10.809-176.161-30.435C28.354,229.202,0,199.17,0,166
	s28.354-63.202,79.839-84.565C127.138,61.809,189.699,51,256,51s128.862,10.809,176.161,30.435C483.646,102.798,512,132.83,512,166
	s-28.354,63.202-79.839,84.565C384.862,270.191,322.301,281,256,281z"/>
<g>
	<path style="fill:#CCEFFF;" d="M432.161,81.435C384.862,61.809,322.301,51,256,51v230c66.301,0,128.862-10.809,176.161-30.435
		C483.646,229.202,512,199.17,512,166S483.646,102.798,432.161,81.435z"/>
	<path style="fill:#CCEFFF;" d="M256,81c-133.186,0-226,44.796-226,85s92.814,85,226,85s226-44.796,226-85S389.186,81,256,81z"/>
</g>
<g>
	<path style="fill:#ACE3FC;" d="M256,81v170c133.186,0,226-44.796,226-85S389.186,81,256,81z"/>
	<path style="fill:#ACE3FC;" d="M256,131c-27.57,0-50,22.43-50,50v50c0,27.57,22.43,50,50,50s50-22.43,50-50v-50
		C306,153.43,283.57,131,256,131z M256,161c11.028,0,20,8.972,20,20v10h-40v-10C236,169.972,244.972,161,256,161z M256,251
		c-11.028,0-20-8.972-20-20v-10h40v10C276,242.028,267.028,251,256,251z"/>
</g>
<path style="fill:#86D6F2;" d="M256,131v30c11.028,0,20,8.972,20,20v10h-20v30h20v10c0,11.028-8.972,20-20,20v30
	c27.57,0,50-22.43,50-50v-50C306,153.43,283.57,131,256,131z"/>
<g>
</g>
<g>
</g>
<g>
</g>
<g>
</g>
<g>
</g>
<g>
</g>
<g>
</g>
<g>
</g>
<g>
</g>
<g>
</g>
<g>
</g>
<g>
</g>
<g>
</g>
<g>
</g>
<g>
</g>
</svg>
