<?xml version="1.0" encoding="iso-8859-1"?>
<!-- Generator: Adobe Illustrator 19.0.0, SVG Export Plug-In . SVG Version: 6.00 Build 0)  -->
<svg version="1.1" id="Capa_1" xmlns="http://www.w3.org/2000/svg" xmlns:xlink="http://www.w3.org/1999/xlink" x="0px" y="0px"
	 viewBox="0 0 512 512" style="enable-background:new 0 0 512 512;" xml:space="preserve">
<g>
	<path style="fill:#E08344;" d="M336,512c-20.036,0-33.468-4.429-45.319-8.336C279.835,500.088,270.468,497,256,497
		c-14.468,0-23.835,3.088-34.681,6.664C209.468,507.571,196.036,512,176,512c-53.271,0-95-28.551-95-65c0-73.351,84.761-195,175-195
		c90.238,0,175,121.649,175,195C431,483.449,389.271,512,336,512z"/>
	<path style="fill:#E08344;" d="M166,230c-42.056,0-75-50.514-75-115S123.944,0,166,0s75,50.514,75,115S208.056,230,166,230z"/>
</g>
<path style="fill:#D6702B;" d="M346,230c-42.056,0-75-50.514-75-115S303.944,0,346,0s75,50.514,75,115S388.056,230,346,230z"/>
<path style="fill:#E08344;" d="M13.08,288.193C-8.115,250-2.711,210.624,23.212,195.741c25.673-14.741,62.751-0.983,85.131,37.452
	c22.209,38.141,15.075,77.778-10.131,92.452C73.552,340,34.396,326.602,13.08,288.193z"/>
<g>
	<path style="fill:#D6702B;" d="M413.788,325.644c-25.206-14.674-32.34-54.311-10.131-92.452
		c22.38-38.435,59.458-52.193,85.131-37.452c25.922,14.884,31.327,54.259,10.131,92.452
		C477.604,326.602,438.448,340,413.788,325.644z"/>
	<path style="fill:#D6702B;" d="M256,252v245c14.468,0,23.835,3.088,34.681,6.664C302.532,507.571,315.964,512,336,512
		c53.271,0,95-28.551,95-65C431,373.649,346.238,252,256,252z"/>
</g>
<g>
</g>
<g>
</g>
<g>
</g>
<g>
</g>
<g>
</g>
<g>
</g>
<g>
</g>
<g>
</g>
<g>
</g>
<g>
</g>
<g>
</g>
<g>
</g>
<g>
</g>
<g>
</g>
<g>
</g>
</svg>
