<?xml version="1.0" encoding="iso-8859-1"?>
<!-- Generator: Adobe Illustrator 19.0.0, SVG Export Plug-In . SVG Version: 6.00 Build 0)  -->
<svg version="1.1" id="Capa_1" xmlns="http://www.w3.org/2000/svg" xmlns:xlink="http://www.w3.org/1999/xlink" x="0px" y="0px"
	 viewBox="0 0 512 512" style="enable-background:new 0 0 512 512;" xml:space="preserve">
<path style="fill:#FFEA84;" d="M272.855,30.737C274.836,27.633,276,23.956,276,20c0-11.046-8.954-20-20-20s-20,8.954-20,20
	c0,3.956,1.164,7.633,3.145,10.737C139.484,39.311,61,123.156,61,225v287h390V225C451,123.156,372.516,39.311,272.855,30.737z
	 M421,225v76h-42v-45c0-40.959-5.972-78.427-17.751-111.364c-9.55-26.705-22.911-50.499-39.711-70.722
	c-0.146-0.176-0.293-0.343-0.44-0.518C379.8,98.699,421,157.125,421,225z M235,256c0-101.512,11.841-153.835,21-179.128
	c9.159,25.293,21,77.616,21,179.128v45h-42V256z M222.454,83.161C210.871,124.625,205,182.737,205,256v45h-42v-45
	c0-65.983,17.084-121.842,49.407-161.539C215.771,90.329,219.141,86.579,222.454,83.161z M205,331v151h-42V331H205z M235,331h42v151
	h-42V331z M307,331h42v151h-42V331z M307,301v-45c0-73.25-5.869-131.354-17.448-172.816C317.081,111.706,349,164.496,349,256v45H307
	z M190.901,73.396c-0.146,0.175-0.293,0.342-0.44,0.518c-16.8,20.222-30.161,44.017-39.711,70.722
	C138.972,177.573,133,215.041,133,256v45H91v-76C91,157.125,132.2,98.699,190.901,73.396z M91,331h42v151H91V331z M379,482V331h42
	v151H379z"/>
<path style="fill:#FFDC40;" d="M272.855,30.737C274.836,27.633,276,23.956,276,20c0-11.046-8.954-20-20-20v76.872
	c9.159,25.293,21,77.616,21,179.128v45h-21v30h21v151h-21v30h195V225C451,123.156,372.516,39.311,272.855,30.737z M349,482h-42V331
	h42V482z M349,301h-42v-45c0-73.25-5.869-131.354-17.448-172.816C317.081,111.706,349,164.496,349,256V301z M421,482h-42V331h42V482
	z M421,301h-42v-45c0-40.959-5.972-78.427-17.751-111.364c-9.55-26.705-22.911-50.499-39.711-70.722
	c-0.146-0.176-0.293-0.343-0.44-0.518C379.8,98.699,421,157.125,421,225V301z"/>
<g>
</g>
<g>
</g>
<g>
</g>
<g>
</g>
<g>
</g>
<g>
</g>
<g>
</g>
<g>
</g>
<g>
</g>
<g>
</g>
<g>
</g>
<g>
</g>
<g>
</g>
<g>
</g>
<g>
</g>
</svg>
