<?xml version="1.0" encoding="iso-8859-1"?>
<!-- Generator: Adobe Illustrator 19.0.0, SVG Export Plug-In . SVG Version: 6.00 Build 0)  -->
<svg version="1.1" id="Capa_1" xmlns="http://www.w3.org/2000/svg" xmlns:xlink="http://www.w3.org/1999/xlink" x="0px" y="0px"
	 viewBox="0 0 512.001 512.001" style="enable-background:new 0 0 512.001 512.001;" xml:space="preserve">
<path style="fill:#DCF4FF;" d="M185.981,395.421c-24.146,8.544-41.193,32.106-39.913,59.46
	c1.437,30.719,26.355,55.627,57.074,57.053c17.912,0.832,34.191-6.199,45.693-17.931c3.944-4.023,10.386-4.023,14.33,0
	c11.502,11.733,27.781,18.763,45.693,17.931c30.719-1.426,55.638-26.334,57.074-57.053c1.279-27.354-15.768-50.916-39.913-59.46
	C314.028,391.178,306,379.859,306,367.141v-222.28c0-12.719,8.028-24.039,20.019-28.281c24.146-8.544,41.193-32.106,39.913-59.46
	c-1.437-30.719-26.355-55.627-57.074-57.053c-17.912-0.832-34.191,6.199-45.693,17.931c-3.944,4.023-10.386,4.023-14.33,0
	C237.333,6.266,221.054-0.764,203.142,0.067c-30.719,1.426-55.638,26.334-57.074,57.053c-1.279,27.354,15.768,50.916,39.913,59.46
	C197.972,120.823,206,132.142,206,144.861v222.28C206,379.859,197.972,391.178,185.981,395.421z"/>
<path style="fill:#CCEFFF;" d="M326.019,395.421C314.028,391.178,306,379.859,306,367.141v-222.28
	c0-12.719,8.028-24.039,20.019-28.281c24.146-8.543,41.193-32.106,39.914-59.46c-1.437-30.719-26.355-55.627-57.074-57.053
	c-17.912-0.832-34.191,6.199-45.693,17.931c-1.972,2.012-4.569,3.017-7.165,3.017v469.97c2.596,0,5.193,1.006,7.165,3.017
	c11.502,11.733,27.781,18.763,45.693,17.931c30.719-1.426,55.638-26.334,57.074-57.053
	C367.212,427.527,350.165,403.964,326.019,395.421z"/>
<g>
</g>
<g>
</g>
<g>
</g>
<g>
</g>
<g>
</g>
<g>
</g>
<g>
</g>
<g>
</g>
<g>
</g>
<g>
</g>
<g>
</g>
<g>
</g>
<g>
</g>
<g>
</g>
<g>
</g>
</svg>
