<?xml version="1.0" encoding="iso-8859-1"?>
<!-- Generator: Adobe Illustrator 19.0.0, SVG Export Plug-In . SVG Version: 6.00 Build 0)  -->
<svg version="1.1" id="Capa_1" xmlns="http://www.w3.org/2000/svg" xmlns:xlink="http://www.w3.org/1999/xlink" x="0px" y="0px"
	 viewBox="0 0 512 512" style="enable-background:new 0 0 512 512;" xml:space="preserve">
<path style="fill:#FFD2D2;" d="M459.176,216.036l-17.477-56.061l-26.363-84.556H96.664l-26.362,84.558l-17.478,56.061
	C18.711,325.456,100.467,436.581,215.08,436.581h81.839C411.533,436.581,493.289,325.456,459.176,216.036z"/>
<path style="fill:#FFA5B9;" d="M459.176,216.036l-17.477-56.061l-26.363-84.556H256v361.162h40.92
	C411.533,436.581,493.289,325.456,459.176,216.036z"/>
<path style="fill:#FFE6E6;" d="M0,172.083h32.929c35.199,0,63.734-28.535,63.734-63.734V75.419H63.734
	C28.535,75.419,0,103.954,0,139.154V172.083z"/>
<path style="fill:#FFD2D2;" d="M415.336,75.419v32.929c0,35.199,28.535,63.734,63.734,63.734H512v-32.929
	c0-35.199-28.535-63.734-63.734-63.734H415.336z"/>
<path style="fill:#FFE6E6;" d="M319.734,372.846H192.266c-17.6,0-31.867-14.267-31.867-31.867v-63.734
	c0-17.6,14.267-31.867,31.867-31.867h127.469c17.6,0,31.867,14.267,31.867,31.867v63.734
	C351.602,358.58,337.335,372.846,319.734,372.846z"/>
<circle style="fill:#994C0F;" cx="171.021" cy="192.266" r="21.245"/>
<circle style="fill:#713708;" cx="340.979" cy="192.266" r="21.245"/>
<path style="fill:#FFD2D2;" d="M319.734,245.378H256v127.469h63.734c17.6,0,31.867-14.267,31.867-31.867v-63.734
	C351.602,259.645,337.335,245.378,319.734,245.378z"/>
<rect x="197.577" y="288.929" style="fill:#F4717A;" width="31.867" height="42.49"/>
<rect x="282.556" y="288.929" style="fill:#C93C51;" width="31.867" height="42.49"/>
<g>
</g>
<g>
</g>
<g>
</g>
<g>
</g>
<g>
</g>
<g>
</g>
<g>
</g>
<g>
</g>
<g>
</g>
<g>
</g>
<g>
</g>
<g>
</g>
<g>
</g>
<g>
</g>
<g>
</g>
</svg>
