<?xml version="1.0" encoding="iso-8859-1"?>
<!-- Generator: Adobe Illustrator 19.0.0, SVG Export Plug-In . SVG Version: 6.00 Build 0)  -->
<svg version="1.1" id="Capa_1" xmlns="http://www.w3.org/2000/svg" xmlns:xlink="http://www.w3.org/1999/xlink" x="0px" y="0px"
	 viewBox="0 0 512 512" style="enable-background:new 0 0 512 512;" xml:space="preserve">
<path style="fill:#ACE3FC;" d="M106,122C47.551,122,0,74.448,0,16V0h30v16c0,41.906,34.093,76,76,76V122z"/>
<path style="fill:#86D6F2;" d="M406,122V92c41.907,0,76-34.094,76-76V0h30v16C512,74.448,464.449,122,406,122z"/>
<path style="fill:#DCF4FF;" d="M300.486,512h-88.972c-47.919,0-87.435-37.546-89.882-85.402L106,91h300l-15.632,335.598
	C387.921,474.454,348.405,512,300.486,512z"/>
<path style="fill:#CCEFFF;" d="M255.999,91v421h44.486c47.919,0,87.435-37.546,89.883-85.402L406,91H255.999z"/>
<path style="fill:#FFD2D2;" d="M256,317c-54.157,0-102.868,23.308-136.658,60.435l2.29,49.162
	C124.079,474.454,163.595,512,211.514,512h88.972c47.919,0,87.435-37.546,89.883-85.402l2.29-49.162
	C358.868,340.308,310.157,317,256,317z"/>
<path style="fill:#FFA5B9;" d="M256,317L256,317l-0.001,195h44.486c47.919,0,87.435-37.546,89.883-85.402l2.29-49.162
	C358.868,340.308,310.157,317,256,317z"/>
<path style="fill:#0A4EAF;" d="M226.5,171L226.5,171c32.861,0,59.5,26.639,59.5,59.5v19c0,32.861,26.639,59.5,59.5,59.5h50.346
	L406,91H167v20.5C167,144.361,193.639,171,226.5,171z"/>
<path style="fill:#063E8B;" d="M256,91v87.836c17.917,10.253,30,29.541,30,51.664v19c0,32.861,26.639,59.5,59.5,59.5h50.346L406,91
	H256z"/>
<path style="fill:#CCEFFF;" d="M25,182h31c33.137,0,60-26.863,60-60V91H85c-33.137,0-60,26.863-60,60V182z"/>
<path style="fill:#ACE3FC;" d="M396,91v31c0,33.137,26.863,60,60,60h31v-31c0-33.137-26.863-60-60-60H396z"/>
<circle style="fill:#F4717A;" cx="206" cy="432" r="20"/>
<circle style="fill:#C93C51;" cx="306" cy="432" r="20"/>
<circle style="fill:#0A4EAF;" cx="176" cy="226" r="20"/>
<circle style="fill:#86D6F2;" cx="336" cy="226" r="20"/>
<g>
</g>
<g>
</g>
<g>
</g>
<g>
</g>
<g>
</g>
<g>
</g>
<g>
</g>
<g>
</g>
<g>
</g>
<g>
</g>
<g>
</g>
<g>
</g>
<g>
</g>
<g>
</g>
<g>
</g>
</svg>
