<?xml version="1.0" encoding="iso-8859-1"?>
<!-- Generator: Adobe Illustrator 19.0.0, SVG Export Plug-In . SVG Version: 6.00 Build 0)  -->
<svg version="1.1" id="Capa_1" xmlns="http://www.w3.org/2000/svg" xmlns:xlink="http://www.w3.org/1999/xlink" x="0px" y="0px"
	 viewBox="0 0 512 512" style="enable-background:new 0 0 512 512;" xml:space="preserve">
<path style="fill:#FFD2D2;" d="M98.831,452.446l0.009-0.103l-30.793-2.639c0.194-2.261,2.305-22.688,16.559-43.476
	c13.379-19.512,40.123-42.77,91.553-42.77c47.662,0,80.916,12.362,110.254,23.269c26.24,9.755,51.025,18.969,84.118,18.969
	c60.608,0,110.204-48.689,110.558-108.538c0.173-29.162-11.05-56.608-31.602-77.283c-20.554-20.676-47.928-32.062-77.08-32.062
	h-36.314v-30.905h36.314c37.442,0,72.601,14.624,98.998,41.179c26.396,26.553,40.811,61.803,40.589,99.255
	c-0.455,76.789-63.915,139.26-141.463,139.26c-38.653,0-67.241-10.627-94.887-20.905c-28.209-10.487-57.381-21.332-99.485-21.332
	c-29.955,0-51.95,9.54-65.374,28.356C100.453,437.203,98.847,452.295,98.831,452.446z"/>
<path style="fill:#FFA5B9;" d="M471.409,198.086c-26.398-26.555-61.556-41.179-98.998-41.179h-36.314v30.905h36.314
	c29.152,0,56.527,11.387,77.08,32.062c20.552,20.674,31.775,48.12,31.602,77.283c-0.354,59.848-49.951,108.538-110.558,108.538
	c-33.095,0-57.879-9.214-84.118-18.969c-22.79-8.472-47.947-17.819-80.379-21.571v31.14c27.036,3.578,48.592,11.586,69.61,19.4
	c27.646,10.278,56.234,20.905,94.887,20.905c77.548,0,141.008-62.472,141.463-139.26
	C512.219,259.888,497.805,224.639,471.409,198.086z"/>
<path style="fill:#CCEFFF;" d="M206.036,90.46c-12.094,0-23.946,1.043-35.469,3.041L60.786,150.368
	C23.243,187.687,0,239.378,0,296.496h412.072C412.072,182.705,319.827,90.46,206.036,90.46z"/>
<circle style="fill:#0A4EAF;" cx="74.173" cy="239.836" r="20.604"/>
<circle style="fill:#DCF4FF;" cx="115.38" cy="121.365" r="61.811"/>
<path style="fill:#ACE3FC;" d="M206.036,296.496h206.036c0-113.791-92.246-206.036-206.036-206.036V296.496z"/>
<g>
</g>
<g>
</g>
<g>
</g>
<g>
</g>
<g>
</g>
<g>
</g>
<g>
</g>
<g>
</g>
<g>
</g>
<g>
</g>
<g>
</g>
<g>
</g>
<g>
</g>
<g>
</g>
<g>
</g>
</svg>
