<?xml version="1.0" encoding="iso-8859-1"?>
<!-- Generator: Adobe Illustrator 19.0.0, SVG Export Plug-In . SVG Version: 6.00 Build 0)  -->
<svg version="1.1" id="Capa_1" xmlns="http://www.w3.org/2000/svg" xmlns:xlink="http://www.w3.org/1999/xlink" x="0px" y="0px"
	 viewBox="0 0 512 512" style="enable-background:new 0 0 512 512;" xml:space="preserve">
<path style="fill:#DCF4FF;" d="M443.017,60.827c-3.423-3.85-7.925-7.444-13.529-10.756c-10.313-6.095-24.635-11.459-42.57-15.943
	C351.765,25.34,305.271,20.5,256,20.5s-95.765,4.84-130.917,13.628c-17.935,4.484-32.257,9.848-42.57,15.943
	c-5.569,3.291-10.051,6.86-13.466,10.683C24.519,108.4,0,170.427,0,235.5c0,68.38,26.629,132.667,74.98,181.019
	C123.333,464.871,187.62,491.5,256,491.5s132.667-26.629,181.02-74.981C485.371,368.167,512,303.88,512,235.5
	C512,170.463,487.504,108.467,443.017,60.827z"/>
<g>
	<path style="fill:#CCEFFF;" d="M443.017,60.827c-3.423-3.85-7.925-7.444-13.529-10.756c-10.313-6.095-24.635-11.459-42.57-15.943
		C351.765,25.34,305.271,20.5,256,20.5v471c68.38,0,132.667-26.629,181.02-74.981C485.371,368.167,512,303.88,512,235.5
		C512,170.463,487.504,108.467,443.017,60.827z"/>
	<path style="fill:#CCEFFF;" d="M139.353,61.579C171.321,54.435,212.747,50.5,256,50.5s84.679,3.935,116.647,11.079
		c34.493,7.709,44.942,16.017,47.677,18.921c-2.734,2.904-13.184,11.212-47.677,18.921C340.679,106.565,299.253,110.5,256,110.5
		s-84.679-3.935-116.647-11.079C104.859,91.712,94.41,83.404,91.675,80.5C94.41,77.596,104.859,69.288,139.353,61.579z"/>
	<path style="fill:#CCEFFF;" d="M256,461.5c-124.617,0-226-101.383-226-226c0-47.693,14.937-93.532,42.508-131.8
		c2.825,2.536,6.149,4.951,10.005,7.229c10.313,6.095,24.635,11.459,42.57,15.943C160.235,135.66,206.729,140.5,256,140.5
		s95.765-4.84,130.917-13.628c17.936-4.484,32.258-9.848,42.57-15.943c3.854-2.278,7.178-4.692,10.002-7.227
		C467.063,141.971,482,187.809,482,235.5C482,360.117,380.617,461.5,256,461.5z"/>
</g>
<g>
	<path style="fill:#ACE3FC;" d="M256,110.5c43.253,0,84.679-3.935,116.647-11.079c34.493-7.709,44.942-16.017,47.677-18.921
		c-2.734-2.904-13.184-11.212-47.677-18.921C340.679,54.435,299.253,50.5,256,50.5V110.5z"/>
	<path style="fill:#ACE3FC;" d="M439.489,103.702c-2.824,2.535-6.148,4.949-10.002,7.227c-10.313,6.095-24.635,11.459-42.57,15.943
		C351.765,135.66,305.271,140.5,256,140.5v321c124.617,0,226-101.383,226-226C482,187.809,467.063,141.971,439.489,103.702z"/>
	<path style="fill:#ACE3FC;" d="M372.498,190.5c-26.623,0-39.62-4.463-53.381-9.187c-14.762-5.068-31.493-10.813-63.122-10.813
		c-31.628,0-48.358,5.745-63.12,10.813c-13.76,4.725-26.756,9.187-53.377,9.187s-39.618-4.462-53.378-9.187
		c-11.982-4.114-25.262-8.673-46.752-10.244C33.203,191.772,30,213.437,30,235.5c0,124.617,101.383,226,226,226s226-101.383,226-226
		c0-22.063-3.203-43.727-9.369-64.431c-21.49,1.571-34.771,6.13-46.753,10.244C412.117,186.038,399.12,190.5,372.498,190.5z"/>
</g>
<path style="fill:#86D6F2;" d="M472.631,171.069c-21.49,1.571-34.771,6.13-46.753,10.244c-13.761,4.725-26.758,9.187-53.38,9.187
	c-26.623,0-39.62-4.463-53.381-9.187c-14.761-5.068-31.492-10.812-63.117-10.813v291l0,0c124.617,0,226-101.383,226-226
	C482,213.437,478.797,191.773,472.631,171.069z"/>
<path style="fill:#FFAB15;" d="M357,340.073v-30c-24.394,0-45.118,15.968-52.297,37.997l-4.21-4.21
	c-35.147-35.147-92.132-35.147-127.279,0L152,365.073l21.213,21.213c35.147,35.147,92.132,35.147,127.279,0l4.21-4.21
	c7.18,22.029,27.904,37.997,52.297,37.997v-30c-13.785,0-25-11.215-25-25S343.215,340.073,357,340.073z"/>
<g>
	<circle style="fill:#DCF4FF;" cx="117" cy="292.5" r="20"/>
	<circle style="fill:#DCF4FF;" cx="170" cy="238.5" r="20"/>
</g>
<path style="fill:#FF9400;" d="M357,340.073v-30c-24.394,0-45.118,15.968-52.297,37.997l-4.21-4.21
	c-12.673-12.672-28.19-20.75-44.493-24.284v90.996c16.303-3.534,31.82-11.612,44.492-24.285l4.21-4.21
	c7.18,22.029,27.904,37.997,52.297,37.997v-30c-13.785,0-25-11.215-25-25S343.215,340.073,357,340.073z"/>
<g>
</g>
<g>
</g>
<g>
</g>
<g>
</g>
<g>
</g>
<g>
</g>
<g>
</g>
<g>
</g>
<g>
</g>
<g>
</g>
<g>
</g>
<g>
</g>
<g>
</g>
<g>
</g>
<g>
</g>
</svg>
