<?xml version="1.0" encoding="iso-8859-1"?>
<!-- Generator: Adobe Illustrator 19.0.0, SVG Export Plug-In . SVG Version: 6.00 Build 0)  -->
<svg version="1.1" id="Capa_1" xmlns="http://www.w3.org/2000/svg" xmlns:xlink="http://www.w3.org/1999/xlink" x="0px" y="0px"
	 viewBox="0 0 512 512" style="enable-background:new 0 0 512 512;" xml:space="preserve">
<path style="fill:#DCF4FF;" d="M240.971,451.883c-71.139,0-140.274-34.067-140.274-120.235c0-60.117,0-91.178,0-91.178
	l-40.078-20.039v-20.039c0-70.137,80.157-80.157,80.157-80.157L220.932,0c0,0,20.039,17.033,20.039,70.137
	s-50.098,80.157-50.098,80.157l40.078,50.098l114.569,71.196c16.68,10.365,29.52,25.892,36.569,44.22l33.939,88.241
	c3.5,9.1,5.294,18.766,5.294,28.516l0,0c0,43.871-35.564,79.434-79.434,79.434H110.716l0,0c0-33.202,26.916-60.117,60.117-60.117
	h70.137"/>
<path style="fill:#CCEFFF;" d="M431.342,385.753c-7.926,0-14.758,4.614-18.008,11.292l-31.245-81.237
	c-7.05-18.329-19.89-33.855-36.569-44.22l-114.569-71.197l10.02,251.491h-70.137c-33.202,0-60.117,26.916-60.117,60.117h231.172
	c43.871,0,79.435-35.564,79.435-79.435c0-3.288-0.221-6.566-0.626-9.817c3.087,1.943,6.729,3.083,10.646,3.083
	c11.068,0,20.039-8.972,20.039-20.039C451.382,394.724,442.41,385.753,431.342,385.753z"/>
<path style="fill:#86D6F2;" d="M256,451.883h-30.059c0-58.01,47.195-105.205,105.205-105.205v30.059
	C289.711,376.736,256,410.447,256,451.883z"/>
<circle style="fill:#0A4EAF;" cx="110.716" cy="168.329" r="20.039"/>
<path style="fill:#ACE3FC;" d="M196.083,446.985V325.556h-30.299v111.212C175.299,441.165,185.487,444.546,196.083,446.985z"/>
<g>
</g>
<g>
</g>
<g>
</g>
<g>
</g>
<g>
</g>
<g>
</g>
<g>
</g>
<g>
</g>
<g>
</g>
<g>
</g>
<g>
</g>
<g>
</g>
<g>
</g>
<g>
</g>
<g>
</g>
</svg>
