<?xml version="1.0" encoding="iso-8859-1"?>
<!-- Generator: Adobe Illustrator 19.0.0, SVG Export Plug-In . SVG Version: 6.00 Build 0)  -->
<svg version="1.1" id="Capa_1" xmlns="http://www.w3.org/2000/svg" xmlns:xlink="http://www.w3.org/1999/xlink" x="0px" y="0px"
	 viewBox="0 0 512 512" style="enable-background:new 0 0 512 512;" xml:space="preserve">
<path style="fill:#ACE3FC;" d="M437,130.08H145.667L86.588,249.503c17.601,25.937,41.099,47.675,68.303,63.262l22.511,127.315
	h35.618l22.594-101.177c7.299,0.782,14.624,1.177,21.9,1.177h144.298l6.899,21.791l-9.683,78.209h37.734L482,306.28v48.8h30v-150
	C512,163.725,478.355,130.08,437,130.08z"/>
<g>
	<path style="fill:#86D6F2;" d="M437,130.08H330.5v210h71.312l6.899,21.791l-9.683,78.209h37.734L482,306.28v48.8h30v-150
		C512,163.725,478.355,130.08,437,130.08z"/>
	<path style="fill:#86D6F2;" d="M95.003,135.08c-34.256,0-65.703-18.714-82.068-48.84l26.361-14.32
		c11.111,20.454,32.457,33.16,55.707,33.16c23.222,0,44.555-12.683,55.674-33.1l26.346,14.349
		C160.646,116.4,129.217,135.08,95.003,135.08z"/>
</g>
<g>
	<circle style="fill:#063E8B;" cx="431" cy="257.08" r="20"/>
	<circle style="fill:#063E8B;" cx="210" cy="285.08" r="20"/>
	<path style="fill:#063E8B;" d="M328,264.08c-24.931,0-45.39-19.51-46.909-44.064C246.596,218.488,219,189.946,219,155.08v-25h223
		v20c0,37.623-29.838,68.408-67.091,69.94C373.387,244.573,352.929,264.08,328,264.08z"/>
</g>
<path style="fill:#DCF4FF;" d="M107.309,260.08H82.691c-16.925,0-31.407-12.086-34.436-28.739L35.118,159.08H24
	c-13.233,0-24-10.766-24-24v-15h190v15c0,13.234-10.767,24-24,24h-11.118l-13.138,72.261
	C138.716,247.994,124.233,260.08,107.309,260.08z"/>
<path style="fill:#0A4EAF;" d="M71,157.08c0,11.046,8.954,20,20,20s20,8.954,20,20v62.799c15.301-1.61,27.939-13.111,30.744-28.538
	l13.138-72.261H166c13.233,0,24-10.766,24-24v-15H71V157.08z"/>
<path style="fill:#032E68;" d="M330.5,130.08v133.93c23.783-1.253,42.938-20.264,44.409-43.99
	C412.162,218.489,442,187.703,442,150.08v-20H330.5z"/>
<g>
</g>
<g>
</g>
<g>
</g>
<g>
</g>
<g>
</g>
<g>
</g>
<g>
</g>
<g>
</g>
<g>
</g>
<g>
</g>
<g>
</g>
<g>
</g>
<g>
</g>
<g>
</g>
<g>
</g>
</svg>
