<?xml version="1.0" encoding="iso-8859-1"?>
<!-- Generator: Adobe Illustrator 19.0.0, SVG Export Plug-In . SVG Version: 6.00 Build 0)  -->
<svg version="1.1" id="Capa_1" xmlns="http://www.w3.org/2000/svg" xmlns:xlink="http://www.w3.org/1999/xlink" x="0px" y="0px"
	 viewBox="0 0 512 512" style="enable-background:new 0 0 512 512;" xml:space="preserve">
<path style="fill:#FEA832;" d="M344.603,512h-85.901v-30.059h85.901c51.724,0,100.352-20.142,136.927-56.718l21.255,21.255
	c-20.878,20.878-45.295,37.194-72.575,48.493C402.932,506.271,374.13,512,344.603,512z"/>
<path style="fill:#FEDBAB;" d="M390.961,451.883V350.685c0-83.005-67.288-150.294-150.294-150.294l0,0L160.51,0h-30.059v51.1
	L70.334,71.139v20.039L9.215,111.217v20.039l50.098,40.078h51.1v219.429L40.276,500.978V512h60.117l75.147-111.217l75.147,51.1l0,0
	c-33.202,0-60.117,26.916-60.117,60.117l0,0h140.274C364.045,512,390.961,485.084,390.961,451.883z"/>
<path style="fill:#FEC478;" d="M250.687,200.732v251.151l0,0c-33.202,0-60.117,26.916-60.117,60.117l0,0h140.274
	c33.202,0,60.117-26.916,60.117-60.117V350.685C390.961,271.047,329.019,205.889,250.687,200.732z"/>
<g>
	<polygon style="fill:#E08344;" points="70.334,91.178 150.522,171.366 59.313,171.335 9.215,131.256 9.215,111.217 	"/>
	<path style="fill:#E08344;" d="M250.687,200.732v89.835c0,33.202,26.916,60.117,60.117,60.117h80.157
		C390.961,271.047,329.019,205.889,250.687,200.732z"/>
</g>
<g>
</g>
<g>
</g>
<g>
</g>
<g>
</g>
<g>
</g>
<g>
</g>
<g>
</g>
<g>
</g>
<g>
</g>
<g>
</g>
<g>
</g>
<g>
</g>
<g>
</g>
<g>
</g>
<g>
</g>
</svg>
