<?xml version="1.0" encoding="iso-8859-1"?>
<!-- Generator: Adobe Illustrator 19.0.0, SVG Export Plug-In . SVG Version: 6.00 Build 0)  -->
<svg version="1.1" id="Capa_1" xmlns="http://www.w3.org/2000/svg" xmlns:xlink="http://www.w3.org/1999/xlink" x="0px" y="0px"
	 viewBox="0 0 512 512" style="enable-background:new 0 0 512 512;" xml:space="preserve">
<rect x="204.697" y="379.887" transform="matrix(-0.9417 -0.3363 0.3363 -0.9417 283.7484 898.6159)" style="fill:#FEA832;" width="29.998" height="89.695"/>
<rect x="138.159" y="359.808" transform="matrix(-0.9417 -0.3363 0.3363 -0.9417 157.8234 857.3362)" style="fill:#FEC478;" width="29.998" height="110.384"/>
<rect x="64.59" y="445" style="fill:#FEDBAB;" width="270.5" height="30"/>
<g>
	<rect x="196.42" y="445" style="fill:#FEC478;" width="138.67" height="30"/>
	<polygon style="fill:#FEC478;" points="90.59,106 13.16,106 80.988,49.477 100.193,72.523 90.59,80.526 	"/>
</g>
<path style="fill:#DCF4FF;" d="M498.84,512L186.78,26.728C176.066,10.069,157.618,0,137.812,0l0,0
	C105.657,0,79.59,26.067,79.59,58.222V250c0,88.366,71.634,160,160,160h70v102H498.84z"/>
<path style="fill:#CCEFFF;" d="M498.84,512L186.78,26.728C176.066,10.069,157.618,0,137.812,0l0,0L309.59,410v102H498.84z"/>
<g>
	<path style="fill:#0A4EAF;" d="M189.59,133.202V271c0,49.706,40.294,90,90,90h122.178L244.822,116.974
		C228.628,91.794,189.59,103.263,189.59,133.202z"/>
	<circle style="fill:#0A4EAF;" cx="139.59" cy="61" r="20"/>
</g>
<polygon style="fill:#ACE3FC;" points="498.84,512 433.248,410 309.59,410 309.59,512 "/>
<path style="fill:#063E8B;" d="M289.061,361h112.677L244.632,116.691c-14.855-22.597-48.32-15.069-54.16,9L289.061,361z"/>
<g>
</g>
<g>
</g>
<g>
</g>
<g>
</g>
<g>
</g>
<g>
</g>
<g>
</g>
<g>
</g>
<g>
</g>
<g>
</g>
<g>
</g>
<g>
</g>
<g>
</g>
<g>
</g>
<g>
</g>
</svg>
