<?xml version="1.0" encoding="iso-8859-1"?>
<!-- Generator: Adobe Illustrator 19.0.0, SVG Export Plug-In . SVG Version: 6.00 Build 0)  -->
<svg version="1.1" id="Layer_1" xmlns="http://www.w3.org/2000/svg" xmlns:xlink="http://www.w3.org/1999/xlink" x="0px" y="0px"
	 viewBox="0 0 495 495" style="enable-background:new 0 0 495 495;" xml:space="preserve">
<g>
	<rect x="61.564" y="17.251" style="fill:#C4C8F5;" width="371.872" height="40"/>
	<rect x="61.564" y="136.167" style="fill:#C4C8F5;" width="40" height="40"/>
	<rect x="241.564" y="136.167" style="fill:#C4C8F5;" width="81.872" height="40"/>
	<rect x="393.436" y="136.167" style="fill:#C4C8F5;" width="40" height="40"/>
	<rect x="393.436" y="276.084" style="fill:#C4C8F5;" width="40" height="40"/>
	<rect x="171.564" y="276.084" style="fill:#C4C8F5;" width="81.872" height="40"/>
	<rect x="61.564" y="276.084" style="fill:#C4C8F5;" width="40" height="40"/>
	<rect x="433.436" style="fill:#A7ADF0;" width="40" height="395"/>
	<rect x="101.564" y="100.667" style="fill:#1E81CE;" width="70" height="111"/>
	<rect x="171.564" y="100.667" style="fill:#165C92;" width="70" height="111"/>
	<rect x="323.436" y="100.667" style="fill:#1E81CE;" width="70" height="111"/>
	<rect x="253.436" y="240.584" style="fill:#1E81CE;" width="70" height="111"/>
	<rect x="323.436" y="240.584" style="fill:#165C92;" width="70" height="111"/>
	<rect x="101.564" y="240.584" style="fill:#1E81CE;" width="70" height="111"/>
	<rect x="21.564" style="fill:#A7ADF0;" width="40" height="395"/>
	<rect y="395" style="fill:#FFB655;" width="247.5" height="100"/>
	<rect x="247.5" y="395" style="fill:#FF9811;" width="247.5" height="100"/>
</g>
<g>
</g>
<g>
</g>
<g>
</g>
<g>
</g>
<g>
</g>
<g>
</g>
<g>
</g>
<g>
</g>
<g>
</g>
<g>
</g>
<g>
</g>
<g>
</g>
<g>
</g>
<g>
</g>
<g>
</g>
</svg>
