<?xml version="1.0" encoding="iso-8859-1"?>
<!-- Generator: Adobe Illustrator 19.0.0, SVG Export Plug-In . SVG Version: 6.00 Build 0)  -->
<svg version="1.1" id="Layer_1" xmlns="http://www.w3.org/2000/svg" xmlns:xlink="http://www.w3.org/1999/xlink" x="0px" y="0px"
	 viewBox="0 0 495 495" style="enable-background:new 0 0 495 495;" xml:space="preserve">
<g>
	<path style="fill:#165C92;" d="M412.5,0v60.738h20.004v169.519H412.5v149.61c17.998,0,32.641,14.632,32.641,32.637
		c0,17.994-14.644,32.637-32.637,32.637C412.5,445.141,412.5,495,412.5,495H495V0H412.5z"/>
	<path style="fill:#1E81CE;" d="M379.866,412.504c0-18.004,14.631-32.635,32.634-32.637v-149.61h-19.996V60.738H412.5V0H330v495
		h82.5v-49.859C394.497,445.139,379.866,430.496,379.866,412.504z"/>
	<path style="fill:#B3D8F4;" d="M247.5,0v60.738h20v169.519h-20v149.61c17.994,0,32.637,14.632,32.637,32.637
		c0,17.994-14.643,32.637-32.637,32.637V495H330V0H247.5z"/>
	<path style="fill:#D1E7F8;" d="M214.863,412.504c0-18.005,14.643-32.637,32.637-32.637v-149.61h-20V60.738h20V0H165v495h82.5
		v-49.859C229.506,445.141,214.863,430.498,214.863,412.504z"/>
	<path style="fill:#FF9811;" d="M82.5,0v60.738h19.996v169.519H82.5v149.61c18.003,0.002,32.634,14.634,32.634,32.637
		c0,17.993-14.631,32.635-32.634,32.637V495H165V0H82.5z"/>
	<path style="fill:#FFB655;" d="M82.496,445.141c-17.994,0-32.637-14.643-32.637-32.637c0-18.005,14.644-32.637,32.637-32.637
		c0.004,0,0.004-149.61,0.004-149.61H62.496V60.738H82.5V0H0v495h82.5C82.5,495,82.5,445.141,82.496,445.141z"/>
	<path style="fill:#FFFFFF;" d="M379.866,412.504c0,17.993,14.631,32.635,32.634,32.637c17.998,0,32.641-14.643,32.641-32.637
		c0-18.005-14.644-32.637-32.637-32.637C394.497,379.868,379.866,394.5,379.866,412.504z"/>
	<path style="fill:#FFFFFF;" d="M214.863,412.504c0,17.994,14.643,32.637,32.637,32.637s32.637-14.643,32.637-32.637
		c0-18.005-14.643-32.637-32.637-32.637S214.863,394.499,214.863,412.504z"/>
	<path style="fill:#FFFFFF;" d="M49.859,412.504c0,17.994,14.644,32.637,32.637,32.637c18.007-0.002,32.637-14.645,32.637-32.637
		c0-18.004-14.631-32.635-32.634-32.637C64.502,379.866,49.859,394.499,49.859,412.504z"/>
	<rect x="392.504" y="60.738" style="fill:#003F8A;" width="40" height="169.519"/>
	<rect x="227.5" y="60.738" style="fill:#78B9EB;" width="40" height="169.519"/>
	<rect x="62.496" y="60.738" style="fill:#FF6243;" width="40" height="169.519"/>
</g>
<g>
</g>
<g>
</g>
<g>
</g>
<g>
</g>
<g>
</g>
<g>
</g>
<g>
</g>
<g>
</g>
<g>
</g>
<g>
</g>
<g>
</g>
<g>
</g>
<g>
</g>
<g>
</g>
<g>
</g>
</svg>
