<?xml version="1.0" encoding="iso-8859-1"?>
<!-- Generator: Adobe Illustrator 19.0.0, SVG Export Plug-In . SVG Version: 6.00 Build 0)  -->
<svg version="1.1" id="Layer_1" xmlns="http://www.w3.org/2000/svg" xmlns:xlink="http://www.w3.org/1999/xlink" x="0px" y="0px"
	 viewBox="0 0 512 512" style="enable-background:new 0 0 512 512;" xml:space="preserve">
<polygon style="fill:#88ACB5;" points="318.847,385.409 318.847,441.673 256,464.178 193.153,441.673 193.153,385.409 "/>
<rect x="193.153" y="441.67" style="fill:#A7CBCF;" width="125.693" height="47.7"/>
<path style="fill:#5195AF;" d="M395.636,497.808H116.364c-4.661,0-8.44-3.779-8.44-8.44s3.779-8.44,8.44-8.44h279.273
	c4.662,0,8.44,3.779,8.44,8.44S400.297,497.808,395.636,497.808z"/>
<path style="fill:#A7CBCF;" d="M500.365,14.192h-33.758v347.564L512,339.25V25.827C512,19.436,506.768,14.192,500.365,14.192z"/>
<path style="fill:#C7E7EB;" d="M466.606,14.192H11.635C5.233,14.192,0,19.436,0,25.827V339.25l33.758,22.505h444.484V25.827
	C478.242,19.436,473.009,14.192,466.606,14.192z"/>
<path style="fill:#367596;" d="M478.242,339.25l-11.635,68.664h33.758c6.403,0,11.635-5.233,11.635-11.635V339.25H478.242z"/>
<path style="fill:#5195AF;" d="M0,339.25v57.029c0,6.403,5.233,11.635,11.635,11.635h454.971c6.403,0,11.635-5.233,11.635-11.635
	V339.25H0z"/>
<rect x="115.341" y="171.796" style="fill:#FF6176;" width="45.011" height="122.441"/>
<rect x="194.11" y="131.871" style="fill:#FF0F47;" width="45.011" height="162.366"/>
<rect x="272.879" y="94.118" style="fill:#C20035;" width="45.011" height="200.119"/>
<rect x="351.648" y="210.64" style="fill:#940044;" width="45.011" height="83.597"/>
<g>
</g>
<g>
</g>
<g>
</g>
<g>
</g>
<g>
</g>
<g>
</g>
<g>
</g>
<g>
</g>
<g>
</g>
<g>
</g>
<g>
</g>
<g>
</g>
<g>
</g>
<g>
</g>
<g>
</g>
</svg>
