<?xml version="1.0" encoding="iso-8859-1"?>
<!-- Generator: Adobe Illustrator 19.0.0, SVG Export Plug-In . SVG Version: 6.00 Build 0)  -->
<svg version="1.1" id="Capa_1" xmlns="http://www.w3.org/2000/svg" xmlns:xlink="http://www.w3.org/1999/xlink" x="0px" y="0px"
	 viewBox="0 0 512 512" style="enable-background:new 0 0 512 512;" xml:space="preserve">
<path style="fill:#E37500;" d="M270.916,159.611l-29.831-3.188c12.163-113.866-48.932-126.148-51.539-126.614l0.175,0.028
	l4.563-29.651c2.529,0.389,25.312,4.455,46.027,27.069C266.9,56.282,277.197,100.813,270.916,159.611z"/>
<path style="fill:#00AA00;" d="M446.742,58.654l-10.6,10.61c-31.931,31.921-63.422,48.042-93.783,48.042
	c-3.94,0-7.85-0.27-11.74-0.81c-46.072-6.4-70.183-48.732-71.193-50.532l-4.08-7.31l4.08-7.31c1.01-1.8,25.121-44.132,71.193-50.532
	c33.951-4.72,69.453,11.17,105.524,47.232L446.742,58.654z"/>
<path style="fill:#008000;" d="M446.742,58.654l-10.6,10.61c-31.931,31.921-63.422,48.042-93.783,48.042
	c-3.94,0-7.85-0.27-11.74-0.81c-46.072-6.4-70.183-48.732-71.193-50.532l-4.08-7.31C255.345,58.654,446.742,58.654,446.742,58.654z"
	/>
<path style="fill:#FF3B62;" d="M476.863,329.684c-8.59,42.472-28.141,84.733-55.032,119.014C389.89,489.42,352.709,512,319.108,512
	c-5.97,0-11.83-0.72-17.531-2.17c-4.42-0.76-25.621-4.8-45.572-14.791c-19.961,9.99-41.162,14.031-45.582,14.791
	c-5.7,1.45-11.56,2.17-17.531,2.17c-33.601,0-70.783-22.581-102.724-63.302c-26.891-34.281-46.442-76.543-55.032-119.014
	c-9.91-48.972-4.49-94.334,15.691-131.185c20.461-37.361,48.472-60.682,83.263-69.323c51.562-12.82,102.404,10.98,121.915,21.821
	c19.501-10.84,70.343-34.641,121.905-21.821c34.791,8.64,62.802,31.961,83.263,69.323
	C481.354,235.35,486.774,280.712,476.863,329.684z"/>
<path style="fill:#E50020;" d="M476.863,329.684c-8.59,42.472-28.141,84.733-55.032,119.014C389.89,489.42,352.709,512,319.108,512
	c-5.97,0-11.83-0.72-17.531-2.17c-4.42-0.76-25.621-4.8-45.572-14.791V150.997c19.501-10.84,70.343-34.641,121.905-21.821
	c34.791,8.64,62.802,31.961,83.263,69.323C481.354,235.35,486.774,280.712,476.863,329.684z"/>
<g>
</g>
<g>
</g>
<g>
</g>
<g>
</g>
<g>
</g>
<g>
</g>
<g>
</g>
<g>
</g>
<g>
</g>
<g>
</g>
<g>
</g>
<g>
</g>
<g>
</g>
<g>
</g>
<g>
</g>
</svg>
