<?xml version="1.0" encoding="iso-8859-1"?>
<!-- Generator: Adobe Illustrator 18.0.0, SVG Export Plug-In . SVG Version: 6.00 Build 0)  -->
<!DOCTYPE svg PUBLIC "-//W3C//DTD SVG 1.1//EN" "http://www.w3.org/Graphics/SVG/1.1/DTD/svg11.dtd">
<svg version="1.1" id="Capa_1" xmlns="http://www.w3.org/2000/svg" xmlns:xlink="http://www.w3.org/1999/xlink" x="0px" y="0px"
	 viewBox="0 0 58.001 58.001" style="enable-background:new 0 0 58.001 58.001;" xml:space="preserve">
<g>
	<polygon style="fill:#556080;" points="58,4 58,0 0,0 0,5 0.001,5 0.001,58 58.001,58 58.001,4 	"/>
	<path style="fill:#2C2F38;" d="M55.62,13H2.38C1.065,13,0,14.066,0,15.38v11.241C0,27.935,1.065,29,2.38,29H4v-4v-5h50v5v4h1.62
		c1.314,0,2.38-1.065,2.38-2.38V15.38C58,14.066,56.935,13,55.62,13z"/>
	<path style="fill:#ECF0F1;" d="M55.62,9H2.38C1.065,9,0,10.066,0,11.38v4C0,14.066,1.065,13,2.38,13H4h50h1.62
		c1.314,0,2.38,1.065,2.38,2.38v-4C58,10.066,56.935,9,55.62,9z"/>
	<path style="fill:#BDC3C7;" d="M55.62,13H2.38C1.065,13,0,14.066,0,15.38V20h58v-4.62C58,14.066,56.935,13,55.62,13z"/>
	<path style="fill:#E8E8D3;" d="M41,28c0,6.627-5.373,12-12,12s-12-5.373-12-12c0-1.406,0.254-2.749,0.701-4H4v22h50V24H40.299
		C40.746,25.252,41,26.594,41,28z"/>
	<path style="fill:#6D8C60;" d="M31.292,30.158c0.256-0.303,0.374-0.695,0.331-1.105c-0.046-0.438-0.272-0.847-0.622-1.118
		L30,27.156v3.878C30.494,30.858,30.944,30.57,31.292,30.158z"/>
	<path style="fill:#6D8C60;" d="M30,24.623l2.229,1.734c0.777,0.604,1.281,1.511,1.383,2.488c0.1,0.957-0.182,1.882-0.793,2.605
		c-0.734,0.867-1.728,1.446-2.819,1.668V34c0,0.553-0.448,1-1,1s-1-0.447-1-1v-0.878c-2.279-0.465-4-2.484-4-4.899
		c0-0.553,0.448-1,1-1s1,0.447,1,1c0,1.302,0.839,2.402,2,2.816V25.6L25.943,24h-8.242C17.254,25.252,17,26.594,17,28
		c0,6.627,5.373,12,12,12s12-5.373,12-12c0-1.406-0.254-2.749-0.701-4H30V24.623z"/>
	<path style="fill:#E8E8D3;" d="M31.001,27.935c0.349,0.271,0.576,0.68,0.622,1.118c0.043,0.41-0.075,0.803-0.331,1.105
		c-0.348,0.411-0.798,0.699-1.292,0.875v2.085c1.091-0.222,2.085-0.801,2.819-1.668c0.611-0.724,0.893-1.648,0.793-2.605
		c-0.103-0.978-0.606-1.885-1.383-2.488L30,24.623v2.533L31.001,27.935z"/>
	<polygon style="fill:#E8E8D3;" points="28,24 25.943,24 28,25.6 	"/>
	<path style="fill:#E8E8D3;" d="M26,28.223c0-0.553-0.448-1-1-1s-1,0.447-1,1c0,2.414,1.721,4.434,4,4.899v-2.083
		C26.839,30.624,26,29.525,26,28.223z"/>
	<path style="fill:#E8E8D3;" d="M28,33.122V34c0,0.553,0.448,1,1,1s1-0.447,1-1v-0.882c-0.326,0.066-0.661,0.104-1,0.104
		C28.658,33.223,28.323,33.188,28,33.122z"/>
	<polygon style="fill:#E8E8D3;" points="30,24 29.199,24 30,24.623 	"/>
	<path style="fill:#E8E8D3;" d="M30,31.033v-3.878L28,25.6v5.438c0.314,0.112,0.648,0.184,1,0.184
		C29.347,31.223,29.681,31.147,30,31.033z"/>
	<polygon style="fill:#E8E8D3;" points="30,27.156 30,24.623 29.199,24 28,24 28,25.6 	"/>
	<path style="fill:#E8E8D3;" d="M29,31.223c-0.352,0-0.686-0.072-1-0.184v2.083c0.323,0.066,0.658,0.101,1,0.101
		c0.339,0,0.674-0.038,1-0.104v-2.085C29.681,31.147,29.347,31.223,29,31.223z"/>
	<g>
		<path style="fill:#B5B39A;" d="M4,24h13.701c0.531-1.489,1.338-2.846,2.373-4H4V24z"/>
		<path style="fill:#B5B39A;" d="M37.926,20c1.035,1.154,1.842,2.511,2.373,4H54v-4H37.926z"/>
	</g>
	<g>
		<path style="fill:#3A4C31;" d="M26.493,20.406c-0.285,0.641-0.072,1.433,0.505,1.882L28,23.067V20h-1.424
			C26.576,20.136,26.552,20.274,26.493,20.406z"/>
		<path style="fill:#3A4C31;" d="M37.926,20H30v4h10.299C39.768,22.512,38.961,21.154,37.926,20z"/>
		<path style="fill:#3A4C31;" d="M24.527,20h-4.453c-1.035,1.154-1.842,2.511-2.373,4h8.242l-0.172-0.134
			C24.594,22.951,24.113,21.383,24.527,20z"/>
	</g>
	<path style="fill:#B5B39A;" d="M28,20v3.067l-1.001-0.779c-0.578-0.449-0.79-1.241-0.505-1.882c0.059-0.132,0.083-0.27,0.083-0.406
		h-2.049c-0.414,1.383,0.067,2.951,1.244,3.866L25.943,24H28h1.199H30v-4H28z"/>
	<rect x="4" y="46" style="fill:#CECDB2;" width="50" height="3"/>
	<rect x="4" y="49" style="fill:#B5B39A;" width="50" height="3"/>
	<path style="fill:#6D8C60;" d="M10,46H4v-6h0C7.314,40,10,42.686,10,46L10,46z"/>
	<path style="fill:#6D8C60;" d="M54,46h-6v0c0-3.314,2.686-6,6-6h0V46z"/>
	<rect x="4" y="46" style="fill:#516B45;" width="6" height="3"/>
	<rect x="4" y="49" style="fill:#3A4C31;" width="6" height="3"/>
	<rect x="48" y="46" style="fill:#516B45;" width="6" height="3"/>
	<rect x="48" y="49" style="fill:#3A4C31;" width="6" height="3"/>
</g>
<g>
</g>
<g>
</g>
<g>
</g>
<g>
</g>
<g>
</g>
<g>
</g>
<g>
</g>
<g>
</g>
<g>
</g>
<g>
</g>
<g>
</g>
<g>
</g>
<g>
</g>
<g>
</g>
<g>
</g>
</svg>
