<?xml version="1.0" encoding="iso-8859-1"?>
<!-- Generator: Adobe Illustrator 19.0.0, SVG Export Plug-In . SVG Version: 6.00 Build 0)  -->
<svg version="1.1" id="Capa_1" xmlns="http://www.w3.org/2000/svg" xmlns:xlink="http://www.w3.org/1999/xlink" x="0px" y="0px"
	 viewBox="0 0 512 512" style="enable-background:new 0 0 512 512;" xml:space="preserve">
<rect x="226" y="272" style="fill:#FFDC40;" width="60" height="120"/>
<rect x="256" y="272" style="fill:#FFAB15;" width="30" height="120"/>
<path style="fill:#FFDC40;" d="M202.416,272.563c-56.754-13.745-108.166-46.604-144.762-92.525
	c-18.297-22.958-32.548-48.563-42.357-76.104C5.146,75.438,0,45.516,0,15V0h121v30H30.469
	c6.419,102.432,78.217,188.997,179.008,213.406L202.416,272.563z"/>
<path style="fill:#FFAB15;" d="M309.584,272.563l-7.062-29.157C403.314,218.997,475.111,132.432,481.531,30H391V0h121v15
	c0,30.516-5.146,60.438-15.296,88.934c-9.81,27.541-24.061,53.146-42.357,76.104C417.75,225.959,366.338,258.819,309.584,272.563z"
	/>
<path style="fill:#FFEA84;" d="M256,299.728l-4.949-1.729C164.292,267.678,106,186.099,106,95V0h300v95
	c0,91.099-58.292,172.678-145.051,202.999L256,299.728z"/>
<path style="fill:#E08344;" d="M371,512H141V362h230V512z"/>
<path style="fill:#FFDC40;" d="M256,0v299.728l4.949-1.729C347.708,267.678,406,186.099,406,95V0H256z"/>
<path style="fill:#D6702B;" d="M371,512H256V362h115V512z"/>
<rect x="111" y="482" style="fill:#FFEA84;" width="290" height="30"/>
<rect x="256" y="482" style="fill:#FFDC40;" width="145" height="30"/>
<g>
</g>
<g>
</g>
<g>
</g>
<g>
</g>
<g>
</g>
<g>
</g>
<g>
</g>
<g>
</g>
<g>
</g>
<g>
</g>
<g>
</g>
<g>
</g>
<g>
</g>
<g>
</g>
<g>
</g>
</svg>
