<?xml version="1.0" encoding="iso-8859-1"?>
<!-- Generator: Adobe Illustrator 19.0.0, SVG Export Plug-In . SVG Version: 6.00 Build 0)  -->
<svg version="1.1" id="Layer_1" xmlns="http://www.w3.org/2000/svg" xmlns:xlink="http://www.w3.org/1999/xlink" x="0px" y="0px"
	 viewBox="0 0 512 512" style="enable-background:new 0 0 512 512;" xml:space="preserve">
<polygon style="fill:#FF4719;" points="330.381,360.78 330.381,416.131 256,449.342 181.619,416.131 181.619,360.78 "/>
<path style="fill:#FF754F;" d="M256,512c-1.183,0-2.367-0.254-3.467-0.759l-96.865-44.52c-4.167-1.914-5.992-6.845-4.077-11.011
	c1.915-4.166,6.845-5.993,11.01-4.077l93.398,42.926l93.398-42.926c4.169-1.916,9.096-0.089,11.011,4.077
	c1.915,4.167,0.09,9.096-4.077,11.011l-96.865,44.52C258.367,511.746,257.183,512,256,512z"/>
<polygon style="fill:#111449;" points="396.404,0 349.433,0 414.25,382.921 447.46,382.921 447.46,51.056 "/>
<polygon style="fill:#27467A;" points="349.433,0 256,33.211 162.561,0 64.54,0 64.54,382.921 130.961,382.921 256,338.64 
	381.039,382.921 414.25,382.921 414.25,64.816 "/>
<rect x="130.961" y="218.173" style="fill:#A0F6FA;" width="250.077" height="164.748"/>
<polygon style="fill:#FF754F;" points="330.381,416.131 330.381,469.512 256,503.697 181.619,469.512 181.619,416.131 "/>
<polygon style="fill:#50D1DD;" points="349.444,0 349.444,157.419 327.304,157.419 294.093,78.71 327.304,0 "/>
<polygon style="fill:#78E3EC;" points="327.298,123.386 256,0 162.556,0 162.556,157.419 327.304,157.419 "/>
<rect x="256" style="fill:#111449;" width="71.304" height="123.389"/>
<g>
	<path style="fill:#50D1DD;" d="M341.136,325.454H170.864c-4.586,0-8.303-3.716-8.303-8.303s3.716-8.303,8.303-8.303h170.273
		c4.586,0,8.303,3.716,8.303,8.303S345.722,325.454,341.136,325.454z"/>
	<path style="fill:#50D1DD;" d="M341.136,292.243H170.864c-4.586,0-8.303-3.716-8.303-8.303s3.716-8.303,8.303-8.303h170.273
		c4.586,0,8.303,3.716,8.303,8.303S345.722,292.243,341.136,292.243z"/>
</g>
<g>
</g>
<g>
</g>
<g>
</g>
<g>
</g>
<g>
</g>
<g>
</g>
<g>
</g>
<g>
</g>
<g>
</g>
<g>
</g>
<g>
</g>
<g>
</g>
<g>
</g>
<g>
</g>
<g>
</g>
</svg>
