<?xml version="1.0" encoding="iso-8859-1"?>
<!-- Generator: Adobe Illustrator 18.0.0, SVG Export Plug-In . SVG Version: 6.00 Build 0)  -->
<!DOCTYPE svg PUBLIC "-//W3C//DTD SVG 1.1//EN" "http://www.w3.org/Graphics/SVG/1.1/DTD/svg11.dtd">
<svg version="1.1" id="Capa_1" xmlns="http://www.w3.org/2000/svg" xmlns:xlink="http://www.w3.org/1999/xlink" x="0px" y="0px"
	 viewBox="0 0 58 58" style="enable-background:new 0 0 58 58;" xml:space="preserve">
<g>
	<rect x="1" y="2" style="fill:#48536D;" width="56" height="14"/>
	<path style="fill:#556080;" d="M54.258,56H3.742C1.675,56,0,54.325,0,52.258V16h58v36.258C58,54.325,56.325,56,54.258,56z"/>
	<polyline style="fill:#6D7CA0;" points="49,8 55,2 57,2 57,16 55,16 49,8 	"/>
	<polygon style="fill:#3D465B;" points="49,8 49,16 55,16 	"/>
	<polyline style="fill:#6D7CA0;" points="9,8 3,2 1,2 1,16 3,16 9,8 	"/>
	<polygon style="fill:#3D465B;" points="9,8 9,16 3,16 	"/>
	<circle style="fill:#3D465B;" cx="17" cy="24" r="3"/>
	<circle style="fill:#3D465B;" cx="41" cy="24" r="3"/>
	<path style="fill:#8697CB;" d="M29,43c-7.168,0-13-5.832-13-13v-6c0-0.553,0.448-1,1-1s1,0.447,1,1v6c0,6.065,4.935,11,11,11
		s11-4.935,11-11v-6c0-0.553,0.448-1,1-1s1,0.447,1,1v6C42,37.168,36.168,43,29,43z"/>
</g>
<g>
</g>
<g>
</g>
<g>
</g>
<g>
</g>
<g>
</g>
<g>
</g>
<g>
</g>
<g>
</g>
<g>
</g>
<g>
</g>
<g>
</g>
<g>
</g>
<g>
</g>
<g>
</g>
<g>
</g>
</svg>
