<?xml version="1.0" encoding="iso-8859-1"?>
<!-- Generator: Adobe Illustrator 19.0.0, SVG Export Plug-In . SVG Version: 6.00 Build 0)  -->
<svg version="1.1" id="Capa_1" xmlns="http://www.w3.org/2000/svg" xmlns:xlink="http://www.w3.org/1999/xlink" x="0px" y="0px"
	 viewBox="0 0 512 512" style="enable-background:new 0 0 512 512;" xml:space="preserve">
<path style="fill:#DCF4FF;" d="M256,512c-68.38,0-132.667-26.629-181.02-74.98C26.629,388.667,0,324.38,0,256
	S26.629,123.333,74.98,74.98C123.333,26.629,187.62,0,256,0s132.667,26.629,181.02,74.98C485.371,123.333,512,187.62,512,256
	s-26.629,132.667-74.98,181.02C388.667,485.371,324.38,512,256,512z"/>
<path style="fill:#CCEFFF;" d="M437.02,74.98C388.667,26.629,324.38,0,256,0v512c68.38,0,132.667-26.629,181.02-74.98
	C485.371,388.667,512,324.38,512,256S485.371,123.333,437.02,74.98z"/>
<path style="fill:#87E694;" d="M79.972,441.872c44.912-51.562,69.44-116.829,69.44-185.862c0-69.043-24.53-134.312-69.449-185.874
	c-1.678,1.591-3.341,3.203-4.983,4.844C26.629,123.333,0,187.62,0,256s26.629,132.667,74.98,181.02
	C76.625,438.664,78.291,440.278,79.972,441.872z"/>
<path style="fill:#66CC70;" d="M437.02,74.98c-0.141-0.142-0.287-0.277-0.429-0.418C394.132,125.393,371,188.871,371,255.902
	c0,67.085,23.164,130.601,65.681,181.448c0.112-0.111,0.227-0.218,0.338-0.33C485.371,388.667,512,324.38,512,256
	S485.371,123.333,437.02,74.98z"/>
<path style="fill:#87E694;" d="M341,255.902c0-74.442,25.801-144.92,73.137-201.251C369.216,19.226,314.088,0,256,0
	c-55.937,0-109.129,17.829-153.106,50.782c49.497,56.97,76.519,129.021,76.519,205.229c0,76.197-27.02,148.247-76.509,205.215
	C146.879,494.174,200.068,512,256,512c58.13,0,113.296-19.255,158.236-54.729C366.836,400.922,341,330.403,341,255.902z"/>
<path style="fill:#66CC70;" d="M341,255.902c0-74.442,25.801-144.92,73.137-201.251C369.216,19.226,314.088,0,256,0v512
	c58.13,0,113.296-19.255,158.236-54.729C366.836,400.922,341,330.403,341,255.902z"/>
<g>
</g>
<g>
</g>
<g>
</g>
<g>
</g>
<g>
</g>
<g>
</g>
<g>
</g>
<g>
</g>
<g>
</g>
<g>
</g>
<g>
</g>
<g>
</g>
<g>
</g>
<g>
</g>
<g>
</g>
</svg>
