<?xml version="1.0" encoding="iso-8859-1"?>
<!-- Generator: Adobe Illustrator 19.0.0, SVG Export Plug-In . SVG Version: 6.00 Build 0)  -->
<svg version="1.1" id="Capa_1" xmlns="http://www.w3.org/2000/svg" xmlns:xlink="http://www.w3.org/1999/xlink" x="0px" y="0px"
	 viewBox="0 0 512 512" style="enable-background:new 0 0 512 512;" xml:space="preserve">
<rect x="241" y="165" style="fill:#480306;" width="45" height="332"/>
<rect x="226" y="165" style="fill:#8B2613;" width="30" height="332"/>
<polygon style="fill:#21B4D3;" points="372.342,422 372.342,392 256,392 236,407 256,422 "/>
<rect x="139.66" y="392" style="fill:#7DE5FB;" width="116.34" height="30"/>
<polygon style="fill:#21B4D3;" points="407,512 407,482 256,482 236,497 256,512 "/>
<rect x="105" y="482" style="fill:#7DE5FB;" width="151" height="30"/>
<path style="fill:#7A6C64;" d="M332,0h-76l-60,150h211V75C407,33.645,373.355,0,332,0z"/>
<path style="fill:#9B918B;" d="M180,0c-41.355,0-75,33.645-75,75v75h151V0H180z"/>
<polygon style="fill:#21B4D3;" points="256,180 407,180 407,150 226,120 "/>
<polygon style="fill:#7DE5FB;" points="105,150 105,180 256,180 256,120 "/>
<path style="fill:#9B918B;" d="M332,75h-76l-40,38.674L256,150h151C407,108.645,373.355,75,332,75z"/>
<path style="fill:#BDB5B2;" d="M256,75h-76c-41.355,0-75,33.645-75,75h151V75z"/>
<g>
</g>
<g>
</g>
<g>
</g>
<g>
</g>
<g>
</g>
<g>
</g>
<g>
</g>
<g>
</g>
<g>
</g>
<g>
</g>
<g>
</g>
<g>
</g>
<g>
</g>
<g>
</g>
<g>
</g>
</svg>
