<?xml version="1.0" encoding="iso-8859-1"?>
<!-- Generator: Adobe Illustrator 18.0.0, SVG Export Plug-In . SVG Version: 6.00 Build 0)  -->
<!DOCTYPE svg PUBLIC "-//W3C//DTD SVG 1.1//EN" "http://www.w3.org/Graphics/SVG/1.1/DTD/svg11.dtd">
<svg version="1.1" id="Capa_1" xmlns="http://www.w3.org/2000/svg" xmlns:xlink="http://www.w3.org/1999/xlink" x="0px" y="0px"
	 viewBox="0 0 56 56" style="enable-background:new 0 0 56 56;" xml:space="preserve">
<g>
	<rect y="11" style="fill:#DBCDB8;" width="56" height="45"/>
	<rect y="5" style="fill:#DBCDB8;" width="56" height="6"/>
	<rect x="3" style="fill:#FFF2DB;" width="50" height="5"/>
	<path style="fill:#F1786C;" d="M4,21L4,21c-2.209,0-4-1.791-4-4v-6h8v6C8,19.209,6.209,21,4,21z"/>
	<path style="fill:#FFFCF4;" d="M12,21L12,21c-2.209,0-4-1.791-4-4v-6h8v6C16,19.209,14.209,21,12,21z"/>
	<path style="fill:#F1786C;" d="M20,21L20,21c-2.209,0-4-1.791-4-4v-6h8v6C24,19.209,22.209,21,20,21z"/>
	<path style="fill:#FFFCF4;" d="M28,21L28,21c-2.209,0-4-1.791-4-4v-6h8v6C32,19.209,30.209,21,28,21z"/>
	<path style="fill:#F1786C;" d="M36,21L36,21c-2.209,0-4-1.791-4-4v-6h8v6C40,19.209,38.209,21,36,21z"/>
	<path style="fill:#FFFCF4;" d="M44,21L44,21c-2.209,0-4-1.791-4-4v-6h8v6C48,19.209,46.209,21,44,21z"/>
	<path style="fill:#F1786C;" d="M52,21L52,21c-2.209,0-4-1.791-4-4v-6h8v6C56,19.209,54.209,21,52,21z"/>
	<g>
		<rect x="13" y="26" style="fill:#90BAE1;" width="17" height="30"/>
		<path style="fill:#7F6E5D;" d="M28,28v26H15V28H28 M30,26H13v30h17V26L30,26z"/>
	</g>
	<g>
		<rect x="28" y="26" style="fill:#90BAE1;" width="17" height="30"/>
		<path style="fill:#7F6E5D;" d="M43,28v26H30V28H43 M45,26H28v30h17V26L45,26z"/>
	</g>
	<path style="fill:#D0E8F9;" d="M32,36c-0.256,0-0.512-0.098-0.707-0.293c-0.391-0.391-0.391-1.023,0-1.414l2-2
		c0.391-0.391,1.023-0.391,1.414,0s0.391,1.023,0,1.414l-2,2C32.512,35.902,32.256,36,32,36z"/>
	<path style="fill:#D0E8F9;" d="M32,42c-0.256,0-0.512-0.098-0.707-0.293c-0.391-0.391-0.391-1.023,0-1.414l8-8
		c0.391-0.391,1.023-0.391,1.414,0s0.391,1.023,0,1.414l-8,8C32.512,41.902,32.256,42,32,42z"/>
	<path style="fill:#D0E8F9;" d="M32,48c-0.256,0-0.512-0.098-0.707-0.293c-0.391-0.391-0.391-1.023,0-1.414l8-8
		c0.391-0.391,1.023-0.391,1.414,0s0.391,1.023,0,1.414l-8,8C32.512,47.902,32.256,48,32,48z"/>
	<path style="fill:#D0E8F9;" d="M18,36c-0.256,0-0.512-0.098-0.707-0.293c-0.391-0.391-0.391-1.023,0-1.414l2-2
		c0.391-0.391,1.023-0.391,1.414,0s0.391,1.023,0,1.414l-2,2C18.512,35.902,18.256,36,18,36z"/>
	<path style="fill:#D0E8F9;" d="M18,42c-0.256,0-0.512-0.098-0.707-0.293c-0.391-0.391-0.391-1.023,0-1.414l8-8
		c0.391-0.391,1.023-0.391,1.414,0s0.391,1.023,0,1.414l-8,8C18.512,41.902,18.256,42,18,42z"/>
	<path style="fill:#D0E8F9;" d="M18,48c-0.256,0-0.512-0.098-0.707-0.293c-0.391-0.391-0.391-1.023,0-1.414l8-8
		c0.391-0.391,1.023-0.391,1.414,0s0.391,1.023,0,1.414l-8,8C18.512,47.902,18.256,48,18,48z"/>
	<path style="fill:#FFFCF4;" d="M6,35c-0.553,0-1-0.447-1-1v-3c0-0.553,0.447-1,1-1s1,0.447,1,1v3C7,34.553,6.553,35,6,35z"/>
	<circle style="fill:#E64C3C;" cx="6" cy="28" r="3"/>
	<rect x="4" y="34" style="fill:#FFFCF4;" width="4" height="22"/>
	<polygon style="fill:#E64C3C;" points="8,34.681 4,37.396 4,40.979 8,38.265 	"/>
	<polygon style="fill:#50508A;" points="8,41.823 4,44.537 4,48.121 8,45.407 	"/>
	<polygon style="fill:#E64C3C;" points="8,49.021 4,51.735 4,55.319 8,52.605 	"/>
</g>
<g>
</g>
<g>
</g>
<g>
</g>
<g>
</g>
<g>
</g>
<g>
</g>
<g>
</g>
<g>
</g>
<g>
</g>
<g>
</g>
<g>
</g>
<g>
</g>
<g>
</g>
<g>
</g>
<g>
</g>
</svg>
