<?xml version="1.0" encoding="iso-8859-1"?>
<!-- Generator: Adobe Illustrator 18.0.0, SVG Export Plug-In . SVG Version: 6.00 Build 0)  -->
<!DOCTYPE svg PUBLIC "-//W3C//DTD SVG 1.1//EN" "http://www.w3.org/Graphics/SVG/1.1/DTD/svg11.dtd">
<svg version="1.1" id="Capa_1" xmlns="http://www.w3.org/2000/svg" xmlns:xlink="http://www.w3.org/1999/xlink" x="0px" y="0px"
	 viewBox="0 0 58 58" style="enable-background:new 0 0 58 58;" xml:space="preserve">
<g>
	<rect y="5" style="fill:#F0EDE0;" width="58" height="48"/>
	<path style="fill:#556080;" d="M4,48c-0.552,0-1-0.447-1-1V10c0-0.553,0.448-1,1-1s1,0.447,1,1v37C5,47.553,4.552,48,4,48z"/>
	<path style="fill:#556080;" d="M54,48c-0.552,0-1-0.447-1-1V10c0-0.553,0.448-1,1-1s1,0.447,1,1v37C55,47.553,54.552,48,54,48z"/>
	<path style="fill:#556080;" d="M8,40c-0.552,0-1-0.447-1-1V10c0-0.553,0.448-1,1-1s1,0.447,1,1v29C9,39.553,8.552,40,8,40z"/>
	<path style="fill:#556080;" d="M11,40c-0.552,0-1-0.447-1-1V10c0-0.553,0.448-1,1-1s1,0.447,1,1v29C12,39.553,11.552,40,11,40z"/>
	<path style="fill:#556080;" d="M16,40c-0.552,0-1-0.447-1-1V10c0-0.553,0.448-1,1-1s1,0.447,1,1v29C17,39.553,16.552,40,16,40z"/>
	<path style="fill:#556080;" d="M19,40c-0.552,0-1-0.447-1-1V10c0-0.553,0.448-1,1-1s1,0.447,1,1v29C20,39.553,19.552,40,19,40z"/>
	<path style="fill:#556080;" d="M22,40c-0.552,0-1-0.447-1-1V10c0-0.553,0.448-1,1-1s1,0.447,1,1v29C23,39.553,22.552,40,22,40z"/>
	<path style="fill:#556080;" d="M28,40c-0.552,0-1-0.447-1-1V10c0-0.553,0.448-1,1-1s1,0.447,1,1v29C29,39.553,28.552,40,28,40z"/>
	<path style="fill:#556080;" d="M33,40c-0.552,0-1-0.447-1-1V10c0-0.553,0.448-1,1-1s1,0.447,1,1v29C34,39.553,33.552,40,33,40z"/>
	<path style="fill:#556080;" d="M36,40c-0.552,0-1-0.447-1-1V10c0-0.553,0.448-1,1-1s1,0.447,1,1v29C37,39.553,36.552,40,36,40z"/>
	<path style="fill:#556080;" d="M41,40c-0.552,0-1-0.447-1-1V10c0-0.553,0.448-1,1-1s1,0.447,1,1v29C42,39.553,41.552,40,41,40z"/>
	<path style="fill:#556080;" d="M44,40c-0.552,0-1-0.447-1-1V10c0-0.553,0.448-1,1-1s1,0.447,1,1v29C45,39.553,44.552,40,44,40z"/>
	<path style="fill:#556080;" d="M50,40c-0.552,0-1-0.447-1-1V10c0-0.553,0.448-1,1-1s1,0.447,1,1v29C51,39.553,50.552,40,50,40z"/>
	<path style="fill:#556080;" d="M8,46c-0.552,0-1-0.447-1-1v-1c0-0.553,0.448-1,1-1s1,0.447,1,1v1C9,45.553,8.552,46,8,46z"/>
	<path style="fill:#556080;" d="M11,46c-0.552,0-1-0.447-1-1v-1c0-0.553,0.448-1,1-1s1,0.447,1,1v1C12,45.553,11.552,46,11,46z"/>
	<path style="fill:#556080;" d="M14,46c-0.552,0-1-0.447-1-1v-1c0-0.553,0.448-1,1-1s1,0.447,1,1v1C15,45.553,14.552,46,14,46z"/>
	<path style="fill:#556080;" d="M17,46c-0.552,0-1-0.447-1-1v-1c0-0.553,0.448-1,1-1s1,0.447,1,1v1C18,45.553,17.552,46,17,46z"/>
	<path style="fill:#556080;" d="M20,46c-0.552,0-1-0.447-1-1v-1c0-0.553,0.448-1,1-1s1,0.447,1,1v1C21,45.553,20.552,46,20,46z"/>
	<path style="fill:#556080;" d="M23,46c-0.552,0-1-0.447-1-1v-1c0-0.553,0.448-1,1-1s1,0.447,1,1v1C24,45.553,23.552,46,23,46z"/>
	<path style="fill:#556080;" d="M26,46c-0.552,0-1-0.447-1-1v-1c0-0.553,0.448-1,1-1s1,0.447,1,1v1C27,45.553,26.552,46,26,46z"/>
	<path style="fill:#556080;" d="M29,46c-0.552,0-1-0.447-1-1v-1c0-0.553,0.448-1,1-1s1,0.447,1,1v1C30,45.553,29.552,46,29,46z"/>
	<path style="fill:#556080;" d="M32,46c-0.552,0-1-0.447-1-1v-1c0-0.553,0.448-1,1-1s1,0.447,1,1v1C33,45.553,32.552,46,32,46z"/>
	<path style="fill:#556080;" d="M35,46c-0.552,0-1-0.447-1-1v-1c0-0.553,0.448-1,1-1s1,0.447,1,1v1C36,45.553,35.552,46,35,46z"/>
	<path style="fill:#556080;" d="M38,46c-0.552,0-1-0.447-1-1v-1c0-0.553,0.448-1,1-1s1,0.447,1,1v1C39,45.553,38.552,46,38,46z"/>
	<path style="fill:#556080;" d="M41,46c-0.552,0-1-0.447-1-1v-1c0-0.553,0.448-1,1-1s1,0.447,1,1v1C42,45.553,41.552,46,41,46z"/>
	<path style="fill:#556080;" d="M44,46c-0.552,0-1-0.447-1-1v-1c0-0.553,0.448-1,1-1s1,0.447,1,1v1C45,45.553,44.552,46,44,46z"/>
	<path style="fill:#556080;" d="M47,46c-0.552,0-1-0.447-1-1v-1c0-0.553,0.448-1,1-1s1,0.447,1,1v1C48,45.553,47.552,46,47,46z"/>
	<path style="fill:#556080;" d="M50,46c-0.552,0-1-0.447-1-1v-1c0-0.553,0.448-1,1-1s1,0.447,1,1v1C51,45.553,50.552,46,50,46z"/>
</g>
<g>
</g>
<g>
</g>
<g>
</g>
<g>
</g>
<g>
</g>
<g>
</g>
<g>
</g>
<g>
</g>
<g>
</g>
<g>
</g>
<g>
</g>
<g>
</g>
<g>
</g>
<g>
</g>
<g>
</g>
</svg>
