<?xml version="1.0" encoding="iso-8859-1"?>
<!-- Generator: Adobe Illustrator 18.0.0, SVG Export Plug-In . SVG Version: 6.00 Build 0)  -->
<!DOCTYPE svg PUBLIC "-//W3C//DTD SVG 1.1//EN" "http://www.w3.org/Graphics/SVG/1.1/DTD/svg11.dtd">
<svg version="1.1" id="Capa_1" xmlns="http://www.w3.org/2000/svg" xmlns:xlink="http://www.w3.org/1999/xlink" x="0px" y="0px"
	 viewBox="0 0 58 58" style="enable-background:new 0 0 58 58;" xml:space="preserve">
<g>
	<path style="fill:#71C285;" d="M24,27.044c0-0.712,0.154-1.387,0.422-2H2c-1.1,0-2,0.9-2,2s0.9,2,2,2h22.422
		C24.154,28.43,24,27.756,24,27.044z"/>
	<path style="fill:#24AE5F;" d="M33.578,29.044c-0.772,1.764-2.529,3-4.578,3s-3.806-1.236-4.578-3H3l9.247,25.892
		c0.451,1.264,1.649,2.108,2.991,2.108h27.523c1.342,0,2.54-0.844,2.991-2.108L55,29.044H33.578z"/>
	<path style="fill:#71C285;" d="M56,25.044H33.649l-0.046,0.046c0.015,0.035,0.02,0.075,0.035,0.111
		c0.104,0.26,0.192,0.528,0.252,0.808c0.006,0.027,0.008,0.055,0.013,0.083C33.964,26.4,34,26.717,34,27.044
		c0,0.322-0.035,0.635-0.095,0.939c-0.006,0.032-0.009,0.064-0.015,0.096c-0.058,0.272-0.144,0.533-0.244,0.786
		c-0.023,0.059-0.042,0.12-0.068,0.178l0,0H56c1.1,0,2-0.9,2-2S57.1,25.044,56,25.044z"/>
	<path style="fill:#A4E869;" d="M47,37.044H11c-0.552,0-1-0.447-1-1s0.448-1,1-1h36c0.552,0,1,0.447,1,1S47.552,37.044,47,37.044z"
		/>
	<path style="fill:#A4E869;" d="M44,42.044H14c-0.552,0-1-0.447-1-1s0.448-1,1-1h30c0.552,0,1,0.447,1,1S44.552,42.044,44,42.044z"
		/>
	<path style="fill:#A4E869;" d="M41,47.044H17c-0.552,0-1-0.447-1-1s0.448-1,1-1h24c0.552,0,1,0.447,1,1S41.552,47.044,41,47.044z"
		/>
	<path style="fill:#A4E869;" d="M39,52.044H19c-0.552,0-1-0.447-1-1s0.448-1,1-1h20c0.552,0,1,0.447,1,1S39.552,52.044,39,52.044z"
		/>
	<path style="fill:#F3D55B;" d="M24.397,25.09L3.675,4.368c-0.778-0.778-0.778-2.051,0-2.828s2.051-0.778,2.828,0l20.815,20.814"/>
	<path style="fill:#F0C419;" d="M33.603,25.09L54.325,4.368c0.778-0.778,0.778-2.051,0-2.828s-2.051-0.778-2.828,0L30.682,22.354"/>
	<circle style="fill:#4FBA6F;" cx="29" cy="27.044" r="5"/>
</g>
<g>
</g>
<g>
</g>
<g>
</g>
<g>
</g>
<g>
</g>
<g>
</g>
<g>
</g>
<g>
</g>
<g>
</g>
<g>
</g>
<g>
</g>
<g>
</g>
<g>
</g>
<g>
</g>
<g>
</g>
</svg>
