<?xml version="1.0" encoding="iso-8859-1"?>
<!-- Generator: Adobe Illustrator 19.0.0, SVG Export Plug-In . SVG Version: 6.00 Build 0)  -->
<svg version="1.1" id="Capa_1" xmlns="http://www.w3.org/2000/svg" xmlns:xlink="http://www.w3.org/1999/xlink" x="0px" y="0px"
	 viewBox="0 0 511.999 511.999" style="enable-background:new 0 0 511.999 511.999;" xml:space="preserve">
<circle style="fill:#FE7D32;" cx="255.999" cy="130.273" r="122.643"/>
<path style="fill:#E8621F;" d="M378.641,130.278c0,67.732-54.909,122.642-122.642,122.642c-6.046,0-11.99-0.438-17.791-1.293
	c59.306-8.61,104.851-59.662,104.851-121.349S297.514,17.54,238.208,8.93c5.801-0.855,11.746-1.293,17.791-1.293
	C323.732,7.637,378.641,62.546,378.641,130.278z"/>
<path style="fill:#E4E8EB;" d="M255.999,296.511H61.916c0,0,6.176,8.714,14.624,22.616c30.653,50.444,47.038,111.362,47.038,173.812
	v11.858c0,3.636,3.703,6.1,7.057,4.693l59.92-25.131l63.437,27.229c1.282,0.55,2.733,0.55,4.015,0l63.437-27.229l59.92,25.131
	c3.354,1.406,7.057-1.056,7.057-4.693v-11.858c0-62.45,16.385-123.368,47.038-173.812c8.447-13.902,14.624-22.616,14.624-22.616
	L255.999,296.511L255.999,296.511z"/>
<path style="fill:#D6D6D6;" d="M450.079,296.512c0,0-6.168,8.712-14.616,22.615c-30.655,50.441-47.041,111.365-47.041,173.816
	v11.857c0,3.633-3.704,6.097-7.053,4.692l-26.248-11.003v-5.547c0-62.451,16.386-123.375,47.041-173.816
	c8.448-13.903,14.626-22.615,14.626-22.615h33.291V296.512z"/>
<path style="fill:#6B717F;" d="M462.151,296.511H49.848c-2.811,0-5.089-2.278-5.089-5.089v-33.413c0-2.811,2.278-5.089,5.089-5.089
	h412.303c2.811,0,5.089,2.278,5.089,5.089v33.413C467.239,294.232,464.961,296.511,462.151,296.511z"/>
<path style="fill:#5A606D;" d="M462.151,296.511h-45.365v-43.59h45.365c2.811,0,5.089,2.278,5.089,5.089v33.413
	C467.239,294.232,464.961,296.511,462.151,296.511z"/>
<path style="fill:#6B717F;" d="M414.222,350.315h-77.384c4.531-17.401,11.438-34.175,20.623-49.787l0.081-0.138
	c2.142-3.631,0.935-8.311-2.696-10.453c-3.629-2.138-8.31-0.934-10.453,2.697l-0.086,0.146
	c-10.583,17.987-18.384,37.396-23.226,57.536H193.154c-4.842-20.141-12.645-39.552-23.231-57.544l-0.081-0.138
	c-2.142-3.633-6.824-4.837-10.453-2.697c-3.631,2.142-4.839,6.823-2.696,10.453l0.076,0.13
	c9.188,15.617,16.096,32.394,20.627,49.795h-79.62c-4.216,0-7.634,3.417-7.634,7.634c0,4.216,3.418,7.634,7.634,7.634h82.955
	c1.971,11.161,2.994,22.508,2.994,33.918v23.962h-65.583c-4.216,0-7.634,3.417-7.634,7.634c0,4.216,3.418,7.634,7.634,7.634h65.583
	v45.631c0,4.216,3.418,7.634,7.634,7.634s7.634-3.417,7.634-7.634v-45.633h116.25v45.631c0,4.216,3.418,7.634,7.634,7.634
	s7.634-3.417,7.634-7.634v-45.631h63.345c4.216,0,7.634-3.417,7.634-7.634c0-4.216-3.418-7.634-7.634-7.634H330.51v-23.962
	c0-11.41,1.023-22.757,2.994-33.918h80.719c4.216,0,7.634-3.417,7.634-7.634C421.855,353.732,418.437,350.315,414.222,350.315z
	 M315.243,399.5v23.962H198.992V399.5c0-11.398-0.934-22.741-2.761-33.918h121.772C316.177,376.759,315.243,388.101,315.243,399.5z"
	/>
<path style="fill:#E56A2C;" d="M378.643,122.644h-58.962c1.739-26.453,12.489-51.383,30.716-70.886
	c2.879-3.079,2.716-7.909-0.364-10.789c-3.079-2.877-7.91-2.716-10.789,0.365c-20.881,22.339-33.096,50.969-34.856,81.31h-40.756
	V7.634c0-4.216-3.418-7.634-7.634-7.634c-4.216,0-7.634,3.417-7.634,7.634v115.011h-41.529c-1.76-30.342-13.975-58.97-34.856-81.31
	c-2.879-3.081-7.709-3.244-10.789-0.365c-3.079,2.879-3.243,7.71-0.364,10.789c18.229,19.5,28.977,44.432,30.717,70.886h-58.188
	c-4.216,0-7.634,3.417-7.634,7.634c0,4.216,3.418,7.634,7.634,7.634h58.189c-1.739,26.454-12.49,51.386-30.72,70.888
	c-2.879,3.08-2.716,7.91,0.364,10.789c1.472,1.377,3.344,2.058,5.211,2.058c2.04,0,4.075-0.813,5.578-2.42
	c20.883-22.34,33.1-50.971,34.859-81.314h41.529v115.011c0,4.216,3.418,7.634,7.634,7.634c4.216,0,7.634-3.417,7.634-7.634V137.91
	h40.756c1.76,30.344,13.976,58.973,34.859,81.314c1.503,1.607,3.538,2.42,5.578,2.42c1.868,0,3.739-0.681,5.211-2.058
	c3.079-2.878,3.243-7.709,0.364-10.789c-18.23-19.501-28.98-44.432-30.719-70.888h58.962c4.216,0,7.634-3.417,7.634-7.634
	C386.276,126.061,382.859,122.644,378.643,122.644z"/>
<g>
</g>
<g>
</g>
<g>
</g>
<g>
</g>
<g>
</g>
<g>
</g>
<g>
</g>
<g>
</g>
<g>
</g>
<g>
</g>
<g>
</g>
<g>
</g>
<g>
</g>
<g>
</g>
<g>
</g>
</svg>
