<?xml version="1.0" encoding="iso-8859-1"?>
<!-- Generator: Adobe Illustrator 19.0.0, SVG Export Plug-In . SVG Version: 6.00 Build 0)  -->
<svg version="1.1" id="Capa_1" xmlns="http://www.w3.org/2000/svg" xmlns:xlink="http://www.w3.org/1999/xlink" x="0px" y="0px"
	 viewBox="0 0 512 512" style="enable-background:new 0 0 512 512;" xml:space="preserve">
<path style="fill:#7A6C64;" d="M271,165h-30V45c0-24.813,20.187-45,45-45s45,20.187,45,45v30h-30V45c0-8.271-6.729-15-15-15
	s-15,6.729-15,15V165z"/>
<rect x="181" y="105" style="fill:#BDB5B2;" width="30" height="60"/>
<rect x="301" y="105" style="fill:#9B918B;" width="30" height="60"/>
<polygon style="fill:#1B94AD;" points="452,512 422,512 422,452 452,482 "/>
<polygon style="fill:#21B4D3;" points="60,482 60,512 90,512 90,452 "/>
<polygon style="fill:#A8EEFC;" points="452,135 452,212 196,272 256,135 "/>
<polygon style="fill:#D4F6FE;" points="256,135 256,272 60,212 60,135 "/>
<polygon style="fill:#21B4D3;" points="452,212 452,482 256,482 196,347 256,212 "/>
<rect x="60" y="212" style="fill:#26D4F8;" width="196" height="270"/>
<rect x="301" y="257" style="fill:#D4F6FE;" width="30" height="30"/>
<rect x="181" y="257" style="fill:#FFFFFF;" width="30" height="30"/>
<g>
</g>
<g>
</g>
<g>
</g>
<g>
</g>
<g>
</g>
<g>
</g>
<g>
</g>
<g>
</g>
<g>
</g>
<g>
</g>
<g>
</g>
<g>
</g>
<g>
</g>
<g>
</g>
<g>
</g>
</svg>
