<?xml version="1.0" encoding="iso-8859-1"?>
<!-- Generator: Adobe Illustrator 19.0.0, SVG Export Plug-In . SVG Version: 6.00 Build 0)  -->
<svg version="1.1" id="Capa_1" xmlns="http://www.w3.org/2000/svg" xmlns:xlink="http://www.w3.org/1999/xlink" x="0px" y="0px"
	 viewBox="0 0 512 512" style="enable-background:new 0 0 512 512;" xml:space="preserve">
<path style="fill:#974C00;" d="M417.661,2.385c-19.182-4.778-36.617-2.371-51.818,7.157c-30.411,19.06-39.382,60.353-39.749,62.101
	l14.716,3.111l73.224,60.773l0,0l2.865,14.724c33.055-6.432,59.692-40.126,60.642-76.706
	C478.451,38.555,456.066,11.953,417.661,2.385z"/>
<path style="fill:#E37500;" d="M146.156,9.543C130.955,0.014,113.52-2.392,94.338,2.385c-38.405,9.567-60.79,36.169-59.881,71.16
	c0.951,36.581,27.587,70.273,60.642,76.706l2.865-14.724l0,0l73.224-60.773l14.716-3.111
	C185.538,69.896,176.567,28.603,146.156,9.543z"/>
<path style="fill:#FFA720;" d="M478.394,373.278c-14.83,44.091-49.521,79.401-103.112,104.952c-4.25,2.03-8.76,3.81-13.39,5.27
	l-74.661,23.65C277.011,510.38,266.51,512,256,512c-10.51,0-21.01-1.62-31.231-4.85l-74.661-23.65c-4.63-1.46-9.14-3.24-13.39-5.27
	c-53.591-25.55-88.282-60.861-103.112-104.952c-11.91-35.441-10.91-76.931,2.99-123.332c11.42-38.101,29.061-72.241,41.951-97.172
	c1.33-2.57,2.6-5.04,3.81-7.4c38.661-75.391,101.012-85.932,103.652-86.342l1.15-0.18h137.682l1.15,0.18
	c2.64,0.41,64.991,10.95,103.652,86.342c1.21,2.36,2.48,4.83,3.81,7.4c12.89,24.93,30.531,59.071,41.951,97.172
	C489.304,296.347,490.304,337.837,478.394,373.278z"/>
<path style="fill:#FF8600;" d="M478.394,373.278c-14.83,44.091-49.521,79.401-103.112,104.952c-4.25,2.03-8.76,3.81-13.39,5.27
	l-74.661,23.65C277.011,510.38,266.51,512,256,512V58.852h68.841l1.15,0.18c2.64,0.41,64.991,10.95,103.652,86.342
	c1.21,2.36,2.48,4.83,3.81,7.4c12.89,24.93,30.531,59.071,41.951,97.172C489.304,296.347,490.304,337.837,478.394,373.278z"/>
<path style="fill:#FFD8A6;" d="M328.971,359.738c0,44.351-32.161,80.311-71.831,80.311c-0.38,0-0.76,0-1.14-0.02
	c-39.161-0.67-70.701-36.371-70.701-80.291c0-20.33,6.76-38.911,17.92-53.051c12.93-16.41,31.761-26.87,52.781-27.23
	c0.38-0.02,0.76-0.02,1.14-0.02c21.48,0,40.761,10.54,53.921,27.25C322.211,320.827,328.971,339.407,328.971,359.738z"/>
<circle style="fill:#3A3A41;" cx="334.746" cy="217.824" r="19.303"/>
<circle style="fill:#57555C;" cx="177.253" cy="217.824" r="19.303"/>
<path style="fill:#E37500;" d="M272.14,333.637l38.921-26.95c-13.16-16.71-32.441-27.25-53.921-27.25c-0.38,0-0.76,0-1.14,0.02
	c-21.02,0.36-39.851,10.82-52.781,27.23l38.921,26.95v35.161l-19.84,9.43l12.88,27.1l20.82-9.9l1.14-0.54l21.96,10.44l12.88-27.1
	l-19.84-9.43L272.14,333.637L272.14,333.637z"/>
<path style="fill:#FFC173;" d="M328.971,359.738c0,44.351-32.161,80.311-71.831,80.311c-0.38,0-0.76,0-1.14-0.02V279.456
	c0.38-0.02,0.76-0.02,1.14-0.02c21.48,0,40.761,10.54,53.921,27.25C322.211,320.827,328.971,339.407,328.971,359.738z"/>
<path style="fill:#974C00;" d="M272.14,368.798l19.84,9.43l-12.88,27.1l-21.96-10.44l-1.14,0.54V279.456
	c0.38-0.02,0.76-0.02,1.14-0.02c21.48,0,40.761,10.54,53.921,27.25l-38.921,26.95V368.798z"/>
<g>
</g>
<g>
</g>
<g>
</g>
<g>
</g>
<g>
</g>
<g>
</g>
<g>
</g>
<g>
</g>
<g>
</g>
<g>
</g>
<g>
</g>
<g>
</g>
<g>
</g>
<g>
</g>
<g>
</g>
</svg>
