<?xml version="1.0" encoding="iso-8859-1"?>
<!-- Generator: Adobe Illustrator 19.0.0, SVG Export Plug-In . SVG Version: 6.00 Build 0)  -->
<svg version="1.1" id="Capa_1" xmlns="http://www.w3.org/2000/svg" xmlns:xlink="http://www.w3.org/1999/xlink" x="0px" y="0px"
	 viewBox="0 0 512 512" style="enable-background:new 0 0 512 512;" xml:space="preserve">
<polygon style="fill:#C7461F;" points="256,30 196,255 497,255 497,30 "/>
<rect x="15" y="30" style="fill:#D95D27;" width="241" height="225"/>
<rect style="fill:#C7461F;" width="30" height="240"/>
<rect x="482" style="fill:#8B2613;" width="30" height="240"/>
<path style="fill:#FFF2A3;" d="M392,120h-76c-33,0-60,27-60,60l-30,45h226v-45C452,147,425,120,392,120z"/>
<path style="fill:#FFFFFF;" d="M196,120h-76c-33,0-60,27-60,60v45h196v-45C256,147,229,120,196,120z"/>
<path style="fill:#26D4F8;" d="M452,180H256l-60,195l316-60v-75C512,207,485,180,452,180z"/>
<path style="fill:#7DE5FB;" d="M256,180H60c-33,0-60,27-60,60v75l256,60V180z"/>
<polygon style="fill:#FCBA66;" points="30,512 0,512 0,482 30,452 "/>
<polygon style="fill:#F9963B;" points="512,512 482,512 482,452 512,482 "/>
<polygon style="fill:#8B2613;" points="256,482 512,482 512,315 256,315 206,398.5 "/>
<rect y="315" style="fill:#C7461F;" width="256" height="167"/>
<g>
</g>
<g>
</g>
<g>
</g>
<g>
</g>
<g>
</g>
<g>
</g>
<g>
</g>
<g>
</g>
<g>
</g>
<g>
</g>
<g>
</g>
<g>
</g>
<g>
</g>
<g>
</g>
<g>
</g>
</svg>
