<?xml version="1.0" encoding="iso-8859-1"?>
<!-- Generator: Adobe Illustrator 19.0.0, SVG Export Plug-In . SVG Version: 6.00 Build 0)  -->
<svg version="1.1" id="Capa_1" xmlns="http://www.w3.org/2000/svg" xmlns:xlink="http://www.w3.org/1999/xlink" x="0px" y="0px"
	 viewBox="0 0 512 512" style="enable-background:new 0 0 512 512;" xml:space="preserve">
<rect x="63.37" y="443.67" style="fill:#FFE97F;" width="285.68" height="68.33"/>
<g>
	<rect x="206.21" y="443.67" style="fill:#FFDB2D;" width="142.84" height="68.33"/>
	<path style="fill:#FFDB2D;" d="M383.633,127.003h-84.502v49.46h73.506c14.449,0,26.204,11.755,26.204,26.204v149.088
		c0,14.449-11.755,26.204-26.204,26.204h-73.506V448h84.502c35.841,0,65-29.158,65-65V192.003
		C448.633,156.162,419.474,127.003,383.633,127.003z"/>
</g>
<path style="fill:#FFF1AD;" d="M349.048,207.966v-88.461c0-45.384-34.765-82.837-79.064-87.098C255.206,12.234,231.469,0,206.207,0
	s-48.999,12.234-63.776,32.406c-44.3,4.261-79.064,41.714-79.064,87.098v88.461h285.681V207.966z"/>
<path style="fill:#FFE97F;" d="M269.983,32.406C255.206,12.234,231.469,0,206.207,0l0,0v207.966h142.841v-88.461
	C349.048,74.121,314.283,36.667,269.983,32.406z"/>
<rect x="63.37" y="177" style="fill:#FFDB2D;" width="285.68" height="271"/>
<rect x="206.21" y="177" style="fill:#FCB72C;" width="142.84" height="271"/>
<rect x="124.73" y="170.67" style="fill:#FFF1AD;" width="30" height="117.33"/>
<g>
	
		<rect x="241.112" y="358.218" transform="matrix(0.7071 0.7071 -0.7071 0.7071 338.9182 -71.7851)" style="fill:#FFDB2D;" width="30" height="30"/>
	
		<rect x="283.775" y="315.541" transform="matrix(0.7071 0.7071 -0.7071 0.7071 321.2367 -114.4524)" style="fill:#FFDB2D;" width="30" height="30"/>
</g>
<g>
</g>
<g>
</g>
<g>
</g>
<g>
</g>
<g>
</g>
<g>
</g>
<g>
</g>
<g>
</g>
<g>
</g>
<g>
</g>
<g>
</g>
<g>
</g>
<g>
</g>
<g>
</g>
<g>
</g>
</svg>
