<?xml version="1.0" encoding="iso-8859-1"?>
<!-- Generator: Adobe Illustrator 19.0.0, SVG Export Plug-In . SVG Version: 6.00 Build 0)  -->
<svg version="1.1" id="Capa_1" xmlns="http://www.w3.org/2000/svg" xmlns:xlink="http://www.w3.org/1999/xlink" x="0px" y="0px"
	 viewBox="0 0 512 512" style="enable-background:new 0 0 512 512;" xml:space="preserve">
<path style="fill:#ADACB2;" d="M103.915,425.553C46.616,425.553,0,378.937,0,321.637c0-57.299,46.616-103.915,103.915-103.915
	c57.3,0,103.916,46.616,103.916,103.915C207.831,378.937,161.215,425.553,103.915,425.553z M103.915,247.722
	C63.158,247.722,30,280.881,30,321.637c0,40.757,33.158,73.916,73.915,73.916c40.758,0,73.916-33.158,73.916-73.916
	C177.831,280.881,144.673,247.722,103.915,247.722z"/>
<path style="fill:#8A8891;" d="M207.835,321.641c0,57.3-46.62,103.91-103.92,103.91v-30c40.76,0,73.92-33.16,73.92-73.91
	c0-40.76-33.16-73.92-73.92-73.92v-30C161.215,217.721,207.835,264.341,207.835,321.641z"/>
<path style="fill:#ADACB2;" d="M408.08,217.721c-57.29,0-103.91,46.62-103.91,103.92s46.62,103.91,103.91,103.91
	c57.3,0,103.92-46.61,103.92-103.91S465.38,217.721,408.08,217.721z M408.08,395.551c-40.75,0-73.91-33.16-73.91-73.91
	c0-40.76,33.16-73.92,73.91-73.92c40.76,0,73.92,33.16,73.92,73.92C482,362.391,448.84,395.551,408.08,395.551z"/>
<path style="fill:#6D76E6;" d="M391.133,116.447c1.686,1.7,3.621,4.232,4.081,7.217c0.78,5.062-2.943,10.856-6.205,14.827
	l23.182,19.043c13.152-16.012,14.1-30.061,12.578-39.027c-3.191-18.81-18.79-28.795-20.559-29.872l-3.594-2.188H322.97
	l27.834,94.227H197.749l-29.319-50.583l-25.955,15.044l21.399,36.92L78.563,336.514l210.106,1.02l-73.531-126.86h144.529
	L393.7,325.887l28.772-8.499l-59.357-200.941C363.115,116.447,391.133,116.447,391.133,116.447z M236.458,307.28l-107.19-0.52
	l52.156-94.428L236.458,307.28z"/>
<rect x="125.16" y="118.45" style="fill:#FF3100;" width="74.76" height="30"/>
<path style="fill:#8A8891;" d="M512,321.641c0,57.3-46.62,103.91-103.92,103.91v-30c40.76,0,73.92-33.16,73.92-73.91
	c0-40.76-33.16-73.92-73.92-73.92v-30C465.38,217.721,512,264.341,512,321.641z"/>
<g>
</g>
<g>
</g>
<g>
</g>
<g>
</g>
<g>
</g>
<g>
</g>
<g>
</g>
<g>
</g>
<g>
</g>
<g>
</g>
<g>
</g>
<g>
</g>
<g>
</g>
<g>
</g>
<g>
</g>
</svg>
