<?xml version="1.0" encoding="iso-8859-1"?>
<!-- Generator: Adobe Illustrator 19.0.0, SVG Export Plug-In . SVG Version: 6.00 Build 0)  -->
<svg version="1.1" id="Layer_1" xmlns="http://www.w3.org/2000/svg" xmlns:xlink="http://www.w3.org/1999/xlink" x="0px" y="0px"
	 viewBox="0 0 495 495" style="enable-background:new 0 0 495 495;" xml:space="preserve">
<g>
	<path style="fill:#00EED1;" d="M176.379,247.5c0-39.272,31.849-71.121,71.121-71.121V97.183H109.241
		c0,60.326-48.916,109.241-109.241,109.241v82.151c60.326,0,109.241,48.916,109.241,109.241H247.5v-79.196
		C208.228,318.621,176.379,286.772,176.379,247.5z"/>
	<path style="fill:#00DDC2;" d="M385.759,97.183H247.5v79.197c39.272,0,71.121,31.849,71.121,71.121
		c0,39.272-31.849,71.121-71.121,71.121v79.196h138.259c0-60.326,48.916-109.241,109.241-109.241v-82.151
		C434.674,206.424,385.759,157.509,385.759,97.183z"/>
	<path style="fill:#00CCB3;" d="M176.379,247.5c0,39.272,31.849,71.121,71.121,71.121V176.379
		C208.228,176.379,176.379,208.228,176.379,247.5z"/>
	<path style="fill:#00AA95;" d="M318.621,247.5c0-39.272-31.849-71.121-71.121-71.121v142.241
		C286.772,318.621,318.621,286.772,318.621,247.5z"/>
	<path style="fill:#00CCB3;" d="M0,288.576v109.241h109.241C109.241,337.491,60.326,288.576,0,288.576z"/>
	<path style="fill:#00CCB3;" d="M109.241,97.183H0v109.241C60.326,206.424,109.241,157.509,109.241,97.183z"/>
	<path style="fill:#00AA95;" d="M385.759,97.183c0,60.326,48.916,109.241,109.241,109.241V97.183H385.759z"/>
	<path style="fill:#00AA95;" d="M385.759,397.817H495V288.576C434.674,288.576,385.759,337.491,385.759,397.817z"/>
</g>
<g>
</g>
<g>
</g>
<g>
</g>
<g>
</g>
<g>
</g>
<g>
</g>
<g>
</g>
<g>
</g>
<g>
</g>
<g>
</g>
<g>
</g>
<g>
</g>
<g>
</g>
<g>
</g>
<g>
</g>
</svg>
