<?xml version="1.0" encoding="iso-8859-1"?>
<!-- Generator: Adobe Illustrator 19.0.0, SVG Export Plug-In . SVG Version: 6.00 Build 0)  -->
<svg version="1.1" id="Capa_1" xmlns="http://www.w3.org/2000/svg" xmlns:xlink="http://www.w3.org/1999/xlink" x="0px" y="0px"
	 viewBox="0 0 512 512" style="enable-background:new 0 0 512 512;" xml:space="preserve">
<polygon style="fill:#E08344;" points="386,147 356,512 156,512 126,147 255.667,8.333 "/>
<polygon style="fill:#D6702B;" points="256,8.688 256,512 356,512 386,147 "/>
<polygon style="fill:#994C0F;" points="435.319,235.411 269.822,30 242.178,30 76.681,235.411 53.319,216.588 227.822,0 284.178,0 
	458.681,216.588 "/>
<g>
	<circle style="fill:#063E8B;" cx="256" cy="211" r="45"/>
	<circle style="fill:#063E8B;" cx="256" cy="412" r="20"/>
</g>
<polygon style="fill:#713708;" points="284.178,0 256,0 256,30 269.822,30 435.319,235.411 458.681,216.588 "/>
<g>
	<path style="fill:#032E68;" d="M256,166v90c24.853,0,45-20.147,45-45S280.853,166,256,166z"/>
	<path style="fill:#032E68;" d="M256,392v40c11.046,0,20-8.954,20-20S267.046,392,256,392z"/>
</g>
<g>
</g>
<g>
</g>
<g>
</g>
<g>
</g>
<g>
</g>
<g>
</g>
<g>
</g>
<g>
</g>
<g>
</g>
<g>
</g>
<g>
</g>
<g>
</g>
<g>
</g>
<g>
</g>
<g>
</g>
</svg>
