<?xml version="1.0" encoding="iso-8859-1"?>
<!-- Generator: Adobe Illustrator 19.0.0, SVG Export Plug-In . SVG Version: 6.00 Build 0)  -->
<svg version="1.1" id="Layer_1" xmlns="http://www.w3.org/2000/svg" xmlns:xlink="http://www.w3.org/1999/xlink" x="0px" y="0px"
	 viewBox="0 0 512 512" style="enable-background:new 0 0 512 512;" xml:space="preserve">
<polygon style="fill:#88ACB5;" points="318.847,399.601 318.847,455.865 256,478.37 193.153,455.865 193.153,399.601 "/>
<rect x="193.153" y="455.86" style="fill:#A7CBCF;" width="125.693" height="47.7"/>
<path style="fill:#5195AF;" d="M395.636,512H116.364c-4.661,0-8.44-3.779-8.44-8.44s3.779-8.44,8.44-8.44h279.273
	c4.662,0,8.44,3.779,8.44,8.44S400.297,512,395.636,512z"/>
<path style="fill:#940044;" d="M500.365,28.384h-33.758v347.564L512,353.442V40.019C512,33.628,506.768,28.384,500.365,28.384z"/>
<path style="fill:#C20035;" d="M466.606,28.384H11.635C5.233,28.384,0,33.628,0,40.019v313.423l33.758,16.737v5.768h444.484V40.019
	C478.242,33.628,473.009,28.384,466.606,28.384z"/>
<polygon style="fill:#B7D9DD;" points="414.506,0 414.506,361.877 369.495,361.877 392.001,0 "/>
<rect x="97.494" style="fill:#C7E7EB;" width="294.507" height="373.13"/>
<rect x="142.505" y="45.011" style="fill:#FF0F47;" width="226.99" height="59.409"/>
<path style="fill:#27467A;" d="M361.058,146.618H150.943c-4.661,0-8.44-3.778-8.44-8.44c0-4.662,3.779-8.44,8.44-8.44h210.115
	c4.662,0,8.44,3.778,8.44,8.44C369.497,142.84,365.719,146.618,361.058,146.618z"/>
<path style="fill:#367596;" d="M276.07,191.629H150.943c-4.661,0-8.44-3.778-8.44-8.44s3.779-8.44,8.44-8.44H276.07
	c4.662,0,8.44,3.778,8.44,8.44S280.732,191.629,276.07,191.629z"/>
<path style="fill:#5195AF;" d="M361.058,191.629h-51.229c-4.662,0-8.44-3.778-8.44-8.44s3.778-8.44,8.44-8.44h51.229
	c4.662,0,8.44,3.778,8.44,8.44S365.719,191.629,361.058,191.629z"/>
<path style="fill:#367596;" d="M276.07,225.387H150.943c-4.661,0-8.44-3.778-8.44-8.44c0-4.662,3.779-8.44,8.44-8.44H276.07
	c4.662,0,8.44,3.778,8.44,8.44C284.51,221.609,280.732,225.387,276.07,225.387z"/>
<path style="fill:#5195AF;" d="M361.058,225.387h-51.229c-4.662,0-8.44-3.778-8.44-8.44c0-4.662,3.778-8.44,8.44-8.44h51.229
	c4.662,0,8.44,3.778,8.44,8.44C369.497,221.609,365.719,225.387,361.058,225.387z"/>
<path style="fill:#367596;" d="M276.07,259.145H150.943c-4.661,0-8.44-3.778-8.44-8.44s3.779-8.44,8.44-8.44H276.07
	c4.662,0,8.44,3.778,8.44,8.44S280.732,259.145,276.07,259.145z"/>
<path style="fill:#5195AF;" d="M361.058,259.145h-51.229c-4.662,0-8.44-3.778-8.44-8.44s3.778-8.44,8.44-8.44h51.229
	c4.662,0,8.44,3.778,8.44,8.44S365.719,259.145,361.058,259.145z"/>
<rect x="142.505" y="284.458" style="fill:#2F5E88;" width="133.57" height="88.672"/>
<path style="fill:#367596;" d="M478.242,353.442l-11.635,68.664h33.758c6.403,0,11.635-5.233,11.635-11.635v-57.029H478.242z"/>
<path style="fill:#5195AF;" d="M0,353.442v57.029c0,6.403,5.233,11.635,11.635,11.635h454.971c6.403,0,11.635-5.233,11.635-11.635
	v-57.029H0z"/>
<polygon style="fill:#111449;" points="400.947,123.243 414.506,134.496 428.066,123.243 414.506,89.485 "/>
<polygon style="fill:#FFFFFF;" points="414.506,197.905 444.484,164.147 428.066,123.243 400.947,123.243 384.529,164.147 "/>
<polygon style="fill:#FFCD60;" points="384.529,422.049 384.529,164.147 421.978,164.147 433.231,444.554 "/>
<polygon style="fill:#F3A933;" points="421.978,438.951 444.484,422.049 444.484,164.147 421.978,164.147 "/>
<path style="fill:#C20035;" d="M421.978,422.049h22.506v30.36c0,16.53-13.447,29.977-29.977,29.977L421.978,422.049z"/>
<path style="fill:#FF0F47;" d="M384.529,452.409c0,16.53,13.447,29.977,29.977,29.977c4.119,0,7.472-13.447,7.472-29.977v-30.36
	h-37.449V452.409z"/>
<g>
</g>
<g>
</g>
<g>
</g>
<g>
</g>
<g>
</g>
<g>
</g>
<g>
</g>
<g>
</g>
<g>
</g>
<g>
</g>
<g>
</g>
<g>
</g>
<g>
</g>
<g>
</g>
<g>
</g>
</svg>
