<?xml version="1.0" encoding="iso-8859-1"?>
<!-- Generator: Adobe Illustrator 19.0.0, SVG Export Plug-In . SVG Version: 6.00 Build 0)  -->
<svg version="1.1" id="Capa_1" xmlns="http://www.w3.org/2000/svg" xmlns:xlink="http://www.w3.org/1999/xlink" x="0px" y="0px"
	 viewBox="0 0 512 512" style="enable-background:new 0 0 512 512;" xml:space="preserve">
<rect x="226" y="15" style="fill:#480306;" width="270" height="450"/>
<rect x="16" y="15" style="fill:#8B2613;" width="240" height="450"/>
<rect x="61" y="360" style="fill:#D95D27;" width="30" height="105"/>
<rect x="121" y="360" style="fill:#FFF2A3;" width="30" height="105"/>
<rect x="181" y="360" style="fill:#7DE5FB;" width="30" height="105"/>
<rect x="301" y="360" style="fill:#26D4F8;" width="30" height="105"/>
<rect x="361" y="360" style="fill:#E3C281;" width="30" height="105"/>
<rect x="421" y="360" style="fill:#C7461F;" width="30" height="105"/>
<rect x="61" y="210" style="fill:#26D4F8;" width="30" height="105"/>
<rect x="121" y="210" style="fill:#FFFFFF;" width="30" height="105"/>
<rect x="181" y="210" style="fill:#D95D27;" width="30" height="105"/>
<rect x="301" y="210" style="fill:#1B94AD;" width="30" height="105"/>
<rect x="361" y="210" style="fill:#26D4F8;" width="30" height="105"/>
<rect x="421" y="210" style="fill:#E3C281;" width="30" height="105"/>
<rect x="61" y="60" style="fill:#D95D27;" width="30" height="105"/>
<rect x="121" y="60" style="fill:#21B4D3;" width="30" height="105"/>
<rect x="181" y="60" style="fill:#FFF2A3;" width="30" height="105"/>
<g>
	<rect x="301" y="60" style="fill:#C7461F;" width="30" height="105"/>
	<rect x="241" y="360" style="fill:#C7461F;" width="30" height="105"/>
</g>
<rect x="241" y="210" style="fill:#E3C281;" width="30" height="105"/>
<rect x="241" y="60" style="fill:#1B94AD;" width="30" height="105"/>
<rect x="361" y="60" style="fill:#FEDD90;" width="30" height="105"/>
<rect x="421" y="60" style="fill:#26D4F8;" width="30" height="105"/>
<polygon style="fill:#EB7330;" points="496,480 496,450 256,450 236,465 256,480 "/>
<rect x="16" y="450" style="fill:#F9963B;" width="240" height="30"/>
<polygon style="fill:#EB7330;" points="496,330 496,300 256,300 236,315 256,330 "/>
<rect x="16" y="300" style="fill:#F9963B;" width="240" height="30"/>
<polygon style="fill:#EB7330;" points="496,180 496,150 256,150 236,165 256,180 "/>
<g>
	<rect x="16" y="150" style="fill:#F9963B;" width="240" height="30"/>
	<polygon style="fill:#F9963B;" points="256,0 236,15 256,30 482,30 482,512 512,512 512,0 	"/>
</g>
<polygon style="fill:#FCBA66;" points="0,0 0,512 30,512 30,30 256,30 256,0 "/>
<g>
</g>
<g>
</g>
<g>
</g>
<g>
</g>
<g>
</g>
<g>
</g>
<g>
</g>
<g>
</g>
<g>
</g>
<g>
</g>
<g>
</g>
<g>
</g>
<g>
</g>
<g>
</g>
<g>
</g>
</svg>
