<?xml version="1.0" encoding="iso-8859-1"?>
<!-- Generator: Adobe Illustrator 18.0.0, SVG Export Plug-In . SVG Version: 6.00 Build 0)  -->
<!DOCTYPE svg PUBLIC "-//W3C//DTD SVG 1.1//EN" "http://www.w3.org/Graphics/SVG/1.1/DTD/svg11.dtd">
<svg version="1.1" id="Capa_1" xmlns="http://www.w3.org/2000/svg" xmlns:xlink="http://www.w3.org/1999/xlink" x="0px" y="0px"
	 viewBox="0 0 58 58" style="enable-background:new 0 0 58 58;" xml:space="preserve">
<g>
	<polygon style="fill:#A98258;" points="48,0 10,0 0,16 0,58 58,58 58,16 	"/>
	<polygon style="fill:#DAAE86;" points="10,0 0,16 58,16 48,0 	"/>
	<polygon style="fill:#D8B18B;" points="33,54 29,50 25,54 23,52 23,58 35,58 35,52 	"/>
	<rect x="20" y="30" style="fill:#E8D5B2;" width="18" height="16"/>
	<g>
		<path style="fill:#D4C3A5;" d="M30,41h-6c-0.552,0-1,0.447-1,1s0.448,1,1,1h6c0.552,0,1-0.447,1-1S30.552,41,30,41z"/>
		<path style="fill:#D4C3A5;" d="M34,41h-1c-0.552,0-1,0.447-1,1s0.448,1,1,1h1c0.552,0,1-0.447,1-1S34.552,41,34,41z"/>
		<path style="fill:#D4C3A5;" d="M28,35h6c0.552,0,1-0.447,1-1s-0.448-1-1-1h-6c-0.552,0-1,0.447-1,1S27.448,35,28,35z"/>
		<path style="fill:#D4C3A5;" d="M34,37h-2c-0.552,0-1,0.447-1,1s0.448,1,1,1h2c0.552,0,1-0.447,1-1S34.552,37,34,37z"/>
		<path style="fill:#D4C3A5;" d="M24,39h2c0.552,0,1-0.447,1-1s-0.448-1-1-1h-2c-0.552,0-1,0.447-1,1S23.448,39,24,39z"/>
		<path style="fill:#D4C3A5;" d="M24,35h1c0.552,0,1-0.447,1-1s-0.448-1-1-1h-1c-0.552,0-1,0.447-1,1S23.448,35,24,35z"/>
		<path style="fill:#D4C3A5;" d="M28.29,37.29C28.11,37.479,28,37.729,28,38c0,0.27,0.11,0.52,0.29,0.71C28.48,38.89,28.74,39,29,39
			c0.26,0,0.52-0.11,0.71-0.29C29.89,38.52,30,38.26,30,38s-0.11-0.521-0.29-0.71C29.33,36.92,28.66,36.92,28.29,37.29z"/>
	</g>
	<rect x="23" style="fill:#F4D5BD;" width="12" height="16"/>
	<polygon style="fill:#D8B18B;" points="25,21 29,25 33,21 35,23 35,16 23,16 23,23 	"/>
</g>
<g>
</g>
<g>
</g>
<g>
</g>
<g>
</g>
<g>
</g>
<g>
</g>
<g>
</g>
<g>
</g>
<g>
</g>
<g>
</g>
<g>
</g>
<g>
</g>
<g>
</g>
<g>
</g>
<g>
</g>
</svg>
