<?xml version="1.0" encoding="iso-8859-1"?>
<!-- Generator: Adobe Illustrator 18.0.0, SVG Export Plug-In . SVG Version: 6.00 Build 0)  -->
<!DOCTYPE svg PUBLIC "-//W3C//DTD SVG 1.1//EN" "http://www.w3.org/Graphics/SVG/1.1/DTD/svg11.dtd">
<svg version="1.1" id="Capa_1" xmlns="http://www.w3.org/2000/svg" xmlns:xlink="http://www.w3.org/1999/xlink" x="0px" y="0px"
	 viewBox="0 0 58 58" style="enable-background:new 0 0 58 58;" xml:space="preserve">
<g>
	<path style="fill:#86573F;" d="M55.6,13.2C54.561,12.421,53.298,12,52,12h-1l0,0h-6l0,0H13l0,0H7l0,0H6
		c-1.298,0-2.561,0.421-3.6,1.2C0.889,14.333,0,16.111,0,18v32h2.388C4.935,50,7,52.065,7,54.612V57h44v-2.388
		C51,52.065,53.065,50,55.612,50H58V18C58,16.111,57.111,14.333,55.6,13.2z"/>
	<g>
		<path style="fill:#A06646;" d="M11.181,9H8.819C7.815,9,7,9.814,7,10.819V37v1v3c0,1.657,1.343,3,3,3s3-1.343,3-3v-3v-1V10.819
			C13,9.814,12.185,9,11.181,9z"/>
		<path style="fill:#A06646;" d="M49.181,9h-2.361C45.815,9,45,9.814,45,10.819V37v2v2c0,1.657,1.343,3,3,3s3-1.343,3-3v-2v-2
			V10.819C51,9.814,50.185,9,49.181,9z"/>
	</g>
	<path style="fill:#CBB292;" d="M7,57H4.422C1.98,57,0,55.02,0,52.578V50h2.388C4.935,50,7,52.065,7,54.612V57z"/>
	<path style="fill:#CBB292;" d="M58,50v2.578C58,55.02,56.02,57,53.578,57H51v-2.388C51,52.065,53.065,50,55.612,50H58z"/>
	<rect x="16" y="9" style="fill:#D6DADB;" width="8" height="3"/>
	<rect x="34" y="9" style="fill:#D6DADB;" width="8" height="3"/>
	<path style="fill:#7B675F;" d="M36,6.444V9h4V6.889C40,3.636,37.364,1,34.111,1H23.889C20.636,1,18,3.636,18,6.889V9h4V6.444
		C22,5.331,23.13,4.575,24.159,5c3.1,1.281,6.582,1.281,9.682,0C34.87,4.575,36,5.331,36,6.444z"/>
	<rect x="24" y="21" style="fill:#CBB292;" width="10" height="4"/>
	<g>
		<rect y="33" style="fill:#583728;" width="5" height="2"/>
		<rect x="53" y="33" style="fill:#583728;" width="5" height="2"/>
		<rect x="15" y="33" style="fill:#583728;" width="28" height="2"/>
	</g>
	<circle style="fill:#4B3021;" cx="10" cy="25" r="1"/>
	<circle style="fill:#4B3021;" cx="10" cy="40" r="1"/>
	<circle style="fill:#4B3021;" cx="48" cy="25" r="1"/>
	<circle style="fill:#4B3021;" cx="48" cy="40" r="1"/>
	<rect x="28" y="35" style="fill:#583728;" width="2" height="22"/>
	<path style="fill:#CBB292;" d="M10,34c-0.552,0-1-0.447-1-1v-4c0-0.553,0.448-1,1-1s1,0.447,1,1v4C11,33.553,10.552,34,10,34z"/>
	<path style="fill:#CBB292;" d="M48,34c-0.552,0-1-0.447-1-1v-4c0-0.553,0.448-1,1-1s1,0.447,1,1v4C49,33.553,48.552,34,48,34z"/>
	<polygon style="fill:#CBB292;" points="13,30 13,32 14,32 14,36 6,36 6,32 7,32 7,30 4,30 4,38 16,38 16,30 	"/>
	<polygon style="fill:#CBB292;" points="51,30 51,32 52,32 52,36 44,36 44,32 45,32 45,30 42,30 42,38 54,38 54,30 	"/>
</g>
<g>
</g>
<g>
</g>
<g>
</g>
<g>
</g>
<g>
</g>
<g>
</g>
<g>
</g>
<g>
</g>
<g>
</g>
<g>
</g>
<g>
</g>
<g>
</g>
<g>
</g>
<g>
</g>
<g>
</g>
</svg>
