<?xml version="1.0" encoding="iso-8859-1"?>
<!-- Generator: Adobe Illustrator 19.0.0, SVG Export Plug-In . SVG Version: 6.00 Build 0)  -->
<svg version="1.1" id="Capa_1" xmlns="http://www.w3.org/2000/svg" xmlns:xlink="http://www.w3.org/1999/xlink" x="0px" y="0px"
	 viewBox="0 0 512 512" style="enable-background:new 0 0 512 512;" xml:space="preserve">
<rect x="240.995" style="fill:#FCB72C;" width="30" height="512"/>
<path style="fill:#FD0023;" d="M255.995,49c-33.182,0-60.177,26.995-60.177,60.176s26.995,60.177,60.177,60.177
	c33.181,0,60.176-26.996,60.176-60.177S289.176,49,255.995,49z"/>
<path style="fill:#DC001E;" d="M255.995,169.353c33.181,0,60.176-26.996,60.176-60.177S289.176,49,255.995,49"/>
<path style="fill:#FD0023;" d="M255.995,341.333c-33.182,0-60.177,26.995-60.177,60.176s26.995,60.176,60.177,60.176
	c33.181,0,60.176-26.995,60.176-60.176S289.176,341.333,255.995,341.333z"/>
<path style="fill:#DC001E;" d="M255.995,461.686c33.181,0,60.176-26.995,60.176-60.176s-26.995-60.177-60.176-60.177"/>
<path style="fill:#FD0023;" d="M255.995,195.824c-33.182,0-60.177,26.995-60.177,60.176c0,33.182,26.995,60.177,60.177,60.177
	c33.181,0,60.176-26.995,60.176-60.177C316.171,222.819,289.176,195.824,255.995,195.824z"/>
<path style="fill:#DC001E;" d="M255.995,316.176c33.181,0,60.176-26.995,60.176-60.177c0-33.181-26.995-60.176-60.176-60.176"/>
<g>
	<rect x="188.235" y="154.35" style="fill:#00E08B;" width="135.53" height="56.47"/>
	<rect x="188.235" y="301.18" style="fill:#00E08B;" width="135.53" height="56.47"/>
</g>
<g>
	<rect x="255.995" y="154.35" style="fill:#00BB75;" width="67.765" height="56.47"/>
	<rect x="255.995" y="301.18" style="fill:#00BB75;" width="67.765" height="56.47"/>
</g>
<g>
</g>
<g>
</g>
<g>
</g>
<g>
</g>
<g>
</g>
<g>
</g>
<g>
</g>
<g>
</g>
<g>
</g>
<g>
</g>
<g>
</g>
<g>
</g>
<g>
</g>
<g>
</g>
<g>
</g>
</svg>
