<?xml version="1.0" encoding="iso-8859-1"?>
<!-- Generator: Adobe Illustrator 19.0.0, SVG Export Plug-In . SVG Version: 6.00 Build 0)  -->
<svg version="1.1" id="Capa_1" xmlns="http://www.w3.org/2000/svg" xmlns:xlink="http://www.w3.org/1999/xlink" x="0px" y="0px"
	 viewBox="0 0 512 512" style="enable-background:new 0 0 512 512;" xml:space="preserve">
<rect y="27.665" style="fill:#EFEFEF;" width="512" height="456.67"/>
<rect x="256" y="27.665" style="fill:#E6E6E6;" width="256" height="456.67"/>
<rect y="27.665" style="fill:#95DAF9;" width="512" height="100.33"/>
<rect x="256" y="27.665" style="fill:#4EC1F5;" width="256" height="100.33"/>
<rect x="70.33" y="187.668" style="fill:#C1C1C1;" width="243.33" height="30"/>
<rect x="256" y="187.668" style="fill:#848484;" width="57.667" height="30"/>
<rect x="70.33" y="336.998" style="fill:#C1C1C1;" width="83.33" height="30"/>
<rect x="203.67" y="336.998" style="fill:#C1C1C1;" width="83.33" height="30"/>
<rect x="256" y="336.998" style="fill:#848484;" width="31" height="30"/>
<rect x="44.667" y="62.831" style="fill:#FD0023;" width="30" height="30"/>
<rect x="98" y="62.831" style="fill:#FFDB2D;" width="30" height="30"/>
<rect x="151.33" y="62.831" style="fill:#00E08B;" width="30" height="30"/>
<polygon style="fill:#FD0023;" points="149.273,266.604 128.06,245.391 112,261.451 95.94,245.391 74.727,266.604 90.787,282.664 
	74.727,298.725 95.94,319.937 112,303.877 128.06,319.937 149.273,298.725 133.213,282.664 "/>
<polygon style="fill:#00E08B;" points="234.667,319.878 202.727,287.937 223.94,266.725 234.667,277.451 266.727,245.391 
	287.94,266.604 "/>
<rect x="341.33" y="187.668" style="fill:#848484;" width="30" height="30"/>
<polygon points="447.88,405.331 391.694,349.145 413.526,356.422 423.013,327.962 312.439,291.104 349.297,401.677 377.758,392.19 
	370.48,370.358 426.667,426.544 "/>
<polygon style="fill:#00BB75;" points="256,298.544 287.94,266.604 266.727,245.391 256,256.118 "/>
<g>
</g>
<g>
</g>
<g>
</g>
<g>
</g>
<g>
</g>
<g>
</g>
<g>
</g>
<g>
</g>
<g>
</g>
<g>
</g>
<g>
</g>
<g>
</g>
<g>
</g>
<g>
</g>
<g>
</g>
</svg>
