<?xml version="1.0" encoding="iso-8859-1"?>
<!-- Generator: Adobe Illustrator 19.0.0, SVG Export Plug-In . SVG Version: 6.00 Build 0)  -->
<svg version="1.1" id="Capa_1" xmlns="http://www.w3.org/2000/svg" xmlns:xlink="http://www.w3.org/1999/xlink" x="0px" y="0px"
	 viewBox="0 0 512 512" style="enable-background:new 0 0 512 512;" xml:space="preserve">
<polygon style="fill:#B0DBFF;" points="94.45,266.71 21.96,501.94 112.08,501.94 184.57,266.71 193.81,236.71 103.69,236.71 "/>
<polygon style="fill:#83C9FF;" points="417.55,266.71 408.31,236.71 318.19,236.71 327.43,266.71 399.92,501.94 490.04,501.94 "/>
<rect x="127.44" y="10.06" style="fill:#B0DBFF;" width="84.31" height="117.53"/>
<rect x="300.25" y="10.06" style="fill:#83C9FF;" width="84.31" height="117.53"/>
<path style="fill:#FFA920;" d="M512,160.36v106.35H0V160.36c0-34.61,28.16-62.77,62.76-62.77h386.48
	C483.84,97.59,512,125.75,512,160.36z"/>
<path style="fill:#FF8800;" d="M512,160.36v106.35H256V97.59h193.24C483.84,97.59,512,125.75,512,160.36z"/>
<rect y="186.71" style="fill:#E57500;" width="512" height="30"/>
<rect x="256" y="186.71" style="fill:#BF6100;" width="256" height="30"/>
<g>
</g>
<g>
</g>
<g>
</g>
<g>
</g>
<g>
</g>
<g>
</g>
<g>
</g>
<g>
</g>
<g>
</g>
<g>
</g>
<g>
</g>
<g>
</g>
<g>
</g>
<g>
</g>
<g>
</g>
</svg>
