<?xml version="1.0" encoding="iso-8859-1"?>
<!-- Generator: Adobe Illustrator 19.0.0, SVG Export Plug-In . SVG Version: 6.00 Build 0)  -->
<svg version="1.1" id="Capa_1" xmlns="http://www.w3.org/2000/svg" xmlns:xlink="http://www.w3.org/1999/xlink" x="0px" y="0px"
	 viewBox="0 0 512 512" style="enable-background:new 0 0 512 512;" xml:space="preserve">
<path style="fill:#974C00;" d="M302.61,112.586l-29.528-5.232c0.136-0.78,3.483-19.326,16.473-39.678
	c12.039-18.862,34.998-43.245,75.995-52.288l6.459,29.283C313.445,57.589,303.025,110.347,302.61,112.586z"/>
<path style="fill:#E37500;" d="M209.39,112.586c-0.415-2.239-10.835-54.996-69.4-67.915l6.459-29.283
	c40.998,9.043,63.956,33.425,75.995,52.288c12.991,20.352,16.337,38.898,16.473,39.678l-14.775,2.58L209.39,112.586z"/>
<g>
	<polygon style="fill:#FF8600;" points="491.782,496.612 434.803,462.678 418.078,404.926 365.062,399.491 368.12,369.661 
		441.256,377.159 460.314,442.969 507.127,470.848 	"/>
	<polygon style="fill:#FF8600;" points="504.397,333.149 462.268,333.149 425.491,283.724 377.298,283.724 377.298,253.736 
		440.555,253.736 477.332,303.161 504.397,303.161 	"/>
	<polygon style="fill:#FF8600;" points="451.631,191.844 377.298,191.844 377.298,161.856 430.064,161.856 446.247,113.635 
		496.795,83.901 512,109.748 471.111,133.8 	"/>
</g>
<g>
	<polygon style="fill:#FFA720;" points="20.218,496.612 4.873,470.848 51.686,442.969 70.744,377.159 143.88,369.661 
		146.938,399.491 93.922,404.926 77.197,462.678 	"/>
	<polygon style="fill:#FFA720;" points="49.733,333.149 7.603,333.149 7.603,303.161 34.668,303.161 71.445,253.736 
		134.702,253.736 134.702,283.724 86.509,283.724 	"/>
	<polygon style="fill:#FFA720;" points="134.702,191.844 60.369,191.844 40.889,133.8 0,109.748 15.205,83.901 65.753,113.635 
		81.936,161.856 134.702,161.856 	"/>
	<path style="fill:#FFA720;" d="M331.11,161.564v15.284H180.891v-15.284c0-41.423,33.696-75.109,75.109-75.109
		S331.11,120.141,331.11,161.564z"/>
</g>
<path style="fill:#FF8600;" d="M331.11,161.564v15.284h-75.109V86.455C297.412,86.455,331.11,120.141,331.11,161.564z"/>
<path style="fill:#E37500;" d="M391.464,161.854v176.237c0,74.699-60.765,135.464-135.464,135.464s-135.464-60.765-135.464-135.464
	V161.854L391.464,161.854L391.464,161.854z"/>
<path style="fill:#974C00;" d="M391.464,161.854v176.237c0,74.699-60.765,135.464-135.464,135.464V161.854L391.464,161.854
	L391.464,161.854z"/>
<g>
</g>
<g>
</g>
<g>
</g>
<g>
</g>
<g>
</g>
<g>
</g>
<g>
</g>
<g>
</g>
<g>
</g>
<g>
</g>
<g>
</g>
<g>
</g>
<g>
</g>
<g>
</g>
<g>
</g>
</svg>
