<?xml version="1.0" encoding="iso-8859-1"?>
<!-- Generator: Adobe Illustrator 19.0.0, SVG Export Plug-In . SVG Version: 6.00 Build 0)  -->
<svg version="1.1" id="Capa_1" xmlns="http://www.w3.org/2000/svg" xmlns:xlink="http://www.w3.org/1999/xlink" x="0px" y="0px"
	 viewBox="0 0 512 512" style="enable-background:new 0 0 512 512;" xml:space="preserve">
<path style="fill:#78777F;" d="M326.67,27.302L310.972,0l-11.307,29.395c-27.968,72.716-19.963,159.687-17.332,188.266
	c0.249,2.702,0.53,5.764,0.553,6.574c-0.006-0.199-0.03-2.004,0.72-4.255l14.231,4.741l0,0l31.117,33.257
	c-0.211,0.23-0.405,0.472-0.62,0.7l21.817,20.593C424.734,200.249,330.711,34.328,326.67,27.302z"/>
<path style="fill:#88868F;" d="M201.029,0l-15.7,27.302c-4.039,7.024-98.064,172.946-23.481,251.969l21.817-20.593
	c-0.215-0.228-0.409-0.469-0.62-0.7l31.117-33.257l0,0l14.231-4.741c0.75,2.251,0.726,4.056,0.72,4.255
	c0.023-0.81,0.304-3.872,0.553-6.574c2.631-28.58,10.637-115.551-17.332-188.266L201.029,0z"/>
<path style="fill:#DEDEE0;" d="M392.077,444.657c-7.93,16.701-20.821,30.912-37.282,41.112
	C335.464,497.749,303.442,511.83,259.67,512h-0.73c-0.98,0-1.95-0.01-2.94-0.03c-0.99,0.02-1.96,0.03-2.94,0.03
	c-44.142,0-76.404-14.181-95.855-26.231c-16.461-10.201-29.351-24.411-37.282-41.112c-12.261-25.811-11.721-54.483,1.54-82.924
	c6.42-13.751,14.411-24.301,19.191-29.991c1.75-44.902,15.251-78.564,40.152-100.095c30.031-25.961,66.413-24.821,75.194-24.101
	c0.93-0.08,2.16-0.16,3.67-0.21c12.731-0.45,44.662,1.09,71.523,24.311c24.901,21.531,38.402,55.193,40.152,100.095
	c4.78,5.69,12.771,16.241,19.191,29.991C403.797,390.174,404.338,418.845,392.077,444.657z"/>
<path style="fill:#D6D6D8;" d="M392.077,444.657c-7.93,16.701-20.821,30.912-37.282,41.112
	C335.464,497.749,303.442,511.83,259.67,512V207.335c12.731-0.45,44.662,1.09,71.523,24.311
	c24.901,21.531,38.402,55.193,40.152,100.095c4.78,5.69,12.771,16.241,19.191,29.991
	C403.797,390.174,404.338,418.845,392.077,444.657z"/>
<g>
	
		<rect x="356.92" y="330.035" transform="matrix(-0.2618 -0.9651 0.9651 -0.2618 105.6706 834.3478)" style="fill:#78777F;" width="30.001" height="93.453"/>
	
		<rect x="325.136" y="422.964" transform="matrix(-0.9651 -0.2618 0.2618 -0.9651 616.0931 958.0081)" style="fill:#78777F;" width="93.453" height="30.001"/>
</g>
<g>
	
		<rect x="125.114" y="391.25" transform="matrix(-0.2618 -0.9651 0.9651 -0.2618 -245.902 687.8681)" style="fill:#88868F;" width="30.001" height="93.453"/>
	
		<rect x="93.354" y="361.76" transform="matrix(-0.9651 -0.2618 0.2618 -0.9651 176.6357 777.0539)" style="fill:#88868F;" width="93.453" height="30.001"/>
</g>
<g>
	<path style="fill:#57555C;" d="M277.511,408.045l-11.441,19.831c-1.43,2.47-3.91,3.7-6.4,3.7s-4.98-1.23-6.4-3.7l-11.451-19.831
		c-2.84-4.92,0.71-11.081,6.4-11.081h22.891C276.801,396.964,280.361,403.125,277.511,408.045z"/>
	<circle style="fill:#57555C;" cx="220.751" cy="334.936" r="15.564"/>
</g>
<g>
	<circle style="fill:#3A3A41;" cx="291.255" cy="334.936" r="15.564"/>
	<path style="fill:#3A3A41;" d="M277.511,408.045l-11.441,19.831c-1.43,2.47-3.91,3.7-6.4,3.7v-34.612h11.441
		C276.801,396.964,280.361,403.125,277.511,408.045z"/>
</g>
<g>
</g>
<g>
</g>
<g>
</g>
<g>
</g>
<g>
</g>
<g>
</g>
<g>
</g>
<g>
</g>
<g>
</g>
<g>
</g>
<g>
</g>
<g>
</g>
<g>
</g>
<g>
</g>
<g>
</g>
</svg>
