<?xml version="1.0" encoding="iso-8859-1"?>
<!-- Generator: Adobe Illustrator 19.0.0, SVG Export Plug-In . SVG Version: 6.00 Build 0)  -->
<svg version="1.1" id="Layer_1" xmlns="http://www.w3.org/2000/svg" xmlns:xlink="http://www.w3.org/1999/xlink" x="0px" y="0px"
	 viewBox="0 0 495 495" style="enable-background:new 0 0 495 495;" xml:space="preserve">
<g>
	<path style="fill:#FFE477;" d="M199.701,347.5v-40H247.5v-60H80v-40h167.5v-20h-71.299v-40H247.5V69.889H0v355.222h247.5V347.5
		H199.701z M175.599,347.5H80v-40h95.599V347.5z"/>
	<path style="fill:#FFDA44;" d="M247.5,69.889V147.5h71.299v40H247.5v20H415v40H247.5v60h47.799v40H247.5v77.611H495V69.889H247.5z
		 M415,347.5h-95.599v-40H415V347.5z"/>
	<rect x="80" y="207.5" style="fill:#806749;" width="335" height="40"/>
	<rect x="176.201" y="147.5" style="fill:#806749;" width="142.598" height="40"/>
	<rect x="80" y="307.5" style="fill:#806749;" width="95.599" height="40"/>
	<rect x="199.701" y="307.5" style="fill:#806749;" width="95.598" height="40"/>
	<rect x="319.401" y="307.5" style="fill:#806749;" width="95.599" height="40"/>
</g>
<g>
</g>
<g>
</g>
<g>
</g>
<g>
</g>
<g>
</g>
<g>
</g>
<g>
</g>
<g>
</g>
<g>
</g>
<g>
</g>
<g>
</g>
<g>
</g>
<g>
</g>
<g>
</g>
<g>
</g>
</svg>
