<?xml version="1.0" encoding="iso-8859-1"?>
<!-- Generator: Adobe Illustrator 19.0.0, SVG Export Plug-In . SVG Version: 6.00 Build 0)  -->
<svg version="1.1" id="Layer_1" xmlns="http://www.w3.org/2000/svg" xmlns:xlink="http://www.w3.org/1999/xlink" x="0px" y="0px"
	 viewBox="0 0 495 495" style="enable-background:new 0 0 495 495;" xml:space="preserve">
<g>
	<path style="fill:#FF6243;" d="M0,247.5V495h247.5V247.5H0z M145.508,398.049h-43.516v-40h43.516V398.049z M182.226,332.775H65.274
		v-40h116.951V332.775z"/>
	<path style="fill:#FF5023;" d="M247.5,495H495V247.5H247.5V495z M393.008,398.049h-43.516v-40h43.516V398.049z M323.654,292.775
		h106.071v40H323.654V292.775z"/>
	<path style="fill:#FF7956;" d="M247.5,0H0v247.5h247.5V0z M145.508,150.549h-43.516v-40h43.516V150.549z M182.226,85.275H65.274
		v-40h116.951V85.275z"/>
	<path style="fill:#FF6243;" d="M247.5,0v247.5H495V0H247.5z M393.008,150.549h-43.516v-40h43.516V150.549z M429.726,85.275H312.774
		v-40h116.951V85.275z"/>
	<rect x="312.774" y="45.275" style="fill:#FFFFFF;" width="116.951" height="40"/>
	<rect x="349.492" y="110.549" style="fill:#A7ADF0;" width="43.516" height="40"/>
	<rect x="65.274" y="45.275" style="fill:#FFFFFF;" width="116.951" height="40"/>
	<rect x="101.992" y="110.549" style="fill:#C4C8F5;" width="43.516" height="40"/>
	<rect x="323.654" y="292.775" style="fill:#FFFFFF;" width="106.071" height="40"/>
	<rect x="349.492" y="358.049" style="fill:#A7ADF0;" width="43.516" height="40"/>
	<rect x="65.274" y="292.775" style="fill:#FFFFFF;" width="116.951" height="40"/>
	<rect x="101.992" y="358.049" style="fill:#C4C8F5;" width="43.516" height="40"/>
</g>
<g>
</g>
<g>
</g>
<g>
</g>
<g>
</g>
<g>
</g>
<g>
</g>
<g>
</g>
<g>
</g>
<g>
</g>
<g>
</g>
<g>
</g>
<g>
</g>
<g>
</g>
<g>
</g>
<g>
</g>
</svg>
