<?xml version="1.0" encoding="iso-8859-1"?>
<!-- Generator: Adobe Illustrator 19.0.0, SVG Export Plug-In . SVG Version: 6.00 Build 0)  -->
<svg version="1.1" id="Capa_1" xmlns="http://www.w3.org/2000/svg" xmlns:xlink="http://www.w3.org/1999/xlink" x="0px" y="0px"
	 viewBox="0 0 512 512" style="enable-background:new 0 0 512 512;" xml:space="preserve">
<path style="fill:#66CC70;" d="M331,142H181V52h150V142z M211,112h90V82h-90V112z"/>
<polygon style="fill:#00A621;" points="256,52 256,82 301,82 301,112 256,112 256,142 331,142 331,52 "/>
<path style="fill:#DCF4FF;" d="M468.028,460H43.972L0,319.289v-23.602L32.416,112h447.169L512,295.687v23.602L468.028,460z"/>
<polygon style="fill:#CCEFFF;" points="479.584,112 256,112 256,460 468.028,460 512,319.289 512,295.687 "/>
<polygon style="fill:#87E694;" points="479.584,112 32.416,112 0,295.687 0,319.289 512,319.289 512,295.687 "/>
<g>
	<polygon style="fill:#66CC70;" points="479.584,112 256,112 256,319.289 512,319.289 512,295.687 	"/>
	<rect x="201" y="172" style="fill:#66CC70;" width="30" height="90"/>
	<rect x="141" y="172" style="fill:#66CC70;" width="30" height="90"/>
	<rect x="81" y="172" style="fill:#66CC70;" width="30" height="90"/>
</g>
<g>
	<rect x="281" y="172" style="fill:#00A621;" width="30" height="90"/>
	<rect x="341" y="172" style="fill:#00A621;" width="30" height="90"/>
	<rect x="401" y="172" style="fill:#00A621;" width="30" height="90"/>
</g>
<g>
</g>
<g>
</g>
<g>
</g>
<g>
</g>
<g>
</g>
<g>
</g>
<g>
</g>
<g>
</g>
<g>
</g>
<g>
</g>
<g>
</g>
<g>
</g>
<g>
</g>
<g>
</g>
<g>
</g>
</svg>
