<?xml version="1.0" encoding="iso-8859-1"?>
<!-- Generator: Adobe Illustrator 18.0.0, SVG Export Plug-In . SVG Version: 6.00 Build 0)  -->
<!DOCTYPE svg PUBLIC "-//W3C//DTD SVG 1.1//EN" "http://www.w3.org/Graphics/SVG/1.1/DTD/svg11.dtd">
<svg version="1.1" id="Capa_1" xmlns="http://www.w3.org/2000/svg" xmlns:xlink="http://www.w3.org/1999/xlink" x="0px" y="0px"
	 viewBox="0 0 56 56" style="enable-background:new 0 0 56 56;" xml:space="preserve">
<g>
	<rect x="5.5" style="fill:#C9C9BA;" width="45" height="56"/>
	<rect x="8.5" y="5" style="fill:#98A5A8;" width="39" height="12"/>
	<rect x="38.5" y="32" style="fill:#F29C1F;" width="9" height="20"/>
	<rect x="8.5" y="21" style="fill:#575C55;" width="8" height="9"/>
	<rect x="18.5" y="21" style="fill:#575C55;" width="8" height="9"/>
	<rect x="28.5" y="21" style="fill:#575C55;" width="8" height="9"/>
	<rect x="38.5" y="21" style="fill:#FFFEF9;" width="9" height="9"/>
	<rect x="8.5" y="32" style="fill:#575C55;" width="8" height="9"/>
	<rect x="18.5" y="32" style="fill:#575C55;" width="8" height="9"/>
	<rect x="28.5" y="32" style="fill:#575C55;" width="8" height="9"/>
	<rect x="8.5" y="43" style="fill:#575C55;" width="8" height="9"/>
	<rect x="18.5" y="43" style="fill:#575C55;" width="8" height="9"/>
	<rect x="28.5" y="43" style="fill:#575C55;" width="8" height="9"/>
	<path style="fill:#49686D;" d="M39.882,7.577c-0.244-0.101-0.52-0.101-0.764,0c-0.123,0.051-0.233,0.124-0.326,0.217l-0.999,0.999
		c-0.391,0.391-0.391,1.023,0,1.414c0.195,0.195,0.451,0.293,0.707,0.293v3c0,0.553,0.448,1,1,1s1-0.447,1-1v-5
		c0-0.13-0.027-0.26-0.077-0.382C40.322,7.873,40.127,7.678,39.882,7.577z"/>
	<path style="fill:#49686D;" d="M44.423,8.118c-0.101-0.245-0.296-0.44-0.541-0.541c-0.244-0.101-0.52-0.101-0.764,0
		c-0.123,0.051-0.233,0.124-0.326,0.217l-0.999,0.999c-0.391,0.391-0.391,1.023,0,1.414c0.195,0.195,0.451,0.293,0.707,0.293v3
		c0,0.553,0.448,1,1,1s1-0.447,1-1v-5C44.5,8.37,44.473,8.24,44.423,8.118z"/>
</g>
<g>
</g>
<g>
</g>
<g>
</g>
<g>
</g>
<g>
</g>
<g>
</g>
<g>
</g>
<g>
</g>
<g>
</g>
<g>
</g>
<g>
</g>
<g>
</g>
<g>
</g>
<g>
</g>
<g>
</g>
</svg>
