<?xml version="1.0" encoding="iso-8859-1"?>
<!-- Generator: Adobe Illustrator 19.0.0, SVG Export Plug-In . SVG Version: 6.00 Build 0)  -->
<svg version="1.1" id="Capa_1" xmlns="http://www.w3.org/2000/svg" xmlns:xlink="http://www.w3.org/1999/xlink" x="0px" y="0px"
	 viewBox="0 0 400 400" style="enable-background:new 0 0 400 400;" xml:space="preserve">
<g id="XMLID_532_">
	<path id="XMLID_533_" style="fill:#DEDDE0;" d="M200,325V95H0v230h100H200z M125,135h60v60h-60V135z M125,225h60v60h-60V225z
		 M95,285H35v-60h60V285z M95,195H35v-60h60V195z"/>
	<path id="XMLID_784_" style="fill:#CDCDD0;" d="M200,325h100h100V95H200V325z M305,135h60v60h-60V135z M305,225h60v60h-60V225z
		 M215,135h60v60h-60V135z M275,225v60h-60v-60H275z"/>
	<polygon id="XMLID_790_" style="fill:#ACABB1;" points="365,55 365,75 335,75 335,55 265,55 265,75 235,75 235,55 165,55 165,75 
		135,75 135,55 65,55 65,75 35,75 35,55 0,55 0,95 200,95 400,95 400,55 	"/>
	<rect id="XMLID_791_" x="300" y="325" style="fill:#D80027;" width="100" height="40"/>
	<rect id="XMLID_792_" x="200" y="325" style="fill:#FF5023;" width="100" height="40"/>
	<rect id="XMLID_793_" x="100" y="325" style="fill:#FF9811;" width="100" height="40"/>
	<rect id="XMLID_794_" y="325" style="fill:#FFDA44;" width="100" height="40"/>
	<polygon id="XMLID_795_" style="fill:#565659;" points="365,75 365,55 365,35 335,35 335,55 335,75 	"/>
	<polygon id="XMLID_796_" style="fill:#565659;" points="65,75 65,55 65,35 35,35 35,55 35,75 	"/>
	<polygon id="XMLID_797_" style="fill:#565659;" points="165,75 165,55 165,35 135,35 135,55 135,75 	"/>
	<polygon id="XMLID_798_" style="fill:#565659;" points="265,75 265,55 265,35 235,35 235,55 235,75 	"/>
	<rect id="XMLID_799_" x="35" y="135" style="fill:#FFFFFF;" width="60" height="60"/>
	<rect id="XMLID_800_" x="125" y="135" style="fill:#FFFFFF;" width="60" height="60"/>
	<rect id="XMLID_801_" x="215" y="135" style="fill:#FFFFFF;" width="60" height="60"/>
	<rect id="XMLID_802_" x="305" y="135" style="fill:#FFFFFF;" width="60" height="60"/>
	<rect id="XMLID_803_" x="35" y="225" style="fill:#FFFFFF;" width="60" height="60"/>
	<rect id="XMLID_804_" x="125" y="225" style="fill:#FFFFFF;" width="60" height="60"/>
	<rect id="XMLID_805_" x="215" y="225" style="fill:#FFFFFF;" width="60" height="60"/>
	<rect id="XMLID_806_" x="305" y="225" style="fill:#FFFFFF;" width="60" height="60"/>
</g>
<g>
</g>
<g>
</g>
<g>
</g>
<g>
</g>
<g>
</g>
<g>
</g>
<g>
</g>
<g>
</g>
<g>
</g>
<g>
</g>
<g>
</g>
<g>
</g>
<g>
</g>
<g>
</g>
<g>
</g>
</svg>
