<?xml version="1.0" encoding="iso-8859-1"?>
<!-- Generator: Adobe Illustrator 19.0.0, SVG Export Plug-In . SVG Version: 6.00 Build 0)  -->
<svg version="1.1" id="Capa_1" xmlns="http://www.w3.org/2000/svg" xmlns:xlink="http://www.w3.org/1999/xlink" x="0px" y="0px"
	 viewBox="0 0 512 512" style="enable-background:new 0 0 512 512;" xml:space="preserve">
<rect x="248.67" y="264.979" style="fill:#00BB75;" width="167.67" height="179.33"/>
<rect x="336.14" y="264.979" style="fill:#008A56;" width="80.19" height="179.33"/>
<rect x="96.17" y="190.309" style="fill:#95DAF9;" width="159.67" height="254"/>
<rect x="175.69" y="190.309" style="fill:#4EC1F5;" width="80.15" height="254"/>
<path style="fill:#FD0023;" d="M368,239.713c0,17.673-14.327,32-32,32s-32-14.327-32-32s32-53.333,32-53.333S368,222.04,368,239.713
	z"/>
<path style="fill:#DC001E;" d="M336,186.379c0,0,32,35.66,32,53.333s-14.327,32-32,32"/>
<path style="fill:#FFE97F;" d="M336,287.09c-26.124,0-47.377-21.253-47.377-47.377c0-10.917,6.004-24.349,18.894-42.272
	c8.388-11.664,16.689-20.942,17.039-21.332L336,163.356l11.444,12.753c0.35,0.39,8.651,9.667,17.039,21.332
	c12.89,17.923,18.894,31.355,18.894,42.272C383.377,265.836,362.124,287.09,336,287.09z M336,210.58
	c-9.443,12.492-16.525,24.57-16.623,29.141c0,9.158,7.457,16.615,16.623,16.615c9.164,0,16.62-7.454,16.623-16.618
	C352.522,235.145,345.442,223.07,336,210.58z"/>
<path style="fill:#FFDB2D;" d="M364.483,197.441c-8.388-11.664-16.689-20.942-17.039-21.332L336,163.356l-0.333,0.371v47.299
	c0.112-0.149,0.221-0.297,0.333-0.447c9.442,12.491,16.522,24.566,16.623,29.139c-0.003,9.164-7.459,16.618-16.623,16.618
	c-0.112,0-0.222-0.015-0.333-0.017v30.762c0.111,0,0.221,0.008,0.333,0.008c26.124,0,47.377-21.253,47.377-47.377
	C383.377,228.796,377.373,215.364,364.483,197.441z"/>
<g>
	
		<rect x="262.206" y="105.097" transform="matrix(-0.7071 0.7071 -0.7071 -0.7071 558.1412 9.0036)" style="fill:#FFE97F;" width="30" height="30"/>
	
		<rect x="208.882" y="51.527" transform="matrix(-0.7071 0.7071 -0.7071 -0.7071 429.2319 -44.7399)" style="fill:#FFE97F;" width="30" height="30"/>
	
		<rect x="305.118" y="62.193" transform="matrix(-0.7071 0.7071 -0.7071 -0.7071 601.0593 -94.5803)" style="fill:#FFE97F;" width="30" height="30"/>
	<polygon style="fill:#FFE97F;" points="454.334,357.423 454.334,414.312 57.667,414.312 57.667,357.423 0,357.423 0,387.423 
		27.667,387.423 27.667,466.686 484.333,466.686 484.334,387.423 512,387.423 512,357.423 	"/>
</g>
<polygon style="fill:#FFDB2D;" points="454.334,357.423 454.334,414.312 256,414.312 256,466.686 484.333,466.686 484.334,387.423 
	512,387.423 512,357.423 "/>
<path style="fill:#FD0023;" d="M208,165.046c0,17.673-14.327,32-32,32s-32-14.327-32-32s32-53.333,32-53.333
	S208,147.373,208,165.046z"/>
<path style="fill:#DC001E;" d="M176,111.713c0,0,32,35.66,32,53.333s-14.327,32-32,32"/>
<path style="fill:#FFE97F;" d="M176,212.423c-26.124,0-47.377-21.253-47.377-47.376c0-10.917,6.004-24.349,18.894-42.272
	c8.388-11.664,16.689-20.942,17.039-21.332L176,88.689l11.444,12.753c0.35,0.39,8.651,9.667,17.039,21.332
	c12.89,17.923,18.894,31.355,18.894,42.272C223.377,191.17,202.124,212.423,176,212.423z M176,135.913
	c-9.443,12.492-16.525,24.57-16.623,29.141c0,9.158,7.457,16.615,16.623,16.615c9.164,0,16.62-7.453,16.623-16.617
	C192.522,160.479,185.442,148.404,176,135.913z"/>
<path style="fill:#FFDB2D;" d="M204.483,122.774c-8.388-11.664-16.689-20.942-17.039-21.332L176,88.689l-0.333,0.371v47.299
	c0.112-0.149,0.221-0.297,0.333-0.446c9.442,12.491,16.522,24.566,16.623,29.139c-0.003,9.164-7.459,16.617-16.623,16.617
	c-0.112,0-0.222-0.014-0.333-0.017v30.763c0.111,0,0.221,0.008,0.333,0.008c26.124,0,47.377-21.253,47.377-47.376
	C223.377,154.13,217.373,140.697,204.483,122.774z"/>
<g>
</g>
<g>
</g>
<g>
</g>
<g>
</g>
<g>
</g>
<g>
</g>
<g>
</g>
<g>
</g>
<g>
</g>
<g>
</g>
<g>
</g>
<g>
</g>
<g>
</g>
<g>
</g>
<g>
</g>
</svg>
