<?xml version="1.0" encoding="iso-8859-1"?>
<!-- Generator: Adobe Illustrator 19.0.0, SVG Export Plug-In . SVG Version: 6.00 Build 0)  -->
<svg version="1.1" id="Capa_1" xmlns="http://www.w3.org/2000/svg" xmlns:xlink="http://www.w3.org/1999/xlink" x="0px" y="0px"
	 viewBox="0 0 512 512" style="enable-background:new 0 0 512 512;" xml:space="preserve">
<rect x="80.184" y="135.266" transform="matrix(0.568 0.823 -0.823 0.568 180.1009 -42.5966)" style="fill:#B0DBFF;" width="100.888" height="29.998"/>
<rect x="402.74" y="53.976" style="fill:#83C9FF;" width="30" height="288.77"/>
<rect x="55.154" y="93.746" style="fill:#FF3100;" width="117.24" height="30"/>
<g>
	<rect x="113.772" y="93.746" style="fill:#C91C00;" width="58.62" height="30"/>
	
		<rect x="396.276" y="-0.087" transform="matrix(0.5302 0.8479 -0.8479 0.5302 242.4161 -321.4548)" style="fill:#C91C00;" width="30.001" height="116.213"/>
</g>
<path style="fill:#FFA920;" d="M454.66,432.683c-6,17.21-16.6,32.12-30.66,43.11c-15.14,11.84-33.67,18.53-53.58,19.33
	c-15.77,0.64-30.82,1.15-45.14,1.53c-21.24,0.57-40.88,0.85-58.9,0.85c-66.41,0-110.9-3.83-132.76-11.46
	c-39.38-13.73-71.05-41.98-89.18-79.53c-18.13-37.56-20.55-79.93-6.82-119.3c13.74-39.38,41.99-71.05,79.54-89.18
	c37.56-18.13,79.92-20.55,119.3-6.81c5.53,1.93,12.05,4.95,19.54,9.06c35.56,19.49,93.07,63.44,171.53,131.11
	c15.09,13.01,25.44,29.77,29.93,48.46C461.63,397.213,460.66,415.473,454.66,432.683z"/>
<path style="fill:#FF8800;" d="M454.66,432.683c-6,17.21-16.6,32.12-30.66,43.11c-15.14,11.84-33.67,18.53-53.58,19.33
	c-15.77,0.64-30.82,1.15-45.14,1.53H256v-296.37c35.56,19.49,93.07,63.44,171.53,131.11c15.09,13.01,25.44,29.77,29.93,48.46
	C461.63,397.213,460.66,415.473,454.66,432.683z"/>
<rect y="467.506" style="fill:#B0DBFF;" width="512" height="30"/>
<rect x="256" y="467.506" style="fill:#83C9FF;" width="256" height="30"/>
<rect x="185.21" y="368.155" transform="matrix(0.5465 0.8375 -0.8375 0.5465 420.3456 -9.9028)" style="fill:#ADACB2;" width="68.212" height="30.001"/>
<rect x="189.74" y="400.006" style="fill:#FF3100;" width="85.91" height="30"/>
<rect x="232.7" y="400.006" style="fill:#C91C00;" width="42.957" height="30"/>
<path style="fill:#FFDAA8;" d="M177.73,241.423c-36.66,0-66.48,29.82-66.48,66.48c0,36.65,29.82,66.47,66.48,66.47
	c36.65,0,66.47-29.82,66.47-66.47C244.2,271.243,214.38,241.423,177.73,241.423z M177.73,344.373c-20.12,0-36.48-16.36-36.48-36.47
	s16.36-36.48,36.48-36.48c20.11,0,36.47,16.37,36.47,36.48C214.2,328.013,197.84,344.373,177.73,344.373z"/>
<path style="fill:#FFC373;" d="M244.2,307.903c0,36.65-29.82,66.47-66.47,66.47v-30c20.11,0,36.47-16.36,36.47-36.47
	s-16.36-36.48-36.47-36.48v-30C214.38,241.423,244.2,271.243,244.2,307.903z"/>
<g>
</g>
<g>
</g>
<g>
</g>
<g>
</g>
<g>
</g>
<g>
</g>
<g>
</g>
<g>
</g>
<g>
</g>
<g>
</g>
<g>
</g>
<g>
</g>
<g>
</g>
<g>
</g>
<g>
</g>
</svg>
