<?xml version="1.0" encoding="iso-8859-1"?>
<!-- Generator: Adobe Illustrator 18.0.0, SVG Export Plug-In . SVG Version: 6.00 Build 0)  -->
<!DOCTYPE svg PUBLIC "-//W3C//DTD SVG 1.1//EN" "http://www.w3.org/Graphics/SVG/1.1/DTD/svg11.dtd">
<svg version="1.1" id="Capa_1" xmlns="http://www.w3.org/2000/svg" xmlns:xlink="http://www.w3.org/1999/xlink" x="0px" y="0px"
	 viewBox="0 0 60 60" style="enable-background:new 0 0 60 60;" xml:space="preserve">
<g>
	<g>
		<rect x="6" y="13.5" style="fill:#4FBA6F;" width="53" height="28"/>
		<path style="fill:#5E5F62;" d="M60,42.5H5v-30h55V42.5z M7,40.5h51v-26H7V40.5z"/>
	</g>
	<path style="fill:#5E5F62;" d="M6,3.5H1c-0.552,0-1-0.447-1-1s0.448-1,1-1h5c0.552,0,1,0.447,1,1S6.552,3.5,6,3.5z"/>
	<path style="fill:#5E5F62;" d="M6,14.5c-0.552,0-1-0.447-1-1v-11c0-0.553,0.448-1,1-1s1,0.447,1,1v11C7,14.053,6.552,14.5,6,14.5z"
		/>
	<path style="fill:#5E5F62;" d="M6,50.5c-0.552,0-1-0.447-1-1v-8c0-0.553,0.448-1,1-1s1,0.447,1,1v8C7,50.053,6.552,50.5,6,50.5z"/>
	<circle style="fill:#556080;" cx="16" cy="54.5" r="4"/>
	<circle style="fill:#556080;" cx="43" cy="54.5" r="4"/>
	<path style="fill:#5E5F62;" d="M52,50.5H6c-0.552,0-1-0.447-1-1s0.448-1,1-1h46c0.552,0,1,0.447,1,1S52.552,50.5,52,50.5z"/>
</g>
<g>
</g>
<g>
</g>
<g>
</g>
<g>
</g>
<g>
</g>
<g>
</g>
<g>
</g>
<g>
</g>
<g>
</g>
<g>
</g>
<g>
</g>
<g>
</g>
<g>
</g>
<g>
</g>
<g>
</g>
</svg>
