<?xml version="1.0" encoding="iso-8859-1"?>
<!-- Generator: Adobe Illustrator 18.0.0, SVG Export Plug-In . SVG Version: 6.00 Build 0)  -->
<!DOCTYPE svg PUBLIC "-//W3C//DTD SVG 1.1//EN" "http://www.w3.org/Graphics/SVG/1.1/DTD/svg11.dtd">
<svg version="1.1" id="Capa_1" xmlns="http://www.w3.org/2000/svg" xmlns:xlink="http://www.w3.org/1999/xlink" x="0px" y="0px"
	 viewBox="0 0 58 58" style="enable-background:new 0 0 58 58;" xml:space="preserve">
<g>
	<path style="fill:#AA9074;" d="M45.042,6H43v12h-7V6H12.958C9.115,6,6,9.115,6,12.958V40h46V12.958C52,9.115,48.885,6,45.042,6z"/>
	<path style="fill:#54493F;" d="M57.682,55H0.318C0.142,55,0,54.858,0,54.682v-8.364C0,46.142,0.142,46,0.318,46h57.364
		C57.858,46,58,46.142,58,46.318v8.364C58,54.858,57.858,55,57.682,55z"/>
	<path style="fill:#7F6E5D;" d="M57.857,46H0.143c-0.127,0-0.191-0.154-0.101-0.244L5.798,40h46.403l5.756,5.756
		C58.048,45.846,57.984,46,57.857,46z"/>
	<path style="fill:#CBB292;" d="M33,52h-8c-1.654,0-3-1.346-3-3c0-0.553,0.448-1,1-1s1,0.447,1,1c0,0.552,0.449,1,1,1h8
		c0.551,0,1-0.448,1-1c0-0.553,0.448-1,1-1s1,0.447,1,1C36,50.654,34.654,52,33,52z"/>
	<circle style="fill:#54493F;" cx="10" cy="23" r="1"/>
	<circle style="fill:#F3E5D2;" cx="14" cy="23" r="1"/>
	<circle style="fill:#F3E5D2;" cx="14" cy="27" r="1"/>
	<circle style="fill:#54493F;" cx="10" cy="27" r="1"/>
	<circle style="fill:#54493F;" cx="10" cy="31" r="1"/>
	<circle style="fill:#F3E5D2;" cx="14" cy="31" r="1"/>
	<circle style="fill:#F3E5D2;" cx="14" cy="35" r="1"/>
	<circle style="fill:#54493F;" cx="10" cy="35" r="1"/>
	<circle style="fill:#F3E5D2;" cx="18" cy="23" r="1"/>
	<circle style="fill:#F3E5D2;" cx="22" cy="23" r="1"/>
	<circle style="fill:#F3E5D2;" cx="22" cy="27" r="1"/>
	<circle style="fill:#F3E5D2;" cx="18" cy="27" r="1"/>
	<circle style="fill:#F3E5D2;" cx="18" cy="31" r="1"/>
	<circle style="fill:#F3E5D2;" cx="22" cy="31" r="1"/>
	<circle style="fill:#F3E5D2;" cx="22" cy="35" r="1"/>
	<circle style="fill:#F3E5D2;" cx="18" cy="35" r="1"/>
	<circle style="fill:#F3E5D2;" cx="36" cy="23" r="1"/>
	<circle style="fill:#F3E5D2;" cx="40" cy="23" r="1"/>
	<circle style="fill:#F3E5D2;" cx="40" cy="27" r="1"/>
	<circle style="fill:#F3E5D2;" cx="36" cy="27" r="1"/>
	<circle style="fill:#F3E5D2;" cx="36" cy="31" r="1"/>
	<circle style="fill:#F3E5D2;" cx="40" cy="31" r="1"/>
	<circle style="fill:#F3E5D2;" cx="40" cy="35" r="1"/>
	<circle style="fill:#F3E5D2;" cx="36" cy="35" r="1"/>
	<circle style="fill:#F3E5D2;" cx="44" cy="23" r="1"/>
	<circle style="fill:#54493F;" cx="48" cy="23" r="1"/>
	<circle style="fill:#54493F;" cx="48" cy="27" r="1"/>
	<circle style="fill:#F3E5D2;" cx="44" cy="27" r="1"/>
	<circle style="fill:#F3E5D2;" cx="44" cy="31" r="1"/>
	<circle style="fill:#54493F;" cx="48" cy="31" r="1"/>
	<circle style="fill:#54493F;" cx="48" cy="35" r="1"/>
	<circle style="fill:#F3E5D2;" cx="44" cy="35" r="1"/>
	<path style="fill:#FFD16C;" d="M32,24h-6c-0.552,0-1-0.447-1-1s0.448-1,1-1h6c0.552,0,1,0.447,1,1S32.552,24,32,24z"/>
	<path style="fill:#FFD16C;" d="M32,28h-6c-0.552,0-1-0.447-1-1s0.448-1,1-1h6c0.552,0,1,0.447,1,1S32.552,28,32,28z"/>
	<path style="fill:#FFD16C;" d="M32,32h-6c-0.552,0-1-0.447-1-1s0.448-1,1-1h6c0.552,0,1,0.447,1,1S32.552,32,32,32z"/>
	<path style="fill:#FFD16C;" d="M32,36h-6c-0.552,0-1-0.447-1-1s0.448-1,1-1h6c0.552,0,1,0.447,1,1S32.552,36,32,36z"/>
	<rect x="36" y="3" style="fill:#F0EDE0;" width="7" height="15"/>
	<g>
		<path style="fill:#CBB292;" d="M13.927,10C11.758,10,10,11.758,10,13.927V18h26v-8H13.927z"/>
		<path style="fill:#CBB292;" d="M44.073,10H43v8h5v-4.073C48,11.758,46.242,10,44.073,10z"/>
	</g>
	<g>
		<path style="fill:#D4C3A5;" d="M40,14h-1c-0.552,0-1,0.447-1,1s0.448,1,1,1h1c0.552,0,1-0.447,1-1S40.552,14,40,14z"/>
		<path style="fill:#D4C3A5;" d="M40,10h-1c-0.552,0-1,0.447-1,1s0.448,1,1,1h1c0.552,0,1-0.447,1-1S40.552,10,40,10z"/>
		<path style="fill:#D4C3A5;" d="M39,8h1c0.552,0,1-0.447,1-1s-0.448-1-1-1h-1c-0.552,0-1,0.447-1,1S38.448,8,39,8z"/>
	</g>
</g>
<g>
</g>
<g>
</g>
<g>
</g>
<g>
</g>
<g>
</g>
<g>
</g>
<g>
</g>
<g>
</g>
<g>
</g>
<g>
</g>
<g>
</g>
<g>
</g>
<g>
</g>
<g>
</g>
<g>
</g>
</svg>
