<?xml version="1.0" encoding="iso-8859-1"?>
<!-- Generator: Adobe Illustrator 19.0.0, SVG Export Plug-In . SVG Version: 6.00 Build 0)  -->
<svg version="1.1" id="Capa_1" xmlns="http://www.w3.org/2000/svg" xmlns:xlink="http://www.w3.org/1999/xlink" x="0px" y="0px"
	 viewBox="0 0 512 512" style="enable-background:new 0 0 512 512;" xml:space="preserve">
<path style="fill:#DCF4FF;" d="M25,306v30l91,116h110v60h261V296l-90-90l-1.05-10.496C389.441,130.409,365.251,52.335,326,0h-30
	l-50,166l-108.048,33.245c-13.693,4.213-24.326,15.064-28.262,28.839l0,0c-8.657,30.298-30.568,55.047-59.594,67.312L25,306z"/>
<path style="fill:#CCEFFF;" d="M487,296l-90-90l-1.05-10.496C389.441,130.409,365.251,52.335,326,0h-30l-50,166l110.5,286v60H487
	V296z"/>
<circle style="fill:#0A4EAF;" cx="131" cy="246" r="20"/>
<rect x="226" y="452" style="fill:#FF6849;" width="261" height="60"/>
<g>
	<rect x="106" y="301" style="fill:#ACE3FC;" width="140" height="30"/>
	
		<rect x="105.747" y="355.987" transform="matrix(-0.995 -0.0995 0.0995 -0.995 274.3023 755.653)" style="fill:#ACE3FC;" width="100.496" height="29.999"/>
</g>
<rect x="356.5" y="452" style="fill:#FD4B2D;" width="130.5" height="60"/>
<path style="fill:#032E68;" d="M61.076,289.969c-3.531,2.01-7.193,3.827-10.98,5.427L25,306v30l14.383,18.334L61.076,289.969z"/>
<g>
</g>
<g>
</g>
<g>
</g>
<g>
</g>
<g>
</g>
<g>
</g>
<g>
</g>
<g>
</g>
<g>
</g>
<g>
</g>
<g>
</g>
<g>
</g>
<g>
</g>
<g>
</g>
<g>
</g>
</svg>
