<?xml version="1.0" encoding="iso-8859-1"?>
<!-- Generator: Adobe Illustrator 19.0.0, SVG Export Plug-In . SVG Version: 6.00 Build 0)  -->
<svg version="1.1" id="Capa_1" xmlns="http://www.w3.org/2000/svg" xmlns:xlink="http://www.w3.org/1999/xlink" x="0px" y="0px"
	 viewBox="0 0 512 512" style="enable-background:new 0 0 512 512;" xml:space="preserve">
<path style="fill:#FEDBAB;" d="M512,431H0V81h512V431z"/>
<path style="fill:#FEC478;" d="M512,431H256V81h256V431z"/>
<g>
	<path style="fill:#E08344;" d="M256,224.651c-26.556,0-53.112,37.51-53.112,59.751c0,9.167,11.889,16.598,26.556,16.598
		c11.618,0,15.27-4.979,26.556-4.979c11.286,0,14.938,4.979,26.556,4.979c14.667,0,26.556-7.431,26.556-16.598
		C309.112,262.162,282.556,224.651,256,224.651z"/>
	<ellipse style="fill:#E08344;" cx="226.12" cy="174.19" rx="19.917" ry="33.2"/>
</g>
<ellipse style="fill:#D6702B;" cx="285.88" cy="174.19" rx="19.917" ry="33.2"/>
<ellipse transform="matrix(-0.5 -0.866 0.866 -0.5 95.5151 496.9337)" style="fill:#E08344;" cx="191.208" cy="220.894" rx="19.917" ry="13.278"/>
<ellipse transform="matrix(0.5 -0.866 0.866 0.5 -30.9102 388.2499)" style="fill:#D6702B;" cx="320.784" cy="220.894" rx="19.917" ry="13.278"/>
<g>
	<rect x="156" y="331" style="fill:#FEC478;" width="200" height="30"/>
	<path style="fill:#FEC478;" d="M30,326.243v30.628c21.605,5.483,38.645,22.524,44.129,44.129h30.628
		C98.397,362.817,68.183,332.604,30,326.243z"/>
</g>
<path style="fill:#FEA832;" d="M482,326.243c-38.183,6.36-68.397,36.574-74.757,74.757h30.628
	c5.483-21.605,22.524-38.646,44.129-44.129L482,326.243L482,326.243z"/>
<path style="fill:#FEC478;" d="M30,185.757c38.183-6.36,68.397-36.574,74.757-74.757H74.129
	C68.645,132.605,51.605,149.646,30,155.129V185.757z"/>
<path style="fill:#FEA832;" d="M437.871,111h-30.628c6.36,38.183,36.574,68.396,74.757,74.757v-30.628
	C460.395,149.646,443.355,132.605,437.871,111z"/>
<path style="fill:#D6702B;" d="M256,296.021c11.286,0,14.938,4.979,26.556,4.979c14.667,0,26.556-7.431,26.556-16.598
	c0-22.241-26.556-59.751-53.112-59.751V296.021z"/>
<rect x="256" y="331" style="fill:#FEA832;" width="100" height="30"/>
<g>
</g>
<g>
</g>
<g>
</g>
<g>
</g>
<g>
</g>
<g>
</g>
<g>
</g>
<g>
</g>
<g>
</g>
<g>
</g>
<g>
</g>
<g>
</g>
<g>
</g>
<g>
</g>
<g>
</g>
</svg>
