<?xml version="1.0" encoding="iso-8859-1"?>
<!-- Generator: Adobe Illustrator 19.0.0, SVG Export Plug-In . SVG Version: 6.00 Build 0)  -->
<svg version="1.1" id="Capa_1" xmlns="http://www.w3.org/2000/svg" xmlns:xlink="http://www.w3.org/1999/xlink" x="0px" y="0px"
	 viewBox="0 0 512 512" style="enable-background:new 0 0 512 512;" xml:space="preserve">
<path style="fill:#26D4F8;" d="M266.146,154.952C215.851,108.762,163.843,61,60,61v270h392v-90
	C359.843,241,314.331,199.203,266.146,154.952z"/>
<polygon style="fill:#EB7330;" points="512,451 482,451 482,406 512,421 "/>
<path style="fill:#1B94AD;" d="M512,301c0-33.084-26.916-60-60-60H271l-60,150l301-60V301z"/>
<path style="fill:#21B4D3;" d="M180,241c-33.084,0-60,26.916-60,60v30l151,60V241H180z"/>
<path style="fill:#1B94AD;" d="M60,61C26.916,61,0,87.916,0,121c0,21.306,11.005,38.028,30,46.508V331l90,30V121
	C120,87.916,93.084,61,60,61z"/>
<g>
	<polygon style="fill:#F9963B;" points="60,451 30,451 30,421 60,406 	"/>
	<polygon style="fill:#F9963B;" points="271,421 512,421 512,391 211,361 	"/>
</g>
<polygon style="fill:#FCBA66;" points="30,391 30,421 271,421 271,361 "/>
<polygon style="fill:#355669;" points="271,331 241,361 271,391 512,391 512,331 "/>
<rect x="30" y="331" style="fill:#267083;" width="241" height="60"/>
<g>
</g>
<g>
</g>
<g>
</g>
<g>
</g>
<g>
</g>
<g>
</g>
<g>
</g>
<g>
</g>
<g>
</g>
<g>
</g>
<g>
</g>
<g>
</g>
<g>
</g>
<g>
</g>
<g>
</g>
</svg>
