<?xml version="1.0" encoding="iso-8859-1"?>
<!-- Generator: Adobe Illustrator 19.0.0, SVG Export Plug-In . SVG Version: 6.00 Build 0)  -->
<svg version="1.1" id="Capa_1" xmlns="http://www.w3.org/2000/svg" xmlns:xlink="http://www.w3.org/1999/xlink" x="0px" y="0px"
	 viewBox="0 0 512 512" style="enable-background:new 0 0 512 512;" xml:space="preserve">
<g>
	<polygon style="fill:#267083;" points="482,467 482,512 452,512 452,437 	"/>
	<polygon style="fill:#267083;" points="482,107 482,227 196,287 256,107 	"/>
</g>
<polygon style="fill:#1B94AD;" points="256,107 256,287 30,227 30,107 "/>
<polygon style="fill:#26D4F8;" points="482,227 482,347 196,407 256,227 "/>
<polygon style="fill:#7DE5FB;" points="256,227 256,407 30,347 30,227 "/>
<path style="fill:#FEDD90;" d="M437,30H256l-60,75h286V75C482,50.25,461.75,30,437,30z"/>
<path style="fill:#FFF2A3;" d="M75,30c-24.75,0-45,20.25-45,45v30h226V30H75z"/>
<path style="fill:#D4F6FE;" d="M422,167H316c-16.569,0-30,13.431-30,30s13.431,30,30,30h106c16.569,0,30-13.431,30-30
	S438.569,167,422,167z"/>
<path style="fill:#FFFFFF;" d="M196,167H90c-16.569,0-30,13.431-30,30s13.431,30,30,30h106c16.569,0,30-13.431,30-30
	S212.569,167,196,167z"/>
<polygon style="fill:#21B4D3;" points="482,347 482,467 256,467 191,407 256,347 "/>
<polygon style="fill:#1B94AD;" points="30,467 30,512 60,512 60,437 "/>
<rect x="30" y="347" style="fill:#26D4F8;" width="226" height="120"/>
<polygon style="fill:#1B94AD;" points="286,272 256,272 236,287 256,302 286,302 "/>
<rect x="226" y="272" style="fill:#21B4D3;" width="30" height="30"/>
<polygon style="fill:#267083;" points="286,392 256,392 236,407 256,422 286,422 "/>
<rect x="226" y="392" style="fill:#1B94AD;" width="30" height="30"/>
<polygon style="fill:#26D4F8;" points="482,0 482,92 256,92 226,107 256,122 512,122 512,0 "/>
<polygon style="fill:#7DE5FB;" points="30,92 30,0 0,0 0,122 256,122 256,92 "/>
<g>
</g>
<g>
</g>
<g>
</g>
<g>
</g>
<g>
</g>
<g>
</g>
<g>
</g>
<g>
</g>
<g>
</g>
<g>
</g>
<g>
</g>
<g>
</g>
<g>
</g>
<g>
</g>
<g>
</g>
</svg>
