<?xml version="1.0" encoding="iso-8859-1"?>
<!-- Generator: Adobe Illustrator 19.0.0, SVG Export Plug-In . SVG Version: 6.00 Build 0)  -->
<svg version="1.1" id="Capa_1" xmlns="http://www.w3.org/2000/svg" xmlns:xlink="http://www.w3.org/1999/xlink" x="0px" y="0px"
	 viewBox="0 0 58 58" style="enable-background:new 0 0 58 58;" xml:space="preserve">
<path style="fill:#38454F;" d="M54.974,43.555H3.026C1.355,43.555,0,42.2,0,40.529v-5.949c0-1.671,1.355-3.026,3.026-3.026h51.949
	c1.671,0,3.026,1.355,3.026,3.026v5.949C58,42.2,56.645,43.555,54.974,43.555z"/>
<path style="fill:#283238;" d="M55,31.555H3l4.545-3.636c0.294-0.235,0.66-0.364,1.037-0.364h40.835
	c0.377,0,0.743,0.128,1.037,0.364L55,31.555z"/>
<path style="fill:#283238;" d="M3,43.555h52l-4.545,3.636c-0.294,0.235-0.66,0.364-1.037,0.364H8.582
	c-0.377,0-0.743-0.128-1.037-0.364L3,43.555z"/>
<g>
	<path style="fill:#546A79;" d="M8,34.555H5c-0.552,0-1,0.447-1,1s0.448,1,1,1h3c0.552,0,1-0.447,1-1S8.552,34.555,8,34.555z"/>
	<path style="fill:#546A79;" d="M8,38.555H5c-0.552,0-1,0.447-1,1s0.448,1,1,1h3c0.552,0,1-0.447,1-1S8.552,38.555,8,38.555z"/>
	<path style="fill:#546A79;" d="M15,34.555h-3c-0.552,0-1,0.447-1,1s0.448,1,1,1h3c0.552,0,1-0.447,1-1S15.552,34.555,15,34.555z"/>
	<path style="fill:#546A79;" d="M15,38.555h-3c-0.552,0-1,0.447-1,1s0.448,1,1,1h3c0.552,0,1-0.447,1-1S15.552,38.555,15,38.555z"/>
	<path style="fill:#546A79;" d="M19,36.555h3c0.552,0,1-0.447,1-1s-0.448-1-1-1h-3c-0.552,0-1,0.447-1,1S18.448,36.555,19,36.555z"
		/>
	<path style="fill:#546A79;" d="M22,38.555h-3c-0.552,0-1,0.447-1,1s0.448,1,1,1h3c0.552,0,1-0.447,1-1S22.552,38.555,22,38.555z"/>
</g>
<path style="fill:#38454F;" d="M54.974,23.555H3.026C1.355,23.555,0,22.2,0,20.529v-5.949c0-1.671,1.355-3.026,3.026-3.026h51.949
	c1.671,0,3.026,1.355,3.026,3.026v5.949C58,22.2,56.645,23.555,54.974,23.555z"/>
<path style="fill:#283238;" d="M55,11.555H3l4.545-3.636c0.294-0.235,0.66-0.364,1.037-0.364h40.835
	c0.377,0,0.743,0.128,1.037,0.364L55,11.555z"/>
<path style="fill:#1A2530;" d="M3,23.555h52l-4.545,3.636c-0.294,0.235-0.66,0.364-1.037,0.364H8.582
	c-0.377,0-0.743-0.128-1.037-0.364L3,23.555z"/>
<path style="fill:#546A79;" d="M8,16.555H5c-0.552,0-1-0.447-1-1s0.448-1,1-1h3c0.552,0,1,0.447,1,1S8.552,16.555,8,16.555z"/>
<path style="fill:#546A79;" d="M8,20.555H5c-0.552,0-1-0.447-1-1s0.448-1,1-1h3c0.552,0,1,0.447,1,1S8.552,20.555,8,20.555z"/>
<path style="fill:#546A79;" d="M15,16.555h-3c-0.552,0-1-0.447-1-1s0.448-1,1-1h3c0.552,0,1,0.447,1,1S15.552,16.555,15,16.555z"/>
<path style="fill:#546A79;" d="M15,20.555h-3c-0.552,0-1-0.447-1-1s0.448-1,1-1h3c0.552,0,1,0.447,1,1S15.552,20.555,15,20.555z"/>
<path style="fill:#546A79;" d="M22,16.555h-3c-0.552,0-1-0.447-1-1s0.448-1,1-1h3c0.552,0,1,0.447,1,1S22.552,16.555,22,16.555z"/>
<path style="fill:#546A79;" d="M22,20.555h-3c-0.552,0-1-0.447-1-1s0.448-1,1-1h3c0.552,0,1,0.447,1,1S22.552,20.555,22,20.555z"/>
<g>
	<circle style="fill:#546A79;" cx="30" cy="34.555" r="1"/>
	<circle style="fill:#546A79;" cx="30" cy="40.555" r="1"/>
	<circle style="fill:#546A79;" cx="32" cy="37.555" r="1"/>
	<circle style="fill:#546A79;" cx="34" cy="34.555" r="1"/>
	<circle style="fill:#546A79;" cx="34" cy="40.555" r="1"/>
	<circle style="fill:#546A79;" cx="36" cy="37.555" r="1"/>
	<circle style="fill:#546A79;" cx="38" cy="34.555" r="1"/>
	<circle style="fill:#546A79;" cx="38" cy="40.555" r="1"/>
	<circle style="fill:#546A79;" cx="30" cy="14.555" r="1"/>
	<circle style="fill:#546A79;" cx="30" cy="20.555" r="1"/>
	<circle style="fill:#546A79;" cx="32" cy="17.555" r="1"/>
	<circle style="fill:#546A79;" cx="34" cy="14.555" r="1"/>
	<circle style="fill:#546A79;" cx="34" cy="20.555" r="1"/>
	<circle style="fill:#546A79;" cx="36" cy="17.555" r="1"/>
	<circle style="fill:#546A79;" cx="38" cy="14.555" r="1"/>
	<circle style="fill:#546A79;" cx="38" cy="20.555" r="1"/>
</g>
<path style="fill:#28384C;" d="M16.11,50.445H9.89c-0.491,0-0.89-0.398-0.89-0.89v-2h8v2C17,50.047,16.602,50.445,16.11,50.445z"/>
<path style="fill:#28384C;" d="M48.11,50.445h-6.22c-0.491,0-0.89-0.398-0.89-0.89v-2h8v2C49,50.047,48.602,50.445,48.11,50.445z"/>
<circle style="fill:#283238;" cx="51" cy="17.555" r="3"/>
<circle style="fill:#81EA1C;" cx="51" cy="17.555" r="2"/>
<circle style="fill:#283238;" cx="51" cy="37.555" r="3"/>
<circle style="fill:#81EA1C;" cx="51" cy="37.555" r="2"/>
<g>
</g>
<g>
</g>
<g>
</g>
<g>
</g>
<g>
</g>
<g>
</g>
<g>
</g>
<g>
</g>
<g>
</g>
<g>
</g>
<g>
</g>
<g>
</g>
<g>
</g>
<g>
</g>
<g>
</g>
</svg>
