<?xml version="1.0" encoding="iso-8859-1"?>
<!-- Generator: Adobe Illustrator 19.0.0, SVG Export Plug-In . SVG Version: 6.00 Build 0)  -->
<svg version="1.1" id="Capa_1" xmlns="http://www.w3.org/2000/svg" xmlns:xlink="http://www.w3.org/1999/xlink" x="0px" y="0px"
	 viewBox="0 0 512 512" style="enable-background:new 0 0 512 512;" xml:space="preserve">
<polygon style="fill:#907154;" points="452,512 482,512 482,435 452,405 "/>
<polygon style="fill:#FCBA66;" points="482,15 204,15 204,228.02 256,435 482,435 482,300 354.498,228.02 482,165 "/>
<polygon style="fill:#AC8C63;" points="60,512 30,512 30,435 60,405 "/>
<polygon style="fill:#FFF2A3;" points="30,15 30,165 150.5,232.5 30,300 30,435 256,435 256,15 "/>
<polygon style="fill:#F9963B;" points="482,165 482,300 256,300 206,232.5 256,165 "/>
<rect x="30" y="165" style="fill:#FCBA66;" width="226" height="135"/>
<polygon style="fill:#907154;" points="512,30 512,0 256,0 236,15 256,30 "/>
<rect style="fill:#AC8C63;" width="256" height="30"/>
<polygon style="fill:#EB7330;" points="301,247.5 301,217.5 256,217.5 236,232.5 256,247.5 "/>
<g>
	<rect x="211" y="217.5" style="fill:#F9963B;" width="45" height="30"/>
	<polygon style="fill:#F9963B;" points="301,112.5 301,82.5 256,82.5 236,97.5 256,112.5 	"/>
</g>
<rect x="211" y="82.5" style="fill:#FCBA66;" width="45" height="30"/>
<polygon style="fill:#F9963B;" points="301,382.5 301,352.5 256,352.5 236,367.5 256,382.5 "/>
<rect x="211" y="352.5" style="fill:#FCBA66;" width="45" height="30"/>
<g>
</g>
<g>
</g>
<g>
</g>
<g>
</g>
<g>
</g>
<g>
</g>
<g>
</g>
<g>
</g>
<g>
</g>
<g>
</g>
<g>
</g>
<g>
</g>
<g>
</g>
<g>
</g>
<g>
</g>
</svg>
