<?xml version="1.0" encoding="iso-8859-1"?>
<!-- Generator: Adobe Illustrator 19.0.0, SVG Export Plug-In . SVG Version: 6.00 Build 0)  -->
<svg version="1.1" id="Capa_1" xmlns="http://www.w3.org/2000/svg" xmlns:xlink="http://www.w3.org/1999/xlink" x="0px" y="0px"
	 viewBox="0 0 512 512" style="enable-background:new 0 0 512 512;" xml:space="preserve">
<polygon style="fill:#57555C;" points="325.002,292.667 325.002,308 290.373,308 290.373,338 325.002,338 325.002,353 355.002,353 
	355.002,292.667 "/>
<polygon style="fill:#D8D8DA;" points="314.672,45.82 314.672,75.82 271.002,75.82 271.002,270.51 241.002,270.51 241.002,75.82 
	197.332,75.82 197.332,45.82 241.002,45.82 241.002,0 271.002,0 271.002,45.82 "/>
<polygon style="fill:#C7C5CC;" points="271.002,270.51 256.002,270.51 256.002,0 271.002,0 271.002,45.82 314.672,45.82 
	314.672,75.82 271.002,75.82 "/>
<rect x="206.632" y="255.51" style="fill:#ADACB2;" width="98.74" height="256.49"/>
<rect x="256.002" y="255.51" style="fill:#8A8891;" width="49.37" height="256.49"/>
<rect x="55.858" y="13.189" style="fill:#FF3100;" width="160.37" height="94.4"/>
<rect x="295.772" y="13.189" style="fill:#C91C00;" width="160.37" height="94.4"/>
<polygon style="fill:#D8D8DA;" points="434.552,421.35 434.552,512 404.552,512 404.552,451.35 107.452,451.35 107.452,511.99 
	77.452,511.99 77.452,421.35 "/>
<rect x="185.502" y="482" style="fill:#78777F;" width="141" height="30"/>
<rect x="256.002" y="482" style="fill:#57555C;" width="70.5" height="30"/>
<polygon style="fill:#C7C5CC;" points="434.552,421.35 434.552,512 404.552,512 404.552,451.35 256.002,451.35 256.002,421.35 "/>
<g>
</g>
<g>
</g>
<g>
</g>
<g>
</g>
<g>
</g>
<g>
</g>
<g>
</g>
<g>
</g>
<g>
</g>
<g>
</g>
<g>
</g>
<g>
</g>
<g>
</g>
<g>
</g>
<g>
</g>
</svg>
