<?xml version="1.0" encoding="iso-8859-1"?>
<!-- Generator: Adobe Illustrator 19.0.0, SVG Export Plug-In . SVG Version: 6.00 Build 0)  -->
<svg version="1.1" id="Capa_1" xmlns="http://www.w3.org/2000/svg" xmlns:xlink="http://www.w3.org/1999/xlink" x="0px" y="0px"
	 viewBox="0 0 58 58" style="enable-background:new 0 0 58 58;" xml:space="preserve">
<path style="fill:#283238;" d="M0,38.421V19.579C0,17.602,1.602,16,3.579,16h50.842C56.398,16,58,17.602,58,19.579v18.842
	C58,40.398,56.398,42,54.421,42H3.579C1.602,42,0,40.398,0,38.421z"/>
<path style="fill:#546A79;stroke:#E7ECED;stroke-width:2;stroke-linecap:round;stroke-miterlimit:10;" d="M52.851,39H5.149
	C3.962,39,3,38.038,3,36.851V21.149C3,19.962,3.962,19,5.149,19h47.702C54.038,19,55,19.962,55,21.149v15.702
	C55,38.038,54.038,39,52.851,39z"/>
<path style="fill:#E7ECED;" d="M50,28h-4v-4c0-0.553-0.448-1-1-1s-1,0.447-1,1v4h-4c-0.552,0-1,0.447-1,1s0.448,1,1,1h4v4
	c0,0.553,0.448,1,1,1s1-0.447,1-1v-4h4c0.552,0,1-0.447,1-1S50.552,28,50,28z"/>
<rect x="39" y="23" style="fill:#E7ECED;" width="3" height="3"/>
<rect x="48" y="23" style="fill:#E7ECED;" width="3" height="3"/>
<rect x="48" y="32" style="fill:#E7ECED;" width="3" height="3"/>
<rect x="39" y="32" style="fill:#E7ECED;" width="3" height="3"/>
<rect x="32" y="24" style="fill:#E7ECED;" width="3" height="3"/>
<rect x="26" y="24" style="fill:#E7ECED;" width="3" height="3"/>
<rect x="20" y="24" style="fill:#E7ECED;" width="3" height="3"/>
<rect x="32" y="31" style="fill:#E7ECED;" width="3" height="3"/>
<rect x="26" y="31" style="fill:#E7ECED;" width="3" height="3"/>
<rect x="20" y="31" style="fill:#E7ECED;" width="3" height="3"/>
<rect x="14" y="24" style="fill:#E7ECED;" width="3" height="3"/>
<rect x="8" y="24" style="fill:#E7ECED;" width="3" height="3"/>
<rect x="14" y="31" style="fill:#E7ECED;" width="3" height="3"/>
<rect x="8" y="31" style="fill:#E7ECED;" width="3" height="3"/>
<g>
</g>
<g>
</g>
<g>
</g>
<g>
</g>
<g>
</g>
<g>
</g>
<g>
</g>
<g>
</g>
<g>
</g>
<g>
</g>
<g>
</g>
<g>
</g>
<g>
</g>
<g>
</g>
<g>
</g>
</svg>
