<?xml version="1.0" encoding="iso-8859-1"?>
<!-- Generator: Adobe Illustrator 19.0.0, SVG Export Plug-In . SVG Version: 6.00 Build 0)  -->
<svg version="1.1" id="Capa_1" xmlns="http://www.w3.org/2000/svg" xmlns:xlink="http://www.w3.org/1999/xlink" x="0px" y="0px"
	 viewBox="0 0 512.002 512.002" style="enable-background:new 0 0 512.002 512.002;" xml:space="preserve">
<polygon style="fill:#DD8500;" points="298.166,0 213.836,0 172.452,31.039 189.481,111.767 322.521,111.767 339.55,31.039 "/>
<polygon style="fill:#A86500;" points="172.452,31.039 189.481,111.767 322.521,111.767 339.55,31.039 "/>
<polygon style="fill:#7C4B00;" points="256.001,31.039 256.001,111.767 322.521,111.767 339.55,31.039 "/>
<polygon style="fill:#DD8500;" points="326.557,92.484 185.445,92.484 147.11,121.236 168.89,224.491 343.112,224.491 
	364.892,121.236 "/>
<polygon style="fill:#A86500;" points="303.014,121.236 303.014,181.383 273.006,181.383 273.006,121.236 147.11,121.236 
	168.89,224.491 343.112,224.491 364.892,121.236 "/>
<polygon style="fill:#7C4B00;" points="303.014,121.236 303.014,181.383 273.006,181.383 273.006,121.236 256.001,121.236 
	256.001,224.491 343.112,224.491 364.892,121.236 "/>
<polygon style="fill:#DD8500;" points="346.756,206.64 165.246,206.64 114.169,244.949 142.124,377.485 369.877,377.485 
	397.833,244.949 "/>
<polygon style="fill:#A86500;" points="217.657,244.949 217.657,309.419 187.649,309.419 187.649,244.949 114.169,244.949 
	142.124,377.485 369.877,377.485 397.833,244.949 "/>
<polygon style="fill:#7C4B00;" points="256.001,244.949 256.001,377.485 369.877,377.485 397.833,244.949 "/>
<rect x="119.464" y="348.327" style="fill:#B8E6FB;" width="273.076" height="163.675"/>
<rect x="256.002" y="348.327" style="fill:#95DAF9;" width="136.538" height="163.675"/>
<rect x="119.464" y="415.165" style="fill:#FFE97F;" width="273.076" height="30.008"/>
<rect x="256.002" y="415.165" style="fill:#FFDB2D;" width="136.538" height="30.008"/>
<g>
</g>
<g>
</g>
<g>
</g>
<g>
</g>
<g>
</g>
<g>
</g>
<g>
</g>
<g>
</g>
<g>
</g>
<g>
</g>
<g>
</g>
<g>
</g>
<g>
</g>
<g>
</g>
<g>
</g>
</svg>
