<?xml version="1.0" encoding="iso-8859-1"?>
<!-- Generator: Adobe Illustrator 19.0.0, SVG Export Plug-In . SVG Version: 6.00 Build 0)  -->
<svg version="1.1" id="Capa_1" xmlns="http://www.w3.org/2000/svg" xmlns:xlink="http://www.w3.org/1999/xlink" x="0px" y="0px"
	 viewBox="0 0 320 320" style="enable-background:new 0 0 320 320;" xml:space="preserve">
<g id="XMLID_3_">
	<path id="XMLID_1462_" style="fill:#FF5023;" d="M160,60V0C71.635,0,0,71.635,0,160h60C60,104.771,104.771,60,160,60z"/>
	<path id="XMLID_1463_" style="fill:#FFDA44;" d="M60,160H0c0,88.365,71.635,160,160,160v-60C104.771,260,60,215.227,60,160z"/>
	<path id="XMLID_1464_" style="fill:#FF9811;" d="M260,160c0,55.227-44.772,100-100,100v60c88.365,0,160-71.635,160-160H260z"/>
	<path id="XMLID_1465_" style="fill:#D80027;" d="M260,160h60C320,71.635,248.365,0,160,0v60C215.228,60,260,104.771,260,160z"/>
	<rect id="XMLID_1466_" x="160" y="115" style="fill:#ACABB1;" width="40" height="30"/>
	<rect id="XMLID_1467_" x="160" y="175" style="fill:#ACABB1;" width="60" height="30"/>
	<rect id="XMLID_1468_" x="120" y="115" style="fill:#CDCDD0;" width="40" height="30"/>
	<rect id="XMLID_1469_" x="100" y="175" style="fill:#CDCDD0;" width="60" height="30"/>
</g>
<g>
</g>
<g>
</g>
<g>
</g>
<g>
</g>
<g>
</g>
<g>
</g>
<g>
</g>
<g>
</g>
<g>
</g>
<g>
</g>
<g>
</g>
<g>
</g>
<g>
</g>
<g>
</g>
<g>
</g>
</svg>
