<?xml version="1.0" encoding="iso-8859-1"?>
<!-- Generator: Adobe Illustrator 19.0.0, SVG Export Plug-In . SVG Version: 6.00 Build 0)  -->
<svg version="1.1" id="Capa_1" xmlns="http://www.w3.org/2000/svg" xmlns:xlink="http://www.w3.org/1999/xlink" x="0px" y="0px"
	 viewBox="0 0 512 512" style="enable-background:new 0 0 512 512;" xml:space="preserve">
<path style="fill:#00C3FF;" d="M432.575,130h-113.15l13-130h87.149L432.575,130z"/>
<polygon style="fill:#00AAF0;" points="376,130 432.575,130 419.575,0 376,0 "/>
<path style="fill:#CCEFFF;" d="M501,512H251V100h250V512z"/>
<path style="fill:#ACE3FC;" d="M501,512H376V100h125V512z"/>
<path style="fill:#D6702B;" d="M151.115,459.543L151.115,459.543C141.127,434.073,141,406.957,141,379.599V330H91v49.599
	c0,27.358-0.127,54.475-10.115,79.945l0,0C71.354,483.848,96.083,512,116,512l0,0l0,0C136.083,512,160.646,483.848,151.115,459.543z
	"/>
<path style="fill:#BF6015;" d="M151.115,459.543L151.115,459.543C141.127,434.073,141,406.957,141,379.599V330h-24.995v182
	C136.087,511.995,160.645,483.846,151.115,459.543z"/>
<path style="fill:#E08344;" d="M116,350c-58.878,0-105-76.869-105-175S57.122,0,116,0s105,76.869,105,175S174.878,350,116,350z"/>
<path style="fill:#D6702B;" d="M116,0v350c58.878,0,105-76.869,105-175S174.878,0,116,0z"/>
<path style="fill:#FEDBAB;" d="M116,30c-18.383,0-36.341,13.927-50.566,39.217C49.678,97.229,41,134.796,41,175
	s8.678,77.771,24.434,105.783C79.659,306.073,97.617,320,116,320s36.341-13.927,50.566-39.217C182.322,252.771,191,215.204,191,175
	s-8.678-77.771-24.434-105.783C152.341,43.927,134.383,30,116,30z"/>
<path style="fill:#FEC478;" d="M166.566,69.217C152.342,43.93,134.386,30.002,116.005,30v290
	c18.381-0.002,36.337-13.93,50.561-39.217C182.322,252.771,191,215.204,191,175S182.322,97.229,166.566,69.217z"/>
<rect x="251" y="216" style="fill:#00C3FF;" width="250" height="180"/>
<circle style="fill:#FEC478;" cx="81" cy="175" r="20"/>
<circle style="fill:#FEA832;" cx="151" cy="175" r="20"/>
<circle style="fill:#FEC478;" cx="86" cy="105" r="20"/>
<circle style="fill:#FEA832;" cx="146" cy="105" r="20"/>
<circle style="fill:#FEC478;" cx="86" cy="245" r="20"/>
<circle style="fill:#FEA832;" cx="146" cy="245" r="20"/>
<rect x="376" y="216" style="fill:#00AAF0;" width="125" height="180"/>
<g>
</g>
<g>
</g>
<g>
</g>
<g>
</g>
<g>
</g>
<g>
</g>
<g>
</g>
<g>
</g>
<g>
</g>
<g>
</g>
<g>
</g>
<g>
</g>
<g>
</g>
<g>
</g>
<g>
</g>
</svg>
