<?xml version="1.0" encoding="iso-8859-1"?>
<!-- Generator: Adobe Illustrator 19.0.0, SVG Export Plug-In . SVG Version: 6.00 Build 0)  -->
<svg version="1.1" id="Capa_1" xmlns="http://www.w3.org/2000/svg" xmlns:xlink="http://www.w3.org/1999/xlink" x="0px" y="0px"
	 viewBox="0 0 512 512" style="enable-background:new 0 0 512 512;" xml:space="preserve">
<g>
	<rect x="211.031" style="fill:#0A4EAF;" width="29.981" height="95.938"/>
	<rect x="151.07" style="fill:#0A4EAF;" width="29.981" height="95.938"/>
</g>
<g>
	<rect x="270.992" style="fill:#063E8B;" width="29.981" height="95.938"/>
	<rect x="330.953" style="fill:#063E8B;" width="29.981" height="95.938"/>
</g>
<path style="fill:#CCEFFF;" d="M255.998,512c-57.859,0-104.932-47.072-104.932-104.932V255.834c0-8.266-6.725-14.99-14.99-14.99
	h-14.99V80.947h269.824v159.896h-14.99c-8.266,0-14.99,6.725-14.99,14.99v151.235C360.93,464.929,313.858,512,255.998,512z"/>
<path style="fill:#ACE3FC;" d="M255.998,80.947V512c57.859,0,104.932-47.072,104.932-104.932V255.834
	c0-8.266,6.725-14.99,14.99-14.99h14.99V80.947H255.998z"/>
<rect x="121.089" y="140.908" style="fill:#0A4EAF;" width="269.824" height="29.981"/>
<path style="fill:#ACE3FC;" d="M255.998,310.798c-24.797,0-44.971-20.174-44.971-44.971c0-24.797,20.174-44.971,44.971-44.971
	s44.971,20.174,44.971,44.971C300.969,290.624,280.795,310.798,255.998,310.798z M255.998,250.837c-8.266,0-14.99,6.725-14.99,14.99
	c0,8.266,6.725,14.99,14.99,14.99c8.266,0,14.99-6.725,14.99-14.99C270.989,257.561,264.264,250.837,255.998,250.837z"/>
<circle style="fill:#FF6849;" cx="256.001" cy="405.736" r="19.987"/>
<rect x="256.001" y="140.908" style="fill:#063E8B;" width="134.912" height="29.981"/>
<path style="fill:#86D6F2;" d="M255.998,220.856v29.98c8.266,0,14.99,6.725,14.99,14.99c0,8.266-6.725,14.99-14.99,14.99v29.98
	c24.797,0,44.971-20.174,44.971-44.971C300.969,241.03,280.795,220.856,255.998,220.856z"/>
<g>
</g>
<g>
</g>
<g>
</g>
<g>
</g>
<g>
</g>
<g>
</g>
<g>
</g>
<g>
</g>
<g>
</g>
<g>
</g>
<g>
</g>
<g>
</g>
<g>
</g>
<g>
</g>
<g>
</g>
</svg>
