<?xml version="1.0" encoding="iso-8859-1"?>
<!-- Generator: Adobe Illustrator 19.0.0, SVG Export Plug-In . SVG Version: 6.00 Build 0)  -->
<svg version="1.1" id="Capa_1" xmlns="http://www.w3.org/2000/svg" xmlns:xlink="http://www.w3.org/1999/xlink" x="0px" y="0px"
	 viewBox="0 0 512 512" style="enable-background:new 0 0 512 512;" xml:space="preserve">
<path style="fill:#A0D6F3;" d="M296.04,236.945c0,41.733-33.959,75.692-75.692,75.692H65.698C29.477,312.637,0,283.169,0,246.94
	c0-35.617,28.481-64.702,63.861-65.673c0.972-43.945,37.021-79.399,81.196-79.399h0.31c36.63,0.139,68.351,24.978,77.946,59.435
	C263.681,162.87,296.04,196.193,296.04,236.945z"/>
<path style="fill:#4CB8EA;" d="M296.04,236.945c0,41.733-33.959,75.692-75.692,75.692h-74.982v-210.77
	c36.63,0.139,68.351,24.978,77.946,59.435C263.681,162.87,296.04,196.193,296.04,236.945z"/>
<path style="fill:#A0D6F3;" d="M512,321.396c0,48.925-39.812,88.737-88.737,88.737H241.96c-42.464,0-77.02-34.547-77.02-77.02
	c0-41.755,33.389-75.852,74.867-76.991c1.139-51.519,43.402-93.083,95.189-93.083h0.364c42.942,0.163,80.131,29.282,91.379,69.678
	C474.064,234.554,512,273.62,512,321.396z"/>
<path style="fill:#4CB8EA;" d="M512,321.396c0,48.925-39.812,88.737-88.737,88.737h-87.904V163.038
	c42.942,0.163,80.131,29.282,91.379,69.678C474.064,234.554,512,273.62,512,321.396z"/>
<g>
</g>
<g>
</g>
<g>
</g>
<g>
</g>
<g>
</g>
<g>
</g>
<g>
</g>
<g>
</g>
<g>
</g>
<g>
</g>
<g>
</g>
<g>
</g>
<g>
</g>
<g>
</g>
<g>
</g>
</svg>
