<?xml version="1.0" encoding="iso-8859-1"?>
<!-- Generator: Adobe Illustrator 19.0.0, SVG Export Plug-In . SVG Version: 6.00 Build 0)  -->
<svg version="1.1" id="Capa_1" xmlns="http://www.w3.org/2000/svg" xmlns:xlink="http://www.w3.org/1999/xlink" x="0px" y="0px"
	 viewBox="0 0 512 512" style="enable-background:new 0 0 512 512;" xml:space="preserve">
<circle style="fill:#FFF8D5;" cx="347.982" cy="125.641" r="61.381"/>
<g>
	<path style="fill:#FFE97F;" d="M347.98,64.261c33.897,0,61.376,27.479,61.376,61.377s-27.478,61.377-61.376,61.377"/>
	<path style="fill:#FFE97F;" d="M347.98,202.386c-42.319,0-76.748-34.429-76.748-76.748S305.661,48.89,347.98,48.89
		c42.32,0,76.749,34.429,76.749,76.748S390.299,202.386,347.98,202.386z M347.98,79.633c-25.366,0-46.004,20.638-46.004,46.005
		s20.638,46.005,46.004,46.005c25.367,0,46.005-20.638,46.005-46.005S373.347,79.633,347.98,79.633z"/>
</g>
<path style="fill:#FFDB2D;" d="M347.98,48.889c-0.203,0-0.203,30.744,0,30.744c25.367,0,46.005,20.638,46.005,46.005
	s-20.638,46.004-46.005,46.004c-0.203,0-0.203,30.744,0,30.744c42.32,0,76.749-34.429,76.749-76.748
	C424.729,83.318,390.299,48.889,347.98,48.889z"/>
<polygon style="fill:#95DAF9;" points="172.141,0 87.271,22.226 95.059,51.967 150.101,37.552 177.486,143.38 207.249,135.679 "/>
<polygon style="fill:#D6D6D6;" points="252.376,481.256 252.376,362.716 221.631,362.716 221.631,481.256 170.048,481.256 
	170.048,512 303.96,512 303.96,481.256 "/>
<path style="fill:#EFEFEF;" d="M327.382,238.42c-7.497-16.651-9.529-34.975-5.878-52.992l12.414-61.272H140.09l12.413,61.269
	c3.636,17.946,1.639,36.569-5.623,52.435c-6.459,14.111-9.446,29.197-8.876,44.84c0.897,24.656,10.985,47.997,28.405,65.723
	c17.427,17.732,40.591,28.218,65.228,29.524c1.821,0.096,3.636,0.144,5.443,0.144c25.487,0,49.489-9.539,68.088-27.18
	c19.929-18.901,30.904-44.431,30.904-71.89C336.072,264.888,333.148,251.227,327.382,238.42z"/>
<path style="fill:#FD0023;" d="M319.74,202.386H154.273c0.098,12.384-2.405,24.578-7.393,35.474
	c-6.459,14.111-9.446,29.197-8.876,44.84c0.897,24.656,10.985,47.997,28.405,65.723c17.427,17.732,40.591,28.218,65.228,29.524
	c1.821,0.096,3.636,0.144,5.443,0.144c25.487,0,49.489-9.539,68.088-27.18c19.929-18.901,30.904-44.431,30.904-71.89
	c0-14.134-2.923-27.794-8.689-40.601C322.234,226.985,319.664,214.759,319.74,202.386z"/>
<path style="fill:#DC001E;" d="M327.382,238.42c-5.148-11.435-7.719-23.661-7.643-36.034h-83.953v175.686
	c0.431,0.005,0.862,0.017,1.292,0.017c25.487,0,49.489-9.539,68.088-27.18c19.929-18.901,30.904-44.431,30.904-71.89
	C336.072,264.888,333.148,251.227,327.382,238.42z"/>
<rect x="260.609" y="281.792" transform="matrix(-0.7071 0.7071 -0.7071 -0.7071 682.0298 312.462)" style="fill:#FE99A7;" width="31.385" height="31.385"/>
<g>
</g>
<g>
</g>
<g>
</g>
<g>
</g>
<g>
</g>
<g>
</g>
<g>
</g>
<g>
</g>
<g>
</g>
<g>
</g>
<g>
</g>
<g>
</g>
<g>
</g>
<g>
</g>
<g>
</g>
</svg>
