<?xml version="1.0" encoding="iso-8859-1"?>
<!-- Generator: Adobe Illustrator 19.0.0, SVG Export Plug-In . SVG Version: 6.00 Build 0)  -->
<svg version="1.1" id="Layer_1" xmlns="http://www.w3.org/2000/svg" xmlns:xlink="http://www.w3.org/1999/xlink" x="0px" y="0px"
	 viewBox="0 0 512 512" style="enable-background:new 0 0 512 512;" xml:space="preserve">
<polygon style="fill:#367596;" points="512,25.319 512,92.835 455.736,115.341 478.242,25.319 "/>
<polygon style="fill:#5195AF;" points="478.242,25.319 478.242,115.341 306.637,115.341 329.143,25.319 "/>
<polygon style="fill:#27467A;" points="0,25.319 0,92.835 33.758,115.341 329.143,115.341 329.143,25.319 "/>
<polygon style="fill:#A0F6FA;" points="512,92.835 512,486.681 478.242,486.681 433.231,289.758 478.242,92.835 "/>
<g>
	<rect y="92.835" style="fill:#D0FBFD;" width="478.242" height="393.846"/>
	<circle style="fill:#D0FBFD;" cx="403.692" cy="59.077" r="11.253"/>
	<circle style="fill:#D0FBFD;" cx="357.556" cy="59.077" r="11.253"/>
</g>
<circle style="fill:#78E3EC;" cx="449.829" cy="59.077" r="11.253"/>
<g>
	<path style="fill:#367596;" d="M172.574,356.757c-1.47,0-2.957-0.384-4.311-1.191l-98.314-58.558
		c-2.555-1.522-4.121-4.276-4.121-7.25c0-2.974,1.566-5.729,4.121-7.25l98.314-58.558c4.005-2.387,9.183-1.074,11.569,2.931
		c2.386,4.005,1.072,9.185-2.931,11.569L90.76,289.758l86.141,51.308c4.005,2.386,5.318,7.565,2.931,11.569
		C178.255,355.285,175.451,356.757,172.574,356.757z"/>
	<path style="fill:#367596;" d="M339.426,356.757c-2.877,0-5.679-1.471-7.258-4.122c-2.386-4.005-1.072-9.184,2.931-11.569
		l86.141-51.308l-86.141-51.308c-4.005-2.386-5.318-7.565-2.931-11.569c2.383-4.005,7.566-5.317,11.569-2.931l98.314,58.558
		c2.555,1.522,4.121,4.276,4.121,7.25c0,2.974-1.566,5.729-4.121,7.25l-98.314,58.558
		C342.383,356.373,340.894,356.757,339.426,356.757z"/>
	<path style="fill:#367596;" d="M216.668,356.757c-1.618,0-3.253-0.465-4.698-1.434c-3.869-2.599-4.899-7.842-2.301-11.712
		l78.649-117.116c2.598-3.869,7.84-4.901,11.712-2.301c3.869,2.599,4.899,7.842,2.301,11.712l-78.649,117.115
		C222.054,355.446,219.386,356.757,216.668,356.757z"/>
</g>
<g>
</g>
<g>
</g>
<g>
</g>
<g>
</g>
<g>
</g>
<g>
</g>
<g>
</g>
<g>
</g>
<g>
</g>
<g>
</g>
<g>
</g>
<g>
</g>
<g>
</g>
<g>
</g>
<g>
</g>
</svg>
