<?xml version="1.0" encoding="iso-8859-1"?>
<!-- Generator: Adobe Illustrator 19.0.0, SVG Export Plug-In . SVG Version: 6.00 Build 0)  -->
<svg version="1.1" id="Capa_1" xmlns="http://www.w3.org/2000/svg" xmlns:xlink="http://www.w3.org/1999/xlink" x="0px" y="0px"
	 viewBox="0 0 512 512" style="enable-background:new 0 0 512 512;" xml:space="preserve">
<polygon style="fill:#D95D27;" points="60,383.5 30,383.5 30,338.5 60,308.5 "/>
<polygon style="fill:#C7461F;" points="452,308.5 452,383.5 482,383.5 482,338.5 "/>
<polygon style="fill:#D95D27;" points="191.735,188.5 256,338.5 482,338.5 482,248.5 "/>
<polygon style="fill:#EB7330;" points="30,248.5 30,338.5 256,338.5 256,188.5 "/>
<rect x="128" y="223.5" style="fill:#FFF2A3;" width="30" height="55"/>
<rect x="354" y="223.5" style="fill:#FEDD90;" width="30" height="55"/>
<polygon style="fill:#480306;" points="196,143.5 256,248.5 482,248.5 482,143.5 "/>
<rect x="30" y="143.5" style="fill:#8B2613;" width="226" height="105"/>
<polygon style="fill:#D95D27;" points="512,158.5 512,128.5 256,128.5 236,143.5 256,158.5 "/>
<rect y="128.5" style="fill:#EB7330;" width="256" height="30"/>
<g>
</g>
<g>
</g>
<g>
</g>
<g>
</g>
<g>
</g>
<g>
</g>
<g>
</g>
<g>
</g>
<g>
</g>
<g>
</g>
<g>
</g>
<g>
</g>
<g>
</g>
<g>
</g>
<g>
</g>
</svg>
