<?xml version="1.0" encoding="iso-8859-1"?>
<!-- Generator: Adobe Illustrator 19.0.0, SVG Export Plug-In . SVG Version: 6.00 Build 0)  -->
<svg version="1.1" id="Capa_1" xmlns="http://www.w3.org/2000/svg" xmlns:xlink="http://www.w3.org/1999/xlink" x="0px" y="0px"
	 viewBox="0 0 58 58" style="enable-background:new 0 0 58 58;" xml:space="preserve">
<g id="XMLID_23_">
	<path id="XMLID_120_" style="fill:#D6DEE4;" d="M58,24.5c0,7.732-12.984,14-29,14s-29-6.268-29-14c0-7.732,12.984-14,29-14
		S58,16.768,58,24.5"/>
	<path id="XMLID_119_" style="fill:#C0C9D2;" d="M29,34.5c-15.261,0-25-5.923-25-10s9.739-10,25-10c15.261,0,25,5.923,25,10
		S44.261,34.5,29,34.5"/>
	<path id="XMLID_118_" style="fill:#E9EFF5;" d="M37.541,25.213c0.997-0.211,1.582-0.826,1.366-1.527l-0.23-0.749
		c-0.17-0.55-0.828-1.01-1.634-1.238c-1.095-2.343-3.891-3.191-8.043-3.191c-0.197,0-0.39,0.004-0.579,0.012
		c-1.417,0.059-2.831-0.079-3.934-0.482c-0.449-0.164-0.815-0.336-1.057-0.515c-0.11-0.08-0.374-0.029-0.374,0.073
		c0,0.178,0.013,0.389,0.052,0.622c0.151,0.907-0.029,0.771-0.926,1.676c-0.521,0.526-0.935,1.135-1.235,1.807
		c-0.802,0.229-1.456,0.688-1.624,1.236l-0.231,0.749c-0.215,0.702,0.369,1.317,1.366,1.527c0.285,1.792,1.503,3.37,4.162,4.237
		l-0.146,1.261c-0.038,0.337-0.33,0.649-0.753,0.801l-5.361,1.935C21.491,34.104,25.06,34.5,29,34.5
		c3.884,0,7.408-0.385,10.507-1.024l-5.244-1.961c-0.415-0.155-0.699-0.464-0.737-0.795l-0.146-1.27
		C36.039,28.583,37.256,27.005,37.541,25.213"/>
	<path id="XMLID_117_" style="fill:#A0AAB4;" d="M29,38.5c-16.016,0-29-6.268-29-14v9c0,7.732,12.984,14,29,14s29-6.268,29-14v-9
		C58,32.232,45.016,38.5,29,38.5"/>
	<path id="XMLID_116_" style="fill:#C0C9D2;" d="M3,30.702v9c0.591,0.576,1.257,1.13,2,1.658v-9C4.257,31.832,3.591,31.278,3,30.702
		"/>
	<path id="XMLID_115_" style="fill:#C0C9D2;" d="M53,32.359v9c0.743-0.527,1.409-1.082,2-1.658v-9
		C54.409,31.278,53.743,31.832,53,32.359"/>
	<path id="XMLID_114_" style="fill:#C0C9D2;" d="M7,33.616v9c0.632,0.355,1.299,0.694,2,1.017v-9C8.299,34.31,7.632,33.971,7,33.616
		"/>
	<path id="XMLID_113_" style="fill:#C0C9D2;" d="M49,34.633v9c0.701-0.323,1.368-0.662,2-1.017v-9
		C50.368,33.971,49.701,34.31,49,34.633"/>
	<path id="XMLID_112_" style="fill:#C0C9D2;" d="M11,35.473v9c0.646,0.247,1.311,0.482,2,0.703v-9
		C12.311,35.955,11.646,35.72,11,35.473"/>
	<path id="XMLID_111_" style="fill:#C0C9D2;" d="M45,36.175v9c0.689-0.22,1.354-0.456,2-0.703v-9
		C46.354,35.72,45.689,35.955,45,36.175"/>
	<path id="XMLID_110_" style="fill:#C0C9D2;" d="M15,36.761v9c0.651,0.174,1.319,0.334,2,0.483v-9
		C16.319,37.096,15.651,36.936,15,36.761"/>
	<path id="XMLID_109_" style="fill:#C0C9D2;" d="M41,37.244v9c0.681-0.148,1.349-0.309,2-0.482v-9
		C42.349,36.935,41.681,37.096,41,37.244"/>
	<path id="XMLID_108_" style="fill:#C0C9D2;" d="M20,37.809v9c0.657,0.104,1.323,0.197,2,0.278v-9
		C21.323,38.006,20.657,37.913,20,37.809"/>
	<path id="XMLID_107_" style="fill:#C0C9D2;" d="M36,38.087v9c0.677-0.081,1.343-0.174,2-0.278v-9
		C37.343,37.913,36.677,38.006,36,38.087"/>
	<path id="XMLID_106_" style="fill:#C0C9D2;" d="M25,38.364v9c0.66,0.044,1.327,0.077,2,0.099v-9
		C26.327,38.441,25.66,38.408,25,38.364"/>
	<path id="XMLID_105_" style="fill:#C0C9D2;" d="M31,38.463v9c0.673-0.021,1.34-0.055,2-0.099v-9
		C32.34,38.408,31.673,38.441,31,38.463"/>
</g>
<g>
</g>
<g>
</g>
<g>
</g>
<g>
</g>
<g>
</g>
<g>
</g>
<g>
</g>
<g>
</g>
<g>
</g>
<g>
</g>
<g>
</g>
<g>
</g>
<g>
</g>
<g>
</g>
<g>
</g>
</svg>
