<?xml version="1.0" encoding="iso-8859-1"?>
<!-- Generator: Adobe Illustrator 19.0.0, SVG Export Plug-In . SVG Version: 6.00 Build 0)  -->
<svg version="1.1" id="Layer_1" xmlns="http://www.w3.org/2000/svg" xmlns:xlink="http://www.w3.org/1999/xlink" x="0px" y="0px"
	 viewBox="0 0 495 495" style="enable-background:new 0 0 495 495;" xml:space="preserve">
<g>
	<polygon style="fill:#46F8FF;" points="419.167,224.375 419.167,151.667 267.5,151.667 267.5,120 247.5,120 227.5,120 
		227.5,151.667 75.833,151.667 75.833,223.333 95.833,223.333 115.833,223.333 115.833,191.667 227.5,191.667 227.5,375 247.5,375 
		267.5,375 267.5,191.667 379.167,191.667 379.167,224.375 399.167,224.375 	"/>
	<polygon style="fill:#FFDA44;" points="75.833,223.333 0,223.333 0,343.333 95.833,343.333 191.667,343.333 191.667,223.333 
		115.833,223.333 95.833,223.333 	"/>
	<polygon style="fill:#FFDA44;" points="399.167,224.375 379.167,224.375 303.333,224.375 303.333,344.375 399.167,344.375 	"/>
	<polygon style="fill:#FFDA44;" points="247.5,0 152.5,0 152.5,120 227.5,120 247.5,120 	"/>
	<polygon style="fill:#FFCD00;" points="247.5,120 267.5,120 342.5,120 342.5,0 247.5,0 	"/>
	<polygon style="fill:#FFDA44;" points="247.5,375 227.5,375 151.667,375 151.667,495 247.5,495 	"/>
	<polygon style="fill:#FFCD00;" points="419.167,224.375 399.167,224.375 399.167,344.375 495,344.375 495,224.375 	"/>
	<polygon style="fill:#FFCD00;" points="247.5,495 343.333,495 343.333,375 267.5,375 247.5,375 	"/>
</g>
<g>
</g>
<g>
</g>
<g>
</g>
<g>
</g>
<g>
</g>
<g>
</g>
<g>
</g>
<g>
</g>
<g>
</g>
<g>
</g>
<g>
</g>
<g>
</g>
<g>
</g>
<g>
</g>
<g>
</g>
</svg>
