<?xml version="1.0" encoding="iso-8859-1"?>
<!-- Generator: Adobe Illustrator 19.0.0, SVG Export Plug-In . SVG Version: 6.00 Build 0)  -->
<svg version="1.1" id="Capa_1" xmlns="http://www.w3.org/2000/svg" xmlns:xlink="http://www.w3.org/1999/xlink" x="0px" y="0px"
	 viewBox="0 0 512 512" style="enable-background:new 0 0 512 512;" xml:space="preserve">
<path style="fill:#FD4B2D;" d="M46.44,208.5c9.716-6.148,20.866-11.865,33.398-17.065C127.137,171.809,189.699,161,256,161
	s128.862,10.809,176.161,30.435c12.533,5.2,23.683,10.917,33.399,17.065C495.758,189.392,512,207,512,141
	c0-33.17-28.354-63.203-79.839-84.565C384.862,36.809,322.301,26,256,26S127.137,36.809,79.838,56.435C28.354,77.797,0,107.83,0,141
	C0,216,16.242,189.392,46.44,208.5z"/>
<path style="fill:#E8130F;" d="M432.161,56.435C384.862,36.809,322.301,26,256,26v135c66.301,0,128.862,10.809,176.161,30.435
	c12.533,5.2,23.683,10.917,33.399,17.065C495.758,189.392,512,207,512,141C512,107.83,483.646,77.797,432.161,56.435z"/>
<path style="fill:#FF6849;" d="M432.161,225.565C384.862,245.191,322.301,256,256,256s-128.863-10.809-176.162-30.435
	C28.354,204.203,0,174.17,0,141v120c0,33.17,28.354,63.203,79.838,84.565C127.137,365.191,189.699,376,256,376
	s128.862-10.809,176.161-30.435C483.646,324.203,512,294.17,512,261V141C512,174.17,483.646,204.203,432.161,225.565z"/>
<path style="fill:#FD4B2D;" d="M432.161,225.565C384.862,245.191,322.301,256,256,256c-33.137,0-60,26.863-60,60s26.863,60,60,60
	c66.301,0,128.862-10.809,176.161-30.435C483.646,324.203,512,294.17,512,261V141C512,174.17,483.646,204.203,432.161,225.565z"/>
<path style="fill:#FFEA84;" d="M256,486c-44.112,0-80-35.888-80-80s35.888-80,80-80s80,35.888,80,80S300.112,486,256,486z"/>
<path style="fill:#FFDC40;" d="M256,326v160c44.112,0,80-35.888,80-80S300.112,326,256,326z"/>
<rect x="241" y="406" style="fill:#FFAB15;" width="30" height="65"/>
<g>
</g>
<g>
</g>
<g>
</g>
<g>
</g>
<g>
</g>
<g>
</g>
<g>
</g>
<g>
</g>
<g>
</g>
<g>
</g>
<g>
</g>
<g>
</g>
<g>
</g>
<g>
</g>
<g>
</g>
</svg>
