<?xml version="1.0" encoding="iso-8859-1"?>
<!-- Generator: Adobe Illustrator 19.0.0, SVG Export Plug-In . SVG Version: 6.00 Build 0)  -->
<svg version="1.1" id="Capa_1" xmlns="http://www.w3.org/2000/svg" xmlns:xlink="http://www.w3.org/1999/xlink" x="0px" y="0px"
	 viewBox="0 0 512 512" style="enable-background:new 0 0 512 512;" xml:space="preserve">
<rect x="166.47" y="376.01" style="fill:#132F3B;" width="179.05" height="78.57"/>
<rect y="54.33" style="fill:#B7E4F8;" width="512" height="346.39"/>
<rect x="256" y="54.33" style="fill:#6FC8F1;" width="256" height="346.39"/>
<rect y="355.67" style="fill:#4BBAED;" width="512" height="45.05"/>
<rect x="256" y="355.67" style="fill:#388CB2;" width="256" height="45.05"/>
<rect x="138.79" y="427.67" style="fill:#265D77;" width="234.42" height="30"/>
<polygon style="fill:#FF4F19;" points="415.94,254.361 461.134,209.166 415.94,163.971 394.726,185.184 403.708,194.166 
	316.272,194.166 316.272,224.166 403.708,224.166 394.726,233.148 "/>
<polygon style="fill:#BF3B13;" points="461.134,209.166 316.272,209.166 316.272,224.166 403.708,224.166 394.726,233.148 
	415.94,254.361 "/>
<polygon style="fill:#FF4F19;" points="96.059,254.361 50.864,209.166 96.059,163.971 117.272,185.184 108.291,194.166 
	195.727,194.166 195.727,224.166 108.291,224.166 117.272,233.148 "/>
<polygon style="fill:#BF3B13;" points="50.864,209.166 195.727,209.166 195.727,224.166 108.291,224.166 117.272,233.148 
	96.059,254.361 "/>
<path style="fill:#00623D;" d="M256,316.999c-48.79,0-101.303-13.966-101.303-44.628v-85.41h202.605v85.41
	C357.302,303.034,304.79,316.999,256,316.999z"/>
<path style="fill:#183713;" d="M256,186.961h101.302v85.41c0,30.663-52.512,44.628-101.302,44.628"/>
<path style="fill:#00935C;" d="M256,250.166c-48.79,0-101.303-13.966-101.303-44.628v-59.577h202.605v59.577
	C357.302,236.2,304.79,250.166,256,250.166z"/>
<path style="fill:#00784B;" d="M256,145.961h101.302v59.577c0,30.663-52.512,44.628-101.302,44.628"/>
<path style="fill:#60DD4D;" d="M256,101.333c-48.79,0-101.303,13.966-101.303,44.628S207.209,190.589,256,190.589
	s101.302-13.966,101.302-44.628S304.79,101.333,256,101.333z"/>
<path style="fill:#56C745;" d="M256,190.589c48.79,0,101.302-13.966,101.302-44.628c0-30.663-52.512-44.628-101.302-44.628"/>
<g>
</g>
<g>
</g>
<g>
</g>
<g>
</g>
<g>
</g>
<g>
</g>
<g>
</g>
<g>
</g>
<g>
</g>
<g>
</g>
<g>
</g>
<g>
</g>
<g>
</g>
<g>
</g>
<g>
</g>
</svg>
