<?xml version="1.0" encoding="iso-8859-1"?>
<!-- Generator: Adobe Illustrator 19.0.0, SVG Export Plug-In . SVG Version: 6.00 Build 0)  -->
<svg version="1.1" id="Capa_1" xmlns="http://www.w3.org/2000/svg" xmlns:xlink="http://www.w3.org/1999/xlink" x="0px" y="0px"
	 viewBox="0 0 410 410" style="enable-background:new 0 0 410 410;" xml:space="preserve">
<g id="XMLID_1222_">
	<path id="XMLID_1223_" style="fill:#DEDDE0;" d="M191.902,267.939c0,2.684,0.939,4.801,2.82,6.358
		c1.874,1.56,4.691,2.927,8.449,4.106v-19.799C195.658,259.245,191.902,262.359,191.902,267.939z"/>
	<path id="XMLID_1224_" style="fill:#DEDDE0;" d="M201.401,370v-18.836c-7.404-0.643-14.731-2.143-21.974-4.505
		c-7.243-2.359-13.765-5.473-19.558-9.34l11.59-23.021c0.429,0.541,1.581,1.427,3.461,2.656c1.875,1.238,4.266,2.522,7.163,3.862
		c2.897,1.349,6.171,2.632,9.819,3.869c3.649,1.232,7.407,2.117,11.269,2.655v-21.41l-7.728-2.257
		c-5.259-1.61-9.819-3.355-13.682-5.229c-3.865-1.878-7.059-4.052-9.579-6.518c-2.523-2.469-4.403-5.316-5.636-8.533
		c-1.233-3.221-1.851-6.979-1.851-11.272c0-5.579,0.965-10.541,2.899-14.891c1.931-4.344,4.531-8.07,7.807-11.188
		c3.273-3.111,7.134-5.55,11.591-7.321c4.451-1.77,9.255-2.924,14.407-3.464V219H205v-29h-80v-30h80v-30h-80v-30h80V0h-80v70H56.707
		L55,71.75V410h150v-40H201.401z"/>
	<path id="XMLID_1225_" style="fill:#CDCDD0;" d="M223.134,319.13c0-2.79-1.126-4.964-3.381-6.519
		c-2.255-1.558-5.259-2.977-9.014-4.267v19.318C219.001,327.342,223.134,324.495,223.134,319.13z"/>
	<path id="XMLID_1226_" style="fill:#CDCDD0;" d="M205,0v100h80v30h-80v30h80v30h-80v29h7.51v16.258
		c6.973,0.648,13.52,2.201,19.638,4.67c6.117,2.472,11.429,4.992,15.937,7.564l-11.59,21.897c-0.321-0.429-1.262-1.13-2.817-2.099
		c-1.556-0.963-3.541-2.008-5.956-3.137c-2.415-1.123-5.098-2.199-8.049-3.221c-2.953-1.02-5.93-1.738-8.934-2.17v21.892
		l5.151,1.289c5.473,1.503,10.408,3.138,14.81,4.908c4.398,1.77,8.129,3.972,11.187,6.602c3.06,2.632,5.419,5.82,7.083,9.578
		c1.664,3.756,2.496,8.266,2.496,13.524c0,6.115-1.072,11.32-3.217,15.611c-2.151,4.298-5.021,7.807-8.613,10.546
		c-3.597,2.737-7.728,4.807-12.395,6.197c-4.67,1.391-9.579,2.199-14.73,2.413V370H205v40h150V0H205z"/>
	<polygon id="XMLID_1227_" style="fill:#FFFFFF;" points="125,130 205,130 285,130 285,100 205,100 125,100 	"/>
	<polygon id="XMLID_1228_" style="fill:#FFFFFF;" points="125,190 205,190 285,190 285,160 205,160 125,160 	"/>
	<polygon id="XMLID_1229_" style="fill:#ACABB1;" points="125,0 55,70 56.707,70 125,70 	"/>
	<path id="XMLID_1230_" style="fill:#FFFFFF;" d="M201.401,235.258c-5.152,0.54-9.956,1.693-14.407,3.464
		c-4.456,1.771-8.318,4.21-11.591,7.321c-3.276,3.118-5.876,6.845-7.807,11.188c-1.934,4.35-2.899,9.312-2.899,14.891
		c0,4.294,0.618,8.052,1.851,11.272c1.233,3.217,3.114,6.065,5.636,8.533c2.52,2.466,5.713,4.64,9.579,6.518
		c3.862,1.874,8.423,3.619,13.682,5.229l7.728,2.257v21.41c-3.862-0.538-7.62-1.423-11.269-2.655
		c-3.648-1.237-6.922-2.521-9.819-3.869c-2.897-1.34-5.288-2.624-7.163-3.862c-1.88-1.23-3.033-2.115-3.461-2.656l-11.59,23.021
		c5.793,3.867,12.315,6.98,19.558,9.34c7.243,2.362,14.57,3.862,21.974,4.505V370H205h7.51v-18.676
		c5.151-0.214,10.059-1.022,14.73-2.413c4.667-1.391,8.798-3.46,12.395-6.197c3.592-2.739,6.462-6.248,8.613-10.546
		c2.145-4.291,3.217-9.496,3.217-15.611c0-5.259-0.831-9.769-2.496-13.524c-1.663-3.758-4.023-6.946-7.083-9.578
		c-3.058-2.63-6.789-4.831-11.187-6.602c-4.402-1.771-9.337-3.405-14.81-4.908l-5.151-1.289v-21.892
		c3.003,0.432,5.981,1.15,8.934,2.17c2.951,1.022,5.633,2.098,8.049,3.221c2.415,1.129,4.4,2.174,5.956,3.137
		c1.555,0.969,2.496,1.67,2.817,2.099l11.59-21.897c-4.507-2.572-9.819-5.093-15.937-7.564c-6.118-2.469-12.665-4.022-19.638-4.67
		V219H205h-3.599V235.258z M210.739,308.345c3.755,1.29,6.759,2.709,9.014,4.267c2.254,1.555,3.381,3.729,3.381,6.519
		c0,5.365-4.133,8.212-12.395,8.533V308.345z M203.171,278.403c-3.758-1.18-6.575-2.547-8.449-4.106
		c-1.881-1.558-2.82-3.675-2.82-6.358c0-5.579,3.756-8.693,11.269-9.334V278.403z"/>
</g>
<g>
</g>
<g>
</g>
<g>
</g>
<g>
</g>
<g>
</g>
<g>
</g>
<g>
</g>
<g>
</g>
<g>
</g>
<g>
</g>
<g>
</g>
<g>
</g>
<g>
</g>
<g>
</g>
<g>
</g>
</svg>
