<?xml version="1.0" encoding="iso-8859-1"?>
<!-- Generator: Adobe Illustrator 19.0.0, SVG Export Plug-In . SVG Version: 6.00 Build 0)  -->
<svg version="1.1" id="Capa_1" xmlns="http://www.w3.org/2000/svg" xmlns:xlink="http://www.w3.org/1999/xlink" x="0px" y="0px"
	 viewBox="0 0 58 58" style="enable-background:new 0 0 58 58;" xml:space="preserve">
<path style="fill:#4BB8DD;" d="M38.527,8.305L39.5,10h-24l0.973-1.695c0.733-1.277,1.114-2.685,1.114-4.112v0
	C17.587,1.877,19.742,0,22.4,0H32.6c2.658,0,4.813,1.877,4.813,4.193v0C37.413,5.62,37.795,7.028,38.527,8.305z"/>
<path style="fill:#4BB8DD;" d="M16.473,49.695L15.5,48h24l-0.973,1.695c-0.733,1.277-1.114,2.685-1.114,4.112v0
	c0,2.316-2.155,4.193-4.813,4.193H22.4c-2.658,0-4.813-1.877-4.813-4.193v0C17.587,52.38,17.205,50.972,16.473,49.695z"/>
<path style="fill:#AFB6BB;" d="M46.021,40H43.5v-8h2.521c0.817,0,1.479,0.662,1.479,1.479v5.042C47.5,39.338,46.838,40,46.021,40z"
	/>
<path style="fill:#AFB6BB;" d="M47.021,27H44.5v-8h2.521c0.817,0,1.479,0.662,1.479,1.479v5.042C48.5,26.338,47.838,27,47.021,27z"
	/>
<path style="fill:#283238;stroke:#F3CC6D;stroke-width:2;stroke-linecap:round;stroke-miterlimit:10;" d="M40.206,48H14.794
	c-2.371,0-4.294-1.922-4.294-4.294V14.294c0-2.371,1.922-4.294,4.294-4.294h25.412c2.371,0,4.294,1.922,4.294,4.294v29.412
	C44.5,46.078,42.578,48,40.206,48z"/>
<g>
	<path style="fill:#38454F;" d="M15.5,20c0.256,0,0.512-0.098,0.707-0.293l4-4c0.391-0.391,0.391-1.023,0-1.414
		s-1.023-0.391-1.414,0l-4,4c-0.391,0.391-0.391,1.023,0,1.414C14.988,19.902,15.244,20,15.5,20z"/>
	<path style="fill:#38454F;" d="M15.5,25c0.256,0,0.512-0.098,0.707-0.293l2-2c0.391-0.391,0.391-1.023,0-1.414
		s-1.023-0.391-1.414,0l-2,2c-0.391,0.391-0.391,1.023,0,1.414C14.988,24.902,15.244,25,15.5,25z"/>
	<path style="fill:#38454F;" d="M18.79,19.29c-0.181,0.189-0.29,0.439-0.29,0.71c0,0.27,0.109,0.52,0.29,0.7
		c0.189,0.189,0.439,0.3,0.71,0.3c0.27,0,0.52-0.11,0.71-0.29c0.18-0.19,0.29-0.45,0.29-0.71s-0.11-0.521-0.29-0.71
		C19.83,18.92,19.16,18.92,18.79,19.29z"/>
	<path style="fill:#38454F;" d="M20.793,18.707C20.988,18.902,21.244,19,21.5,19s0.512-0.098,0.707-0.293l3-3
		c0.391-0.391,0.391-1.023,0-1.414s-1.023-0.391-1.414,0l-3,3C20.402,17.684,20.402,18.316,20.793,18.707z"/>
	<path style="fill:#38454F;" d="M23.793,19.293l-9,9c-0.391,0.391-0.391,1.023,0,1.414C14.988,29.902,15.244,30,15.5,30
		s0.512-0.098,0.707-0.293l9-9c0.391-0.391,0.391-1.023,0-1.414S24.184,18.902,23.793,19.293z"/>
	<path style="fill:#38454F;" d="M25.8,17.29c-0.19,0.18-0.3,0.439-0.3,0.71c0,0.27,0.109,0.52,0.29,0.71
		C25.979,18.89,26.24,19,26.5,19s0.52-0.11,0.71-0.29c0.18-0.19,0.29-0.45,0.29-0.71s-0.11-0.521-0.29-0.71
		C26.83,16.92,26.16,16.92,25.8,17.29z"/>
	<path style="fill:#38454F;" d="M30.207,14.293c-0.391-0.391-1.023-0.391-1.414,0l-1,1c-0.391,0.391-0.391,1.023,0,1.414
		C27.988,16.902,28.244,17,28.5,17s0.512-0.098,0.707-0.293l1-1C30.598,15.316,30.598,14.684,30.207,14.293z"/>
</g>
<g>
</g>
<g>
</g>
<g>
</g>
<g>
</g>
<g>
</g>
<g>
</g>
<g>
</g>
<g>
</g>
<g>
</g>
<g>
</g>
<g>
</g>
<g>
</g>
<g>
</g>
<g>
</g>
<g>
</g>
</svg>
