<?xml version="1.0" encoding="iso-8859-1"?>
<!-- Generator: Adobe Illustrator 19.0.0, SVG Export Plug-In . SVG Version: 6.00 Build 0)  -->
<svg version="1.1" id="Capa_1" xmlns="http://www.w3.org/2000/svg" xmlns:xlink="http://www.w3.org/1999/xlink" x="0px" y="0px"
	 viewBox="0 0 58 58" style="enable-background:new 0 0 58 58;" xml:space="preserve">
<path style="fill:#AFB6BB;" d="M49,27c0-0.553,0.448-1,1-1h7.949c-0.059-0.705-0.184-1.39-0.361-2.056
	C57.499,23.97,57.41,24,57.312,24H50c-0.552,0-1-0.447-1-1s0.448-1,1-1h6.888c-1.906-4.119-6.072-7-10.888-7H12
	c-4.816,0-8.982,2.881-10.888,7H8c0.552,0,1,0.447,1,1s-0.448,1-1,1H0.719c-0.108,0-0.208-0.03-0.305-0.062
	C0.236,24.606,0.11,25.293,0.051,26H8c0.552,0,1,0.447,1,1s-0.448,1-1,1H0.051c0.059,0.707,0.187,1.394,0.364,2.061
	C0.512,30.03,0.611,30,0.719,30H8c0.552,0,1,0.447,1,1s-0.448,1-1,1H1.119C3.023,36.119,7.184,39,12,39h34
	c4.816,0,8.982-2.881,10.888-7H50c-0.552,0-1-0.447-1-1s0.448-1,1-1h7.312c0.098,0,0.186,0.029,0.276,0.056
	c0.177-0.666,0.302-1.351,0.361-2.056H50C49.448,28,49,27.553,49,27z"/>
<g>
	<path style="fill:#CBD4D8;" d="M8,26H0.051C0.023,26.331,0,26.663,0,27s0.023,0.669,0.051,1H8c0.552,0,1-0.447,1-1S8.552,26,8,26z"
		/>
	<path style="fill:#CBD4D8;" d="M8,22H1.112c-0.287,0.62-0.52,1.268-0.698,1.938C0.511,23.97,0.61,24,0.719,24H8
		c0.552,0,1-0.447,1-1S8.552,22,8,22z"/>
	<path style="fill:#CBD4D8;" d="M8,30H0.719c-0.108,0-0.207,0.03-0.304,0.061C0.593,30.733,0.832,31.379,1.119,32H8
		c0.552,0,1-0.447,1-1S8.552,30,8,30z"/>
	<path style="fill:#CBD4D8;" d="M57.949,26H50c-0.552,0-1,0.447-1,1s0.448,1,1,1h7.949C57.977,27.669,58,27.337,58,27
		S57.977,26.331,57.949,26z"/>
	<path style="fill:#CBD4D8;" d="M50,30c-0.552,0-1,0.447-1,1s0.448,1,1,1h6.888c0.288-0.622,0.521-1.271,0.7-1.944
		C57.499,30.029,57.41,30,57.312,30H50z"/>
	<path style="fill:#CBD4D8;" d="M50,24h7.312c0.098,0,0.186-0.03,0.276-0.056c-0.179-0.673-0.412-1.323-0.7-1.944H50
		c-0.552,0-1,0.447-1,1S49.448,24,50,24z"/>
</g>
<path style="fill:#283238;" d="M29,39c-6.617,0-12-5.383-12-12s5.383-12,12-12s12,5.383,12,12S35.617,39,29,39z"/>
<path style="fill:#546A79;" d="M16.236,43h-2.473C12.79,43,12,42.21,12,41.236V39h6v2.236C18,42.21,17.21,43,16.236,43z"/>
<path style="fill:#546A79;" d="M45.236,43h-2.473C41.79,43,41,42.21,41,41.236V39h6v2.236C47,42.21,46.21,43,45.236,43z"/>
<circle style="fill:#38454F;" cx="29" cy="27" r="8"/>
<path style="fill:#546A79;" d="M26,25c-0.26,0-0.52-0.11-0.71-0.29C25.11,24.52,25,24.26,25,24s0.11-0.521,0.29-0.71
	c0.38-0.37,1.05-0.37,1.42,0C26.89,23.479,27,23.74,27,24s-0.11,0.52-0.29,0.71C26.52,24.89,26.26,25,26,25z"/>
<path style="fill:#546A79;" d="M29,32c-0.256,0-0.512-0.098-0.707-0.293c-0.391-0.391-0.391-1.023,0-1.414l4-4
	c0.391-0.391,1.023-0.391,1.414,0s0.391,1.023,0,1.414l-4,4C29.512,31.902,29.256,32,29,32z"/>
<path style="fill:#546A79;" d="M25,31c-0.256,0-0.512-0.098-0.707-0.293c-0.391-0.391-0.391-1.023,0-1.414l7-7
	c0.391-0.391,1.023-0.391,1.414,0s0.391,1.023,0,1.414l-7,7C25.512,30.902,25.256,31,25,31z"/>
<g>
</g>
<g>
</g>
<g>
</g>
<g>
</g>
<g>
</g>
<g>
</g>
<g>
</g>
<g>
</g>
<g>
</g>
<g>
</g>
<g>
</g>
<g>
</g>
<g>
</g>
<g>
</g>
<g>
</g>
</svg>
