<?xml version="1.0" encoding="iso-8859-1"?>
<!-- Generator: Adobe Illustrator 19.0.0, SVG Export Plug-In . SVG Version: 6.00 Build 0)  -->
<svg version="1.1" id="Capa_1" xmlns="http://www.w3.org/2000/svg" xmlns:xlink="http://www.w3.org/1999/xlink" x="0px" y="0px"
	 viewBox="0 0 512 512" style="enable-background:new 0 0 512 512;" xml:space="preserve">
<rect x="60" y="308.5" style="fill:#6C533A;" width="30" height="120"/>
<rect x="422" y="308.5" style="fill:#593927;" width="30" height="120"/>
<polygon style="fill:#480306;" points="256,338.5 482,338.5 482,308.5 196,278.5 "/>
<polygon style="fill:#593927;" points="30,308.5 30,338.5 256,338.5 256,278.5 "/>
<path style="fill:#F9963B;" d="M422,203.5c0,5.03,0,55.05,0,60H226l30-105h121C401.85,158.5,422,178.65,422,203.5z"/>
<path style="fill:#FCBA66;" d="M256,158.5v105H90c0-4.95,0-54.97,0-60c0-24.85,20.15-45,45-45H256z"/>
<polygon style="fill:#D95D27;" points="256,233.5 226,271.662 256,308.5 422,308.5 452,233.5 "/>
<polygon style="fill:#EB7330;" points="60,233.5 90,308.5 256,308.5 256,233.5 "/>
<path style="fill:#F9963B;" d="M45,83.5c-24.85,0-45,20.15-45,45c0,19.59,12.52,31.59,30,35.8v144.2h60c0,0,0-35.35,0-75v-105
	C90,103.65,69.85,83.5,45,83.5z"/>
<path style="fill:#EB7330;" d="M467,83.5c-24.85,0-45,20.15-45,45v105c0,39.65,0,75,0,75h60V164.3c17.48-4.21,30-16.21,30-35.8
	C512,103.65,491.85,83.5,467,83.5z"/>
<g>
</g>
<g>
</g>
<g>
</g>
<g>
</g>
<g>
</g>
<g>
</g>
<g>
</g>
<g>
</g>
<g>
</g>
<g>
</g>
<g>
</g>
<g>
</g>
<g>
</g>
<g>
</g>
<g>
</g>
</svg>
