<?xml version="1.0" encoding="iso-8859-1"?>
<!-- Generator: Adobe Illustrator 18.0.0, SVG Export Plug-In . SVG Version: 6.00 Build 0)  -->
<!DOCTYPE svg PUBLIC "-//W3C//DTD SVG 1.1//EN" "http://www.w3.org/Graphics/SVG/1.1/DTD/svg11.dtd">
<svg version="1.1" id="Capa_1" xmlns="http://www.w3.org/2000/svg" xmlns:xlink="http://www.w3.org/1999/xlink" x="0px" y="0px"
	 viewBox="0 0 58 58" style="enable-background:new 0 0 58 58;" xml:space="preserve">
<g>
	<rect x="10" y="10" style="fill:#8F6127;" width="38" height="38"/>
	<rect x="10" y="0" style="fill:#AD7E4E;" width="48" height="10"/>
	<rect x="48" y="10" style="fill:#CA965A;" width="10" height="48"/>
	<rect x="0" y="48" style="fill:#AD7E4E;" width="48" height="10"/>
	<rect x="0" y="0" style="fill:#CA965A;" width="10" height="48"/>
	<g>
		<circle style="fill:#E6E7E8;" cx="54" cy="3" r="1"/>
		<circle style="fill:#E6E7E8;" cx="50" cy="3" r="1"/>
		<circle style="fill:#E6E7E8;" cx="54" cy="7" r="1"/>
		<circle style="fill:#E6E7E8;" cx="50" cy="7" r="1"/>
		<circle style="fill:#E6E7E8;" cx="55" cy="54" r="1"/>
		<circle style="fill:#E6E7E8;" cx="55" cy="50" r="1"/>
		<circle style="fill:#E6E7E8;" cx="51" cy="54" r="1"/>
		<circle style="fill:#E6E7E8;" cx="51" cy="50" r="1"/>
		<circle style="fill:#E6E7E8;" cx="4" cy="55" r="1"/>
		<circle style="fill:#E6E7E8;" cx="8" cy="55" r="1"/>
		<circle style="fill:#E6E7E8;" cx="4" cy="51" r="1"/>
		<circle style="fill:#E6E7E8;" cx="8" cy="51" r="1"/>
		<circle style="fill:#E6E7E8;" cx="3" cy="4" r="1"/>
		<circle style="fill:#E6E7E8;" cx="3" cy="8" r="1"/>
		<circle style="fill:#E6E7E8;" cx="7" cy="4" r="1"/>
		<circle style="fill:#E6E7E8;" cx="7" cy="8" r="1"/>
	</g>
	<polygon style="fill:#70491E;" points="38.459,48 48,38.459 48,27.146 27.146,48 	"/>
	<polygon style="fill:#70491E;" points="48,15.832 48,10 42.518,10 10,42.518 10,48 15.832,48 	"/>
	<polygon style="fill:#70491E;" points="10,31.205 31.205,10 19.891,10 10,19.891 	"/>
</g>
<g>
</g>
<g>
</g>
<g>
</g>
<g>
</g>
<g>
</g>
<g>
</g>
<g>
</g>
<g>
</g>
<g>
</g>
<g>
</g>
<g>
</g>
<g>
</g>
<g>
</g>
<g>
</g>
<g>
</g>
</svg>
