<?xml version="1.0" encoding="iso-8859-1"?>
<!-- Generator: Adobe Illustrator 19.0.0, SVG Export Plug-In . SVG Version: 6.00 Build 0)  -->
<svg version="1.1" id="Capa_1" xmlns="http://www.w3.org/2000/svg" xmlns:xlink="http://www.w3.org/1999/xlink" x="0px" y="0px"
	 viewBox="0 0 512 512" style="enable-background:new 0 0 512 512;" xml:space="preserve">
<path style="fill:#1D83D8;" d="M374.83,0h-92.426c-3.512,0-6.358,2.847-6.358,6.358v361.144c0,3.511,2.847,6.358,6.358,6.358h-0.519
	v39.74l20.342,85.67c1.772,7.461,8.436,12.728,16.105,12.728h20.57c7.669,0,14.333-5.267,16.105-12.728l20.342-85.67v-39.74h-0.519
	c3.511,0,6.358-2.847,6.358-6.358V6.358C381.188,2.847,378.341,0,374.83,0z"/>
<path style="fill:#147BC1;" d="M374.83,0.002h-26.983V373.86v0.002l0.108,39.739l-22.746,98.396h14.231
	c7.705,0,14.392-5.317,16.127-12.824l19.781-85.572V413.6v-39.74h-0.482c3.494-0.02,6.321-2.857,6.321-6.356V6.36
	C381.188,2.848,378.341,0.002,374.83,0.002z"/>
<path style="fill:#34DAE2;" d="M229.601,0.002h-92.426c-3.511,0-6.358,2.847-6.358,6.358v361.144c0,3.512,2.847,6.358,6.358,6.358
	h-0.519v39.74l20.342,85.67c1.771,7.461,8.435,12.728,16.104,12.728h20.571c7.668,0,14.333-5.267,16.105-12.728l20.342-85.67v-39.74
	h-0.519c3.511,0,6.358-2.847,6.358-6.358V6.36C235.959,2.848,233.112,0.002,229.601,0.002z"/>
<path style="fill:#31BCBC;" d="M229.601,0.002h-26.983V373.86v0.002V413.6l-22.642,98.397h14.231
	c7.705,0,14.392-5.317,16.127-12.824l19.781-85.572l0.004-39.741h-0.482c3.494-0.02,6.321-2.857,6.321-6.356V6.36
	C235.959,2.848,233.112,0.002,229.601,0.002z"/>
<g>
	<rect x="276.042" y="65.55" style="fill:#E4E8EB;" width="105.14" height="242.76"/>
	<rect x="130.812" y="65.55" style="fill:#E4E8EB;" width="105.14" height="242.76"/>
</g>
<g>
	<rect x="202.622" y="65.55" style="fill:#D6D6D6;" width="33.34" height="242.76"/>
	<rect x="347.212" y="65.55" style="fill:#D6D6D6;" width="33.34" height="242.76"/>
</g>
<g>
</g>
<g>
</g>
<g>
</g>
<g>
</g>
<g>
</g>
<g>
</g>
<g>
</g>
<g>
</g>
<g>
</g>
<g>
</g>
<g>
</g>
<g>
</g>
<g>
</g>
<g>
</g>
<g>
</g>
</svg>
