<?xml version="1.0" encoding="iso-8859-1"?>
<!-- Generator: Adobe Illustrator 19.0.0, SVG Export Plug-In . SVG Version: 6.00 Build 0)  -->
<svg version="1.1" id="Capa_1" xmlns="http://www.w3.org/2000/svg" xmlns:xlink="http://www.w3.org/1999/xlink" x="0px" y="0px"
	 viewBox="0 0 58 58" style="enable-background:new 0 0 58 58;" xml:space="preserve">
<g id="XMLID_10_">
	<path id="XMLID_121_" style="fill:#D1D4D2;" d="M54.783,50H3.217C1.44,50,0,48.56,0,46.783V11.217C0,9.44,1.44,8,3.217,8h51.566
		C56.56,8,58,9.44,58,11.217v35.566C58,48.56,56.56,50,54.783,50"/>
	<rect id="XMLID_120_" y="13" style="fill:#A5A5A4;" width="58" height="8"/>
	<path id="XMLID_119_" style="fill:#FFFFFF;" d="M15,28H7c-0.552,0-1-0.448-1-1s0.448-1,1-1h8c0.552,0,1,0.448,1,1S15.552,28,15,28"
		/>
	<path id="XMLID_118_" style="fill:#FFFFFF;" d="M27,28h-8c-0.552,0-1-0.448-1-1s0.448-1,1-1h8c0.552,0,1,0.448,1,1S27.552,28,27,28
		"/>
	<path id="XMLID_117_" style="fill:#FFFFFF;" d="M8,33H7c-0.552,0-1-0.448-1-1s0.448-1,1-1h1c0.552,0,1,0.448,1,1S8.552,33,8,33"/>
	<path id="XMLID_116_" style="fill:#FFFFFF;" d="M14,33h-2c-0.552,0-1-0.448-1-1s0.448-1,1-1h2c0.552,0,1,0.448,1,1S14.552,33,14,33
		"/>
	<path id="XMLID_115_" style="fill:#FFFFFF;" d="M19,33h-1c-0.552,0-1-0.448-1-1s0.448-1,1-1h1c0.552,0,1,0.448,1,1S19.552,33,19,33
		"/>
	<path id="XMLID_114_" style="fill:#FFFFFF;" d="M25,33h-2c-0.552,0-1-0.448-1-1s0.448-1,1-1h2c0.552,0,1,0.448,1,1S25.552,33,25,33
		"/>
	<path id="XMLID_113_" style="fill:#FFFFFF;" d="M29,33c-0.26,0-0.52-0.11-0.71-0.29C28.11,32.52,28,32.27,28,32
		c0-0.26,0.11-0.52,0.29-0.71c0.37-0.37,1.05-0.37,1.42,0C29.89,31.48,30,31.74,30,32s-0.11,0.52-0.29,0.71
		C29.52,32.89,29.26,33,29,33"/>
	<path id="XMLID_112_" style="fill:#FFFFFF;" d="M47,33h-1c-0.552,0-1-0.448-1-1s0.448-1,1-1h1c0.552,0,1,0.448,1,1S47.552,33,47,33
		"/>
	<path id="XMLID_111_" style="fill:#FFFFFF;" d="M51,33c-0.26,0-0.52-0.11-0.71-0.29C50.11,32.52,50,32.26,50,32
		s0.11-0.52,0.29-0.71c0.37-0.37,1.05-0.37,1.42,0C51.89,31.48,52,31.74,52,32s-0.11,0.52-0.29,0.71C51.52,32.89,51.26,33,51,33"/>
	<path id="XMLID_110_" style="fill:#FFFFFF;" d="M39,28h-8c-0.552,0-1-0.448-1-1s0.448-1,1-1h8c0.552,0,1,0.448,1,1S39.552,28,39,28
		"/>
	<path id="XMLID_109_" style="fill:#FFFFFF;" d="M51,28h-8c-0.552,0-1-0.448-1-1s0.448-1,1-1h8c0.552,0,1,0.448,1,1S51.552,28,51,28
		"/>
	<path id="XMLID_108_" style="fill:#FFFFFF;" d="M38,33h-5c-0.552,0-1-0.448-1-1s0.448-1,1-1h5c0.552,0,1,0.448,1,1S38.552,33,38,33
		"/>
	<path id="XMLID_107_" style="fill:#FFFFFF;" d="M42,33c-0.26,0-0.52-0.11-0.71-0.29C41.11,32.52,41,32.26,41,32
		s0.11-0.52,0.29-0.71c0.37-0.37,1.05-0.37,1.42,0C42.89,31.48,43,31.74,43,32s-0.11,0.52-0.29,0.71C42.52,32.89,42.26,33,42,33"/>
	<path id="XMLID_106_" style="fill:#4482C4;" d="M36.701,36.4c-2.843,1.479-3.242,4.713-3.339,7.6l1.707-0.707
		c-0.935-0.784-1.87-1.568-2.806-2.351c-0.979-0.821-2.402,0.586-1.414,1.414c0.935,0.784,1.871,1.567,2.806,2.351
		c0.658,0.551,1.677,0.203,1.707-0.707c0.073-2.166,0.175-4.742,2.348-5.873C38.853,37.533,37.842,35.806,36.701,36.4"/>
	<path id="XMLID_105_" style="fill:#4482C4;" d="M37.701,41.08c2.104,2.287,4.886,1.221,7.18-0.187
		c-0.456-0.12-0.912-0.239-1.368-0.359c0.541,0.965,1.31,1.665,2.424,1.89c0.793,0.16,4.025-1.14,4.2-0.901
		c0.751,1.029,2.488,0.032,1.727-1.009c-0.516-0.707-0.993-1.084-1.908-1.142c-1.458-0.092-3.593,2.155-4.717,0.153
		c-0.26-0.464-0.913-0.638-1.368-0.359c-1.416,0.869-3.266,2.119-4.756,0.5C38.242,38.717,36.83,40.134,37.701,41.08"/>
</g>
<g>
</g>
<g>
</g>
<g>
</g>
<g>
</g>
<g>
</g>
<g>
</g>
<g>
</g>
<g>
</g>
<g>
</g>
<g>
</g>
<g>
</g>
<g>
</g>
<g>
</g>
<g>
</g>
<g>
</g>
</svg>
