<?xml version="1.0" encoding="iso-8859-1"?>
<!-- Generator: Adobe Illustrator 19.0.0, SVG Export Plug-In . SVG Version: 6.00 Build 0)  -->
<svg version="1.1" id="Capa_1" xmlns="http://www.w3.org/2000/svg" xmlns:xlink="http://www.w3.org/1999/xlink" x="0px" y="0px"
	 viewBox="0 0 512 512" style="enable-background:new 0 0 512 512;" xml:space="preserve">
<polygon style="fill:#FFE97F;" points="73.258,282.146 117.426,512 394.574,512 438.743,282.146 "/>
<polygon style="fill:#FFDB2D;" points="256,282.146 256,512 394.574,512 438.743,282.146 "/>
<path style="fill:#71CDF7;" d="M128.235,323.274c-34.31,0-62.223-27.913-62.223-62.223s27.913-62.223,62.223-62.223h177.528
	l10.738-21.084h56.723c40.122,0,72.764,32.642,72.764,72.765s-32.642,72.765-72.764,72.765H128.235z"/>
<rect x="166.33" y="384" style="fill:#FFDB2D;" width="30" height="53.33"/>
<rect x="315.67" y="384" style="fill:#FCB72C;" width="30" height="53.33"/>
<rect x="241" y="384" style="fill:#FFDB2D;" width="30" height="53.33"/>
<rect x="256" y="384" style="fill:#FCB72C;" width="15" height="53.33"/>
<path style="fill:#4EC1F5;" d="M373.223,177.745h-56.722l-10.738,21.084H256v124.445h117.223c40.123,0,72.765-32.642,72.765-72.765
	S413.346,177.745,373.223,177.745z"/>
<path style="fill:#95DAF9;" d="M355.333,120.904h-96.729l-5.55-22.198l-5.189-20.758h-21.396h-48.324
	c-47.678,0-86.466,38.789-86.466,86.467c0,47.677,38.789,86.467,86.466,86.467h177.188c35.835,0,64.988-29.154,64.988-64.989
	S391.168,120.904,355.333,120.904z"/>
<path style="fill:#71CDF7;" d="M355.333,120.904h-96.729L256,110.489v140.393h99.333c35.835,0,64.988-29.154,64.988-64.989
	S391.168,120.904,355.333,120.904z"/>
<path style="fill:#FD0023;" d="M279.167,0H256h-21.884l-4.841,21.342l-4.903,21.613h-13.017c-35.835,0-64.989,29.154-64.989,64.989
	s29.154,64.989,64.989,64.989h67.812c47.678,0,86.466-38.789,86.466-86.466S326.845,0,279.167,0z"/>
<path style="fill:#E60020;" d="M279.167,0H256l0,0v172.933h23.167c47.678,0,86.467-38.789,86.467-86.466S326.845,0,279.167,0z"/>
<g>
</g>
<g>
</g>
<g>
</g>
<g>
</g>
<g>
</g>
<g>
</g>
<g>
</g>
<g>
</g>
<g>
</g>
<g>
</g>
<g>
</g>
<g>
</g>
<g>
</g>
<g>
</g>
<g>
</g>
</svg>
