<?xml version="1.0" encoding="iso-8859-1"?>
<!-- Generator: Adobe Illustrator 19.0.0, SVG Export Plug-In . SVG Version: 6.00 Build 0)  -->
<svg version="1.1" id="Layer_1" xmlns="http://www.w3.org/2000/svg" xmlns:xlink="http://www.w3.org/1999/xlink" x="0px" y="0px"
	 viewBox="0 0 512 512" style="enable-background:new 0 0 512 512;" xml:space="preserve">
<path style="fill:#FF9269;" d="M256.829,0.003v154.163c42.605,0,77.081-34.476,77.081-77.081S299.436,0.003,256.829,0.003z"/>
<path style="fill:#FFB082;" d="M256.829,0.003c-42.605,0-77.081,34.476-77.081,77.081s34.476,77.081,77.081,77.081
	c29.169,0,52.773-34.476,52.773-77.081S285.999,0.003,256.829,0.003z"/>
<path style="fill:#C20035;" d="M256,183.425v135.639h135.639C391.639,244.153,330.912,183.425,256,183.425z"/>
<path style="fill:#FF0F47;" d="M256,183.425c-74.912,0-135.639,60.728-135.639,135.639h237.522
	C357.881,244.153,312.268,183.425,256,183.425z"/>
<polygon style="fill:#F3A933;" points="330.08,424.912 294.24,461.404 301.78,511.997 255.992,489.199 240.238,434.919 
	255.992,371.09 279.634,416.45 "/>
<polygon style="fill:#FFBE35;" points="255.992,371.09 255.992,489.199 210.216,511.997 217.744,461.404 181.915,424.912 
	232.361,416.45 "/>
<polygon style="fill:#F3A933;" points="512,424.912 476.16,461.404 483.699,511.997 437.912,489.199 422.158,434.919 
	437.912,371.09 461.554,416.45 "/>
<polygon style="fill:#FFBE35;" points="437.912,371.09 437.912,489.199 392.136,511.997 399.664,461.404 363.835,424.912 
	414.281,416.45 "/>
<path style="fill:#FF754F;" d="M256,117.03c-11.388,0-22.221-4.948-29.721-13.575c-3.059-3.519-2.685-8.848,0.833-11.907
	c3.516-3.059,8.848-2.686,11.907,0.832c4.293,4.94,10.483,7.771,16.982,7.771c6.498,0,12.689-2.832,16.982-7.771
	c3.059-3.516,8.39-3.889,11.907-0.832c3.518,3.059,3.891,8.388,0.833,11.907C278.221,112.081,267.388,117.03,256,117.03z"/>
<polygon style="fill:#F3A933;" points="148.165,424.912 112.325,461.404 119.864,511.997 74.077,489.199 58.323,434.919 
	74.077,371.09 97.719,416.45 "/>
<polygon style="fill:#FFBE35;" points="74.077,371.09 74.077,489.199 28.301,511.997 35.829,461.404 0,424.912 50.446,416.45 "/>
<g>
</g>
<g>
</g>
<g>
</g>
<g>
</g>
<g>
</g>
<g>
</g>
<g>
</g>
<g>
</g>
<g>
</g>
<g>
</g>
<g>
</g>
<g>
</g>
<g>
</g>
<g>
</g>
<g>
</g>
</svg>
