<?xml version="1.0" encoding="iso-8859-1"?>
<!-- Generator: Adobe Illustrator 19.0.0, SVG Export Plug-In . SVG Version: 6.00 Build 0)  -->
<svg version="1.1" id="Capa_1" xmlns="http://www.w3.org/2000/svg" xmlns:xlink="http://www.w3.org/1999/xlink" x="0px" y="0px"
	 viewBox="0 0 420 420" style="enable-background:new 0 0 420 420;" xml:space="preserve">
<g id="XMLID_1214_">
	<path id="XMLID_1215_" style="fill:#FFDA44;" d="M209.667,360H180v-30v-50V80l-30,10v270c0,33.137,26.863,60,60,60v-60H209.667z"/>
	<path id="XMLID_1216_" style="fill:#FF9811;" d="M240,80v200v50v30h-30v60c33.137,0,60-26.863,60-60V90L240,80z"/>
	<polygon id="XMLID_1217_" style="fill:#ACABB1;" points="209.667,280 240,280 240,80 240,30 180,0 209.667,14.834 	"/>
	<polygon id="XMLID_1218_" style="fill:#ACABB1;" points="209.667,330 209.667,360 210,360 240,360 240,330 	"/>
	<rect id="XMLID_1219_" x="180" y="330" style="fill:#DEDDE0;" width="29.667" height="30"/>
	<polygon id="XMLID_1220_" style="fill:#DEDDE0;" points="209.667,280 209.667,14.834 180,0 180,80 180,280 	"/>
	<polygon id="XMLID_1221_" style="fill:#565659;" points="209.667,280 180,280 180,330 209.667,330 240,330 240,280 	"/>
</g>
<g>
</g>
<g>
</g>
<g>
</g>
<g>
</g>
<g>
</g>
<g>
</g>
<g>
</g>
<g>
</g>
<g>
</g>
<g>
</g>
<g>
</g>
<g>
</g>
<g>
</g>
<g>
</g>
<g>
</g>
</svg>
