<?xml version="1.0" encoding="iso-8859-1"?>
<!-- Generator: Adobe Illustrator 19.0.0, SVG Export Plug-In . SVG Version: 6.00 Build 0)  -->
<svg version="1.1" id="Layer_1" xmlns="http://www.w3.org/2000/svg" xmlns:xlink="http://www.w3.org/1999/xlink" x="0px" y="0px"
	 viewBox="0 0 495 495" style="enable-background:new 0 0 495 495;" xml:space="preserve">
<g>
	<polygon style="fill:#00CCB3;" points="220.418,249.573 220.418,121.03 147.5,121.03 147.5,249.573 127.5,249.573 127.5,495 
		201.82,495 201.82,329.573 247.5,329.573 247.5,249.573 	"/>
	<polygon style="fill:#6E76E5;" points="347.5,249.573 347.5,121.03 274.582,121.03 274.582,249.573 247.5,249.573 247.5,329.573 
		293.18,329.573 293.18,495 367.5,495 367.5,249.573 	"/>
	<polygon style="fill:#515BE0;" points="387.5,121.03 387.5,249.573 367.5,249.573 367.5,495 441.82,495 441.82,329.573 
		460.418,329.573 460.418,121.03 	"/>
	<polygon style="fill:#00EED1;" points="107.5,249.573 107.5,121.03 34.582,121.03 34.582,329.573 53.18,329.573 53.18,495 
		127.5,495 127.5,249.573 	"/>
	<rect x="347.5" y="121.03" style="fill:#00EED1;" width="40" height="128.542"/>
	<path style="fill:#6E76E5;" d="M367.5,110.989V0c-30.6,0-55.494,24.895-55.494,55.494S336.9,110.989,367.5,110.989z"/>
	<rect x="107.5" y="121.03" style="fill:#424EDE;" width="40" height="128.542"/>
	<path style="fill:#6E76E5;" d="M127.5,110.989V0C96.9,0,72.006,24.895,72.006,55.494S96.9,110.989,127.5,110.989z"/>
	<path style="fill:#515BE0;" d="M422.994,55.494C422.994,24.895,398.1,0,367.5,0v110.989
		C398.1,110.989,422.994,86.094,422.994,55.494z"/>
	<path style="fill:#515BE0;" d="M182.994,55.494C182.994,24.895,158.1,0,127.5,0v110.989
		C158.1,110.989,182.994,86.094,182.994,55.494z"/>
</g>
<g>
</g>
<g>
</g>
<g>
</g>
<g>
</g>
<g>
</g>
<g>
</g>
<g>
</g>
<g>
</g>
<g>
</g>
<g>
</g>
<g>
</g>
<g>
</g>
<g>
</g>
<g>
</g>
<g>
</g>
</svg>
