<?xml version="1.0" encoding="iso-8859-1"?>
<!-- Generator: Adobe Illustrator 19.0.0, SVG Export Plug-In . SVG Version: 6.00 Build 0)  -->
<svg version="1.1" id="Capa_1" xmlns="http://www.w3.org/2000/svg" xmlns:xlink="http://www.w3.org/1999/xlink" x="0px" y="0px"
	 viewBox="0 0 512 512" style="enable-background:new 0 0 512 512;" xml:space="preserve">
<path style="fill:#974C00;" d="M482,16.663v33.679c0,18.257-14.853,33.11-33.11,33.11h-2.928c2.909-6.409,4.543-13.515,4.543-21
	V16.663h-30v45.789c0,11.58-9.421,21-21,21h-14.574c2.909-6.409,4.543-13.515,4.543-21V16.663h-30v45.789c0,11.58-9.42,21-20.999,21
	v0.266c-32.162,2.866-57.465,29.949-57.465,62.844h30c0-18.257,14.854-33.11,33.11-33.11h104.77c34.799,0,63.11-28.311,63.11-63.11
	V16.663H482z"/>
<path style="fill:#E37500;" d="M173.525,83.717v-0.266c-11.579,0-20.999-9.42-20.999-21V16.663h-30v45.789
	c0,7.485,1.634,14.591,4.543,21h-14.574c-11.579,0-21-9.42-21-21V16.663h-30v45.789c0,7.485,1.634,14.591,4.543,21H63.11
	C44.854,83.451,30,68.599,30,50.341V16.663H0v33.679c0,34.799,28.312,63.11,63.11,63.11h104.77c18.257,0,33.11,14.853,33.11,33.11
	h30C230.99,113.666,205.688,86.584,173.525,83.717z"/>
<path style="fill:#974C00;" d="M345.033,146.49v30h8.824l25.376,43.136h0.001l-5.649,13.895
	c18.564,7.548,35.695,11.323,51.284,11.322c15.035,0,28.636-3.513,40.695-10.538c37.34-21.751,43.883-68.88,44.142-70.876
	l2.209-16.94L345.033,146.49L345.033,146.49z"/>
<path style="fill:#E37500;" d="M2.304,163.43c0.26,1.996,6.803,49.125,44.143,70.876c12.061,7.026,25.658,10.538,40.695,10.538
	c15.587,0,32.722-3.775,51.284-11.322l-5.649-13.895l0,0l25.377-43.136h8.824v-30H0.095L2.304,163.43z"/>
<path style="fill:#FFA720;" d="M394.49,268.878c-8.49,60.08-29.36,114.97-46.43,152.19c-12.7,27.7-23.29,45.62-25.08,48.61
	c-2.52,4.51-12.04,17.63-39.47,23.16c-7.69,1.55-16.77,2.5-27.51,2.5c-10.74,0-19.82-0.95-27.51-2.5
	c-27.43-5.53-36.95-18.65-39.47-23.16c-1.79-2.99-12.38-20.91-25.08-48.61c-17.07-37.22-37.94-92.11-46.43-152.19
	c-8.57-60.65,12.48-94.69,31.65-112.57c21.08-19.65,44.59-24.3,45.58-24.48l1.39-0.27h119.74l1.39,0.27
	c0.99,0.18,24.5,4.83,45.58,24.48C382.01,174.188,403.06,208.227,394.49,268.878z"/>
<path style="fill:#FF8600;" d="M394.49,268.878c-14.8,104.78-67.3,193.8-71.51,200.8c-2.52,4.51-12.04,17.63-39.47,23.16
	c-7.69,1.55-16.77,2.5-27.51,2.5v-363.78h59.87l1.39,0.27c0.99,0.18,24.5,4.83,45.58,24.48
	C382.01,174.188,403.06,208.227,394.49,268.878z"/>
<path style="fill:#FFD8A6;" d="M348.06,421.068c-3.57,7.8-6.98,14.82-10.06,20.94c-0.35,0.68-0.69,1.35-1.02,2.01
	c-0.5,0.99-0.99,1.94-1.48,2.87c-0.19,0.37-0.37,0.73-0.56,1.09c-1.87,3.62-3.59,6.84-5.12,9.63c-0.25,0.47-0.5,0.93-0.75,1.38
	c-2.61,4.75-4.54,8.08-5.56,9.8c-0.08,0.14-0.15,0.26-0.22,0.37c-0.12,0.21-0.23,0.38-0.31,0.52c-2.52,4.51-12.04,17.63-39.47,23.16
	c-7.69,1.55-16.77,2.5-27.51,2.5c-10.74,0-19.82-0.95-27.51-2.5c-27.43-5.53-36.95-18.65-39.47-23.16
	c-1.79-2.99-12.38-20.91-25.08-48.61c0,0,27.06-36.26,92.06-36.26S348.06,421.068,348.06,421.068z"/>
<circle style="fill:#57555C;" cx="207" cy="263.579" r="15.04"/>
<circle style="fill:#3A3A41;" cx="305" cy="263.579" r="15.04"/>
<path style="fill:#FFC173;" d="M348.06,421.068c-3.57,7.8-6.98,14.82-10.06,20.94c-0.35,0.68-0.69,1.35-1.02,2.01
	c-0.5,0.99-0.99,1.94-1.48,2.87c-0.19,0.37-0.37,0.73-0.56,1.09c-1.87,3.62-3.59,6.84-5.12,9.63c-0.25,0.47-0.5,0.93-0.75,1.38
	c-2.61,4.75-4.54,8.08-5.56,9.8c-0.08,0.13-0.15,0.26-0.22,0.37c-0.12,0.21-0.23,0.38-0.31,0.52c-2.52,4.51-12.04,17.63-39.47,23.16
	c-7.69,1.55-16.77,2.5-27.51,2.5v-110.53C321,384.807,348.06,421.068,348.06,421.068z"/>
<path style="fill:#E37500;" d="M283.51,447.807v45.03c-7.69,1.55-16.77,2.5-27.51,2.5c-10.74,0-19.82-0.95-27.51-2.5v-45.03H283.51z
	"/>
<path style="fill:#974C00;" d="M283.51,447.807v45.03c-7.69,1.55-16.77,2.5-27.51,2.5v-47.53H283.51z"/>
<g>
</g>
<g>
</g>
<g>
</g>
<g>
</g>
<g>
</g>
<g>
</g>
<g>
</g>
<g>
</g>
<g>
</g>
<g>
</g>
<g>
</g>
<g>
</g>
<g>
</g>
<g>
</g>
<g>
</g>
</svg>
