<?xml version="1.0" encoding="iso-8859-1"?>
<!-- Generator: Adobe Illustrator 18.0.0, SVG Export Plug-In . SVG Version: 6.00 Build 0)  -->
<!DOCTYPE svg PUBLIC "-//W3C//DTD SVG 1.1//EN" "http://www.w3.org/Graphics/SVG/1.1/DTD/svg11.dtd">
<svg version="1.1" id="Capa_1" xmlns="http://www.w3.org/2000/svg" xmlns:xlink="http://www.w3.org/1999/xlink" x="0px" y="0px"
	 viewBox="0 0 59 59" style="enable-background:new 0 0 59 59;" xml:space="preserve">
<g>
	<rect x="15" y="4.5" style="fill:#E8D5B2;" width="15" height="42"/>
	<rect x="30" y="25.5" style="fill:#A98258;" width="26" height="21"/>
	<circle style="fill:#8697CB;" cx="40.5" cy="15" r="10.5"/>
	<rect x="20" y="4.5" style="fill:#CBB292;" width="5" height="6"/>
	<rect x="40" y="25.5" style="fill:#F4D5BD;" width="5" height="6"/>
	<circle style="fill:#556080;" cx="19" cy="51.5" r="4"/>
	<circle style="fill:#556080;" cx="49" cy="51.5" r="4"/>
	<path style="fill:#BDC3C7;" d="M58,47.5H9c-0.553,0-1-0.447-1-1s0.447-1,1-1h49c0.553,0,1,0.447,1,1S58.553,47.5,58,47.5z"/>
	<path style="fill:#BDC3C7;" d="M9,7.5H4c-0.553,0-1-0.447-1-1s0.447-1,1-1h5c0.553,0,1,0.447,1,1S9.553,7.5,9,7.5z"/>
	<path style="fill:#BDC3C7;" d="M9,47.5c-0.553,0-1-0.447-1-1v-40c0-0.553,0.447-1,1-1s1,0.447,1,1v40C10,47.053,9.553,47.5,9,47.5z
		"/>
	<circle style="fill:#D8625E;" cx="3" cy="6.5" r="3"/>
</g>
<g>
</g>
<g>
</g>
<g>
</g>
<g>
</g>
<g>
</g>
<g>
</g>
<g>
</g>
<g>
</g>
<g>
</g>
<g>
</g>
<g>
</g>
<g>
</g>
<g>
</g>
<g>
</g>
<g>
</g>
</svg>
