<?xml version="1.0" encoding="iso-8859-1"?>
<!-- Generator: Adobe Illustrator 19.0.0, SVG Export Plug-In . SVG Version: 6.00 Build 0)  -->
<svg version="1.1" id="Layer_1" xmlns="http://www.w3.org/2000/svg" xmlns:xlink="http://www.w3.org/1999/xlink" x="0px" y="0px"
	 viewBox="0 0 512 512" style="enable-background:new 0 0 512 512;" xml:space="preserve">
<path style="fill:#C7E7EB;" d="M486.681,486.681H25.319V25.319h461.363V486.681z M42.198,469.802h427.604V42.198H42.198V469.802z"/>
<g>
	<rect style="fill:#88ACB5;" width="67.516" height="67.516"/>
	<rect x="444.484" style="fill:#88ACB5;" width="67.516" height="67.516"/>
	<rect y="444.484" style="fill:#88ACB5;" width="67.516" height="67.516"/>
	<rect x="444.484" y="444.484" style="fill:#88ACB5;" width="67.516" height="67.516"/>
</g>
<g>
	<path style="fill:#A7CBCF;" d="M399.473,104.094H112.527c-4.661,0-8.44,3.778-8.44,8.44v143.466c0,4.662,3.779,8.44,8.44,8.44
		h286.945c4.661,0,8.44-3.778,8.44-8.44V112.533C407.912,107.871,404.133,104.094,399.473,104.094z M237.128,184.266
		l-116.161,58.078V126.188L237.128,184.266z M148.279,120.973H363.72L256,174.831L148.279,120.973z M256,193.701l107.721,53.858
		H148.279L256,193.701z M274.872,184.266l116.161-58.078v116.156L274.872,184.266z"/>
	<path style="fill:#A7CBCF;" d="M239.121,407.912H112.527c-4.661,0-8.44-3.778-8.44-8.44s3.779-8.44,8.44-8.44h126.593
		c4.661,0,8.44,3.778,8.44,8.44S243.782,407.912,239.121,407.912z"/>
	<path style="fill:#A7CBCF;" d="M399.473,407.912H272.879c-4.661,0-8.44-3.778-8.44-8.44s3.779-8.44,8.44-8.44h126.593
		c4.661,0,8.44,3.778,8.44,8.44S404.133,407.912,399.473,407.912z"/>
	<path style="fill:#A7CBCF;" d="M239.121,372.044H112.527c-4.661,0-8.44-3.778-8.44-8.44s3.779-8.44,8.44-8.44h126.593
		c4.661,0,8.44,3.778,8.44,8.44S243.782,372.044,239.121,372.044z"/>
	<path style="fill:#A7CBCF;" d="M399.473,372.044H272.879c-4.661,0-8.44-3.778-8.44-8.44s3.779-8.44,8.44-8.44h126.593
		c4.661,0,8.44,3.778,8.44,8.44S404.133,372.044,399.473,372.044z"/>
	<path style="fill:#A7CBCF;" d="M239.121,336.176H112.527c-4.661,0-8.44-3.778-8.44-8.44s3.779-8.44,8.44-8.44h126.593
		c4.661,0,8.44,3.778,8.44,8.44S243.782,336.176,239.121,336.176z"/>
	<path style="fill:#A7CBCF;" d="M399.473,336.176H272.879c-4.661,0-8.44-3.778-8.44-8.44s3.779-8.44,8.44-8.44h126.593
		c4.661,0,8.44,3.778,8.44,8.44S404.133,336.176,399.473,336.176z"/>
	<path style="fill:#A7CBCF;" d="M399.473,300.307H112.527c-4.661,0-8.44-3.778-8.44-8.44s3.779-8.44,8.44-8.44h286.945
		c4.661,0,8.44,3.778,8.44,8.44S404.133,300.307,399.473,300.307z"/>
</g>
<g>
</g>
<g>
</g>
<g>
</g>
<g>
</g>
<g>
</g>
<g>
</g>
<g>
</g>
<g>
</g>
<g>
</g>
<g>
</g>
<g>
</g>
<g>
</g>
<g>
</g>
<g>
</g>
<g>
</g>
</svg>
