<?xml version="1.0" encoding="iso-8859-1"?>
<!-- Generator: Adobe Illustrator 19.0.0, SVG Export Plug-In . SVG Version: 6.00 Build 0)  -->
<svg version="1.1" id="Layer_1" xmlns="http://www.w3.org/2000/svg" xmlns:xlink="http://www.w3.org/1999/xlink" x="0px" y="0px"
	 viewBox="0 0 498.29 498.29" style="enable-background:new 0 0 498.29 498.29;" xml:space="preserve">
<g>
	<path style="fill:#D1E7F8;" d="M394.872,170.019L291.666,66.813c0,0,14.146,14.147,14.146,14.147l-28.287,28.281l89.062,89.062
		C372.134,185.701,382.27,175.565,394.872,170.019z"/>
	<path style="fill:#D1E7F8;" d="M416.947,275.379c-7.055,0-13.797-1.35-20-3.781V397.55h40V271.598
		C430.744,274.029,424.002,275.379,416.947,275.379z"/>
	<path style="fill:#B3D8F4;" d="M416.947,165.379c-7.849,0-15.313,1.665-22.076,4.64c-12.602,5.546-22.738,15.682-28.284,28.284
		c-2.976,6.762-4.64,14.226-4.64,22.075c0,23.272,14.536,43.2,35,51.219c6.203,2.431,12.945,3.781,20,3.781V165.379z"/>
	<path style="fill:#96C8EF;" d="M416.947,275.379c7.055,0,13.797-1.35,20-3.781c20.464-8.019,35-27.947,35-51.219
		c0-30.327-24.673-55-55-55V275.379z"/>
	<polygon style="fill:#FF9811;" points="105.432,498.29 436.952,498.29 436.952,447.92 122.022,447.92 	"/>
	<polygon style="fill:#FFB655;" points="138.602,397.55 122.022,447.92 436.952,447.92 436.952,397.55 	"/>
	<path style="fill:#FF9811;" d="M291.666,66.814L265.332,40.48l-146.4,146.4l92.59,92.59l14.14-14.14
		c35.64-35.64,47.37-88.52,31.18-135.41l20.683-20.679l28.287-28.281L291.666,66.814z"/>
	<path style="fill:#FFB655;" d="M224.852,0l-48.98,48.98c-13.72-4.72-28.29-7.18-42.81-7.18c-34.97,0-67.85,13.62-92.58,38.35
		l-14.14,14.14l92.59,92.59l146.4-146.4L224.852,0z"/>
</g>
<g>
</g>
<g>
</g>
<g>
</g>
<g>
</g>
<g>
</g>
<g>
</g>
<g>
</g>
<g>
</g>
<g>
</g>
<g>
</g>
<g>
</g>
<g>
</g>
<g>
</g>
<g>
</g>
<g>
</g>
</svg>
