<?xml version="1.0" encoding="iso-8859-1"?>
<!-- Generator: Adobe Illustrator 19.0.0, SVG Export Plug-In . SVG Version: 6.00 Build 0)  -->
<svg version="1.1" id="Layer_1" xmlns="http://www.w3.org/2000/svg" xmlns:xlink="http://www.w3.org/1999/xlink" x="0px" y="0px"
	 viewBox="0 0 512 512" style="enable-background:new 0 0 512 512;" xml:space="preserve">
<polygon style="fill:#88ACB5;" points="256.217,305.445 256.217,350.456 213.029,384.214 169.841,350.456 169.841,305.445 "/>
<rect x="169.838" y="350.456" style="fill:#A7CBCF;" width="86.376" height="45.349"/>
<path style="fill:#5195AF;" d="M329.066,387.363H97.413c-4.662,0-8.44,3.779-8.44,8.44s3.778,8.44,8.44,8.44h231.652
	c4.662,0,8.44-3.779,8.44-8.44S333.727,387.363,329.066,387.363z"/>
<path style="fill:#A7CBCF;" d="M416.791,0h-33.758v293.258l43.447-22.505V9.689C426.479,4.366,422.113,0,416.791,0z"/>
<path style="fill:#C7E7EB;" d="M383.032,0H9.689C4.366,0,0,4.366,0,9.689v261.064l33.758,22.505h358.963V9.689
	C392.721,4.366,388.355,0,383.032,0z"/>
<path style="fill:#367596;" d="M392.721,270.752l-9.689,57.198h33.758c5.323,0,9.689-4.355,9.689-9.689v-47.509L392.721,270.752
	L392.721,270.752z"/>
<path style="fill:#5195AF;" d="M0,270.752v47.509c0,5.334,4.366,9.689,9.689,9.689h373.344c5.323,0,9.689-4.355,9.689-9.689v-47.509
	L0,270.752L0,270.752z"/>
<g>
	<path style="fill:#111449;" d="M502.311,191.983h-33.758v56.264L512,225.741v-24.058C512,196.349,507.634,191.983,502.311,191.983z
		"/>
	<path style="fill:#111449;" d="M468.553,421.978V512h33.758c5.323,0,9.689-4.366,9.689-9.689v-57.828L468.553,421.978z"/>
</g>
<g>
	<path style="fill:#27467A;" d="M468.553,191.983H354.023h-33.758c-5.323,0-9.689,4.366-9.689,9.7v24.058l33.758,22.505h133.908
		v-46.564C478.242,196.349,473.876,191.983,468.553,191.983z"/>
	<path style="fill:#27467A;" d="M344.334,421.978l-33.758,22.506v57.828c0,5.323,4.366,9.689,9.689,9.689h33.758h114.53
		c5.323,0,9.689-4.366,9.689-9.689v-80.333H344.334z"/>
</g>
<path style="fill:#111449;" d="M428.167,486.681h-33.758c-4.662,0-8.44-3.779-8.44-8.44s3.778-8.44,8.44-8.44h33.758
	c4.662,0,8.44,3.779,8.44,8.44S432.829,486.681,428.167,486.681z"/>
<polygon style="fill:#FFEAB5;" points="478.242,225.741 310.576,225.741 310.576,444.484 478.242,444.484 489.495,335.112 "/>
<rect x="478.242" y="225.741" style="fill:#FFCD60;" width="33.758" height="218.742"/>
<g>
</g>
<g>
</g>
<g>
</g>
<g>
</g>
<g>
</g>
<g>
</g>
<g>
</g>
<g>
</g>
<g>
</g>
<g>
</g>
<g>
</g>
<g>
</g>
<g>
</g>
<g>
</g>
<g>
</g>
</svg>
