<?xml version="1.0" encoding="iso-8859-1"?>
<!-- Generator: Adobe Illustrator 19.0.0, SVG Export Plug-In . SVG Version: 6.00 Build 0)  -->
<svg version="1.1" id="Capa_1" xmlns="http://www.w3.org/2000/svg" xmlns:xlink="http://www.w3.org/1999/xlink" x="0px" y="0px"
	 viewBox="0 0 512 512" style="enable-background:new 0 0 512 512;" xml:space="preserve">
<polygon style="fill:#8B2613;" points="407,177.5 206,177.5 256,252.5 407,252.5 "/>
<rect x="105" y="177.5" style="fill:#C7461F;" width="151" height="75"/>
<path style="fill:#F9963B;" d="M49.855,282.5c-0.871-44.231-5.565-68.89-10.121-92.807C34.729,163.41,30,138.584,30,87.5H0
	c0,53.916,5.218,81.313,10.265,107.807C15.271,221.59,20,246.416,20,297.5v127h30v-112h100v112h30v-142H49.855z"/>
<path style="fill:#EB7330;" d="M482,87.5c0,51.084-4.729,75.91-9.735,102.193c-4.556,23.917-9.25,48.575-10.121,92.807H332v142h30
	v-112h100v112h30v-127c0-51.084,4.729-75.91,9.735-102.193C506.782,168.813,512,141.416,512,87.5H482z"/>
<rect x="392" y="177.5" style="fill:#C7461F;" width="30" height="247"/>
<rect x="90" y="177.5" style="fill:#D95D27;" width="30" height="247"/>
<polygon style="fill:#C7461F;" points="452,162.5 256,162.5 226,177.5 256,192.5 452,192.5 "/>
<rect x="60" y="162.5" style="fill:#D95D27;" width="196" height="30"/>
<g>
</g>
<g>
</g>
<g>
</g>
<g>
</g>
<g>
</g>
<g>
</g>
<g>
</g>
<g>
</g>
<g>
</g>
<g>
</g>
<g>
</g>
<g>
</g>
<g>
</g>
<g>
</g>
<g>
</g>
</svg>
