<?xml version="1.0" encoding="iso-8859-1"?>
<!-- Generator: Adobe Illustrator 19.0.0, SVG Export Plug-In . SVG Version: 6.00 Build 0)  -->
<svg version="1.1" id="Capa_1" xmlns="http://www.w3.org/2000/svg" xmlns:xlink="http://www.w3.org/1999/xlink" x="0px" y="0px"
	 viewBox="0 0 512 512" style="enable-background:new 0 0 512 512;" xml:space="preserve">
<path style="fill:#0A4EAF;" d="M216,484.5c-83.262,0-151-67.738-151-151h30c0,66.72,54.28,121,121,121s121-54.28,121-121h30
	C367,416.762,299.262,484.5,216,484.5z"/>
<path style="fill:#CCEFFF;" d="M80,338.5c-44.112,0-80-35.888-80-80s35.888-80,80-80s80,35.888,80,80S124.112,338.5,80,338.5z"/>
<path style="fill:#ACE3FC;" d="M80,178.5v160c44.112,0,80-35.888,80-80S124.112,178.5,80,178.5z"/>
<circle style="fill:#0A4EAF;" cx="80" cy="258.5" r="20"/>
<path style="fill:#CCEFFF;" d="M446.198,32.5c-3.523-3.103-8.134-5-13.198-5c-11.046,0-20,8.954-20,20s8.954,20,20,20
	c5.064,0,9.675-1.897,13.198-5H482v115c0,71.682-58.317,130-130,130s-130-58.318-130-130v-115h36.802c3.523,3.103,8.134,5,13.198,5
	c11.046,0,20-8.954,20-20s-8.954-20-20-20c-5.064,0-9.675,1.897-13.198,5H192v145c0,88.224,71.775,160,160,160s160-71.776,160-160
	v-145H446.198z"/>
<path style="fill:#ACE3FC;" d="M446.198,32.5c-3.523-3.103-8.134-5-13.198-5c-11.046,0-20,8.954-20,20s8.954,20,20,20
	c5.064,0,9.675-1.897,13.198-5H482v115c0,71.682-58.317,130-130,130v30c88.225,0,160-71.776,160-160v-145H446.198z"/>
<g>
</g>
<g>
</g>
<g>
</g>
<g>
</g>
<g>
</g>
<g>
</g>
<g>
</g>
<g>
</g>
<g>
</g>
<g>
</g>
<g>
</g>
<g>
</g>
<g>
</g>
<g>
</g>
<g>
</g>
</svg>
