<?xml version="1.0" encoding="iso-8859-1"?>
<!-- Generator: Adobe Illustrator 19.0.0, SVG Export Plug-In . SVG Version: 6.00 Build 0)  -->
<svg version="1.1" id="Capa_1" xmlns="http://www.w3.org/2000/svg" xmlns:xlink="http://www.w3.org/1999/xlink" x="0px" y="0px"
	 viewBox="0 0 512 512" style="enable-background:new 0 0 512 512;" xml:space="preserve">
<path style="fill:#FEDBAB;" d="M442,185.5v-140H263.082c-22.726,0-43.502,12.84-53.666,33.167L176,145.5H0v30l62.725,109.768
	C73.408,303.962,93.288,315.5,114.82,315.5H246v151h266v-211L442,185.5z"/>
<path style="fill:#FEC478;" d="M512,255.5l-70-70v-140H263.082c-22.726,0-43.502,12.84-53.666,33.167L176,145.5l203,261v60h133
	V255.5z"/>
<path style="fill:#E08344;" d="M382,195.5L382,195.5c-33.137,0-60-26.863-60-60v-90h120v90C442,168.637,415.137,195.5,382,195.5z"/>
<circle style="fill:#713708;" cx="246" cy="140.5" r="20"/>
<rect x="246" y="406.5" style="fill:#00C3FF;" width="266" height="60"/>
<rect x="379" y="406.5" style="fill:#00AAF0;" width="133" height="60"/>
<polygon style="fill:#713708;" points="0,145.5 0,175.5 9.532,192.181 56.213,145.5 "/>
<g>
</g>
<g>
</g>
<g>
</g>
<g>
</g>
<g>
</g>
<g>
</g>
<g>
</g>
<g>
</g>
<g>
</g>
<g>
</g>
<g>
</g>
<g>
</g>
<g>
</g>
<g>
</g>
<g>
</g>
</svg>
