<?xml version="1.0" encoding="iso-8859-1"?>
<!-- Generator: Adobe Illustrator 19.0.0, SVG Export Plug-In . SVG Version: 6.00 Build 0)  -->
<svg version="1.1" id="Layer_1" xmlns="http://www.w3.org/2000/svg" xmlns:xlink="http://www.w3.org/1999/xlink" x="0px" y="0px"
	 viewBox="0 0 495 495" style="enable-background:new 0 0 495 495;" xml:space="preserve">
<g>
	<path style="fill:#00DDC2;" d="M275.554,374.256c0-11.873-3.985-19.388-13.054-24.096v47.784
		C270.338,392.964,275.554,384.21,275.554,374.256z"/>
	<path style="fill:#00DDC2;" d="M413.407,331.813V163.19H247.5v52.084h15v12.579c24.762,6.63,43.054,29.253,43.054,56.078h-30
		c0-9.954-5.216-18.708-13.054-23.688v57.858l2.501,0.79c26.151,8.261,40.553,27.923,40.553,55.365
		c0,26.824-18.292,49.448-43.054,56.078v12.579h-15V495h165.91c45.06,0,81.59-36.53,81.59-81.59
		c0-20.201-7.358-38.676-19.519-52.927C460.515,342.947,438.267,331.813,413.407,331.813z"/>
	<path style="fill:#00EED1;" d="M232.5,442.913v-12.579c-24.762-6.63-43.053-29.253-43.053-56.078h30
		c0,9.954,5.216,18.708,13.053,23.688v-57.858l-2.501-0.79c-26.15-8.261-40.552-27.923-40.552-55.365
		c0-26.824,18.291-49.448,43.053-56.078v-12.579h15V163.19H81.593v168.623c-24.86,0-47.109,11.133-62.075,28.67
		C7.358,374.734,0,393.209,0,413.41C0,458.47,36.53,495,81.59,495H247.5v-52.087H232.5z"/>
	<path style="fill:#00EED1;" d="M219.447,283.931c0,11.872,3.985,19.388,13.053,24.096v-47.784
		C224.662,265.223,219.447,273.977,219.447,283.931z"/>
	<path style="fill:#00CCB3;" d="M81.593,331.813V163.19V0C36.532,0,0,36.532,0,81.593c0,45.061,0,331.813,0,331.813
		c0-20.201,7.358-38.674,19.519-52.924C34.485,342.947,56.733,331.813,81.593,331.813z"/>
	<path style="fill:#00AA95;" d="M495,81.593C495,36.532,458.468,0,413.407,0v163.19v168.623c24.86,0,47.109,11.133,62.075,28.67
		C487.642,374.733,495,393.206,495,413.407C495,413.407,495,126.655,495,81.593z"/>
	<path style="fill:#00AA95;" d="M232.5,227.853c-24.762,6.63-43.053,29.253-43.053,56.078c0,27.442,14.402,47.104,40.552,55.365
		l2.501,0.79v57.858c-7.838-4.98-13.053-13.734-13.053-23.688h-30c0,26.824,18.291,49.448,43.053,56.078v12.579h15h15v-12.579
		c24.762-6.63,43.054-29.253,43.054-56.078c0-27.442-14.401-47.104-40.553-55.365l-2.501-0.79v-57.858
		c7.838,4.981,13.054,13.734,13.054,23.688h30c0-26.824-18.292-49.448-43.054-56.078v-12.579h-15h-15V227.853z M219.447,283.931
		c0-9.954,5.216-18.708,13.053-23.688v47.784C223.432,303.319,219.447,295.803,219.447,283.931z M275.554,374.256
		c0,9.954-5.216,18.708-13.054,23.688V350.16C271.569,354.868,275.554,362.383,275.554,374.256z"/>
</g>
<g>
</g>
<g>
</g>
<g>
</g>
<g>
</g>
<g>
</g>
<g>
</g>
<g>
</g>
<g>
</g>
<g>
</g>
<g>
</g>
<g>
</g>
<g>
</g>
<g>
</g>
<g>
</g>
<g>
</g>
</svg>
