<?xml version="1.0" encoding="iso-8859-1"?>
<!-- Generator: Adobe Illustrator 19.0.0, SVG Export Plug-In . SVG Version: 6.00 Build 0)  -->
<svg version="1.1" id="Layer_1" xmlns="http://www.w3.org/2000/svg" xmlns:xlink="http://www.w3.org/1999/xlink" x="0px" y="0px"
	 viewBox="0 0 512 512" style="enable-background:new 0 0 512 512;" xml:space="preserve">
<polygon style="fill:#367596;" points="512,25.319 512,92.835 455.736,115.341 478.242,25.319 "/>
<polygon style="fill:#5195AF;" points="478.242,25.319 478.242,115.341 306.637,115.341 329.143,25.319 "/>
<polygon style="fill:#27467A;" points="0,25.319 0,92.835 33.758,115.341 329.143,115.341 329.143,25.319 "/>
<polygon style="fill:#A0F6FA;" points="512,92.835 512,486.681 478.242,486.681 433.231,289.758 478.242,92.835 "/>
<g>
	<rect y="92.835" style="fill:#D0FBFD;" width="478.242" height="393.846"/>
	<circle style="fill:#D0FBFD;" cx="403.692" cy="59.077" r="11.253"/>
	<circle style="fill:#D0FBFD;" cx="357.556" cy="59.077" r="11.253"/>
</g>
<circle style="fill:#78E3EC;" cx="449.829" cy="59.077" r="11.253"/>
<g>
	<path style="fill:#27467A;" d="M111.349,245.925c-0.348,0-0.698-0.021-1.049-0.065c-3.318-0.415-6.079-2.749-7.037-5.953
		l-19.412-64.8c-1.337-4.465,1.197-9.169,5.662-10.507c4.465-1.337,9.169,1.197,10.507,5.662l13.922,46.472l13.422-22.402
		c1.525-2.545,4.273-4.103,7.24-4.103s5.715,1.557,7.24,4.103l13.422,22.402l13.924-46.481c1.337-4.465,6.044-6.999,10.507-5.662
		c4.465,1.337,7,6.042,5.662,10.507l-19.414,64.809c-0.96,3.204-3.72,5.537-7.037,5.953c-3.315,0.417-6.567-1.169-8.287-4.037
		l-16.016-26.732l-16.016,26.732C117.05,244.388,114.287,245.925,111.349,245.925z"/>
	<path style="fill:#27467A;" d="M224.82,245.918c-0.348,0-0.698-0.021-1.049-0.065c-3.318-0.415-6.079-2.749-7.037-5.953
		l-19.412-64.801c-1.337-4.465,1.197-9.169,5.662-10.507c4.467-1.338,9.169,1.197,10.507,5.662l13.922,46.473l13.422-22.402
		c1.525-2.545,4.273-4.103,7.24-4.103s5.715,1.557,7.24,4.103l13.422,22.402l13.924-46.481c1.337-4.466,6.042-7.001,10.507-5.662
		c4.465,1.337,7,6.042,5.662,10.507L279.416,239.9c-0.96,3.204-3.72,5.537-7.037,5.953c-3.317,0.415-6.567-1.169-8.286-4.037
		l-16.016-26.732l-16.016,26.732C230.519,244.38,227.759,245.918,224.82,245.918z"/>
	<path style="fill:#27467A;" d="M384.797,245.909c-2.939,0-5.701-1.537-7.238-4.103l-16.016-26.732l-16.016,26.732
		c-1.718,2.869-4.968,4.453-8.287,4.037c-3.318-0.415-6.079-2.749-7.037-5.953l-19.412-64.8c-1.337-4.465,1.197-9.169,5.662-10.507
		c4.467-1.337,9.169,1.198,10.507,5.662l13.922,46.472l13.422-22.402c1.525-2.545,4.273-4.103,7.24-4.103s5.715,1.557,7.24,4.103
		l13.422,22.402l13.924-46.479c1.338-4.465,6.043-6.999,10.507-5.662c4.465,1.337,7,6.042,5.662,10.507l-19.414,64.808
		c-0.96,3.204-3.72,5.537-7.037,5.953C385.494,245.888,385.144,245.909,384.797,245.909z"/>
</g>
<g>
	<rect x="91.935" y="293.753" style="fill:#367596;" width="45.011" height="45.011"/>
	<rect x="91.935" y="372.522" style="fill:#367596;" width="45.011" height="45.011"/>
</g>
<g>
	<path style="fill:#5195AF;" d="M404.212,324.695h-33.758c-4.661,0-8.44-3.778-8.44-8.44s3.779-8.44,8.44-8.44h33.758
		c4.661,0,8.44,3.778,8.44,8.44S408.873,324.695,404.212,324.695z"/>
	<path style="fill:#5195AF;" d="M336.696,324.695H170.704c-4.661,0-8.44-3.778-8.44-8.44s3.779-8.44,8.44-8.44h165.993
		c4.661,0,8.44,3.778,8.44,8.44S341.357,324.695,336.696,324.695z"/>
	<path style="fill:#5195AF;" d="M404.212,403.464h-33.758c-4.661,0-8.44-3.778-8.44-8.44s3.779-8.44,8.44-8.44h33.758
		c4.661,0,8.44,3.778,8.44,8.44S408.873,403.464,404.212,403.464z"/>
	<path style="fill:#5195AF;" d="M336.696,403.464H170.704c-4.661,0-8.44-3.778-8.44-8.44s3.779-8.44,8.44-8.44h165.993
		c4.661,0,8.44,3.778,8.44,8.44S341.357,403.464,336.696,403.464z"/>
</g>
<g>
</g>
<g>
</g>
<g>
</g>
<g>
</g>
<g>
</g>
<g>
</g>
<g>
</g>
<g>
</g>
<g>
</g>
<g>
</g>
<g>
</g>
<g>
</g>
<g>
</g>
<g>
</g>
<g>
</g>
</svg>
