<?xml version="1.0" encoding="iso-8859-1"?>
<!-- Generator: Adobe Illustrator 19.0.0, SVG Export Plug-In . SVG Version: 6.00 Build 0)  -->
<svg version="1.1" id="Capa_1" xmlns="http://www.w3.org/2000/svg" xmlns:xlink="http://www.w3.org/1999/xlink" x="0px" y="0px"
	 viewBox="0 0 511.999 511.999" style="enable-background:new 0 0 511.999 511.999;" xml:space="preserve">
<rect x="206.003" y="25.632" transform="matrix(-0.6133 -0.7899 0.7899 -0.6133 330.8845 243.266)" style="fill:#FF7A53;" width="37.982" height="29.999"/>
<rect x="272.005" y="21.634" transform="matrix(-0.7899 -0.6133 0.6133 -0.7899 488.7853 248.726)" style="fill:#FF4F19;" width="29.999" height="37.982"/>
<path style="fill:#FFC173;" d="M453.556,161.634c-6.892-10.436-17.623-18.063-30.211-21.474
	c-11.783-3.199-51.407-4.655-117.76-4.334l0.073,15.006v10.973l-7.626,12.917c55.584,32.818,89.642,51.056,101.24,54.209
	c4.758,1.289,9.528,1.903,14.193,1.903c21.515,0,40.8-13.056,46.254-33.164C463.03,185.464,460.841,172.667,453.556,161.634z"/>
<path style="fill:#FFD8A6;" d="M510.222,67.311c-4.005-15.134-14.309-27.517-29.013-34.865c-14.063-7.031-30.573-8.582-46.482-4.366
	c-15.209,4.023-61.172,28.323-136.613,72.223l7.544,12.976v15.262l-0.157,15.004c16.541,0.173,31.838,0.26,45.896,0.26
	c62.139,0,99.954-1.688,112.634-5.039c15.913-4.214,29.492-13.731,38.234-26.801C511.407,98.3,514.232,82.44,510.222,67.311z"/>
<path style="fill:#FFC173;" d="M58.444,161.634c6.892-10.436,17.624-18.063,30.211-21.474c11.783-3.199,51.407-4.655,117.76-4.334
	l-0.073,15.006v10.973l7.626,12.917c-55.584,32.818-89.642,51.056-101.24,54.209c-4.758,1.289-9.528,1.903-14.193,1.903
	c-21.515,0-40.8-13.056-46.254-33.164C48.97,185.464,51.159,172.667,58.444,161.634z"/>
<path style="fill:#FFD8A6;" d="M1.778,67.311c4.005-15.134,14.309-27.517,29.013-34.865c14.063-7.031,30.573-8.582,46.482-4.366
	c15.209,4.023,61.172,28.323,136.613,72.223l-7.544,12.976v15.262l0.157,15.004c-16.541,0.173-31.838,0.26-45.896,0.26
	c-62.139,0-99.954-1.688-112.634-5.039c-15.913-4.214-29.492-13.731-38.234-26.801C0.593,98.3-2.232,82.44,1.778,67.311z"/>
<path style="fill:#00AA00;" d="M308.288,92.919v121.366c0,12.97-4.78,25.319-13.31,34.849v246.441h-77.977V249.133
	c-8.53-9.53-13.31-21.879-13.31-34.849V92.919c0-28.839,23.459-52.298,52.298-52.298C284.829,40.621,308.288,64.08,308.288,92.919z"
	/>
<path style="fill:#008000;" d="M308.288,92.919v121.366c0,12.97-4.78,25.319-13.31,34.849v246.441H255.99V40.621
	C284.829,40.621,308.288,64.08,308.288,92.919z"/>
<g>
	<rect x="217.002" y="249.23" style="fill:#FFD82D;" width="77.977" height="29.999"/>
	<rect x="217.002" y="331.367" style="fill:#FFD82D;" width="77.977" height="29.999"/>
	<rect x="217.002" y="414.034" style="fill:#FFD82D;" width="77.977" height="29.999"/>
</g>
<g>
	<rect x="255.99" y="249.23" style="fill:#FBBD00;" width="38.989" height="29.999"/>
	<rect x="255.99" y="331.367" style="fill:#FBBD00;" width="38.989" height="29.999"/>
	<rect x="255.99" y="414.034" style="fill:#FBBD00;" width="38.989" height="29.999"/>
</g>
<g>
</g>
<g>
</g>
<g>
</g>
<g>
</g>
<g>
</g>
<g>
</g>
<g>
</g>
<g>
</g>
<g>
</g>
<g>
</g>
<g>
</g>
<g>
</g>
<g>
</g>
<g>
</g>
<g>
</g>
</svg>
