<?xml version="1.0" encoding="iso-8859-1"?>
<!-- Generator: Adobe Illustrator 19.0.0, SVG Export Plug-In . SVG Version: 6.00 Build 0)  -->
<svg version="1.1" id="Capa_1" xmlns="http://www.w3.org/2000/svg" xmlns:xlink="http://www.w3.org/1999/xlink" x="0px" y="0px"
	 viewBox="0 0 512 512" style="enable-background:new 0 0 512 512;" xml:space="preserve">
<rect x="125" y="137.9" style="fill:#D8D8DA;" width="262" height="30"/>
<rect x="125" y="152.9" style="fill:#C7C5CC;" width="262" height="15"/>
<g>
	<rect y="88.31" style="fill:#ADACB2;" width="85" height="129.18"/>
	<rect x="427" y="88.31" style="fill:#ADACB2;" width="85" height="129.18"/>
</g>
<g>
	<rect y="152.9" style="fill:#8A8891;" width="85" height="64.59"/>
	<rect x="427" y="152.9" style="fill:#8A8891;" width="85" height="64.59"/>
</g>
<g>
	<rect x="55" y="66.4" style="fill:#78777F;" width="85" height="173"/>
	<rect x="372" y="66.4" style="fill:#78777F;" width="85" height="173"/>
</g>
<g>
	<rect x="55" y="152.9" style="fill:#57555C;" width="85" height="86.5"/>
	<rect x="372" y="152.9" style="fill:#57555C;" width="85" height="86.5"/>
</g>
<rect x="125" y="344.1" style="fill:#D8D8DA;" width="262" height="30"/>
<rect x="125" y="359.1" style="fill:#C7C5CC;" width="262" height="15"/>
<g>
	<rect y="294.51" style="fill:#ADACB2;" width="85" height="129.18"/>
	<rect x="427" y="294.51" style="fill:#ADACB2;" width="85" height="129.18"/>
</g>
<g>
	<rect y="359.1" style="fill:#8A8891;" width="85" height="64.59"/>
	<rect x="427" y="359.1" style="fill:#8A8891;" width="85" height="64.59"/>
</g>
<g>
	<rect x="55" y="272.6" style="fill:#78777F;" width="85" height="173"/>
	<rect x="372" y="272.6" style="fill:#78777F;" width="85" height="173"/>
</g>
<g>
	<rect x="55" y="359.1" style="fill:#57555C;" width="85" height="86.5"/>
	<rect x="372" y="359.1" style="fill:#57555C;" width="85" height="86.5"/>
</g>
<g>
</g>
<g>
</g>
<g>
</g>
<g>
</g>
<g>
</g>
<g>
</g>
<g>
</g>
<g>
</g>
<g>
</g>
<g>
</g>
<g>
</g>
<g>
</g>
<g>
</g>
<g>
</g>
<g>
</g>
</svg>
