<?xml version="1.0" encoding="iso-8859-1"?>
<!-- Generator: Adobe Illustrator 19.0.0, SVG Export Plug-In . SVG Version: 6.00 Build 0)  -->
<svg version="1.1" id="Capa_1" xmlns="http://www.w3.org/2000/svg" xmlns:xlink="http://www.w3.org/1999/xlink" x="0px" y="0px"
	 viewBox="0 0 58 58" style="enable-background:new 0 0 58 58;" xml:space="preserve">
<path style="fill:#AFB6BB;" d="M31.132,53h-4.264C26.389,53,26,52.611,26,52.132V41h6v11.132C32,52.611,31.611,53,31.132,53z"/>
<rect y="1" style="fill:#38454F;" width="58" height="40"/>
<path style="fill:#38454F;" d="M32,49.073v3.06C32,52.611,31.611,53,31.132,53h-4.264C26.389,53,26,52.611,26,52.132v-3.06
	C18.599,49.424,13,51.047,13,53c0,2.209,7.163,4,16,4s16-1.791,16-4C45,51.047,39.401,49.424,32,49.073z"/>
<rect x="4" y="5" style="fill:#7A8991;" width="50" height="32"/>
<g>
	<path style="fill:#839CAA;" d="M8,14c0.256,0,0.512-0.098,0.707-0.293l4-4c0.391-0.391,0.391-1.023,0-1.414s-1.023-0.391-1.414,0
		l-4,4c-0.391,0.391-0.391,1.023,0,1.414C7.488,13.902,7.744,14,8,14z"/>
	<path style="fill:#839CAA;" d="M8,19c0.256,0,0.512-0.098,0.707-0.293l2-2c0.391-0.391,0.391-1.023,0-1.414s-1.023-0.391-1.414,0
		l-2,2c-0.391,0.391-0.391,1.023,0,1.414C7.488,18.902,7.744,19,8,19z"/>
	<path style="fill:#839CAA;" d="M11.29,13.29C11.11,13.48,11,13.74,11,14c0,0.26,0.11,0.52,0.29,0.71C11.48,14.89,11.74,15,12,15
		c0.27,0,0.52-0.11,0.71-0.29C12.89,14.52,13,14.26,13,14c0-0.26-0.11-0.52-0.29-0.71C12.34,12.92,11.67,12.92,11.29,13.29z"/>
	<path style="fill:#839CAA;" d="M13.293,12.707C13.488,12.902,13.744,13,14,13s0.512-0.098,0.707-0.293l3-3
		c0.391-0.391,0.391-1.023,0-1.414s-1.023-0.391-1.414,0l-3,3C12.902,11.684,12.902,12.316,13.293,12.707z"/>
	<path style="fill:#839CAA;" d="M16.293,13.293l-9,9c-0.391,0.391-0.391,1.023,0,1.414C7.488,23.902,7.744,24,8,24
		s0.512-0.098,0.707-0.293l9-9c0.391-0.391,0.391-1.023,0-1.414S16.684,12.902,16.293,13.293z"/>
	<path style="fill:#839CAA;" d="M18.29,11.29C18.11,11.48,18,11.74,18,12c0,0.27,0.11,0.52,0.29,0.71C18.48,12.89,18.74,13,19,13
		c0.26,0,0.52-0.11,0.71-0.29C19.89,12.52,20,12.27,20,12c0-0.26-0.11-0.52-0.29-0.71C19.34,10.92,18.67,10.92,18.29,11.29z"/>
	<path style="fill:#839CAA;" d="M22.707,8.293c-0.391-0.391-1.023-0.391-1.414,0l-1,1c-0.391,0.391-0.391,1.023,0,1.414
		C20.488,10.902,20.744,11,21,11s0.512-0.098,0.707-0.293l1-1C23.098,9.316,23.098,8.684,22.707,8.293z"/>
</g>
<g>
</g>
<g>
</g>
<g>
</g>
<g>
</g>
<g>
</g>
<g>
</g>
<g>
</g>
<g>
</g>
<g>
</g>
<g>
</g>
<g>
</g>
<g>
</g>
<g>
</g>
<g>
</g>
<g>
</g>
</svg>
