<?xml version="1.0" encoding="iso-8859-1"?>
<!-- Generator: Adobe Illustrator 19.0.0, SVG Export Plug-In . SVG Version: 6.00 Build 0)  -->
<svg version="1.1" id="Capa_1" xmlns="http://www.w3.org/2000/svg" xmlns:xlink="http://www.w3.org/1999/xlink" x="0px" y="0px"
	 viewBox="0 0 511.999 511.999" style="enable-background:new 0 0 511.999 511.999;" xml:space="preserve">
<path style="fill:#78777F;" d="M509.486,89.216c-0.602-0.964-15.168-23.884-51.689-48.931c-41.537-28.487-90.313-1.874-92.369-0.727
	l-0.851,0.474l-50.581,37.588l8.918,12.001l0,0l19.815,175.979l0,0l-7.86,12.719c18.091,11.18,37.894,15.34,57.015,15.34
	c33.242,0,64.422-12.57,80.967-22.682c10.306-6.299,22.138-22.721,31.747-96.775c5.004-38.569,7.052-74.708,7.137-76.228
	l0.264-4.736L509.486,89.216z"/>
<path style="fill:#88868F;" d="M147.423,40.033l-0.851-0.474c-2.056-1.146-50.83-27.761-92.369,0.727
	C17.682,65.332,3.116,88.253,2.514,89.216L0,93.238l0.264,4.736c0.085,1.519,2.133,37.659,7.137,76.228
	c9.609,74.054,21.441,90.476,31.747,96.775c16.546,10.11,47.726,22.682,80.968,22.682c19.121,0,38.924-4.16,57.016-15.341
	l-7.861-12.719l19.815-175.978l0,0l8.918-12L147.423,40.033z"/>
<path style="fill:#FFD8A6;" d="M157.152,374.445l-17.699-24.104c27.418-20.132,36.239-65.281,36.325-65.735l29.396,5.483
	C204.745,292.41,194.198,347.244,157.152,374.445z"/>
<path style="fill:#FFC173;" d="M354.848,374.445c-37.045-27.201-47.593-82.034-48.023-84.355l29.401-5.458l-14.701,2.729
	l14.696-2.755c0.086,0.454,8.907,45.603,36.325,65.735L354.848,374.445z"/>
<path style="fill:#C5C3CA;" d="M306.587,316.265c-3.698,38.765,3.259,62.269,8.692,74.101l9.519-4.824h41.177v99.29h-42.662
	l-21.62-12.759c-14.105-0.728-30.412-5.243-45.683-18.221c-13.028-11.084-25.288-28.329-34.768-54.644
	c-11.274-31.259-14.902-65.309-16.068-83.162l-48.813-46.211c-10.765-10.197-17.484-23.594-18.909-37.748l-6.668-66.276l0.03-0.997
	c1.934-59.678,36.163-89.362,64.532-103.765c29.714-15.071,58.81-16.427,60.036-16.477l0.618-0.03h0.01l0.608,0.03
	c1.226,0.05,30.322,1.405,60.036,16.477c28.368,14.404,62.598,44.088,64.532,103.765l0.03,0.997l-6.668,66.276
	c-1.425,14.154-8.144,27.551-18.909,37.748L306.587,316.265z"/>
<circle style="fill:#57555C;" cx="219.542" cy="202.147" r="15.513"/>
<path style="fill:#ABAAB0;" d="M306.587,316.265c-3.698,38.765,3.259,62.269,8.692,74.101l9.519-4.824h41.177v99.29h-42.662
	l-21.62-12.759c-14.105-0.728-30.412-5.243-45.683-18.221V44.541l0.608,0.03c1.226,0.05,30.322,1.405,60.036,16.477
	c28.368,14.404,62.598,44.088,64.532,103.765l0.03,0.997l-6.668,66.276c-1.425,14.154-8.144,27.551-18.909,37.748L306.587,316.265z"
	/>
<circle style="fill:#3A3A41;" cx="292.457" cy="202.147" r="15.513"/>
<g>
</g>
<g>
</g>
<g>
</g>
<g>
</g>
<g>
</g>
<g>
</g>
<g>
</g>
<g>
</g>
<g>
</g>
<g>
</g>
<g>
</g>
<g>
</g>
<g>
</g>
<g>
</g>
<g>
</g>
</svg>
