<?xml version="1.0" encoding="iso-8859-1"?>
<!-- Generator: Adobe Illustrator 19.0.0, SVG Export Plug-In . SVG Version: 6.00 Build 0)  -->
<svg version="1.1" id="Capa_1" xmlns="http://www.w3.org/2000/svg" xmlns:xlink="http://www.w3.org/1999/xlink" x="0px" y="0px"
	 viewBox="0 0 512 512" style="enable-background:new 0 0 512 512;" xml:space="preserve">
<rect x="166.47" y="376.01" style="fill:#132F3B;" width="179.05" height="78.57"/>
<rect y="54.33" style="fill:#B7E4F8;" width="512" height="346.39"/>
<rect x="256" y="54.33" style="fill:#6FC8F1;" width="256" height="346.39"/>
<rect y="355.67" style="fill:#4BBAED;" width="512" height="45.05"/>
<rect x="256" y="355.67" style="fill:#388CB2;" width="256" height="45.05"/>
<rect x="138.79" y="427.67" style="fill:#265D77;" width="234.42" height="30"/>
<g>
	<path style="fill:#FF4F19;" d="M155.918,286.871v-20.328h-42.132v-27.869l51.968-66.23h21.312v66.23h14.427v27.869h-14.427v20.328
		H155.918z M144.441,238.674h15.082v-19.672L144.441,238.674z"/>
	<path style="fill:#FF4F19;" d="M301.163,218.018c0,7.213-1.094,13.853-3.279,19.919c-2.187,6.065-5.22,11.312-9.098,15.738
		c-3.881,4.426-8.471,7.869-13.771,10.328c-5.302,2.459-11.066,3.689-17.295,3.689c-6.23,0-11.996-1.23-17.295-3.689
		c-5.302-2.459-9.893-5.901-13.771-10.328c-3.881-4.426-6.914-9.673-9.099-15.738c-2.188-6.066-3.279-12.705-3.279-19.919
		c0-7.213,1.092-13.852,3.279-19.918c2.185-6.066,5.218-11.311,9.099-15.738c3.878-4.426,8.468-7.895,13.771-10.41
		c5.299-2.513,11.066-3.77,17.295-3.77c6.23,0,11.993,1.258,17.295,3.77c5.299,2.515,9.89,5.984,13.771,10.41
		c3.878,4.426,6.91,9.672,9.098,15.738C300.07,204.166,301.163,210.805,301.163,218.018z M269.688,218.018
		c0-6.337-1.122-11.475-3.361-15.41c-2.241-3.935-5.11-5.902-8.606-5.902c-3.717,0-6.696,1.967-8.935,5.902
		c-2.242,3.934-3.361,9.073-3.361,15.41c0,6.34,1.119,11.45,3.361,15.328c2.239,3.881,5.218,5.82,8.935,5.82
		c3.496,0,6.365-1.939,8.606-5.82C268.565,229.468,269.688,224.358,269.688,218.018z"/>
</g>
<g>
	<path style="fill:#BF3B13;" d="M352.64,286.871v-20.328h-42.132v-27.869l51.967-66.23h21.312v66.23h14.427v27.869h-14.427v20.328
		H352.64z M341.164,238.674h15.082v-19.672L341.164,238.674z"/>
	<path style="fill:#BF3B13;" d="M297.884,198.1c-2.187-6.066-5.22-11.312-9.098-15.738c-3.881-4.426-8.471-7.895-13.77-10.41
		c-5.302-2.513-11.065-3.77-17.295-3.77l0,0v28.525l0,0c3.496,0,6.365,1.967,8.606,5.902c2.239,3.934,3.361,9.073,3.361,15.41
		c0,6.34-1.122,11.45-3.361,15.328c-2.241,3.881-5.11,5.82-8.606,5.82l0,0v28.525l0,0c6.23,0,11.993-1.23,17.295-3.689
		c5.299-2.459,9.89-5.901,13.77-10.328c3.878-4.426,6.911-9.673,9.098-15.738c2.186-6.066,3.279-12.705,3.279-19.919
		C301.163,210.805,300.07,204.166,297.884,198.1z"/>
</g>
<g>
</g>
<g>
</g>
<g>
</g>
<g>
</g>
<g>
</g>
<g>
</g>
<g>
</g>
<g>
</g>
<g>
</g>
<g>
</g>
<g>
</g>
<g>
</g>
<g>
</g>
<g>
</g>
<g>
</g>
</svg>
