<?xml version="1.0" encoding="iso-8859-1"?>
<!-- Generator: Adobe Illustrator 19.0.0, SVG Export Plug-In . SVG Version: 6.00 Build 0)  -->
<svg version="1.1" id="Capa_1" xmlns="http://www.w3.org/2000/svg" xmlns:xlink="http://www.w3.org/1999/xlink" x="0px" y="0px"
	 viewBox="0 0 512 512" style="enable-background:new 0 0 512 512;" xml:space="preserve">
<path style="fill:#E4E8EB;" d="M384.662,0.002H75.715c-17.069,0-30.907,12.741-30.907,28.459v455.078
	c0,15.717,13.838,28.459,30.907,28.459h360.569c17.069,0,30.907-12.741,30.907-28.459V75.994L384.662,0.002z"/>
<path style="fill:#D6D6D6;" d="M467.187,75.994V483.54c0,15.714-13.828,28.46-30.903,28.46H402.28
	c17.074,0,30.903-12.746,30.903-28.46V82.888L344.301,0h40.358L467.187,75.994z"/>
<path style="fill:#A5A8A0;" d="M467.192,75.994L415.57,75.71c-17.069,0-30.907-13.852-30.907-30.938V0.002L467.192,75.994z"/>
<circle style="fill:#B6D84D;" cx="130.56" cy="135.54" r="25.46"/>
<path style="fill:#ACC63E;" d="M156.017,135.532c0,14.065-11.397,25.462-25.462,25.462c-10.005,0-18.671-5.77-22.824-14.168
	c2.999,1.237,6.275,1.917,9.717,1.917c14.065,0,25.462-11.397,25.462-25.462c0-4.05-0.948-7.883-2.638-11.273
	C149.515,115.82,156.017,124.919,156.017,135.532z"/>
<circle style="fill:#B6D84D;" cx="130.56" cy="230.39" r="25.46"/>
<path style="fill:#ACC63E;" d="M156.016,230.391c0,14.065-11.397,25.462-25.462,25.462c-10.005,0-18.671-5.77-22.824-14.168
	c2.999,1.237,6.275,1.917,9.717,1.917c14.065,0,25.462-11.397,25.462-25.462c0-4.05-0.948-7.883-2.638-11.273
	C149.514,210.679,156.016,219.777,156.016,230.391z"/>
<circle style="fill:#B6D84D;" cx="130.56" cy="420.11" r="25.46"/>
<path style="fill:#ACC63E;" d="M156.016,420.104c0,14.065-11.397,25.462-25.462,25.462c-10.005,0-18.671-5.77-22.824-14.168
	c2.999,1.237,6.275,1.917,9.717,1.917c14.065,0,25.462-11.397,25.462-25.462c0-4.05-0.948-7.883-2.638-11.273
	C149.514,400.392,156.016,409.491,156.016,420.104z"/>
<g>
	<path style="fill:#A5A8A0;" d="M329,117.576H194.719c-4.142,0-7.5-3.358-7.5-7.5s3.358-7.5,7.5-7.5H329c4.143,0,7.5,3.358,7.5,7.5
		S333.143,117.576,329,117.576z"/>
	<path style="fill:#A5A8A0;" d="M394.104,147.821H194.719c-4.142,0-7.5-3.358-7.5-7.5s3.358-7.5,7.5-7.5h199.385
		c4.143,0,7.5,3.358,7.5,7.5S398.246,147.821,394.104,147.821z"/>
	<path style="fill:#A5A8A0;" d="M294.411,178.066h-99.692c-4.142,0-7.5-3.358-7.5-7.5s3.358-7.5,7.5-7.5h99.692
		c4.143,0,7.5,3.358,7.5,7.5S298.554,178.066,294.411,178.066z"/>
	<path style="fill:#A5A8A0;" d="M417.167,212.433H194.719c-4.142,0-7.5-3.358-7.5-7.5s3.358-7.5,7.5-7.5h222.448
		c4.143,0,7.5,3.358,7.5,7.5S421.31,212.433,417.167,212.433z"/>
	<path style="fill:#A5A8A0;" d="M417.167,242.678H194.719c-4.142,0-7.5-3.358-7.5-7.5s3.358-7.5,7.5-7.5h222.448
		c4.143,0,7.5,3.358,7.5,7.5S421.31,242.678,417.167,242.678z"/>
	<path style="fill:#A5A8A0;" d="M380.333,272.923H194.719c-4.142,0-7.5-3.358-7.5-7.5s3.358-7.5,7.5-7.5h185.614
		c4.143,0,7.5,3.358,7.5,7.5S384.476,272.923,380.333,272.923z"/>
	<path style="fill:#A5A8A0;" d="M417.167,307.29H194.719c-4.142,0-7.5-3.358-7.5-7.5s3.358-7.5,7.5-7.5h222.448
		c4.143,0,7.5,3.358,7.5,7.5S421.31,307.29,417.167,307.29z"/>
	<path style="fill:#A5A8A0;" d="M417.167,337.535H194.719c-4.142,0-7.5-3.358-7.5-7.5s3.358-7.5,7.5-7.5h222.448
		c4.143,0,7.5,3.358,7.5,7.5S421.31,337.535,417.167,337.535z"/>
	<path style="fill:#A5A8A0;" d="M294.411,367.78h-99.692c-4.142,0-7.5-3.358-7.5-7.5s3.358-7.5,7.5-7.5h99.692
		c4.143,0,7.5,3.358,7.5,7.5S298.554,367.78,294.411,367.78z"/>
	<path style="fill:#A5A8A0;" d="M380.333,402.146H194.719c-4.142,0-7.5-3.358-7.5-7.5s3.358-7.5,7.5-7.5h185.614
		c4.143,0,7.5,3.358,7.5,7.5S384.476,402.146,380.333,402.146z"/>
	<path style="fill:#A5A8A0;" d="M417.167,432.392H194.719c-4.142,0-7.5-3.358-7.5-7.5s3.358-7.5,7.5-7.5h222.448
		c4.143,0,7.5,3.358,7.5,7.5S421.31,432.392,417.167,432.392z"/>
	<path style="fill:#A5A8A0;" d="M417.167,462.637H194.719c-4.142,0-7.5-3.358-7.5-7.5s3.358-7.5,7.5-7.5h222.448
		c4.143,0,7.5,3.358,7.5,7.5S421.31,462.637,417.167,462.637z"/>
</g>
<path style="fill:#B6D84D;" d="M124.642,352.8c-2.273,0-4.432-1.033-5.859-2.819l-17.786-22.265
	c-2.585-3.236-2.058-7.956,1.179-10.541c3.236-2.586,7.956-2.058,10.541,1.179l11.304,14.15l23.95-36.805
	c2.259-3.473,6.906-4.456,10.376-2.196c3.472,2.259,4.455,6.905,2.196,10.376l-29.614,45.51c-1.313,2.019-3.517,3.284-5.922,3.401
	C124.884,352.797,124.763,352.8,124.642,352.8z"/>
<g>
</g>
<g>
</g>
<g>
</g>
<g>
</g>
<g>
</g>
<g>
</g>
<g>
</g>
<g>
</g>
<g>
</g>
<g>
</g>
<g>
</g>
<g>
</g>
<g>
</g>
<g>
</g>
<g>
</g>
</svg>
