<?xml version="1.0" encoding="iso-8859-1"?>
<!-- Generator: Adobe Illustrator 19.0.0, SVG Export Plug-In . SVG Version: 6.00 Build 0)  -->
<svg version="1.1" id="Capa_1" xmlns="http://www.w3.org/2000/svg" xmlns:xlink="http://www.w3.org/1999/xlink" x="0px" y="0px"
	 viewBox="0 0 450 450" style="enable-background:new 0 0 450 450;" xml:space="preserve">
<g id="XMLID_1413_">
	<path id="XMLID_1414_" style="fill:#ACABB1;" d="M115,127.787v-31.12h105v30l70.001-46.668L220,33.333v33.334H85v61.12
		c4.894-0.735,9.901-1.12,15-1.12S110.106,127.051,115,127.787z"/>
	<path id="XMLID_1415_" style="fill:#ACABB1;" d="M335,325.547v31.12H220v-33.334l-70.001,46.668L220,416.667v-30h145v-61.12
		c-4.893,0.736-9.901,1.12-15,1.12S339.893,326.282,335,325.547z"/>
	<path id="XMLID_1416_" style="fill:#FFE98F;" d="M86.235,200.105c0,2.684,0.938,4.801,2.819,6.358
		c1.875,1.56,4.691,2.927,8.449,4.106v-19.799C89.991,191.412,86.235,194.526,86.235,200.105z"/>
	<path id="XMLID_1417_" style="fill:#FFE98F;" d="M95.734,302.167v-18.836c-7.404-0.643-14.731-2.143-21.975-4.505
		c-7.243-2.359-13.765-5.473-19.559-9.34l11.59-23.02c0.43,0.541,1.582,1.427,3.462,2.656c1.875,1.238,4.267,2.522,7.163,3.862
		c2.896,1.349,6.171,2.632,9.819,3.869c3.649,1.232,7.407,2.117,11.269,2.655v-21.41l-7.727-2.257
		c-5.26-1.61-9.82-3.355-13.682-5.229c-3.865-1.878-7.06-4.052-9.579-6.518c-2.523-2.469-4.403-5.316-5.636-8.533
		c-1.233-3.221-1.852-6.979-1.852-11.272c0-5.579,0.966-10.541,2.9-14.891c1.931-4.344,4.531-8.07,7.807-11.188
		c3.272-3.111,7.135-5.55,11.591-7.321c4.451-1.771,9.255-2.924,14.407-3.464v-16.258H100v-24.5c-5.099,0-10.106,0.385-15,1.12
		c-48.111,7.237-85,48.748-85,98.88c0,55.23,44.773,100,100,100v-24.5H95.734z"/>
	<path id="XMLID_1418_" style="fill:#FFDA44;" d="M117.467,251.297c0-2.79-1.127-4.964-3.381-6.519
		c-2.255-1.558-5.259-2.977-9.014-4.267v19.318C113.334,259.509,117.467,256.662,117.467,251.297z"/>
	<path id="XMLID_1419_" style="fill:#FFDA44;" d="M200,226.667c0-50.132-36.889-91.643-85-98.88c-4.894-0.736-9.901-1.12-15-1.12
		v24.5h6.843v16.258c6.973,0.647,13.521,2.201,19.638,4.67c6.117,2.472,11.43,4.992,15.938,7.564l-11.59,21.897
		c-0.321-0.429-1.263-1.13-2.817-2.099c-1.556-0.963-3.542-2.008-5.956-3.137c-2.416-1.123-5.099-2.199-8.049-3.221
		c-2.953-1.02-5.931-1.738-8.934-2.17v21.892l5.15,1.289c5.474,1.503,10.408,3.138,14.811,4.908
		c4.398,1.77,8.129,3.972,11.188,6.602c3.059,2.632,5.419,5.82,7.082,9.578c1.664,3.756,2.496,8.266,2.496,13.524
		c0,6.115-1.072,11.32-3.218,15.611c-2.151,4.298-5.021,7.807-8.613,10.546c-3.597,2.737-7.728,4.807-12.396,6.197
		c-4.67,1.391-9.578,2.199-14.73,2.413v18.676H100v24.5C155.227,326.667,200,281.897,200,226.667z"/>
	<path id="XMLID_1420_" style="fill:#FFFFFF;" d="M95.734,167.425c-5.152,0.54-9.956,1.693-14.407,3.464
		c-4.456,1.771-8.318,4.21-11.591,7.321c-3.275,3.118-5.876,6.845-7.807,11.188c-1.935,4.35-2.9,9.312-2.9,14.891
		c0,4.294,0.618,8.052,1.852,11.272c1.232,3.217,3.113,6.065,5.636,8.533c2.52,2.466,5.714,4.64,9.579,6.518
		c3.861,1.874,8.422,3.619,13.682,5.229l7.727,2.257v21.41c-3.861-0.538-7.619-1.423-11.269-2.655
		c-3.648-1.237-6.923-2.52-9.819-3.869c-2.896-1.34-5.288-2.624-7.163-3.862c-1.88-1.23-3.032-2.115-3.462-2.656l-11.59,23.02
		c5.794,3.867,12.315,6.98,19.559,9.34c7.243,2.362,14.57,3.862,21.975,4.505v18.836H100h6.843v-18.676
		c5.151-0.214,10.06-1.022,14.73-2.413c4.668-1.391,8.799-3.46,12.396-6.197c3.593-2.739,6.462-6.248,8.613-10.546
		c2.145-4.291,3.218-9.496,3.218-15.611c0-5.259-0.832-9.769-2.496-13.524c-1.663-3.758-4.023-6.946-7.082-9.578
		c-3.059-2.63-6.789-4.831-11.188-6.602c-4.402-1.771-9.337-3.405-14.811-4.908l-5.15-1.289v-21.892
		c3.003,0.432,5.98,1.15,8.934,2.17c2.95,1.021,5.633,2.098,8.049,3.221c2.414,1.129,4.4,2.174,5.956,3.137
		c1.555,0.969,2.496,1.67,2.817,2.099l11.59-21.897c-4.508-2.572-9.82-5.093-15.938-7.564c-6.117-2.469-12.665-4.022-19.638-4.67
		v-16.258H100h-4.266V167.425z M105.072,240.512c3.755,1.29,6.759,2.709,9.014,4.267c2.254,1.555,3.381,3.729,3.381,6.519
		c0,5.365-4.133,8.212-12.394,8.533V240.512z M97.504,210.57c-3.758-1.18-6.574-2.547-8.449-4.106
		c-1.881-1.558-2.819-3.675-2.819-6.358c0-5.579,3.756-8.693,11.269-9.334V210.57z"/>
	<path id="XMLID_1424_" style="fill:#FFE98F;" d="M338.053,255.117c3.518,2.227,7.505,3.516,11.947,3.895v-14.691h-22.177
		C330.401,248.833,333.809,252.435,338.053,255.117z"/>
	<path id="XMLID_1425_" style="fill:#FFE98F;" d="M322.667,224.506c0,1.075,0.026,2.095,0.08,3.063
		c0.054,0.965,0.134,1.934,0.242,2.898H350v-7.733h-27.333V224.506z"/>
	<path id="XMLID_1426_" style="fill:#FFE98F;" d="M325.567,208.879H350V190.27c-5.865,0.383-10.734,2.155-14.604,5.316
		C330.989,199.186,327.715,203.616,325.567,208.879z"/>
	<path id="XMLID_1427_" style="fill:#FFE98F;" d="M350,282.624c-5.534-0.206-10.754-1.209-15.652-3.017
		c-5.533-2.04-10.527-4.779-14.983-8.217c-4.458-3.438-8.378-7.491-11.762-12.164c-3.382-4.673-6.04-9.64-7.974-14.904h-16.111
		l5.477-13.855h7.09c-0.108-1.18-0.19-2.335-0.241-3.464c-0.056-1.127-0.081-2.281-0.081-3.463v-0.807h-11.117l5.478-13.854h7.57
		c1.504-5.584,3.84-10.929,7.01-16.031c3.166-5.101,7.089-9.587,11.762-13.453c4.671-3.867,10.094-6.953,16.272-9.265
		c5.297-1.98,11.055-3.105,17.263-3.387v-40.076c-55.227,0-100,44.769-100,100c0,50.132,36.889,91.643,85,98.88
		c4.893,0.735,9.901,1.12,15,1.12V282.624z"/>
	<path id="XMLID_1428_" style="fill:#FFDA44;" d="M450,226.667c0-55.231-44.772-100-100-100v40.076
		c1.027-0.047,2.065-0.076,3.116-0.076c10.739,0,20.06,2.311,27.954,6.928c7.894,4.619,13.774,10.633,17.642,18.044l-20.3,14.18
		c-1.29-3.008-2.929-5.505-4.915-7.492c-1.987-1.988-4.164-3.598-6.523-4.834c-2.363-1.233-4.782-2.096-7.251-2.578
		c-2.472-0.482-4.889-0.725-7.249-0.725c-0.844,0-1.667,0.028-2.474,0.081v18.608h11.334l-5.48,13.854H350v7.733h6.501
		l-5.479,13.855H350v14.691c0.914,0.078,1.841,0.132,2.794,0.132c2.361,0,4.807-0.295,7.331-0.886
		c2.522-0.589,4.94-1.503,7.251-2.738c2.309-1.234,4.43-2.844,6.363-4.834c1.934-1.985,3.488-4.431,4.673-7.33L400,256.085
		c-1.719,4.188-4.271,7.947-7.652,11.276c-3.384,3.33-7.278,6.121-11.681,8.378c-4.405,2.255-9.078,3.976-14.018,5.155
		c-4.939,1.182-9.773,1.772-14.499,1.772c-0.723,0-1.438-0.018-2.15-0.043v44.043c5.099,0,10.107-0.384,15-1.12
		C413.111,318.31,450,276.799,450,226.667z"/>
	<path id="XMLID_1429_" style="fill:#FFFFFF;" d="M316.465,179.395c-4.673,3.866-8.596,8.353-11.762,13.453
		c-3.17,5.102-5.506,10.447-7.01,16.031h-7.57l-5.478,13.854h11.117v0.807c0,1.182,0.025,2.336,0.081,3.463
		c0.052,1.129,0.133,2.284,0.241,3.464h-7.09l-5.477,13.855h16.111c1.934,5.265,4.592,10.231,7.974,14.904
		c3.384,4.673,7.304,8.727,11.762,12.164c4.456,3.438,9.45,6.177,14.983,8.217c4.898,1.809,10.118,2.811,15.652,3.017
		c0.712,0.025,1.428,0.043,2.15,0.043c4.726,0,9.56-0.591,14.499-1.772c4.939-1.18,9.612-2.9,14.018-5.155
		c4.402-2.257,8.297-5.048,11.681-8.378c3.382-3.329,5.934-7.089,7.652-11.276l-21.588-12.728c-1.185,2.899-2.739,5.345-4.673,7.33
		c-1.934,1.99-4.055,3.6-6.363,4.834c-2.311,1.235-4.729,2.149-7.251,2.738c-2.524,0.591-4.97,0.886-7.331,0.886
		c-0.953,0-1.88-0.054-2.794-0.132c-4.442-0.38-8.43-1.668-11.947-3.895c-4.244-2.683-7.651-6.284-10.229-10.796H350h1.022
		l5.479-13.855H350h-27.011c-0.108-0.964-0.188-1.934-0.242-2.898c-0.054-0.968-0.08-1.987-0.08-3.063v-1.773H350h5.854l5.48-13.854
		H350h-24.433c2.147-5.263,5.422-9.693,9.828-13.292c3.87-3.161,8.739-4.934,14.604-5.316c0.807-0.053,1.63-0.081,2.474-0.081
		c2.36,0,4.777,0.242,7.249,0.725c2.469,0.482,4.888,1.345,7.251,2.578c2.359,1.236,4.536,2.846,6.523,4.834
		c1.986,1.987,3.625,4.484,4.915,7.492l20.3-14.18c-3.867-7.411-9.748-13.425-17.642-18.044c-7.895-4.616-17.215-6.928-27.954-6.928
		c-1.052,0-2.089,0.029-3.116,0.076c-6.208,0.281-11.966,1.406-17.263,3.387C326.559,172.441,321.136,175.527,316.465,179.395z"/>
</g>
<g>
</g>
<g>
</g>
<g>
</g>
<g>
</g>
<g>
</g>
<g>
</g>
<g>
</g>
<g>
</g>
<g>
</g>
<g>
</g>
<g>
</g>
<g>
</g>
<g>
</g>
<g>
</g>
<g>
</g>
</svg>
