<?xml version="1.0" encoding="iso-8859-1"?>
<!-- Generator: Adobe Illustrator 19.0.0, SVG Export Plug-In . SVG Version: 6.00 Build 0)  -->
<svg version="1.1" id="Capa_1" xmlns="http://www.w3.org/2000/svg" xmlns:xlink="http://www.w3.org/1999/xlink" x="0px" y="0px"
	 viewBox="0 0 360 360" style="enable-background:new 0 0 360 360;" xml:space="preserve">
<g id="XMLID_7_">
	<rect id="XMLID_1147_" x="120" y="15" style="fill:#DEDDE0;" width="100" height="60"/>
	<rect id="XMLID_1148_" x="220" y="15" style="fill:#CDCDD0;" width="100" height="60"/>
	<path id="XMLID_1149_" style="fill:#00A1A7;" d="M220,225v-30h-15v-30h15v-30h-75v-30h75V75H120H80v210h40v-60H220z M145,165h30v30
		h-30V165z"/>
	<path id="XMLID_1152_" style="fill:#006C70;" d="M360,75h-40H220v30h75v30h-75v30h15v30h-15v30h100v60h40V75z M295,195h-30v-30h30
		V195z"/>
	<polygon id="XMLID_1155_" style="fill:#DEDDE0;" points="220,225 120,225 120,285 120,345 220,345 220,285 	"/>
	<polygon id="XMLID_1156_" style="fill:#CDCDD0;" points="220,225 220,285 220,345 320,345 320,285 320,225 	"/>
	<polygon id="XMLID_1157_" style="fill:#CCF7F9;" points="145,135 220,135 295,135 295,105 220,105 145,105 	"/>
	<polygon id="XMLID_1158_" style="fill:#FFFFFF;" points="205,195 220,195 235,195 235,165 220,165 205,165 	"/>
	<rect id="XMLID_1159_" x="265" y="165" style="fill:#FFFFFF;" width="30" height="30"/>
	<rect id="XMLID_1160_" x="145" y="165" style="fill:#FFFFFF;" width="30" height="30"/>
	<path id="XMLID_1161_" style="fill:#006C70;" d="M40,35C17.909,35,0,52.908,0,75v210c0,22.092,17.909,40,40,40s40-17.908,40-40V75
		C80,52.908,62.091,35,40,35z"/>
</g>
<g>
</g>
<g>
</g>
<g>
</g>
<g>
</g>
<g>
</g>
<g>
</g>
<g>
</g>
<g>
</g>
<g>
</g>
<g>
</g>
<g>
</g>
<g>
</g>
<g>
</g>
<g>
</g>
<g>
</g>
</svg>
