<?xml version="1.0" encoding="iso-8859-1"?>
<!-- Generator: Adobe Illustrator 19.0.0, SVG Export Plug-In . SVG Version: 6.00 Build 0)  -->
<svg version="1.1" id="Capa_1" xmlns="http://www.w3.org/2000/svg" xmlns:xlink="http://www.w3.org/1999/xlink" x="0px" y="0px"
	 viewBox="0 0 410 410" style="enable-background:new 0 0 410 410;" xml:space="preserve">
<g id="XMLID_995_">
	<polygon id="XMLID_996_" style="fill:#DEDDE0;" points="125,340 125,310 205,310 205,280 125,280 125,250 205,250 205,220 125,220 
		125,190 205,190 205,160 125,160 125,130 205,130 205,100 205,70 205,0 125,0 125,70 56.707,70 55,71.75 55,410 205,410 205,340 	
		"/>
	<polygon id="XMLID_997_" style="fill:#CDCDD0;" points="205,0 205,70 285,70 285,100 205,100 205,130 285,130 285,160 205,160 
		205,190 285,190 285,220 205,220 205,250 285,250 285,280 205,280 205,310 205,340 205,410 355,410 355,0 	"/>
	<rect id="XMLID_998_" x="205" y="70" style="fill:#FFFFFF;" width="80" height="30"/>
	<rect id="XMLID_999_" x="125" y="310" style="fill:#FFFFFF;" width="80" height="30"/>
	<polygon id="XMLID_1000_" style="fill:#FFFFFF;" points="125,160 205,160 285,160 285,130 205,130 125,130 	"/>
	<polygon id="XMLID_1001_" style="fill:#FFFFFF;" points="125,220 205,220 285,220 285,190 205,190 125,190 	"/>
	<polygon id="XMLID_1002_" style="fill:#FFFFFF;" points="125,280 205,280 285,280 285,250 205,250 125,250 	"/>
	<polygon id="XMLID_1003_" style="fill:#ACABB1;" points="125,0 55,70 56.707,70 125,70 	"/>
</g>
<g>
</g>
<g>
</g>
<g>
</g>
<g>
</g>
<g>
</g>
<g>
</g>
<g>
</g>
<g>
</g>
<g>
</g>
<g>
</g>
<g>
</g>
<g>
</g>
<g>
</g>
<g>
</g>
<g>
</g>
</svg>
