<?xml version="1.0" encoding="iso-8859-1"?>
<!-- Generator: Adobe Illustrator 19.0.0, SVG Export Plug-In . SVG Version: 6.00 Build 0)  -->
<svg version="1.1" id="Capa_1" xmlns="http://www.w3.org/2000/svg" xmlns:xlink="http://www.w3.org/1999/xlink" x="0px" y="0px"
	 viewBox="0 0 511.999 511.999" style="enable-background:new 0 0 511.999 511.999;" xml:space="preserve">
<polygon style="fill:#95DAF9;" points="374.724,105.475 293.995,91.755 256,19.217 218.005,91.755 137.275,105.475 194.522,164.026 
	182.624,245.044 256,208.693 329.375,245.044 317.477,164.026 "/>
<polygon style="fill:#4EC1F5;" points="374.724,105.475 293.995,91.755 256,19.217 256,208.693 329.375,245.044 317.477,164.026 "/>
<polygon style="fill:#FCB72C;" points="143.655,225.052 169.793,168.718 108.599,179.308 63.098,137.039 54.261,198.512 0,228.724 
	55.733,256.125 67.699,317.065 110.981,272.528 172.636,279.98 "/>
<polygon style="fill:#FF9900;" points="143.655,225.052 169.793,168.718 108.599,179.308 63.098,137.039 110.981,272.528 
	172.636,279.98 "/>
<polygon style="fill:#FD0023;" points="457.738,198.512 448.9,137.039 403.4,179.308 342.205,168.718 368.345,225.052 
	339.362,279.98 401.018,272.528 444.301,317.065 456.267,256.125 511.999,228.724 "/>
<polygon style="fill:#DC001E;" points="457.738,198.512 448.9,137.039 401.018,272.528 444.301,317.065 456.267,256.125 
	511.999,228.724 "/>
<g>
	<polygon style="fill:#FFE97F;" points="242.716,274.651 211.978,274.651 211.978,493.207 227.347,493.207 242.716,493.207 	"/>
	<path style="fill:#FFE97F;" d="M165.367,423.909L165.367,423.909L165.367,423.909z"/>
	<path style="fill:#FFE97F;" d="M145.784,303.332l-3.676-8.27l-28.089,12.485l3.676,8.27c15.649,35.211,26.579,72.37,32.484,110.447
		l15.187-2.355l0,0l15.187-2.355C174.234,380.797,162.535,341.022,145.784,303.332z"/>
</g>
<g>
	<path style="fill:#FFDB2D;" d="M346.632,423.909L346.632,423.909L346.632,423.909z"/>
	<path style="fill:#FFDB2D;" d="M369.891,295.062l-3.676,8.271c-16.752,37.692-28.45,77.467-34.77,118.221l15.187,2.355l0,0
		l15.187,2.355c5.905-38.074,16.834-75.234,32.485-110.447l3.676-8.27L369.891,295.062z"/>
	<rect x="269.284" y="274.655" style="fill:#FFDB2D;" width="30.738" height="218.559"/>
	
		<rect x="401.043" y="88.955" transform="matrix(-0.7071 0.7071 -0.7071 -0.7071 783.7183 -116.7332)" style="fill:#FFDB2D;" width="29.985" height="29.985"/>
	
		<rect x="315.06" y="24.994" transform="matrix(-0.7071 0.7071 -0.7071 -0.7071 591.7099 -165.1212)" style="fill:#FFDB2D;" width="29.985" height="29.985"/>
</g>
<rect x="81.093" y="89.076" transform="matrix(-0.7071 0.7071 -0.7071 -0.7071 237.6152 109.7134)" style="fill:#FFE97F;" width="29.985" height="29.985"/>
<g>
</g>
<g>
</g>
<g>
</g>
<g>
</g>
<g>
</g>
<g>
</g>
<g>
</g>
<g>
</g>
<g>
</g>
<g>
</g>
<g>
</g>
<g>
</g>
<g>
</g>
<g>
</g>
<g>
</g>
</svg>
