<?xml version="1.0" encoding="iso-8859-1"?>
<!-- Generator: Adobe Illustrator 19.0.0, SVG Export Plug-In . SVG Version: 6.00 Build 0)  -->
<svg version="1.1" id="Capa_1" xmlns="http://www.w3.org/2000/svg" xmlns:xlink="http://www.w3.org/1999/xlink" x="0px" y="0px"
	 viewBox="0 0 512 512" style="enable-background:new 0 0 512 512;" xml:space="preserve">
<path style="fill:#CCEFFF;" d="M331,141H181V51h150V141z M211,111h90V81h-90V111z"/>
<polygon style="fill:#ACE3FC;" points="256,51 256,81 301,81 301,111 256,111 256,141 331,141 331,51 "/>
<path style="fill:#DCF4FF;" d="M512,461H0V111h512V461z"/>
<path style="fill:#CCEFFF;" d="M512,461H256V111h256V461z"/>
<polygon style="fill:#87E694;" points="336,256 286,256 286,206 226,206 226,256 176,256 176,316 226,316 226,366 286,366 286,316 
	336,316 "/>
<polygon style="fill:#66CC70;" points="286,256 286,206 256,206 256,366 286,366 286,316 336,316 336,256 "/>
<g>
</g>
<g>
</g>
<g>
</g>
<g>
</g>
<g>
</g>
<g>
</g>
<g>
</g>
<g>
</g>
<g>
</g>
<g>
</g>
<g>
</g>
<g>
</g>
<g>
</g>
<g>
</g>
<g>
</g>
</svg>
