<?xml version="1.0" encoding="iso-8859-1"?>
<!-- Generator: Adobe Illustrator 19.0.0, SVG Export Plug-In . SVG Version: 6.00 Build 0)  -->
<svg version="1.1" id="Capa_1" xmlns="http://www.w3.org/2000/svg" xmlns:xlink="http://www.w3.org/1999/xlink" x="0px" y="0px"
	 viewBox="0 0 55 55" style="enable-background:new 0 0 55 55;" xml:space="preserve">
<rect x="3" y="18" style="fill:#546A79;" width="6" height="3"/>
<rect y="7" style="fill:#38454F;" width="12" height="11"/>
<path style="fill:#EEAF4B;" d="M11,7H1V3.248C1,2.006,2.006,1,3.248,1h5.504C9.994,1,11,2.006,11,3.248V7z"/>
<circle style="fill:none;stroke:#38454F;stroke-width:2;stroke-miterlimit:10;" cx="26" cy="41" r="12"/>
<path style="fill:none;stroke:#38454F;stroke-width:2;stroke-miterlimit:10;" d="M6,21v13.514v-0.973C6,44.296,14.704,53,25.459,53
	C38.367,53,49,45.556,49,32.649V28"/>
<circle style="fill:none;stroke:#38454F;stroke-width:2;stroke-miterlimit:10;" cx="26" cy="38" r="15"/>
<rect x="46" y="26" style="fill:#546A79;" width="6" height="3"/>
<rect x="43" y="15" style="fill:#38454F;" width="12" height="11"/>
<path style="fill:#EEAF4B;" d="M54,15H44v-3.752C44,10.006,45.006,9,46.248,9h5.504C52.994,9,54,10.006,54,11.248V15z"/>
<g>
</g>
<g>
</g>
<g>
</g>
<g>
</g>
<g>
</g>
<g>
</g>
<g>
</g>
<g>
</g>
<g>
</g>
<g>
</g>
<g>
</g>
<g>
</g>
<g>
</g>
<g>
</g>
<g>
</g>
</svg>
