<?xml version="1.0" encoding="iso-8859-1"?>
<!-- Generator: Adobe Illustrator 19.0.0, SVG Export Plug-In . SVG Version: 6.00 Build 0)  -->
<svg version="1.1" id="Capa_1" xmlns="http://www.w3.org/2000/svg" xmlns:xlink="http://www.w3.org/1999/xlink" x="0px" y="0px"
	 viewBox="0 0 512 512" style="enable-background:new 0 0 512 512;" xml:space="preserve">
<polygon style="fill:#95DAF9;" points="29.099,54.295 7.157,224.122 83.146,207.861 152.507,242.902 174.45,73.076 "/>
<polygon style="fill:#4EC1F5;" points="101.775,63.686 83.146,207.861 83.146,207.861 152.507,242.902 174.45,73.076 "/>
<polygon style="fill:#FCB72C;" points="337.601,73.467 360.457,243.172 429.629,207.759 505.705,223.61 482.849,53.905 "/>
<polygon style="fill:#FF9900;" points="410.225,63.686 429.629,207.759 429.629,207.759 505.705,223.61 482.849,53.905 "/>
<polygon style="fill:#FD0023;" points="182.72,72.875 182.72,244.113 256,218.249 329.279,244.113 329.279,72.875 "/>
<polygon style="fill:#DC001E;" points="256,72.875 256,218.249 256,218.249 329.279,244.113 329.279,72.875 "/>
<path style="fill:#FFE97F;" d="M256,60.875c-85.89,0-171.979-9.083-256-26.951v30.674c84.088,17.436,170.143,26.277,256,26.277
	s171.912-8.841,256-26.277V33.924C427.979,51.792,341.89,60.875,256,60.875z"/>
<path style="fill:#FFDB2D;" d="M256,60.875L256,60.875v30l0,0c85.857,0,171.912-8.841,256-26.277V33.924
	C427.979,51.792,341.89,60.875,256,60.875z"/>
<polygon style="fill:#FD0023;" points="29.099,288.258 7.157,458.084 83.146,441.824 152.507,476.865 174.45,307.039 "/>
<polygon style="fill:#DC001E;" points="101.774,297.648 83.146,441.824 83.146,441.824 152.507,476.865 174.45,307.039 "/>
<polygon style="fill:#00E08B;" points="337.601,307.43 360.457,477.135 429.629,441.722 505.705,457.573 482.849,287.868 "/>
<polygon style="fill:#00BB75;" points="410.225,297.648 429.629,441.722 429.629,441.722 505.705,457.573 482.849,287.868 "/>
<polygon style="fill:#FCB72C;" points="182.72,306.838 182.72,478.076 256,452.212 329.279,478.076 329.279,306.838 "/>
<polygon style="fill:#FF9900;" points="256,306.838 256,452.212 256,452.212 329.279,478.076 329.279,306.838 "/>
<path style="fill:#FFE97F;" d="M256,294.838c-85.89,0-171.979-9.083-256-26.951v30.674c84.088,17.436,170.143,26.277,256,26.277
	s171.912-8.841,256-26.277v-30.674C427.979,285.755,341.89,294.838,256,294.838z"/>
<path style="fill:#FFDB2D;" d="M256,294.838L256,294.838v30l0,0c85.857,0,171.912-8.841,256-26.277v-30.674
	C427.979,285.755,341.89,294.838,256,294.838z"/>
<g>
</g>
<g>
</g>
<g>
</g>
<g>
</g>
<g>
</g>
<g>
</g>
<g>
</g>
<g>
</g>
<g>
</g>
<g>
</g>
<g>
</g>
<g>
</g>
<g>
</g>
<g>
</g>
<g>
</g>
</svg>
