<?xml version="1.0" encoding="iso-8859-1"?>
<!-- Generator: Adobe Illustrator 19.0.0, SVG Export Plug-In . SVG Version: 6.00 Build 0)  -->
<svg version="1.1" id="Capa_1" xmlns="http://www.w3.org/2000/svg" xmlns:xlink="http://www.w3.org/1999/xlink" x="0px" y="0px"
	 viewBox="0 0 512.001 512.001" style="enable-background:new 0 0 512.001 512.001;" xml:space="preserve">
<g>
	
		<rect x="160.619" y="99.053" transform="matrix(-0.1581 -0.9874 0.9874 -0.1581 130.8651 339.6077)" style="fill:#FFA720;" width="99.184" height="29.923"/>
	
		<rect x="288.441" y="64.422" transform="matrix(-0.9874 -0.1581 0.1581 -0.9874 584.9632 274.564)" style="fill:#FFA720;" width="29.923" height="99.184"/>
</g>
<path style="fill:#FF8600;" d="M502.227,158.507c-28.28-30.044-58.599-44.57-90.085-43.158c-48.79,2.179-80.97,42.456-82.316,44.169
	l-8.236,10.484l9.47,9.385c25.481,25.253,53.514,38.05,83.351,38.05c0.388,0,0.778-0.002,1.166-0.007
	c49.553-0.553,85.036-36.741,86.522-38.28l9.902-10.261L502.227,158.507z"/>
<path style="fill:#FFA720;" d="M182.174,159.519c-1.347-1.714-33.526-41.991-82.317-44.169c-31.5-1.41-61.807,13.113-90.085,43.158
	L0,168.89l9.901,10.261c1.486,1.54,36.969,37.728,86.522,38.28c0.39,0.004,0.777,0.007,1.166,0.007
	c29.834,0,57.872-12.798,83.351-38.05l9.47-9.385L182.174,159.519z"/>
<path style="fill:#FFD82D;" d="M371.455,296.236l-31.878,94.997c7.222,13.625,20.787,45.953,7.75,77.981
	c-4.858,11.939-16.677,27.949-45.384,36.367c-16.139,4.738-32.796,5.765-44.247,5.765h-0.888
	c-11.451,0.06-28.577-0.908-45.135-5.765c-28.707-8.418-40.526-24.428-45.384-36.367c-13.037-32.018,0.509-64.336,7.74-77.971
	c0.01-0.01,0.01-0.01,0.01-0.01l-31.888-94.997c-14.124-39.718-16.977-73.283-8.468-99.765
	c9.167-28.557,34.941-47.748,64.126-47.748h117.998c29.185,0,54.96,19.191,64.126,47.748
	C388.442,222.954,385.589,256.518,371.455,296.236z"/>
<path style="fill:#FFA720;" d="M347.327,469.214c-4.858,11.939-16.677,27.949-45.384,36.367
	c-16.139,4.738-32.796,5.765-44.247,5.765h-0.888c-11.451,0.06-28.577-0.908-45.135-5.765
	c-28.707-8.418-40.526-24.428-45.384-36.367c-13.037-32.018,0.509-64.336,7.74-77.971c0.01-0.01,0.01-0.01,0.01-0.01
	s35.05-19.001,82.778-19.67c25.156-0.349,53.832,4.379,82.758,19.67C346.798,404.859,360.364,437.186,347.327,469.214z"/>
<path style="fill:#FBBD00;" d="M371.455,296.236l-31.878,94.997c7.222,13.625,20.787,45.953,7.75,77.981
	c-4.858,11.939-16.677,27.949-45.384,36.367c-16.139,4.738-32.796,5.765-44.247,5.765h-0.878V148.723h58.989
	c29.185,0,54.96,19.191,64.126,47.748C388.442,222.954,385.589,256.518,371.455,296.236z"/>
<path style="fill:#FF8600;" d="M347.327,469.214c-4.858,11.939-16.677,27.949-45.384,36.367
	c-16.139,4.738-32.796,5.765-44.247,5.765h-0.878V371.564c25.156-0.349,53.832,4.379,82.758,19.67
	C346.798,404.859,360.364,437.186,347.327,469.214z"/>
<path style="fill:#E37500;" d="M197.699,0.652c-23.065,0-41.829,18.764-41.829,41.829c0,23.064,18.764,41.829,41.829,41.829
	c23.064,0,41.829-18.764,41.829-41.829C239.527,19.416,220.763,0.652,197.699,0.652z"/>
<path style="fill:#974C00;" d="M315.919,0.652c-23.064,0-41.829,18.764-41.829,41.829c0,23.064,18.765,41.829,41.829,41.829
	c23.064,0,41.829-18.764,41.829-41.829S338.983,0.652,315.919,0.652z"/>
<circle style="fill:#57555C;" cx="216.646" cy="259.796" r="15.979"/>
<circle style="fill:#3A3A41;" cx="296.971" cy="259.796" r="15.979"/>
<rect x="216.457" y="415.089" style="fill:#E37500;" width="29.591" height="29.591"/>
<rect x="267.576" y="415.089" style="fill:#974C00;" width="29.591" height="29.591"/>
<g>
</g>
<g>
</g>
<g>
</g>
<g>
</g>
<g>
</g>
<g>
</g>
<g>
</g>
<g>
</g>
<g>
</g>
<g>
</g>
<g>
</g>
<g>
</g>
<g>
</g>
<g>
</g>
<g>
</g>
</svg>
