<?xml version="1.0" encoding="iso-8859-1"?>
<!-- Generator: Adobe Illustrator 19.0.0, SVG Export Plug-In . SVG Version: 6.00 Build 0)  -->
<svg version="1.1" id="Capa_1" xmlns="http://www.w3.org/2000/svg" xmlns:xlink="http://www.w3.org/1999/xlink" x="0px" y="0px"
	 viewBox="0 0 512 512" style="enable-background:new 0 0 512 512;" xml:space="preserve">
<g>
	<path style="fill:#F8D534;" d="M282.19,373.54v-27.794c0-4.146-3.36-7.506-7.506-7.506s-7.506,3.36-7.506,7.506v22.528
		c-93.968-3.949-169.202-81.623-169.202-176.552c0-16.449,2.252-32.706,6.693-48.325c10.279-36.25,32.504-68.917,62.578-91.982
		c29.001-22.244,63.327-34.689,99.703-36.235v21.867c0,4.146,3.36,7.506,7.506,7.506s7.506-3.36,7.506-7.506V9.678
		c0-0.1-0.011-0.197-0.015-0.296c0.155-0.6,0.245-1.226,0.245-1.876c0-4.146-3.36-7.506-7.506-7.506
		c-42.57,0-82.881,13.659-116.575,39.503c-32.62,25.019-56.729,60.462-67.883,99.794c-4.821,16.95-7.265,34.589-7.265,52.426
		c0,105.722,86.007,191.734,191.723,191.734c4.146,0,7.506-3.36,7.506-7.506c0-0.414-0.042-0.819-0.107-1.215
		C282.148,374.346,282.19,373.948,282.19,373.54z"/>
	<path style="fill:#F8D534;" d="M320.518,471.823h-88.597V445.82c0-7.988,6.476-14.465,14.465-14.465h59.668
		c7.988,0,14.465,6.476,14.465,14.465v26.002H320.518z"/>
</g>
<path style="fill:#E5C129;" d="M320.516,445.824v25.998h-20.231v-25.998c0-7.994-6.479-14.464-14.464-14.464h20.231
	C314.037,431.361,320.516,437.83,320.516,445.824z"/>
<path style="fill:#F8D534;" d="M367.535,512H179.818v-16.905c0-13.013,10.55-23.562,23.562-23.562h145.679
	c13.013,0,23.562,10.549,23.562,23.562v11.819C372.621,509.723,370.344,512,367.535,512z"/>
<path style="fill:#E5C129;" d="M372.625,495.105v11.809c0,2.809-2.277,5.086-5.086,5.086H349.79v-16.905
	c0-13.01-10.548-23.557-23.557-23.557h22.825C362.074,471.538,372.625,482.09,372.625,495.105z"/>
<path style="fill:#E4E8EB;" d="M296.453,431.592h-40.467v-50.465c0-2.809,2.277-5.086,5.086-5.086h30.296
	c2.809,0,5.086,2.277,5.086,5.086v50.465H296.453z"/>
<path style="fill:#D6D6D6;" d="M296.451,381.123v50.471h-17.434v-55.557h12.348C294.172,376.038,296.451,378.316,296.451,381.123z"
	/>
<path style="fill:#1D83D8;" d="M429.036,191.671c0,53.989-27.719,101.503-69.701,129.093c-24.302,15.97-53.389,25.253-84.636,25.253
	c-85.237,0-154.338-69.101-154.338-154.347c0-14.631,2.032-28.791,5.847-42.203c18.354-64.722,77.885-112.135,148.491-112.135
	c23.314,0,45.418,5.163,65.231,14.428c23.748,11.084,44.198,28.034,59.503,48.992C418.054,126.256,429.036,157.679,429.036,191.671z
	"/>
<path style="fill:#147BC1;" d="M429.037,191.669c0,53.991-27.717,101.502-69.705,129.097c-24.3,15.969-53.38,25.255-84.637,25.255
	c-53.715,0-101.014-27.443-128.66-69.075c28.003,28.399,66.918,46.016,109.954,46.016c31.247,0,60.338-9.286,84.637-25.256
	c41.978-27.585,69.695-75.107,69.695-129.086c0-31.501-9.419-60.795-25.643-85.217c5.33,5.411,10.263,11.209,14.749,17.353
	C418.051,126.256,429.037,157.675,429.037,191.669z"/>
<path style="fill:#B6D84D;" d="M359.336,320.764c-24.302,15.97-53.389,25.253-84.636,25.253
	c-85.237,0-154.338-69.101-154.338-154.347c0-14.631,2.032-28.791,5.847-42.203h13.578c6.919,0,13.412,3.381,17.384,9.052
	c4.009,5.727,10.52,9.061,17.384,9.061c1.035,0,2.079-0.074,3.123-0.231l49.177-7.334c2.734-0.406,5.117-2.069,6.429-4.499
	l3.75-6.91c2.365-4.36,7.869-5.893,12.147-3.399c1.358,0.795,2.891,1.201,4.425,1.201c0.832,0,1.653-0.12,2.457-0.351l14.336-4.165
	c2.706-0.785,5.626-0.221,7.851,1.515l4.175,3.252c5.016,3.907,4.342,11.675-1.265,14.677l-13.126,7.011
	c-1.145,0.618-2.134,1.478-2.909,2.512l-12.377,16.663c-1.894,2.568-2.263,5.958-0.952,8.858l5.69,12.58
	c0.332,0.73,0.563,1.515,0.684,2.309l4.757,31.6c0.378,2.54,1.857,4.785,4.027,6.143l21.328,13.338
	c2.928,1.828,4.508,5.191,4.055,8.609l-5.311,39.857c-0.702,5.265,3.39,9.948,8.701,9.948h63.61V320.764z"/>
<path style="fill:#ACC63E;" d="M359.331,320.765c-2.704,0-8.92,5.47-11.482,6.853c-4.153,2.24-8.41,4.289-12.751,6.137
	c-8.798,3.745-17.947,6.664-27.288,8.706c-20.654,4.515-42.65,4.861-63.376,0.589c-7.293-1.503-15.147-3.661-22.215-6.184
	c-14.107-5.038-27.406-12.26-39.427-21.185c-6.383-4.739-12.174-9.832-17.756-15.411c-5.927-5.923-11.331-12.474-16.203-19.255
	c-0.234-0.325-0.467-0.661-0.702-0.997c-0.712-1.007-1.404-2.024-2.075-3.051c28.003,28.389,66.908,45.995,109.934,45.995
	c11.881,0,23.445-1.343,34.553-3.885c1.444,1.058,3.225,1.688,5.177,1.688C295.718,320.765,359.309,320.765,359.331,320.765z"/>
<g>
	<path style="fill:#B6D84D;" d="M331.51,177.518l-12.005,16.507c-0.981,1.349-1.688,2.877-2.082,4.499l-2.043,8.419
		c-1.95,8.035,4.137,15.776,12.406,15.776h16.141c2.385,0,4.722,0.668,6.746,1.929l10.385,6.464c4.177,2.6,9.479,2.568,13.624-0.083
		l4.001-2.559c7.639-4.885,7.892-15.955,0.484-21.184l-13.335-9.413c-1.678-1.185-3.045-2.757-3.986-4.583l-7.633-14.817
		c-3.522-6.837-12.244-9.03-18.581-4.674l-1.031,0.709C333.408,175.327,332.363,176.346,331.51,177.518z"/>
	<path style="fill:#B6D84D;" d="M399.432,100.753l-4.748,16.802L366.17,98.047c-4.073-2.789-9.32-3.159-13.735-0.979l-8.627,4.248
		c-4.979,2.448-10.955,1.644-15.102-2.051l-12.359-11.001c-0.887-0.795-1.866-1.459-2.928-1.996
		c-10.604-5.348-9.8-20.737,1.302-24.939c7.98-3.02,16.765-6.355,25.207-9.57C363.676,62.845,384.127,79.795,399.432,100.753z"/>
</g>
<g>
</g>
<g>
</g>
<g>
</g>
<g>
</g>
<g>
</g>
<g>
</g>
<g>
</g>
<g>
</g>
<g>
</g>
<g>
</g>
<g>
</g>
<g>
</g>
<g>
</g>
<g>
</g>
<g>
</g>
</svg>
