<?xml version="1.0" encoding="iso-8859-1"?>
<!-- Generator: Adobe Illustrator 19.0.0, SVG Export Plug-In . SVG Version: 6.00 Build 0)  -->
<svg version="1.1" id="Capa_1" xmlns="http://www.w3.org/2000/svg" xmlns:xlink="http://www.w3.org/1999/xlink" x="0px" y="0px"
	 viewBox="0 0 512 512" style="enable-background:new 0 0 512 512;" xml:space="preserve">
<path style="fill:#F8D534;" d="M396.597,511.995H362.77c-2.846,0-5.153-2.307-5.153-5.153v-56.503
	c0-12.186,9.879-22.067,22.067-22.067l0,0c12.186,0,22.067,9.879,22.067,22.067v56.503
	C401.75,509.688,399.442,511.995,396.597,511.995z"/>
<path style="fill:#E5C129;" d="M401.745,450.34v56.507c0,2.845-2.298,5.153-5.153,5.153h-21.179c2.844,0,5.153-2.308,5.153-5.153
	V450.34c0-6.091-2.463-11.615-6.462-15.603c-1.474-1.474-3.164-2.742-5.009-3.751c3.143-1.731,6.75-2.711,10.584-2.711
	c6.09,0,11.615,2.473,15.603,6.462C399.271,438.725,401.745,444.249,401.745,450.34z"/>
<circle style="fill:#F8D534;" cx="379.682" cy="413.658" r="22.07"/>
<path style="fill:#E5C129;" d="M401.745,413.661c0,12.181-9.873,22.065-22.065,22.065c-10.038,0-18.509-6.709-21.179-15.881
	c2.329,0.835,4.833,1.288,7.441,1.288c12.181,0,22.065-9.883,22.065-22.065c0-2.154-0.309-4.236-0.886-6.193
	C395.654,395.925,401.745,404.087,401.745,413.661z"/>
<path style="fill:#6B717F;" d="M93.325,119.759c0,0,0,217.363,0,218.069c0.007,4.146,4.355,6.97,7.556,8.743
	c23.166,12.827,49.423,21.683,76.002,26.332c38.804,6.786,80.244,6.505,119.488,4.352c27.892-1.53,55.887-6.169,82.203-15.744
	c12.913-4.698,27.102-10.474,38.106-19.194c1.249-0.989,1.993-2.483,1.993-4.077V119.759H93.325z"/>
<path style="fill:#5A606D;" d="M418.677,128.51v209.733c0,1.587-0.752,3.081-2,4.07c-10.697,8.471-24.384,14.17-36.998,27.549
	V128.51H418.677z"/>
<rect x="93.325" y="238.482" style="fill:#E4E8EB;" width="325.349" height="35.505"/>
<rect x="379.682" y="238.482" style="fill:#D6D6D6;" width="38.99" height="35.505"/>
<path style="fill:#6B717F;" d="M230.831,5.369L32.626,93.967c-4.121,1.842-4.121,7.691,0,9.534l198.204,88.598
	c16.016,7.159,34.322,7.159,50.338,0L479.373,103.5c4.121-1.842,4.121-7.691,0-9.534L281.168,5.369
	C265.152-1.79,246.847-1.79,230.831,5.369z"/>
<path style="fill:#5A606D;" d="M479.368,103.496l-198.203,88.6c-16.016,7.163-34.318,7.163-50.334,0l-0.288-0.134
	c0.299-0.124,0.588-0.247,0.886-0.382l198.213-88.6c4.112-1.844,4.112-7.688,0-9.533L231.719,4.982
	c15.799-6.771,33.732-6.637,49.448,0.382l198.203,88.6C483.491,95.808,483.491,101.662,479.368,103.496z"/>
<g>
	<path style="fill:#F8D534;" d="M380.314,399.1c-4.149,0-7.51-3.362-7.51-7.51V152.063l-94.765-56.772
		c-3.57-2.111-4.752-6.717-2.641-10.287c2.111-3.569,6.72-4.75,10.287-2.641l98.452,58.953c2.285,1.352,3.687,3.809,3.687,6.464
		v243.809C387.824,395.738,384.461,399.1,380.314,399.1z"/>
	<ellipse style="fill:#F8D534;" cx="255.995" cy="81.32" rx="43.338" ry="16.896"/>
</g>
<path style="fill:#E5C129;" d="M299.335,81.319c0,9.327-19.406,16.891-43.336,16.891s-43.337-7.564-43.337-16.891
	c0-0.547,0.072-1.092,0.206-1.628c7.884,3.225,19.004,5.225,31.319,5.225c22.538,0,41.048-6.699,43.14-15.274
	C294.77,72.672,299.335,76.783,299.335,81.319z"/>
<g>
</g>
<g>
</g>
<g>
</g>
<g>
</g>
<g>
</g>
<g>
</g>
<g>
</g>
<g>
</g>
<g>
</g>
<g>
</g>
<g>
</g>
<g>
</g>
<g>
</g>
<g>
</g>
<g>
</g>
</svg>
