<?xml version="1.0" encoding="iso-8859-1"?>
<!-- Generator: Adobe Illustrator 19.0.0, SVG Export Plug-In . SVG Version: 6.00 Build 0)  -->
<svg version="1.1" id="Capa_1" xmlns="http://www.w3.org/2000/svg" xmlns:xlink="http://www.w3.org/1999/xlink" x="0px" y="0px"
	 viewBox="0 0 512 512" style="enable-background:new 0 0 512 512;" xml:space="preserve">
<g>
	<path style="fill:#008000;" d="M511.916,122.092l-35.265,15.501c-45.066,19.81-76.638,59.008-91.301,113.359
		c-10.799,40.028-8.66,74.147-8.563,75.58l0.94,13.994h98.298l-1.401-16.286c-8.298-96.473,21.504-166.208,21.796-166.88
		L511.916,122.092z"/>
	<path style="fill:#008000;" d="M376.51,122.092l-35.265,15.501c-45.066,19.81-76.638,59.008-91.301,113.359
		c-10.799,40.028-8.66,74.147-8.563,75.58l0.94,13.994h98.298l-1.401-16.286c-8.298-96.473,21.504-166.208,21.796-166.88
		L376.51,122.092z"/>
</g>
<path style="fill:#00AA00;" d="M444.178,122.092l-35.265,15.501c-45.066,19.81-76.638,59.008-91.301,113.359
	c-10.799,40.028-8.66,74.147-8.564,75.58l0.94,13.994h98.298l-1.401-16.286c-8.298-96.473,21.504-166.208,21.796-166.88
	L444.178,122.092z"/>
<path style="fill:#008000;" d="M194.689,250.952c-14.663-54.351-46.234-93.549-91.301-113.359l-35.095-15.409l15.316,35.153
	c0.302,0.693,30.104,70.429,21.805,166.902l-1.401,16.286h98.299l0.94-13.994C203.35,325.099,205.488,290.979,194.689,250.952z"/>
<g>
	<path style="fill:#00AA00;" d="M126.95,250.952c-14.663-54.351-46.234-93.549-91.301-113.359L0.385,122.092l15.496,35.267
		c0.302,0.688,30.136,69.926,21.796,166.88l-1.401,16.286h98.298l0.941-13.994C135.61,325.099,137.749,290.98,126.95,250.952z"/>
	<path style="fill:#00AA00;" d="M262.357,250.952c-14.663-54.351-46.235-93.55-91.302-113.359l-35.265-15.501l15.496,35.267
		c0.302,0.688,30.136,69.926,21.796,166.88l-1.401,16.286h98.299l0.94-13.994C271.018,325.099,273.156,290.979,262.357,250.952z"/>
</g>
<rect y="310.529" style="fill:#E37500;" width="512" height="79.38"/>
<rect x="255.62" y="310.529" style="fill:#974C00;" width="256.38" height="79.38"/>
<g>
</g>
<g>
</g>
<g>
</g>
<g>
</g>
<g>
</g>
<g>
</g>
<g>
</g>
<g>
</g>
<g>
</g>
<g>
</g>
<g>
</g>
<g>
</g>
<g>
</g>
<g>
</g>
<g>
</g>
</svg>
