<?xml version="1.0" encoding="iso-8859-1"?>
<!-- Generator: Adobe Illustrator 18.0.0, SVG Export Plug-In . SVG Version: 6.00 Build 0)  -->
<!DOCTYPE svg PUBLIC "-//W3C//DTD SVG 1.1//EN" "http://www.w3.org/Graphics/SVG/1.1/DTD/svg11.dtd">
<svg version="1.1" id="Capa_1" xmlns="http://www.w3.org/2000/svg" xmlns:xlink="http://www.w3.org/1999/xlink" x="0px" y="0px"
	 viewBox="0 0 58 58" style="enable-background:new 0 0 58 58;" xml:space="preserve">
<g>
	<rect x="3" y="11" style="fill:#F9EAB0;" width="51" height="30"/>
	<polygon style="fill:#7F5B53;" points="56,41 41,41 37,41 2,41 0,52 2,58 37,58 41,58 56,58 58,52 	"/>
	<path style="fill:#71C285;" d="M17,0h-2.976H14v0.001C7.502,0.012,1.839,4.372,0.104,10.637C-0.109,11.406,0.188,11,0.378,11H14h1
		h14V0H17z"/>
	<path style="fill:#F3D55B;" d="M45,11h12.645c0.178,0,0.401,0.172,0.257-0.341l-0.006-0.023C56.277,4.689,51.075,0.473,45,0.043V0
		h-1.024H41H29v11h14H45z"/>
	<path style="fill:#BDC3C7;" d="M16.999,37.972L9,29.973l1.126-1.126c3.796-3.796,9.952-3.796,13.748,0L25,29.973l-7.999,7.999
		C17,37.973,17,37.973,16.999,37.972z"/>
	<rect x="15" y="37.973" style="fill:#A5A5A4;" width="4" height="3"/>
	<circle style="fill:#14A085;" cx="39" cy="37" r="3"/>
	<circle style="fill:#4C8056;" cx="45" cy="37" r="3"/>
	<circle style="fill:#71C285;" cx="42" cy="32" r="3"/>
	<path style="fill:#F3D55B;" d="M29,11H15l0,0c1.158-6.37,6.706-11,13.18-11H29V11z"/>
	<path style="fill:#71C285;" d="M43,11H29V0h0.82C36.294,0,41.842,4.63,43,11L43,11z"/>
	<path style="fill:#68AD77;" d="M8,20H7c-3.866,0-7-3.134-7-7l0-1.84C0,11.072,0.072,11,0.16,11H15v2C15,16.866,11.866,20,8,20z"/>
	<path style="fill:#DDC357;" d="M22,20L22,20c-3.866,0-7-3.134-7-7v-2h14v2C29,16.866,25.866,20,22,20z"/>
	<path style="fill:#68AD77;" d="M36,20L36,20c-3.866,0-7-3.134-7-7v-2h14v2C43,16.866,39.866,20,36,20z"/>
	<path style="fill:#DDC357;" d="M51,20h-1c-3.866,0-7-3.134-7-7v-2h14.84c0.088,0,0.16,0.072,0.16,0.16V13
		C58,16.866,54.866,20,51,20z"/>
	<path style="fill:#7F6E5D;" d="M2,17.894V41h4V19.92C4.442,19.697,3.05,18.967,2,17.894z"/>
	<path style="fill:#7F6E5D;" d="M52,19.92V41h4V17.894C54.95,18.967,53.558,19.697,52,19.92z"/>
	<g>
		<polygon style="fill:#805333;" points="0,52 2,58 21,58 19,52 		"/>
		<polygon style="fill:#805333;" points="39,52 37,58 56,58 58,52 		"/>
	</g>
	<polygon style="fill:#563621;" points="37,58 21,58 19,52 39,52 	"/>
	<path style="fill:#ECF0F1;" d="M16.999,37.972c0,0,0.001,0,0.002,0L18,36.973v-7c0-0.553-0.448-1-1-1s-1,0.447-1,1v7L16.999,37.972
		z"/>
	<path style="fill:#D1D4D1;" d="M24,38.974H10c-0.552,0-1-0.447-1-1s0.448-1,1-1h14c0.552,0,1,0.447,1,1S24.552,38.974,24,38.974z"
		/>
	<polygon style="fill:#24AE5F;" points="21,41 2,41 0,52 19,52 	"/>
	<polygon style="fill:#71C285;" points="58,52 56,41 37,41 39,52 	"/>
	<polygon style="fill:#4C8056;" points="37,41 21,41 19,52 39,52 	"/>
</g>
<g>
</g>
<g>
</g>
<g>
</g>
<g>
</g>
<g>
</g>
<g>
</g>
<g>
</g>
<g>
</g>
<g>
</g>
<g>
</g>
<g>
</g>
<g>
</g>
<g>
</g>
<g>
</g>
<g>
</g>
</svg>
