<?xml version="1.0" encoding="iso-8859-1"?>
<!-- Generator: Adobe Illustrator 19.0.0, SVG Export Plug-In . SVG Version: 6.00 Build 0)  -->
<svg version="1.1" id="Capa_1" xmlns="http://www.w3.org/2000/svg" xmlns:xlink="http://www.w3.org/1999/xlink" x="0px" y="0px"
	 viewBox="0 0 512 512" style="enable-background:new 0 0 512 512;" xml:space="preserve">
<path style="fill:#FF9900;" d="M345.733,300.261c1.83-7.281,2.754-14.764,2.754-22.352c0-50.553-41.128-91.682-91.682-91.682
	s-91.682,41.128-91.682,91.682c0,7.587,0.924,15.07,2.754,22.352c-22.747,23.203-35.618,54.458-35.618,87.194
	C132.259,456.13,188.13,512,256.805,512S381.35,456.129,381.35,387.455C381.351,354.718,368.479,323.464,345.733,300.261z"/>
<path style="fill:#DD8500;" d="M256.806,512c68.675,0,124.545-55.871,124.545-124.545c0-32.736-12.871-63.991-35.617-87.193
	c1.83-7.281,2.754-14.764,2.754-22.352c0-50.553-41.128-91.682-91.682-91.682"/>
<rect x="228.109" style="fill:#5B5B5B;" width="57.39" height="117.64"/>
<polygon style="fill:#FD0023;" points="105.125,247.148 88.485,222.186 113.805,205.306 113.805,114.397 178.18,146.583 
	164.764,173.417 143.805,162.938 143.805,221.361 "/>
<polygon style="fill:#4EC1F5;" points="350.459,172.481 333.818,147.519 359.139,130.639 359.139,39.73 423.514,71.917 
	410.098,98.75 389.139,88.271 389.139,146.695 "/>
<circle cx="256.809" cy="387.45" r="32.864"/>
<path style="fill:#FFF8D5;" d="M271.806,342.012V64h-30v278.012c-19.065,6.31-32.864,24.289-32.864,45.442
	c0,26.392,21.472,47.864,47.864,47.864s47.863-21.472,47.863-47.864C304.669,366.302,290.87,348.322,271.806,342.012z
	 M256.806,405.318c-9.85,0-17.864-8.014-17.864-17.864s8.014-17.863,17.864-17.863c9.85,0,17.863,8.014,17.863,17.863
	C274.669,397.305,266.655,405.318,256.806,405.318z"/>
<path style="fill:#FFE97F;" d="M271.806,342.012V64h-15v305.591l0,0c9.85,0,17.863,8.014,17.863,17.863
	c0,9.85-8.014,17.864-17.863,17.864l0,0v30l0,0c26.392,0,47.863-21.472,47.863-47.864
	C304.669,366.302,290.87,348.322,271.806,342.012z"/>
<g>
</g>
<g>
</g>
<g>
</g>
<g>
</g>
<g>
</g>
<g>
</g>
<g>
</g>
<g>
</g>
<g>
</g>
<g>
</g>
<g>
</g>
<g>
</g>
<g>
</g>
<g>
</g>
<g>
</g>
</svg>
