<?xml version="1.0" encoding="iso-8859-1"?>
<!-- Generator: Adobe Illustrator 19.0.0, SVG Export Plug-In . SVG Version: 6.00 Build 0)  -->
<svg version="1.1" id="Capa_1" xmlns="http://www.w3.org/2000/svg" xmlns:xlink="http://www.w3.org/1999/xlink" x="0px" y="0px"
	 viewBox="0 0 512 512" style="enable-background:new 0 0 512 512;" xml:space="preserve">
<path style="fill:#FEC478;" d="M296,512h-80c-57.897,0-105-47.103-105-105v-92c0-39.724,15.75-76.792,44.348-104.376h201.304
	C385.25,238.208,401,275.276,401,315v92C401,464.897,353.897,512,296,512z"/>
<path style="fill:#FEA832;" d="M356.652,210.624H256V512h40c57.897,0,105-47.103,105-105v-92
	C401,275.276,385.25,238.208,356.652,210.624z"/>
<path style="fill:#FEC478;" d="M362.213,111H149.787L81,42.213V36c0-19.85,16.149-36,36-36h278c19.851,0,36,16.15,36,36v6.213
	L362.213,111z"/>
<path style="fill:#FEA832;" d="M395,0H256v111h106.213L431,42.213V36C431,16.15,414.851,0,395,0z"/>
<path style="fill:#E08344;" d="M162.213,81h187.573l49.346-49.346C398.056,30.63,396.6,30,395,30H117c-1.6,0-3.056,0.63-4.133,1.654
	L162.213,81z"/>
<path style="fill:#D6702B;" d="M395,30H256v51h93.787l49.346-49.346C398.056,30.63,396.6,30,395,30z"/>
<path style="fill:#FEDBAB;" d="M365.631,94.541c-6.548-8.185-11.693-17.409-15.127-27.313C336.937,28.096,299.75,0,256,0
	s-80.937,28.096-94.505,67.228c-3.434,9.903-8.579,19.128-15.127,27.313l0,0C133.183,111.021,126,131.499,126,152.604l0,0
	c0,48.82,39.576,88.396,88.396,88.396h83.209c48.82,0,88.396-39.576,88.396-88.396l0,0C386,131.499,378.817,111.021,365.631,94.541
	L365.631,94.541z"/>
<path style="fill:#FEC478;" d="M365.631,94.541L365.631,94.541c-6.548-8.185-11.693-17.409-15.127-27.313
	C336.937,28.096,299.75,0,256,0v241h41.604c48.82,0,88.396-39.576,88.396-88.396l0,0C386,131.499,378.817,111.021,365.631,94.541z"
	/>
<rect x="241" y="181" style="fill:#BF6015;" width="30" height="60"/>
<circle cx="206" cy="116" r="20"/>
<circle cx="306" cy="116" r="20"/>
<rect x="211" y="166" style="fill:#E08344;" width="90" height="30"/>
<rect x="256" y="166" style="fill:#D6702B;" width="45" height="30"/>
<g>
	<path style="fill:#FEC478;" d="M336,285c-16.569,0-30,13.431-30,30l0,0c0,16.569,13.431,30,30,30h65v-30
		c0-10.215-1.049-20.252-3.083-30H336z"/>
	<path style="fill:#FEC478;" d="M400.698,415H336c-16.569,0-30,13.431-30,30l0,0c0,16.569,13.431,30,30,30h39.937
		C389.935,458.57,398.972,437.791,400.698,415z"/>
</g>
<g>
	<path style="fill:#FEDBAB;" d="M206,315L206,315c0-16.569-13.431-30-30-30h-61.917c-2.034,9.748-3.083,19.785-3.083,30v30h65
		C192.569,345,206,331.569,206,315z"/>
	<path style="fill:#FEDBAB;" d="M206,445c0-16.569-13.431-30-30-30h-64.698c1.725,22.791,10.763,43.57,24.761,60H176
		C192.569,475,206,461.569,206,445L206,445z"/>
</g>
<g>
</g>
<g>
</g>
<g>
</g>
<g>
</g>
<g>
</g>
<g>
</g>
<g>
</g>
<g>
</g>
<g>
</g>
<g>
</g>
<g>
</g>
<g>
</g>
<g>
</g>
<g>
</g>
<g>
</g>
</svg>
