<?xml version="1.0" encoding="iso-8859-1"?>
<!-- Generator: Adobe Illustrator 19.0.0, SVG Export Plug-In . SVG Version: 6.00 Build 0)  -->
<svg version="1.1" id="Capa_1" xmlns="http://www.w3.org/2000/svg" xmlns:xlink="http://www.w3.org/1999/xlink" x="0px" y="0px"
	 viewBox="0 0 512 512" style="enable-background:new 0 0 512 512;" xml:space="preserve">
<g>
	<path style="fill:#FF3100;" d="M181.729,277.805l-81.017,220.347l-50.531-18.574L0,461.124l10.652-28.986l9.052-1.14
		c4.131-0.52,7.592-3.261,9.022-7.162c1.01-2.751,0.89-5.731-0.33-8.402c-4.141-9.072-4.591-19.074-1.25-28.166
		c3.341-9.082,10.162-16.414,19.194-20.634c2.661-1.24,4.681-3.441,5.691-6.191c1.02-2.761,0.9-5.741-0.32-8.412
		c-4.151-9.072-4.591-19.074-1.25-28.156c3.341-9.092,10.152-16.424,19.194-20.644c2.661-1.24,4.681-3.441,5.691-6.191
		c1.13-3.081,0.66-5.761,0.06-7.462c-3.891-11.062-3.901-22.955-0.02-33.487l5.631-15.313l49.651,18.254L181.729,277.805z"/>
	<path style="fill:#FF3100;" d="M512,461.124l-52.071,19.144l-48.65,17.884l-81.017-220.347l49.841-18.324l50.881-18.704
		l5.631,15.313c3.871,10.532,3.871,22.425-0.02,33.487c-0.6,1.7-1.08,4.381,0.06,7.462c1.01,2.751,3.031,4.951,5.691,6.191
		c9.032,4.221,15.853,11.552,19.194,20.644c3.341,9.082,2.891,19.084-1.25,28.156c-1.22,2.671-1.34,5.651-0.33,8.412
		c1.01,2.751,3.041,4.951,5.691,6.191c9.042,4.221,15.853,11.552,19.194,20.644c3.351,9.082,2.901,19.084-1.25,28.156
		c-1.22,2.671-1.33,5.651-0.32,8.402c1.43,3.901,4.891,6.641,9.022,7.162l9.052,1.14L512,461.124z"/>
</g>
<polygon style="fill:#C91C00;" points="181.729,277.805 100.712,498.152 50.181,479.578 130.668,259.031 "/>
<rect x="153.613" y="89.864" transform="matrix(-0.9386 -0.3451 0.3451 -0.9386 272.3447 364.5131)" style="fill:#78777F;" width="30.007" height="136.304"/>
<rect x="275.23" y="143.021" transform="matrix(-0.3451 -0.9386 0.9386 -0.3451 313.5616 534.8449)" style="fill:#57555C;" width="136.304" height="30.006"/>
<g>
	<polygon style="fill:#FFDAA8;" points="214.076,235.776 186.26,311.442 120.386,287.227 57.982,264.282 85.808,188.616 
		148.022,211.49 	"/>
	<polygon style="fill:#FFDAA8;" points="454.018,264.282 390.304,287.707 325.74,311.442 297.914,235.776 362.888,211.891 
		426.192,188.616 	"/>
</g>
<path style="fill:#D8D8DA;" d="M256.115,13.848c-43.499,0-78.887,35.398-78.887,78.897s35.388,78.887,78.887,78.887
	c43.499,0,78.887-35.388,78.887-78.887S299.614,13.848,256.115,13.848z M256.115,141.625c-26.956,0-48.88-21.925-48.88-48.88
	s21.925-48.891,48.88-48.891c26.956,0,48.88,21.935,48.88,48.891S283.071,141.625,256.115,141.625z"/>
<path style="fill:#C7C5CC;" d="M335.002,92.745c0,43.499-35.388,78.887-78.887,78.887v-30.006c26.956,0,48.88-21.925,48.88-48.88
	s-21.925-48.891-48.88-48.891V13.848C299.614,13.848,335.002,49.246,335.002,92.745z"/>
<path style="fill:#C91C00;" d="M512,461.124l-52.071,19.144l-79.827-220.787l50.881-18.704l5.631,15.313
	c3.871,10.532,3.871,22.425-0.02,33.487c-0.6,1.7-1.08,4.381,0.06,7.462c1.01,2.751,3.031,4.951,5.691,6.191
	c9.032,4.221,15.853,11.552,19.194,20.644c3.341,9.082,2.891,19.084-1.25,28.156c-1.22,2.671-1.34,5.651-0.33,8.412
	c1.01,2.751,3.041,4.951,5.691,6.191c9.042,4.221,15.853,11.552,19.194,20.644c3.351,9.082,2.901,19.084-1.25,28.156
	c-1.22,2.671-1.33,5.651-0.32,8.402c1.43,3.901,4.891,6.641,9.022,7.162l9.052,1.14L512,461.124z"/>
<g>
	<polygon style="fill:#FFC373;" points="454.018,264.282 390.304,287.707 362.888,211.891 426.192,188.616 	"/>
	<polygon style="fill:#FFC373;" points="214.076,235.776 186.26,311.442 120.386,287.227 148.022,211.49 	"/>
</g>
<g>
</g>
<g>
</g>
<g>
</g>
<g>
</g>
<g>
</g>
<g>
</g>
<g>
</g>
<g>
</g>
<g>
</g>
<g>
</g>
<g>
</g>
<g>
</g>
<g>
</g>
<g>
</g>
<g>
</g>
</svg>
