<?xml version="1.0" encoding="iso-8859-1"?>
<!-- Generator: Adobe Illustrator 19.0.0, SVG Export Plug-In . SVG Version: 6.00 Build 0)  -->
<svg version="1.1" id="Capa_1" xmlns="http://www.w3.org/2000/svg" xmlns:xlink="http://www.w3.org/1999/xlink" x="0px" y="0px"
	 viewBox="0 0 512 512" style="enable-background:new 0 0 512 512;" xml:space="preserve">
<g>
	<rect x="241" y="341.33" style="fill:#FF4F19;" width="30" height="85.33"/>
	<polygon style="fill:#FF4F19;" points="415.941,507.607 461.135,462.412 415.941,417.217 394.727,438.43 403.709,447.412 
		275.589,447.412 275.589,477.412 403.709,477.412 394.727,486.394 	"/>
</g>
<polygon style="fill:#BF3B13;" points="461.135,462.412 275.589,462.412 275.589,477.412 403.709,477.412 394.727,486.394 
	415.941,507.607 "/>
<polygon style="fill:#FF4F19;" points="96.059,507.607 50.865,462.412 96.059,417.217 117.273,438.43 108.291,447.412 
	236.411,447.412 236.411,477.412 108.291,477.412 117.273,486.394 "/>
<polygon style="fill:#BF3B13;" points="50.865,462.412 236.411,462.412 236.411,477.412 108.291,477.412 117.273,486.394 
	96.059,507.607 "/>
<path style="fill:#FFDB2D;" d="M345.667,512H166.333v-94h179.333v94H345.667z"/>
<rect x="256" y="418" style="fill:#FFB300;" width="89.67" height="94"/>
<path style="fill:#B7E4F8;" d="M107.73,0v395.259h296.54V0H107.73z"/>
<path style="fill:#6FC8F1;" d="M256,0v395.259h148.27V0H256z"/>
<g>
	<path style="fill:#132F3B;" d="M256,74.039c-51.817,0-93.975,42.157-93.975,93.975s42.157,93.975,93.975,93.975
		s93.976-42.157,93.976-93.975C349.975,116.196,307.818,74.039,256,74.039z M192.025,168.014c0-35.276,28.699-63.975,63.975-63.975
		s63.976,28.699,63.976,63.975S291.277,231.989,256,231.989C220.724,231.989,192.025,203.29,192.025,168.014z"/>
	<path style="fill:#132F3B;" d="M256,123.398c-24.601,0-44.615,20.015-44.615,44.616S231.4,212.629,256,212.629
		c24.602,0,44.616-20.014,44.616-44.615S280.601,123.398,256,123.398z M256,182.629c-8.059,0-14.615-6.556-14.615-14.615
		s6.557-14.616,14.615-14.616c8.06,0,14.616,6.557,14.616,14.616C270.616,176.073,264.059,182.629,256,182.629z"/>
	<rect x="315.33" y="305" style="fill:#132F3B;" width="30" height="30"/>
</g>
<path style="fill:#265D77;" d="M256,335h-89.667v-46.683L256,193.476V335z"/>
<g>
</g>
<g>
</g>
<g>
</g>
<g>
</g>
<g>
</g>
<g>
</g>
<g>
</g>
<g>
</g>
<g>
</g>
<g>
</g>
<g>
</g>
<g>
</g>
<g>
</g>
<g>
</g>
<g>
</g>
</svg>
