<?xml version="1.0" encoding="iso-8859-1"?>
<!-- Generator: Adobe Illustrator 19.0.0, SVG Export Plug-In . SVG Version: 6.00 Build 0)  -->
<svg version="1.1" id="Capa_1" xmlns="http://www.w3.org/2000/svg" xmlns:xlink="http://www.w3.org/1999/xlink" x="0px" y="0px"
	 viewBox="0 0 58 58" style="enable-background:new 0 0 58 58;" xml:space="preserve">
<rect x="2" y="6.5" style="fill:#E7ECED;" width="54" height="38"/>
<rect x="10" y="44.5" style="fill:#AFB6BB;" width="38" height="2"/>
<path style="fill:#E7ECED;" d="M57.282,51.5H0.718C0.321,51.5,0,51.179,0,50.782v-3.564C0,46.821,0.321,46.5,0.718,46.5h56.564
	c0.396,0,0.718,0.321,0.718,0.718v3.564C58,51.179,57.679,51.5,57.282,51.5z"/>
<path style="fill:#AFB6BB;" d="M12,42.5H7c-0.552,0-1-0.448-1-1s0.448-1,1-1h5c0.552,0,1,0.448,1,1S12.552,42.5,12,42.5z"/>
<path style="fill:#AFB6BB;" d="M52,42.5h-1c-0.552,0-1-0.448-1-1s0.448-1,1-1h1c0.552,0,1,0.448,1,1S52.552,42.5,52,42.5z"/>
<path style="fill:#AFB6BB;" d="M48,42.5h-1c-0.552,0-1-0.448-1-1s0.448-1,1-1h1c0.552,0,1,0.448,1,1S48.552,42.5,48,42.5z"/>
<rect x="7" y="11.5" style="fill:#38454F;" width="44" height="27"/>
<g>
	<path style="fill:#546A79;" d="M11,21.5c0.256,0,0.512-0.098,0.707-0.293l4-4c0.391-0.391,0.391-1.023,0-1.414
		s-1.023-0.391-1.414,0l-4,4c-0.391,0.391-0.391,1.023,0,1.414C10.488,21.402,10.744,21.5,11,21.5z"/>
	<path style="fill:#546A79;" d="M11,26.5c0.256,0,0.512-0.098,0.707-0.293l2-2c0.391-0.391,0.391-1.023,0-1.414
		s-1.023-0.391-1.414,0l-2,2c-0.391,0.391-0.391,1.023,0,1.414C10.488,26.402,10.744,26.5,11,26.5z"/>
	<path style="fill:#546A79;" d="M14.29,20.79C14.11,20.98,14,21.23,14,21.5s0.11,0.52,0.29,0.71c0.19,0.18,0.45,0.29,0.71,0.29
		c0.26,0,0.52-0.11,0.71-0.29C15.89,22.02,16,21.76,16,21.5c0-0.26-0.11-0.52-0.29-0.71C15.33,20.42,14.66,20.43,14.29,20.79z"/>
	<path style="fill:#546A79;" d="M16.293,20.207C16.488,20.402,16.744,20.5,17,20.5s0.512-0.098,0.707-0.293l3-3
		c0.391-0.391,0.391-1.023,0-1.414s-1.023-0.391-1.414,0l-3,3C15.902,19.184,15.902,19.816,16.293,20.207z"/>
	<path style="fill:#546A79;" d="M19.293,20.793l-9,9c-0.391,0.391-0.391,1.023,0,1.414C10.488,31.402,10.744,31.5,11,31.5
		s0.512-0.098,0.707-0.293l9-9c0.391-0.391,0.391-1.023,0-1.414S19.684,20.402,19.293,20.793z"/>
	<path style="fill:#546A79;" d="M21.29,18.79C21.11,18.98,21,19.24,21,19.5c0,0.26,0.11,0.52,0.29,0.71
		c0.19,0.18,0.44,0.29,0.71,0.29s0.52-0.11,0.71-0.29C22.89,20.02,23,19.76,23,19.5c0-0.26-0.11-0.52-0.29-0.71
		C22.34,18.42,21.66,18.42,21.29,18.79z"/>
	<path style="fill:#546A79;" d="M25.707,15.793c-0.391-0.391-1.023-0.391-1.414,0l-1,1c-0.391,0.391-0.391,1.023,0,1.414
		C23.488,18.402,23.744,18.5,24,18.5s0.512-0.098,0.707-0.293l1-1C26.098,16.816,26.098,16.184,25.707,15.793z"/>
</g>
<g>
</g>
<g>
</g>
<g>
</g>
<g>
</g>
<g>
</g>
<g>
</g>
<g>
</g>
<g>
</g>
<g>
</g>
<g>
</g>
<g>
</g>
<g>
</g>
<g>
</g>
<g>
</g>
<g>
</g>
</svg>
