<?xml version="1.0" encoding="iso-8859-1"?>
<!-- Generator: Adobe Illustrator 19.0.0, SVG Export Plug-In . SVG Version: 6.00 Build 0)  -->
<svg version="1.1" id="Capa_1" xmlns="http://www.w3.org/2000/svg" xmlns:xlink="http://www.w3.org/1999/xlink" x="0px" y="0px"
	 viewBox="0 0 512 512" style="enable-background:new 0 0 512 512;" xml:space="preserve">
<polygon style="fill:#DEDEE0;" points="192.862,448.004 157.516,448.004 157.516,448.004 127.516,448.004 127.516,512 222.862,512 
	222.862,448.004 "/>
<polygon style="fill:#D6D6D8;" points="354.483,448.004 354.483,448.004 319.138,448.004 319.138,448.004 289.138,448.004 
	289.138,512 384.483,512 384.483,448.004 "/>
<path style="fill:#3A3A41;" d="M369.488,0c-15.957,0-31.203,5.951-42.932,16.758c-11.657,10.741-18.83,25.328-20.195,41.073
	l14.944,1.296l0,0l59.99,51.156l0,0l3.649,14.549c28.211-7.076,47.913-32.351,47.913-61.462C432.858,28.428,404.431,0,369.488,0z"/>
<path style="fill:#57555C;" d="M184.871,16.758C173.142,5.951,157.895,0,141.938,0c-34.942,0-63.37,28.428-63.37,63.37
	c0,29.111,19.703,54.386,47.914,61.462l3.65-14.549l59.99-51.155l0,0l14.944-1.296C203.701,42.086,196.528,27.499,184.871,16.758z"
	/>
<path style="fill:#88868F;" d="M423.09,196.52c0,8.2-0.6,16.46-1.79,24.56l-14.84-2.18H105.54l-14.84,2.18
	c-1.19-8.1-1.79-16.36-1.79-24.56c0-92.13,74.96-167.09,167.09-167.09S423.09,104.39,423.09,196.52z"/>
<path style="fill:#78777F;" d="M423.09,196.52c0,8.2-0.6,16.46-1.79,24.56l-14.84-2.18H256V29.43
	C348.13,29.43,423.09,104.39,423.09,196.52z"/>
<path style="fill:#C5C3CA;" d="M441.45,442.91c-14.45,15.03-33.9,23.31-54.76,23.31H125.31c-20.86,0-40.31-8.28-54.76-23.31
	c-14.46-15.04-21.97-34.79-21.16-55.64l4.04-102.98c1.6-40.94,34.95-73.01,75.92-73.01h253.3c40.97,0,74.32,32.07,75.92,73.01
	l4.04,102.98C463.42,408.12,455.91,427.87,441.45,442.91z"/>
<path style="fill:#ABAAB0;" d="M441.45,442.91c-14.45,15.03-33.9,23.31-54.76,23.31H256V211.28h126.65
	c40.97,0,74.32,32.07,75.92,73.01l4.04,102.98C463.42,408.12,455.91,427.87,441.45,442.91z"/>
<circle style="fill:#57555C;" cx="204.53" cy="164" r="15.52"/>
<circle style="fill:#3A3A41;" cx="307.47" cy="164" r="15.52"/>
<rect x="163.22" y="264.85" style="fill:#57555C;" width="30" height="42.15"/>
<rect x="318.78" y="264.85" style="fill:#3A3A41;" width="30" height="42.15"/>
<g>
</g>
<g>
</g>
<g>
</g>
<g>
</g>
<g>
</g>
<g>
</g>
<g>
</g>
<g>
</g>
<g>
</g>
<g>
</g>
<g>
</g>
<g>
</g>
<g>
</g>
<g>
</g>
<g>
</g>
</svg>
