<?xml version="1.0" encoding="iso-8859-1"?>
<!-- Generator: Adobe Illustrator 19.0.0, SVG Export Plug-In . SVG Version: 6.00 Build 0)  -->
<svg version="1.1" id="Capa_1" xmlns="http://www.w3.org/2000/svg" xmlns:xlink="http://www.w3.org/1999/xlink" x="0px" y="0px"
	 viewBox="0 0 512 512" style="enable-background:new 0 0 512 512;" xml:space="preserve">
<g>
	<rect x="338.67" y="45" style="fill:#713708;" width="160.33" height="30"/>
	<rect x="338.67" y="105" style="fill:#713708;" width="160.33" height="30"/>
	<rect x="338.67" y="165" style="fill:#713708;" width="160.33" height="30"/>
	<rect x="338.67" y="225" style="fill:#713708;" width="160.33" height="30"/>
	<rect x="338.67" y="285" style="fill:#713708;" width="160.33" height="30"/>
	<rect x="338.67" y="345" style="fill:#713708;" width="160.33" height="30"/>
	<rect x="338.67" y="405" style="fill:#713708;" width="160.33" height="30"/>
	<rect x="338.67" y="465" style="fill:#713708;" width="160.33" height="30"/>
</g>
<path style="fill:#E08344;" d="M358,0l-41,56h-61.511c-10.902,0-21.713,1.981-31.907,5.846L13,136v60c0,33.137,26.863,60,60,60h166
	l-81,256h270L368,0H358z"/>
<polygon style="fill:#D6702B;" points="368,0 358,0 317,56 317,512 428,512 "/>
<g>
	<circle style="fill:#713708;" cx="249" cy="116" r="20"/>
	<circle style="fill:#713708;" cx="73" cy="186" r="20"/>
</g>
<polygon style="fill:#00C3FF;" points="394.369,225.014 154,225.942 154,86.348 124,96.912 124,256 139.046,256 397.883,255 "/>
<g>
</g>
<g>
</g>
<g>
</g>
<g>
</g>
<g>
</g>
<g>
</g>
<g>
</g>
<g>
</g>
<g>
</g>
<g>
</g>
<g>
</g>
<g>
</g>
<g>
</g>
<g>
</g>
<g>
</g>
</svg>
