<?xml version="1.0" encoding="iso-8859-1"?>
<!-- Generator: Adobe Illustrator 19.0.0, SVG Export Plug-In . SVG Version: 6.00 Build 0)  -->
<svg version="1.1" id="Layer_1" xmlns="http://www.w3.org/2000/svg" xmlns:xlink="http://www.w3.org/1999/xlink" x="0px" y="0px"
	 viewBox="0 0 489.142 489.142" style="enable-background:new 0 0 489.142 489.142;" xml:space="preserve">
<g>
	<path style="fill:#99E9EC;" d="M205.743,371.485V314.63h-89.803v-20c0-49.518,40.286-89.803,89.803-89.803v-18.169
		c-30.273,0-54.901-24.629-54.901-54.902s24.628-54.902,54.901-54.902V40C114.352,40,40,114.352,40,205.743
		C40,297.133,114.352,371.485,205.743,371.485z"/>
	<path style="fill:#66DDE2;" d="M260.644,131.757c0,30.273-24.628,54.902-54.901,54.902v18.169
		c49.518,0,89.803,40.286,89.803,89.803v20h-89.803v56.855c91.391,0,165.742-74.352,165.742-165.743
		C371.485,114.352,297.133,40,205.743,40v36.855C236.016,76.855,260.644,101.484,260.644,131.757z"/>
	<path style="fill:#6E76E5;" d="M150.841,131.757c0,30.273,24.628,54.902,54.901,54.902V76.855
		C175.47,76.855,150.841,101.484,150.841,131.757z"/>
	<path style="fill:#515BE0;" d="M260.644,131.757c0-30.273-24.628-54.902-54.901-54.902v109.803
		C236.016,186.658,260.644,162.029,260.644,131.757z"/>
	<path style="fill:#6E76E5;" d="M295.545,294.63c0-49.518-40.285-89.803-89.803-89.803s-89.803,40.286-89.803,89.803v20h179.606
		V294.63z"/>
	<path style="fill:#B39A7C;" d="M489.142,460.858L364.614,336.329c-8.494,10.315-17.97,19.791-28.285,28.285l124.528,124.528
		L489.142,460.858z"/>
	<path style="fill:#806749;" d="M364.614,336.329c29.272-35.548,46.871-81.05,46.871-130.586C411.485,92.296,319.189,0,205.743,0
		C92.296,0,0,92.296,0,205.743c0,113.447,92.296,205.743,205.743,205.743c49.536,0,95.038-17.6,130.586-46.872
		C346.644,356.12,356.12,346.644,364.614,336.329z M205.743,40c91.391,0,165.742,74.352,165.742,165.743
		c0,91.391-74.352,165.743-165.742,165.743S40,297.133,40,205.743C40,114.352,114.352,40,205.743,40z"/>
</g>
<g>
</g>
<g>
</g>
<g>
</g>
<g>
</g>
<g>
</g>
<g>
</g>
<g>
</g>
<g>
</g>
<g>
</g>
<g>
</g>
<g>
</g>
<g>
</g>
<g>
</g>
<g>
</g>
<g>
</g>
</svg>
