<?xml version="1.0" encoding="iso-8859-1"?>
<!-- Generator: Adobe Illustrator 18.0.0, SVG Export Plug-In . SVG Version: 6.00 Build 0)  -->
<!DOCTYPE svg PUBLIC "-//W3C//DTD SVG 1.1//EN" "http://www.w3.org/Graphics/SVG/1.1/DTD/svg11.dtd">
<svg version="1.1" id="Capa_1" xmlns="http://www.w3.org/2000/svg" xmlns:xlink="http://www.w3.org/1999/xlink" x="0px" y="0px"
	 viewBox="0 0 58 58" style="enable-background:new 0 0 58 58;" xml:space="preserve">
<g>
	<path style="fill:#F0EDE0;" d="M0,3v44h38v-7.305C39.593,41.124,41.692,42,44,42s4.407-0.876,6-2.305V47h8V3H0z"/>
	<circle style="fill:#DDC043;" cx="44" cy="33" r="9"/>
	<path style="fill:#F3D55B;" d="M44,42c-2.308,0-4.407-0.876-6-2.305V55l6-6l6,6V39.695C48.407,41.124,46.308,42,44,42z"/>
	<g>
		<path style="fill:#D6D1BB;" d="M54,24c-0.552,0-1-0.447-1-1v-1c0-0.553,0.448-1,1-1s1,0.447,1,1v1C55,23.553,54.552,24,54,24z"/>
		<path style="fill:#D6D1BB;" d="M54,17.167c-0.552,0-1-0.447-1-1v-2.333c0-0.553,0.448-1,1-1s1,0.447,1,1v2.333
			C55,16.72,54.552,17.167,54,17.167z"/>
		<path style="fill:#D6D1BB;" d="M54,9c-0.552,0-1-0.447-1-1c-0.552,0-1-0.447-1-1s0.448-1,1-1h2v2C55,8.553,54.552,9,54,9z"/>
		<path style="fill:#D6D1BB;" d="M47.894,8h-2.042c-0.552,0-1-0.447-1-1s0.448-1,1-1h2.042c0.552,0,1,0.447,1,1S48.446,8,47.894,8z
			 M40.745,8h-2.042c-0.552,0-1-0.447-1-1s0.448-1,1-1h2.042c0.552,0,1,0.447,1,1S41.297,8,40.745,8z M33.596,8h-2.042
			c-0.552,0-1-0.447-1-1s0.448-1,1-1h2.042c0.552,0,1,0.447,1,1S34.148,8,33.596,8z M26.447,8h-2.042c-0.552,0-1-0.447-1-1
			s0.448-1,1-1h2.042c0.552,0,1,0.447,1,1S26.999,8,26.447,8z M19.298,8h-2.042c-0.552,0-1-0.447-1-1s0.448-1,1-1h2.042
			c0.552,0,1,0.447,1,1S19.85,8,19.298,8z M12.149,8h-2.042c-0.552,0-1-0.447-1-1s0.448-1,1-1h2.042c0.552,0,1,0.447,1,1
			S12.701,8,12.149,8z"/>
		<path style="fill:#D6D1BB;" d="M4,9C3.448,9,3,8.553,3,8V6h2c0.552,0,1,0.447,1,1S5.552,8,5,8C5,8.553,4.552,9,4,9z"/>
		<path style="fill:#D6D1BB;" d="M4,37.849c-0.552,0-1-0.447-1-1v-2.061c0-0.553,0.448-1,1-1s1,0.447,1,1v2.061
			C5,37.401,4.552,37.849,4,37.849z M4,30.636c-0.552,0-1-0.447-1-1v-2.061c0-0.553,0.448-1,1-1s1,0.447,1,1v2.061
			C5,30.188,4.552,30.636,4,30.636z M4,23.424c-0.552,0-1-0.447-1-1v-2.061c0-0.553,0.448-1,1-1s1,0.447,1,1v2.061
			C5,22.977,4.552,23.424,4,23.424z M4,16.212c-0.552,0-1-0.447-1-1v-2.061c0-0.553,0.448-1,1-1s1,0.447,1,1v2.061
			C5,15.765,4.552,16.212,4,16.212z"/>
		<path style="fill:#D6D1BB;" d="M5,44H3v-2c0-0.553,0.448-1,1-1s1,0.447,1,1c0.552,0,1,0.447,1,1S5.552,44,5,44z"/>
		<path style="fill:#D6D1BB;" d="M26,44h-2c-0.552,0-1-0.447-1-1s0.448-1,1-1h2c0.552,0,1,0.447,1,1S26.552,44,26,44z M19,44h-2
			c-0.552,0-1-0.447-1-1s0.448-1,1-1h2c0.552,0,1,0.447,1,1S19.552,44,19,44z M12,44h-2c-0.552,0-1-0.447-1-1s0.448-1,1-1h2
			c0.552,0,1,0.447,1,1S12.552,44,12,44z"/>
		<path style="fill:#D6D1BB;" d="M32,44h-1c-0.552,0-1-0.447-1-1s0.448-1,1-1h1c0.552,0,1,0.447,1,1S32.552,44,32,44z"/>
	</g>
	<path style="fill:#24AE5F;" d="M18,18c0,0.553,0.448,1,1,1s1-0.447,1-1c0-2.414-1.721-4.434-4-4.899V12c0-0.553-0.448-1-1-1
		s-1,0.447-1,1v1.104c-1.091,0.222-2.085,0.801-2.818,1.668c-0.611,0.722-0.894,1.646-0.794,2.603
		c0.102,0.979,0.606,1.887,1.383,2.491L14,21.6v5.438c-1.161-0.414-2-1.514-2-2.816c0-0.553-0.448-1-1-1s-1,0.447-1,1
		c0,2.414,1.721,4.434,4,4.899V30c0,0.553,0.448,1,1,1s1-0.447,1-1v-0.882c1.091-0.222,2.085-0.801,2.819-1.668
		c0.611-0.724,0.893-1.648,0.793-2.605c-0.103-0.978-0.606-1.885-1.383-2.488L16,20.623v-5.438C17.161,15.598,18,16.698,18,18z
		 M17.001,23.935c0.349,0.271,0.576,0.68,0.622,1.118c0.043,0.41-0.075,0.803-0.331,1.105c-0.348,0.411-0.798,0.699-1.292,0.875
		v-3.878L17.001,23.935z M12.999,18.288c-0.35-0.272-0.576-0.681-0.622-1.12c-0.042-0.409,0.075-0.801,0.331-1.104
		c0.348-0.411,0.798-0.699,1.292-0.875v3.877L12.999,18.288z"/>
	<g>
		<path style="fill:#D4C3A5;" d="M47,15H24c-0.552,0-1,0.447-1,1s0.448,1,1,1h23c0.552,0,1-0.447,1-1S47.552,15,47,15z"/>
		<path style="fill:#D4C3A5;" d="M35,21H24c-0.552,0-1,0.447-1,1s0.448,1,1,1h11c0.552,0,1-0.447,1-1S35.552,21,35,21z"/>
		<path style="fill:#D4C3A5;" d="M32,27h-8c-0.552,0-1,0.447-1,1s0.448,1,1,1h8c0.552,0,1-0.447,1-1S32.552,27,32,27z"/>
		<path style="fill:#D4C3A5;" d="M31,34H10c-0.552,0-1,0.447-1,1s0.448,1,1,1h21c0.552,0,1-0.447,1-1S31.552,34,31,34z"/>
	</g>
	<circle style="fill:#F9EAB0;" cx="44" cy="33" r="5"/>
</g>
<g>
</g>
<g>
</g>
<g>
</g>
<g>
</g>
<g>
</g>
<g>
</g>
<g>
</g>
<g>
</g>
<g>
</g>
<g>
</g>
<g>
</g>
<g>
</g>
<g>
</g>
<g>
</g>
<g>
</g>
</svg>
