<?xml version="1.0" encoding="iso-8859-1"?>
<!-- Generator: Adobe Illustrator 19.0.0, SVG Export Plug-In . SVG Version: 6.00 Build 0)  -->
<svg version="1.1" id="Capa_1" xmlns="http://www.w3.org/2000/svg" xmlns:xlink="http://www.w3.org/1999/xlink" x="0px" y="0px"
	 viewBox="0 0 59 59" style="enable-background:new 0 0 59 59;" xml:space="preserve">
<rect x="5.5" y="23" style="fill:#AFB6BB;" width="6" height="3"/>
<rect x="2.5" y="12" style="fill:#CED5D8;" width="12" height="11"/>
<path style="fill:#E6E6E6;" d="M13.5,12h-10V2.248C3.5,1.006,4.506,0,5.748,0h5.504C12.494,0,13.5,1.006,13.5,2.248V12z"/>
<rect x="47.5" y="18" style="fill:#AFB6BB;" width="8" height="7"/>
<path style="fill:#E7ECED;" d="M46.5,25v5.206c0,0.439,0.356,0.794,0.794,0.794H49.5v-2h4v2h2.206c0.439,0,0.794-0.356,0.794-0.794
	V25H46.5z"/>
<circle style="fill:none;stroke:#E7ECED;stroke-width:2;stroke-miterlimit:10;" cx="28.5" cy="46" r="12"/>
<path style="fill:none;stroke:#E7ECED;stroke-width:2;stroke-miterlimit:10;" d="M8.5,26v13.514v-0.973
	C8.5,49.296,17.204,58,27.959,58C40.867,58,51.5,50.556,51.5,37.649V33"/>
<path style="fill:#AFB6BB;" d="M51.5,34L51.5,34c-1.105,0-2-0.895-2-2v-3h4v3C53.5,33.105,52.605,34,51.5,34z"/>
<path style="fill:#AFB6BB;" d="M51.5,34L51.5,34c-1.105,0-2-0.895-2-2v-3h4v3C53.5,33.105,52.605,34,51.5,34z"/>
<path style="fill:#AFB6BB;" d="M51.5,34L51.5,34c-1.105,0-2-0.895-2-2v-3h4v3C53.5,33.105,52.605,34,51.5,34z"/>
<path style="fill:#AFB6BB;" d="M51.5,34L51.5,34c-1.105,0-2-0.895-2-2v-3h4v3C53.5,33.105,52.605,34,51.5,34z"/>
<circle style="fill:none;stroke:#E7ECED;stroke-width:2;stroke-miterlimit:10;" cx="28.5" cy="43" r="15"/>
<rect x="48.5" y="20" style="fill:#E7ECED;" width="2" height="2"/>
<rect x="52.5" y="20" style="fill:#E7ECED;" width="2" height="2"/>
<g>
	<rect x="4.5" y="3" style="fill:#D3AA6E;" width="2" height="4"/>
	<rect x="7.5" y="3" style="fill:#D3AA6E;" width="2" height="4"/>
	<rect x="10.5" y="3" style="fill:#D3AA6E;" width="2" height="4"/>
</g>
<g>
</g>
<g>
</g>
<g>
</g>
<g>
</g>
<g>
</g>
<g>
</g>
<g>
</g>
<g>
</g>
<g>
</g>
<g>
</g>
<g>
</g>
<g>
</g>
<g>
</g>
<g>
</g>
<g>
</g>
</svg>
