<?xml version="1.0" encoding="iso-8859-1"?>
<!-- Generator: Adobe Illustrator 19.0.0, SVG Export Plug-In . SVG Version: 6.00 Build 0)  -->
<svg version="1.1" id="Capa_1" xmlns="http://www.w3.org/2000/svg" xmlns:xlink="http://www.w3.org/1999/xlink" x="0px" y="0px"
	 viewBox="0 0 50.796 50.796" style="enable-background:new 0 0 50.796 50.796;" xml:space="preserve">
<path style="fill:#38454F;" d="M9.337,41.477L9.337,41.477c-2.734-2.734-2.734-7.166,0-9.899L25.6,15.314l9.899,9.899L19.236,41.477
	C16.502,44.21,12.07,44.21,9.337,41.477z"/>
<path style="fill:#546A79;" d="M9.337,41.477c-0.492-0.492-0.892-1.04-1.206-1.622l-7.527,7.527c-0.781,0.781-0.781,2.047,0,2.828
	c0.781,0.781,2.047,0.781,2.828,0l7.527-7.527C10.376,42.368,9.828,41.968,9.337,41.477z"/>
<path style="fill:#D3AA6E;" d="M44.692,8.95l1.414-1.414c0.391-0.391,1.024-0.391,1.414,0v0c0.391,0.391,1.024,0.391,1.414,0
	L49.52,6.95c1.477-1.477,1.716-3.876,0.386-5.487c-1.526-1.848-4.268-1.945-5.921-0.291l-0.707,0.707
	c-0.391,0.391-0.391,1.024,0,1.414v0c0.391,0.391,0.391,1.024,0,1.414l-1.414,1.414c-0.391,0.391-1.024,0.391-1.414,0v0
	c-0.391-0.391-1.024-0.391-1.414,0L27.721,17.435l5.657,5.657l11.314-11.314c0.391-0.391,0.391-1.024,0-1.414v0
	C44.301,9.973,44.301,9.34,44.692,8.95z"/>
<rect x="35.035" y="10.778" transform="matrix(0.7072 0.707 -0.707 0.7072 19.7585 -24.1505)" style="fill:#38454F;" width="8" height="2"/>
<rect x="20.014" y="22.799" transform="matrix(-0.7071 -0.7071 0.7071 -0.7071 29.2873 59.7296)" style="fill:#546A79;" width="14" height="2"/>
<g>
</g>
<g>
</g>
<g>
</g>
<g>
</g>
<g>
</g>
<g>
</g>
<g>
</g>
<g>
</g>
<g>
</g>
<g>
</g>
<g>
</g>
<g>
</g>
<g>
</g>
<g>
</g>
<g>
</g>
</svg>
