<?xml version="1.0" encoding="iso-8859-1"?>
<!-- Generator: Adobe Illustrator 18.0.0, SVG Export Plug-In . SVG Version: 6.00 Build 0)  -->
<!DOCTYPE svg PUBLIC "-//W3C//DTD SVG 1.1//EN" "http://www.w3.org/Graphics/SVG/1.1/DTD/svg11.dtd">
<svg version="1.1" id="Capa_1" xmlns="http://www.w3.org/2000/svg" xmlns:xlink="http://www.w3.org/1999/xlink" x="0px" y="0px"
	 viewBox="0 0 58 58" style="enable-background:new 0 0 58 58;" xml:space="preserve">
<g>
	<path style="fill:#744716;" d="M22.631,12.348l-1.078-1.078c-0.483-0.483-0.483-1.267,0-1.75l8.856-8.856
		c0.483-0.483,1.267-0.483,1.75,0l1.078,1.078c0.483,0.483,0.483,1.267,0,1.75l-8.856,8.856
		C23.898,12.831,23.114,12.831,22.631,12.348z"/>
	<path style="fill:#744716;" d="M42.43,32.147l-1.078-1.078c-0.483-0.483-0.483-1.267,0-1.75l8.856-8.856
		c0.483-0.483,1.267-0.483,1.75,0l1.078,1.078c0.483,0.483,0.483,1.267,0,1.75l-8.856,8.856C43.697,32.63,42.913,32.63,42.43,32.147
		z"/>
	<path style="fill:#9D714B;" d="M50.208,18.712l-1.246-1.246c-0.387-0.387-1.023-0.401-1.406-0.009
		c-0.39,0.399-1.029,0.402-1.423,0.009l-9.899-9.899c-0.387-0.387-0.401-1.023-0.009-1.405c0.399-0.39,0.402-1.03,0.009-1.423
		l-1.246-1.246c-0.483-0.483-1.267-0.483-1.75,0l-8.856,8.856c-0.483,0.483-0.483,1.267,0,1.75l1.246,1.246
		c0.387,0.387,1.023,0.401,1.405,0.009c0.39-0.399,1.03-0.402,1.423-0.009l1.596,1.596c0.68,0.68,0.68,1.784,0,2.464l-7.96,7.96
		l-1.414-1.414c-0.781-0.781-2.047-0.781-2.828,0c-0.781,0.781-0.781,2.047,0,2.828l1.414,1.414l-9.775,9.775
		c-0.656,0.656-1.479,1.122-2.379,1.347l-2.905,0.726c-0.9,0.225-1.723,0.691-2.379,1.347L1.5,43.714C0.54,44.675,0,45.977,0,47.336
		c0,1.358,0.54,2.661,1.5,3.621L2.743,52.2c0.96,0.96,2.263,1.5,3.621,1.5s2.661-0.54,3.621-1.5l0.325-0.325
		c0.656-0.656,1.122-1.479,1.347-2.379l0.726-2.905c0.225-0.9,0.691-1.723,1.347-2.379l9.775-9.775l1.414,1.414
		c0.781,0.781,2.047,0.781,2.828,0c0.781-0.781,0.781-2.047,0-2.828l-1.414-1.414l7.96-7.96c0.68-0.68,1.784-0.68,2.464,0
		l1.596,1.596c0.387,0.387,0.401,1.023,0.009,1.406c-0.399,0.39-0.402,1.029-0.009,1.423l1.246,1.246
		c0.483,0.483,1.267,0.483,1.75,0l8.856-8.856C50.691,19.979,50.691,19.195,50.208,18.712z"/>
	<path style="fill:#9D714B;" d="M58,57.7H37v0c0-3.314,2.686-6,6-6h9C55.314,51.7,58,54.386,58,57.7L58,57.7z"/>
	<path style="fill:#744818;" d="M54,51.7H41c-0.552,0-1-0.447-1-1s0.448-1,1-1h13c0.552,0,1,0.447,1,1S54.552,51.7,54,51.7z"/>
</g>
<g>
</g>
<g>
</g>
<g>
</g>
<g>
</g>
<g>
</g>
<g>
</g>
<g>
</g>
<g>
</g>
<g>
</g>
<g>
</g>
<g>
</g>
<g>
</g>
<g>
</g>
<g>
</g>
<g>
</g>
</svg>
