<?xml version="1.0" encoding="iso-8859-1"?>
<!-- Generator: Adobe Illustrator 19.0.0, SVG Export Plug-In . SVG Version: 6.00 Build 0)  -->
<svg version="1.1" id="Capa_1" xmlns="http://www.w3.org/2000/svg" xmlns:xlink="http://www.w3.org/1999/xlink" x="0px" y="0px"
	 viewBox="0 0 512 512" style="enable-background:new 0 0 512 512;" xml:space="preserve">
<path style="fill:#FEDBAB;" d="M461.991,492H321V391c0-35.841-29.159-65-65-65s-65,29.159-65,65v101H50.009V306L256,57
	l205.991,249.028V492z"/>
<path style="fill:#FEC478;" d="M256,57v269c35.841,0,65,29.159,65,65v101h140.991V306.028L256,57z"/>
<path style="fill:#0A4EAF;" d="M450.01,321.031L256,96.456L62.017,321H0v-30.479L228.026,20h55.948L512,290.521v30.473
	L450.01,321.031z"/>
<polygon style="fill:#063E8B;" points="283.974,20 256,20 256,96.456 450.01,321.031 512,320.994 512,290.521 "/>
<g>
</g>
<g>
</g>
<g>
</g>
<g>
</g>
<g>
</g>
<g>
</g>
<g>
</g>
<g>
</g>
<g>
</g>
<g>
</g>
<g>
</g>
<g>
</g>
<g>
</g>
<g>
</g>
<g>
</g>
</svg>
