<?xml version="1.0" encoding="iso-8859-1"?>
<!-- Generator: Adobe Illustrator 19.0.0, SVG Export Plug-In . SVG Version: 6.00 Build 0)  -->
<svg version="1.1" id="Layer_1" xmlns="http://www.w3.org/2000/svg" xmlns:xlink="http://www.w3.org/1999/xlink" x="0px" y="0px"
	 viewBox="0 0 495.024 495.024" style="enable-background:new 0 0 495.024 495.024;" xml:space="preserve">
<g>
	<path style="fill:#A7ADF0;" d="M450.508,44.498l-41.946,41.946c17.296,17.296,17.296,45.326,0,62.621
		c-17.289,17.289-45.326,17.296-62.621,0L0.159,494.848l154.51,0.177l-0.007-55.727h55.706v-55.706h55.706v-67.416l22.429-22.429
		c17.338,6.647,35.949,10.112,54.582,10.119c40.581-0.007,78.736-15.804,107.424-44.505
		C509.742,200.125,509.749,103.74,450.508,44.498z"/>
	<path style="fill:#C4C8F5;" d="M345.941,86.444c17.296-17.296,45.333-17.289,62.621,0l41.946-41.946
		C421.814,15.804,383.658,0.007,343.077,0c-40.588,0-78.736,15.804-107.438,44.505c-42.865,42.865-55.869,106.37-34.387,162.019
		L0.272,407.506l-0.184,87.342h0.071l345.782-345.782C328.652,131.776,328.652,103.733,345.941,86.444z"/>
</g>
<g>
</g>
<g>
</g>
<g>
</g>
<g>
</g>
<g>
</g>
<g>
</g>
<g>
</g>
<g>
</g>
<g>
</g>
<g>
</g>
<g>
</g>
<g>
</g>
<g>
</g>
<g>
</g>
<g>
</g>
</svg>
