<?xml version="1.0" encoding="iso-8859-1"?>
<!-- Generator: Adobe Illustrator 19.0.0, SVG Export Plug-In . SVG Version: 6.00 Build 0)  -->
<svg version="1.1" id="Layer_1" xmlns="http://www.w3.org/2000/svg" xmlns:xlink="http://www.w3.org/1999/xlink" x="0px" y="0px"
	 viewBox="0 0 512 512" style="enable-background:new 0 0 512 512;" xml:space="preserve">
<polygon style="fill:#367596;" points="511.439,121.263 438.928,195.784 421.861,178.706 455.298,98.807 "/>
<g>
	<polygon style="fill:#5195AF;" points="474.824,82.953 511.439,121.263 455.298,121.263 441.14,82.953 	"/>
	<polygon style="fill:#5195AF;" points="477.754,121.263 421.861,178.706 402.728,159.573 366.518,195.784 330.319,159.573 
		214.445,159.573 214.445,98.807 	"/>
</g>
<polygon style="fill:#88ACB5;" points="441.14,82.953 477.754,121.263 214.445,121.263 214.445,82.953 "/>
<g>
	<rect x="0.561" y="287.439" style="fill:#FF4719;" width="158.596" height="44.912"/>
	<rect x="408.982" y="287.439" style="fill:#FF4719;" width="102.456" height="44.912"/>
</g>
<g>
	<rect x="192.842" y="287.439" style="fill:#FF9269;" width="182.456" height="44.912"/>
	<rect x="0.561" y="377.263" style="fill:#FF9269;" width="102.456" height="44.912"/>
	<rect x="307.93" y="377.263" style="fill:#FF9269;" width="203.509" height="44.912"/>
</g>
<g>
	<rect x="136.702" y="377.263" style="fill:#FF4719;" width="137.544" height="44.912"/>
	<rect x="0.561" y="467.088" style="fill:#FF4719;" width="192.281" height="44.912"/>
	<rect x="352.842" y="467.088" style="fill:#FF4719;" width="158.596" height="44.912"/>
</g>
<rect x="226.526" y="467.088" style="fill:#FF9269;" width="92.632" height="44.912"/>
<path style="fill:#367596;" d="M144.518,121.263c0,29.145-23.627,52.772-52.772,52.772s-52.772-23.627-52.772-52.772H0.561
	c0,66.975,54.288,121.263,121.263,121.263s121.263-54.288,121.263-121.263H144.518z"/>
<path style="fill:#5195AF;" d="M121.825,0C54.849,0,0.561,54.288,0.561,121.263c0,48.371,54.288,87.579,121.263,87.579
	s121.263-39.208,121.263-87.579C243.088,54.288,188.8,0,121.825,0z M91.746,157.931c-20.251,0-36.668-16.417-36.668-36.668
	s16.417-36.668,36.668-36.668s36.668,16.417,36.668,36.668C128.412,141.514,111.996,157.931,91.746,157.931z"/>
<g>
</g>
<g>
</g>
<g>
</g>
<g>
</g>
<g>
</g>
<g>
</g>
<g>
</g>
<g>
</g>
<g>
</g>
<g>
</g>
<g>
</g>
<g>
</g>
<g>
</g>
<g>
</g>
<g>
</g>
</svg>
