<?xml version="1.0" encoding="iso-8859-1"?>
<!-- Generator: Adobe Illustrator 19.0.0, SVG Export Plug-In . SVG Version: 6.00 Build 0)  -->
<svg version="1.1" id="Capa_1" xmlns="http://www.w3.org/2000/svg" xmlns:xlink="http://www.w3.org/1999/xlink" x="0px" y="0px"
	 viewBox="0 0 512 512" style="enable-background:new 0 0 512 512;" xml:space="preserve">
<path style="fill:#78777F;" d="M505.456,196.245c5.52-17.264,4.755-32.315-2.292-44.818c-6.047-10.728-15.297-16.863-22.871-20.295
	c-0.343-6.226-1.41-14.195-4.149-22.626c-5.683-17.488-19.564-39.944-53.429-47.606c-33.728-7.63-65.926-0.096-93.114,21.792
	c-20.032,16.129-30.32,34.603-30.749,35.381l13.145,7.229L438.09,275.738l0,0l2.795,14.739
	c34.607-6.564,56.946-20.635,66.401-41.825C516.574,227.835,510.049,206.762,505.456,196.245z"/>
<path style="fill:#88868F;" d="M182.4,82.692c-27.187-21.888-59.385-29.423-93.115-21.792
	c-33.865,7.663-47.746,30.118-53.429,47.606c-2.739,8.432-3.806,16.4-4.149,22.626c-7.574,3.431-16.824,9.567-22.871,20.295
	c-7.047,12.503-7.812,27.554-2.292,44.818c-4.594,10.518-11.118,31.591-1.83,52.407c9.454,21.189,31.794,35.261,66.401,41.825
	l2.795-14.739l0,0l126.093-150.435l13.145-7.229C212.721,117.295,202.433,98.822,182.4,82.692z"/>
<path style="fill:#C5C3CA;" d="M443.972,298.276c0,49.796-19.612,90.68-56.716,118.223c-33.044,24.533-78.429,37.494-131.255,37.494
	S157.79,441.032,124.746,416.5c-37.104-27.543-56.716-68.428-56.716-118.223c0-103.652,84.32-187.971,187.971-187.971
	S443.972,194.624,443.972,298.276z"/>
<path style="fill:#ABAAB0;" d="M443.972,298.276c0,49.796-19.612,90.68-56.716,118.223c-33.044,24.533-78.429,37.494-131.255,37.494
	V110.305C359.652,110.305,443.972,194.624,443.972,298.276z"/>
<g>
	<path style="fill:#57555C;" d="M278.633,384.806h-45.265c-9.051,0-15.042-8.981-13.452-19.102l9.911-62.907
		c0.77-4.961,6.081-8.791,11.821-8.791h28.703c5.741,0,11.051,3.83,11.821,8.791l9.911,62.907
		C293.675,375.825,287.684,384.806,278.633,384.806z"/>
	<circle style="fill:#57555C;" cx="175.571" cy="254.019" r="16.022"/>
</g>
<g>
	<path style="fill:#3A3A41;" d="M346.494,242.283c13.062,17.152-6.326,36.54-23.477,23.477l0,0
		C309.953,248.608,329.342,229.218,346.494,242.283z"/>
	<path style="fill:#3A3A41;" d="M278.633,384.806h-22.633v-90.8h14.352c5.741,0,11.051,3.83,11.821,8.791l9.911,62.907
		C293.675,375.825,287.684,384.806,278.633,384.806z"/>
</g>
<g>
</g>
<g>
</g>
<g>
</g>
<g>
</g>
<g>
</g>
<g>
</g>
<g>
</g>
<g>
</g>
<g>
</g>
<g>
</g>
<g>
</g>
<g>
</g>
<g>
</g>
<g>
</g>
<g>
</g>
</svg>
