<?xml version="1.0" encoding="iso-8859-1"?>
<!-- Generator: Adobe Illustrator 19.0.0, SVG Export Plug-In . SVG Version: 6.00 Build 0)  -->
<svg version="1.1" id="Capa_1" xmlns="http://www.w3.org/2000/svg" xmlns:xlink="http://www.w3.org/1999/xlink" x="0px" y="0px"
	 viewBox="0 0 365.705 365.705" style="enable-background:new 0 0 365.705 365.705;" xml:space="preserve">
<g id="XMLID_1035_">
	<path id="XMLID_1036_" style="fill:#565659;" d="M77.095,215.705c-1.351,0-2.677-0.098-3.981-0.271l37.38,90.781l-78.642,29.49v30
		h190v-30l-78.964-29.611l-42.034-102.083C95.369,211.121,86.77,215.705,77.095,215.705z"/>
	<path id="XMLID_1037_" style="fill:#ACABB1;" d="M84.861,156.727c-2.478-0.663-5.08-1.021-7.766-1.021c-16.568,0-30,13.432-30,30
		c0,15.218,11.334,27.781,26.019,29.729c1.303,0.174,2.63,0.271,3.981,0.271c9.675,0,18.274-4.584,23.76-11.694
		c3.909-5.066,6.24-11.412,6.24-18.306c0-2.686-0.358-5.289-1.021-7.766C103.313,167.613,95.186,159.486,84.861,156.727z"/>
	<path id="XMLID_1038_" style="fill:#ACABB1;" d="M197.592,12.877c-15.621-15.621-40.949-15.621-56.568,0
		c-15.621,15.621-15.621,40.947,0,56.568l1.266,1.266l56.567-56.569L197.592,12.877z"/>
	<path id="XMLID_1039_" style="fill:#FFDA44;" d="M298.684,113.594l-54.745,54.745c0.086,0.088,0.166,0.18,0.253,0.267
		c15.123,15.123,39.637,15.123,54.759,0c15.121-15.121,15.122-39.635,0-54.758C298.864,113.76,298.772,113.68,298.684,113.594z"/>
	<polygon id="XMLID_1040_" style="fill:#CDCDD0;" points="333.853,78.426 270.212,142.064 220.071,91.924 177.646,134.352 
		177.644,134.35 206.572,205.705 243.939,168.339 298.684,113.594 	"/>
	<polygon id="XMLID_1041_" style="fill:#ACABB1;" points="262.496,49.498 220.071,91.924 270.212,142.064 333.853,78.426 
		262.496,49.496 262.495,49.497 	"/>
	<path id="XMLID_1042_" style="fill:#565659;" d="M220.071,91.924l42.425-42.426l-0.001-0.001L212.998,0l-14.142,14.142
		l-56.567,56.569l-14.142,14.143l14.293,14.293l-57.58,57.58c10.325,2.76,18.453,10.887,21.213,21.213l57.58-57.58l13.99,13.99
		l0.002,0.002L220.071,91.924z"/>
</g>
<g>
</g>
<g>
</g>
<g>
</g>
<g>
</g>
<g>
</g>
<g>
</g>
<g>
</g>
<g>
</g>
<g>
</g>
<g>
</g>
<g>
</g>
<g>
</g>
<g>
</g>
<g>
</g>
<g>
</g>
</svg>
