<?xml version="1.0" encoding="iso-8859-1"?>
<!-- Generator: Adobe Illustrator 19.0.0, SVG Export Plug-In . SVG Version: 6.00 Build 0)  -->
<svg version="1.1" id="Capa_1" xmlns="http://www.w3.org/2000/svg" xmlns:xlink="http://www.w3.org/1999/xlink" x="0px" y="0px"
	 viewBox="0 0 512 512" style="enable-background:new 0 0 512 512;" xml:space="preserve">
<path style="fill:#265D77;" d="M239.383,452.863H16.616v-170.88h222.767V452.863z"/>
<path style="fill:#132F3B;" d="M239.383,452.863H128v-170.88h111.384v170.88H239.383z"/>
<path style="fill:#B7E4F8;" d="M256,496.982H0v-50.704h256V496.982z"/>
<path style="fill:#6FC8F1;" d="M256,496.982H128v-50.704h128V496.982z"/>
<path style="fill:#265D77;" d="M495.384,452.863H272.616v-170.88h222.767v170.88H495.384z"/>
<path style="fill:#132F3B;" d="M495.384,452.863H384v-170.88h111.384V452.863z"/>
<path style="fill:#B7E4F8;" d="M512,496.982H256v-50.704h256V496.982z"/>
<path style="fill:#6FC8F1;" d="M512,496.982H384v-50.704h128V496.982z"/>
<polygon style="fill:#FF4F19;" points="429.195,355.668 384,400.863 338.805,355.668 360.018,334.455 369,343.436 369,215.316 
	399,215.316 399,343.436 407.982,334.455 "/>
<polygon style="fill:#BF3B13;" points="384,400.863 384,215.316 399,215.316 399,343.436 407.982,334.455 429.195,355.668 "/>
<polygon style="fill:#FF4F19;" points="173.195,355.668 128,400.863 82.805,355.668 104.018,334.455 113,343.436 113,215.316 
	143,215.316 143,343.436 151.982,334.455 "/>
<polygon style="fill:#BF3B13;" points="128,400.863 128,215.316 143,215.316 143,343.436 151.982,334.455 173.195,355.668 "/>
<path style="fill:#B7E4F8;" d="M359.111,251.105H152.889c-36.699,0-66.556-29.857-66.556-66.556
	c0-31.809,22.431-58.478,52.306-65.02c3.056-27.229,15.371-52.281,35.439-71.619C196.091,26.699,225.185,15.018,256,15.018
	s59.909,11.682,81.922,32.893c20.068,19.337,32.383,44.39,35.439,71.619c29.875,6.542,52.306,33.211,52.306,65.02
	C425.667,221.248,395.81,251.105,359.111,251.105z"/>
<path style="fill:#6FC8F1;" d="M373.361,119.53c-3.056-27.23-15.371-52.282-35.439-71.62C315.909,26.699,286.815,15.018,256,15.018
	v236.087h103.111c36.699,0,66.556-29.857,66.556-66.556C425.667,152.74,403.236,126.072,373.361,119.53z"/>
<g>
</g>
<g>
</g>
<g>
</g>
<g>
</g>
<g>
</g>
<g>
</g>
<g>
</g>
<g>
</g>
<g>
</g>
<g>
</g>
<g>
</g>
<g>
</g>
<g>
</g>
<g>
</g>
<g>
</g>
</svg>
