<?xml version="1.0" encoding="iso-8859-1"?>
<!-- Generator: Adobe Illustrator 19.0.0, SVG Export Plug-In . SVG Version: 6.00 Build 0)  -->
<svg version="1.1" id="Capa_1" xmlns="http://www.w3.org/2000/svg" xmlns:xlink="http://www.w3.org/1999/xlink" x="0px" y="0px"
	 viewBox="0 0 420 420" style="enable-background:new 0 0 420 420;" xml:space="preserve">
<g id="XMLID_449_">
	<rect id="XMLID_450_" y="315" style="fill:#ACABB1;" width="210" height="30"/>
	<rect id="XMLID_451_" x="210" y="315" style="fill:#818085;" width="210" height="30"/>
	<polygon id="XMLID_452_" style="fill:#DEDDE0;" points="50,285 50,135 50,105 370,105 370,135 370,285 370,315 400,315 400,75 
		20,75 20,315 50,315 	"/>
	<rect id="XMLID_453_" x="50" y="105" style="fill:#FFFFFF;" width="320" height="30"/>
	<polygon id="XMLID_454_" style="fill:#FFFFFF;" points="315,285 285,285 255,285 225,285 195,285 165,285 135,285 105,285 50,285 
		50,315 370,315 370,285 	"/>
	<polygon id="XMLID_455_" style="fill:#FFDA44;" points="105,255 105,225 135,225 135,255 135,285 165,285 165,255 165,205 195,205 
		195,255 195,285 225,285 225,255 225,185 255,185 255,255 255,285 285,285 285,255 285,165 315,165 315,255 315,285 370,285 
		370,135 50,135 50,285 105,285 	"/>
	<rect id="XMLID_458_" x="105" y="255" style="fill:#FF9811;" width="30" height="30"/>
	<rect id="XMLID_459_" x="105" y="225" style="fill:#FFFFFF;" width="30" height="30"/>
	<rect id="XMLID_460_" x="165" y="255" style="fill:#FF5023;" width="30" height="30"/>
	<rect id="XMLID_461_" x="165" y="205" style="fill:#FFFFFF;" width="30" height="50"/>
	<rect id="XMLID_462_" x="225" y="255" style="fill:#D80027;" width="30" height="30"/>
	<rect id="XMLID_463_" x="225" y="185" style="fill:#FFFFFF;" width="30" height="70"/>
	<rect id="XMLID_464_" x="285" y="255" style="fill:#A2001D;" width="30" height="30"/>
	<rect id="XMLID_466_" x="285" y="165" style="fill:#FFFFFF;" width="30" height="90"/>
</g>
<g>
</g>
<g>
</g>
<g>
</g>
<g>
</g>
<g>
</g>
<g>
</g>
<g>
</g>
<g>
</g>
<g>
</g>
<g>
</g>
<g>
</g>
<g>
</g>
<g>
</g>
<g>
</g>
<g>
</g>
</svg>
