<?xml version="1.0" encoding="iso-8859-1"?>
<!-- Generator: Adobe Illustrator 19.0.0, SVG Export Plug-In . SVG Version: 6.00 Build 0)  -->
<svg version="1.1" id="Layer_1" xmlns="http://www.w3.org/2000/svg" xmlns:xlink="http://www.w3.org/1999/xlink" x="0px" y="0px"
	 viewBox="0 0 512 512" style="enable-background:new 0 0 512 512;" xml:space="preserve">
<path style="fill:#88ACB5;" d="M175.027,336.781c-5.355-5.355-10.066-11.1-14.124-17.163l12.421-12.421
	C173.205,324.679,175.027,336.781,175.027,336.781z"/>
<path style="fill:#5195AF;" d="M304.95,304.955c-44.663,44.663-129.921,31.828-129.921,31.828
	c14.512,14.512,31.954,24.307,50.422,29.389l33.264,33.264c0,0,39.34-23.929,78.065-62.653l141.531-141.531
	c44.671-44.671,44.663-117.088,0-161.75c0,0,12.843,85.251-31.828,129.921L304.95,304.955z"/>
<path style="fill:#88ACB5;" d="M478.308,33.5c-44.663-44.663-117.08-44.671-161.75,0L175.027,175.031l-32.13,98.555
	c2.514,16.185,8.522,31.931,18.007,46.031l1.568-1.568c2.96,6.986,7.13,13.304,12.556,18.73
	c15.739,15.739,39.053,20.943,63.999,16.622c24.945-4.321,51.553-18.166,73.881-40.494l141.53-141.529
	C499.108,126.709,509.794,64.986,478.308,33.5z M437.146,154.088l-70.961,70.961l-14.872,3.731l-51.784,62.924l-3.915,3.915
	c-10.607,10.607-24.715,16.439-39.714,16.447c-14.999-0.008-29.099-5.848-39.706-16.455c-5.467-5.467-9.667-11.864-12.452-18.834
	c-2.617-6.549-4.003-13.615-4.003-20.871c0.008-14.999,5.848-29.099,16.455-39.706L357.728,74.67
	c10.607-10.607,24.707-16.447,39.706-16.455c15.007,0,29.107,5.84,39.714,16.447c10.607,10.607,16.447,24.707,16.447,39.714
	C453.586,129.374,447.753,143.481,437.146,154.088z"/>
<g>
	<path style="fill:#FFBE35;" d="M330.805,260.432l35.38-35.38c-5.128-18.248-14.862-35.472-29.218-49.829
		C336.969,175.222,343.581,219.128,330.805,260.432z"/>
	<path style="fill:#FFBE35;" d="M270.71,403.23l-75.273,75.273c-44.663,44.663-117.088,44.663-161.75,0
		c0,0,85.259,12.835,129.921-31.828l49.094-49.094L270.71,403.23z"/>
</g>
<path style="fill:#F3A933;" d="M336.967,336.971l-66.258,66.258c-19.432,1.941-39.172,0.055-58.006-5.649l28.28-28.28
	c34.016,4.448,69.663-6.389,95.795-32.52l5.498-5.498C340.581,333.216,338.814,335.126,336.967,336.971z"/>
<path style="fill:#FFCD60;" d="M336.967,175.222c-44.662-44.663-117.079-44.671-161.749,0L33.687,316.753
	C-10.97,361.41-10.976,433.823,33.67,478.487c15.755,15.756,39.069,20.96,64.014,16.639s51.553-18.166,73.881-40.494l53.814-53.814
	c0,0-7.26-10.03-26.425-8.156l-44.678,44.678c-10.607,10.607-24.715,16.439-39.714,16.447c-14.999-0.008-29.099-5.848-39.706-16.455
	c-10.607-10.607-16.447-24.707-16.455-39.706c0.008-14.999,5.848-29.099,16.455-39.706L216.387,216.39
	c10.607-10.607,24.707-16.447,39.706-16.455c15.007,0,29.107,5.84,39.714,16.447c10.607,10.607,16.447,24.707,16.447,39.714
	c-0.008,13.137-4.488,25.59-12.724,35.608l54.363-54.363C357.64,213.097,352.316,190.571,336.967,175.222z"/>
<path style="fill:#FFBE35;" d="M255.917,370.28l-30.539,30.539c-8.991-1.878-17.839-4.599-26.425-8.156l26.497-26.497
	C235.412,368.904,245.669,370.28,255.917,370.28z"/>
<g>
</g>
<g>
</g>
<g>
</g>
<g>
</g>
<g>
</g>
<g>
</g>
<g>
</g>
<g>
</g>
<g>
</g>
<g>
</g>
<g>
</g>
<g>
</g>
<g>
</g>
<g>
</g>
<g>
</g>
</svg>
