<?xml version="1.0" encoding="iso-8859-1"?>
<!-- Generator: Adobe Illustrator 19.0.0, SVG Export Plug-In . SVG Version: 6.00 Build 0)  -->
<svg version="1.1" id="Capa_1" xmlns="http://www.w3.org/2000/svg" xmlns:xlink="http://www.w3.org/1999/xlink" x="0px" y="0px"
	 viewBox="0 0 512 512" style="enable-background:new 0 0 512 512;" xml:space="preserve">
<path style="fill:#E37500;" d="M472.916,220.7c2.552,12.469,4.523,27.7,4.313,44.532c-0.51,41.08-14.45,99.782-77.986,146.235
	l-19.164,14l-2.982-15.651c-2.862,4.693-6.054,9.607-9.587,14.651c-27.98,39.899-64.737,69.45-106.307,85.452L256,511.93l-0.19,0.07
	l-5.394-2.081c-57.882-22.286-94.808-67.539-115.353-100.933l-3.142,16.482l-19.164-14C49.221,365.014,35.281,306.311,34.77,265.232
	c-0.21-16.832,1.761-32.063,4.313-44.532l-19.264,9.087l0.881-24.618C23.002,140.682,44.407,89.986,84.306,54.47
	C150.304-4.272,243.751-0.44,256,0.341C268.259-0.44,361.696-4.272,427.694,54.47c39.899,35.516,61.304,86.212,63.606,150.699
	l0.881,24.618L472.916,220.7z"/>
<path style="fill:#974C00;" d="M472.916,220.7c2.552,12.469,4.523,27.7,4.313,44.532c-0.51,41.08-14.45,99.782-77.986,146.235
	l-19.164,14l-2.982-15.651c-2.862,4.693-6.054,9.607-9.587,14.651c-27.98,39.899-64.737,69.45-106.307,85.452L256,511.93V0.341
	C268.259-0.44,361.696-4.272,427.694,54.47c39.899,35.516,61.304,86.212,63.606,150.699l0.881,24.618L472.916,220.7z"/>
<path style="fill:#FF8600;" d="M388.953,77.659c-13.21-11.423-26.254-12.237-34.869-10.91
	c-25.802,3.976-43.386,31.438-45.307,34.556l12.858,7.947l44.179,43.306l9.312,11.775c3.053-2.415,29.85-24.382,30.455-51.809
	C405.781,103.352,403.06,89.858,388.953,77.659z"/>
<path style="fill:#FFA720;" d="M203.224,101.305c-1.92-3.118-19.505-30.58-45.307-34.556c-8.615-1.326-21.661-0.512-34.869,10.91
	c-14.108,12.2-16.828,25.694-16.627,34.865c0.604,27.428,27.402,49.395,30.455,51.809l9.312-11.775l44.179-43.306L203.224,101.305z"
	/>
<path style="fill:#FFD8A6;" d="M381.09,191.118c-2.832,22.176-9.357,51.527-24.378,71.862c4.403,18.053,11.478,61.564-11.899,94.048
	c-17.523,24.348-47.404,36.686-88.814,36.686s-71.291-12.339-88.814-36.686c-23.377-32.483-16.302-75.995-11.899-94.048
	c-15.021-20.335-21.546-49.686-24.378-71.862c-3.573-28.1,6.775-56.05,27.68-74.784C197.057,81.89,253.608,81.489,256,81.489
	c2.392,0,58.942,0.4,97.41,34.845C374.325,135.068,384.663,163.018,381.09,191.118z"/>
<path style="fill:#FFC173;" d="M381.09,191.118c-2.832,22.176-9.357,51.527-24.378,71.862c4.403,18.053,11.478,61.564-11.899,94.048
	c-17.523,24.348-47.404,36.686-88.814,36.686V81.489c2.392,0,58.942,0.4,97.41,34.845
	C374.325,135.068,384.663,163.018,381.09,191.118z"/>
<rect x="240.794" y="281.813" style="fill:#FFA720;" width="30.022" height="48.075"/>
<rect x="188.073" y="175.395" transform="matrix(-0.8086 -0.5884 0.5884 -0.8086 268.6155 468.2007)" style="fill:#57555C;" width="44.788" height="30.022"/>
<rect x="286.513" y="168.013" transform="matrix(-0.5884 -0.8086 0.8086 -0.5884 324.9765 546.2471)" style="fill:#3A3A41;" width="30.022" height="44.788"/>
<rect x="255.995" y="281.813" style="fill:#FF8600;" width="14.821" height="48.075"/>
<g>
	<rect x="230.476" y="314.877" style="fill:#E37500;" width="51.037" height="30.022"/>
	<path style="fill:#E37500;" d="M282.059,264.191l-20.355,35.255c-1.261,2.202-3.483,3.292-5.704,3.292
		c-2.222,0-4.443-1.091-5.704-3.292l-20.355-35.255c-2.542-4.393,0.63-9.887,5.704-9.887h40.709
		C281.428,254.304,284.6,259.798,282.059,264.191z"/>
</g>
<g>
	<rect x="255.995" y="314.877" style="fill:#974C00;" width="25.518" height="30.022"/>
	<path style="fill:#974C00;" d="M282.059,264.191l-20.355,35.255c-1.261,2.202-3.483,3.292-5.704,3.292v-48.435h20.355
		C281.428,254.304,284.6,259.798,282.059,264.191z"/>
</g>
<g>
</g>
<g>
</g>
<g>
</g>
<g>
</g>
<g>
</g>
<g>
</g>
<g>
</g>
<g>
</g>
<g>
</g>
<g>
</g>
<g>
</g>
<g>
</g>
<g>
</g>
<g>
</g>
<g>
</g>
</svg>
