<?xml version="1.0" encoding="iso-8859-1"?>
<!-- Generator: Adobe Illustrator 19.0.0, SVG Export Plug-In . SVG Version: 6.00 Build 0)  -->
<svg version="1.1" id="Capa_1" xmlns="http://www.w3.org/2000/svg" xmlns:xlink="http://www.w3.org/1999/xlink" x="0px" y="0px"
	 viewBox="0 0 512 512" style="enable-background:new 0 0 512 512;" xml:space="preserve">
<path style="fill:#8B2613;" d="M55.618,365.262c3.991,13.471,7.8,26.323,8.996,48.238H45v30h50v-15
	c0-35.926-5.397-54.144-10.618-71.762C79.558,340.455,75,325.074,75,293.5v-30l-30,30C45,329.426,50.397,347.644,55.618,365.262z"/>
<path style="fill:#480306;" d="M467,293.5l-30-30v30c0,31.574-4.558,46.955-9.382,63.238C422.397,374.356,417,392.574,417,428.5v15
	h50v-30h-19.614c1.196-21.915,5.005-34.768,8.996-48.238C461.603,347.644,467,329.426,467,293.5z"/>
<path style="fill:#C7461F;" d="M467,233.5l-241-60l30,150c31.333,0,61.702-10.614,86.148-30H467V233.5z"/>
<path style="fill:#D95D27;" d="M45,233.5v60h124.852c24.446,19.386,54.815,30,86.148,30v-150L45,233.5z"/>
<polygon style="fill:#480306;" points="245.67,143.5 185.67,233.5 45,233.5 45,158.5 "/>
<polygon style="fill:#C7461F;" points="316,143.5 256,233.5 185.67,233.5 185.67,143.5 "/>
<polygon style="fill:#8B2613;" points="386.33,143.5 326.33,233.5 256,233.5 256,143.5 "/>
<polygon style="fill:#480306;" points="467,158.5 467,233.5 326.33,233.5 326.33,143.5 "/>
<rect x="381.67" y="143.5" style="fill:#FCBA66;" width="30" height="45"/>
<rect x="241" y="143.5" style="fill:#FFF2A3;" width="30" height="45"/>
<rect x="100.33" y="143.5" style="fill:#FCBA66;" width="30" height="45"/>
<polygon style="fill:#C7461F;" points="467,88.5 216,88.5 256,158.5 467,158.5 "/>
<rect x="45" y="88.5" style="fill:#D95D27;" width="211" height="70"/>
<polygon style="fill:#480306;" points="512,68.5 256,68.5 236,83.5 256,98.5 512,98.5 "/>
<rect y="68.5" style="fill:#8B2613;" width="256" height="30"/>
<g>
</g>
<g>
</g>
<g>
</g>
<g>
</g>
<g>
</g>
<g>
</g>
<g>
</g>
<g>
</g>
<g>
</g>
<g>
</g>
<g>
</g>
<g>
</g>
<g>
</g>
<g>
</g>
<g>
</g>
</svg>
