<?xml version="1.0" encoding="iso-8859-1"?>
<!-- Generator: Adobe Illustrator 19.0.0, SVG Export Plug-In . SVG Version: 6.00 Build 0)  -->
<svg version="1.1" id="Capa_1" xmlns="http://www.w3.org/2000/svg" xmlns:xlink="http://www.w3.org/1999/xlink" x="0px" y="0px"
	 viewBox="0 0 512 512" style="enable-background:new 0 0 512 512;" xml:space="preserve">
<rect x="156.33" y="241.19" style="fill:#0A4EAF;" width="199.33" height="30"/>
<rect x="256" y="241.19" style="fill:#063E8B;" width="99.67" height="30"/>
<rect x="241" style="fill:#032E68;" width="30" height="512"/>
<path style="fill:#EA596E;" d="M374.994,436.579L374.994,436.579c-34.155-11.098-54.511-45.965-47.619-81.21
	c12.922-66.078,12.832-134.061-0.27-200.112c-6.832-34.443,13.162-68.553,46.558-79.404l0,0
	c40.326-13.103,82.919,12.093,91.07,53.703c16.489,84.177,16.355,170.792-0.404,254.929
	C456.246,425.073,414.353,449.368,374.994,436.579z"/>
<path style="fill:#F4717A;" d="M137.006,436.579L137.006,436.579c34.155-11.098,54.511-45.965,47.619-81.21
	c-12.922-66.078-12.832-134.061,0.27-200.112c6.832-34.443-13.162-68.553-46.558-79.404l0,0
	c-40.326-13.103-82.919,12.093-91.07,53.703c-16.489,84.177-16.355,170.792,0.404,254.929
	C55.754,425.073,97.647,449.368,137.006,436.579z"/>
<g>
</g>
<g>
</g>
<g>
</g>
<g>
</g>
<g>
</g>
<g>
</g>
<g>
</g>
<g>
</g>
<g>
</g>
<g>
</g>
<g>
</g>
<g>
</g>
<g>
</g>
<g>
</g>
<g>
</g>
</svg>
