<?xml version="1.0" encoding="iso-8859-1"?>
<!-- Generator: Adobe Illustrator 19.0.0, SVG Export Plug-In . SVG Version: 6.00 Build 0)  -->
<svg version="1.1" id="Layer_1" xmlns="http://www.w3.org/2000/svg" xmlns:xlink="http://www.w3.org/1999/xlink" x="0px" y="0px"
	 viewBox="0 0 512 512" style="enable-background:new 0 0 512 512;" xml:space="preserve">
<polygon style="fill:#FFDB8A;" points="215.67,397.605 170.659,170.682 33.758,130.059 0,120.044 0,290.703 "/>
<polygon style="fill:#FFCD60;" points="170.659,341.341 0,290.703 0,461.363 170.659,512 204.417,426.67 "/>
<polygon style="fill:#FFBE35;" points="512,341.341 512,512 478.242,501.985 455.736,297.568 "/>
<polygon style="fill:#FFCD60;" points="478.242,331.326 478.242,501.985 341.33,461.363 296.319,245.692 "/>
<polygon style="fill:#FFBE35;" points="341.33,290.703 341.33,461.363 170.659,512 170.659,341.341 255.994,283.234 "/>
<polygon style="fill:#FFCD60;" points="512,170.682 512,341.341 478.242,331.326 455.736,245.996 478.242,160.667 "/>
<polygon style="fill:#FFDB8A;" points="478.242,160.667 478.242,331.326 341.33,290.703 307.571,205.374 341.33,120.044 "/>
<polygon style="fill:#FFCD60;" points="341.33,120.044 341.33,290.703 170.659,341.341 170.659,170.682 "/>
<path style="fill:#E02E00;" d="M341.331,0v256.943c0,0,95.648-95.516,95.648-161.295C436.979,42.908,394.071,0,341.331,0z"/>
<path style="fill:#FF4719;" d="M341.331,0c-52.74,0-95.648,42.908-95.648,95.648c0,65.779,95.648,161.295,95.648,161.295
	s73.143-95.516,73.143-161.295C414.474,42.908,381.662,0,341.331,0z"/>
<path style="fill:#FFFFFF;" d="M341.331,146.286c-27.921,0-50.637-22.716-50.637-50.637s22.716-50.637,50.637-50.637
	s50.637,22.716,50.637,50.637S369.252,146.286,341.331,146.286z"/>
<g>
</g>
<g>
</g>
<g>
</g>
<g>
</g>
<g>
</g>
<g>
</g>
<g>
</g>
<g>
</g>
<g>
</g>
<g>
</g>
<g>
</g>
<g>
</g>
<g>
</g>
<g>
</g>
<g>
</g>
</svg>
