<?xml version="1.0" encoding="iso-8859-1"?>
<!-- Generator: Adobe Illustrator 19.0.0, SVG Export Plug-In . SVG Version: 6.00 Build 0)  -->
<svg version="1.1" id="Capa_1" xmlns="http://www.w3.org/2000/svg" xmlns:xlink="http://www.w3.org/1999/xlink" x="0px" y="0px"
	 viewBox="0 0 512 512" style="enable-background:new 0 0 512 512;" xml:space="preserve">
<rect x="175.56" y="336.33" style="fill:#FE7D32;" width="160.88" height="61.76"/>
<rect x="305.65" y="348.6" style="fill:#E8621F;" width="30.792" height="49.49"/>
<path style="fill:#6B717F;" d="M256,398.093h-80.439c0,0,13.799,10.642,24.131,27.028c6.961,11.039,10.51,23.889,10.51,36.939v2.445
	c0,4.18,3.389,7.569,7.569,7.569H256h38.229c4.18,0,7.569-3.389,7.569-7.569l0,0c0-16.684,5.267-33.004,15.314-46.325
	c9.343-12.387,19.327-20.087,19.327-20.087L256,398.093L256,398.093z"/>
<path style="fill:#5A606D;" d="M336.439,398.092c0,0-13.597,10.484-23.906,26.669c-7.082,11.123-10.731,24.102-10.731,37.297v2.451
	c0,4.18-3.389,7.569-7.569,7.569h-23.224v-10.02c0-13.195,3.649-26.174,10.731-37.297c10.309-16.185,23.906-26.669,23.906-26.669
	H336.439z"/>
<path style="fill:#FE7D32;" d="M270.809,512h-29.617c-2.847,0-5.154-2.308-5.154-5.154v-34.772h39.926v34.772
	C275.963,509.692,273.655,512,270.809,512z"/>
<path style="fill:#E8621F;" d="M270.809,512h-11.094v-39.926h16.248v34.772C275.963,509.692,273.655,512,270.809,512z"/>
<path style="fill:#6B717F;" d="M334.581,9.65c-0.367-5.43-4.878-9.647-10.32-9.647H256h-68.261c-5.442,0-9.953,4.217-10.32,9.647
	L155.28,337.558c-0.403,5.973,4.333,11.04,10.32,11.04H256h90.4c5.987,0,10.723-5.067,10.32-11.04L334.581,9.65z"/>
<path style="fill:#5A606D;" d="M346.397,348.6h-28.349c5.989,0,10.731-5.072,10.319-11.041L306.234,9.649
	C305.863,4.216,301.358,0,295.915,0h28.349c5.443,0,9.948,4.216,10.319,9.649l22.133,327.91
	C357.118,343.528,352.387,348.6,346.397,348.6z"/>
<g>
</g>
<g>
</g>
<g>
</g>
<g>
</g>
<g>
</g>
<g>
</g>
<g>
</g>
<g>
</g>
<g>
</g>
<g>
</g>
<g>
</g>
<g>
</g>
<g>
</g>
<g>
</g>
<g>
</g>
</svg>
