<?xml version="1.0" encoding="iso-8859-1"?>
<!-- Generator: Adobe Illustrator 19.0.0, SVG Export Plug-In . SVG Version: 6.00 Build 0)  -->
<svg version="1.1" id="Capa_1" xmlns="http://www.w3.org/2000/svg" xmlns:xlink="http://www.w3.org/1999/xlink" x="0px" y="0px"
	 viewBox="0 0 512 512" style="enable-background:new 0 0 512 512;" xml:space="preserve">
<path style="fill:#FF3100;" d="M512,256v180.93H90.63c-4.63,0-9.18-0.35-13.63-1.03c-43.53-6.58-77-44.26-77-89.6V165.38
	c0.17-49.82,40.76-90.31,90.63-90.31H302V256H512z"/>
<path style="fill:#C91C00;" d="M302,75.07V256H90.63c-4.63,0-9.19-0.35-13.63-1.02C33.57,248.4,0.15,210.89,0,165.7v-0.32
	c0.17-49.82,40.76-90.31,90.63-90.31C90.63,75.07,302,75.07,302,75.07z"/>
<g>
	<path style="fill:#FFC373;" d="M107,199.67V256H90.63c-4.63,0-9.19-0.35-13.63-1.02v-55.31H107z"/>
	<rect x="142.4" y="199.67" style="fill:#FFC373;" width="30" height="56.33"/>
	<rect x="207.8" y="199.67" style="fill:#FFC373;" width="30" height="56.33"/>
</g>
<g>
	<path style="fill:#FFDAA8;" d="M107,361.37v75.56H90.63c-4.63,0-9.18-0.35-13.63-1.03v-74.53H107z"/>
	<rect x="142.4" y="361.37" style="fill:#FFDAA8;" width="30" height="75.56"/>
	<rect x="207.8" y="361.37" style="fill:#FFDAA8;" width="30" height="75.56"/>
	<rect x="273.2" y="361.37" style="fill:#FFDAA8;" width="30" height="75.56"/>
	<rect x="338.6" y="361.37" style="fill:#FFDAA8;" width="30" height="75.56"/>
	<rect x="404" y="361.37" style="fill:#FFDAA8;" width="30" height="75.56"/>
</g>
<g>
</g>
<g>
</g>
<g>
</g>
<g>
</g>
<g>
</g>
<g>
</g>
<g>
</g>
<g>
</g>
<g>
</g>
<g>
</g>
<g>
</g>
<g>
</g>
<g>
</g>
<g>
</g>
<g>
</g>
</svg>
