<?xml version="1.0" encoding="iso-8859-1"?>
<!-- Generator: Adobe Illustrator 19.0.0, SVG Export Plug-In . SVG Version: 6.00 Build 0)  -->
<svg version="1.1" id="Layer_1" xmlns="http://www.w3.org/2000/svg" xmlns:xlink="http://www.w3.org/1999/xlink" x="0px" y="0px"
	 viewBox="0 0 495.005 495.005" style="enable-background:new 0 0 495.005 495.005;" xml:space="preserve">
<g>
	<polygon style="fill:#6E76E5;" points="247.503,86.154 247.503,0 82.161,0 138.107,86.154 	"/>
	<polygon style="fill:#515BE0;" points="356.899,86.154 412.845,0 247.503,0 247.503,86.154 	"/>
	<path style="fill:#00EED1;" d="M247.503,285.419c30.714,0,58.342,13.214,77.509,34.267L490.735,73.75L412.845,0l-55.946,86.154
		L247.503,254.617L138.107,86.154L82.161,0L4.271,73.75l165.723,245.937C189.161,298.634,216.788,285.419,247.503,285.419z"/>
	<path style="fill:#FFE477;" d="M227.503,436.533v-92.642h20v-58.472c-30.714,0-58.342,13.214-77.509,34.267
		c-16.95,18.617-27.284,43.365-27.284,70.526c0,57.876,46.917,104.793,104.793,104.793v-58.472H227.503z"/>
	<path style="fill:#FFDA44;" d="M247.503,285.419v58.472h20v92.642h-20v58.472c57.875,0,104.793-46.917,104.793-104.793
		c0-27.161-10.334-51.909-27.284-70.526C305.844,298.634,278.217,285.419,247.503,285.419z"/>
	<rect x="227.503" y="343.891" style="fill:#6E76E5;" width="40" height="92.642"/>
</g>
<g>
</g>
<g>
</g>
<g>
</g>
<g>
</g>
<g>
</g>
<g>
</g>
<g>
</g>
<g>
</g>
<g>
</g>
<g>
</g>
<g>
</g>
<g>
</g>
<g>
</g>
<g>
</g>
<g>
</g>
</svg>
