<?xml version="1.0" encoding="iso-8859-1"?>
<!-- Generator: Adobe Illustrator 19.0.0, SVG Export Plug-In . SVG Version: 6.00 Build 0)  -->
<svg version="1.1" id="Capa_1" xmlns="http://www.w3.org/2000/svg" xmlns:xlink="http://www.w3.org/1999/xlink" x="0px" y="0px"
	 viewBox="0 0 512 512" style="enable-background:new 0 0 512 512;" xml:space="preserve">
<path style="fill:#FFA920;" d="M512,256c0,2.29-0.03,4.57-0.09,6.85c-1.72,65.81-28.16,127.44-74.89,174.17
	c-22.67,22.67-48.82,40.55-77.26,53.16h-0.01c-12.61,5.6-25.67,10.15-39.08,13.62c-20.86,5.41-42.55,8.2-64.67,8.2
	c-21.75,0-43.1-2.7-63.64-7.93c-13.38-3.4-26.41-7.89-39-13.4h-0.01c-28.87-12.64-55.41-30.69-78.37-53.65
	C30.18,392.22,4.03,333.74,0.44,271C0.14,266.02,0,261.02,0,256c0-5.02,0.14-10.02,0.44-15c3.59-62.74,29.74-121.22,74.54-166.02
	c22.52-22.52,48.49-40.32,76.71-52.91c13.04-5.82,26.56-10.53,40.44-14.08C212.74,2.72,234.16,0,256,0c22.21,0,44,2.81,64.94,8.27
	c13.91,3.61,27.46,8.4,40.51,14.31c27.78,12.56,53.36,30.19,75.57,52.4c42.85,42.85,68.64,98.23,73.95,157.87
	C511.66,240.5,512,248.23,512,256z"/>
<path style="fill:#FF8800;" d="M512,256c0,2.29-0.03,4.57-0.09,6.85c-1.72,65.81-28.16,127.44-74.89,174.17
	c-22.67,22.67-48.82,40.55-77.26,53.16h-0.01c-12.61,5.6-25.67,10.15-39.08,13.62c-20.86,5.41-42.55,8.2-64.67,8.2V0
	c22.21,0,44,2.81,64.94,8.27c13.91,3.61,27.46,8.4,40.51,14.31c27.78,12.56,53.36,30.19,75.57,52.4
	c42.85,42.85,68.64,98.23,73.95,157.87C511.66,240.5,512,248.23,512,256z"/>
<polygon style="fill:#B0DBFF;" points="271.45,127.74 271.45,165.29 308.64,165.29 308.64,195.29 271.45,195.29 271.45,232.85 
	308.64,232.85 308.64,262.85 271.45,262.85 271.45,300.4 308.64,300.4 308.64,330.4 271.45,330.4 271.45,367.95 308.64,367.95 
	308.64,397.95 271.45,397.95 271.45,432.93 241.45,432.93 241.45,397.95 204.27,397.95 204.27,367.95 241.45,367.95 241.45,330.4 
	204.27,330.4 204.27,300.4 241.45,300.4 241.45,262.85 204.27,262.85 204.27,232.85 241.45,232.85 241.45,195.29 204.27,195.29 
	204.27,165.29 241.45,165.29 241.45,127.74 204.27,127.74 204.27,97.74 241.45,97.74 241.45,62.76 271.45,62.76 271.45,97.74 
	308.64,97.74 308.64,127.74 "/>
<path style="fill:#FF3100;" d="M176.19,467.45c-51.09-126.79-47-239.27-33.32-314.06c8.35-45.63,21.09-82.71,31.62-108.19h0.01
	c3-7.26,5.82-13.58,8.32-18.88c4.43-9.43,7.82-15.67,9.31-18.33c-13.88,3.55-27.4,8.26-40.44,14.08
	c-2.75,6.17-5.72,13.21-8.79,21.07c-2.65,6.79-5.37,14.19-8.09,22.17c-7.72,22.68-15.39,50.03-21.2,81.35
	c-5.79,31.23-9.02,62.76-9.7,94.34H0.44C0.14,245.98,0,250.98,0,256c0,5.02,0.14,10.02,0.44,15h103.61
	c0.43,14.5,1.4,28.99,2.92,43.44c4.73,45,14.75,89.69,29.91,133.56h0.01c2.51,7.33,5.19,14.62,8,21.9v0.01
	c2.69,6.94,5.51,13.87,8.46,20.76h0.01c12.59,5.51,25.62,10,39,13.4c-2.9-6.02-5.66-12.02-8.29-17.99
	C181.3,479.84,178.68,473.63,176.19,467.45z"/>
<path style="fill:#C91C00;" d="M510.97,232.85H408.76c-1.01-28.85-4.17-57.65-9.46-86.19c-5.73-30.97-13.3-58.07-20.94-80.6h-0.01
	c-2.71-8.02-5.44-15.47-8.1-22.3c-3.07-7.89-6.05-14.96-8.8-21.18c-13.05-5.91-26.6-10.7-40.51-14.31
	c1.59,2.83,4.95,9.08,9.31,18.38c2.5,5.34,5.33,11.68,8.33,18.97c10.51,25.47,23.16,62.39,31.46,107.77
	c13.66,74.71,17.77,187.04-33.17,313.66h-0.01c-2.49,6.2-5.11,12.43-7.88,18.7c-2.64,5.99-5.4,12-8.31,18.05
	c13.41-3.47,26.47-8.02,39.08-13.62h0.01c2.96-6.93,5.78-13.87,8.47-20.85v-0.01c2.84-7.33,5.52-14.68,8.05-22.06
	c15.02-43.63,24.95-88.08,29.66-132.82c1.8-17.16,2.84-34.37,3.11-51.59h102.86c0.06-2.28,0.09-4.56,0.09-6.85
	C512,248.23,511.66,240.5,510.97,232.85z"/>
<polygon style="fill:#83C9FF;" points="271.45,127.74 271.45,165.29 308.64,165.29 308.64,195.29 271.45,195.29 271.45,232.85 
	308.64,232.85 308.64,262.85 271.45,262.85 271.45,300.4 308.64,300.4 308.64,330.4 271.45,330.4 271.45,367.95 308.64,367.95 
	308.64,397.95 271.45,397.95 271.45,432.93 256,432.93 256,62.76 271.45,62.76 271.45,97.74 308.64,97.74 308.64,127.74 "/>
<g>
</g>
<g>
</g>
<g>
</g>
<g>
</g>
<g>
</g>
<g>
</g>
<g>
</g>
<g>
</g>
<g>
</g>
<g>
</g>
<g>
</g>
<g>
</g>
<g>
</g>
<g>
</g>
<g>
</g>
</svg>
