<?xml version="1.0" encoding="iso-8859-1"?>
<!-- Generator: Adobe Illustrator 19.0.0, SVG Export Plug-In . SVG Version: 6.00 Build 0)  -->
<svg version="1.1" id="Capa_1" xmlns="http://www.w3.org/2000/svg" xmlns:xlink="http://www.w3.org/1999/xlink" x="0px" y="0px"
	 viewBox="0 0 512 512" style="enable-background:new 0 0 512 512;" xml:space="preserve">
<path style="fill:#DCF4FF;" d="M467,484H45c-24.813,0-45-20.187-45-45V217c0-24.813,20.187-45,45-45c8.271,0,15-6.729,15-15v-25
	l392-2v27c0,8.271,6.729,15,15,15c24.813,0,45,20.187,45,45v222C512,463.813,491.813,484,467,484z"/>
<path style="fill:#CCEFFF;" d="M467,172c-8.271,0-15-6.729-15-15v-27l-196,1v353h211c24.813,0,45-20.187,45-45V217
	C512,192.187,491.813,172,467,172z"/>
<path style="fill:#0A4EAF;" d="M472,148H40V28h432V148z"/>
<path style="fill:#87E694;" d="M421,404H91V234h330V404z"/>
<path style="fill:#66CC70;" d="M421,404H256V234h165V404z"/>
<path style="fill:#063E8B;" d="M472,148H256V28h216V148z"/>
<g>
</g>
<g>
</g>
<g>
</g>
<g>
</g>
<g>
</g>
<g>
</g>
<g>
</g>
<g>
</g>
<g>
</g>
<g>
</g>
<g>
</g>
<g>
</g>
<g>
</g>
<g>
</g>
<g>
</g>
</svg>
