<?xml version="1.0" encoding="iso-8859-1"?>
<!-- Generator: Adobe Illustrator 19.0.0, SVG Export Plug-In . SVG Version: 6.00 Build 0)  -->
<svg version="1.1" id="Layer_1" xmlns="http://www.w3.org/2000/svg" xmlns:xlink="http://www.w3.org/1999/xlink" x="0px" y="0px"
	 viewBox="0 0 495 495" style="enable-background:new 0 0 495 495;" xml:space="preserve">
<g>
	<polygon style="fill:#6E76E5;" points="227.5,249.573 227.5,121.03 154.582,121.03 154.582,329.573 173.18,329.573 173.18,495 
		247.5,495 247.5,249.573 	"/>
	<polygon style="fill:#515BE0;" points="267.5,249.573 247.5,249.573 247.5,495 321.82,495 321.82,329.573 340.418,329.573 
		340.418,121.03 267.5,121.03 	"/>
	<rect x="227.5" y="121.03" style="fill:#00EED1;" width="40" height="128.543"/>
	<path style="fill:#6E76E5;" d="M247.5,110.989V0c-30.6,0-55.494,24.895-55.494,55.494S216.9,110.989,247.5,110.989z"/>
	<polygon style="fill:#00EED1;" points="366.402,121.03 366.402,495 476.402,495 476.402,329.573 495,329.573 495,121.03 	"/>
	<path style="fill:#6E76E5;" d="M421.896,110.989V0c-30.6,0-55.494,24.895-55.494,55.494S391.297,110.989,421.896,110.989z"/>
	<polygon style="fill:#00EED1;" points="0,329.573 18.598,329.573 18.598,495 128.598,495 128.598,121.03 0,121.03 	"/>
	<path style="fill:#6E76E5;" d="M17.609,55.494c0,30.6,24.895,55.495,55.494,55.495V0C42.504,0,17.609,24.895,17.609,55.494z"/>
	<path style="fill:#515BE0;" d="M302.994,55.494C302.994,24.895,278.1,0,247.5,0v110.989
		C278.1,110.989,302.994,86.094,302.994,55.494z"/>
	<path style="fill:#515BE0;" d="M477.391,55.494c0-30.6-24.895-55.494-55.494-55.494v110.989
		C452.496,110.989,477.391,86.094,477.391,55.494z"/>
	<path style="fill:#515BE0;" d="M73.104,0v110.989c30.6,0,55.494-24.895,55.494-55.495S103.703,0,73.104,0z"/>
</g>
<g>
</g>
<g>
</g>
<g>
</g>
<g>
</g>
<g>
</g>
<g>
</g>
<g>
</g>
<g>
</g>
<g>
</g>
<g>
</g>
<g>
</g>
<g>
</g>
<g>
</g>
<g>
</g>
<g>
</g>
</svg>
