<?xml version="1.0" encoding="iso-8859-1"?>
<!-- Generator: Adobe Illustrator 19.0.0, SVG Export Plug-In . SVG Version: 6.00 Build 0)  -->
<svg version="1.1" id="Capa_1" xmlns="http://www.w3.org/2000/svg" xmlns:xlink="http://www.w3.org/1999/xlink" x="0px" y="0px"
	 viewBox="0 0 511.998 511.998" style="enable-background:new 0 0 511.998 511.998;" xml:space="preserve">
<path style="fill:#6B717F;" d="M325.756,108.899l-37.464,19.192l50.54,69.191c15.829,21.671,24.36,47.812,24.36,74.648v43.861
	c0,16.488-13.366,29.854-29.854,29.854H97.315c-2.855,0-5.169,2.314-5.169,5.169v46.32c0,2.855,2.314,5.169,5.169,5.169h265.878
	h26.805c16.488,0,29.854-13.366,29.854-29.854v-26.805V273.84c0-28.013-9.294-55.234-26.425-77.397L325.756,108.899z"/>
<path style="fill:#5A606D;" d="M419.852,273.842v98.608c0,16.49-13.368,29.857-29.857,29.857h-27.107
	c16.49,0,29.857-13.368,29.857-29.857v-98.608c0-28.017-9.294-55.238-26.425-77.394l-59.984-77.6l19.416-9.945l67.675,87.546
	C410.557,218.603,419.852,245.825,419.852,273.842z"/>
<path style="fill:#6B717F;" d="M489.645,511.994H22.351v-23.883c0-17.545,14.223-31.768,31.768-31.768h403.758
	c17.545,0,31.768,14.223,31.768,31.768V511.994z"/>
<path style="fill:#5A606D;" d="M489.646,488.116v23.882h-37.218v-23.882c0-17.555-14.226-31.77-31.77-31.77h37.218
	C475.421,456.346,489.646,470.561,489.646,488.116z"/>
<path style="fill:#BBF3F2;" d="M253.63,345.467H126.15V314.35c0-5.521,4.475-9.996,9.996-9.996h107.488
	c5.521,0,9.996,4.475,9.996,9.996V345.467z"/>
<path style="fill:#9AD8D5;" d="M253.63,314.348v31.118h-26.425v-31.118c0-5.521-4.477-9.997-9.997-9.997h26.425
	C249.154,304.35,253.63,308.827,253.63,314.348z"/>
<path style="fill:#E4E8EB;" d="M224.72,456.343c0-60.093,48.715-108.809,108.809-108.809s108.809,48.715,108.809,108.809H224.72z"/>
<path style="fill:#D6D6D6;" d="M442.338,456.346h-34.83c0-54.163-39.576-99.083-91.392-107.426c5.665-0.91,11.486-1.385,17.41-1.385
	C393.623,347.534,442.338,396.249,442.338,456.346z"/>
<circle style="fill:#6B717F;" cx="333.53" cy="406.12" r="23.261"/>
<path style="fill:#5A606D;" d="M356.787,406.111c0,12.851-10.411,23.261-23.261,23.261c-3.07,0-6.007-0.6-8.695-1.696
	c8.529-3.443,14.546-11.796,14.546-21.566c0-9.759-6.017-18.123-14.546-21.566c2.688-1.096,5.624-1.695,8.695-1.695
	C346.376,382.85,356.787,393.271,356.787,406.111z"/>
<path style="fill:#6B717F;" d="M369.63,73.811l-51.672-45.388c-2.145-1.884-2.356-5.15-0.472-7.295L334.5,1.758
	c1.884-2.145,5.15-2.356,7.295-0.472l51.672,45.388c2.145,1.884,2.356,5.15,0.472,7.295l-17.014,19.37
	C375.041,75.483,371.775,75.695,369.63,73.811z"/>
<path style="fill:#5A606D;" d="M369.63,73.811l-10.505-9.227l23.837-27.137l10.505,9.227c2.145,1.884,2.356,5.15,0.472,7.295
	l-17.014,19.37C375.041,75.483,371.775,75.695,369.63,73.811z"/>
<path style="fill:#6B717F;" d="M222.664,170.377l-27.707-24.337l-19.499,22.199c-0.282,0.321-0.523,0.675-0.717,1.055l-9.439,18.435
	c-1.079,2.107-0.589,4.677,1.19,6.24l6.157,5.408l6.157,5.409c1.778,1.562,4.391,1.717,6.341,0.375l17.062-11.735
	c0.352-0.242,0.672-0.527,0.954-0.848L222.664,170.377z"/>
<path style="fill:#5A606D;" d="M222.667,170.375l-19.508,22.2c-0.282,0.32-0.602,0.605-0.953,0.847l-17.058,11.735
	c-1.95,1.342-4.563,1.187-6.341-0.375l-6.156-5.407l-0.548-0.476l20.344-13.996c0.352-0.242,0.672-0.526,0.954-0.847l19.529-22.231
	L222.667,170.375z"/>
<path style="fill:#6B717F;" d="M268.454,210.598l-27.707-24.337l-19.499,22.199c-0.282,0.321-0.523,0.675-0.717,1.056l-9.439,18.435
	c-1.079,2.107-0.589,4.677,1.19,6.24l6.157,5.408l6.157,5.409c1.778,1.562,4.39,1.717,6.341,0.375l17.062-11.735
	c0.352-0.242,0.673-0.527,0.954-0.848L268.454,210.598z"/>
<path style="fill:#5A606D;" d="M268.454,210.6l-19.508,22.2c-0.282,0.32-0.602,0.605-0.953,0.847l-17.058,11.735
	c-1.95,1.342-4.563,1.187-6.341-0.375l-6.156-5.407l-0.548-0.476l20.344-13.996c0.352-0.242,0.672-0.526,0.954-0.847l19.529-22.231
	L268.454,210.6z"/>
<path style="fill:#E4E8EB;" d="M273.082,214.725l-82.412-72.39c-2.145-1.884-2.356-5.15-0.472-7.295l53.227-60.596
	c12.749-14.514,34.85-15.945,49.363-3.196l37.62,33.045c14.514,12.749,15.945,34.85,3.196,49.363l-53.227,60.596
	C278.493,216.397,275.226,216.609,273.082,214.725z"/>
<path style="fill:#D6D6D6;" d="M333.609,153.658l-53.232,60.597c-1.884,2.145-5.151,2.356-7.295,0.472l-9.319-8.188l56.448-64.264
	c10.463-11.91,12.199-28.493,5.707-41.922l4.487,3.939C344.919,117.039,346.356,139.142,333.609,153.658z"/>
<rect x="204.839" y="123.235" transform="matrix(-0.7513 -0.6599 0.6599 -0.7513 370.7958 421.7119)" style="fill:#6B717F;" width="120.025" height="35.522"/>
<rect x="294.545" y="157.03" transform="matrix(-0.7513 -0.6599 0.6599 -0.7513 415.8849 506.2936)" style="fill:#5A606D;" width="17.573" height="35.522"/>
<rect x="303.328" y="45.358" transform="matrix(-0.7513 -0.6599 0.6599 -0.7513 527.7383 338.0335)" style="fill:#E4E8EB;" width="48.458" height="48.458"/>
<rect x="329.451" y="55.201" transform="matrix(-0.7513 -0.6599 0.6599 -0.7513 540.869 362.667)" style="fill:#D6D6D6;" width="18.624" height="48.458"/>
<g>
</g>
<g>
</g>
<g>
</g>
<g>
</g>
<g>
</g>
<g>
</g>
<g>
</g>
<g>
</g>
<g>
</g>
<g>
</g>
<g>
</g>
<g>
</g>
<g>
</g>
<g>
</g>
<g>
</g>
</svg>
