<?xml version="1.0" encoding="iso-8859-1"?>
<!-- Generator: Adobe Illustrator 19.0.0, SVG Export Plug-In . SVG Version: 6.00 Build 0)  -->
<svg version="1.1" id="Capa_1" xmlns="http://www.w3.org/2000/svg" xmlns:xlink="http://www.w3.org/1999/xlink" x="0px" y="0px"
	 viewBox="0 0 512.001 512.001" style="enable-background:new 0 0 512.001 512.001;" xml:space="preserve">
<polygon style="fill:#FFE97F;" points="158.559,134.136 199.971,441.77 290.728,441.77 332.141,134.136 "/>
<polygon style="fill:#FFDB2D;" points="245.349,134.136 245.349,441.77 290.728,441.77 332.141,134.136 "/>
<path style="fill:#5B5B5B;" d="M245.349,0c-61.324,0-111.213,49.89-111.213,111.213c0,61.323,49.89,111.212,111.213,111.212
	s111.213-49.89,111.213-111.212C356.563,49.89,306.673,0,245.349,0z"/>
<path d="M245.349,222.426c61.324,0,111.213-49.89,111.213-111.212C356.563,49.89,306.673,0,245.349,0"/>
<g>
	
		<rect x="187.653" y="97.024" transform="matrix(-0.7071 -0.7071 0.7071 -0.7071 266.7148 334.4797)" style="fill:#EFEFEF;" width="29.956" height="29.956"/>
	
		<rect x="229.784" y="54.898" transform="matrix(-0.7071 -0.7071 0.7071 -0.7071 368.4245 292.3574)" style="fill:#EFEFEF;" width="29.956" height="29.956"/>
</g>
<path style="fill:#5B5B5B;" d="M347.156,438.066c0,23.835-19.392,43.226-43.226,43.226c-22.586,0-41.169-17.415-43.057-39.521
	h29.855l12.103-89.912H187.868l12.103,89.912h30.119c1.937,39.053,34.316,70.23,73.84,70.23c40.768,0,73.935-33.167,73.935-73.934
	L347.156,438.066L347.156,438.066z"/>
<path d="M347.156,438.066c0,23.835-19.392,43.226-43.226,43.226c-22.586,0-41.169-17.415-43.057-39.521h29.855l12.103-89.912
	h-57.482v131.237c13.529,17.56,34.749,28.904,58.581,28.904c40.768,0,73.935-33.167,73.935-73.934L347.156,438.066L347.156,438.066z
	"/>
<g>
</g>
<g>
</g>
<g>
</g>
<g>
</g>
<g>
</g>
<g>
</g>
<g>
</g>
<g>
</g>
<g>
</g>
<g>
</g>
<g>
</g>
<g>
</g>
<g>
</g>
<g>
</g>
<g>
</g>
</svg>
