<?xml version="1.0" encoding="iso-8859-1"?>
<!-- Generator: Adobe Illustrator 19.0.0, SVG Export Plug-In . SVG Version: 6.00 Build 0)  -->
<svg version="1.1" id="Capa_1" xmlns="http://www.w3.org/2000/svg" xmlns:xlink="http://www.w3.org/1999/xlink" x="0px" y="0px"
	 viewBox="0 0 512 512" style="enable-background:new 0 0 512 512;" xml:space="preserve">
<g>
	<polygon style="fill:#FFE97F;" points="271.036,0 240.964,0 240.964,104.667 256,104.667 271.036,104.667 	"/>
</g>
<polygon style="fill:#FFDB2D;" points="373.737,53.333 352.473,74.546 373.737,95.76 395.002,74.546 "/>
<path style="fill:#B8E6FB;" d="M256,98C141.584,98,48.5,190.86,48.5,305S141.584,512,256,512s207.5-92.86,207.5-207
	S370.416,98,256,98z"/>
<g>
	<path style="fill:#95DAF9;" d="M256,512c114.416,0,207.5-92.86,207.5-207S370.416,98,256,98"/>
	<path style="fill:#95DAF9;" d="M397.641,238.411c-17.381-6.744-37.318-12.098-58.92-15.933
		c-3.843-21.548-9.211-41.438-15.971-58.778C306.234,121.333,282.528,98,256,98s-50.234,23.333-66.75,65.7
		c-6.76,17.34-12.128,37.23-15.971,58.778c-21.602,3.834-41.539,9.189-58.92,15.933C71.889,254.887,48.5,278.536,48.5,305
		c0,26.465,23.389,50.113,65.859,66.589c17.381,6.744,37.319,12.099,58.92,15.933c3.843,21.548,9.211,41.438,15.971,58.778
		C205.766,488.667,229.472,512,256,512s50.234-23.333,66.75-65.7c6.76-17.34,12.128-37.23,15.971-58.778
		c21.601-3.834,41.539-9.189,58.92-15.933C440.11,355.113,463.5,331.464,463.5,305S440.11,254.887,397.641,238.411z
		 M216.742,174.366c11.286-28.953,26.329-46.938,39.258-46.938c12.929,0,27.972,17.986,39.258,46.938
		c5.1,13.081,9.332,27.834,12.629,43.798c-16.74-1.749-34.146-2.656-51.887-2.656s-35.146,0.907-51.887,2.656
		C207.409,202.2,211.643,187.447,216.742,174.366z M316.21,305c0,19.565-1.163,38.63-3.396,56.677
		c-18.091,2.227-37.201,3.388-56.813,3.388s-38.723-1.161-56.813-3.388c-2.233-18.047-3.396-37.112-3.396-56.677
		c0-19.564,1.163-38.629,3.396-56.676c18.091-2.228,37.201-3.389,56.813-3.389s38.723,1.161,56.813,3.389
		C315.047,266.371,316.21,285.435,316.21,305z M125.05,344.163C96.027,332.904,77.998,317.897,77.998,305
		c0-12.896,18.029-27.903,47.052-39.163c13.112-5.087,27.901-9.31,43.904-12.598c-1.753,16.699-2.662,34.064-2.662,51.761
		s0.909,35.063,2.662,51.762C152.951,353.473,138.162,349.25,125.05,344.163z M295.258,435.634
		c-11.286,28.953-26.329,46.938-39.258,46.938s-27.972-17.986-39.258-46.938c-5.1-13.081-9.332-27.834-12.629-43.798
		c16.74,1.749,34.146,2.656,51.887,2.656s35.146-0.907,51.887-2.656C304.59,407.8,300.357,422.553,295.258,435.634z
		 M386.949,344.163c-13.111,5.087-27.9,9.31-43.903,12.598c1.753-16.699,2.662-34.064,2.662-51.762
		c0-17.697-0.909-35.062-2.662-51.761c16.003,3.288,30.792,7.511,43.903,12.598c29.023,11.259,47.053,26.266,47.053,39.163
		C434.002,317.897,415.973,332.904,386.949,344.163z"/>
</g>
<polygon style="fill:#FFE97F;" points="277.265,265.15 256,286.364 277.265,307.577 298.529,286.364 "/>
<polygon style="fill:#FFF8D5;" points="234.495,302.423 213.23,323.637 234.495,344.85 255.759,323.637 "/>
<polygon style="fill:#FFE97F;" points="96.235,106.167 74.971,127.38 96.235,148.593 117.5,127.38 "/>
<path style="fill:#4EC1F5;" d="M397.641,238.411c-17.381-6.744-37.318-12.098-58.92-15.933
	c-3.843-21.548-9.211-41.438-15.971-58.778C306.234,121.333,282.528,98,256,98v29.427c12.929,0,27.972,17.986,39.258,46.938
	c5.1,13.081,9.332,27.834,12.629,43.798c-16.74-1.749-34.146-2.656-51.887-2.656v29.427c19.612,0,38.723,1.161,56.813,3.389
	c2.233,18.047,3.396,37.111,3.396,56.676s-1.163,38.63-3.396,56.677c-18.091,2.227-37.201,3.388-56.813,3.388v29.427
	c17.74,0,35.146-0.907,51.887-2.656c-3.297,15.964-7.529,30.717-12.629,43.798c-11.286,28.953-26.329,46.938-39.258,46.938V512
	c26.528,0,50.234-23.333,66.75-65.7c6.76-17.34,12.128-37.23,15.971-58.778c21.601-3.834,41.539-9.189,58.92-15.933
	C440.11,355.113,463.5,331.464,463.5,305S440.11,254.887,397.641,238.411z M386.949,344.163c-13.111,5.087-27.9,9.31-43.903,12.598
	c1.753-16.699,2.662-34.064,2.662-51.762c0-17.697-0.909-35.062-2.662-51.761c16.003,3.288,30.792,7.511,43.903,12.598
	c29.023,11.259,47.053,26.266,47.053,39.163C434.002,317.897,415.973,332.904,386.949,344.163z"/>
<g>
</g>
<g>
</g>
<g>
</g>
<g>
</g>
<g>
</g>
<g>
</g>
<g>
</g>
<g>
</g>
<g>
</g>
<g>
</g>
<g>
</g>
<g>
</g>
<g>
</g>
<g>
</g>
<g>
</g>
</svg>
