<?xml version="1.0" encoding="iso-8859-1"?>
<!-- Generator: Adobe Illustrator 19.0.0, SVG Export Plug-In . SVG Version: 6.00 Build 0)  -->
<svg version="1.1" id="Capa_1" xmlns="http://www.w3.org/2000/svg" xmlns:xlink="http://www.w3.org/1999/xlink" x="0px" y="0px"
	 viewBox="0 0 512 512" style="enable-background:new 0 0 512 512;" xml:space="preserve">
<path style="fill:#FFC173;" d="M441.962,241.99c11.144,0.418,22.546-1.908,33.184-7.339c33.23-16.964,46.417-57.655,29.453-90.886
	c-16.964-33.23-57.655-46.417-90.885-29.453c-10.639,5.431-19.21,13.301-25.408,22.572L441.962,241.99z"/>
<path style="fill:#FFD8A6;" d="M70.038,241.99c-11.144,0.418-22.546-1.908-33.184-7.339c-33.23-16.964-46.417-57.656-29.453-90.886
	s57.655-46.417,90.885-29.453c10.638,5.431,19.21,13.301,25.408,22.572L70.038,241.99z"/>
<path style="fill:#E37500;" d="M453.085,256c0,108.65-88.387,197.037-197.037,197.037S59.011,364.65,59.011,256
	S147.398,58.963,256.048,58.963S453.085,147.35,453.085,256z"/>
<path style="fill:#974C00;" d="M453.085,256c0,108.65-88.387,197.037-197.037,197.037V58.963
	C364.698,58.963,453.085,147.35,453.085,256z"/>
<path style="fill:#FFD8A6;" d="M360.918,312.16c0.6,3.901,0.9,7.831,0.9,11.762c0,49.929-47.449,90.537-105.77,90.537
	s-105.77-40.608-105.77-90.537c0-3.931,0.3-7.861,0.9-11.762c-28.875-15.873-47.539-46.659-47.539-80.195
	c0-50.409,41.008-91.417,91.417-91.417c22.894,0,44.368,8.332,60.991,23.294c16.623-14.963,38.107-23.294,60.991-23.294
	c50.409,0,91.417,41.008,91.417,91.417C408.456,265.502,389.793,296.287,360.918,312.16z"/>
<path style="fill:#FFC173;" d="M360.918,312.16c0.6,3.901,0.9,7.831,0.9,11.762c0,49.929-47.449,90.537-105.77,90.537V163.843
	c16.623-14.963,38.107-23.294,60.991-23.294c50.409,0,91.417,41.008,91.417,91.417C408.456,265.502,389.793,296.287,360.918,312.16z
	"/>
<circle style="fill:#57555C;" cx="191.576" cy="234.474" r="16.185"/>
<circle style="fill:#3A3A41;" cx="320.52" cy="234.474" r="16.185"/>
<rect x="219.371" y="295.345" style="fill:#FFA720;" width="30.006" height="30.086"/>
<rect x="262.719" y="295.345" style="fill:#FF8600;" width="30.006" height="30.086"/>
<g>
</g>
<g>
</g>
<g>
</g>
<g>
</g>
<g>
</g>
<g>
</g>
<g>
</g>
<g>
</g>
<g>
</g>
<g>
</g>
<g>
</g>
<g>
</g>
<g>
</g>
<g>
</g>
<g>
</g>
</svg>
