<?xml version="1.0" encoding="iso-8859-1"?>
<!-- Generator: Adobe Illustrator 19.0.0, SVG Export Plug-In . SVG Version: 6.00 Build 0)  -->
<svg version="1.1" id="Capa_1" xmlns="http://www.w3.org/2000/svg" xmlns:xlink="http://www.w3.org/1999/xlink" x="0px" y="0px"
	 viewBox="0 0 58 58" style="enable-background:new 0 0 58 58;" xml:space="preserve">
<rect x="24" y="43.75" style="fill:#FFFFFF;stroke:#AFB6BB;stroke-width:2;stroke-linecap:round;stroke-miterlimit:10;" width="10" height="4"/>
<path style="fill:none;stroke:#AFB6BB;stroke-width:2;stroke-linecap:round;stroke-miterlimit:10;" d="M17,50.25L17,50.25
	c0-1.375,1.125-2.5,2.5-2.5h19c1.375,0,2.5,1.125,2.5,2.5v0"/>
<path style="fill:#E7ECED;" d="M54.502,43.75H3.498C1.566,43.75,0,42.184,0,40.252V10.248C0,8.316,1.566,6.75,3.498,6.75h51.003
	C56.434,6.75,58,8.316,58,10.248v30.003C58,42.184,56.434,43.75,54.502,43.75z"/>
<path style="fill:#38454F;" d="M54,37.75H4c-0.552,0-1-0.448-1-1v-26c0-0.552,0.448-1,1-1h50c0.552,0,1,0.448,1,1v26
	C55,37.302,54.552,37.75,54,37.75z"/>
<path style="fill:#AFB6BB;" d="M31,41.75h-4c-0.553,0-1-0.448-1-1s0.447-1,1-1h4c0.553,0,1,0.448,1,1S31.553,41.75,31,41.75z"/>
<g>
	<path style="fill:#546A79;" d="M6,17.75c0.256,0,0.512-0.098,0.707-0.293l4-4c0.391-0.391,0.391-1.023,0-1.414
		s-1.023-0.391-1.414,0l-4,4c-0.391,0.391-0.391,1.023,0,1.414C5.488,17.652,5.744,17.75,6,17.75z"/>
	<path style="fill:#546A79;" d="M6,22.75c0.256,0,0.512-0.098,0.707-0.293l2-2c0.391-0.391,0.391-1.023,0-1.414
		s-1.023-0.391-1.414,0l-2,2c-0.391,0.391-0.391,1.023,0,1.414C5.488,22.652,5.744,22.75,6,22.75z"/>
	<path style="fill:#546A79;" d="M9.29,17.04C9.109,17.23,9,17.48,9,17.75s0.109,0.52,0.29,0.71c0.189,0.18,0.439,0.29,0.71,0.29
		c0.27,0,0.52-0.11,0.71-0.29c0.18-0.19,0.29-0.45,0.29-0.71c0-0.26-0.11-0.52-0.29-0.71C10.34,16.67,9.66,16.67,9.29,17.04z"/>
	<path style="fill:#546A79;" d="M11.293,16.457c0.195,0.195,0.451,0.293,0.707,0.293s0.512-0.098,0.707-0.293l3-3
		c0.391-0.391,0.391-1.023,0-1.414s-1.023-0.391-1.414,0l-3,3C10.902,15.434,10.902,16.066,11.293,16.457z"/>
	<path style="fill:#546A79;" d="M14.293,17.043l-9,9c-0.391,0.391-0.391,1.023,0,1.414C5.488,27.652,5.744,27.75,6,27.75
		s0.512-0.098,0.707-0.293l9-9c0.391-0.391,0.391-1.023,0-1.414S14.684,16.652,14.293,17.043z"/>
	<path style="fill:#546A79;" d="M16.29,15.04C16.109,15.23,16,15.49,16,15.75c0,0.26,0.109,0.52,0.29,0.71
		c0.189,0.18,0.45,0.29,0.71,0.29s0.52-0.11,0.71-0.29c0.18-0.19,0.29-0.45,0.29-0.71c0-0.26-0.11-0.52-0.29-0.71
		C17.33,14.67,16.67,14.67,16.29,15.04z"/>
	<path style="fill:#546A79;" d="M20.707,12.043c-0.391-0.391-1.023-0.391-1.414,0l-1,1c-0.391,0.391-0.391,1.023,0,1.414
		c0.195,0.195,0.451,0.293,0.707,0.293s0.512-0.098,0.707-0.293l1-1C21.098,13.066,21.098,12.434,20.707,12.043z"/>
</g>
<g>
</g>
<g>
</g>
<g>
</g>
<g>
</g>
<g>
</g>
<g>
</g>
<g>
</g>
<g>
</g>
<g>
</g>
<g>
</g>
<g>
</g>
<g>
</g>
<g>
</g>
<g>
</g>
<g>
</g>
</svg>
