<?xml version="1.0" encoding="iso-8859-1"?>
<!-- Generator: Adobe Illustrator 19.0.0, SVG Export Plug-In . SVG Version: 6.00 Build 0)  -->
<svg version="1.1" id="Capa_1" xmlns="http://www.w3.org/2000/svg" xmlns:xlink="http://www.w3.org/1999/xlink" x="0px" y="0px"
	 viewBox="0 0 512 512" style="enable-background:new 0 0 512 512;" xml:space="preserve">
<polygon style="fill:#E37500;" points="512,375.671 209.773,375.671 306.921,258.545 362.116,192.014 362.139,191.983 
	416.027,258.031 "/>
<polygon style="fill:#FFB44F;" points="416.027,258.031 392.248,269.828 362.116,254.636 361.525,254.337 330.548,271.634 
	306.921,258.545 362.116,192.014 362.139,191.983 "/>
<polygon style="fill:#974C00;" points="512,375.671 362.116,375.671 362.116,192.014 362.139,191.983 416.027,258.031 "/>
<polygon style="fill:#FF9700;" points="416.027,258.031 392.248,269.828 362.116,254.636 362.116,192.014 362.139,191.983 "/>
<polygon style="fill:#E37500;" points="393.795,375.671 0,375.671 126.581,223.059 198.499,136.369 198.529,136.329 
	268.745,222.388 "/>
<polygon style="fill:#FFB44F;" points="268.745,222.388 237.76,237.76 198.499,217.965 197.728,217.574 157.366,240.112 
	126.581,223.059 198.499,136.369 198.529,136.329 "/>
<polygon style="fill:#974C00;" points="393.795,375.671 198.499,375.671 198.499,136.369 198.529,136.329 268.745,222.388 "/>
<polygon style="fill:#FF9700;" points="268.745,222.388 237.76,237.76 198.499,217.965 198.499,136.369 198.529,136.329 "/>
<g>
</g>
<g>
</g>
<g>
</g>
<g>
</g>
<g>
</g>
<g>
</g>
<g>
</g>
<g>
</g>
<g>
</g>
<g>
</g>
<g>
</g>
<g>
</g>
<g>
</g>
<g>
</g>
<g>
</g>
</svg>
