<?xml version="1.0" encoding="iso-8859-1"?>
<!-- Generator: Adobe Illustrator 19.0.0, SVG Export Plug-In . SVG Version: 6.00 Build 0)  -->
<svg version="1.1" id="Capa_1" xmlns="http://www.w3.org/2000/svg" xmlns:xlink="http://www.w3.org/1999/xlink" x="0px" y="0px"
	 viewBox="0 0 415 415" style="enable-background:new 0 0 415 415;" xml:space="preserve">
<g id="XMLID_1082_">
	<path id="XMLID_1083_" style="fill:#565659;" d="M335,95c0,19.299-15.701,35-35,35c-19.299,0-35-15.701-35-35V65
		c0-35.841-29.159-65-65-65s-65,29.159-65,65v41.12c4.894-0.735,9.902-1.12,15-1.12c5.098,0,10.106,0.385,15,1.12V65
		c0-19.299,15.701-35,35-35c19.299,0,35,15.701,35,35v30c0,35.841,29.159,65,65,65s65-29.159,65-65H335z"/>
	<path id="XMLID_1084_" style="fill:#CCF7F9;" d="M150,195L150,195c-11.046,0-20-8.954-20-20s8.954-20,20-20h0c0-29.947,0-50,0-50
		c-5.099,0-10.107,0.385-15,1.12c-48.112,7.237-85,48.75-85,98.88v110c0,55.228,44.772,100,100,100C150,394.826,150,279.153,150,195
		z"/>
	<path id="XMLID_1085_" style="fill:#00D7DF;" d="M150,155c11.045,0,20,8.954,20,20s-8.954,20-20,20c0,84.153,0,199.826,0,220
		c55.229,0,100-44.772,100-100V205c0-50.131-36.888-91.643-85-98.88c-4.893-0.735-9.901-1.12-15-1.12C150,105,150,125.053,150,155z"
		/>
	<path id="XMLID_1086_" style="fill:#FFFFFF;" d="M130,175c0,11.046,8.954,20,20,20h0c11.045,0,20-8.954,20-20s-8.954-20-20-20h0
		C138.954,155,130,163.954,130,175z"/>
</g>
<g>
</g>
<g>
</g>
<g>
</g>
<g>
</g>
<g>
</g>
<g>
</g>
<g>
</g>
<g>
</g>
<g>
</g>
<g>
</g>
<g>
</g>
<g>
</g>
<g>
</g>
<g>
</g>
<g>
</g>
</svg>
