<?xml version="1.0" encoding="iso-8859-1"?>
<!-- Generator: Adobe Illustrator 19.0.0, SVG Export Plug-In . SVG Version: 6.00 Build 0)  -->
<svg version="1.1" id="Layer_1" xmlns="http://www.w3.org/2000/svg" xmlns:xlink="http://www.w3.org/1999/xlink" x="0px" y="0px"
	 viewBox="0 0 512 512" style="enable-background:new 0 0 512 512;" xml:space="preserve">
<path style="fill:#5195AF;" d="M476.34,33.758H374.514v470.376c0,0,32.273,7.866,75.382,7.866c29.088,0,52.888-23.8,52.888-52.877
	L476.34,33.758z"/>
<path style="fill:#367596;" d="M502.784,60.202v398.921c0,14.539-11.905,26.433-26.444,26.433
	c-14.539,0-26.444-11.894-26.444-26.433V60.202c0-14.55,11.905-26.444,26.444-26.444C490.879,33.758,502.784,45.652,502.784,60.202z
	"/>
<path style="fill:#B7D9DD;" d="M397.019,459.123c0,29.077,23.8,52.877,52.877,52.877h-33.758c-71.432,0-97.888-52.877-97.888-52.877
	L363.261,0h33.758v33.758V459.123z"/>
<path style="fill:#C7E7EB;" d="M363.261,459.123V0H9.216v459.123C9.216,488.2,33.016,512,62.104,512h354.034
	C387.061,512,363.261,488.2,363.261,459.123z"/>
<polygon style="fill:#C20035;" points="340.756,45.011 340.756,129.407 306.997,129.407 284.492,87.209 306.997,45.011 "/>
<path style="fill:#27467A;" d="M332.314,171.604H73.924c-4.662,0-8.44-3.779-8.44-8.44s3.778-8.44,8.44-8.44h258.39
	c4.662,0,8.44,3.779,8.44,8.44S336.975,171.604,332.314,171.604z"/>
<g>
	<path style="fill:#367596;" d="M332.314,239.121H219.998c-4.662,0-8.44-3.779-8.44-8.44c0-4.661,3.778-8.44,8.44-8.44h112.316
		c4.662,0,8.44,3.779,8.44,8.44C340.753,235.342,336.975,239.121,332.314,239.121z"/>
	<path style="fill:#367596;" d="M186.24,239.121H73.924c-4.662,0-8.44-3.779-8.44-8.44c0-4.661,3.778-8.44,8.44-8.44H186.24
		c4.662,0,8.44,3.779,8.44,8.44C194.679,235.342,190.901,239.121,186.24,239.121z"/>
	<path style="fill:#367596;" d="M332.314,272.879H219.998c-4.662,0-8.44-3.779-8.44-8.44s3.778-8.44,8.44-8.44h112.316
		c4.662,0,8.44,3.779,8.44,8.44S336.975,272.879,332.314,272.879z"/>
	<path style="fill:#367596;" d="M186.24,272.879H73.924c-4.662,0-8.44-3.779-8.44-8.44s3.778-8.44,8.44-8.44H186.24
		c4.662,0,8.44,3.779,8.44,8.44S190.901,272.879,186.24,272.879z"/>
	<path style="fill:#367596;" d="M332.314,306.637H219.998c-4.662,0-8.44-3.779-8.44-8.44s3.778-8.44,8.44-8.44h112.316
		c4.662,0,8.44,3.779,8.44,8.44S336.975,306.637,332.314,306.637z"/>
</g>
<path style="fill:#5195AF;" d="M332.314,441.67H219.998c-4.662,0-8.44-3.779-8.44-8.44c0-4.661,3.778-8.44,8.44-8.44h112.316
	c4.662,0,8.44,3.779,8.44,8.44C340.753,437.892,336.975,441.67,332.314,441.67z"/>
<g>
	<path style="fill:#367596;" d="M332.314,340.396H219.998c-4.662,0-8.44-3.779-8.44-8.44s3.778-8.44,8.44-8.44h112.316
		c4.662,0,8.44,3.779,8.44,8.44S336.975,340.396,332.314,340.396z"/>
	<path style="fill:#367596;" d="M287.303,374.154h-67.305c-4.662,0-8.44-3.779-8.44-8.44s3.778-8.44,8.44-8.44h67.305
		c4.662,0,8.44,3.779,8.44,8.44S291.964,374.154,287.303,374.154z"/>
</g>
<path style="fill:#5195AF;" d="M287.303,475.429h-67.305c-4.662,0-8.44-3.779-8.44-8.44s3.778-8.44,8.44-8.44h67.305
	c4.662,0,8.44,3.779,8.44,8.44S291.964,475.429,287.303,475.429z"/>
<polygon style="fill:#27467A;" points="186.244,298.198 186.244,466.989 163.739,466.989 141.233,382.593 163.739,298.198 "/>
<rect x="65.48" y="298.198" style="fill:#2F5E88;" width="98.259" height="168.791"/>
<rect x="65.48" y="45.011" style="fill:#FF0F47;" width="241.518" height="84.396"/>
<g>
</g>
<g>
</g>
<g>
</g>
<g>
</g>
<g>
</g>
<g>
</g>
<g>
</g>
<g>
</g>
<g>
</g>
<g>
</g>
<g>
</g>
<g>
</g>
<g>
</g>
<g>
</g>
<g>
</g>
</svg>
