<?xml version="1.0" encoding="iso-8859-1"?>
<!-- Generator: Adobe Illustrator 19.0.0, SVG Export Plug-In . SVG Version: 6.00 Build 0)  -->
<svg version="1.1" id="Layer_1" xmlns="http://www.w3.org/2000/svg" xmlns:xlink="http://www.w3.org/1999/xlink" x="0px" y="0px"
	 viewBox="0 0 494.998 494.998" style="enable-background:new 0 0 494.998 494.998;" xml:space="preserve">
<g>
	<rect x="227.499" y="454.998" style="fill:#C4C8F5;" width="40" height="40"/>
	<rect x="227.499" y="350" style="fill:#C4C8F5;" width="40" height="64.998"/>
	<rect x="227.499" y="217.97" style="fill:#C4C8F5;" width="40" height="30"/>
	<polygon style="fill:#A7ADF0;" points="136.521,414.998 136.521,494.998 176.521,494.998 176.521,454.998 318.477,454.998 
		318.477,494.998 358.477,494.998 358.477,414.998 	"/>
	<polygon style="fill:#A7ADF0;" points="358.479,177.97 358.479,350 398.479,350 398.479,217.97 418.479,217.97 418.479,177.97 	"/>
	<rect x="247.499" y="247.97" style="fill:#165C92;" width="110.98" height="102.03"/>
	<polygon style="fill:#165C92;" points="247.499,217.97 340.499,217.97 352.749,0 247.499,0 	"/>
	<rect x="136.519" y="247.97" style="fill:#1E81CE;" width="110.98" height="102.03"/>
	<polygon style="fill:#1E81CE;" points="247.499,0 142.249,0 154.499,217.97 247.499,217.97 	"/>
	<polygon style="fill:#C4C8F5;" points="136.519,177.97 76.519,177.97 76.519,217.97 96.519,217.97 96.519,350 136.519,350 	"/>
</g>
<g>
</g>
<g>
</g>
<g>
</g>
<g>
</g>
<g>
</g>
<g>
</g>
<g>
</g>
<g>
</g>
<g>
</g>
<g>
</g>
<g>
</g>
<g>
</g>
<g>
</g>
<g>
</g>
<g>
</g>
</svg>
