<?xml version="1.0" encoding="iso-8859-1"?>
<!-- Generator: Adobe Illustrator 19.0.0, SVG Export Plug-In . SVG Version: 6.00 Build 0)  -->
<svg version="1.1" id="Capa_1" xmlns="http://www.w3.org/2000/svg" xmlns:xlink="http://www.w3.org/1999/xlink" x="0px" y="0px"
	 viewBox="0 0 440 440" style="enable-background:new 0 0 440 440;" xml:space="preserve">
<g id="XMLID_1338_">
	<g id="XMLID_1339_">
		<rect id="XMLID_1340_" x="40" y="405" style="fill:#91DC5A;" width="360" height="35"/>
	</g>
	<g id="XMLID_1341_">
		<rect id="XMLID_1342_" x="115" style="fill:#006C70;" width="210" height="440"/>
	</g>
	<g id="XMLID_1343_">
		<rect id="XMLID_1344_" x="160" style="fill:#00A1A7;" width="120" height="440"/>
	</g>
	<g id="XMLID_1345_">
		<rect id="XMLID_1346_" x="160" y="370" style="fill:#00D7DF;" width="120" height="70"/>
	</g>
	<g id="XMLID_1347_">
		<g id="XMLID_1348_">
			<rect id="XMLID_1349_" x="145" y="60" style="fill:#FFFFFF;" width="30" height="40"/>
		</g>
		<g id="XMLID_1350_">
			<rect id="XMLID_1351_" x="205" y="60" style="fill:#FFFFFF;" width="30" height="40"/>
		</g>
		<g id="XMLID_1352_">
			<rect id="XMLID_1353_" x="265" y="60" style="fill:#FFFFFF;" width="30" height="40"/>
		</g>
	</g>
	<g id="XMLID_1354_">
		<g id="XMLID_1355_">
			<rect id="XMLID_1356_" x="145" y="130" style="fill:#FFFFFF;" width="30" height="40"/>
		</g>
		<g id="XMLID_1357_">
			<rect id="XMLID_1358_" x="205" y="130" style="fill:#FFFFFF;" width="30" height="40"/>
		</g>
		<g id="XMLID_1359_">
			<rect id="XMLID_1360_" x="265" y="130" style="fill:#FFFFFF;" width="30" height="40"/>
		</g>
	</g>
	<g id="XMLID_1361_">
		<g id="XMLID_1362_">
			<rect id="XMLID_1363_" x="145" y="200" style="fill:#FFFFFF;" width="30" height="40"/>
		</g>
		<g id="XMLID_1364_">
			<rect id="XMLID_1365_" x="205" y="200" style="fill:#FFFFFF;" width="30" height="40"/>
		</g>
		<g id="XMLID_1366_">
			<rect id="XMLID_1367_" x="265" y="200" style="fill:#FFFFFF;" width="30" height="40"/>
		</g>
	</g>
	<g id="XMLID_1368_">
		<g id="XMLID_1369_">
			<rect id="XMLID_1370_" x="145" y="270" style="fill:#FFFFFF;" width="30" height="40"/>
		</g>
		<g id="XMLID_1371_">
			<rect id="XMLID_1372_" x="205" y="270" style="fill:#FFFFFF;" width="30" height="40"/>
		</g>
		<g id="XMLID_1373_">
			<rect id="XMLID_1374_" x="265" y="270" style="fill:#FFFFFF;" width="30" height="40"/>
		</g>
	</g>
	<g id="XMLID_1375_">
		<g id="XMLID_1376_">
			<rect id="XMLID_1377_" x="205" y="370" style="fill:#FFFFFF;" width="30" height="70"/>
		</g>
	</g>
</g>
<g>
</g>
<g>
</g>
<g>
</g>
<g>
</g>
<g>
</g>
<g>
</g>
<g>
</g>
<g>
</g>
<g>
</g>
<g>
</g>
<g>
</g>
<g>
</g>
<g>
</g>
<g>
</g>
<g>
</g>
</svg>
