<?xml version="1.0" encoding="iso-8859-1"?>
<!-- Generator: Adobe Illustrator 19.0.0, SVG Export Plug-In . SVG Version: 6.00 Build 0)  -->
<svg version="1.1" id="Capa_1" xmlns="http://www.w3.org/2000/svg" xmlns:xlink="http://www.w3.org/1999/xlink" x="0px" y="0px"
	 viewBox="0 0 400 400" style="enable-background:new 0 0 400 400;" xml:space="preserve">
<g id="XMLID_1314_">
	<path id="XMLID_1315_" style="fill:#565659;" d="M335,275v-60H215v-31.425c-4.861,0.923-9.871,1.425-15,1.425
		c-5.129,0-10.139-0.502-15-1.425V215H65v60h15h15v-30h210v30h15H335z"/>
	<polygon id="XMLID_1316_" style="fill:#00D7DF;" points="40,340 40,310 80,310 80,275 65,275 0,275 0,375 80,375 80,340 	"/>
	<polygon id="XMLID_1317_" style="fill:#00A1A7;" points="80,310 120,310 120,340 80,340 80,375 160,375 160,275 95,275 80,275 	"/>
	<polygon id="XMLID_1318_" style="fill:#00D7DF;" points="280,340 280,310 320,310 320,275 305,275 240,275 240,375 320,375 
		320,340 	"/>
	<polygon id="XMLID_1319_" style="fill:#00A1A7;" points="335,275 320,275 320,310 360,310 360,340 320,340 320,375 400,375 
		400,275 	"/>
	<polygon id="XMLID_1320_" style="fill:#FFFFFF;" points="40,340 80,340 120,340 120,310 80,310 40,310 	"/>
	<polygon id="XMLID_1321_" style="fill:#FFFFFF;" points="280,340 320,340 360,340 360,310 320,310 280,310 	"/>
	<path id="XMLID_1322_" style="fill:#FFDA44;" d="M200,120h-40V90h40V25c-44.183,0-80,35.817-80,80
		c0,39.053,27.991,71.551,65,78.575c4.861,0.923,9.871,1.425,15,1.425V120z"/>
	<path id="XMLID_1323_" style="fill:#FF9811;" d="M240,90v30h-40v65c5.129,0,10.139-0.502,15-1.425c37.01-7.024,65-39.522,65-78.575
		c0-44.183-35.817-80-80-80v65H240z"/>
	<polygon id="XMLID_1324_" style="fill:#FFFFFF;" points="240,90 200,90 160,90 160,120 200,120 240,120 	"/>
</g>
<g>
</g>
<g>
</g>
<g>
</g>
<g>
</g>
<g>
</g>
<g>
</g>
<g>
</g>
<g>
</g>
<g>
</g>
<g>
</g>
<g>
</g>
<g>
</g>
<g>
</g>
<g>
</g>
<g>
</g>
</svg>
