<?xml version="1.0" encoding="iso-8859-1"?>
<!-- Generator: Adobe Illustrator 19.0.0, SVG Export Plug-In . SVG Version: 6.00 Build 0)  -->
<svg version="1.1" id="Capa_1" xmlns="http://www.w3.org/2000/svg" xmlns:xlink="http://www.w3.org/1999/xlink" x="0px" y="0px"
	 viewBox="0 0 512 512" style="enable-background:new 0 0 512 512;" xml:space="preserve">
<path style="fill:#480306;" d="M512,278.5l-30-30v30c0,31.575-4.557,46.955-9.382,63.239C467.398,359.357,462,377.575,462,413.5v15
	h50v-30h-19.614c1.197-21.915,5.005-34.768,8.996-48.239C506.602,332.643,512,314.425,512,278.5z"/>
<path style="fill:#593927;" d="M10.618,350.261c3.991,13.471,7.799,26.324,8.996,48.239H0v30h50v-15
	c0-35.925-5.398-54.143-10.618-71.761C34.557,325.455,30,310.075,30,278.5v-30l-30,30C0,314.425,5.398,332.643,10.618,350.261z"/>
<polygon style="fill:#C7A772;" points="512,203.5 196,143.5 256,278.5 512,278.5 "/>
<g>
	<polygon style="fill:#E3C281;" points="0,203.5 0,278.5 256,278.5 256,143.5 	"/>
	<path style="fill:#E3C281;" d="M512,203.5v-60c0-33.084-26.916-60-60-60c-14.664,0-28.463,5.26-39.2,14.569
		C402.063,88.76,388.264,83.5,373.6,83.5s-28.463,5.26-39.2,14.568C323.663,88.76,309.864,83.5,295.2,83.5s-28.463,5.26-39.2,14.569
		l-50,52.716l50,52.716h256V203.5z"/>
</g>
<path style="fill:#FEDD90;" d="M256,98.069C245.263,88.76,231.464,83.5,216.8,83.5s-28.463,5.26-39.2,14.569
	C166.863,88.76,153.063,83.5,138.4,83.5s-28.462,5.26-39.2,14.569C88.463,88.76,74.664,83.5,60,83.5c-33.084,0-60,26.916-60,60v60
	h256V98.069z"/>
<g>
</g>
<g>
</g>
<g>
</g>
<g>
</g>
<g>
</g>
<g>
</g>
<g>
</g>
<g>
</g>
<g>
</g>
<g>
</g>
<g>
</g>
<g>
</g>
<g>
</g>
<g>
</g>
<g>
</g>
</svg>
