<?xml version="1.0" encoding="iso-8859-1"?>
<!-- Generator: Adobe Illustrator 19.0.0, SVG Export Plug-In . SVG Version: 6.00 Build 0)  -->
<svg version="1.1" id="Capa_1" xmlns="http://www.w3.org/2000/svg" xmlns:xlink="http://www.w3.org/1999/xlink" x="0px" y="0px"
	 viewBox="0 0 512 512" style="enable-background:new 0 0 512 512;" xml:space="preserve">
<path style="fill:#974C00;" d="M497.437,27.287l-6.922-22.561l-17.496,15.836c-46.128,41.749-108.054,63.532-108.673,63.747
	l4.909,14.182l0,0l0,0l4.901,14.184c0.493-0.171,2.992-1.045,7.049-2.625l76.642,74.139c-0.523,0.867-1.039,1.739-1.588,2.595
	l12.635,8.091l0.002,0.002v-0.001l12.638,8.093C528.191,130.114,498.714,31.451,497.437,27.287z"/>
<path style="fill:#E37500;" d="M32.424,4.725l-6.922,22.561c-1.278,4.164-30.756,102.827,15.901,175.684l12.637-8.093l0,0
	l0.003-0.003l12.635-8.091c-0.549-0.856-1.065-1.728-1.588-2.595l76.642-74.138c4.058,1.581,6.556,2.455,7.05,2.625l9.802-28.369
	c-0.618-0.214-62.374-21.848-108.664-63.744L32.424,4.725z"/>
<path style="fill:#FFA720;" d="M512,317.118c0,34.478-14.147,66.134-42.041,94.088c-21.281,21.321-50.656,40.491-87.304,56.979
	c-61.271,27.554-121.552,38.209-124.083,38.65l-2.571,0.44l-2.571-0.44c-2.531-0.44-62.812-11.096-124.083-38.65
	c-36.649-16.488-66.024-35.658-87.304-56.979C14.147,383.252,0,351.596,0,317.118c0-68.375,26.634-132.667,74.978-181.022
	C123.333,87.752,187.615,61.118,256,61.118s132.667,26.634,181.022,74.978C485.366,184.451,512,248.743,512,317.118z"/>
<path style="fill:#FF8600;" d="M512,317.118c0,34.478-14.147,66.134-42.041,94.088c-21.281,21.321-50.656,40.491-87.304,56.979
	c-61.271,27.554-121.552,38.209-124.083,38.65l-2.571,0.44V61.118c68.385,0,132.667,26.634,181.022,74.978
	C485.366,184.451,512,248.743,512,317.118z"/>
<polygon style="fill:#FFD82D;" points="324.625,356.698 256,435.938 188.816,358.359 213.899,269.084 299.542,269.084 "/>
<polygon style="fill:#FBBD00;" points="324.625,356.698 256,435.938 256,269.084 299.542,269.084 "/>
<circle style="fill:#DEDEE0;" cx="159.741" cy="259.142" r="94.688"/>
<circle style="fill:#D6D6D8;" cx="352.259" cy="259.142" r="94.688"/>
<path style="fill:#57555C;" d="M159.745,213.906c-24.945,0-45.239,20.294-45.239,45.24s20.294,45.239,45.239,45.239
	s45.239-20.294,45.239-45.239S184.69,213.906,159.745,213.906z"/>
<path style="fill:#3A3A41;" d="M352.255,213.906c-24.945,0-45.239,20.294-45.239,45.24s20.294,45.239,45.239,45.239
	c24.945,0,45.239-20.294,45.239-45.239S377.201,213.906,352.255,213.906z"/>
<path style="fill:#E37500;" d="M352.259,149.456c-41.451,0-77.599,23.112-96.249,57.129c0-0.01-0.01-0.01-0.01-0.02
	c-0.51-0.92-1.021-1.841-1.561-2.741c-19.05-32.497-54.378-54.368-94.688-54.368c-60.491,0-109.696,49.205-109.696,109.696
	c0,60.481,49.205,109.696,109.696,109.696c40.31,0,75.638-21.881,94.688-54.368c0.54-0.9,1.051-1.821,1.561-2.741
	c0-0.01,0.01-0.01,0.01-0.02c18.649,34.007,54.798,57.129,96.249,57.129c60.491,0,109.686-49.215,109.686-109.696
	C461.945,198.661,412.75,149.456,352.259,149.456z M159.751,338.832c-43.932,0-79.68-35.748-79.68-79.68
	c0-43.942,35.748-79.68,79.68-79.68s79.68,35.738,79.68,79.68C239.432,303.084,203.683,338.832,159.751,338.832z M352.259,338.832
	c-43.932,0-79.68-35.748-79.68-79.68c0-43.942,35.748-79.68,79.68-79.68s79.67,35.738,79.67,79.68
	C431.929,303.084,396.191,338.832,352.259,338.832z"/>
<path style="fill:#974C00;" d="M352.259,149.456c-41.451,0-77.599,23.112-96.249,57.129c0-0.01-0.01-0.01-0.01-0.02v105.173
	c0-0.01,0.01-0.01,0.01-0.02c18.649,34.007,54.798,57.129,96.249,57.129c60.491,0,109.686-49.215,109.686-109.696
	C461.945,198.661,412.75,149.456,352.259,149.456z M352.259,338.832c-43.932,0-79.68-35.748-79.68-79.68
	c0-43.942,35.748-79.68,79.68-79.68s79.67,35.738,79.67,79.68C431.929,303.084,396.191,338.832,352.259,338.832z"/>
<g>
</g>
<g>
</g>
<g>
</g>
<g>
</g>
<g>
</g>
<g>
</g>
<g>
</g>
<g>
</g>
<g>
</g>
<g>
</g>
<g>
</g>
<g>
</g>
<g>
</g>
<g>
</g>
<g>
</g>
</svg>
