<?xml version="1.0" encoding="iso-8859-1"?>
<!-- Generator: Adobe Illustrator 18.0.0, SVG Export Plug-In . SVG Version: 6.00 Build 0)  -->
<!DOCTYPE svg PUBLIC "-//W3C//DTD SVG 1.1//EN" "http://www.w3.org/Graphics/SVG/1.1/DTD/svg11.dtd">
<svg version="1.1" id="Capa_1" xmlns="http://www.w3.org/2000/svg" xmlns:xlink="http://www.w3.org/1999/xlink" x="0px" y="0px"
	 viewBox="0 0 58 58" style="enable-background:new 0 0 58 58;" xml:space="preserve">
<g>
	<rect y="23" style="fill:#A98258;" width="58" height="35"/>
	<polygon style="fill:#F4D5BD;" points="49,42 45,46 49,50 47,52 58,52 58,40 47,40 	"/>
	<path style="fill:#F0C419;" d="M15.688,5H4.312C4.14,5,4,4.86,4,4.688V2.811C4,1.259,5.259,0,6.811,0h6.378
		C14.741,0,16,1.259,16,2.811v1.877C16,4.86,15.86,5,15.688,5z"/>
	<rect x="6" y="3" style="fill:#AA891D;" width="2" height="2"/>
	<rect x="9" y="3" style="fill:#AA891D;" width="2" height="2"/>
	<rect x="12" y="3" style="fill:#AA891D;" width="2" height="2"/>
	<path style="fill:#F0C419;" d="M34.688,5H23.312C23.14,5,23,4.86,23,4.688V2.811C23,1.259,24.259,0,25.811,0h6.378
		C33.741,0,35,1.259,35,2.811v1.877C35,4.86,34.86,5,34.688,5z"/>
	<rect x="25" y="3" style="fill:#AA891D;" width="2" height="2"/>
	<rect x="28" y="3" style="fill:#AA891D;" width="2" height="2"/>
	<rect x="31" y="3" style="fill:#AA891D;" width="2" height="2"/>
	<path style="fill:#F0C419;" d="M53.688,5H42.312C42.14,5,42,4.86,42,4.688V2.811C42,1.259,43.259,0,44.811,0h6.378
		C52.741,0,54,1.259,54,2.811v1.877C54,4.86,53.86,5,53.688,5z"/>
	<rect x="44" y="3" style="fill:#AA891D;" width="2" height="2"/>
	<rect x="47" y="3" style="fill:#AA891D;" width="2" height="2"/>
	<rect x="50" y="3" style="fill:#AA891D;" width="2" height="2"/>
	<path style="fill:#6A3006;" d="M56,23v-1.764c0-1.37-0.774-2.623-2-3.236s-2-1.866-2-3.236V5h-8v9.764c0,1.37-0.774,2.623-2,3.236
		s-2,1.866-2,3.236V23H56z"/>
	<path style="fill:#6A3006;" d="M37,23v-1.764c0-1.37-0.774-2.623-2-3.236s-2-1.866-2-3.236V5h-8v9.764c0,1.37-0.774,2.623-2,3.236
		s-2,1.866-2,3.236V23H37z"/>
	<path style="fill:#6A3006;" d="M18,23v-1.764c0-1.37-0.774-2.623-2-3.236s-2-1.866-2-3.236V5H6v9.764c0,1.37-0.774,2.623-2,3.236
		s-2,1.866-2,3.236V23H18z"/>
	<g>
		<rect y="54" style="fill:#7C5F42;" width="10" height="2"/>
		<rect y="51" style="fill:#7C5F42;" width="8" height="2"/>
		<rect y="48" style="fill:#7C5F42;" width="6" height="2"/>
		<rect y="45" style="fill:#7C5F42;" width="4" height="2"/>
	</g>
</g>
<g>
</g>
<g>
</g>
<g>
</g>
<g>
</g>
<g>
</g>
<g>
</g>
<g>
</g>
<g>
</g>
<g>
</g>
<g>
</g>
<g>
</g>
<g>
</g>
<g>
</g>
<g>
</g>
<g>
</g>
</svg>
