<?xml version="1.0" encoding="iso-8859-1"?>
<!-- Generator: Adobe Illustrator 19.0.0, SVG Export Plug-In . SVG Version: 6.00 Build 0)  -->
<svg version="1.1" id="Capa_1" xmlns="http://www.w3.org/2000/svg" xmlns:xlink="http://www.w3.org/1999/xlink" x="0px" y="0px"
	 viewBox="0 0 512 512" style="enable-background:new 0 0 512 512;" xml:space="preserve">
<path style="fill:#FFFFFF;" d="M398.831,171.376L398.831,171.376L398.831,171.376z"/>
<path style="fill:#00BB75;" d="M404.372,157.374c-18.22-7.209-38.544-2.606-51.827,11.379c-0.851-19.271-13.168-36.078-31.65-42.59
	l-10.01,28.406c7.233,2.549,11.885,9.411,11.577,17.074l-1.66,41.16l26.801,10.02l25.75-32.153
	c4.794-5.987,12.809-8.113,19.939-5.292L404.372,157.374z"/>
<g>
	<path style="fill:#FFE97F;" d="M256,173.675c-73.255,0-132.852,59.598-132.852,132.852v15.059h265.705v-15.059
		C388.852,233.272,329.254,173.675,256,173.675z"/>
	<polygon style="fill:#FFE97F;" points="375.092,291.469 136.907,291.469 0,315.279 0,385.837 512,385.837 512,315.279 	"/>
</g>
<g>
	<path style="fill:#FFDB2D;" d="M256,173.675v147.911h132.852v-15.059C388.852,233.272,329.254,173.675,256,173.675z"/>
	<polygon style="fill:#FFDB2D;" points="375.092,291.469 256,291.469 256,385.837 512,385.837 512,315.279 	"/>
</g>
<rect x="123.814" y="264.031" style="fill:#95DAF9;" width="264.363" height="30.118"/>
<rect x="256.04" y="264.031" style="fill:#4EC1F5;" width="132.136" height="30.118"/>
<path style="fill:#DC001E;" d="M418.635,274.402c0,9.754-6.354,17.893-10.911,25.77c-4.701,8.126-8.733,17.644-16.859,22.345
	c-7.876,4.558-18.026,3.419-27.781,3.419c-9.754,0-19.904,1.138-27.781-3.418c-8.126-4.702-12.158-14.221-16.859-22.346
	c-4.558-7.877-10.912-16.016-10.912-25.77s6.354-17.893,10.911-25.77c4.701-8.126,8.733-17.644,16.859-22.345
	c7.876-4.558,18.026-3.419,27.78-3.419c9.754,0,19.904-1.138,27.781,3.418c8.126,4.702,12.158,14.221,16.859,22.346
	C412.281,256.509,418.635,264.648,418.635,274.402z"/>
<path style="fill:#FD0023;" d="M372.716,341.12c-1.733,0-3.413-0.033-5.026-0.063c-3.075-0.06-6.135-0.06-9.211,0
	c-9.145,0.175-20.519,0.396-30.716-5.505c-10.344-5.984-15.747-15.85-20.088-23.776c-0.752-1.373-1.498-2.739-2.264-4.063
	c-0.724-1.252-1.539-2.573-2.401-3.974c-4.693-7.614-10.534-17.09-10.534-29.338s5.84-21.723,10.533-29.337
	c0.862-1.4,1.678-2.723,2.402-3.974c0.767-1.325,1.513-2.69,2.265-4.063c4.341-7.927,9.743-17.791,20.087-23.776
	c10.198-5.9,21.574-5.677,30.716-5.505c3.075,0.06,6.135,0.06,9.211,0c9.14-0.177,20.518-0.397,30.716,5.503
	c10.344,5.985,15.747,15.85,20.088,23.777c0.752,1.373,1.498,2.739,2.264,4.063c0.724,1.252,1.539,2.573,2.401,3.974
	c4.693,7.614,10.534,17.09,10.534,29.337c0,12.248-5.841,21.724-10.534,29.339c-0.862,1.4-1.678,2.722-2.402,3.974
	c-0.765,1.323-1.511,2.689-2.263,4.061c-4.341,7.927-9.743,17.791-20.088,23.777C390.007,340.412,380.808,341.12,372.716,341.12z
	 M363.085,310.878c1.722,0,3.454,0.032,5.187,0.065c5.96,0.116,12.122,0.234,15.053-1.461c3.056-1.769,5.953-7.059,8.754-12.175
	c0.866-1.581,1.728-3.152,2.611-4.678c0.935-1.615,1.899-3.18,2.832-4.693c3.114-5.052,6.055-9.823,6.055-13.535
	s-2.941-8.483-6.055-13.534c-0.933-1.514-1.897-3.079-2.832-4.693c-0.882-1.527-1.745-3.097-2.611-4.679
	c-2.802-5.116-5.698-10.406-8.754-12.174c-2.929-1.696-9.097-1.577-15.053-1.462c-3.464,0.066-6.91,0.066-10.374,0
	c-5.96-0.116-12.122-0.234-15.053,1.461c-3.056,1.768-5.953,7.058-8.754,12.174c-0.866,1.582-1.729,3.153-2.612,4.679
	c-0.935,1.614-1.899,3.18-2.832,4.694c-3.114,5.052-6.055,9.822-6.055,13.534s2.941,8.483,6.055,13.534
	c0.933,1.514,1.897,3.079,2.832,4.693c0.882,1.527,1.745,3.097,2.611,4.679c2.802,5.116,5.698,10.406,8.754,12.174
	c2.929,1.696,9.096,1.577,15.053,1.462C359.63,310.911,361.364,310.878,363.085,310.878z"/>
<rect x="348.028" y="259.338" transform="matrix(-0.7071 0.7071 -0.7071 -0.7071 813.8557 211.6832)" style="fill:#FE99A7;" width="30.117" height="30.117"/>
<g>
</g>
<g>
</g>
<g>
</g>
<g>
</g>
<g>
</g>
<g>
</g>
<g>
</g>
<g>
</g>
<g>
</g>
<g>
</g>
<g>
</g>
<g>
</g>
<g>
</g>
<g>
</g>
<g>
</g>
</svg>
