<?xml version="1.0" encoding="iso-8859-1"?>
<!-- Generator: Adobe Illustrator 19.0.0, SVG Export Plug-In . SVG Version: 6.00 Build 0)  -->
<svg version="1.1" id="Capa_1" xmlns="http://www.w3.org/2000/svg" xmlns:xlink="http://www.w3.org/1999/xlink" x="0px" y="0px"
	 viewBox="0 0 350 350" style="enable-background:new 0 0 350 350;" xml:space="preserve">
<g id="XMLID_6_">
	<polygon id="XMLID_1177_" style="fill:#565659;" points="234.211,190 266.712,320 305,320 305,190 	"/>
	<polygon id="XMLID_1178_" style="fill:#565659;" points="175,190 175,320 235.788,320 203.288,190 	"/>
	<polygon id="XMLID_1179_" style="fill:#818085;" points="146.712,190 114.212,320 175,320 175,190 	"/>
	<polygon id="XMLID_1180_" style="fill:#818085;" points="115.789,190 45,190 45,320 83.288,320 	"/>
	<path id="XMLID_1181_" style="fill:#CDCCCE;" d="M114.212,320l32.5-130l15.089-60.357l-10.32-5.516
		C135.147,115.398,125,98.489,125,80c0-26.958,21.089-48.896,48.011-49.947l0.171-0.008c1.204-0.061,2.431-0.061,3.635,0
		l0.171,0.008C203.911,31.104,225,53.042,225,80c0,18.489-10.147,35.397-26.481,44.127l-10.32,5.516L203.288,190l32.5,130h30.924
		l-32.501-130l-11.454-45.814C242.892,129.219,255,105.555,255,80c0-43.11-33.711-78.2-76.763-79.921
		c-2.139-0.105-4.336-0.105-6.475,0C128.711,1.8,95,36.89,95,80c0,25.555,12.108,49.219,32.242,64.186L115.789,190l-32.5,130
		H114.212z"/>
	<path id="XMLID_1182_" style="fill:#ACABB1;" d="M235.788,320H175h-60.788H83.288H45v30h260v-30h-38.288H235.788z"/>
</g>
<g>
</g>
<g>
</g>
<g>
</g>
<g>
</g>
<g>
</g>
<g>
</g>
<g>
</g>
<g>
</g>
<g>
</g>
<g>
</g>
<g>
</g>
<g>
</g>
<g>
</g>
<g>
</g>
<g>
</g>
</svg>
