<?xml version="1.0" encoding="iso-8859-1"?>
<!-- Generator: Adobe Illustrator 19.0.0, SVG Export Plug-In . SVG Version: 6.00 Build 0)  -->
<svg version="1.1" id="Capa_1" xmlns="http://www.w3.org/2000/svg" xmlns:xlink="http://www.w3.org/1999/xlink" x="0px" y="0px"
	 viewBox="0 0 512 512" style="enable-background:new 0 0 512 512;" xml:space="preserve">
<path style="fill:#FFDB2D;" d="M395.829,135.5c-51.048,0-92.578,41.53-92.578,92.578c0,41.072,33.414,74.487,74.486,74.487
	c33.423,0,60.615-27.191,60.615-60.614c0-23.327-16.524-43.862-39.291-48.829l-0.052,0.237c-1.83-0.396-3.728-0.611-5.676-0.611
	c-14.728,0-26.667,11.939-26.667,26.667s11.939,26.667,26.667,26.667c5.562,0,10.724-1.705,14.997-4.617
	c0.004,0.163,0.021,0.323,0.021,0.486c0,16.881-13.734,30.614-30.615,30.614c-24.53,0-44.486-19.957-44.486-44.487
	c0-34.505,28.072-62.578,62.578-62.578c47.515,0,86.171,38.656,86.171,86.171c0,64.48-52.459,116.939-116.939,116.939H163v30
	h202.061C446.083,398.61,512,332.693,512,251.67C512,187.614,459.886,135.5,395.829,135.5z"/>
<polygon style="fill:#FD0023;" points="115.453,326.67 94.12,348.003 0,348.003 0,442.003 200.667,442.003 200.667,326.67 "/>
<g>
	
		<rect x="272.876" y="108.212" transform="matrix(-0.7071 0.7071 -0.7071 -0.7071 578.5583 6.7764)" style="fill:#FFDB2D;" width="30" height="30"/>
	
		<rect x="337.115" y="76.21" transform="matrix(-0.7071 0.7071 -0.7071 -0.7071 665.5927 -93.2769)" style="fill:#FFDB2D;" width="30" height="30"/>
</g>
<rect x="240.881" y="268.215" transform="matrix(-0.7071 0.7071 -0.7071 -0.7071 637.0785 302.543)" style="fill:#FFE97F;" width="30" height="30"/>
<polygon style="fill:#E60020;" points="115.453,326.67 96,346.124 96,442.003 200.667,442.003 200.667,326.67 "/>
<path style="fill:#FCB72C;" d="M395.829,135.5c-51.048,0-92.578,41.53-92.578,92.578c0,41.072,33.414,74.487,74.486,74.487
	c33.423,0,60.615-27.191,60.615-60.614c0-23.327-16.524-43.862-39.291-48.829l-0.052,0.237c-1.83-0.396-3.728-0.611-5.676-0.611
	c-14.728,0-26.667,11.939-26.667,26.667s11.939,26.667,26.667,26.667c5.562,0,10.724-1.705,14.997-4.617
	c0.004,0.163,0.021,0.323,0.021,0.486c0,16.881-13.734,30.614-30.615,30.614c-24.53,0-44.486-19.957-44.486-44.487
	c0-34.505,28.072-62.578,62.578-62.578c47.515,0,86.171,38.656,86.171,86.171c0,64.48-52.459,116.939-116.939,116.939H256v30
	h109.061C446.083,398.61,512,332.693,512,251.67C512,187.614,459.886,135.5,395.829,135.5z"/>
<g>
</g>
<g>
</g>
<g>
</g>
<g>
</g>
<g>
</g>
<g>
</g>
<g>
</g>
<g>
</g>
<g>
</g>
<g>
</g>
<g>
</g>
<g>
</g>
<g>
</g>
<g>
</g>
<g>
</g>
</svg>
