<?xml version="1.0" encoding="iso-8859-1"?>
<!-- Generator: Adobe Illustrator 19.0.0, SVG Export Plug-In . SVG Version: 6.00 Build 0)  -->
<svg version="1.1" id="Layer_1" xmlns="http://www.w3.org/2000/svg" xmlns:xlink="http://www.w3.org/1999/xlink" x="0px" y="0px"
	 viewBox="0 0 512 512" style="enable-background:new 0 0 512 512;" xml:space="preserve">
<path style="fill:#111449;" d="M184.136,379.71c-43.969,0-79.739-35.771-79.739-79.739V203.77h16.605v96.2
	c0,34.812,28.322,63.134,63.134,63.134s63.134-28.132,63.134-62.71V79.315C247.27,35.581,283.04,0,327.009,0
	c43.968,0,79.739,35.771,79.739,79.739v88.053h-16.605V79.739c0-34.812-28.321-63.134-63.134-63.134s-63.134,28.132-63.134,62.71
	v221.079C263.875,344.129,228.104,379.71,184.136,379.71z"/>
<path style="fill:#27467A;" d="M398.442,148.895l76.451,203.693l33.211-22.141v-84.798
	C508.104,206.992,485.754,148.895,398.442,148.895z"/>
<path style="fill:#2F5E88;" d="M474.894,245.649v106.939h-98.592l22.141-203.693C459.318,148.895,474.894,206.992,474.894,245.649z"
	/>
<path style="fill:#367596;" d="M288.78,245.649v84.798l33.211,22.141h76.451V148.895C311.131,148.895,288.78,206.992,288.78,245.649
	z"/>
<path style="fill:#111449;" d="M398.446,203.993c-11.81,0-21.383,9.574-21.383,21.383v39.407c0,11.81,9.574,21.383,21.383,21.383
	c11.81,0,21.383-9.574,21.383-21.383v-39.407C419.828,213.567,410.254,203.993,398.446,203.993z"/>
<path style="fill:#E89330;" d="M112.7,8.303L74.821,117.107L112.7,225.911c60.091,0,108.804-48.714,108.804-108.804
	S172.79,8.303,112.7,8.303z"/>
<path style="fill:#FFBE35;" d="M3.896,117.107c0,60.091,48.714,108.804,108.804,108.804V8.303
	C52.608,8.303,3.896,57.016,3.896,117.107z"/>
<path style="fill:#FFDB8A;" d="M112.7,41.514V192.7c41.784,0,75.593-33.811,75.593-75.593S154.482,41.514,112.7,41.514z"/>
<path style="fill:#FFEAB5;" d="M112.7,41.514c-41.784,0-75.593,33.811-75.593,75.593c0,41.784,33.811,75.593,75.593,75.593
	c28.607,0,51.754-33.811,51.754-75.593S141.305,41.514,112.7,41.514z"/>
<path style="fill:#E89330;" d="M116.226,109.59c-7.655-3.591-9.751-5.748-9.751-10.033c0-3.446,2.804-6.25,6.25-6.25
	c3.446,0,6.25,2.804,6.25,6.25c0,4.586,3.717,8.303,8.303,8.303s8.303-3.716,8.303-8.303c0-9.672-6.048-17.939-14.553-21.272v-3.559
	c0-4.586-3.716-8.304-8.302-8.304c-4.586,0-8.303,3.716-8.304,8.302v3.561c-8.505,3.332-14.554,11.599-14.554,21.273
	c0,16.01,13.037,22.127,19.303,25.068c7.655,3.591,9.751,5.748,9.751,10.033c0,3.446-2.804,6.25-6.25,6.25s-6.25-2.804-6.25-6.25
	c0-4.586-3.717-8.303-8.303-8.303s-8.303,3.716-8.303,8.303c0,9.672,6.048,17.939,14.553,21.272v3.56
	c0,4.585,3.715,8.303,8.302,8.304c4.586,0,8.303-3.716,8.304-8.302v-3.561c8.505-3.332,14.554-11.599,14.554-21.273
	C135.529,118.647,122.491,112.529,116.226,109.59z"/>
<path style="fill:#111449;" d="M474.894,330.448L398.442,512c87.311,0,109.662-58.097,109.662-96.754v-84.798H474.894z"/>
<path style="fill:#27467A;" d="M288.78,330.448v84.798c0,38.657,22.351,96.754,109.662,96.754c60.875,0,76.451-58.097,76.451-96.754
	v-84.798H288.78z"/>
<g>
</g>
<g>
</g>
<g>
</g>
<g>
</g>
<g>
</g>
<g>
</g>
<g>
</g>
<g>
</g>
<g>
</g>
<g>
</g>
<g>
</g>
<g>
</g>
<g>
</g>
<g>
</g>
<g>
</g>
</svg>
