<?xml version="1.0" encoding="iso-8859-1"?>
<!-- Generator: Adobe Illustrator 19.0.0, SVG Export Plug-In . SVG Version: 6.00 Build 0)  -->
<svg version="1.1" id="Capa_1" xmlns="http://www.w3.org/2000/svg" xmlns:xlink="http://www.w3.org/1999/xlink" x="0px" y="0px"
	 viewBox="0 0 512 512" style="enable-background:new 0 0 512 512;" xml:space="preserve">
<path id="SVGCleanerId_0" style="fill:#E08344;" d="M386.976,109.44c-12.755,0-24.648,3.677-34.685,10.025
	c-8.009,5.066-18.497,3.357-24.517-3.963C310.74,94.785,284.915,81.572,256,81.572s-54.74,13.213-71.775,33.929
	c-6.02,7.32-16.507,9.029-24.517,3.963c-10.037-6.348-21.929-10.025-34.685-10.025C89.112,109.44,60,138.552,60,174.463v93.82h392
	v-93.82C452,138.552,422.888,109.44,386.976,109.44z"/>
<g>
	<path id="SVGCleanerId_0_1_" style="fill:#E08344;" d="M386.976,109.44c-12.755,0-24.648,3.677-34.685,10.025
		c-8.009,5.066-18.497,3.357-24.517-3.963C310.74,94.785,284.915,81.572,256,81.572s-54.74,13.213-71.775,33.929
		c-6.02,7.32-16.507,9.029-24.517,3.963c-10.037-6.348-21.929-10.025-34.685-10.025C89.112,109.44,60,138.552,60,174.463v93.82h392
		v-93.82C452,138.552,422.888,109.44,386.976,109.44z"/>
</g>
<path style="fill:#D6702B;" d="M386.976,109.439c-12.755,0-24.648,3.677-34.685,10.025c-8.009,5.066-18.497,3.357-24.517-3.963
	C310.74,94.785,284.915,81.572,256,81.572v186.711h196v-93.82C452,138.552,422.888,109.439,386.976,109.439z"/>
<path style="fill:#00C3FF;" d="M452,174.428L452,174.428c0,20.293-19.399,41.125-53.225,57.156
	c-37.885,17.955-88.59,27.844-142.775,27.844s-104.89-9.888-142.775-27.844C79.399,215.553,60,194.72,60,174.428l0,0
	c-16.867-1.774-32.351,9.472-35.881,26.061L0,313.85v1.578c0,33.17,28.354,63.203,79.839,84.565
	c47.299,19.626,109.86,30.435,176.161,30.435s128.862-10.809,176.161-30.435C483.646,378.63,512,348.598,512,315.428v-1.578
	l-24.119-113.361C484.351,183.9,468.867,172.653,452,174.428z"/>
<path style="fill:#00AAF0;" d="M487.881,200.489c-3.53-16.589-19.014-27.835-35.881-26.061c0,20.293-19.399,41.125-53.225,57.156
	c-37.885,17.955-88.59,27.844-142.775,27.844v171c66.301,0,128.862-10.809,176.161-30.435C483.646,378.63,512,348.598,512,315.428
	v-1.578L487.881,200.489z"/>
<g>
	<circle style="fill:#D6702B;" cx="157" cy="175.43" r="20"/>
	<circle style="fill:#D6702B;" cx="221" cy="209.43" r="20"/>
</g>
<g>
	<circle style="fill:#E08344;" cx="303" cy="152.43" r="20"/>
	<circle style="fill:#E08344;" cx="365" cy="190.43" r="20"/>
</g>
<g>
</g>
<g>
</g>
<g>
</g>
<g>
</g>
<g>
</g>
<g>
</g>
<g>
</g>
<g>
</g>
<g>
</g>
<g>
</g>
<g>
</g>
<g>
</g>
<g>
</g>
<g>
</g>
<g>
</g>
</svg>
