<?xml version="1.0" encoding="iso-8859-1"?>
<!-- Generator: Adobe Illustrator 19.0.0, SVG Export Plug-In . SVG Version: 6.00 Build 0)  -->
<svg version="1.1" id="Capa_1" xmlns="http://www.w3.org/2000/svg" xmlns:xlink="http://www.w3.org/1999/xlink" x="0px" y="0px"
	 viewBox="0 0 512 512" style="enable-background:new 0 0 512 512;" xml:space="preserve">
<path style="fill:#CCEFFF;" d="M170.44,436.56c-25.376,0-49.232-9.882-67.175-27.825c-37.041-37.04-37.041-97.309-0.001-134.35
	l171.12-171.12c17.943-17.943,41.8-27.825,67.175-27.825c25.376,0,49.232,9.882,67.175,27.825
	c37.041,37.04,37.041,97.309,0.001,134.35l-171.12,171.12C219.672,426.678,195.815,436.56,170.44,436.56z"/>
<path style="fill:#FFA5B9;" d="M140,150c-41.355,0-75-33.645-75-75S98.645,0,140,0s75,33.645,75,75S181.355,150,140,150z"/>
<rect x="80.002" y="59.997" transform="matrix(-0.7071 -0.7071 0.7071 -0.7071 185.967 227.023)" style="fill:#F4717A;" width="119.999" height="30"/>
<path style="fill:#FFA5B9;" d="M372,512c-41.355,0-75-33.645-75-75s33.645-75,75-75s75,33.645,75,75S413.355,512,372,512z"/>
<rect x="356.999" y="376.994" transform="matrix(-0.7071 -0.7071 0.7071 -0.7071 326.0398 1009.0378)" style="fill:#F4717A;" width="30" height="119.999"/>
<path style="fill:#ACE3FC;" d="M103.265,408.735L103.265,408.735c17.943,17.944,41.799,27.825,67.175,27.825
	c25.375,0,49.231-9.882,67.175-27.825l171.12-171.12c37.04-37.041,37.04-97.31-0.001-134.35L103.265,408.735z"/>
<path style="fill:#FF6849;" d="M408.734,103.265C390.792,85.322,366.936,75.44,341.56,75.44c-25.375,0-49.231,9.882-67.175,27.825
	l-85.56,85.56l134.351,134.351l85.56-85.56C445.775,200.574,445.775,140.305,408.734,103.265z"/>
<path style="fill:#FD4B2D;" d="M256,256l67.175,67.175l85.56-85.56c37.04-37.041,37.04-97.31-0.001-134.35L256,256z"/>
<g>
</g>
<g>
</g>
<g>
</g>
<g>
</g>
<g>
</g>
<g>
</g>
<g>
</g>
<g>
</g>
<g>
</g>
<g>
</g>
<g>
</g>
<g>
</g>
<g>
</g>
<g>
</g>
<g>
</g>
</svg>
