<?xml version="1.0" encoding="iso-8859-1"?>
<!-- Generator: Adobe Illustrator 19.0.0, SVG Export Plug-In . SVG Version: 6.00 Build 0)  -->
<svg version="1.1" id="Capa_1" xmlns="http://www.w3.org/2000/svg" xmlns:xlink="http://www.w3.org/1999/xlink" x="0px" y="0px"
	 viewBox="0 0 512 512" style="enable-background:new 0 0 512 512;" xml:space="preserve">
<rect x="128" y="482" style="fill:#E6E6E6;" width="256" height="30"/>
<rect x="256" y="482" style="fill:#D6D6D6;" width="128" height="30"/>
<path style="fill:#71CDF7;" d="M256,0C156.279,0,75.151,81.128,75.151,180.849c0,52.081,28.855,118.431,85.766,197.208
	c41.623,57.618,82.602,99.957,84.325,101.73L256,490.857l10.758-11.07c1.724-1.774,42.702-44.113,84.325-101.73
	c56.91-78.777,85.766-145.127,85.766-197.208C436.849,81.128,355.722,0,256,0z"/>
<path style="fill:#4EC1F5;" d="M256,0v490.857l10.758-11.07c1.724-1.774,42.702-44.113,84.325-101.73
	c56.91-78.777,85.766-145.127,85.766-197.208C436.849,81.128,355.722,0,256,0z"/>
<polygon style="fill:#FFF8D5;" points="256,75.133 289.886,139.824 361.882,152.061 310.827,204.278 321.438,276.532 256,244.113 
	190.562,276.532 201.173,204.278 150.118,152.061 222.115,139.824 "/>
<polygon style="fill:#FFE97F;" points="361.882,152.061 289.886,139.824 256,75.133 256,244.113 321.438,276.532 310.827,204.278 
	"/>
<polygon style="fill:#FCB72C;" points="256,210.633 228.565,224.225 233.014,193.933 211.609,172.04 241.794,166.911 256,139.789 
	270.207,166.911 300.392,172.04 278.987,193.933 283.436,224.225 "/>
<polygon style="fill:#FF9900;" points="256,210.633 256,139.789 270.207,166.911 300.392,172.04 278.987,193.933 283.436,224.225 
	"/>
<g>
</g>
<g>
</g>
<g>
</g>
<g>
</g>
<g>
</g>
<g>
</g>
<g>
</g>
<g>
</g>
<g>
</g>
<g>
</g>
<g>
</g>
<g>
</g>
<g>
</g>
<g>
</g>
<g>
</g>
</svg>
