<?xml version="1.0" encoding="iso-8859-1"?>
<!-- Generator: Adobe Illustrator 19.0.0, SVG Export Plug-In . SVG Version: 6.00 Build 0)  -->
<svg version="1.1" id="Capa_1" xmlns="http://www.w3.org/2000/svg" xmlns:xlink="http://www.w3.org/1999/xlink" x="0px" y="0px"
	 viewBox="0 0 59 59" style="enable-background:new 0 0 59 59;" xml:space="preserve">
<path style="fill:#546A79;" d="M45.5,6.266L32.5,4v19h10.057C42.807,17.349,45.5,6.266,45.5,6.266z"/>
<path style="fill:#546A79;" d="M13.5,6.266c0,0,2.693,11.083,2.943,16.734H26.5V4L13.5,6.266z"/>
<path style="fill:#38454F;" d="M42.5,26.5c0-0.845,0.02-2.679,0.057-3.5H16.443c0.036,0.821,0.057,2.655,0.057,3.5
	c0,4.442-0.515,7.13-1.404,9.65c-1.082,3.066-1.599,6.308-1.34,9.548c0.047,0.587,0.1,1.058,0.159,1.303
	C15.564,53.855,21.942,59,29.5,59c7.559,0,13.937-5.146,15.586-12c0.059-0.245,0.112-0.716,0.159-1.303
	c0.258-3.24-0.259-6.482-1.34-9.547C43.015,33.63,42.5,30.942,42.5,26.5z"/>
<rect x="26.5" y="12" style="fill:#38454F;" width="6" height="1"/>
<rect x="26.5" y="8" style="fill:#38454F;" width="6" height="2"/>
<rect x="26.5" y="15" style="fill:#38454F;" width="6" height="1"/>
<rect x="26.5" y="18" style="fill:#38454F;" width="6" height="5.673"/>
<rect x="26.5" y="10" style="fill:#6C797A;" width="6" height="2"/>
<rect x="26.5" y="13" style="fill:#6C797A;" width="6" height="2"/>
<rect x="26.5" y="16" style="fill:#6C797A;" width="6" height="2"/>
<line style="fill:none;stroke:#38454F;stroke-width:2;stroke-linecap:round;stroke-linejoin:round;stroke-miterlimit:10;" x1="29.5" y1="8" x2="29.5" y2="1"/>
<path style="fill:#546A79;" d="M29.5,30c-0.553,0-1-0.447-1-1v-6c0-0.553,0.447-1,1-1s1,0.447,1,1v6C30.5,29.553,30.053,30,29.5,30z
	"/>
<circle style="fill:#43B05C;" cx="29.5" cy="48" r="4"/>
<g>
</g>
<g>
</g>
<g>
</g>
<g>
</g>
<g>
</g>
<g>
</g>
<g>
</g>
<g>
</g>
<g>
</g>
<g>
</g>
<g>
</g>
<g>
</g>
<g>
</g>
<g>
</g>
<g>
</g>
</svg>
