<?xml version="1.0" encoding="iso-8859-1"?>
<!-- Generator: Adobe Illustrator 19.0.0, SVG Export Plug-In . SVG Version: 6.00 Build 0)  -->
<svg version="1.1" id="Capa_1" xmlns="http://www.w3.org/2000/svg" xmlns:xlink="http://www.w3.org/1999/xlink" x="0px" y="0px"
	 viewBox="0 0 512 512" style="enable-background:new 0 0 512 512;" xml:space="preserve">
<polygon style="fill:#FFDB2D;" points="324.333,308.167 324.333,253.834 281.667,253.834 281.667,110.833 230.333,110.833 
	230.333,253.834 187.667,253.834 187.667,308.167 "/>
<polygon style="fill:#FCB72C;" points="281.667,253.834 281.667,110.833 256,110.833 256,308.167 324.333,308.167 324.333,253.834 
	"/>
<rect y="403.02" style="fill:#95DAF9;" width="190.67" height="100.48"/>
<rect x="85.33" y="403.02" style="fill:#4EC1F5;" width="105.33" height="100.48"/>
<rect x="321.33" y="357.12" style="fill:#FCB72C;" width="190.67" height="146.38"/>
<rect x="428" y="357.12" style="fill:#FF9900;" width="84" height="146.38"/>
<rect x="160.67" y="296.5" style="fill:#FD0023;" width="190.67" height="207"/>
<path style="fill:#FFDB2D;" d="M192.301,140.833h-15c-38.948,0-70.635-31.687-70.635-70.635V36.654h85.635V140.833z M136.667,66.654
	v3.545c0,17.111,10.631,31.786,25.635,37.766V66.654H136.667z"/>
<path style="fill:#FCB72C;" d="M334.698,140.833h-15V36.654h85.635v33.545C405.333,109.147,373.647,140.833,334.698,140.833z
	 M349.698,66.654v41.311c15.004-5.98,25.635-20.655,25.635-37.766v-3.545H349.698z"/>
<path style="fill:#FFE97F;" d="M150.148,8.5v82.728c0,46.067,37.479,83.546,83.546,83.546h44.611
	c46.068,0,83.546-37.479,83.546-83.546V8.5H150.148z"/>
<path style="fill:#FFDB2D;" d="M256,8.5v166.273h22.305c46.068,0,83.546-37.479,83.546-83.546V8.5H256z"/>
<rect x="256" y="296.5" style="fill:#DC001E;" width="95.33" height="207"/>
<g>
</g>
<g>
</g>
<g>
</g>
<g>
</g>
<g>
</g>
<g>
</g>
<g>
</g>
<g>
</g>
<g>
</g>
<g>
</g>
<g>
</g>
<g>
</g>
<g>
</g>
<g>
</g>
<g>
</g>
</svg>
