<?xml version="1.0" encoding="iso-8859-1"?>
<!-- Generator: Adobe Illustrator 18.0.0, SVG Export Plug-In . SVG Version: 6.00 Build 0)  -->
<!DOCTYPE svg PUBLIC "-//W3C//DTD SVG 1.1//EN" "http://www.w3.org/Graphics/SVG/1.1/DTD/svg11.dtd">
<svg version="1.1" id="Capa_1" xmlns="http://www.w3.org/2000/svg" xmlns:xlink="http://www.w3.org/1999/xlink" x="0px" y="0px"
	 viewBox="0 0 58 58" style="enable-background:new 0 0 58 58;" xml:space="preserve">
<g>
	<path style="fill:#3C494E;" d="M36.267,58H7.733C5.119,58,3,55.881,3,53.267V4.733C3,2.119,5.119,0,7.733,0h28.534
		C38.881,0,41,2.119,41,4.733v48.534C41,55.881,38.881,58,36.267,58z"/>
	<path style="fill:#556080;" d="M52.797,40H41V8h11.797C54.013,8,55,8.987,55,10.203v27.593C55,39.013,54.013,40,52.797,40z"/>
	<rect x="45" y="8" style="fill:#3C494E;" width="4" height="32"/>
	<circle style="fill:#A4E869;" cx="52" cy="13" r="1"/>
	<circle style="fill:#ED7161;" cx="52" cy="18" r="1"/>
	<rect x="8" y="9" style="fill:#B1D194;" width="28" height="11"/>
	<path style="fill:#8697CB;" d="M13,6H7C6.448,6,6,5.553,6,5s0.448-1,1-1h6c0.552,0,1,0.447,1,1S13.552,6,13,6z"/>
	<rect x="9" y="24" style="fill:#FDFDFD;" width="6" height="5"/>
	<rect x="19" y="24" style="fill:#FDFDFD;" width="6" height="5"/>
	<rect x="29" y="24" style="fill:#F65246;" width="6" height="5"/>
	<rect x="9" y="32" style="fill:#FDFDFD;" width="6" height="5"/>
	<rect x="19" y="32" style="fill:#FDFDFD;" width="6" height="5"/>
	<rect x="29" y="32" style="fill:#F5D758;" width="6" height="5"/>
	<rect x="9" y="40" style="fill:#FDFDFD;" width="6" height="5"/>
	<rect x="19" y="40" style="fill:#FDFDFD;" width="6" height="5"/>
	<rect x="9" y="48" style="fill:#FDFDFD;" width="6" height="5"/>
	<rect x="19" y="48" style="fill:#FDFDFD;" width="6" height="5"/>
	<rect x="29" y="40" style="fill:#1FD483;" width="6" height="14"/>
	<g>
		<path style="fill:#70845A;" d="M19.382,11.077c-0.244-0.101-0.52-0.101-0.764,0c-0.123,0.051-0.233,0.124-0.326,0.217
			l-0.999,0.999c-0.391,0.391-0.391,1.023,0,1.414C17.488,13.902,17.744,14,18,14v3c0,0.553,0.448,1,1,1s1-0.447,1-1v-5
			c0-0.13-0.027-0.26-0.077-0.382C19.822,11.373,19.627,11.178,19.382,11.077z"/>
		<path style="fill:#70845A;" d="M28.382,11.077c-0.244-0.101-0.52-0.101-0.764,0c-0.123,0.051-0.233,0.124-0.326,0.217
			l-0.999,0.999c-0.391,0.391-0.391,1.023,0,1.414C26.488,13.902,26.744,14,27,14v3c0,0.553,0.448,1,1,1s1-0.447,1-1v-5
			c0-0.13-0.027-0.26-0.077-0.382C28.822,11.373,28.627,11.178,28.382,11.077z"/>
		<path style="fill:#70845A;" d="M23.293,15.293l-1,1c-0.391,0.391-0.391,1.023,0,1.414C22.488,17.902,22.744,18,23,18
			s0.512-0.098,0.707-0.293l1-1c0.391-0.391,0.391-1.023,0-1.414S23.684,14.902,23.293,15.293z"/>
		<path style="fill:#70845A;" d="M32.923,11.618c-0.101-0.245-0.296-0.44-0.541-0.541c-0.244-0.101-0.52-0.101-0.764,0
			c-0.123,0.051-0.233,0.124-0.326,0.217l-0.999,0.999c-0.391,0.391-0.391,1.023,0,1.414C30.488,13.902,30.744,14,31,14v3
			c0,0.553,0.448,1,1,1s1-0.447,1-1v-5C33,11.87,32.973,11.74,32.923,11.618z"/>
	</g>
</g>
<g>
</g>
<g>
</g>
<g>
</g>
<g>
</g>
<g>
</g>
<g>
</g>
<g>
</g>
<g>
</g>
<g>
</g>
<g>
</g>
<g>
</g>
<g>
</g>
<g>
</g>
<g>
</g>
<g>
</g>
</svg>
