<?xml version="1.0" encoding="iso-8859-1"?>
<!-- Generator: Adobe Illustrator 18.0.0, SVG Export Plug-In . SVG Version: 6.00 Build 0)  -->
<!DOCTYPE svg PUBLIC "-//W3C//DTD SVG 1.1//EN" "http://www.w3.org/Graphics/SVG/1.1/DTD/svg11.dtd">
<svg version="1.1" id="Capa_1" xmlns="http://www.w3.org/2000/svg" xmlns:xlink="http://www.w3.org/1999/xlink" x="0px" y="0px"
	 viewBox="0 0 60 60" style="enable-background:new 0 0 60 60;" xml:space="preserve">
<g>
	<rect x="3" y="6.5" style="fill:#ECF0F1;" width="54" height="42"/>
	<rect x="1" y="0.5" style="fill:#556080;" width="58" height="6"/>
	<rect x="12" y="24.5" style="fill:#71C285;" width="6" height="16"/>
	<rect x="24" y="28.5" style="fill:#71C285;" width="6" height="12"/>
	<rect x="30" y="22.5" style="fill:#26B99A;" width="6" height="18"/>
	<rect x="36" y="15.5" style="fill:#71C285;" width="6" height="25"/>
	<rect x="42" y="18.5" style="fill:#26B99A;" width="6" height="22"/>
	<rect x="18" y="18.5" style="fill:#F3D55B;" width="6" height="22"/>
	<path style="fill:#556080;" d="M30,52.5c-0.552,0-1-0.447-1-1v-3c0-0.553,0.448-1,1-1s1,0.447,1,1v3C31,52.053,30.552,52.5,30,52.5
		z"/>
	<path style="fill:#556080;" d="M30,59.5c-2.206,0-4-1.794-4-4s1.794-4,4-4s4,1.794,4,4S32.206,59.5,30,59.5z M30,53.5
		c-1.103,0-2,0.897-2,2s0.897,2,2,2s2-0.897,2-2S31.103,53.5,30,53.5z"/>
	<path style="fill:#556080;" d="M59,49.5H1c-0.552,0-1-0.447-1-1s0.448-1,1-1h58c0.552,0,1,0.447,1,1S59.552,49.5,59,49.5z"/>
	<path style="fill:#FFFFFF;" d="M52,41.5H8c-0.552,0-1-0.447-1-1s0.448-1,1-1h44c0.552,0,1,0.447,1,1S52.552,41.5,52,41.5z"/>
</g>
<g>
</g>
<g>
</g>
<g>
</g>
<g>
</g>
<g>
</g>
<g>
</g>
<g>
</g>
<g>
</g>
<g>
</g>
<g>
</g>
<g>
</g>
<g>
</g>
<g>
</g>
<g>
</g>
<g>
</g>
</svg>
