<?xml version="1.0" encoding="iso-8859-1"?>
<!-- Generator: Adobe Illustrator 18.0.0, SVG Export Plug-In . SVG Version: 6.00 Build 0)  -->
<!DOCTYPE svg PUBLIC "-//W3C//DTD SVG 1.1//EN" "http://www.w3.org/Graphics/SVG/1.1/DTD/svg11.dtd">
<svg version="1.1" id="Capa_1" xmlns="http://www.w3.org/2000/svg" xmlns:xlink="http://www.w3.org/1999/xlink" x="0px" y="0px"
	 viewBox="0 0 59 59" style="enable-background:new 0 0 59 59;" xml:space="preserve">
<g>
	<path style="fill:#E8D5B2;" d="M45.94,5H13.06c-0.862,0-1.56,0.699-1.56,1.56V57.44c0,0.862,0.699,1.56,1.56,1.56H45.94
		c0.862,0,1.56-0.699,1.56-1.56V6.56C47.5,5.699,46.801,5,45.94,5z M29.5,17c-2.209,0-4-1.791-4-4c0-2.209,1.791-4,4-4s4,1.791,4,4
		C33.5,15.209,31.709,17,29.5,17z"/>
	<path style="fill:#46B29D;" d="M32.5,30c0,0.553,0.448,1,1,1s1-0.447,1-1c0-2.414-1.721-4.434-4-4.899V24c0-0.553-0.448-1-1-1
		s-1,0.447-1,1v1.104c-1.091,0.222-2.085,0.801-2.818,1.668c-0.611,0.722-0.894,1.646-0.794,2.603
		c0.102,0.979,0.606,1.887,1.383,2.491L28.5,33.6v5.438c-1.161-0.414-2-1.514-2-2.816c0-0.553-0.448-1-1-1s-1,0.447-1,1
		c0,2.414,1.721,4.434,4,4.899V42c0,0.553,0.448,1,1,1s1-0.447,1-1v-0.882c1.091-0.222,2.085-0.801,2.819-1.668
		c0.611-0.724,0.893-1.648,0.793-2.605c-0.103-0.978-0.606-1.885-1.383-2.488L30.5,32.623v-5.438C31.661,27.598,32.5,28.698,32.5,30
		z M31.501,35.935c0.349,0.271,0.576,0.68,0.622,1.118c0.043,0.41-0.075,0.803-0.331,1.105c-0.348,0.411-0.798,0.699-1.292,0.875
		v-3.878L31.501,35.935z M27.499,30.288c-0.35-0.272-0.576-0.681-0.622-1.12c-0.042-0.409,0.075-0.801,0.331-1.104
		c0.348-0.411,0.798-0.699,1.292-0.875v3.877L27.499,30.288z"/>
	<path style="fill:#CBB292;" d="M37.5,47h-16c-0.552,0-1-0.447-1-1s0.448-1,1-1h16c0.552,0,1,0.447,1,1S38.052,47,37.5,47z"/>
	<path style="fill:#CBB292;" d="M37.5,50h-16c-0.552,0-1-0.447-1-1s0.448-1,1-1h16c0.552,0,1,0.447,1,1S38.052,50,37.5,50z"/>
	<path style="fill:#CBB292;" d="M29.5,5c-4.418,0-8,3.582-8,8s3.582,8,8,8s8-3.582,8-8S33.918,5,29.5,5z M29.5,17
		c-2.209,0-4-1.791-4-4c0-2.209,1.791-4,4-4s4,1.791,4,4C33.5,15.209,31.709,17,29.5,17z"/>
	<path style="fill:#D75A4A;" d="M29.5,14c-0.553,0-1-0.447-1-1V1c0-0.553,0.447-1,1-1s1,0.447,1,1v12C30.5,13.553,30.053,14,29.5,14
		z"/>
	<path style="fill:#CBB292;" d="M11.5,53v4.44c0,0.862,0.699,1.56,1.56,1.56H45.94c0.862,0,1.56-0.699,1.56-1.56V53H11.5z"/>
</g>
<g>
</g>
<g>
</g>
<g>
</g>
<g>
</g>
<g>
</g>
<g>
</g>
<g>
</g>
<g>
</g>
<g>
</g>
<g>
</g>
<g>
</g>
<g>
</g>
<g>
</g>
<g>
</g>
<g>
</g>
</svg>
