<?xml version="1.0" encoding="iso-8859-1"?>
<!-- Generator: Adobe Illustrator 19.0.0, SVG Export Plug-In . SVG Version: 6.00 Build 0)  -->
<svg version="1.1" id="Capa_1" xmlns="http://www.w3.org/2000/svg" xmlns:xlink="http://www.w3.org/1999/xlink" x="0px" y="0px"
	 viewBox="0 0 400 400" style="enable-background:new 0 0 400 400;" xml:space="preserve">
<g id="XMLID_852_">
	<rect id="XMLID_880_" y="265" style="fill:#818085;" width="40" height="30"/>
	<rect id="XMLID_881_" x="360" y="265" style="fill:#818085;" width="40" height="30"/>
	<path id="XMLID_882_" style="fill:#CDCDD0;" d="M155.01,115c26.77,14.311,44.99,42.523,44.99,75s-18.22,60.689-44.99,75H230V115
		H155.01z"/>
	<path id="XMLID_883_" style="fill:#CDCDD0;" d="M30,190c0-32.477,18.22-60.689,44.99-75H0v150h40h34.99
		C48.22,250.689,30,222.477,30,190z"/>
	<path id="XMLID_884_" style="fill:#ACABB1;" d="M230,115v150h130h40V115H230z M260,145h110v30H260V145z M260,205h110v30H260V205z"
		/>
	<path id="XMLID_888_" style="fill:#565659;" d="M200,190c0-32.477-18.22-60.689-44.99-75c-11.925-6.375-25.542-10-40.01-10
		s-28.085,3.625-40.01,10C48.22,129.311,30,157.523,30,190s18.22,60.689,44.99,75c11.925,6.375,25.543,10,40.01,10
		s28.085-3.625,40.01-10C181.78,250.689,200,222.477,200,190z M115,245c-30.376,0-55-24.624-55-55s24.624-55,55-55
		c30.376,0,55,24.624,55,55S145.376,245,115,245z"/>
	<circle id="XMLID_891_" style="fill:#2B2B2C;" cx="115" cy="190" r="55"/>
	<rect id="XMLID_892_" x="260" y="145" style="fill:#FFFFFF;" width="110" height="30"/>
	<rect id="XMLID_893_" x="260" y="205" style="fill:#FFFFFF;" width="110" height="30"/>
</g>
<g>
</g>
<g>
</g>
<g>
</g>
<g>
</g>
<g>
</g>
<g>
</g>
<g>
</g>
<g>
</g>
<g>
</g>
<g>
</g>
<g>
</g>
<g>
</g>
<g>
</g>
<g>
</g>
<g>
</g>
</svg>
