<?xml version="1.0" encoding="iso-8859-1"?>
<!-- Generator: Adobe Illustrator 19.0.0, SVG Export Plug-In . SVG Version: 6.00 Build 0)  -->
<svg version="1.1" id="Capa_1" xmlns="http://www.w3.org/2000/svg" xmlns:xlink="http://www.w3.org/1999/xlink" x="0px" y="0px"
	 viewBox="0 0 512 512" style="enable-background:new 0 0 512 512;" xml:space="preserve">
<polygon style="fill:#ADACB2;" points="357.84,142.11 330.62,154.72 272.85,30 271,30 271,131 241,131 241,30 239.15,30 
	181.38,154.72 154.16,142.11 219.98,0 292.02,0 "/>
<polygon style="fill:#8A8891;" points="271,131 256,131 256,0 292.02,0 357.84,142.11 330.62,154.72 272.85,30 271,30 "/>
<path style="fill:#FF3100;" d="M373.62,180.93v272.14c0,32.49-26.43,58.93-58.93,58.93H197.31c-32.5,0-58.93-26.44-58.93-58.93
	V180.93c0-16.06,6.46-30.64,16.92-41.28c10.52-10.72,25.1-17.43,41.23-17.64c0.26-0.01,0.52-0.01,0.78-0.01h117.38
	c0.26,0,0.52,0,0.78,0.01c16.13,0.21,30.71,6.92,41.23,17.64C367.16,150.29,373.62,164.87,373.62,180.93z"/>
<path style="fill:#C91C00;" d="M373.62,180.93v272.14c0,32.49-26.43,58.93-58.93,58.93H256V122h58.69c0.26,0,0.52,0,0.78,0.01
	c16.13,0.21,30.71,6.92,41.23,17.64C367.16,150.29,373.62,164.87,373.62,180.93z"/>
<g>
	<rect x="138.38" y="188.35" style="fill:#FFA920;" width="235.24" height="30"/>
	<rect x="138.38" y="415.65" style="fill:#FFA920;" width="235.24" height="30"/>
</g>
<g>
	<rect x="256" y="188.35" style="fill:#FF8800;" width="117.62" height="30"/>
	<rect x="256" y="415.65" style="fill:#FF8800;" width="117.62" height="30"/>
</g>
<g>
</g>
<g>
</g>
<g>
</g>
<g>
</g>
<g>
</g>
<g>
</g>
<g>
</g>
<g>
</g>
<g>
</g>
<g>
</g>
<g>
</g>
<g>
</g>
<g>
</g>
<g>
</g>
<g>
</g>
</svg>
