<?xml version="1.0" encoding="iso-8859-1"?>
<!-- Generator: Adobe Illustrator 19.0.0, SVG Export Plug-In . SVG Version: 6.00 Build 0)  -->
<svg version="1.1" id="Layer_1" xmlns="http://www.w3.org/2000/svg" xmlns:xlink="http://www.w3.org/1999/xlink" x="0px" y="0px"
	 viewBox="0 0 512 512" style="enable-background:new 0 0 512 512;" xml:space="preserve">
<polygon style="fill:#367596;" points="512,25.319 512,92.835 455.736,115.341 478.242,25.319 "/>
<polygon style="fill:#5195AF;" points="478.242,25.319 478.242,115.341 306.637,115.341 329.143,25.319 "/>
<polygon style="fill:#27467A;" points="0,25.319 0,92.835 33.758,115.341 329.143,115.341 329.143,25.319 "/>
<polygon style="fill:#A0F6FA;" points="512,92.835 512,486.681 478.242,486.681 433.231,289.758 478.242,92.835 "/>
<g>
	<rect y="92.835" style="fill:#D0FBFD;" width="478.242" height="393.846"/>
	<circle style="fill:#D0FBFD;" cx="403.692" cy="59.077" r="11.253"/>
	<circle style="fill:#D0FBFD;" cx="357.556" cy="59.077" r="11.253"/>
</g>
<circle style="fill:#78E3EC;" cx="449.829" cy="59.077" r="11.253"/>
<path style="fill:#E89330;" d="M179.491,137.839h-56.23c-4.661,0-8.44,3.778-8.44,8.44c0,53.379,35.874,100.665,87.237,114.991
	l4.535-16.259c-41.37-11.539-71.034-47.984-74.544-90.292h57.89L179.491,137.839z"/>
<path style="fill:#D97F13;" d="M332.51,137.839h56.23c4.661,0,8.44,3.778,8.44,8.44c0,53.379-35.874,100.665-87.237,114.991
	l-4.535-16.259c41.37-11.539,71.034-47.984,74.544-90.292h-57.89L332.51,137.839z"/>
<rect x="247.56" y="275.602" style="fill:#F3A933;" width="16.879" height="105.112"/>
<polygon style="fill:#C20035;" points="336.93,358.197 336.93,441.67 314.424,441.67 292.849,399.473 314.424,358.197 "/>
<rect x="175.07" y="358.197" style="fill:#E02E00;" width="139.354" height="83.473"/>
<path style="fill:#D97F13;" d="M298.751,137.839L256,298.104c31.543,0,57.605-23.407,61.801-53.796l14.708-106.47h-33.758V137.839z"
	/>
<path style="fill:#F3A933;" d="M179.491,137.839L194.2,244.31c4.196,30.389,30.258,53.796,61.801,53.796
	c17.625,0,32.187-23.407,34.532-53.796l8.219-106.47C298.753,137.839,179.491,137.839,179.491,137.839z"/>
<path style="fill:#FFCD60;" d="M284.41,407.912h-56.821c-4.661,0-8.44-3.778-8.44-8.44s3.779-8.44,8.44-8.44h56.821
	c4.661,0,8.44,3.778,8.44,8.44S289.071,407.912,284.41,407.912z"/>
<g>
</g>
<g>
</g>
<g>
</g>
<g>
</g>
<g>
</g>
<g>
</g>
<g>
</g>
<g>
</g>
<g>
</g>
<g>
</g>
<g>
</g>
<g>
</g>
<g>
</g>
<g>
</g>
<g>
</g>
</svg>
