<?xml version="1.0" encoding="iso-8859-1"?>
<!-- Generator: Adobe Illustrator 19.0.0, SVG Export Plug-In . SVG Version: 6.00 Build 0)  -->
<svg version="1.1" id="Capa_1" xmlns="http://www.w3.org/2000/svg" xmlns:xlink="http://www.w3.org/1999/xlink" x="0px" y="0px"
	 viewBox="0 0 511.998 511.998" style="enable-background:new 0 0 511.998 511.998;" xml:space="preserve">
<path style="fill:#6B717F;" d="M281.992,511.995H230c-7.786,0-14.098-6.312-14.098-14.098V342.569
	c0-7.786,6.312-14.098,14.098-14.098h51.992c7.786,0,14.098,6.312,14.098,14.098v155.327
	C296.09,505.683,289.778,511.995,281.992,511.995z"/>
<path style="fill:#5A606D;" d="M296.089,342.565v155.333c0,7.783-6.307,14.1-14.101,14.1h-19.262c7.783,0,14.09-6.317,14.09-14.1
	V342.565c0-7.783-6.307-14.09-14.09-14.09h19.262C289.781,328.475,296.089,334.782,296.089,342.565z"/>
<rect x="234.949" y="285.55" style="fill:#E4E8EB;" width="42.09" height="42.09"/>
<rect x="259.109" y="285.55" style="fill:#D6D6D6;" width="17.931" height="42.09"/>
<circle style="fill:#F5C57B;" cx="255.999" cy="146.65" r="146.65"/>
<path style="fill:#E5B473;" d="M402.647,146.645c0,80.99-65.661,146.651-146.651,146.651c-6.803,0-13.491-0.465-20.046-1.363
	c71.504-9.775,126.595-71.101,126.595-145.289S307.454,11.131,235.95,1.366c6.555-0.898,13.244-1.363,20.046-1.363
	C336.986,0.004,402.647,65.654,402.647,146.645z"/>
<circle style="fill:#BBF3F2;" cx="255.999" cy="146.65" r="108.6"/>
<path style="fill:#9AD8D5;" d="M364.588,146.645c0,59.984-48.619,108.603-108.592,108.603c-5.079,0-10.075-0.351-14.968-1.032
	c52.892-7.288,93.625-52.665,93.625-107.57c0-54.895-40.732-100.272-93.625-107.56c4.893-0.681,9.889-1.032,14.968-1.032
	C315.97,38.052,364.588,86.671,364.588,146.645z"/>
<path style="fill:#94D3D0;" d="M316.905,108.875c-2.408,0-4.772-1.157-6.222-3.303c-12.302-18.209-32.746-29.08-54.688-29.08
	c-4.142,0-7.5-3.357-7.5-7.5s3.358-7.5,7.5-7.5c26.932,0,52.022,13.34,67.117,35.684c2.318,3.432,1.416,8.094-2.017,10.413
	C319.811,108.458,318.35,108.875,316.905,108.875z"/>
<g>
</g>
<g>
</g>
<g>
</g>
<g>
</g>
<g>
</g>
<g>
</g>
<g>
</g>
<g>
</g>
<g>
</g>
<g>
</g>
<g>
</g>
<g>
</g>
<g>
</g>
<g>
</g>
<g>
</g>
</svg>
