<?xml version="1.0" encoding="iso-8859-1"?>
<!-- Generator: Adobe Illustrator 19.0.0, SVG Export Plug-In . SVG Version: 6.00 Build 0)  -->
<svg version="1.1" id="Capa_1" xmlns="http://www.w3.org/2000/svg" xmlns:xlink="http://www.w3.org/1999/xlink" x="0px" y="0px"
	 viewBox="0 0 512 512" style="enable-background:new 0 0 512 512;" xml:space="preserve">
<path style="fill:#B7E4F8;" d="M279.874,512H50.785v-57.232h229.089V512z"/>
<path style="fill:#265D77;" d="M279.874,465.138H50.785V230.826h229.089V465.138z"/>
<path style="fill:#132F3B;" d="M279.874,465.138H165.329V230.826h114.544v234.312H279.874z"/>
<path style="fill:#6FC8F1;" d="M279.874,512H165.329v-46.862h114.544V512H279.874z"/>
<polygon style="fill:#60DD4D;" points="165.079,381.663 124.059,349.088 142.715,325.595 161.931,340.854 193.918,306.219 
	215.957,326.574 "/>
<g>
	<path style="fill:#B7E4F8;" d="M186.67,64.945C202.417,43.757,227.628,30,255.995,30c28.368,0,53.579,13.757,69.326,34.945
		l23.227-19.004C327.278,18.042,293.707,0,255.995,0c-37.711,0-71.283,18.042-92.553,45.941L186.67,64.945z"/>
	<path style="fill:#B7E4F8;" d="M307.233,79.745c-11.439-15.973-30.137-26.412-51.238-26.412s-39.798,10.438-51.237,26.412
		l23.297,19.061c5.846-9.285,16.181-15.473,27.941-15.473c11.759,0,22.095,6.188,27.941,15.473L307.233,79.745z"/>
</g>
<g>
	<path style="fill:#6FC8F1;" d="M255.996,53.333v30c11.759,0,22.095,6.188,27.941,15.473l23.297-19.061
		C295.794,63.772,277.096,53.333,255.996,53.333z"/>
	<path style="fill:#6FC8F1;" d="M255.996,0v30c28.368,0,53.579,13.757,69.326,34.945l23.227-19.004
		C327.278,18.042,293.707,0,255.996,0z"/>
</g>
<path style="fill:#B7E4F8;" d="M461.215,512h-115.35v-36.294h115.35V512z"/>
<path style="fill:#265D77;" d="M461.215,482.282h-115.35v-148.59h115.35V482.282z"/>
<path style="fill:#132F3B;" d="M461.215,482.282H403.54v-148.59h57.675V482.282z"/>
<path style="fill:#6FC8F1;" d="M461.215,512H403.54v-29.718h57.675V512z"/>
<polygon style="fill:#56C745;" points="165.329,381.392 215.957,326.574 193.918,306.219 165.329,337.174 "/>
<polygon style="fill:#FF4F19;" points="419.242,298.667 389.242,298.667 389.242,168.667 180.084,168.667 180.084,195.667 
	150.084,195.667 150.084,138.667 419.242,138.667 "/>
<polygon style="fill:#BF3B13;" points="255.996,138.667 255.996,168.667 389.242,168.667 389.242,298.667 419.242,298.667 
	419.242,138.667 "/>
<g>
</g>
<g>
</g>
<g>
</g>
<g>
</g>
<g>
</g>
<g>
</g>
<g>
</g>
<g>
</g>
<g>
</g>
<g>
</g>
<g>
</g>
<g>
</g>
<g>
</g>
<g>
</g>
<g>
</g>
</svg>
