<?xml version="1.0" encoding="iso-8859-1"?>
<!-- Generator: Adobe Illustrator 19.0.0, SVG Export Plug-In . SVG Version: 6.00 Build 0)  -->
<svg version="1.1" id="Capa_1" xmlns="http://www.w3.org/2000/svg" xmlns:xlink="http://www.w3.org/1999/xlink" x="0px" y="0px"
	 viewBox="0 0 512 512" style="enable-background:new 0 0 512 512;" xml:space="preserve">
<path style="fill:#8E8E8E;" d="M253.254,91.149c-90.733,0-164.548,73.815-164.548,164.547c0,90.733,73.816,164.548,164.548,164.548
	s164.548-73.816,164.548-164.548C417.803,164.964,343.986,91.149,253.254,91.149z"/>
<path style="fill:#5B5B5B;" d="M253.254,420.245c90.733,0,164.548-73.816,164.548-164.548S343.985,91.15,253.254,91.15"/>
<path style="fill:#EFEFEF;" d="M0,131.713l0.143,136.682h38.279v165.794h30.724V77.811l-15.38,0.018
	C24.088,77.863-0.031,102.036,0,131.713z"/>
<polygon style="fill:#D6D6D6;" points="512,77.829 481.276,77.829 481.276,164.655 458.718,164.655 458.718,77.829 427.995,77.829 
	427.995,215.114 454.635,215.114 454.635,434.188 485.359,434.188 485.359,215.114 512,215.114 "/>
<path style="fill:#EFEFEF;" d="M253.254,366.964c-61.354,0-111.267-49.914-111.267-111.267S191.901,144.43,253.254,144.43
	s111.267,49.913,111.267,111.266S314.607,366.964,253.254,366.964z"/>
<path style="fill:#E6E6E6;" d="M253.254,144.429c61.354,0,111.266,49.914,111.266,111.266s-49.914,111.267-111.266,111.267"/>
<g>
</g>
<g>
</g>
<g>
</g>
<g>
</g>
<g>
</g>
<g>
</g>
<g>
</g>
<g>
</g>
<g>
</g>
<g>
</g>
<g>
</g>
<g>
</g>
<g>
</g>
<g>
</g>
<g>
</g>
</svg>
