<?xml version="1.0" encoding="iso-8859-1"?>
<!-- Generator: Adobe Illustrator 19.0.0, SVG Export Plug-In . SVG Version: 6.00 Build 0)  -->
<svg version="1.1" id="Capa_1" xmlns="http://www.w3.org/2000/svg" xmlns:xlink="http://www.w3.org/1999/xlink" x="0px" y="0px"
	 viewBox="0 0 512 512" style="enable-background:new 0 0 512 512;" xml:space="preserve">
<rect x="111.26" y="95.5" style="fill:#FFA920;" width="30" height="210.03"/>
<rect x="126.26" y="95.5" style="fill:#FF8800;" width="15" height="210.03"/>
<path style="fill:#6D76E6;" d="M126.26,290.535c-55,0-99.75,44.74-99.75,99.74s44.75,99.75,99.75,99.75s99.74-44.75,99.74-99.75
	S181.26,290.535,126.26,290.535z M126.26,460.025c-38.46,0-69.75-31.29-69.75-69.75c0-38.45,31.29-69.74,69.75-69.74
	c38.45,0,69.74,31.29,69.74,69.74C196,428.735,164.71,460.025,126.26,460.025z"/>
<path style="fill:#495AE3;" d="M226,390.275c0,55-44.74,99.75-99.74,99.75v-30c38.45,0,69.74-31.29,69.74-69.75
	c0-38.45-31.29-69.74-69.74-69.74v-30C181.26,290.535,226,335.275,226,390.275z"/>
<rect x="370.75" y="95.5" style="fill:#FFA920;" width="30" height="210.03"/>
<rect x="385.75" y="95.5" style="fill:#FF8800;" width="15" height="210.03"/>
<path style="fill:#6D76E6;" d="M385.749,290.535c-55,0-99.75,44.74-99.75,99.74s44.75,99.75,99.75,99.75s99.74-44.75,99.74-99.75
	S440.749,290.535,385.749,290.535z M385.749,460.025c-38.46,0-69.75-31.29-69.75-69.75c0-38.45,31.29-69.74,69.75-69.74
	c38.45,0,69.74,31.29,69.74,69.74C455.489,428.735,424.199,460.025,385.749,460.025z"/>
<path style="fill:#495AE3;" d="M485.489,390.275c0,55-44.74,99.75-99.74,99.75v-30c38.45,0,69.74-31.29,69.74-69.75
	c0-38.45-31.29-69.74-69.74-69.74v-30C440.749,290.535,485.489,335.275,485.489,390.275z"/>
<rect y="21.975" style="fill:#ADACB2;" width="512" height="88.53"/>
<rect x="256" y="21.975" style="fill:#8A8891;" width="256" height="88.53"/>
<g>
</g>
<g>
</g>
<g>
</g>
<g>
</g>
<g>
</g>
<g>
</g>
<g>
</g>
<g>
</g>
<g>
</g>
<g>
</g>
<g>
</g>
<g>
</g>
<g>
</g>
<g>
</g>
<g>
</g>
</svg>
