<?xml version="1.0" encoding="iso-8859-1"?>
<!-- Generator: Adobe Illustrator 19.0.0, SVG Export Plug-In . SVG Version: 6.00 Build 0)  -->
<svg version="1.1" id="Capa_1" xmlns="http://www.w3.org/2000/svg" xmlns:xlink="http://www.w3.org/1999/xlink" x="0px" y="0px"
	 viewBox="0 0 512 512" style="enable-background:new 0 0 512 512;" xml:space="preserve">
<path style="fill:#FF6849;" d="M467.448,274.057c6.937-9.2,11.052-20.645,11.052-33.057c0-17.44-8.119-32.98-20.782-43.054
	c-8-6.365-9.813-17.72-4.366-26.371c10.882-17.286,17.171-37.753,17.148-59.694C470.436,50.403,420.086,0.058,358.608,0
	c-30.417-0.029-58.007,12.069-78.205,31.724c-6.487,6.312-16.371,7.338-24.184,2.767C248.081,29.73,238.61,27,228.5,27
	c-30.376,0-55,24.624-55,55l250,353c19.33,0,35-15.67,35-35c0-3.353-0.473-6.594-1.354-9.662c-2.075-7.223-0.154-15.087,5.171-20.39
	c9.995-9.955,16.184-23.725,16.184-38.947c0-12.411-4.115-23.857-11.052-33.057C462.126,290.885,462.126,281.115,467.448,274.057z"
	/>
<polygon style="fill:#FEC478;" points="173.5,82 33.5,82 173.5,222 192.833,222 192.833,82 "/>
<path style="fill:#FD4B2D;" d="M467.448,274.057c6.937-9.2,11.052-20.645,11.052-33.057c0-17.44-8.119-32.98-20.782-43.054
	c-8-6.365-9.813-17.72-4.366-26.371c10.882-17.286,17.171-37.753,17.148-59.694C470.436,50.403,420.086,0.058,358.608,0
	c-22.117-0.021-42.735,6.375-60.108,17.42V258.5l125,176.5c19.33,0,35-15.67,35-35c0-3.353-0.473-6.594-1.354-9.662
	c-2.075-7.223-0.154-15.087,5.171-20.39c9.995-9.955,16.184-23.725,16.184-38.947c0-12.411-4.115-23.857-11.052-33.057
	C462.126,290.885,462.126,281.115,467.448,274.057z"/>
<path style="fill:#DCF4FF;" d="M423.5,512h-250V82h90c88.366,0,160,71.634,160,160V512z"/>
<circle style="fill:#0A4EAF;" cx="243.5" cy="177" r="20"/>
<path style="fill:#FF6849;" d="M116.572,417.768L116.572,417.768c28.917,7.229,56.928-14.641,56.928-44.448V222L89.563,347.906
	C71.988,374.268,85.835,410.084,116.572,417.768z"/>
<path style="fill:#CCEFFF;" d="M298.5,85.85V512h125V242C423.5,165.658,370.03,101.814,298.5,85.85z"/>
<g>
</g>
<g>
</g>
<g>
</g>
<g>
</g>
<g>
</g>
<g>
</g>
<g>
</g>
<g>
</g>
<g>
</g>
<g>
</g>
<g>
</g>
<g>
</g>
<g>
</g>
<g>
</g>
<g>
</g>
</svg>
