<?xml version="1.0" encoding="iso-8859-1"?>
<!-- Generator: Adobe Illustrator 19.0.0, SVG Export Plug-In . SVG Version: 6.00 Build 0)  -->
<svg version="1.1" id="Capa_1" xmlns="http://www.w3.org/2000/svg" xmlns:xlink="http://www.w3.org/1999/xlink" x="0px" y="0px"
	 viewBox="0 0 512 512" style="enable-background:new 0 0 512 512;" xml:space="preserve">
<path style="fill:#0EA02C;" d="M329.862,512H189.638c-12.263,0-22.204-9.941-22.204-22.204V22.204
	C167.433,9.941,177.374,0,189.638,0h140.225c12.263,0,22.204,9.941,22.204,22.204v467.591C352.067,502.059,342.125,512,329.862,512z
	"/>
<path style="fill:#0C9122;" d="M352.066,22.202v467.596c0,12.261-9.936,22.197-22.207,22.197h-34.056
	c12.261,0,22.197-9.936,22.197-22.197V22.202c0-12.261-9.936-22.197-22.197-22.197h34.056
	C342.129,0.005,352.066,9.941,352.066,22.202z"/>
<circle style="fill:#BBF3F2;" cx="259.75" cy="71.02" r="25.414"/>
<path style="fill:#9AD8D5;" d="M285.166,71.019c0,14.04-11.376,25.416-25.416,25.416c-12.292,0-22.536-8.712-24.902-20.304
	c3.014,1.265,6.336,1.965,9.813,1.965c14.04,0,25.416-11.386,25.416-25.416c0-1.749-0.175-3.466-0.514-5.112
	C278.727,51.404,285.166,60.465,285.166,71.019z"/>
<g>
	<path style="fill:#0C721D;" d="M193.662,136.729h-26.229c-4.143,0-7.5-3.358-7.5-7.5s3.357-7.5,7.5-7.5h26.229
		c4.143,0,7.5,3.358,7.5,7.5S197.804,136.729,193.662,136.729z"/>
	<path style="fill:#0C721D;" d="M193.662,167.587h-26.229c-4.143,0-7.5-3.358-7.5-7.5s3.357-7.5,7.5-7.5h26.229
		c4.143,0,7.5,3.358,7.5,7.5S197.804,167.587,193.662,167.587z"/>
	<path style="fill:#0C721D;" d="M193.662,198.444h-26.229c-4.143,0-7.5-3.358-7.5-7.5s3.357-7.5,7.5-7.5h26.229
		c4.143,0,7.5,3.358,7.5,7.5S197.804,198.444,193.662,198.444z"/>
	<path style="fill:#0C721D;" d="M234.336,229.303h-66.902c-4.143,0-7.5-3.358-7.5-7.5s3.357-7.5,7.5-7.5h66.902
		c4.143,0,7.5,3.358,7.5,7.5S238.478,229.303,234.336,229.303z"/>
	<path style="fill:#0C721D;" d="M193.662,260.16h-26.229c-4.143,0-7.5-3.358-7.5-7.5s3.357-7.5,7.5-7.5h26.229
		c4.143,0,7.5,3.358,7.5,7.5S197.804,260.16,193.662,260.16z"/>
	<path style="fill:#0C721D;" d="M193.662,291.018h-26.229c-4.143,0-7.5-3.358-7.5-7.5s3.357-7.5,7.5-7.5h26.229
		c4.143,0,7.5,3.358,7.5,7.5S197.804,291.018,193.662,291.018z"/>
	<path style="fill:#0C721D;" d="M193.662,321.875h-26.229c-4.143,0-7.5-3.358-7.5-7.5s3.357-7.5,7.5-7.5h26.229
		c4.143,0,7.5,3.358,7.5,7.5S197.804,321.875,193.662,321.875z"/>
	<path style="fill:#0C721D;" d="M234.336,352.733h-66.902c-4.143,0-7.5-3.358-7.5-7.5s3.357-7.5,7.5-7.5h66.902
		c4.143,0,7.5,3.358,7.5,7.5S238.478,352.733,234.336,352.733z"/>
	<path style="fill:#0C721D;" d="M193.662,383.59h-26.229c-4.143,0-7.5-3.358-7.5-7.5s3.357-7.5,7.5-7.5h26.229
		c4.143,0,7.5,3.358,7.5,7.5S197.804,383.59,193.662,383.59z"/>
	<path style="fill:#0C721D;" d="M193.662,414.448h-26.229c-4.143,0-7.5-3.358-7.5-7.5s3.357-7.5,7.5-7.5h26.229
		c4.143,0,7.5,3.358,7.5,7.5S197.804,414.448,193.662,414.448z"/>
	<path style="fill:#0C721D;" d="M193.662,445.306h-26.229c-4.143,0-7.5-3.358-7.5-7.5s3.357-7.5,7.5-7.5h26.229
		c4.143,0,7.5,3.358,7.5,7.5S197.804,445.306,193.662,445.306z"/>
	<path style="fill:#0C721D;" d="M234.336,476.164h-66.902c-4.143,0-7.5-3.358-7.5-7.5s3.357-7.5,7.5-7.5h66.902
		c4.143,0,7.5,3.358,7.5,7.5S238.478,476.164,234.336,476.164z"/>
</g>
<g>
</g>
<g>
</g>
<g>
</g>
<g>
</g>
<g>
</g>
<g>
</g>
<g>
</g>
<g>
</g>
<g>
</g>
<g>
</g>
<g>
</g>
<g>
</g>
<g>
</g>
<g>
</g>
<g>
</g>
</svg>
