<?xml version="1.0" encoding="iso-8859-1"?>
<!-- Generator: Adobe Illustrator 18.0.0, SVG Export Plug-In . SVG Version: 6.00 Build 0)  -->
<!DOCTYPE svg PUBLIC "-//W3C//DTD SVG 1.1//EN" "http://www.w3.org/Graphics/SVG/1.1/DTD/svg11.dtd">
<svg version="1.1" id="Capa_1" xmlns="http://www.w3.org/2000/svg" xmlns:xlink="http://www.w3.org/1999/xlink" x="0px" y="0px"
	 viewBox="0 0 58 58" style="enable-background:new 0 0 58 58;" xml:space="preserve">
<g>
	<rect x="2" y="50" style="fill:#5E5F62;" width="8" height="4"/>
	<rect x="48" y="50" style="fill:#5E5F62;" width="8" height="4"/>
	<rect y="4" style="fill:#B6C8CC;" width="58" height="46"/>
	<rect x="50" y="12" style="fill:#95A5A5;" width="8" height="4"/>
	<rect x="50" y="38" style="fill:#95A5A5;" width="8" height="4"/>
	<path style="fill:#E3E9EC;" d="M50,42v-4h4V16h-4v-4h4V9.008C54,8.451,53.549,8,52.992,8H5.008C4.451,8,4,8.451,4,9.008v35.984
		C4,45.549,4.451,46,5.008,46h47.984C53.549,46,54,45.549,54,44.992V42H50z"/>
	<path style="fill:#B6C8CC;" d="M30,26h-4.08c-0.17-1.183-0.636-2.269-1.322-3.184l2.887-2.887c0.391-0.391,0.391-1.023,0-1.414
		s-1.023-0.391-1.414,0l-2.887,2.887C22.269,20.716,21.183,20.25,20,20.08V16c0-0.553-0.448-1-1-1s-1,0.447-1,1v4.08
		c-1.183,0.17-2.269,0.636-3.185,1.322l-2.887-2.887c-0.391-0.391-1.023-0.391-1.414,0s-0.391,1.023,0,1.414l2.887,2.887
		C12.716,23.731,12.25,24.817,12.08,26H8c-0.552,0-1,0.447-1,1s0.448,1,1,1h4.08c0.17,1.183,0.636,2.269,1.322,3.184l-2.887,2.887
		c-0.391,0.391-0.391,1.023,0,1.414c0.195,0.195,0.451,0.293,0.707,0.293s0.512-0.098,0.707-0.293l2.887-2.887
		c0.915,0.686,2.001,1.152,3.185,1.322V38c0,0.553,0.448,1,1,1s1-0.447,1-1v-4.08c1.183-0.17,2.269-0.636,3.185-1.322l2.887,2.887
		c0.195,0.195,0.451,0.293,0.707,0.293s0.512-0.098,0.707-0.293c0.391-0.391,0.391-1.023,0-1.414l-2.887-2.887
		c0.686-0.916,1.151-2.001,1.322-3.184H30c0.552,0,1-0.447,1-1S30.552,26,30,26z M19,32c-2.757,0-5-2.243-5-5s2.243-5,5-5
		s5,2.243,5,5S21.757,32,19,32z"/>
	<g>
		<path style="fill:#556080;" d="M36,27c-0.552,0-1,0.447-1,1v1c0,0.553,0.448,1,1,1s1-0.447,1-1v-1C37,27.447,36.552,27,36,27z"/>
		<path style="fill:#556080;" d="M41,27c-0.552,0-1,0.447-1,1v1c0,0.553,0.448,1,1,1s1-0.447,1-1v-1C42,27.447,41.552,27,41,27z"/>
		<path style="fill:#556080;" d="M46,27c-0.552,0-1,0.447-1,1v1c0,0.553,0.448,1,1,1c0.553,0,1-0.447,1-1v-1
			C47,27.447,46.553,27,46,27z"/>
		<path style="fill:#556080;" d="M36,31c-0.552,0-1,0.447-1,1v1c0,0.553,0.448,1,1,1s1-0.447,1-1v-1C37,31.447,36.552,31,36,31z"/>
		<path style="fill:#556080;" d="M41,31c-0.552,0-1,0.447-1,1v1c0,0.553,0.448,1,1,1s1-0.447,1-1v-1C42,31.447,41.552,31,41,31z"/>
		<path style="fill:#556080;" d="M46,31c-0.552,0-1,0.447-1,1v1c0,0.553,0.448,1,1,1c0.553,0,1-0.447,1-1v-1
			C47,31.447,46.553,31,46,31z"/>
		<path style="fill:#556080;" d="M36,35c-0.552,0-1,0.447-1,1v1c0,0.553,0.448,1,1,1s1-0.447,1-1v-1C37,35.447,36.552,35,36,35z"/>
		<path style="fill:#556080;" d="M41,35c-0.552,0-1,0.447-1,1v1c0,0.553,0.448,1,1,1s1-0.447,1-1v-1C42,35.447,41.552,35,41,35z"/>
		<path style="fill:#556080;" d="M46,35c-0.552,0-1,0.447-1,1v1c0,0.553,0.448,1,1,1c0.553,0,1-0.447,1-1v-1
			C47,35.447,46.553,35,46,35z"/>
	</g>
	<rect x="35" y="19" style="fill:#94B571;" width="12" height="4"/>
	<circle style="fill:#5E5F62;" cx="19" cy="27" r="1"/>
</g>
<g>
</g>
<g>
</g>
<g>
</g>
<g>
</g>
<g>
</g>
<g>
</g>
<g>
</g>
<g>
</g>
<g>
</g>
<g>
</g>
<g>
</g>
<g>
</g>
<g>
</g>
<g>
</g>
<g>
</g>
</svg>
