<?xml version="1.0" encoding="iso-8859-1"?>
<!-- Generator: Adobe Illustrator 19.0.0, SVG Export Plug-In . SVG Version: 6.00 Build 0)  -->
<svg version="1.1" id="Capa_1" xmlns="http://www.w3.org/2000/svg" xmlns:xlink="http://www.w3.org/1999/xlink" x="0px" y="0px"
	 viewBox="0 0 512 512" style="enable-background:new 0 0 512 512;" xml:space="preserve">
<path style="fill:#6D76E6;" d="M485.908,103.528v357.138c0,28.302-23.032,51.334-51.344,51.334H77.426
	c-28.302,0-51.334-23.032-51.334-51.334V103.528c0-28.312,23.032-51.344,51.334-51.344h357.138
	C462.876,52.184,485.908,75.216,485.908,103.528z"/>
<path style="fill:#495AE3;" d="M485.908,103.528v357.138c0,28.302-23.032,51.334-51.344,51.334H256V52.184h178.564
	C462.876,52.184,485.908,75.216,485.908,103.528z"/>
<g>
	<rect x="240.999" y="182.904" style="fill:#FFFFFF;" width="30.002" height="182.784"/>
	<path style="fill:#FFFFFF;" d="M339.977,98.978c0,46.374-37.603,83.967-83.977,83.967s-83.977-37.593-83.977-83.967
		c0-46.384,37.603-83.977,83.977-83.977S339.977,52.594,339.977,98.978z"/>
</g>
<g>
	<rect x="256" y="182.904" style="fill:#C9E7F8;" width="15.001" height="182.784"/>
	<path style="fill:#C9E7F8;" d="M339.977,98.978c0,46.374-37.603,83.967-83.977,83.967V15.001
		C302.374,15.001,339.977,52.594,339.977,98.978z"/>
</g>
<path style="fill:#ADACB2;" d="M256,0c-54.574,0-98.978,44.403-98.978,98.978s44.403,98.968,98.978,98.968
	s98.978-44.393,98.978-98.968S310.574,0,256,0z M256,167.943c-38.033,0-68.975-30.942-68.975-68.965
	c0-38.033,30.942-68.975,68.975-68.975s68.975,30.942,68.975,68.975C324.975,137.001,294.033,167.943,256,167.943z"/>
<rect x="240.999" y="46.334" style="fill:#FF3100;" width="30.002" height="52.644"/>
<rect x="256" y="46.334" style="fill:#C91C00;" width="15.001" height="52.644"/>
<path style="fill:#8A8891;" d="M354.978,98.978c0,54.574-44.403,98.968-98.978,98.968v-30.002c38.033,0,68.975-30.942,68.975-68.965
	c0-38.033-30.942-68.975-68.975-68.975V0C310.574,0,354.978,44.403,354.978,98.978z"/>
<g>
</g>
<g>
</g>
<g>
</g>
<g>
</g>
<g>
</g>
<g>
</g>
<g>
</g>
<g>
</g>
<g>
</g>
<g>
</g>
<g>
</g>
<g>
</g>
<g>
</g>
<g>
</g>
<g>
</g>
</svg>
