<?xml version="1.0" encoding="iso-8859-1"?>
<!-- Generator: Adobe Illustrator 19.0.0, SVG Export Plug-In . SVG Version: 6.00 Build 0)  -->
<svg version="1.1" id="Capa_1" xmlns="http://www.w3.org/2000/svg" xmlns:xlink="http://www.w3.org/1999/xlink" x="0px" y="0px"
	 viewBox="0 0 400 400" style="enable-background:new 0 0 400 400;" xml:space="preserve">
<g id="XMLID_516_">
	<polygon id="XMLID_517_" style="fill:#DEDDE0;" points="130,245 130,215 210,215 210,185 145,185 145,155 210,155 210,0 100,0 
		100,400 210,400 210,245 	"/>
	<polygon id="XMLID_518_" style="fill:#CDCDD0;" points="320,200 320,100 320,0 210,0 210,155 275,155 275,185 210,185 210,215 
		290,215 290,245 210,245 210,400 320,400 320,300 	"/>
	<polygon id="XMLID_519_" style="fill:#ACABB1;" points="60,0 60,35 80,35 80,65 60,65 60,135 80,135 80,165 60,165 60,235 80,235 
		80,265 60,265 60,335 80,335 80,365 60,365 60,400 100,400 100,0 	"/>
	<rect id="XMLID_520_" x="320" style="fill:#FFDA44;" width="40" height="100"/>
	<rect id="XMLID_521_" x="320" y="100" style="fill:#FF9811;" width="40" height="100"/>
	<rect id="XMLID_522_" x="320" y="200" style="fill:#FF5023;" width="40" height="100"/>
	<rect id="XMLID_523_" x="320" y="300" style="fill:#D80027;" width="40" height="100"/>
	<polygon id="XMLID_524_" style="fill:#565659;" points="80,35 60,35 40,35 40,65 60,65 80,65 	"/>
	<polygon id="XMLID_525_" style="fill:#565659;" points="80,335 60,335 40,335 40,365 60,365 80,365 	"/>
	<polygon id="XMLID_526_" style="fill:#565659;" points="80,235 60,235 40,235 40,265 60,265 80,265 	"/>
	<polygon id="XMLID_527_" style="fill:#565659;" points="80,135 60,135 40,135 40,165 60,165 80,165 	"/>
	<polygon id="XMLID_530_" style="fill:#FFFFFF;" points="145,185 210,185 275,185 275,155 210,155 145,155 	"/>
	<polygon id="XMLID_531_" style="fill:#FFFFFF;" points="130,245 210,245 290,245 290,215 210,215 130,215 	"/>
</g>
<g>
</g>
<g>
</g>
<g>
</g>
<g>
</g>
<g>
</g>
<g>
</g>
<g>
</g>
<g>
</g>
<g>
</g>
<g>
</g>
<g>
</g>
<g>
</g>
<g>
</g>
<g>
</g>
<g>
</g>
</svg>
