<?xml version="1.0" encoding="iso-8859-1"?>
<!-- Generator: Adobe Illustrator 19.0.0, SVG Export Plug-In . SVG Version: 6.00 Build 0)  -->
<svg version="1.1" id="Capa_1" xmlns="http://www.w3.org/2000/svg" xmlns:xlink="http://www.w3.org/1999/xlink" x="0px" y="0px"
	 viewBox="0 0 430 430" style="enable-background:new 0 0 430 430;" xml:space="preserve">
<g id="XMLID_11_">
	<polygon id="XMLID_1047_" style="fill:#ACABB1;" points="258.316,230 278.316,210 288.316,50 254.5,0 215,165.77 241.473,276.869 	
		"/>
	<polygon id="XMLID_1048_" style="fill:#ACABB1;" points="200.38,309.88 214.996,309.901 215,309.901 200.391,309.88 
		188.527,276.869 180.645,309.951 200.395,309.922 	"/>
	<circle id="XMLID_1049_" style="fill:#FFFFFF;" cx="144.5" cy="370" r="30"/>
	<path id="XMLID_1050_" style="fill:#DEDDE0;" d="M249.355,309.951l-7.883-33.082L215,165.77L175.5,0l-33.816,50l10,160l20,20
		l16.844,46.869l11.863,33.011L249.355,309.951z M230.5,275c0,8.284-6.716,15-15,15s-15-6.716-15-15s6.716-15,15-15
		S230.5,266.716,230.5,275z"/>
	<path id="XMLID_1053_" style="fill:#FF9811;" d="M285.5,310c-12.475,0-24.059,3.81-33.656,10.325l-2.455-10.374h-0.033h-68.711
		h-0.033l-2.455,10.374C168.559,313.81,156.975,310,144.5,310c-33.138,0-60,26.863-60,60s26.862,60,60,60
		c27.154,0,50.083-18.043,57.482-42.789l0.025,0.072L215,350.862l12.992,36.421l0.025-0.072C235.417,411.957,258.346,430,285.5,430
		c33.138,0,60-26.863,60-60S318.638,310,285.5,310z M144.5,400c-16.569,0-30-13.432-30-30s13.431-30,30-30s30,13.432,30,30
		S161.069,400,144.5,400z M285.5,400c-16.569,0-30-13.432-30-30s13.431-30,30-30s30,13.432,30,30S302.069,400,285.5,400z"/>
	<circle id="XMLID_1057_" style="fill:#FFFFFF;" cx="285.5" cy="370" r="30"/>
	<circle id="XMLID_1058_" style="fill:#FFFFFF;" cx="215.5" cy="275" r="15"/>
</g>
<g>
</g>
<g>
</g>
<g>
</g>
<g>
</g>
<g>
</g>
<g>
</g>
<g>
</g>
<g>
</g>
<g>
</g>
<g>
</g>
<g>
</g>
<g>
</g>
<g>
</g>
<g>
</g>
<g>
</g>
</svg>
