<?xml version="1.0" encoding="iso-8859-1"?>
<!-- Generator: Adobe Illustrator 19.0.0, SVG Export Plug-In . SVG Version: 6.00 Build 0)  -->
<svg version="1.1" id="Capa_1" xmlns="http://www.w3.org/2000/svg" xmlns:xlink="http://www.w3.org/1999/xlink" x="0px" y="0px"
	 viewBox="0 0 512 512" style="enable-background:new 0 0 512 512;" xml:space="preserve">
<path style="fill:#88868F;" d="M460.87,204.87c0,33.83-8.42,67.36-24.35,96.96l-13.21-7.11H88.69l-13.21,7.11
	c-15.93-29.6-24.35-63.13-24.35-96.96C51.13,91.9,143.03,0,256,0S460.87,91.9,460.87,204.87z"/>
<path style="fill:#78777F;" d="M460.87,204.87c0,33.83-8.42,67.36-24.35,96.96l-13.21-7.11H256V0
	C368.97,0,460.87,91.9,460.87,204.87z"/>
<rect x="133.94" y="385.05" style="fill:#DEDEE0;" width="30" height="126.95"/>
<rect x="348.06" y="385.05" style="fill:#D6D6D8;" width="30" height="126.95"/>
<path style="fill:#C5C3CA;" d="M447.65,330.54c-0.43,40.95-22.17,71.72-61.19,86.65c-16.17,6.19-34.43,9.11-52.58,9.11
	c-29.33,0-58.38-7.63-77.88-21.47c-31.57,22.4-88.15,28.55-130.46,12.36c-39.02-14.93-60.76-45.7-61.19-86.65
	c-0.25-23.53,8.16-43.94,24.99-60.65c31.32-31.07,86.17-42.31,124.45-46.35c22.55-2.37,39.35-2.24,42.21-2.2
	c2.86-0.04,19.66-0.17,42.21,2.2c38.28,4.04,93.13,15.28,124.45,46.35C439.49,286.6,447.9,307.01,447.65,330.54z"/>
<circle style="fill:#57555C;" cx="192.1" cy="180.33" r="15.52"/>
<circle style="fill:#3A3A41;" cx="319.89" cy="180.33" r="15.52"/>
<path style="fill:#ABAAB0;" d="M447.65,330.54c-0.43,40.95-22.17,71.72-61.19,86.65c-16.17,6.19-34.43,9.11-52.58,9.11
	c-29.33,0-58.38-7.63-77.88-21.47V221.34c2.86-0.04,19.66-0.17,42.21,2.2c38.28,4.04,93.13,15.28,124.45,46.35
	C439.49,286.6,447.9,307.01,447.65,330.54z"/>
<path style="fill:#57555C;" d="M299.09,232.22c0,23.8-19.29,43.09-43.09,43.09s-43.09-19.29-43.09-43.09c0-2.98,0.3-5.88,0.88-8.68
	c22.55-2.37,39.35-2.24,42.21-2.2c2.86-0.04,19.66-0.17,42.21,2.2C298.79,226.34,299.09,229.24,299.09,232.22z"/>
<path style="fill:#3A3A41;" d="M299.09,232.22c0,23.8-19.29,43.09-43.09,43.09v-53.97c2.86-0.04,19.66-0.17,42.21,2.2
	C298.79,226.34,299.09,229.24,299.09,232.22z"/>
<g>
</g>
<g>
</g>
<g>
</g>
<g>
</g>
<g>
</g>
<g>
</g>
<g>
</g>
<g>
</g>
<g>
</g>
<g>
</g>
<g>
</g>
<g>
</g>
<g>
</g>
<g>
</g>
<g>
</g>
</svg>
