<?xml version="1.0" encoding="iso-8859-1"?>
<!-- Generator: Adobe Illustrator 19.0.0, SVG Export Plug-In . SVG Version: 6.00 Build 0)  -->
<svg version="1.1" id="Layer_1" xmlns="http://www.w3.org/2000/svg" xmlns:xlink="http://www.w3.org/1999/xlink" x="0px" y="0px"
	 viewBox="0 0 512.004 512.004" style="enable-background:new 0 0 512.004 512.004;" xml:space="preserve">
<rect x="305.902" y="334.034" transform="matrix(-0.7071 -0.7071 0.7071 -0.7071 342.4896 826.8114)" style="fill:#5195AF;" width="73.163" height="16.879"/>
<path style="fill:#111449;" d="M56.033,326.569c74.706,74.706,195.831,74.706,270.538,0L210.288,172.315L56.033,56.03
	C-18.675,130.738-18.675,251.861,56.033,326.569z"/>
<path style="fill:#2F5E88;" d="M56.033,56.03l270.538,270.538c74.706-74.706,74.706-195.831,0-270.538S130.739-18.676,56.033,56.03z
	"/>
<path style="fill:#78E3EC;" d="M83.885,83.884l214.832,214.832c59.324-59.324,59.324-155.507,0-214.832
	C239.393,24.559,143.209,24.559,83.885,83.884z"/>
<path style="fill:#D0FBFD;" d="M278.825,103.776C219.501,44.451,132.223,35.545,83.886,83.884
	c-59.324,59.324-59.324,155.507,0,214.832s155.507,59.324,214.832,0C347.055,250.377,338.149,163.1,278.825,103.776z"/>
<polygon style="fill:#FF754F;" points="374.312,342.477 512.002,480.168 496.089,496.082 419.287,435.192 358.399,358.391 "/>
<rect x="321.925" y="423.95" transform="matrix(0.7071 0.7071 -0.7071 0.7071 430.5409 -169.0127)" style="fill:#FF4719;" width="194.723" height="22.505"/>
<path style="fill:#2F5E88;" d="M291.147,208.178c0.922-5.492,1.427-11.125,1.427-16.879c0-5.753-0.505-11.388-1.427-16.879H256.69
	c-1.594-6.193-4.058-12.036-7.232-17.408l24.373-24.373c-6.57-9.227-14.643-17.3-23.87-23.87l-24.373,24.373
	c-5.372-3.174-11.214-5.637-17.408-7.232V91.453c-5.492-0.922-11.125-1.427-16.879-1.427c-5.753,0-11.388,0.505-16.879,1.427v34.457
	c-6.193,1.594-12.036,4.058-17.408,7.232l-24.373-24.373c-9.227,6.57-17.3,14.643-23.87,23.87l24.373,24.373
	c-3.174,5.372-5.638,11.213-7.232,17.408H91.456c-0.922,5.491-1.427,11.125-1.427,16.879c0,5.755,0.505,11.386,1.427,16.879h34.457
	c1.594,6.193,4.058,12.036,7.232,17.408l-24.373,24.373c6.57,9.227,14.643,17.301,23.87,23.87l24.373-24.373
	c5.372,3.174,11.214,5.637,17.408,7.232v34.457c5.491,0.922,11.125,1.427,16.879,1.427c5.753,0,11.388-0.505,16.879-1.427v-34.457
	c6.193-1.594,12.036-4.058,17.408-7.232l24.373,24.373c9.227-6.57,17.3-14.643,23.87-23.87l-24.373-24.373
	c3.174-5.372,5.637-11.213,7.232-17.408L291.147,208.178L291.147,208.178z M191.301,225.056c-18.644,0-33.758-15.113-33.758-33.758
	s15.113-33.757,33.758-33.757s33.757,15.113,33.757,33.757S209.944,225.056,191.301,225.056z"/>
<g>
</g>
<g>
</g>
<g>
</g>
<g>
</g>
<g>
</g>
<g>
</g>
<g>
</g>
<g>
</g>
<g>
</g>
<g>
</g>
<g>
</g>
<g>
</g>
<g>
</g>
<g>
</g>
<g>
</g>
</svg>
