<?xml version="1.0" encoding="iso-8859-1"?>
<!-- Generator: Adobe Illustrator 19.0.0, SVG Export Plug-In . SVG Version: 6.00 Build 0)  -->
<svg version="1.1" id="Capa_1" xmlns="http://www.w3.org/2000/svg" xmlns:xlink="http://www.w3.org/1999/xlink" x="0px" y="0px"
	 viewBox="0 0 512.002 512.002" style="enable-background:new 0 0 512.002 512.002;" xml:space="preserve">
<path style="fill:#FEDBAB;" d="M176.093,376.7V275.836h-53.028c-17.843-0.022-34.447-9.713-43.349-25.292l-38.694-67.777v-36.999
	h99.877l15.546-30.386c8.557-17.054,25.719-27.645,44.805-27.645h110.914v90.835l58.436,58.436l-73.444,114.179L176.093,376.7z"/>
<path style="fill:#FEC478;" d="M312.164,178.572V87.737H201.25c-19.086,0-36.247,10.59-44.805,27.645l-15.546,30.386L316.4,321.269
	l54.199-84.261L312.164,178.572z"/>
<path style="fill:#0A4EAF;" d="M195.103,390.207C87.523,390.207,0,302.684,0,195.104S87.523,0.002,195.103,0.002
	s195.103,87.523,195.103,195.103S302.682,390.207,195.103,390.207z M195.103,30.018c-91.029,0-165.087,74.058-165.087,165.087
	s74.058,165.087,165.087,165.087s165.087-74.058,165.087-165.087S286.131,30.018,195.103,30.018z"/>
<rect x="285.39" y="396.91" transform="matrix(-0.7071 -0.7071 0.7071 -0.7071 411.9213 994.4595)" style="fill:#032E68;" width="253.061" height="30.015"/>
<path style="fill:#E08344;" d="M262.138,207.8c-27.584,0-50.026-22.442-50.026-50.026V87.737h100.053v70.037
	C312.164,185.358,289.722,207.8,262.138,207.8z"/>
<polygon style="fill:#713708;" points="41.022,145.768 41.022,182.767 81.043,145.768 "/>
<path style="fill:#063E8B;" d="M195.103,0.002v30.016c91.029,0,165.087,74.058,165.087,165.087s-74.058,165.087-165.087,165.087
	v30.016c107.58,0,195.103-87.523,195.103-195.103S302.682,0.002,195.103,0.002z"/>
<g>
</g>
<g>
</g>
<g>
</g>
<g>
</g>
<g>
</g>
<g>
</g>
<g>
</g>
<g>
</g>
<g>
</g>
<g>
</g>
<g>
</g>
<g>
</g>
<g>
</g>
<g>
</g>
<g>
</g>
</svg>
