<?xml version="1.0" encoding="iso-8859-1"?>
<!-- Generator: Adobe Illustrator 19.0.0, SVG Export Plug-In . SVG Version: 6.00 Build 0)  -->
<svg version="1.1" id="Capa_1" xmlns="http://www.w3.org/2000/svg" xmlns:xlink="http://www.w3.org/1999/xlink" x="0px" y="0px"
	 viewBox="0 0 512 512" style="enable-background:new 0 0 512 512;" xml:space="preserve">
<path style="fill:#B7E4F8;" d="M359.111,236.087H152.889c-36.699,0-66.555-29.857-66.555-66.555
	c0-31.809,22.431-58.478,52.305-65.02c3.057-27.229,15.371-52.281,35.439-71.619C196.091,11.682,225.185,0,256,0
	s59.909,11.682,81.921,32.893c20.068,19.338,32.383,44.39,35.44,71.619c29.875,6.542,52.305,33.211,52.305,65.02
	C425.667,206.231,395.81,236.087,359.111,236.087z"/>
<path style="fill:#6FC8F1;" d="M373.361,104.512c-3.057-27.229-15.372-52.282-35.44-71.619C315.909,11.682,286.815,0,256,0v236.087
	h103.111c36.699,0,66.555-29.857,66.555-66.556C425.667,137.723,403.236,111.054,373.361,104.512z"/>
<path style="fill:#00623D;" d="M256,512c-56.03,0-116.333-16.038-116.333-51.25v-98.083h232.667v98.083
	C372.333,495.962,312.03,512,256,512z"/>
<path style="fill:#183713;" d="M256,362.667h116.333v98.083C372.333,495.962,312.03,512,256,512"/>
<path style="fill:#00935C;" d="M256,435.25c-56.03,0-116.333-16.038-116.333-51.25v-68.417h232.667V384
	C372.333,419.212,312.03,435.25,256,435.25z"/>
<path style="fill:#00784B;" d="M256,315.583h116.333V384c0,35.212-60.304,51.25-116.333,51.25"/>
<path style="fill:#60DD4D;" d="M256,264.333c-56.03,0-116.333,16.038-116.333,51.25s60.304,51.25,116.333,51.25
	s116.333-16.038,116.333-51.25S312.03,264.333,256,264.333z"/>
<path style="fill:#56C745;" d="M256,366.833c56.03,0,116.333-16.038,116.333-51.25S312.03,264.333,256,264.333"/>
<polygon style="fill:#FF4F19;" points="301.195,162.648 256,117.454 210.805,162.648 232.018,183.862 241,174.88 241,309.333 
	271,309.333 271,174.88 279.982,183.862 "/>
<polygon style="fill:#BF3B13;" points="256,117.454 256,309.333 271,309.333 271,174.88 279.982,183.862 301.195,162.648 "/>
<g>
</g>
<g>
</g>
<g>
</g>
<g>
</g>
<g>
</g>
<g>
</g>
<g>
</g>
<g>
</g>
<g>
</g>
<g>
</g>
<g>
</g>
<g>
</g>
<g>
</g>
<g>
</g>
<g>
</g>
</svg>
