<?xml version="1.0" encoding="iso-8859-1"?>
<!-- Generator: Adobe Illustrator 19.0.0, SVG Export Plug-In . SVG Version: 6.00 Build 0)  -->
<svg version="1.1" id="Capa_1" xmlns="http://www.w3.org/2000/svg" xmlns:xlink="http://www.w3.org/1999/xlink" x="0px" y="0px"
	 viewBox="0 0 512 512" style="enable-background:new 0 0 512 512;" xml:space="preserve">
<path style="fill:#CECED1;" d="M452.333,366.333H59.667v-89h392.667L452.333,366.333L452.333,366.333z"/>
<path style="fill:#AEADB3;" d="M452.333,366.333H256v-89h196.334L452.333,366.333L452.333,366.333z"/>
<path style="fill:#CECED1;" d="M452.333,512H59.667V354h392.667L452.333,512L452.333,512z"/>
<path style="fill:#AEADB3;" d="M452.333,512H256V354h196.334L452.333,512L452.333,512z"/>
<path style="fill:#838286;" d="M452.333,475.667H59.667v-162h392.667L452.333,475.667L452.333,475.667z"/>
<path style="fill:#57575A;" d="M452.333,475.667H256v-162h196.334L452.333,475.667L452.333,475.667z"/>
<rect x="151.33" y="418" style="fill:#6FC8F1;" width="30" height="30"/>
<rect x="330.67" y="418" style="fill:#FF4F19;" width="30" height="30"/>
<rect x="271.329" y="418" style="fill:#FFAE33;" width="30" height="30"/>
<rect x="151.33" y="341.33" style="fill:#FFDB2D;" width="30" height="30"/>
<rect x="330.67" y="341.33" style="fill:#56C745;" width="30" height="30"/>
<rect x="271.329" y="341.33" style="fill:#6FC8F1;" width="30" height="30"/>
<path style="fill:#CECED1;" d="M452.333,407.167H59.667v-25h392.667L452.333,407.167L452.333,407.167z"/>
<path style="fill:#AEADB3;" d="M452.333,407.167H256v-25h196.334L452.333,407.167L452.333,407.167z"/>
<path style="fill:#838286;" d="M306.823,67.421c0-3.435-0.347-6.791-1-10.037l16.675-9.627l-16.22-28.094L289.57,29.31
	c-5.009-4.417-10.889-7.86-17.349-10.042V0h-32.44v19.268c-6.46,2.182-12.341,5.625-17.35,10.042l-16.709-9.647l-16.22,28.094
	l16.675,9.628c-0.653,3.246-1,6.601-1,10.036c0,3.435,0.347,6.79,1,10.037l-16.675,9.628l16.22,28.093l16.709-9.647
	c5.009,4.417,10.889,7.86,17.35,10.042v19.268h32.44v-19.268c6.46-2.182,12.341-5.625,17.349-10.042l16.708,9.647l16.22-28.093
	l-16.675-9.627C306.476,74.212,306.823,70.856,306.823,67.421z M256,85.803c-10.136,0-18.383-8.246-18.383-18.383
	S245.864,49.038,256,49.038c10.137,0,18.383,8.246,18.383,18.383S266.137,85.803,256,85.803z"/>
<path style="fill:#57575A;" d="M306.823,67.421c0-3.435-0.347-6.791-1-10.037l16.675-9.627l-16.22-28.094L289.57,29.31
	c-5.009-4.417-10.889-7.86-17.349-10.042V0H256v49.038l0,0c10.137,0,18.383,8.246,18.383,18.383S266.137,85.803,256,85.803l0,0
	v49.039h16.22v-19.268c6.46-2.182,12.341-5.625,17.349-10.042l16.708,9.647l16.22-28.093l-16.675-9.627
	C306.476,74.212,306.823,70.856,306.823,67.421z"/>
<path style="fill:#CECED1;" d="M384,207.118V170.19h38.788l10.294-25.91c-11.372-10.73-26.237-16.639-41.857-16.639
	c-28.468,0-52.44,19.6-59.142,46.013h-166.34c-6.276-18.58-23.86-32-44.531-32c-25.916,0-47,21.084-47,47s21.084,47,47,47
	c20.671,0,38.255-13.42,44.531-32h166.34c6.702,26.413,30.674,46.013,59.142,46.013c15.62,0,30.485-5.909,41.857-16.639
	l-10.294-25.91L384,207.118L384,207.118z M121.212,205.654c-9.374,0-17-7.626-17-17s7.626-17,17-17c9.374,0,17,7.626,17,17
	C138.212,198.027,130.586,205.654,121.212,205.654z"/>
<path style="fill:#AEADB3;" d="M384,207.118V170.19h38.788l10.294-25.91c-11.372-10.73-26.237-16.639-41.857-16.639
	c-28.468,0-52.44,19.6-59.142,46.013H256v30h76.083c6.702,26.413,30.674,46.013,59.142,46.013c15.62,0,30.485-5.909,41.857-16.639
	l-10.294-25.91L384,207.118L384,207.118z"/>
<g>
</g>
<g>
</g>
<g>
</g>
<g>
</g>
<g>
</g>
<g>
</g>
<g>
</g>
<g>
</g>
<g>
</g>
<g>
</g>
<g>
</g>
<g>
</g>
<g>
</g>
<g>
</g>
<g>
</g>
</svg>
