<?xml version="1.0" encoding="iso-8859-1"?>
<!-- Generator: Adobe Illustrator 19.0.0, SVG Export Plug-In . SVG Version: 6.00 Build 0)  -->
<svg version="1.1" id="Layer_1" xmlns="http://www.w3.org/2000/svg" xmlns:xlink="http://www.w3.org/1999/xlink" x="0px" y="0px"
	 viewBox="0 0 512 512" style="enable-background:new 0 0 512 512;" xml:space="preserve">
<rect x="301.405" y="466.989" style="fill:#111449;" width="210.595" height="33.758"/>
<rect y="466.989" style="fill:#27467A;" width="210.595" height="33.758"/>
<polygon style="fill:#2F5E88;" points="282.073,369.822 282.073,414.833 256,437.338 229.927,414.833 229.927,369.822 "/>
<rect x="229.927" y="414.833" style="fill:#367596;" width="52.145" height="56.264"/>
<rect x="199.342" y="459.844" style="fill:#78E3EC;" width="113.315" height="52.156"/>
<polygon style="fill:#C7E7EB;" points="320.141,0 107.7,0 107.7,392.44 376.404,392.44 393.284,104.42 "/>
<polygon style="fill:#B7D9DD;" points="410.163,123.78 410.163,90.022 376.404,78.769 376.404,392.44 410.163,392.44 "/>
<polygon style="fill:#E5FAFC;" points="320.141,0 320.141,90.022 410.163,90.022 "/>
<g>
	<path style="fill:#367596;" d="M341.639,170.198H176.224c-4.662,0-8.44-3.778-8.44-8.44s3.778-8.44,8.44-8.44h165.415
		c4.662,0,8.44,3.778,8.44,8.44S346.301,170.198,341.639,170.198z"/>
	<path style="fill:#367596;" d="M341.639,223.179H176.224c-4.662,0-8.44-3.778-8.44-8.44s3.778-8.44,8.44-8.44h165.415
		c4.662,0,8.44,3.778,8.44,8.44S346.301,223.179,341.639,223.179z"/>
	<path style="fill:#367596;" d="M341.639,276.162H176.224c-4.662,0-8.44-3.778-8.44-8.44s3.778-8.44,8.44-8.44h165.415
		c4.662,0,8.44,3.778,8.44,8.44S346.301,276.162,341.639,276.162z"/>
	<path style="fill:#367596;" d="M258.931,329.143h-82.708c-4.662,0-8.44-3.778-8.44-8.44s3.778-8.44,8.44-8.44h82.708
		c4.662,0,8.44,3.778,8.44,8.44S263.593,329.143,258.931,329.143z"/>
</g>
<g>
</g>
<g>
</g>
<g>
</g>
<g>
</g>
<g>
</g>
<g>
</g>
<g>
</g>
<g>
</g>
<g>
</g>
<g>
</g>
<g>
</g>
<g>
</g>
<g>
</g>
<g>
</g>
<g>
</g>
</svg>
