<?xml version="1.0" encoding="iso-8859-1"?>
<!-- Generator: Adobe Illustrator 19.0.0, SVG Export Plug-In . SVG Version: 6.00 Build 0)  -->
<svg version="1.1" id="Capa_1" xmlns="http://www.w3.org/2000/svg" xmlns:xlink="http://www.w3.org/1999/xlink" x="0px" y="0px"
	 viewBox="0 0 512 512" style="enable-background:new 0 0 512 512;" xml:space="preserve">
<path style="fill:#8648B5;" d="M397.635,256c0,32.262,20.722,59.504,49.132,68.205c4.249,1.301,7.185,5.313,7.185,9.905v167.57
	c0,5.7-4.459,10.32-9.96,10.32H68.004c-5.501,0-9.96-4.621-9.96-10.32V334.11c0-4.591,2.936-8.603,7.185-9.905
	c28.41-8.701,49.132-35.943,49.132-68.205s-20.722-59.504-49.132-68.205c-4.249-1.301-7.185-5.313-7.185-9.905V10.32
	c0-5.7,4.459-10.32,9.96-10.32h375.987c5.501,0,9.96,4.621,9.96,10.32v167.57c0,4.591-2.936,8.603-7.185,9.905
	C418.357,196.496,397.635,223.738,397.635,256z"/>
<path style="fill:#713CA0;" d="M397.636,256c0,32.262,20.724,59.508,49.136,68.208c4.242,1.3,7.183,5.315,7.183,9.897V501.68
	c0,5.697-4.458,10.32-9.959,10.32h-22.478V346.727c0-5.325-2.931-9.99-7.183-11.497c-28.412-10.114-49.126-41.757-49.126-79.23
	s20.713-69.116,49.126-79.23c4.252-1.507,7.183-6.172,7.183-11.497V0h22.478c5.501,0,9.959,4.624,9.959,10.32v167.574
	c0,4.582-2.941,8.597-7.183,9.897C418.359,196.492,397.636,223.738,397.636,256z"/>
<path style="fill:#5A606D;" d="M268.858,431.448h-25.721c-36.786,0-66.607-29.821-66.607-66.607V0h158.936v364.841
	C335.465,401.627,305.644,431.448,268.858,431.448z"/>
<path style="fill:#E4E8EB;" d="M268.858,431.448h-34.118V0h100.726v364.841C335.465,401.627,305.644,431.448,268.858,431.448z"/>
<path style="fill:#D6D6D6;" d="M335.467,0v364.84c0,36.782-29.826,66.609-66.609,66.609h-29.104
	c36.782,0,66.609-29.826,66.609-66.609V0H335.467z"/>
<circle style="fill:#6B717F;" cx="286.759" cy="215.72" r="30.764"/>
<path style="fill:#5A606D;" d="M317.518,215.719c0,16.998-13.768,30.765-30.755,30.765c-3.034,0-5.965-0.444-8.741-1.269
	c12.735-3.757,22.024-15.532,22.024-29.496c0-13.953-9.288-25.729-22.024-29.486c2.776-0.826,5.707-1.269,8.741-1.269
	C303.75,184.964,317.518,198.732,317.518,215.719z"/>
<g>
</g>
<g>
</g>
<g>
</g>
<g>
</g>
<g>
</g>
<g>
</g>
<g>
</g>
<g>
</g>
<g>
</g>
<g>
</g>
<g>
</g>
<g>
</g>
<g>
</g>
<g>
</g>
<g>
</g>
</svg>
