<?xml version="1.0" encoding="iso-8859-1"?>
<!-- Generator: Adobe Illustrator 19.0.0, SVG Export Plug-In . SVG Version: 6.00 Build 0)  -->
<svg version="1.1" id="Layer_1" xmlns="http://www.w3.org/2000/svg" xmlns:xlink="http://www.w3.org/1999/xlink" x="0px" y="0px"
	 viewBox="0 0 512 512" style="enable-background:new 0 0 512 512;" xml:space="preserve">
<path style="fill:#E89330;" d="M475.429,73.728H441.67l36.571,81.582H512v-45.011C512,90.191,495.549,73.728,475.429,73.728z"/>
<path style="fill:#F3A933;" d="M478.242,110.299v45.011H233.495V73.728H441.67C461.79,73.728,478.242,90.191,478.242,110.299z"/>
<path style="fill:#FFBE35;" d="M475.429,118.739H441.67l36.571,356.104H512V155.31C512,135.202,495.537,118.739,475.429,118.739z"/>
<path style="fill:#FFCD60;" d="M441.67,118.739H256V73.728c0-20.109-16.463-36.571-36.571-36.571H70.327H36.571
	C16.452,37.157,0,53.619,0,73.728v401.115h478.242V155.31C478.242,135.202,461.779,118.739,441.67,118.739z"/>
<path style="fill:#E89330;" d="M432.252,376.141h-22.505l-39.463-61.226C404.097,314.915,432.252,342.327,432.252,376.141z"/>
<path style="fill:#F3A933;" d="M370.284,314.915c-33.815,0-61.98,27.412-61.98,61.226h101.444
	C409.746,342.327,391.809,314.915,370.284,314.915z"/>
<g>
	<path style="fill:#E89330;" d="M369.53,213.606v67.55c18.657,0,33.781-15.124,33.781-33.769
		C403.311,228.73,388.186,213.606,369.53,213.606z"/>
	<path style="fill:#E89330;" d="M203.697,376.141h-22.506l-39.463-61.226C175.543,314.915,203.697,342.327,203.697,376.141z"/>
</g>
<path style="fill:#F3A933;" d="M141.728,314.915c-33.815,0-61.98,27.412-61.98,61.226h101.444
	C181.193,342.327,163.256,314.915,141.728,314.915z"/>
<path style="fill:#E89330;" d="M140.976,213.606v67.55c18.657,0,33.781-15.124,33.781-33.769
	C174.756,228.73,159.631,213.606,140.976,213.606z"/>
<path style="fill:#D97F13;" d="M256,317.976l49.467,83.225h33.758C339.225,355.233,301.969,317.976,256,317.976z"/>
<path style="fill:#E89330;" d="M256,317.976c-45.97,0.002-83.225,37.259-83.225,83.225h132.692
	C305.467,355.233,283.323,317.976,256,317.976z"/>
<path style="fill:#D97F13;" d="M256.609,192.384v91.822c25.082-0.315,45.315-20.75,45.315-45.911S281.691,192.699,256.609,192.384z"
	/>
<path style="fill:#E89330;" d="M256.609,192.384c-0.203-0.011-0.405-0.011-0.608-0.011c-0.203,0-0.405,0-0.608,0.011
	c-25.082,0.315-45.315,20.75-45.315,45.911s20.232,45.596,45.315,45.911c0.203,0.011,0.405,0.011,0.608,0.011
	c0.203,0,0.405,0,0.608-0.011c12.648-0.63,22.809-20.941,22.809-45.911S269.257,193.014,256.609,192.384z"/>
<g>
	<path style="fill:#F3A933;" d="M140.974,213.606c6.223,0,11.275,15.124,11.275,33.781c0,18.646-5.052,33.769-11.275,33.769
		c-18.657,0-33.781-15.124-33.781-33.769C107.194,228.73,122.317,213.606,140.974,213.606z"/>
	<path style="fill:#F3A933;" d="M369.53,213.606c6.223,0,11.275,15.124,11.275,33.781c0,18.646-5.052,33.769-11.275,33.769
		c-18.657,0-33.781-15.124-33.781-33.769C335.748,228.73,350.872,213.606,369.53,213.606z"/>
</g>
<g>
</g>
<g>
</g>
<g>
</g>
<g>
</g>
<g>
</g>
<g>
</g>
<g>
</g>
<g>
</g>
<g>
</g>
<g>
</g>
<g>
</g>
<g>
</g>
<g>
</g>
<g>
</g>
<g>
</g>
</svg>
