<?xml version="1.0" encoding="iso-8859-1"?>
<!-- Generator: Adobe Illustrator 19.0.0, SVG Export Plug-In . SVG Version: 6.00 Build 0)  -->
<svg version="1.1" id="Layer_1" xmlns="http://www.w3.org/2000/svg" xmlns:xlink="http://www.w3.org/1999/xlink" x="0px" y="0px"
	 viewBox="0 0 512 512" style="enable-background:new 0 0 512 512;" xml:space="preserve">
<path style="fill:#E89330;" d="M256,0c65.919,68.417,159.643,104.718,256,88.784C498.215,439.622,256,512,256,512l-78.769-257.125
	L256,0z"/>
<path style="fill:#FFBE35;" d="M256,0v512c0,0-242.215-72.378-256-423.216C96.357,104.718,190.081,68.417,256,0z"/>
<path style="fill:#FFDB8A;" d="M429.304,135.359L256,463.726c19.208-8.541,56.748-28.503,94.467-67.089
	c31.35-32.07,56.883-70.746,75.866-114.947c18.432-42.895,30.765-91.237,36.853-144.193
	C451.809,137.374,440.5,136.653,429.304,135.359z"/>
<path style="fill:#FFEAB5;" d="M256,61.102c-50.75,41.388-110.378,66.954-173.304,74.257c-11.196,1.294-22.505,2.014-33.882,2.138
	c6.088,52.955,18.421,101.297,36.853,144.193c18.983,44.201,44.516,82.876,75.866,114.947
	c37.719,38.586,75.258,58.548,94.467,67.089c16.08-8.541,47.498-28.503,79.073-67.089c26.253-32.07,47.61-70.746,63.51-114.947
	c15.304-42.558,25.589-93.803,30.72-146.331C366.378,128.056,306.75,102.49,256,61.102z"/>
<path style="fill:#FFDB8A;" d="M256,162.04c-51.268,0-92.835,41.568-92.835,92.835h139.253
	C302.418,203.607,281.634,162.04,256,162.04z"/>
<path style="fill:#F3A933;" d="M256,347.71c25.634,0,46.418-41.568,46.418-92.835h46.418C348.835,306.142,307.268,347.71,256,347.71
	z"/>
<path style="fill:#FFCD60;" d="M163.165,254.875c0,51.268,41.568,92.835,92.835,92.835c25.634,0,46.418-41.568,46.418-92.835
	H163.165z"/>
<path style="fill:#FFBE35;" d="M302.418,254.875c0-51.268-20.784-92.835-46.418-92.835c51.268,0,92.835,41.568,92.835,92.835
	H302.418z"/>
<path style="fill:#D97F13;" d="M256,154.725c-55.843,0-101.275,45.432-101.275,101.275S200.157,357.275,256,357.275
	S357.275,311.843,357.275,256S311.843,154.725,256,154.725z M339.973,247.56h-29.308c-0.987-22.924-5.967-44.326-14.294-60.979
	c-1.147-2.294-2.347-4.467-3.593-6.528C318.534,192.576,337.005,217.818,339.973,247.56z M247.56,174.044v73.516h-29.336
	C219.982,209.839,233.341,182.149,247.56,174.044z M247.56,264.44v73.516c-14.219-8.105-27.578-35.794-29.336-73.516H247.56z
	 M264.44,337.956V264.44h29.336C292.018,302.161,278.659,329.851,264.44,337.956z M264.44,247.56v-73.516
	c14.219,8.105,27.578,35.794,29.336,73.516H264.44z M219.222,180.053c-1.245,2.062-2.445,4.233-3.593,6.528
	c-8.327,16.654-13.307,38.055-14.294,60.979h-29.308C174.995,217.818,193.466,192.576,219.222,180.053z M172.028,264.44h29.308
	c0.987,22.924,5.967,44.326,14.294,60.979c1.147,2.294,2.347,4.467,3.593,6.528C193.466,319.424,174.995,294.182,172.028,264.44z
	 M292.778,331.947c1.245-2.061,2.445-4.233,3.593-6.528c8.327-16.654,13.307-38.055,14.294-60.979h29.308
	C337.005,294.182,318.534,319.424,292.778,331.947z"/>
<g>
</g>
<g>
</g>
<g>
</g>
<g>
</g>
<g>
</g>
<g>
</g>
<g>
</g>
<g>
</g>
<g>
</g>
<g>
</g>
<g>
</g>
<g>
</g>
<g>
</g>
<g>
</g>
<g>
</g>
</svg>
