<?xml version="1.0" encoding="iso-8859-1"?>
<!-- Generator: Adobe Illustrator 19.0.0, SVG Export Plug-In . SVG Version: 6.00 Build 0)  -->
<svg version="1.1" id="Capa_1" xmlns="http://www.w3.org/2000/svg" xmlns:xlink="http://www.w3.org/1999/xlink" x="0px" y="0px"
	 viewBox="0 0 512 512" style="enable-background:new 0 0 512 512;" xml:space="preserve">
<path style="fill:#6D76E6;" d="M446.98,207.805c-2.51-1.08-5.28-2.21-8.29-3.38c-4.49-1.75-9.52-3.6-14.99-5.52
	c-4.77-1.68-9.87-3.42-15.25-5.2c-76.3-25.29-207.19-59.37-213.82-61.1l-6.79-1.73l-5.7,4.04c-0.1,0.07-5.51,3.86-14.71,8.43
	c-4.03,1.99-8.79,4.14-14.15,6.18c-4.4,1.67-9.2,3.28-14.33,4.67c-2.24,0.62-4.54,1.19-6.9,1.71c-38.11,8.43-73.16,0.32-104.18-24.1
	l-4.08-3.22H0v254.83h512v-76.87C511.98,303.645,510.75,235.235,446.98,207.805z"/>
<rect y="319.58" style="fill:#495AE3;" width="512" height="63.83"/>
<polygon style="fill:#FFFFFF;" points="174.656,308.705 218.658,211.786 191.342,199.384 141.855,308.384 142.562,308.705 
	0,308.705 0,338.705 512,338.705 512,308.705 "/>
<path style="fill:#FFA920;" d="M423.7,198.905c-4.77-1.68-9.87-3.42-15.25-5.2c-76.3-25.29-207.19-59.37-213.82-61.1l-6.79-1.73
	l-5.7,4.04c-0.1,0.07-5.51,3.86-14.71,8.43c-4.03,1.99-8.79,4.14-14.15,6.18c-4.4,1.67-9.2,3.28-14.33,4.67
	c0.9,4.18,2.2,9.16,4.05,14.46c1.59,4.51,3.57,9.24,6.07,13.87c6.62,12.34,16.8,24,32.36,29.06c1.11,0.36,2.39,0.75,3.84,1.16
	c6.76,1.94,17.12,4.46,29.63,7.31c58.78,13.38,165.19,33.94,170.82,35.03l8.61,1.66l23.75-28.01l10.33-12.18l10.28-12.13
	C434.2,202.675,429.17,200.825,423.7,198.905z"/>
<g>
</g>
<g>
</g>
<g>
</g>
<g>
</g>
<g>
</g>
<g>
</g>
<g>
</g>
<g>
</g>
<g>
</g>
<g>
</g>
<g>
</g>
<g>
</g>
<g>
</g>
<g>
</g>
<g>
</g>
</svg>
