<?xml version="1.0" encoding="iso-8859-1"?>
<!-- Generator: Adobe Illustrator 19.0.0, SVG Export Plug-In . SVG Version: 6.00 Build 0)  -->
<svg version="1.1" id="Capa_1" xmlns="http://www.w3.org/2000/svg" xmlns:xlink="http://www.w3.org/1999/xlink" x="0px" y="0px"
	 viewBox="0 0 512 512" style="enable-background:new 0 0 512 512;" xml:space="preserve">
<polygon style="fill:#FFDB2D;" points="196.797,112.401 196.797,30.709 315.203,30.709 315.203,112.401 345.912,112.401 345.912,0 
	166.088,0 166.088,112.401 "/>
<polygon style="fill:#FCB72C;" points="315.203,112.401 345.912,112.401 345.912,0 256,0 256,30.709 315.203,30.709 "/>
<polygon style="fill:#5B5B5B;" points="430.705,91.532 81.295,91.532 69.804,512 442.196,512 "/>
<polygon points="256,512 442.196,512 430.705,91.532 256,91.532 "/>
<path style="fill:#FCB72C;" d="M284.852,182.061c-11.043,0-21.137,4.114-28.852,10.878c-7.716-6.764-17.81-10.878-28.853-10.878
	c-24.167,0-43.83,19.662-43.83,43.83s19.662,43.83,43.83,43.83h13.875h29.956h13.875c24.167,0,43.83-19.662,43.83-43.83
	S309.02,182.061,284.852,182.061z M284.852,239.765h-13.875V225.89c0-7.651,6.224-13.875,13.875-13.875s13.875,6.224,13.875,13.875
	C298.726,233.541,292.502,239.765,284.852,239.765z M213.274,225.891c0-7.651,6.224-13.875,13.875-13.875
	c7.651,0,13.875,6.224,13.875,13.875v13.875h-13.875C219.498,239.765,213.274,233.541,213.274,225.891z"/>
<path style="fill:#FF9900;" d="M284.852,182.061c-11.043,0-21.137,4.114-28.852,10.878v76.783h14.978h13.875
	c24.167,0,43.83-19.662,43.83-43.83S309.02,182.061,284.852,182.061z M284.852,239.765h-13.875V225.89
	c0-7.651,6.224-13.875,13.875-13.875s13.875,6.224,13.875,13.875C298.726,233.541,292.502,239.765,284.852,239.765z"/>
<rect x="159.715" y="239.387" style="fill:#FFF8D5;" width="192.576" height="176.84"/>
<rect x="255.574" y="239.387" style="fill:#FFE97F;" width="96.718" height="176.84"/>
<polygon style="fill:#FFDB2D;" points="351.859,312.828 270.978,312.828 270.978,239.357 241.022,239.357 241.022,312.828 
	160.141,312.828 160.141,342.784 241.022,342.784 241.022,415.765 270.978,415.765 270.978,342.784 351.859,342.784 "/>
<polygon style="fill:#FCB72C;" points="270.978,312.828 270.978,239.357 256,239.357 256,415.765 270.978,415.765 270.978,342.784 
	351.859,342.784 351.859,312.828 "/>
<g>
</g>
<g>
</g>
<g>
</g>
<g>
</g>
<g>
</g>
<g>
</g>
<g>
</g>
<g>
</g>
<g>
</g>
<g>
</g>
<g>
</g>
<g>
</g>
<g>
</g>
<g>
</g>
<g>
</g>
</svg>
