<?xml version="1.0" encoding="iso-8859-1"?>
<!-- Generator: Adobe Illustrator 19.0.0, SVG Export Plug-In . SVG Version: 6.00 Build 0)  -->
<svg version="1.1" id="Capa_1" xmlns="http://www.w3.org/2000/svg" xmlns:xlink="http://www.w3.org/1999/xlink" x="0px" y="0px"
	 viewBox="0 0 512 512" style="enable-background:new 0 0 512 512;" xml:space="preserve">
<path style="fill:#ADACB2;" d="M457.883,79.003v225.949h-29.971V79.003c0-26.894-21.879-48.782-48.782-48.782
	s-48.782,21.889-48.782,48.782v108.754c0,39.292-31.969,71.26-71.27,71.26c-1.119,0-2.218-0.03-3.327-0.08
	c-37.753-1.738-67.934-32.998-67.934-71.18V82.34c0-28.742-23.377-52.119-52.119-52.119c-28.732,0-52.109,23.377-52.109,52.119
	v220.615H53.618V82.34c0-45.266,36.824-82.09,82.08-82.09c45.266,0,82.09,36.824,82.09,82.09v105.417
	c0,21.649,16.744,39.451,37.963,41.16c1.099,0.08,2.208,0.13,3.327,0.13c22.768,0,41.3-18.522,41.3-41.29V79.003
	c0-43.428,35.326-78.753,78.753-78.753S457.883,35.575,457.883,79.003z"/>
<path style="fill:#8A8891;" d="M457.883,79.003v225.949h-29.971V79.003c0-26.894-21.879-48.782-48.782-48.782
	s-48.782,21.889-48.782,48.782v108.754c0,39.292-31.969,71.26-71.27,71.26c-1.119,0-2.218-0.03-3.327-0.08v-30.021
	c1.099,0.08,2.208,0.13,3.327,0.13c22.768,0,41.3-18.522,41.3-41.29V79.003c0-43.428,35.326-78.753,78.753-78.753
	S457.883,35.575,457.883,79.003z"/>
<path style="fill:#6D76E6;" d="M119.633,341.916V460.72c0,28.133-22.898,51.03-51.03,51.03c-28.143,0-51.04-22.898-51.04-51.03
	V341.916H119.633z"/>
<path style="fill:#495AE3;" d="M119.633,341.916V460.72c0,28.133-22.898,51.03-51.03,51.03V341.916H119.633z"/>
<rect y="289.967" style="fill:#D8D8DA;" width="137.196" height="81.92"/>
<rect x="68.603" y="289.967" style="fill:#C7C5CC;" width="68.593" height="81.92"/>
<path style="fill:#6D76E6;" d="M494.437,341.916V460.72c0,28.133-22.898,51.03-51.03,51.03c-28.143,0-51.04-22.898-51.04-51.03
	V341.916H494.437z"/>
<path style="fill:#495AE3;" d="M494.437,341.916V460.72c0,28.133-22.898,51.03-51.03,51.03V341.916H494.437z"/>
<rect x="374.804" y="289.967" style="fill:#D8D8DA;" width="137.196" height="81.92"/>
<rect x="443.407" y="289.967" style="fill:#C7C5CC;" width="68.593" height="81.92"/>
<g>
</g>
<g>
</g>
<g>
</g>
<g>
</g>
<g>
</g>
<g>
</g>
<g>
</g>
<g>
</g>
<g>
</g>
<g>
</g>
<g>
</g>
<g>
</g>
<g>
</g>
<g>
</g>
<g>
</g>
</svg>
