<?xml version="1.0" encoding="iso-8859-1"?>
<!-- Generator: Adobe Illustrator 19.0.0, SVG Export Plug-In . SVG Version: 6.00 Build 0)  -->
<svg version="1.1" id="Layer_1" xmlns="http://www.w3.org/2000/svg" xmlns:xlink="http://www.w3.org/1999/xlink" x="0px" y="0px"
	 viewBox="0 0 512 512" style="enable-background:new 0 0 512 512;" xml:space="preserve">
<path style="fill:#FFCD60;" d="M435.756,0h-33.772v259.782l33.772-22.514c5.358,0,9.692-4.334,9.692-9.692V9.681
	C445.449,4.334,441.115,0,435.756,0z"/>
<path style="fill:#FFDB8A;" d="M401.984,0H57.672c-5.358,0-9.692,4.334-9.692,9.681v33.772L2.219,66.339l45.761,22.886v138.351
	c0,5.358,4.334,9.692,9.692,9.692h33.772l155.271,33.772l155.271-33.772c5.358,0,9.692-4.334,9.692-9.692V9.681
	C411.677,4.334,407.343,0,401.984,0z"/>
<path style="fill:#FF754F;" d="M410.878,482.112l14.375,29.832h22.514c15.738-0.856,28.244-13.88,28.244-29.832H410.878z"/>
<path style="fill:#FF9269;" d="M451.978,452.224c11.527,0.901,24.034,13.936,24.034,29.888c0,3.906-12.507,7.103-28.244,7.317
	h-60.643v-37.205H451.978z"/>
<path style="fill:#E2D8BD;" d="M413.996,511.944c-0.623-0.02-1.248,0-1.88,0H413.996z"/>
<path style="fill:#FF754F;" d="M409.637,274.425v22.514h74.523c12.259,0.045,25.621-13.306,25.621-29.787L409.637,274.425z"/>
<path style="fill:#FF9269;" d="M484.16,237.277c12.259,0.045,25.621,13.396,25.621,29.877c0,4.019-13.362,7.283-25.621,7.272
	h-74.523l15.615-37.157L484.16,237.277z"/>
<path style="fill:#FF754F;" d="M398.38,346.114v22.514h74.523c12.259,0.045,25.621-13.306,25.621-29.787L398.38,346.114z"/>
<path style="fill:#FF9269;" d="M472.903,308.965c12.259,0.045,25.621,13.396,25.621,29.877c0,4.019-13.362,7.283-25.621,7.272
	H398.38v-37.149H472.903z"/>
<path style="fill:#FF754F;" d="M387.124,417.743v22.514h74.523c12.259,0.045,25.621-13.306,25.621-29.787L387.124,417.743z"/>
<path style="fill:#FF9269;" d="M461.648,380.595c12.259,0.045,25.621,13.396,25.621,29.877c0,4.019-13.362,7.283-25.621,7.272
	h-74.523v-37.149H461.648z"/>
<path style="fill:#E2D8BD;" d="M413.996,443.329c0-0.053-1.88-0.053-1.88-0.053C412.747,443.275,413.373,443.295,413.996,443.329z"
	/>
<polygon style="fill:#FF754F;" points="425.253,489.429 425.253,511.944 178.799,512 159.234,455.714 "/>
<path style="fill:#FF9269;" d="M425.253,237.268v252.161H145.028l33.772-252.105h11.831c71.843,0,129.503-58.245,129.503-130.088
	c0-19.205,15.569-34.762,34.774-34.762c19.194,0,34.762,15.557,34.762,34.762c0,47.483-11.662,93.953-35.201,130.088
	L425.253,237.268z"/>
<rect x="88.741" y="237.324" style="fill:#FF0F47;" width="90.058" height="274.676"/>
<g>
</g>
<g>
</g>
<g>
</g>
<g>
</g>
<g>
</g>
<g>
</g>
<g>
</g>
<g>
</g>
<g>
</g>
<g>
</g>
<g>
</g>
<g>
</g>
<g>
</g>
<g>
</g>
<g>
</g>
</svg>
