<?xml version="1.0" encoding="iso-8859-1"?>
<!-- Generator: Adobe Illustrator 19.0.0, SVG Export Plug-In . SVG Version: 6.00 Build 0)  -->
<svg version="1.1" id="Capa_1" xmlns="http://www.w3.org/2000/svg" xmlns:xlink="http://www.w3.org/1999/xlink" x="0px" y="0px"
	 viewBox="0 0 55 55" style="enable-background:new 0 0 55 55;" xml:space="preserve">
<circle style="fill:none;stroke:#AFB6BB;stroke-width:2;stroke-miterlimit:10;" cx="26" cy="40.5" r="12"/>
<path style="fill:none;stroke:#AFB6BB;stroke-width:2;stroke-miterlimit:10;" d="M6,16.5v17.514v-0.973
	C6,43.796,14.704,52.5,25.459,52.5C38.367,52.5,49,45.056,49,32.149V27.5"/>
<circle style="fill:none;stroke:#AFB6BB;stroke-width:2;stroke-miterlimit:10;" cx="26" cy="37.5" r="15"/>
<path style="fill:#E7ECED;" d="M11,8.5v-7H1v7H0v5.206C0,14.144,0.356,14.5,0.794,14.5H4v-2h4v2h3.206
	c0.439,0,0.794-0.356,0.794-0.794V8.5H11z"/>
<path style="fill:#AFB6BB;" d="M6,18.5c-1.654,0-3-1.346-3-3v-4h6v4C9,17.154,7.654,18.5,6,18.5z M5,13.5v2c0,0.552,0.449,1,1,1
	s1-0.448,1-1v-2H5z"/>
<path style="fill:#AFB6BB;" d="M6,18.5c-1.654,0-3-1.346-3-3v-4h6v4C9,17.154,7.654,18.5,6,18.5z M5,13.5v2c0,0.552,0.449,1,1,1
	s1-0.448,1-1v-2H5z"/>
<path style="fill:#AFB6BB;" d="M6,18.5c-1.654,0-3-1.346-3-3v-4h6v4C9,17.154,7.654,18.5,6,18.5z M5,13.5v2c0,0.552,0.449,1,1,1
	s1-0.448,1-1v-2H5z"/>
<path style="fill:#AFB6BB;" d="M3,11.5v4c0,1.654,1.346,3,3,3s3-1.346,3-3v-4H3z"/>
<rect x="3" y="1.5" style="fill:#AFB6BB;" width="2" height="3"/>
<rect x="7" y="1.5" style="fill:#AFB6BB;" width="2" height="3"/>
<rect x="3" y="5.5" style="fill:#AFB6BB;" width="6" height="2"/>
<path style="fill:#E7ECED;" d="M54,18.5v-7H44v7h-1v5.206c0,0.439,0.356,0.794,0.794,0.794H47v-2h4v2h3.206
	c0.439,0,0.794-0.356,0.794-0.794V18.5H54z"/>
<rect x="46" y="11.5" style="fill:#AFB6BB;" width="2" height="3"/>
<rect x="50" y="11.5" style="fill:#AFB6BB;" width="2" height="3"/>
<rect x="46" y="15.5" style="fill:#AFB6BB;" width="6" height="2"/>
<path style="fill:#AFB6BB;" d="M46,22.5v4c0,1.654,1.346,3,3,3s3-1.346,3-3v-4H46z"/>
<g>
</g>
<g>
</g>
<g>
</g>
<g>
</g>
<g>
</g>
<g>
</g>
<g>
</g>
<g>
</g>
<g>
</g>
<g>
</g>
<g>
</g>
<g>
</g>
<g>
</g>
<g>
</g>
<g>
</g>
</svg>
