<?xml version="1.0" encoding="iso-8859-1"?>
<!-- Generator: Adobe Illustrator 19.0.0, SVG Export Plug-In . SVG Version: 6.00 Build 0)  -->
<svg version="1.1" id="Capa_1" xmlns="http://www.w3.org/2000/svg" xmlns:xlink="http://www.w3.org/1999/xlink" x="0px" y="0px"
	 viewBox="0 0 53 53" style="enable-background:new 0 0 53 53;" xml:space="preserve">
<rect x="44" y="11.5" style="fill:#AFB6BB;" width="8" height="7"/>
<path style="fill:#38454F;" d="M43,18.5v5.206c0,0.439,0.356,0.794,0.794,0.794H46v-2h4v2h2.206c0.439,0,0.794-0.356,0.794-0.794
	V18.5H43z"/>
<circle style="fill:none;stroke:#38454F;stroke-width:2;stroke-miterlimit:10;" cx="25" cy="39.5" r="12"/>
<path style="fill:none;stroke:#38454F;stroke-width:2;stroke-miterlimit:10;" d="M5,15.5v17.514v-0.973
	C5,42.796,13.704,51.5,24.459,51.5C37.367,51.5,48,44.056,48,31.149V26.5"/>
<path style="fill:#546A79;" d="M48,27.5L48,27.5c-1.105,0-2-0.895-2-2v-3h4v3C50,26.605,49.105,27.5,48,27.5z"/>
<path style="fill:#546A79;" d="M48,27.5L48,27.5c-1.105,0-2-0.895-2-2v-3h4v3C50,26.605,49.105,27.5,48,27.5z"/>
<path style="fill:#546A79;" d="M48,27.5L48,27.5c-1.105,0-2-0.895-2-2v-3h4v3C50,26.605,49.105,27.5,48,27.5z"/>
<path style="fill:#546A79;" d="M48,27.5L48,27.5c-1.105,0-2-0.895-2-2v-3h4v3C50,26.605,49.105,27.5,48,27.5z"/>
<circle style="fill:none;stroke:#38454F;stroke-width:2;stroke-miterlimit:10;" cx="25" cy="36.5" r="15"/>
<rect x="45" y="13.5" style="fill:#E7ECED;" width="2" height="2"/>
<rect x="49" y="13.5" style="fill:#E7ECED;" width="2" height="2"/>
<rect x="1" y="0.5" style="fill:#AFB6BB;" width="8" height="7"/>
<path style="fill:#38454F;" d="M0,7.5v5.206C0,13.144,0.356,13.5,0.794,13.5H3v-2h4v2h2.206C9.644,13.5,10,13.144,10,12.706V7.5H0z"
	/>
<path style="fill:#546A79;" d="M5,16.5L5,16.5c-1.105,0-2-0.895-2-2v-3h4v3C7,15.605,6.105,16.5,5,16.5z"/>
<path style="fill:#546A79;" d="M5,16.5L5,16.5c-1.105,0-2-0.895-2-2v-3h4v3C7,15.605,6.105,16.5,5,16.5z"/>
<path style="fill:#546A79;" d="M5,16.5L5,16.5c-1.105,0-2-0.895-2-2v-3h4v3C7,15.605,6.105,16.5,5,16.5z"/>
<path style="fill:#546A79;" d="M5,16.5L5,16.5c-1.105,0-2-0.895-2-2v-3h4v3C7,15.605,6.105,16.5,5,16.5z"/>
<rect x="2" y="2.5" style="fill:#E7ECED;" width="2" height="2"/>
<rect x="6" y="2.5" style="fill:#E7ECED;" width="2" height="2"/>
<g>
</g>
<g>
</g>
<g>
</g>
<g>
</g>
<g>
</g>
<g>
</g>
<g>
</g>
<g>
</g>
<g>
</g>
<g>
</g>
<g>
</g>
<g>
</g>
<g>
</g>
<g>
</g>
<g>
</g>
</svg>
