<?xml version="1.0" encoding="iso-8859-1"?>
<!-- Generator: Adobe Illustrator 19.0.0, SVG Export Plug-In . SVG Version: 6.00 Build 0)  -->
<svg version="1.1" id="Layer_1" xmlns="http://www.w3.org/2000/svg" xmlns:xlink="http://www.w3.org/1999/xlink" x="0px" y="0px"
	 viewBox="0 0 512 512" style="enable-background:new 0 0 512 512;" xml:space="preserve">
<polygon style="fill:#367596;" points="512,25.319 512,92.835 455.736,115.341 478.242,25.319 "/>
<polygon style="fill:#5195AF;" points="478.242,25.319 478.242,115.341 306.637,115.341 329.143,25.319 "/>
<polygon style="fill:#27467A;" points="0,25.319 0,92.835 33.758,115.341 329.143,115.341 329.143,25.319 "/>
<polygon style="fill:#A0F6FA;" points="512,92.835 512,486.681 478.242,486.681 433.231,289.758 478.242,92.835 "/>
<polygon style="fill:#F0FEFF;" points="33.758,92.835 78.769,289.758 33.758,486.681 0,486.681 0,92.835 "/>
<g>
	<rect x="33.758" y="92.835" style="fill:#D0FBFD;" width="444.484" height="393.846"/>
	<circle style="fill:#D0FBFD;" cx="403.692" cy="59.077" r="11.253"/>
	<circle style="fill:#D0FBFD;" cx="357.556" cy="59.077" r="11.253"/>
</g>
<circle style="fill:#78E3EC;" cx="449.829" cy="59.077" r="11.253"/>
<path style="fill:#367596;" d="M324.146,304.142c-3.297-3.296-8.64-3.296-11.936,0l-62.177,62.177l5.968,14.407
	c2.159,0,4.32-0.824,5.968-2.472l62.177-62.177C327.44,312.781,327.44,307.437,324.146,304.142z"/>
<path style="fill:#25BBCC;" d="M127.359,243.645h42.558v42.558c-22.022,22.033-35.649,52.46-35.649,86.083H74.066
	C74.066,322.054,94.433,276.57,127.359,243.645z"/>
<path style="fill:#50D1DD;" d="M256,190.351l22.505,30.101L256,250.554c-33.623,0-64.051,13.627-86.084,35.649l-42.558-42.558
	C160.284,210.719,205.768,190.351,256,190.351z"/>
<path style="fill:#FF0F47;" d="M256,190.351c50.232,0,95.716,20.367,128.641,53.293v42.558h-42.558
	c-22.033-22.022-52.46-35.649-86.084-35.649V190.351z"/>
<circle style="fill:#27467A;" cx="256" cy="372.286" r="16.879"/>
<path style="fill:#C20035;" d="M437.934,372.286h-60.202c0-33.623-13.627-64.051-35.649-86.083l42.558-42.558
	C417.567,276.57,437.934,322.054,437.934,372.286z"/>
<g>
</g>
<g>
</g>
<g>
</g>
<g>
</g>
<g>
</g>
<g>
</g>
<g>
</g>
<g>
</g>
<g>
</g>
<g>
</g>
<g>
</g>
<g>
</g>
<g>
</g>
<g>
</g>
<g>
</g>
</svg>
