<?xml version="1.0" encoding="iso-8859-1"?>
<!-- Generator: Adobe Illustrator 19.0.0, SVG Export Plug-In . SVG Version: 6.00 Build 0)  -->
<svg version="1.1" id="Layer_1" xmlns="http://www.w3.org/2000/svg" xmlns:xlink="http://www.w3.org/1999/xlink" x="0px" y="0px"
	 viewBox="0 0 512 512" style="enable-background:new 0 0 512 512;" xml:space="preserve">
<path style="fill:#FFCD60;" d="M406.224,0h-33.758v190.734l43.447-22.505V9.677C415.913,4.332,411.581,0,406.224,0z"/>
<path style="fill:#FFDB8A;" d="M372.466,0H55.431c-5.356,0-9.689,4.332-9.689,9.677v33.758L0,66.312l45.742,22.877v79.039
	l33.758,22.505h302.654V9.677C382.155,4.332,377.822,0,372.466,0z"/>
<path style="fill:#27467A;" d="M382.155,168.229l-9.689,67.516h33.758c5.356,0,9.689-4.332,9.689-9.689v-57.828H382.155z"/>
<path style="fill:#2F5E88;" d="M45.742,168.229v57.828c0,5.356,4.332,9.689,9.689,9.689h317.035c5.356,0,9.689-4.332,9.689-9.689
	v-57.828H45.742z"/>
<path style="fill:#111449;" d="M359.648,210.426H102.007c-4.661,0-8.44-3.779-8.44-8.44c0-4.661,3.779-8.44,8.44-8.44h257.641
	c4.662,0,8.44,3.779,8.44,8.44C368.088,206.648,364.31,210.426,359.648,210.426z"/>
<polygon style="fill:#FF0F47;" points="193.82,46.136 267.837,84.114 193.82,122.092 "/>
<path style="fill:#FFCD60;" d="M456.569,276.255c5.356,0,9.689,4.332,9.689,9.677v33.758L512,342.567l-45.742,22.877v79.039
	l-43.447,22.505V276.255H456.569z"/>
<path style="fill:#FFDB8A;" d="M422.811,276.255H105.776c-5.356,0-9.689,4.332-9.689,9.677v158.551l33.758,22.505h302.654V285.932
	C432.499,280.587,428.167,276.255,422.811,276.255z"/>
<path style="fill:#27467A;" d="M432.499,444.484h33.758v57.828c0,5.356-4.332,9.689-9.689,9.689h-33.758L432.499,444.484z"/>
<path style="fill:#2F5E88;" d="M96.087,444.484v57.828c0,5.356,4.332,9.689,9.689,9.689h317.035c5.356,0,9.689-4.332,9.689-9.689
	v-57.828H96.087z"/>
<path style="fill:#111449;" d="M152.352,486.681h257.641c4.661,0,8.44-3.779,8.44-8.44s-3.779-8.44-8.44-8.44H152.352
	c-4.662,0-8.44,3.779-8.44,8.44S147.69,486.681,152.352,486.681z"/>
<polygon style="fill:#FF0F47;" points="244.163,322.391 318.18,360.369 244.163,398.347 "/>
<g>
</g>
<g>
</g>
<g>
</g>
<g>
</g>
<g>
</g>
<g>
</g>
<g>
</g>
<g>
</g>
<g>
</g>
<g>
</g>
<g>
</g>
<g>
</g>
<g>
</g>
<g>
</g>
<g>
</g>
</svg>
