<?xml version="1.0" encoding="iso-8859-1"?>
<!-- Generator: Adobe Illustrator 19.0.0, SVG Export Plug-In . SVG Version: 6.00 Build 0)  -->
<svg version="1.1" id="Capa_1" xmlns="http://www.w3.org/2000/svg" xmlns:xlink="http://www.w3.org/1999/xlink" x="0px" y="0px"
	 viewBox="0 0 512 512" style="enable-background:new 0 0 512 512;" xml:space="preserve">
<path style="fill:#ADACB2;" d="M340,98.24v47.2h-30v-47.2c0-5.3-4.32-9.61-9.62-9.61h-88.76c-5.3,0-9.62,4.31-9.62,9.61v45.75h-30
	V98.24c0-21.84,17.78-39.61,39.62-39.61h88.76C322.22,58.63,340,76.4,340,98.24z"/>
<path style="fill:#8A8891;" d="M300.38,88.63H256v-30h44.38c21.84,0,39.62,17.77,39.62,39.61v47.2h-30v-47.2
	C310,92.94,305.68,88.63,300.38,88.63z"/>
<path style="fill:#FF3100;" d="M512,256.54v196.83H0V256.54c0-58.91,40.15-108.62,94.52-123.22c9.6-2.57,19.65-4.05,30-4.29
	c1.01-0.03,2.02-0.04,3.03-0.04h256.9c1.53,0,3.06,0.03,4.58,0.08c10.36,0.37,20.41,1.98,30,4.69
	C472.61,148.86,512,198.19,512,256.54z"/>
<path style="fill:#C91C00;" d="M512,256.54v196.83H256V128.99h128.45c1.53,0,3.06,0.03,4.58,0.08c10.36,0.37,20.41,1.98,30,4.69
	C472.61,148.86,512,198.19,512,256.54z"/>
<rect y="380.49" style="fill:#FFA920;" width="512" height="72.88"/>
<rect x="256" y="380.49" style="fill:#FF8800;" width="256" height="72.88"/>
<path style="fill:#FFDAA8;" d="M124.52,371.7V129.03c-10.35,0.24-20.4,1.72-30,4.29V371.7H0v30h512v-30H124.52z"/>
<rect x="290" y="236.99" style="fill:#FFA920;" width="30" height="44"/>
<path style="fill:#FFC373;" d="M419.03,371.7V133.76c-9.59-2.71-19.64-4.32-30-4.69V371.7H256v30h256v-30H419.03z"/>
<rect x="172.27" y="221.99" style="fill:#ADACB2;" width="167.46" height="30"/>
<rect x="256" y="221.99" style="fill:#8A8891;" width="83.73" height="30"/>
<g>
</g>
<g>
</g>
<g>
</g>
<g>
</g>
<g>
</g>
<g>
</g>
<g>
</g>
<g>
</g>
<g>
</g>
<g>
</g>
<g>
</g>
<g>
</g>
<g>
</g>
<g>
</g>
<g>
</g>
</svg>
