<?xml version="1.0" encoding="iso-8859-1"?>
<!-- Generator: Adobe Illustrator 19.0.0, SVG Export Plug-In . SVG Version: 6.00 Build 0)  -->
<svg version="1.1" id="Capa_1" xmlns="http://www.w3.org/2000/svg" xmlns:xlink="http://www.w3.org/1999/xlink" x="0px" y="0px"
	 viewBox="0 0 58 58" style="enable-background:new 0 0 58 58;" xml:space="preserve">
<rect x="6" y="28" style="fill:#CBD4D8;" width="4" height="7"/>
<rect x="48" y="28" style="fill:#CBD4D8;" width="4" height="7"/>
<path style="fill:#839594;" d="M5,55L5,55c-2.761,0-5-2.239-5-5V40c0-2.761,2.239-5,5-5h0V55z"/>
<path style="fill:#839594;" d="M53,55L53,55l0-20h0c2.761,0,5,2.239,5,5v10C58,52.761,55.761,55,53,55z"/>
<path style="fill:#E7ECED;" d="M11,44c-0.552,0-1-0.447-1-1s0.448-1,1-1h3v-2h-3c-0.552,0-1-0.447-1-1s0.448-1,1-1h2.916
	c-0.362-1.713-1.881-3-3.702-3h-4.73C5.216,35,5,35.216,5,35.483V54.71C5,54.87,5.13,55,5.29,55h5.224c1.759,0,3.199-1.307,3.437-3
	H11c-0.552,0-1-0.447-1-1s0.448-1,1-1h3v-2h-3c-0.552,0-1-0.447-1-1s0.448-1,1-1h3v-2H11z"/>
<path style="fill:#839594;" d="M10,39c0,0.553,0.448,1,1,1h3v-1.213c0-0.27-0.03-0.533-0.084-0.787H11C10.448,38,10,38.447,10,39z"
	/>
<path style="fill:#839594;" d="M10,43c0,0.553,0.448,1,1,1h3v-2h-3C10.448,42,10,42.447,10,43z"/>
<path style="fill:#839594;" d="M10,47c0,0.553,0.448,1,1,1h3v-2h-3C10.448,46,10,46.447,10,47z"/>
<path style="fill:#839594;" d="M10,51c0,0.553,0.448,1,1,1h2.951C13.974,51.84,14,51.68,14,51.514V50h-3C10.448,50,10,50.447,10,51z
	"/>
<path style="fill:#E7ECED;" d="M52.669,35h-4.883c-1.821,0-3.34,1.287-3.702,3H47c0.552,0,1,0.447,1,1s-0.448,1-1,1h-3v2h3
	c0.552,0,1,0.447,1,1s-0.448,1-1,1h-3v2h3c0.552,0,1,0.447,1,1s-0.448,1-1,1h-3v2h3c0.552,0,1,0.447,1,1s-0.448,1-1,1h-2.951
	c0.238,1.693,1.678,3,3.437,3h5.224c0.16,0,0.29-0.13,0.29-0.29v-19.38C53,35.148,52.852,35,52.669,35z"/>
<path style="fill:#839594;" d="M48,39c0-0.553-0.448-1-1-1h-2.916C44.03,38.254,44,38.517,44,38.787V40h3C47.552,40,48,39.553,48,39
	z"/>
<path style="fill:#839594;" d="M48,43c0-0.553-0.448-1-1-1h-3v2h3C47.552,44,48,43.553,48,43z"/>
<path style="fill:#839594;" d="M48,47c0-0.553-0.448-1-1-1h-3v2h3C47.552,48,48,47.553,48,47z"/>
<path style="fill:#839594;" d="M48,51c0-0.553-0.448-1-1-1h-3v1.514c0,0.167,0.026,0.326,0.049,0.486H47C47.552,52,48,51.553,48,51z
	"/>
<path style="fill:#CBD4D8;" d="M43.483,14.495c-0.72,0.661-1.811,0.655-2.549,0.015C38.307,12.236,32.514,11,29,11
	s-9.307,1.236-11.934,3.511c-0.739,0.64-1.83,0.646-2.549-0.015l-3.101-2.85c-0.818-0.752-0.835-2.056-0.012-2.801
	C15.527,5.109,23.423,3,29,3s13.473,2.109,17.596,5.844c0.823,0.746,0.806,2.05-0.012,2.801L43.483,14.495z"/>
<g>
	<path style="fill:#E0E1E2;" d="M14.517,14.495l-3.101-2.85c-0.258-0.237-0.426-0.531-0.524-0.843C7.219,14.868,5,20.396,5,26.386
		V28h6v-1.614c0-4.366,1.622-8.462,4.304-11.466C15.02,14.844,14.748,14.708,14.517,14.495z"/>
	<path style="fill:#E0E1E2;" d="M46.949,11.169c-0.097,0.172-0.212,0.335-0.365,0.476l-3.101,2.85
		c-0.353,0.324-0.794,0.486-1.24,0.493C45.147,17.987,47,22.051,47,26.386V28h6v-1.614C53,20.574,50.676,15.198,46.949,11.169z"/>
</g>
<g>
</g>
<g>
</g>
<g>
</g>
<g>
</g>
<g>
</g>
<g>
</g>
<g>
</g>
<g>
</g>
<g>
</g>
<g>
</g>
<g>
</g>
<g>
</g>
<g>
</g>
<g>
</g>
<g>
</g>
</svg>
