<?xml version="1.0" encoding="iso-8859-1"?>
<!-- Generator: Adobe Illustrator 19.0.0, SVG Export Plug-In . SVG Version: 6.00 Build 0)  -->
<svg version="1.1" id="Capa_1" xmlns="http://www.w3.org/2000/svg" xmlns:xlink="http://www.w3.org/1999/xlink" x="0px" y="0px"
	 viewBox="0 0 512.006 512.006" style="enable-background:new 0 0 512.006 512.006;" xml:space="preserve">
<rect x="33.827" y="33.147" style="fill:#5B5B5B;" width="445.344" height="402.737"/>
<rect x="257.501" y="33.147" width="221.674" height="402.737"/>
<path style="fill:#FD0023;" d="M102.559,419.003c0-26.299-1.886-52.835-5.605-78.871l-6.058-42.407l6.243-5.35
	C134.58,260.283,198.533,95.011,220.341,33.146H21.678v402.74h80.881V419.003z"/>
<path style="fill:#DC001E;" d="M71.798,309.309l-27.813-11.126l1.219-3.048c9.789-24.471,14.751-50.242,14.751-76.597h29.956
	c0,30.184-5.684,59.698-16.894,87.723L71.798,309.309z"/>
<rect x="21.678" y="288.771" style="fill:#FFE97F;" width="74.56" height="29.956"/>
<path style="fill:#DC001E;" d="M409.44,419.003c0-26.299,1.886-52.835,5.605-78.871l6.058-42.407l-6.243-5.35
	c-37.44-32.093-101.393-197.364-123.203-259.23h198.663v402.74H409.44V419.003z"/>
<path style="fill:#B6001A;" d="M440.202,309.309l27.813-11.126l-1.219-3.048c-9.789-24.471-14.751-50.242-14.751-76.597h-29.956
	c0,30.184,5.684,59.698,16.894,87.723L440.202,309.309z"/>
<rect x="415.768" y="288.771" style="fill:#FFDB2D;" width="74.56" height="29.956"/>
<rect y="410.252" style="fill:#D19E6E;" width="511.996" height="68.609"/>
<rect x="256.003" y="410.252" style="fill:#A98059;" width="256.003" height="68.609"/>
<g>
</g>
<g>
</g>
<g>
</g>
<g>
</g>
<g>
</g>
<g>
</g>
<g>
</g>
<g>
</g>
<g>
</g>
<g>
</g>
<g>
</g>
<g>
</g>
<g>
</g>
<g>
</g>
<g>
</g>
</svg>
