<?xml version="1.0" encoding="iso-8859-1"?>
<!-- Generator: Adobe Illustrator 18.0.0, SVG Export Plug-In . SVG Version: 6.00 Build 0)  -->
<!DOCTYPE svg PUBLIC "-//W3C//DTD SVG 1.1//EN" "http://www.w3.org/Graphics/SVG/1.1/DTD/svg11.dtd">
<svg version="1.1" id="Capa_1" xmlns="http://www.w3.org/2000/svg" xmlns:xlink="http://www.w3.org/1999/xlink" x="0px" y="0px"
	 viewBox="0 0 58 58" style="enable-background:new 0 0 58 58;" xml:space="preserve">
<g>
	<path style="fill:#5E5D58;" d="M54.841,18H3.159C1.414,18,0,16.586,0,14.841v37.818C0,53.952,1.048,55,2.341,55h53.319
		C56.952,55,58,53.952,58,52.659V14.841C58,16.586,56.586,18,54.841,18z"/>
	<path style="fill:#3F3E3A;" d="M6.018,58H3.982C3.44,58,3,57.56,3,57.018V55h4v2.018C7,57.56,6.56,58,6.018,58z"/>
	<path style="fill:#3F3E3A;" d="M54.018,58h-2.035C51.44,58,51,57.56,51,57.018V55h4v2.018C55,57.56,54.56,58,54.018,58z"/>
	<rect x="11" y="18" style="fill:#686763;" width="9" height="37"/>
	<rect x="38" y="18" style="fill:#686763;" width="9" height="37"/>
	<path style="fill:#3F3E3A;" d="M54.841,6h-8.873H38v6h-4V6H24v6h-4V6h-3.906H3.159C1.414,6,0,7.414,0,9.159v5.683
		C0,16.586,1.414,18,3.159,18h51.683C56.586,18,58,16.586,58,14.841V9.159C58,7.414,56.586,6,54.841,6z M13,14H5v-4h8V14z"/>
	<rect x="53" y="11" style="fill:#5E5D58;" width="5" height="2"/>
	<rect x="5" y="10" style="fill:#FFD16C;" width="8" height="4"/>
	<rect x="13" y="11" style="fill:#5E5D58;" width="32" height="2"/>
	<rect y="11" style="fill:#5E5D58;" width="5" height="2"/>
	<rect x="7" y="10" style="fill:#B19046;" width="2" height="4"/>
	<rect x="45" y="10" style="fill:#FFD16C;" width="8" height="4"/>
	<rect x="49" y="10" style="fill:#B19046;" width="2" height="4"/>
	<path style="fill:#B19046;" d="M20,3.364V13h4V4.633C24,4.283,24.283,4,24.633,4h8.734C33.717,4,34,4.283,34,4.633V13h4V3.364
		C38,1.506,36.494,0,34.636,0H23.364C21.506,0,20,1.506,20,3.364z"/>
</g>
<g>
</g>
<g>
</g>
<g>
</g>
<g>
</g>
<g>
</g>
<g>
</g>
<g>
</g>
<g>
</g>
<g>
</g>
<g>
</g>
<g>
</g>
<g>
</g>
<g>
</g>
<g>
</g>
<g>
</g>
</svg>
