<?xml version="1.0" encoding="iso-8859-1"?>
<!-- Generator: Adobe Illustrator 19.0.0, SVG Export Plug-In . SVG Version: 6.00 Build 0)  -->
<svg version="1.1" id="Capa_1" xmlns="http://www.w3.org/2000/svg" xmlns:xlink="http://www.w3.org/1999/xlink" x="0px" y="0px"
	 viewBox="0 0 512 512" style="enable-background:new 0 0 512 512;" xml:space="preserve">
<rect x="170.684" y="117.392" style="fill:#FFFFFF;" width="170.644" height="330.619"/>
<rect x="256.001" y="117.392" style="fill:#DCF3FD;" width="85.317" height="330.619"/>
<polygon style="fill:#5B5B5B;" points="511.392,123.726 340.476,123.726 256,439.045 171.524,123.726 0.608,123.726 61.598,251.706 
	2.256,251.706 195.121,512 236.455,512 275.545,512 316.879,512 509.744,251.706 450.402,251.706 "/>
<polygon points="511.392,123.726 340.476,123.726 256,439.045 256,512 275.545,512 316.879,512 509.744,251.706 450.402,251.706 "/>
<path style="fill:#FD0023;" d="M110.474,15.933c-15.988,53.293-15.988,109.631,0,162.925l4.779,15.933l117.168-48.819V48.819
	L115.254,0L110.474,15.933z"/>
<path style="fill:#DC001E;" d="M401.526,15.933L396.746,0L279.578,48.819v97.15l117.168,48.819l4.779-15.933
	C417.513,125.564,417.513,69.224,401.526,15.933z"/>
<rect x="223.756" y="45.413" style="fill:#5B5B5B;" width="64.49" height="103.974"/>
<rect x="256.001" y="45.413" width="32.245" height="103.974"/>
<g>
</g>
<g>
</g>
<g>
</g>
<g>
</g>
<g>
</g>
<g>
</g>
<g>
</g>
<g>
</g>
<g>
</g>
<g>
</g>
<g>
</g>
<g>
</g>
<g>
</g>
<g>
</g>
<g>
</g>
</svg>
