<?xml version="1.0" encoding="iso-8859-1"?>
<!-- Generator: Adobe Illustrator 19.0.0, SVG Export Plug-In . SVG Version: 6.00 Build 0)  -->
<svg version="1.1" id="Capa_1" xmlns="http://www.w3.org/2000/svg" xmlns:xlink="http://www.w3.org/1999/xlink" x="0px" y="0px"
	 viewBox="0 0 400 400" style="enable-background:new 0 0 400 400;" xml:space="preserve">
<g id="XMLID_467_">
	<path id="XMLID_468_" style="fill:#DEDDE0;" d="M180,360c0-11.046,8.954-20,20-20v-20H80v-30V60V30h120V0H50v400h150v-20
		C188.954,380,180,371.046,180,360z"/>
	<path id="XMLID_469_" style="fill:#ACABB1;" d="M200,0v30h120v30v230v30H200v20c11.046,0,20,8.954,20,20s-8.954,20-20,20v20h150V0
		H200z"/>
	<polygon id="XMLID_470_" style="fill:#FFFFFF;" points="80,60 320,60 320,30 200,30 80,30 	"/>
	<polygon id="XMLID_472_" style="fill:#FFFFFF;" points="185,290 155,290 125,290 80,290 80,320 200,320 320,320 320,290 215,290 	
		"/>
	<path id="XMLID_473_" style="fill:#FFDA44;" d="M80,60v230h45v-30v0v-79.999h30V260v0v30h30v-30V130h30v130v30h105V60H80z M245,260
		V89.999h30V260v30h-30V260z"/>
	<circle id="XMLID_476_" style="fill:#FFFFFF;" cx="200" cy="360" r="20"/>
	<rect id="XMLID_477_" x="125" y="260" style="fill:#FF9811;" width="30" height="30"/>
	<polygon id="XMLID_478_" style="fill:#FFFFFF;" points="155,260 155,180.001 125,180.001 125,260 125,260 155,260 	"/>
	<rect id="XMLID_479_" x="185" y="260" style="fill:#FF5023;" width="30" height="30"/>
	<rect id="XMLID_481_" x="185" y="130" style="fill:#FFFFFF;" width="30" height="130"/>
	<rect id="XMLID_482_" x="245" y="260" style="fill:#D80027;" width="30" height="30"/>
	<rect id="XMLID_483_" x="245" y="89.999" style="fill:#FFFFFF;" width="30" height="170.001"/>
</g>
<g>
</g>
<g>
</g>
<g>
</g>
<g>
</g>
<g>
</g>
<g>
</g>
<g>
</g>
<g>
</g>
<g>
</g>
<g>
</g>
<g>
</g>
<g>
</g>
<g>
</g>
<g>
</g>
<g>
</g>
</svg>
