<?xml version="1.0" encoding="iso-8859-1"?>
<!-- Generator: Adobe Illustrator 19.0.0, SVG Export Plug-In . SVG Version: 6.00 Build 0)  -->
<svg version="1.1" id="Layer_1" xmlns="http://www.w3.org/2000/svg" xmlns:xlink="http://www.w3.org/1999/xlink" x="0px" y="0px"
	 viewBox="0 0 512 512" style="enable-background:new 0 0 512 512;" xml:space="preserve">
<path style="fill:#FFCD9C;" d="M391.308,82.405H0v313.43h155l270.066-279.671L391.308,82.405z"/>
<polygon style="fill:#FF4719;" points="33.758,395.837 33.758,429.595 425.061,429.595 512,343.084 512,295.462 "/>
<path style="fill:#FF754F;" d="M425.061,116.161H33.758v279.676H411.13L512,295.462v-92.79L425.061,116.161z M450.11,289.757
	c-9.322,0-16.879-7.548-16.879-16.871c0-9.322,7.557-16.887,16.879-16.887c9.322,0,16.879,7.557,16.879,16.879
	S459.432,289.757,450.11,289.757z"/>
<g>
	<path style="fill:#FFCD9C;" d="M279.479,192.421c4.661-0.001,8.438-3.78,8.437-8.441c-0.001-4.661-3.779-8.438-8.44-8.438
		c-0.001,0-77.335,0.018-77.335,0.018c-4.66,0.001-8.437,3.779-8.437,8.44v177.775c0,4.661,3.779,8.44,8.44,8.44h77.332
		c4.661,0,8.44-3.779,8.44-8.44s-3.779-8.44-8.44-8.44h-68.893v-72.01h45.696c4.661,0,8.44-3.779,8.44-8.44s-3.779-8.44-8.44-8.44
		h-45.696v-72.01L279.479,192.421z"/>
	<path style="fill:#FFCD9C;" d="M126.233,192.421c17.568,0,31.86,14.292,31.86,31.86c0,4.661,3.779,8.44,8.44,8.44
		c4.661,0,8.44-3.779,8.44-8.44c0-26.875-21.864-48.739-48.739-48.739s-48.739,21.864-48.739,48.739
		c0,35.087,28.22,48.327,45.08,56.238c19.351,9.079,35.37,18.428,35.37,40.956c0,17.568-14.292,31.86-31.86,31.86
		s-31.86-14.292-31.86-31.86c0-4.661-3.779-8.44-8.44-8.44s-8.44,3.779-8.44,8.44c0,26.875,21.864,48.739,48.739,48.739
		s48.739-21.864,48.739-48.739c0-35.088-28.22-48.327-45.08-56.238c-19.351-9.079-35.37-18.427-35.37-40.957
		C94.373,206.713,108.667,192.421,126.233,192.421z"/>
	<path style="fill:#FFCD9C;" d="M341.053,175.542c-26.874,0-48.739,21.864-48.739,48.726l-0.149,97.207
		c0,26.875,21.864,48.739,48.739,48.739s48.739-21.864,48.739-48.739V224.28C389.643,197.406,367.846,175.542,341.053,175.542z
		 M372.764,321.475c0,17.568-14.292,31.86-31.86,31.86c-17.568,0-31.86-14.292-31.86-31.846l0.149-97.207
		c0-17.568,14.292-31.86,31.86-31.86c17.486,0,31.711,14.292,31.711,31.86V321.475z"/>
</g>
<g>
</g>
<g>
</g>
<g>
</g>
<g>
</g>
<g>
</g>
<g>
</g>
<g>
</g>
<g>
</g>
<g>
</g>
<g>
</g>
<g>
</g>
<g>
</g>
<g>
</g>
<g>
</g>
<g>
</g>
</svg>
