<?xml version="1.0" encoding="iso-8859-1"?>
<!-- Generator: Adobe Illustrator 19.0.0, SVG Export Plug-In . SVG Version: 6.00 Build 0)  -->
<svg version="1.1" id="Capa_1" xmlns="http://www.w3.org/2000/svg" xmlns:xlink="http://www.w3.org/1999/xlink" x="0px" y="0px"
	 viewBox="0 0 512 512" style="enable-background:new 0 0 512 512;" xml:space="preserve">
<path style="fill:#FF3100;" d="M452.94,222.36V512H59.06V222.44l6.28-4.49c17.78-12.69,31.58-33.23,41.01-61.06
	c6.7-19.77,10.1-40.88,10.1-62.73V0h84.49v49.75c0,18.07,5.71,32.23,17.45,43.29c10.55,9.94,24.08,14.9,37.61,14.9
	s27.06-4.96,37.61-14.9c11.74-11.06,17.45-25.22,17.45-43.29V0h84.49v96.07c0,12.75,1.37,25.3,4.07,37.33
	c5.15,22.86,18.08,64.23,46.94,84.48L452.94,222.36z"/>
<path style="fill:#C91C00;" d="M452.94,222.36V512H256V107.94c13.53,0,27.06-4.96,37.61-14.9c11.74-11.06,17.45-25.22,17.45-43.29V0
	h84.49v96.07c0,12.75,1.37,25.3,4.07,37.33c5.15,22.86,18.08,64.23,46.94,84.48L452.94,222.36z"/>
<rect x="59.06" y="421.35" style="fill:#FFA920;" width="393.88" height="30"/>
<path style="fill:#FFDAA8;" d="M155.86,361.333h85.587v-144H155.86V361.333z M185.86,247.333h25.587v84H185.86V247.333z"/>
<path style="fill:#FFC373;" d="M267.738,217.333v144h85.587v-144L267.738,217.333L267.738,217.333z M323.325,247.333v27h-25.587v-27
	L323.325,247.333L323.325,247.333z M297.738,331.333v-27h25.587v27H297.738z"/>
<rect x="256" y="421.35" style="fill:#FF8800;" width="196.94" height="30"/>
<g>
</g>
<g>
</g>
<g>
</g>
<g>
</g>
<g>
</g>
<g>
</g>
<g>
</g>
<g>
</g>
<g>
</g>
<g>
</g>
<g>
</g>
<g>
</g>
<g>
</g>
<g>
</g>
<g>
</g>
</svg>
