<?xml version="1.0" encoding="iso-8859-1"?>
<!-- Generator: Adobe Illustrator 19.0.0, SVG Export Plug-In . SVG Version: 6.00 Build 0)  -->
<svg version="1.1" id="Layer_1" xmlns="http://www.w3.org/2000/svg" xmlns:xlink="http://www.w3.org/1999/xlink" x="0px" y="0px"
	 viewBox="0 0 512 512" style="enable-background:new 0 0 512 512;" xml:space="preserve">
<path style="fill:#E02E00;" d="M214.089,83.822V512c118.334,0,214.089-95.755,214.089-214.089S332.423,83.822,214.089,83.822z"/>
<path style="fill:#FF4719;" d="M214.089,83.822C95.74,83.837,0,179.586,0,297.911C0,416.245,95.755,512,214.089,512
	c99.675,0,180.331-95.755,180.331-214.089S313.764,83.822,214.089,83.822z"/>
<path style="fill:#C7E7EB;" d="M214.089,155.184v285.453c78.89,0,142.726-63.837,142.726-142.727S292.979,155.184,214.089,155.184z"
	/>
<path style="fill:#E5FAFC;" d="M214.089,155.184c-78.89,0-142.726,63.837-142.726,142.726S135.2,440.637,214.089,440.637
	c63.341,0,114.595-63.837,114.595-142.727S277.43,155.184,214.089,155.184z"/>
<path style="fill:#C20035;" d="M214.089,226.548v142.727c39.444,0,71.363-31.918,71.363-71.363S253.533,226.548,214.089,226.548z"/>
<path style="fill:#FF0F47;" d="M214.089,226.548c-39.445,0-71.363,31.918-71.363,71.363s31.918,71.363,71.363,71.363
	c27.005,0,48.858-31.918,48.858-71.363S241.095,226.548,214.089,226.548z"/>
<polygon style="fill:#367596;" points="464.255,0 455.556,56.444 395.297,116.703 403.995,60.26 "/>
<polygon style="fill:#27467A;" points="512,47.745 451.74,108.005 395.297,116.703 455.556,56.444 "/>
<path style="fill:#111449;" d="M214.095,306.345c-2.159,0-4.32-0.824-5.967-2.471c-3.296-3.297-3.296-8.64,0-11.936L457.545,42.519
	c3.297-3.295,8.64-3.295,11.936,0c3.296,3.297,3.296,8.64,0,11.936L220.062,303.874
	C218.414,305.521,216.254,306.345,214.095,306.345z"/>
<g>
</g>
<g>
</g>
<g>
</g>
<g>
</g>
<g>
</g>
<g>
</g>
<g>
</g>
<g>
</g>
<g>
</g>
<g>
</g>
<g>
</g>
<g>
</g>
<g>
</g>
<g>
</g>
<g>
</g>
</svg>
