<?xml version="1.0" encoding="iso-8859-1"?>
<!-- Generator: Adobe Illustrator 19.0.0, SVG Export Plug-In . SVG Version: 6.00 Build 0)  -->
<svg version="1.1" id="Capa_1" xmlns="http://www.w3.org/2000/svg" xmlns:xlink="http://www.w3.org/1999/xlink" x="0px" y="0px"
	 viewBox="0 0 355 355" style="enable-background:new 0 0 355 355;" xml:space="preserve">
<g id="XMLID_1175_">
	<path id="XMLID_1185_" style="fill:#FF5023;" d="M260,77.5v-55H130v310h130v-65c52.383,0,95-42.617,95-95S312.383,77.5,260,77.5z
		 M260,237.5v-130c35.841,0,65,29.159,65,65S295.841,237.5,260,237.5z"/>
	<path id="XMLID_1188_" style="fill:#FF9811;" d="M80,22.5v119.999H50V22.5H0v310h130v-310H80z M100,222.5H30v-56l20-24h30l20,24
		V222.5z"/>
	<polygon id="XMLID_1191_" style="fill:#FFFFFF;" points="50,142.5 30,166.5 30,222.5 100,222.5 100,166.5 80,142.5 	"/>
	<rect id="XMLID_1192_" x="50" y="22.5" style="fill:#FFDA44;" width="30" height="119.999"/>
</g>
<g>
</g>
<g>
</g>
<g>
</g>
<g>
</g>
<g>
</g>
<g>
</g>
<g>
</g>
<g>
</g>
<g>
</g>
<g>
</g>
<g>
</g>
<g>
</g>
<g>
</g>
<g>
</g>
<g>
</g>
</svg>
