<?xml version="1.0" encoding="iso-8859-1"?>
<!-- Generator: Adobe Illustrator 19.0.0, SVG Export Plug-In . SVG Version: 6.00 Build 0)  -->
<svg version="1.1" id="Capa_1" xmlns="http://www.w3.org/2000/svg" xmlns:xlink="http://www.w3.org/1999/xlink" x="0px" y="0px"
	 viewBox="0 0 360 360" style="enable-background:new 0 0 360 360;" xml:space="preserve">
<g id="XMLID_8_">
	<g id="XMLID_1138_">
		<polygon id="XMLID_1139_" style="fill:#818085;" points="210,85 250,85 250,105 280,105 293.846,135 352.5,135 330,45 180,45 
			30,45 7.5,135 66.154,135 80,105 110,105 110,85 150,85 150,105 180,105 210,105 		"/>
		<polygon id="XMLID_1140_" style="fill:#DEDDE0;" points="360,135 352.5,135 293.846,135 307.692,165 360,165 		"/>
		<path id="XMLID_1141_" style="fill:#BDBCC1;" d="M280,105h-30V85h-40v20h-30v30c24.536,0,46.318,11.785,60.001,30
			C249.417,177.535,255,193.115,255,210c0,41.422-33.579,75-75,75v30h160v-80l-32.308-70l-13.846-30L280,105z"/>
	</g>
	<path id="XMLID_1142_" style="fill:#DEDDE0;" d="M105,210c0-41.422,33.579-75,75-75v-30h-30V85h-40v20H80l-13.846,30l0,0H7.5H0v30
		h52.308l0,0L20,235v80h160v-30C138.579,285,105,251.422,105,210z"/>
	<path id="XMLID_1143_" style="fill:#818085;" d="M105,210c0,41.422,33.579,75,75,75c41.421,0,75-33.578,75-75
		c0-16.885-5.583-32.465-14.999-45c-13.683-18.215-35.465-30-60.001-30C138.579,135,105,168.578,105,210z M180,245
		c-19.33,0-35-15.67-35-35s15.67-35,35-35c19.33,0,35,15.67,35,35S199.33,245,180,245z"/>
	<circle id="XMLID_1146_" style="fill:#565659;" cx="180" cy="210" r="35"/>
</g>
<g>
</g>
<g>
</g>
<g>
</g>
<g>
</g>
<g>
</g>
<g>
</g>
<g>
</g>
<g>
</g>
<g>
</g>
<g>
</g>
<g>
</g>
<g>
</g>
<g>
</g>
<g>
</g>
<g>
</g>
</svg>
