<?xml version="1.0" encoding="iso-8859-1"?>
<!-- Generator: Adobe Illustrator 19.0.0, SVG Export Plug-In . SVG Version: 6.00 Build 0)  -->
<svg version="1.1" id="Capa_1" xmlns="http://www.w3.org/2000/svg" xmlns:xlink="http://www.w3.org/1999/xlink" x="0px" y="0px"
	 viewBox="0 0 512 512" style="enable-background:new 0 0 512 512;" xml:space="preserve">
<path style="fill:#FFE97F;" d="M497.175,151.007L512,150.833V91.667H0v59.166l14.824,0.174c7.082,0.083,12.843,5.912,12.843,12.993
	s-5.761,12.91-12.843,12.993L0,177.167v65.666l14.824,0.174c7.082,0.083,12.843,5.912,12.843,12.993s-5.761,12.91-12.843,12.993
	L0,269.167v65.666l14.824,0.174c7.082,0.083,12.843,5.912,12.843,12.993s-5.761,12.91-12.843,12.993L0,361.167v59.166h512v-59.166
	l-14.824-0.174c-7.081-0.083-12.843-5.912-12.843-12.993s5.762-12.91,12.843-12.993L512,334.833v-65.666l-14.824-0.174
	c-7.081-0.083-12.843-5.912-12.843-12.993s5.762-12.91,12.843-12.993L512,242.833v-65.666l-14.824-0.174
	c-7.081-0.083-12.843-5.912-12.843-12.993S490.094,151.09,497.175,151.007z"/>
<path style="fill:#FFDB2D;" d="M497.175,151.007L512,150.833V91.667H256v328.666h256v-59.166l-14.824-0.174
	c-7.081-0.083-12.843-5.912-12.843-12.993s5.762-12.91,12.843-12.993L512,334.833v-65.666l-14.824-0.174
	c-7.081-0.083-12.843-5.912-12.843-12.993s5.762-12.91,12.843-12.993L512,242.833v-65.666l-14.824-0.174
	c-7.081-0.083-12.843-5.912-12.843-12.993S490.094,151.09,497.175,151.007z"/>
<g>
	<rect x="102.33" y="122.67" style="fill:#FFFFFF;" width="30" height="66.67"/>
	<rect x="102.33" y="322.67" style="fill:#FFFFFF;" width="30" height="66.67"/>
	<rect x="102.33" y="222.67" style="fill:#FFFFFF;" width="30" height="66.67"/>
</g>
<path style="fill:#4EC1F5;" d="M414,324.333H224V187.667h190V324.333z"/>
<rect x="256" y="187.67" width="158" height="136.67"/>
<g>
</g>
<g>
</g>
<g>
</g>
<g>
</g>
<g>
</g>
<g>
</g>
<g>
</g>
<g>
</g>
<g>
</g>
<g>
</g>
<g>
</g>
<g>
</g>
<g>
</g>
<g>
</g>
<g>
</g>
</svg>
