<?xml version="1.0" encoding="iso-8859-1"?>
<!-- Generator: Adobe Illustrator 19.0.0, SVG Export Plug-In . SVG Version: 6.00 Build 0)  -->
<svg version="1.1" id="Capa_1" xmlns="http://www.w3.org/2000/svg" xmlns:xlink="http://www.w3.org/1999/xlink" x="0px" y="0px"
	 viewBox="0 0 58 58" style="enable-background:new 0 0 58 58;" xml:space="preserve">
<g id="XMLID_4_">
	<path id="XMLID_117_" style="fill:#F5EFCA;" d="M58,29c0,16.016-12.984,29-29,29C12.984,58,0,45.016,0,29S12.984,0,29,0
		C45.016,0,58,12.984,58,29"/>
	<path id="XMLID_116_" style="fill:#56B46F;" d="M48,56.223c-2.757,0-5-2.243-5-5c0-0.553,0.448-1,1-1c0.552,0,1,0.447,1,1
		c0,1.654,1.346,3,3,3c0.884,0,1.72-0.388,2.292-1.064c0.256-0.303,0.374-0.696,0.331-1.106c-0.046-0.438-0.272-0.847-0.622-1.118
		l-5.23-4.068c-0.777-0.605-1.282-1.513-1.383-2.492c-0.1-0.956,0.182-1.881,0.794-2.603C45.134,40.646,46.526,40,48,40
		c2.757,0,5,2.244,5,5c0,0.553-0.448,1-1,1c-0.552,0-1-0.447-1-1c0-1.654-1.346-3-3-3c-0.884,0-1.72,0.388-2.292,1.064
		c-0.256,0.303-0.374,0.694-0.331,1.104c0.046,0.439,0.272,0.848,0.622,1.12l5.23,4.069c0.777,0.604,1.281,1.511,1.383,2.488
		c0.1,0.957-0.182,1.882-0.793,2.606C50.866,55.577,49.474,56.223,48,56.223"/>
	<path id="XMLID_115_" style="fill:#56B46F;" d="M48,58c-0.552,0-1-0.447-1-1V39c0-0.553,0.448-1,1-1c0.552,0,1,0.447,1,1v18
		C49,57.553,48.552,58,48,58"/>
	<path id="XMLID_112_" style="fill:#F0C41B;" d="M30,25.021V14.879c0-0.553-0.448-1-1-1c-0.552,0-1,0.447-1,1v10.142
		c-1.399,0.364-2.494,1.459-2.858,2.858H18c-0.552,0-1,0.447-1,1c0,0.553,0.448,1,1,1h7.142c0.447,1.72,2,3,3.858,3
		c2.206,0,4-1.794,4-4C33,27.02,31.72,25.468,30,25.021 M29,30.879c-1.103,0-2-0.897-2-2c0-1.103,0.897-2,2-2s2,0.897,2,2
		C31,29.982,30.103,30.879,29,30.879"/>
	<path id="XMLID_111_" style="fill:#806F5E;" d="M29,8.879c-0.552,0-1-0.447-1-1v-1c0-0.553,0.448-1,1-1c0.552,0,1,0.447,1,1v1
		C30,8.432,29.552,8.879,29,8.879"/>
	<path id="XMLID_110_" style="fill:#806F5E;" d="M29,51.879c-0.552,0-1-0.447-1-1v-1c0-0.553,0.448-1,1-1c0.552,0,1,0.447,1,1v1
		C30,51.432,29.552,51.879,29,51.879"/>
	<path id="XMLID_109_" style="fill:#806F5E;" d="M51,29.879h-1c-0.552,0-1-0.447-1-1c0-0.553,0.448-1,1-1h1c0.552,0,1,0.447,1,1
		C52,29.432,51.552,29.879,51,29.879"/>
	<path id="XMLID_108_" style="fill:#806F5E;" d="M8,29.879H7c-0.552,0-1-0.447-1-1c0-0.553,0.448-1,1-1h1c0.552,0,1,0.447,1,1
		C9,29.432,8.552,29.879,8,29.879"/>
	<path id="XMLID_107_" style="fill:#806F5E;" d="M43.849,15.029c-0.256,0-0.512-0.098-0.707-0.293c-0.391-0.391-0.391-1.023,0-1.414
		l0.707-0.707c0.391-0.391,1.023-0.391,1.414,0c0.391,0.391,0.391,1.023,0,1.414l-0.707,0.707
		C44.361,14.932,44.105,15.029,43.849,15.029"/>
	<path id="XMLID_106_" style="fill:#806F5E;" d="M13.444,45.435c-0.256,0-0.512-0.098-0.707-0.293c-0.391-0.391-0.391-1.023,0-1.414
		l0.707-0.707c0.391-0.391,1.023-0.391,1.414,0c0.391,0.391,0.391,1.023,0,1.414l-0.707,0.707
		C13.956,45.337,13.7,45.435,13.444,45.435"/>
	<path id="XMLID_105_" style="fill:#806F5E;" d="M14.151,15.029c-0.256,0-0.512-0.098-0.707-0.293l-0.707-0.707
		c-0.391-0.391-0.391-1.023,0-1.414c0.391-0.391,1.023-0.391,1.414,0l0.707,0.707c0.391,0.391,0.391,1.023,0,1.414
		C14.663,14.932,14.407,15.029,14.151,15.029"/>
</g>
<g>
</g>
<g>
</g>
<g>
</g>
<g>
</g>
<g>
</g>
<g>
</g>
<g>
</g>
<g>
</g>
<g>
</g>
<g>
</g>
<g>
</g>
<g>
</g>
<g>
</g>
<g>
</g>
<g>
</g>
</svg>
