<?xml version="1.0" encoding="iso-8859-1"?>
<!-- Generator: Adobe Illustrator 19.0.0, SVG Export Plug-In . SVG Version: 6.00 Build 0)  -->
<svg version="1.1" id="Layer_1" xmlns="http://www.w3.org/2000/svg" xmlns:xlink="http://www.w3.org/1999/xlink" x="0px" y="0px"
	 viewBox="0 0 501.416 501.416" style="enable-background:new 0 0 501.416 501.416;" xml:space="preserve">
<g>
	<polygon style="fill:#6E76E5;" points="420.176,346.401 360.654,332.173 298.867,270.386 270.583,298.671 332.369,360.458 
		346.598,419.98 427.837,501.22 501.416,427.642 	"/>
	<path style="fill:#00EED1;" d="M165.104,255.089l-14.425,14.407c-40.696-13.031-86.181-2.479-116.921,28.205
		c-34.169,34.108-43.429,86.397-23.041,130.117l12.057,25.854l55.322-55.194l9.194,9.177l115.192-115.192L165.104,255.089z"/>
	<path style="fill:#00EED1;" d="M407.841,87.104l8.971,8.938l-17.909-17.876l55.344-55.215l-25.973-12.068
		C384.51-9.453,332.162-0.212,298.011,33.875c-30.739,30.685-41.32,76.086-28.286,116.725l-14.383,14.365l37.32,37.317
		L407.841,87.104z"/>
	<path style="fill:#00CCB3;" d="M292.662,202.282l37.147,37.144l14.42-14.401c11.483,3.676,23.34,5.475,35.146,5.475
		c30.037-0.002,59.708-11.653,81.774-33.68c34.17-34.107,43.43-86.397,23.042-130.118l-12.056-25.854l-55.323,55.194l-8.971-8.938
		L292.662,202.282z"/>
	<path style="fill:#00CCB3;" d="M87.281,407.664l8.723,8.69L40.659,471.57l25.974,12.068c15.484,7.195,32.039,10.687,48.487,10.687
		c30.038-0.001,59.708-11.653,81.775-33.68c30.741-30.685,41.321-76.086,28.288-116.725l14.387-14.369l-37.089-37.087
		L87.281,407.664z"/>
	<path style="fill:#B39A7C;" d="M27.639,14.052C37.712,6.579,49.702,2.279,62.371,1.661C49.702,2.279,37.712,6.579,27.639,14.052z"
		/>
	<path style="fill:#B39A7C;" d="M20.463,20.243C8.403,32.303,1.766,48.333,1.775,65.379c0.009,17.032,6.65,33.045,18.697,45.085
		l219.096,219.087l0.067,0.067l45.101-45.101L20.463,20.243z"/>
	<path style="fill:#C0AB91;" d="M284.737,284.517l45.082-45.082c-0.009-0.009-219.149-219.13-219.149-219.13
		C98.656,8.251,82.659,1.603,65.625,1.584l-0.073,0c-1.064,0-2.125,0.026-3.18,0.077c-12.669,0.617-24.659,4.917-34.732,12.39
		c-2.518,1.868-4.917,3.935-7.176,6.192L284.737,284.517z"/>
</g>
<g>
</g>
<g>
</g>
<g>
</g>
<g>
</g>
<g>
</g>
<g>
</g>
<g>
</g>
<g>
</g>
<g>
</g>
<g>
</g>
<g>
</g>
<g>
</g>
<g>
</g>
<g>
</g>
<g>
</g>
</svg>
