<?xml version="1.0" encoding="iso-8859-1"?>
<!-- Generator: Adobe Illustrator 19.0.0, SVG Export Plug-In . SVG Version: 6.00 Build 0)  -->
<svg version="1.1" id="Capa_1" xmlns="http://www.w3.org/2000/svg" xmlns:xlink="http://www.w3.org/1999/xlink" x="0px" y="0px"
	 viewBox="0 0 512 512" style="enable-background:new 0 0 512 512;" xml:space="preserve">
<g>
	<path style="fill:#66CC70;" d="M497,226c0-49.706-40.294-90-90-90c-16.185,0-31.373,4.272-44.496,11.751L405.622,226H497z"/>
	<path style="fill:#66CC70;" d="M411.468,344.433L376.68,428.32l62.139,62.14c35.147-35.147,35.147-92.132,0-127.279
		C430.69,355.051,421.393,348.802,411.468,344.433z"/>
</g>
<g>
	<path style="fill:#87E694;" d="M149.496,147.751C136.373,140.272,121.185,136,105,136c-49.706,0-90,40.294-90,90h91.379
		L149.496,147.751z"/>
	<path style="fill:#87E694;" d="M73.18,363.18c-35.147,35.147-35.147,92.132,0,127.279l62.141-62.141l-34.79-83.885
		C90.606,348.803,81.309,355.051,73.18,363.18z"/>
	<path style="fill:#87E694;" d="M256,0L256,0c-22.091,0-40,17.909-40,40v50h80V40C296,17.909,278.091,0,256,0z"/>
</g>
<path style="fill:#66CC70;" d="M256,0v90h40V40C296,17.909,278.091,0,256,0z"/>
<path style="fill:#D6702B;" d="M380.85,146.208C347.726,104.803,303.387,82,256,82s-91.726,22.803-124.85,64.208
	C98.811,186.633,81,240.185,81,297s17.811,110.367,50.15,150.792C164.274,489.197,208.613,512,256,512s91.726-22.803,124.85-64.208
	C413.189,407.367,431,353.815,431,297S413.189,186.633,380.85,146.208z"/>
<path style="fill:#BF6015;" d="M380.85,146.208C347.726,104.803,303.387,82,256,82v430c47.387,0,91.726-22.803,124.85-64.208
	C413.189,407.367,431,353.815,431,297S413.189,186.633,380.85,146.208z"/>
<g>
	<path style="fill:#D6702B;" d="M385.564,379.993L331,325.428v-56.856l54.565-54.564C395.432,238.982,401,267.175,401,297
		S395.432,355.018,385.564,379.993z"/>
	<path style="fill:#D6702B;" d="M371.633,185.513l-58.101,58.101L271,219.058V112.986C312,118.386,347.981,145.677,371.633,185.513z
		"/>
</g>
<g>
	<polygon style="fill:#E08344;" points="256,348.961 211,322.981 211,271.019 256,245.039 301,271.019 301,322.981 	"/>
	<path style="fill:#E08344;" d="M241,112.986v106.072l-42.532,24.556l-58.101-58.101C164.019,145.678,200,118.386,241,112.986z"/>
	<path style="fill:#E08344;" d="M126.435,214.008L181,268.572v56.856l-54.565,54.564C116.568,355.018,111,326.825,111,297
		S116.568,238.982,126.435,214.008z"/>
	<path style="fill:#E08344;" d="M140.367,408.487l58.101-58.101L241,374.942v106.072C200,475.614,164.019,448.323,140.367,408.487z"
		/>
</g>
<g>
	<path style="fill:#D6702B;" d="M271,481.014V374.942l42.532-24.556l58.101,58.101C347.981,448.323,312,475.614,271,481.014z"/>
	<polygon style="fill:#D6702B;" points="256,245.039 256,348.961 301,322.981 301,271.019 	"/>
</g>
<g>
</g>
<g>
</g>
<g>
</g>
<g>
</g>
<g>
</g>
<g>
</g>
<g>
</g>
<g>
</g>
<g>
</g>
<g>
</g>
<g>
</g>
<g>
</g>
<g>
</g>
<g>
</g>
<g>
</g>
</svg>
