<?xml version="1.0" encoding="iso-8859-1"?>
<!-- Generator: Adobe Illustrator 19.0.0, SVG Export Plug-In . SVG Version: 6.00 Build 0)  -->
<svg version="1.1" id="Capa_1" xmlns="http://www.w3.org/2000/svg" xmlns:xlink="http://www.w3.org/1999/xlink" x="0px" y="0px"
	 viewBox="0 0 512 512" style="enable-background:new 0 0 512 512;" xml:space="preserve">
<path style="fill:#34DAE2;" d="M415.775,504.367H96.222c-2.81,0-5.089-2.278-5.089-5.089v-37.246h329.73v37.246
	C420.863,502.089,418.586,504.367,415.775,504.367z"/>
<path style="fill:#EF4836;" d="M427.826,134.347V7.389c0-4.081-3.308-7.389-7.389-7.389h-59.714c-3.472,0-6.812,1.34-9.321,3.741
	l-88.368,84.556c-3.935,3.765-10.136,3.765-14.072,0L160.595,3.741C158.086,1.34,154.747,0,151.274,0H91.559
	c-4.081,0-7.389,3.308-7.389,7.389v126.959c0,8.346-3.642,16.276-9.973,21.714l-3.698,3.176c-6.331,5.438-9.973,13.368-9.973,21.714
	v275.994c0,2.81,2.278,5.089,5.089,5.089h190.385h190.385c2.81,0,5.089-2.278,5.089-5.089V180.951
	c0-8.346-3.642-16.276-9.973-21.714l-3.698-3.176C431.468,150.623,427.826,142.693,427.826,134.347z"/>
<path style="fill:#DB3D31;" d="M451.475,180.948v275.997c0,2.808-2.279,5.089-5.089,5.089h-40.819c2.808,0,5.089-2.279,5.089-5.089
	V180.948c0-8.345-3.643-16.273-9.973-21.707l-3.694-3.175c-6.33-5.445-9.973-13.373-9.973-21.717V7.392
	c0-4.081-3.307-7.388-7.388-7.388h40.809c4.081,0,7.388,3.307,7.388,7.388v126.956c0,8.345,3.643,16.273,9.973,21.717l3.704,3.175
	C447.831,164.675,451.475,172.603,451.475,180.948z"/>
<path style="fill:#F8D534;" d="M356.323,167.578h-36.268c-2.057,0-3.726,1.668-3.726,3.726v40.075
	c0,14.211,7.541,27.355,19.81,34.527l0,0c12.469,7.289,27.899,7.289,40.367,0l0,0c12.269-7.172,19.81-20.316,19.81-34.527v-40.075
	c0-2.057-1.668-3.726-3.725-3.726H356.323z"/>
<path style="fill:#E5C129;" d="M396.317,171.301v40.076c0,7.103-1.882,13.943-5.302,19.906c-3.419,5.964-8.375,11.031-14.512,14.624
	c-6.239,3.643-13.21,5.465-20.181,5.465c-3.511,0-7.012-0.458-10.431-1.384c3.368-0.906,6.646-2.269,9.749-4.081
	c6.137-3.592,11.092-8.66,14.512-14.624c3.419-5.964,5.302-12.803,5.302-19.906v-40.076c0-2.055-1.669-3.725-3.725-3.725h20.863
	C394.647,167.575,396.317,169.244,396.317,171.301z"/>
<path style="fill:#34DAE2;" d="M401.791,0h-43.115c-2.162,0-4.241,0.834-5.803,2.329l-89.841,85.966
	c-3.935,3.765-10.136,3.765-14.072,0L159.119,2.329C157.557,0.834,155.479,0,153.316,0h-43.115l138.66,136.255
	c3.96,3.891,10.306,3.891,14.266,0L401.791,0z"/>
<g>
	<path style="fill:#22A8A8;" d="M137.946,512c-4.216,0-7.633-3.417-7.633-7.633v-17.232c0-4.216,3.417-7.633,7.633-7.633
		c4.216,0,7.633,3.417,7.633,7.633v17.232C145.579,508.583,142.162,512,137.946,512z"/>
	<path style="fill:#22A8A8;" d="M177.298,512c-4.216,0-7.633-3.417-7.633-7.633v-17.232c0-4.216,3.417-7.633,7.633-7.633
		s7.633,3.417,7.633,7.633v17.232C184.93,508.583,181.512,512,177.298,512z"/>
	<path style="fill:#22A8A8;" d="M216.648,512c-4.216,0-7.633-3.417-7.633-7.633v-17.232c0-4.216,3.417-7.633,7.633-7.633
		c4.216,0,7.633,3.417,7.633,7.633v17.232C224.281,508.583,220.863,512,216.648,512z"/>
	<path style="fill:#22A8A8;" d="M255.998,512c-4.216,0-7.633-3.417-7.633-7.633v-17.232c0-4.216,3.417-7.633,7.633-7.633
		s7.633,3.417,7.633,7.633v17.232C263.631,508.583,260.214,512,255.998,512z"/>
	<path style="fill:#22A8A8;" d="M295.348,512c-4.216,0-7.633-3.417-7.633-7.633v-17.232c0-4.216,3.417-7.633,7.633-7.633
		s7.633,3.417,7.633,7.633v17.232C302.981,508.583,299.564,512,295.348,512z"/>
	<path style="fill:#22A8A8;" d="M334.699,512c-4.216,0-7.633-3.417-7.633-7.633v-17.232c0-4.216,3.417-7.633,7.633-7.633
		c4.216,0,7.633,3.417,7.633,7.633v17.232C342.332,508.583,338.915,512,334.699,512z"/>
	<path style="fill:#22A8A8;" d="M374.05,512c-4.216,0-7.633-3.417-7.633-7.633v-17.232c0-4.216,3.417-7.633,7.633-7.633
		c4.216,0,7.633,3.417,7.633,7.633v17.232C381.683,508.583,378.265,512,374.05,512z"/>
</g>
<g>
</g>
<g>
</g>
<g>
</g>
<g>
</g>
<g>
</g>
<g>
</g>
<g>
</g>
<g>
</g>
<g>
</g>
<g>
</g>
<g>
</g>
<g>
</g>
<g>
</g>
<g>
</g>
<g>
</g>
</svg>
