<?xml version="1.0" encoding="iso-8859-1"?>
<!-- Generator: Adobe Illustrator 19.0.0, SVG Export Plug-In . SVG Version: 6.00 Build 0)  -->
<svg version="1.1" id="Capa_1" xmlns="http://www.w3.org/2000/svg" xmlns:xlink="http://www.w3.org/1999/xlink" x="0px" y="0px"
	 viewBox="0 0 512 512" style="enable-background:new 0 0 512 512;" xml:space="preserve">
<path style="fill:#DCF4FF;" d="M512,512H0V110h512V512z"/>
<path style="fill:#CCEFFF;" d="M512,512H256V110h256V512z"/>
<path style="fill:#87E694;" d="M512,110H0l0.001,135c0,30.419,24.748,55.167,55.167,55.167c15.816,0,30.098-6.689,40.166-17.389
	c10.068,10.7,24.351,17.389,40.167,17.389s30.098-6.689,40.166-17.389c10.068,10.7,24.351,17.389,40.167,17.389
	c15.814,0,30.098-6.691,40.166-17.389c10.068,10.698,24.352,17.389,40.166,17.389c15.816,0,30.099-6.689,40.167-17.389
	c10.068,10.7,24.35,17.389,40.166,17.389s30.099-6.689,40.167-17.389c10.068,10.7,24.35,17.389,40.166,17.389
	c30.419,0,55.167-24.748,55.167-55.167L512,110z"/>
<g>
	<path style="fill:#66CC70;" d="M256,110v172.778c10.068,10.698,24.352,17.389,40.166,17.389c15.816,0,30.099-6.689,40.167-17.389
		c10.068,10.7,24.35,17.389,40.166,17.389s30.099-6.689,40.167-17.389c10.068,10.7,24.35,17.389,40.166,17.389
		c30.419,0,55.167-24.748,55.167-55.167L512,110H256z"/>
	<path style="fill:#66CC70;" d="M512,200H0v-90h512V200z"/>
</g>
<path style="fill:#E08344;" d="M462,512h-90V352h90V512z"/>
<path style="fill:#ACE3FC;" d="M322,452H50V352h272V452z"/>
<polygon style="fill:#66CC70;" points="301,30 271,30 271,0 241,0 241,30 211,30 211,60 241,60 241,90 271,90 271,60 301,60 "/>
<path style="fill:#00A621;" d="M512,200H256v-90h256V200z"/>
<path style="fill:#86D6F2;" d="M322,452h-66V352h66V452z"/>
<g>
</g>
<g>
</g>
<g>
</g>
<g>
</g>
<g>
</g>
<g>
</g>
<g>
</g>
<g>
</g>
<g>
</g>
<g>
</g>
<g>
</g>
<g>
</g>
<g>
</g>
<g>
</g>
<g>
</g>
</svg>
