<?xml version="1.0" encoding="iso-8859-1"?>
<!-- Generator: Adobe Illustrator 19.0.0, SVG Export Plug-In . SVG Version: 6.00 Build 0)  -->
<svg version="1.1" id="Capa_1" xmlns="http://www.w3.org/2000/svg" xmlns:xlink="http://www.w3.org/1999/xlink" x="0px" y="0px"
	 viewBox="0 0 57 57" style="enable-background:new 0 0 57 57;" xml:space="preserve">
<rect y="5.5" style="fill:#E7ECED;" width="18" height="8"/>
<rect x="1" y="0.5" style="fill:#AFB6BB;" width="16" height="5"/>
<rect x="3" y="2.5" style="fill:#E7ECED;" width="2" height="3"/>
<rect x="13" y="2.5" style="fill:#E7ECED;" width="2" height="3"/>
<rect x="7" y="13.5" style="fill:#AFB6BB;" width="4" height="6.059"/>
<path style="fill:#E7ECED;" d="M29,56.5c-7.168,0-13-5.832-13-13s5.832-13,13-13s13,5.832,13,13S36.168,56.5,29,56.5z M29,32.5
	c-6.065,0-11,4.935-11,11s4.935,11,11,11s11-4.935,11-11S35.065,32.5,29,32.5z"/>
<path style="fill:#E7ECED;" d="M28.459,56.5c-10.955,0-19.926-8.655-20.437-19.486H8V19.5h2v16.541C10,46.22,18.28,54.5,28.459,54.5
	C44.03,54.5,51,44.78,51,35.148V30.5h2v4.648C53,47.72,42.908,56.5,28.459,56.5z"/>
<path style="fill:#AFB6BB;" d="M52,31.5L52,31.5c-1.105,0-2-0.895-2-2v-3h4v3C54,30.605,53.105,31.5,52,31.5z"/>
<path style="fill:#AFB6BB;" d="M52,31.5L52,31.5c-1.105,0-2-0.895-2-2v-3h4v3C54,30.605,53.105,31.5,52,31.5z"/>
<path style="fill:#AFB6BB;" d="M52,31.5L52,31.5c-1.105,0-2-0.895-2-2v-3h4v3C54,30.605,53.105,31.5,52,31.5z"/>
<path style="fill:#AFB6BB;" d="M52,31.5L52,31.5c-1.105,0-2-0.895-2-2v-3h4v3C54,30.605,53.105,31.5,52,31.5z"/>
<path style="fill:#E7ECED;" d="M29,56.5c-8.822,0-16-7.178-16-16s7.178-16,16-16s16,7.178,16,16S37.822,56.5,29,56.5z M29,26.5
	c-7.72,0-14,6.28-14,14s6.28,14,14,14s14-6.28,14-14S36.72,26.5,29,26.5z"/>
<rect x="48" y="15.5" style="fill:#AFB6BB;" width="8" height="7"/>
<path style="fill:#E7ECED;" d="M47,22.5v5.206c0,0.439,0.356,0.794,0.794,0.794H50v-2h4v2h2.206c0.439,0,0.794-0.356,0.794-0.794
	V22.5H47z"/>
<rect x="49" y="17.5" style="fill:#E7ECED;" width="2" height="2"/>
<rect x="53" y="17.5" style="fill:#E7ECED;" width="2" height="2"/>
<g>
</g>
<g>
</g>
<g>
</g>
<g>
</g>
<g>
</g>
<g>
</g>
<g>
</g>
<g>
</g>
<g>
</g>
<g>
</g>
<g>
</g>
<g>
</g>
<g>
</g>
<g>
</g>
<g>
</g>
</svg>
