<?xml version="1.0" encoding="iso-8859-1"?>
<!-- Generator: Adobe Illustrator 19.0.0, SVG Export Plug-In . SVG Version: 6.00 Build 0)  -->
<svg version="1.1" id="Layer_1" xmlns="http://www.w3.org/2000/svg" xmlns:xlink="http://www.w3.org/1999/xlink" x="0px" y="0px"
	 viewBox="0 0 512.001 512.001" style="enable-background:new 0 0 512.001 512.001;" xml:space="preserve">
<polygon style="fill:#A7CBCF;" points="338.712,100.813 338.712,372.464 304.954,372.464 271.195,68.608 "/>
<polygon style="fill:#B7D9DD;" points="237.898,0 0.004,0 0.004,372.464 304.954,372.464 304.954,92.239 "/>
<polygon style="fill:#FFFFFF;" points="237.435,33.758 33.762,33.758 33.762,383.716 304.95,383.716 304.951,100.81 "/>
<polygon style="fill:#C7E7EB;" points="237.9,0 237.9,100.81 338.71,100.81 "/>
<rect x="0.004" y="372.466" style="fill:#88ACB5;" width="338.708" height="67.516"/>
<path style="fill:#C7E7EB;" d="M282.445,414.661H64.989c-4.661,0-8.44-3.778-8.44-8.44s3.779-8.44,8.44-8.44h217.456
	c4.662,0,8.44,3.778,8.44,8.44S287.107,414.661,282.445,414.661z"/>
<rect x="390.902" y="413.804" transform="matrix(-0.7071 -0.7071 0.7071 -0.7071 422.2612 1019.3931)" style="fill:#5195AF;" width="62.704" height="16.879"/>
<path style="fill:#111449;" d="M265.904,411.511c40.209,40.209,105.402,40.209,145.612,0l-62.588-83.024l-83.024-62.588
	C225.695,306.11,225.695,371.301,265.904,411.511z"/>
<path style="fill:#2F5E88;" d="M265.904,265.9l145.612,145.612c40.209-40.209,40.209-105.402,0-145.612
	S306.114,225.691,265.904,265.9z"/>
<path style="fill:#78E3EC;" d="M288.7,288.696l100.019,100.019c27.62-27.62,27.62-72.399,0-100.019
	C361.099,261.076,316.32,261.076,288.7,288.696z"/>
<path style="fill:#D0FBFD;" d="M372.805,304.61c-27.62-27.62-65.275-34.744-84.105-15.914c-27.62,27.62-27.62,72.399,0,100.019
	c27.62,27.62,72.399,27.62,100.019,0C407.549,369.885,400.425,332.23,372.805,304.61z"/>
<rect x="450.245" y="420.548" transform="matrix(-0.7071 0.7071 -0.7071 -0.7071 1127.7399 467.131)" style="fill:#FF754F;" width="33.758" height="93.161"/>
<polygon style="fill:#A7CBCF;" points="113.844,129.265 224.87,186.232 113.844,243.199 "/>
<g>
</g>
<g>
</g>
<g>
</g>
<g>
</g>
<g>
</g>
<g>
</g>
<g>
</g>
<g>
</g>
<g>
</g>
<g>
</g>
<g>
</g>
<g>
</g>
<g>
</g>
<g>
</g>
<g>
</g>
</svg>
