<?xml version="1.0" encoding="iso-8859-1"?>
<!-- Generator: Adobe Illustrator 19.0.0, SVG Export Plug-In . SVG Version: 6.00 Build 0)  -->
<svg version="1.1" id="Capa_1" xmlns="http://www.w3.org/2000/svg" xmlns:xlink="http://www.w3.org/1999/xlink" x="0px" y="0px"
	 viewBox="0 0 512 512" style="enable-background:new 0 0 512 512;" xml:space="preserve">
<path style="fill:#5B5B5B;" d="M387.888,95.332C344.972,52.415,287.912,28.78,227.22,28.78S109.467,52.415,66.551,95.332
	C23.635,138.248,0,195.308,0,256s23.635,117.752,66.551,160.668c42.916,42.917,99.976,66.551,160.668,66.551
	s117.752-23.635,160.668-66.551c42.917-42.916,66.551-99.976,66.551-160.668S430.805,138.248,387.888,95.332z"/>
<path d="M227.22,483.22c60.692,0,117.752-23.635,160.668-66.551c42.917-42.916,66.551-99.976,66.551-160.668
	s-23.635-117.752-66.551-160.668C344.972,52.415,287.912,28.78,227.22,28.78"/>
<circle style="fill:#95DAF9;" cx="227.22" cy="256" r="100.53"/>
<path style="fill:#4EC1F5;" d="M227.22,155.475c55.519,0,100.525,45.007,100.525,100.525S282.738,356.525,227.22,356.525"/>
<path style="fill:#EFEFEF;" d="M227.22,371.525c-63.701,0-115.525-51.824-115.525-115.525s51.824-115.525,115.525-115.525
	S342.745,192.299,342.745,256S290.921,371.525,227.22,371.525z M227.22,170.475c-47.159,0-85.525,38.367-85.525,85.525
	s38.366,85.525,85.525,85.525s85.525-38.367,85.525-85.525S274.378,170.475,227.22,170.475z"/>
<circle style="fill:#FFFFFF;" cx="227.22" cy="256" r="28.796"/>
<polygon style="fill:#FFE97F;" points="354.946,366.753 348.075,337.551 482,306.039 482,118.136 512,118.136 512,329.8 "/>
<rect x="365.549" y="287.909" transform="matrix(0.2411 0.9705 -0.9705 0.2411 631.1026 -118.3321)" style="fill:#4EC1F5;" width="51.33" height="112.92"/>
<path style="fill:#E6E6E6;" d="M227.22,140.475c-0.074,0-0.146,0.003-0.22,0.003v30c0.074,0,0.146-0.003,0.22-0.003
	c47.159,0,85.525,38.367,85.525,85.525s-38.367,85.525-85.525,85.525c-0.074,0-0.146-0.003-0.22-0.003v30
	c0.074,0,0.146,0.003,0.22,0.003c63.701,0,115.525-51.824,115.525-115.525S290.921,140.475,227.22,140.475z"/>
<g>
</g>
<g>
</g>
<g>
</g>
<g>
</g>
<g>
</g>
<g>
</g>
<g>
</g>
<g>
</g>
<g>
</g>
<g>
</g>
<g>
</g>
<g>
</g>
<g>
</g>
<g>
</g>
<g>
</g>
</svg>
