<?xml version="1.0" encoding="iso-8859-1"?>
<!-- Generator: Adobe Illustrator 19.0.0, SVG Export Plug-In . SVG Version: 6.00 Build 0)  -->
<svg version="1.1" id="Layer_1" xmlns="http://www.w3.org/2000/svg" xmlns:xlink="http://www.w3.org/1999/xlink" x="0px" y="0px"
	 viewBox="0 0 512 512" style="enable-background:new 0 0 512 512;" xml:space="preserve">
<path style="fill:#FFB082;" d="M180.278,0.853h-22.505v230.048h22.505c5.345,0,9.688-4.332,9.688-9.688V10.531
	C189.966,5.186,185.623,0.853,180.278,0.853z"/>
<path style="fill:#FFCD9C;" d="M157.773,0.853H9.688C4.344,0.853,0,5.186,0,10.531v210.682c0,5.356,4.344,9.688,9.688,9.688h62.418
	l22.877,45.742l22.877-45.742h39.913c5.345,0,9.688-4.332,9.688-9.688V10.531C167.461,5.186,163.118,0.853,157.773,0.853z"/>
<g>
	<circle style="fill:#27467A;" cx="94.983" cy="82.471" r="36.571"/>
	<path style="fill:#27467A;" d="M94.983,135.92c-33.812,0-61.223,27.41-61.223,61.222h122.445
		C156.206,163.33,128.795,135.92,94.983,135.92z"/>
</g>
<path style="fill:#FFB082;" d="M502.311,0.85h-22.505v230.048h22.505c5.345,0,9.688-4.332,9.688-9.688V10.527
	C512,5.182,507.656,0.85,502.311,0.85z"/>
<path style="fill:#FFCD9C;" d="M479.806,0.85H331.722c-5.345,0-9.688,4.332-9.688,9.677V221.21c0,5.356,4.343,9.688,9.688,9.688
	h62.418l22.877,45.742l22.877-45.742h39.913c5.345,0,9.688-4.332,9.688-9.688V10.527C489.495,5.182,485.151,0.85,479.806,0.85z"/>
<g>
	<circle style="fill:#27467A;" cx="417.021" cy="82.471" r="36.571"/>
	<path style="fill:#27467A;" d="M417.017,135.916c-33.812,0-61.223,27.41-61.223,61.222h122.445
		C478.239,163.328,450.829,135.916,417.017,135.916z"/>
</g>
<path style="fill:#FFBE35;" d="M341.295,135.774H318.79v230.048h22.505c5.345,0,9.688-4.332,9.688-9.688V145.452
	C350.983,140.107,346.64,135.774,341.295,135.774z"/>
<path style="fill:#FFCD60;" d="M318.79,135.774H170.705c-5.345,0-9.688,4.332-9.688,9.677v210.682c0,5.356,4.344,9.688,9.688,9.688
	h62.418L256,411.564l22.877-45.742h39.913c5.345,0,9.688-4.332,9.688-9.688V145.452C328.478,140.107,324.134,135.774,318.79,135.774
	z"/>
<g>
	<circle style="fill:#111449;" cx="255.997" cy="217.39" r="36.571"/>
	<path style="fill:#111449;" d="M256,270.842c-33.812,0-61.223,27.41-61.223,61.222h122.445
		C317.222,298.252,289.812,270.842,256,270.842z"/>
</g>
<polygon style="fill:#367596;" points="511.997,443.634 511.997,511.15 478.239,511.15 455.734,477.392 478.239,443.634 "/>
<polygon style="fill:#5195AF;" points="478.239,443.634 478.239,511.15 329.142,511.15 306.637,477.392 329.142,443.634 "/>
<rect x="0.003" y="443.634" style="fill:#27467A;" width="329.138" height="67.516"/>
<g>
	<circle style="fill:#D0FBFD;" cx="403.687" cy="477.392" r="11.253"/>
	<circle style="fill:#D0FBFD;" cx="357.551" cy="477.392" r="11.253"/>
</g>
<circle style="fill:#78E3EC;" cx="449.823" cy="477.392" r="11.253"/>
<g>
</g>
<g>
</g>
<g>
</g>
<g>
</g>
<g>
</g>
<g>
</g>
<g>
</g>
<g>
</g>
<g>
</g>
<g>
</g>
<g>
</g>
<g>
</g>
<g>
</g>
<g>
</g>
<g>
</g>
</svg>
