<?xml version="1.0" encoding="iso-8859-1"?>
<!-- Generator: Adobe Illustrator 19.0.0, SVG Export Plug-In . SVG Version: 6.00 Build 0)  -->
<svg version="1.1" id="Capa_1" xmlns="http://www.w3.org/2000/svg" xmlns:xlink="http://www.w3.org/1999/xlink" x="0px" y="0px"
	 viewBox="0 0 512 512" style="enable-background:new 0 0 512 512;" xml:space="preserve">
<path style="fill:#ADACB2;" d="M478.85,84.706h7.088v-30h-7.088c-24.616,0-44.643,20.026-44.643,44.643v117.756v215.92
	c0,0.037-0.223,4.14-2.098,7.806c-1.635,3.197-4.44,6.466-12.843,6.466c-7.048,0-9.408-2.366-10.185-3.144
	c-3.109-3.117-3.848-8.615-3.883-10.699l0.001-341.25c0-18.714-11.306-46.556-42.451-46.556c-17.021,0-30.695,8.533-38.504,24.028
	c-5.186,10.292-6.011,20.38-6.088,21.496l29.93,2.063c0.003-0.049,0.53-5.258,2.949-10.06c2.694-5.347,6.088-7.527,11.713-7.527
	c5.173,0,7.891,1.691,10.03,6.241c1.893,4.027,2.387,8.835,2.421,10.402v340.593c-0.044,3.045,0.291,19.735,12.271,32.077
	c5.461,5.627,15.411,12.335,31.796,12.335c32.972,0,44.94-26.476,44.94-44.271v-215.92c0-7.803,6.349-14.151,14.151-14.151h7.579
	v-30h-7.579c-4.949,0-9.706,0.831-14.151,2.34V99.348C464.207,91.274,470.775,84.706,478.85,84.706z"/>
<path style="fill:#6D76E6;" d="M348.12,42.49v427.02c0,20.69-16.83,37.52-37.52,37.52H37.52C16.83,507.03,0,490.2,0,469.51V42.49
	C0,21.8,16.83,4.97,37.52,4.97H310.6C331.29,4.97,348.12,21.8,348.12,42.49z"/>
<g>
	<rect x="482" y="40.27" style="fill:#495AE3;" width="30" height="61.21"/>
	<rect x="482" y="159.19" style="fill:#495AE3;" width="30" height="61.21"/>
	<path style="fill:#495AE3;" d="M348.12,42.49v427.02c0,20.69-16.83,37.52-37.52,37.52H172.69V4.97H310.6
		C331.29,4.97,348.12,21.8,348.12,42.49z"/>
</g>
<rect x="57.46" y="54.71" style="fill:#FFFFFF;" width="231.47" height="236.28"/>
<path style="fill:#FFA920;" d="M231.56,403.46c0,32.46-26.41,58.88-58.87,58.88c-32.47,0-58.88-26.42-58.88-58.88
	c0-32.47,26.41-58.88,58.88-58.88C205.15,344.58,231.56,370.99,231.56,403.46z"/>
<path style="fill:#FF8800;" d="M231.56,403.46c0,32.46-26.41,58.88-58.87,58.88V344.58C205.15,344.58,231.56,370.99,231.56,403.46z"
	/>
<rect x="172.69" y="54.71" style="fill:#C9E7F8;" width="116.24" height="236.28"/>
<g>
</g>
<g>
</g>
<g>
</g>
<g>
</g>
<g>
</g>
<g>
</g>
<g>
</g>
<g>
</g>
<g>
</g>
<g>
</g>
<g>
</g>
<g>
</g>
<g>
</g>
<g>
</g>
<g>
</g>
</svg>
