<?xml version="1.0" encoding="iso-8859-1"?>
<!-- Generator: Adobe Illustrator 18.0.0, SVG Export Plug-In . SVG Version: 6.00 Build 0)  -->
<!DOCTYPE svg PUBLIC "-//W3C//DTD SVG 1.1//EN" "http://www.w3.org/Graphics/SVG/1.1/DTD/svg11.dtd">
<svg version="1.1" id="Capa_1" xmlns="http://www.w3.org/2000/svg" xmlns:xlink="http://www.w3.org/1999/xlink" x="0px" y="0px"
	 viewBox="0 0 58 58" style="enable-background:new 0 0 58 58;" xml:space="preserve">
<g>
	<path style="fill:#44312A;" d="M58,37h-8c-4.418,0-8-3.582-8-8v0c0-4.418,3.582-8,8-8h8V37z"/>
	<circle style="fill:#BDC3C7;" cx="50" cy="29" r="4"/>
	<g>
		<path style="fill:#63493E;" d="M52,49.524C52,50.892,50.892,52,49.524,52h6C56.892,52,58,50.892,58,49.524V37h-6V49.524z"/>
		<path style="fill:#63493E;" d="M55.524,6h-6C50.892,6,52,7.108,52,8.476V21h6V8.476C58,7.108,56.892,6,55.524,6z"/>
	</g>
	<path style="fill:#7D5F4F;" d="M50,37c-4.418,0-8-3.582-8-8s3.582-8,8-8h2V8.476C52,7.108,50.892,6,49.524,6H2.476
		C1.108,6,0,7.108,0,8.476v41.049C0,50.892,1.108,52,2.476,52h47.049C50.892,52,52,50.892,52,49.524V37H50z"/>
	<g>
		<path style="fill:#937669;" d="M48,41.83c-0.26,0-0.521-0.101-0.71-0.29C47.109,41.35,47,41.1,47,40.83
			c0-0.261,0.109-0.521,0.29-0.7c0.37-0.38,1.04-0.38,1.42,0c0.18,0.18,0.29,0.439,0.29,0.7c0,0.27-0.11,0.52-0.29,0.71
			C48.52,41.729,48.26,41.83,48,41.83z"/>
		<path style="fill:#937669;" d="M47,44.42c0-0.561,0.45-1,1-1l0,0c0.55,0,1,0.439,1,1l0,0c0,0.55-0.45,1-1,1l0,0
			C47.45,45.42,47,44.97,47,44.42z"/>
		<path style="fill:#937669;" d="M48,49c-0.271,0-0.521-0.11-0.71-0.3C47.109,48.52,47,48.26,47,48s0.109-0.521,0.29-0.71
			c0.37-0.37,1.04-0.37,1.42,0C48.89,47.479,49,47.74,49,48s-0.11,0.52-0.29,0.71C48.52,48.89,48.26,49,48,49z"/>
		<path style="fill:#937669;" d="M43,48c0-0.55,0.45-1,1-1l0,0c0.55,0,1,0.45,1,1l0,0c0,0.55-0.45,1-1,1l0,0
			C43.45,49,43,48.55,43,48z M39,48c0-0.55,0.45-1,1-1l0,0c0.55,0,1,0.45,1,1l0,0c0,0.55-0.45,1-1,1l0,0C39.45,49,39,48.55,39,48z
			 M35,48c0-0.55,0.45-1,1-1l0,0c0.55,0,1,0.45,1,1l0,0c0,0.55-0.45,1-1,1l0,0C35.45,49,35,48.55,35,48z M31,48c0-0.55,0.45-1,1-1
			l0,0c0.55,0,1,0.45,1,1l0,0c0,0.55-0.45,1-1,1l0,0C31.45,49,31,48.55,31,48z M27,48c0-0.55,0.45-1,1-1l0,0c0.55,0,1,0.45,1,1l0,0
			c0,0.55-0.45,1-1,1l0,0C27.45,49,27,48.55,27,48z M23,48c0-0.55,0.45-1,1-1l0,0c0.55,0,1,0.45,1,1l0,0c0,0.55-0.45,1-1,1l0,0
			C23.45,49,23,48.55,23,48z M19,48c0-0.55,0.45-1,1-1l0,0c0.55,0,1,0.45,1,1l0,0c0,0.55-0.45,1-1,1l0,0C19.45,49,19,48.55,19,48z
			 M15,48c0-0.55,0.45-1,1-1l0,0c0.55,0,1,0.45,1,1l0,0c0,0.55-0.45,1-1,1l0,0C15.45,49,15,48.55,15,48z M11,48c0-0.55,0.45-1,1-1
			l0,0c0.55,0,1,0.45,1,1l0,0c0,0.55-0.45,1-1,1l0,0C11.45,49,11,48.55,11,48z M7,48c0-0.55,0.45-1,1-1l0,0c0.55,0,1,0.45,1,1l0,0
			c0,0.55-0.45,1-1,1l0,0C7.45,49,7,48.55,7,48z"/>
		<path style="fill:#937669;" d="M4,49c-0.26,0-0.52-0.11-0.71-0.29C3.11,48.52,3,48.26,3,48s0.11-0.521,0.29-0.71
			c0.38-0.37,1.04-0.37,1.42,0C4.89,47.479,5,47.74,5,48s-0.11,0.52-0.29,0.71C4.52,48.89,4.26,49,4,49z"/>
		<path style="fill:#937669;" d="M3,44.2c0-0.551,0.45-1,1-1l0,0c0.55,0,1,0.449,1,1l0,0c0,0.55-0.45,1-1,1l0,0
			C3.45,45.2,3,44.75,3,44.2z M3,40.399c0-0.55,0.45-1,1-1l0,0c0.55,0,1,0.45,1,1l0,0c0,0.551-0.45,1-1,1l0,0
			C3.45,41.399,3,40.95,3,40.399z M3,36.6c0-0.55,0.45-1,1-1l0,0c0.55,0,1,0.45,1,1l0,0c0,0.55-0.45,1-1,1l0,0
			C3.45,37.6,3,37.149,3,36.6z M3,32.8c0-0.55,0.45-1,1-1l0,0c0.55,0,1,0.45,1,1l0,0c0,0.55-0.45,1-1,1l0,0
			C3.45,33.8,3,33.35,3,32.8z M3,29c0-0.55,0.45-1,1-1l0,0c0.55,0,1,0.45,1,1l0,0c0,0.55-0.45,1-1,1l0,0C3.45,30,3,29.55,3,29z
			 M3,25.2c0-0.551,0.45-1,1-1l0,0c0.55,0,1,0.449,1,1l0,0c0,0.55-0.45,1-1,1l0,0C3.45,26.2,3,25.75,3,25.2z M3,21.399
			c0-0.55,0.45-1,1-1l0,0c0.55,0,1,0.45,1,1l0,0c0,0.551-0.45,1-1,1l0,0C3.45,22.399,3,21.95,3,21.399z M3,17.6c0-0.55,0.45-1,1-1
			l0,0c0.55,0,1,0.45,1,1l0,0c0,0.55-0.45,1-1,1l0,0C3.45,18.6,3,18.149,3,17.6z M3,13.8c0-0.55,0.45-1,1-1l0,0c0.55,0,1,0.45,1,1
			l0,0c0,0.55-0.45,1-1,1l0,0C3.45,14.8,3,14.35,3,13.8z"/>
		<path style="fill:#937669;" d="M4,11c-0.27,0-0.52-0.11-0.71-0.3C3.11,10.52,3,10.26,3,10c0-0.271,0.11-0.521,0.29-0.71
			c0.37-0.37,1.04-0.37,1.42,0C4.89,9.479,5,9.74,5,10s-0.11,0.52-0.29,0.71C4.52,10.89,4.26,11,4,11z"/>
		<path style="fill:#937669;" d="M43,10c0-0.55,0.45-1,1-1l0,0c0.55,0,1,0.45,1,1l0,0c0,0.55-0.45,1-1,1l0,0
			C43.45,11,43,10.55,43,10z M39,10c0-0.55,0.45-1,1-1l0,0c0.55,0,1,0.45,1,1l0,0c0,0.55-0.45,1-1,1l0,0C39.45,11,39,10.55,39,10z
			 M35,10c0-0.55,0.45-1,1-1l0,0c0.55,0,1,0.45,1,1l0,0c0,0.55-0.45,1-1,1l0,0C35.45,11,35,10.55,35,10z M31,10c0-0.55,0.45-1,1-1
			l0,0c0.55,0,1,0.45,1,1l0,0c0,0.55-0.45,1-1,1l0,0C31.45,11,31,10.55,31,10z M27,10c0-0.55,0.45-1,1-1l0,0c0.55,0,1,0.45,1,1l0,0
			c0,0.55-0.45,1-1,1l0,0C27.45,11,27,10.55,27,10z M23,10c0-0.55,0.45-1,1-1l0,0c0.55,0,1,0.45,1,1l0,0c0,0.55-0.45,1-1,1l0,0
			C23.45,11,23,10.55,23,10z M19,10c0-0.55,0.45-1,1-1l0,0c0.55,0,1,0.45,1,1l0,0c0,0.55-0.45,1-1,1l0,0C19.45,11,19,10.55,19,10z
			 M15,10c0-0.55,0.45-1,1-1l0,0c0.55,0,1,0.45,1,1l0,0c0,0.55-0.45,1-1,1l0,0C15.45,11,15,10.55,15,10z M11,10c0-0.55,0.45-1,1-1
			l0,0c0.55,0,1,0.45,1,1l0,0c0,0.55-0.45,1-1,1l0,0C11.45,11,11,10.55,11,10z M7,10c0-0.55,0.45-1,1-1l0,0c0.55,0,1,0.45,1,1l0,0
			c0,0.55-0.45,1-1,1l0,0C7.45,11,7,10.55,7,10z"/>
		<path style="fill:#937669;" d="M48,11c-0.271,0-0.521-0.11-0.71-0.3C47.109,10.52,47,10.26,47,10s0.109-0.521,0.29-0.71
			c0.37-0.37,1.04-0.37,1.42,0C48.89,9.479,49,9.729,49,10c0,0.26-0.11,0.52-0.29,0.71C48.52,10.89,48.26,11,48,11z"/>
		<path style="fill:#937669;" d="M47,13.58c0-0.55,0.45-0.99,1-0.99l0,0c0.55,0,1,0.44,1,0.99l0,0c0,0.56-0.45,1-1,1l0,0
			C47.45,14.58,47,14.14,47,13.58z"/>
		<path style="fill:#937669;" d="M48,18.17c-0.271,0-0.521-0.11-0.71-0.3c-0.181-0.181-0.29-0.431-0.29-0.7
			c0-0.271,0.109-0.53,0.3-0.71c0.36-0.37,1.04-0.37,1.41,0c0.18,0.189,0.29,0.439,0.29,0.71c0,0.26-0.11,0.52-0.29,0.7
			C48.52,18.06,48.27,18.17,48,18.17z"/>
	</g>
	<circle style="fill:#FFFFFF;" cx="49.262" cy="27.825" r="1.762"/>
</g>
<g>
</g>
<g>
</g>
<g>
</g>
<g>
</g>
<g>
</g>
<g>
</g>
<g>
</g>
<g>
</g>
<g>
</g>
<g>
</g>
<g>
</g>
<g>
</g>
<g>
</g>
<g>
</g>
<g>
</g>
</svg>
