<?xml version="1.0" encoding="iso-8859-1"?>
<!-- Generator: Adobe Illustrator 19.0.0, SVG Export Plug-In . SVG Version: 6.00 Build 0)  -->
<svg version="1.1" id="Capa_1" xmlns="http://www.w3.org/2000/svg" xmlns:xlink="http://www.w3.org/1999/xlink" x="0px" y="0px"
	 viewBox="0 0 512 512" style="enable-background:new 0 0 512 512;" xml:space="preserve">
<polygon style="fill:#C7A772;" points="196,422 256,482 482,482 482,512 512,512 512,452 "/>
<polygon style="fill:#FCBA66;" points="256,422 0,452 0,512 30,512 30,482 256,482 "/>
<polygon style="fill:#FEDD90;" points="352,332 322,452 256,452 226,332 "/>
<g>
	<polygon style="fill:#FFF2A3;" points="256,332 256,452 190,452 160,332 	"/>
	<polygon style="fill:#FFF2A3;" points="352,242 352,362 256,362 226,242 	"/>
</g>
<rect x="160" y="242" style="fill:#FFFFFF;" width="96" height="120"/>
<polygon style="fill:#FEDD90;" points="352,152 352,272 256,272 226,152 "/>
<g>
	<rect x="160" y="152" style="fill:#FFF2A3;" width="96" height="120"/>
	<polygon style="fill:#FFF2A3;" points="226,62 256,182 352,182 352,62 	"/>
</g>
<rect x="160" y="62" style="fill:#FFFFFF;" width="96" height="120"/>
<polygon style="fill:#FEDD90;" points="0,92 0,452 190,452 190,47 "/>
<polygon style="fill:#FCBA66;" points="322,47 322,452 512,452 512,92 "/>
<rect x="130" y="227" style="fill:#593927;" width="30" height="90"/>
<rect x="352" y="227" style="fill:#480306;" width="30" height="90"/>
<path style="fill:#FEDD90;" d="M336.75,30C315.08,11.31,286.86,0,256,0l-50,53.5L256,92h256V30H336.75z"/>
<path style="fill:#FFF2A3;" d="M175.25,30H0v62h256V0C225.14,0,196.92,11.31,175.25,30z"/>
<g>
</g>
<g>
</g>
<g>
</g>
<g>
</g>
<g>
</g>
<g>
</g>
<g>
</g>
<g>
</g>
<g>
</g>
<g>
</g>
<g>
</g>
<g>
</g>
<g>
</g>
<g>
</g>
<g>
</g>
</svg>
