<?xml version="1.0" encoding="iso-8859-1"?>
<!-- Generator: Adobe Illustrator 19.0.0, SVG Export Plug-In . SVG Version: 6.00 Build 0)  -->
<svg version="1.1" id="Capa_1" xmlns="http://www.w3.org/2000/svg" xmlns:xlink="http://www.w3.org/1999/xlink" x="0px" y="0px"
	 viewBox="0 0 511.998 511.998" style="enable-background:new 0 0 511.998 511.998;" xml:space="preserve">
<path style="fill:#F5C57B;" d="M483.367,471.5c-0.96-12.155-5.084-24.021-9.756-35.195c-1.24-2.965-10.479-27.359-13.318-27.359
	c-0.01,0-20.969,0-20.969,0s-20.958,0-20.969,0c-2.838,0-12.078,24.394-13.318,27.359c-4.671,11.174-8.796,23.04-9.756,35.195
	c-2.084,26.397,19.258,40.498,44.042,40.498C464.109,511.998,485.451,497.897,483.367,471.5z"/>
<path style="fill:#E5B473;" d="M439.321,511.998c-3.585,0-7.098-0.299-10.477-0.886c19.985-3.451,35.335-17.039,33.553-39.61
	c-0.958-12.156-5.079-24.023-9.756-35.201c-1.236-2.957-10.477-27.351-13.32-27.351c0,0,20.964,0,20.974,0
	c2.833,0,12.074,24.394,13.32,27.351c4.667,11.177,8.787,23.045,9.756,35.201C485.452,497.895,464.107,511.998,439.321,511.998z"/>
<rect x="418.36" y="342.42" style="fill:#E4E8EB;" width="41.938" height="66.53"/>
<rect x="439.32" y="342.42" style="fill:#D6D6D6;" width="20.969" height="66.53"/>
<path style="fill:#E4E8EB;" d="M343.64,511.311H36.728c-4.552,0-8.241-3.69-8.241-8.241V8.241C28.486,3.69,32.176,0,36.728,0H343.64
	c4.552,0,8.241,3.69,8.241,8.241V503.07C351.881,507.622,348.191,511.311,343.64,511.311z"/>
<path style="fill:#D6D6D6;" d="M351.88,8.245v494.822c0,4.553-3.688,8.241-8.241,8.241h-33.13c4.553,0,8.241-3.688,8.241-8.241
	V8.245c0-4.553-3.688-8.241-8.241-8.241h33.13C348.192,0.004,351.88,3.692,351.88,8.245z"/>
<circle style="fill:#0EA02C;" cx="119.73" cy="97.91" r="54.09"/>
<path style="fill:#0C9122;" d="M173.826,97.911c0,29.875-24.219,54.094-54.094,54.094c-4.502,0-8.87-0.546-13.042-1.587
	c23.57-5.841,41.042-27.135,41.042-52.508S130.26,51.243,106.69,45.402c4.172-1.04,8.54-1.587,13.042-1.587
	C149.606,43.817,173.826,68.036,173.826,97.911z"/>
<circle style="fill:#EF4836;" cx="260.63" cy="97.91" r="54.09"/>
<path style="fill:#DB3D31;" d="M314.727,97.914c0,29.875-24.219,54.094-54.094,54.094c-4.502,0-8.87-0.546-13.042-1.587
	c23.57-5.841,41.042-27.135,41.042-52.508s-17.472-46.667-41.042-52.508c4.172-1.04,8.54-1.587,13.042-1.587
	C290.507,43.819,314.727,68.039,314.727,97.914z"/>
<circle style="fill:#F5C57B;" cx="260.63" cy="255.66" r="54.09"/>
<path style="fill:#E5B473;" d="M314.727,255.655c0,29.875-24.219,54.094-54.094,54.094c-4.502,0-8.87-0.546-13.042-1.587
	c23.57-5.841,41.042-27.135,41.042-52.508s-17.472-46.667-41.042-52.508c4.172-1.04,8.54-1.587,13.042-1.587
	C290.507,201.561,314.727,225.78,314.727,255.655z"/>
<circle style="fill:#B6D84D;" cx="119.73" cy="255.66" r="54.09"/>
<path style="fill:#ACC63E;" d="M173.828,255.655c0,29.875-24.219,54.094-54.094,54.094c-4.502,0-8.87-0.546-13.042-1.587
	c23.57-5.841,41.042-27.135,41.042-52.508s-17.472-46.667-41.042-52.508c4.172-1.04,8.54-1.587,13.042-1.587
	C149.609,201.561,173.828,225.78,173.828,255.655z"/>
<circle style="fill:#F8D534;" cx="119.73" cy="413.4" r="54.09"/>
<path style="fill:#E5C129;" d="M173.828,413.396c0,29.875-24.219,54.094-54.094,54.094c-4.502,0-8.87-0.546-13.042-1.587
	c23.57-5.841,41.042-27.135,41.042-52.508s-17.472-46.667-41.042-52.508c4.172-1.04,8.54-1.586,13.042-1.586
	C149.609,359.302,173.828,383.521,173.828,413.396z"/>
<circle style="fill:#1D83D8;" cx="260.63" cy="413.4" r="54.09"/>
<path style="fill:#147BC1;" d="M314.727,413.396c0,29.875-24.219,54.094-54.094,54.094c-4.502,0-8.87-0.546-13.042-1.587
	c23.57-5.841,41.042-27.135,41.042-52.508s-17.472-46.667-41.042-52.508c4.172-1.04,8.54-1.586,13.042-1.586
	C290.507,359.302,314.727,383.521,314.727,413.396z"/>
<path style="fill:#845230;" d="M460.294,342.418h-41.938V13.987C418.356,6.262,424.618,0,432.343,0h13.964
	c7.725,0,13.987,6.262,13.987,13.987L460.294,342.418L460.294,342.418z"/>
<path style="fill:#754728;" d="M460.296,13.983v328.439h-20.974V13.983c0-6.5-4.45-11.971-10.467-13.537
	c1.113-0.288,2.287-0.443,3.492-0.443h13.959C454.032,0.004,460.296,6.267,460.296,13.983z"/>
<g>
</g>
<g>
</g>
<g>
</g>
<g>
</g>
<g>
</g>
<g>
</g>
<g>
</g>
<g>
</g>
<g>
</g>
<g>
</g>
<g>
</g>
<g>
</g>
<g>
</g>
<g>
</g>
<g>
</g>
</svg>
