<?xml version="1.0" encoding="iso-8859-1"?>
<!-- Generator: Adobe Illustrator 19.0.0, SVG Export Plug-In . SVG Version: 6.00 Build 0)  -->
<svg version="1.1" id="Capa_1" xmlns="http://www.w3.org/2000/svg" xmlns:xlink="http://www.w3.org/1999/xlink" x="0px" y="0px"
	 viewBox="0 0 512 512" style="enable-background:new 0 0 512 512;" xml:space="preserve">
<path style="fill:#D8D8DA;" d="M43.51,212.49C19.52,212.49,0,232.01,0,256s19.52,43.51,43.51,43.51c24,0,43.52-19.52,43.52-43.51
	S67.51,212.49,43.51,212.49z M43.51,269.51C36.06,269.51,30,263.45,30,256c0-7.45,6.06-13.51,13.51-13.51
	c7.46,0,13.52,6.06,13.52,13.51C57.03,263.45,50.97,269.51,43.51,269.51z"/>
<path style="fill:#C7C5CC;" d="M57.03,256h30c0,23.99-19.52,43.51-43.52,43.51C19.52,299.51,0,279.99,0,256h30
	c0,7.45,6.06,13.51,13.51,13.51C50.97,269.51,57.03,263.45,57.03,256z"/>
<polygon style="fill:#FFA920;" points="512,118.28 512,230.61 466,240.47 436,246.9 325.14,270.67 322,256 210.3,148.28 
	194.75,148.28 194.75,118.28 "/>
<g>
	<polygon style="fill:#6D76E6;" points="466,118.28 466,240.47 436,246.9 436,118.28 	"/>
	<path style="fill:#6D76E6;" d="M332.46,256c0,25.16-6.86,49.79-19.83,71.22c-12.05,19.91-29.07,36.57-49.22,48.18
		c-20.8,11.98-44.54,18.32-68.66,18.32c-75.94,0-137.72-61.78-137.72-137.72s61.78-137.72,137.72-137.72
		c30.28,0,59.02,9.65,83.11,27.91C312.56,172.49,332.46,212.52,332.46,256z"/>
</g>
<path style="fill:#495AE3;" d="M332.46,256c0,25.16-6.86,49.79-19.83,71.22c-12.05,19.91-29.07,36.57-49.22,48.18
	c-20.8,11.98-44.54,18.32-68.66,18.32c-75.94,0-137.72-61.78-137.72-137.72H332.46z"/>
<path style="fill:#FFDAA8;" d="M263.18,221.99c-5.16-10.39-12.73-19.58-22.35-26.87c-13.36-10.13-29.29-15.48-46.08-15.48
	c-42.11,0-76.36,34.26-76.36,76.36s34.25,76.36,76.36,76.36c26.95,0,51.38-13.78,65.35-36.87c7.2-11.88,11-25.54,11-39.49
	C271.1,243.94,268.34,232.37,263.18,221.99z M234.44,279.96c-8.49,14.02-23.33,22.4-39.69,22.4c-25.57,0-46.36-20.8-46.36-46.36
	s20.79-46.36,46.36-46.36c5.09,0,10.06,0.81,14.76,2.39c4.71,1.58,9.15,3.93,13.2,7c11.69,8.86,18.39,22.33,18.39,36.97
	C241.1,264.47,238.8,272.76,234.44,279.96z"/>
<path style="fill:#FFC373;" d="M271.1,256c0,13.95-3.8,27.61-11,39.49c-13.97,23.09-38.4,36.87-65.35,36.87
	c-42.11,0-76.36-34.26-76.36-76.36h30c0,25.56,20.79,46.36,46.36,46.36c16.36,0,31.2-8.38,39.69-22.4
	c4.36-7.2,6.66-15.49,6.66-23.96H271.1z"/>
<g>
</g>
<g>
</g>
<g>
</g>
<g>
</g>
<g>
</g>
<g>
</g>
<g>
</g>
<g>
</g>
<g>
</g>
<g>
</g>
<g>
</g>
<g>
</g>
<g>
</g>
<g>
</g>
<g>
</g>
</svg>
