<?xml version="1.0" encoding="iso-8859-1"?>
<!-- Generator: Adobe Illustrator 19.0.0, SVG Export Plug-In . SVG Version: 6.00 Build 0)  -->
<svg version="1.1" id="Capa_1" xmlns="http://www.w3.org/2000/svg" xmlns:xlink="http://www.w3.org/1999/xlink" x="0px" y="0px"
	 viewBox="0 0 512 512" style="enable-background:new 0 0 512 512;" xml:space="preserve">
<polygon style="fill:#FF4F19;" points="301.195,45.195 256,0 210.805,45.195 232.018,66.408 241,57.426 241,191.88 271,191.88 
	271,57.426 279.982,66.408 "/>
<polygon style="fill:#BF3B13;" points="256,0 256,191.88 271,191.88 271,57.426 279.982,66.408 301.195,45.195 "/>
<polygon style="fill:#FF4F19;" points="45.195,210.805 0,256 45.195,301.195 66.408,279.982 57.426,271 191.88,271 191.88,241 
	57.426,241 66.408,232.018 "/>
<polygon style="fill:#BF3B13;" points="0,256 191.88,256 191.88,241 57.426,241 66.408,232.018 45.195,210.805 "/>
<polygon style="fill:#FF4F19;" points="301.195,466.805 256,512 210.805,466.805 232.018,445.592 241,454.574 241,320.12 
	271,320.12 271,454.574 279.982,445.592 "/>
<polyline style="fill:#BF3B13;" points="256,479.211 256,320.12 271,320.12 271,454.574 279.982,445.592 301.195,466.805 256,512 
	256,479.211 "/>
<polygon style="fill:#FF4F19;" points="466.805,301.195 512,256 466.805,210.805 445.592,232.018 454.574,241 320.12,241 
	320.12,271 454.574,271 445.592,279.982 "/>
<polygon style="fill:#BF3B13;" points="512,256 320.12,256 320.12,271 454.574,271 445.592,279.982 466.805,301.195 "/>
<g>
	
		<rect x="72.857" y="116.604" transform="matrix(-0.7071 -0.7071 0.7071 -0.7071 131.6165 317.7259)" style="fill:#FFDB2D;" width="117.509" height="30"/>
	
		<rect x="116.611" y="321.628" transform="matrix(-0.7071 -0.7071 0.7071 -0.7071 -44.2968 742.417)" style="fill:#FFDB2D;" width="30" height="117.509"/>
</g>
<g>
	
		<rect x="321.632" y="365.384" transform="matrix(-0.7071 -0.7071 0.7071 -0.7071 380.3882 918.33)" style="fill:#FFB300;" width="117.509" height="30"/>
	
		<rect x="365.391" y="72.852" transform="matrix(-0.7071 -0.7071 0.7071 -0.7071 556.308 493.6436)" style="fill:#FFB300;" width="30" height="117.509"/>
</g>
<path style="fill:#B7E4F8;" d="M255.999,420.333c-90.613,0-164.333-73.72-164.333-164.333c0-90.614,73.72-164.334,164.333-164.334
	c90.614,0,164.334,73.72,164.334,164.334C420.333,346.613,346.614,420.333,255.999,420.333z"/>
<g>
	<path style="fill:#6FC8F1;" d="M255.999,91.667c90.614,0,164.334,73.72,164.334,164.334c0,90.613-73.72,164.333-164.334,164.333"/>
	<path style="fill:#6FC8F1;" d="M256,420.333c-14.801,0-35.735-9.325-51.413-53.747C194.08,336.819,188.294,297.545,188.294,256
		s5.786-80.819,16.293-110.587c15.678-44.422,36.612-53.747,51.413-53.747s35.735,9.325,51.414,53.747
		c10.506,29.768,16.292,69.042,16.292,110.587s-5.786,80.819-16.292,110.586C291.735,411.009,270.801,420.333,256,420.333z
		 M256,121.667c-4.51,0-14.389,8.983-23.124,33.731c-9.403,26.643-14.582,62.371-14.582,100.603s5.179,73.959,14.582,100.602
		c8.735,24.748,18.614,33.731,23.124,33.731c4.51,0,14.39-8.983,23.124-33.731c9.403-26.643,14.582-62.371,14.582-100.602
		c0-38.232-5.179-73.96-14.582-100.603C270.389,130.65,260.509,121.667,256,121.667z"/>
</g>
<g>
	<path style="fill:#4BBAED;" d="M256,323.706c-41.545,0-80.819-5.786-110.587-16.293C100.991,291.735,91.667,270.801,91.667,256
		s9.324-35.735,53.746-51.414C175.18,194.08,214.455,188.294,256,188.294s80.819,5.786,110.587,16.292
		c44.423,15.678,53.747,36.613,53.747,51.414s-9.324,35.735-53.747,51.413C336.819,317.92,297.545,323.706,256,323.706z
		 M256,218.294c-38.231,0-73.959,5.179-100.602,14.582c-24.747,8.734-33.73,18.614-33.73,23.124c0,4.509,8.983,14.389,33.73,23.123
		c26.643,9.403,62.371,14.582,100.602,14.582c38.232,0,73.96-5.179,100.603-14.582c24.748-8.734,33.732-18.614,33.732-23.123
		c0-4.51-8.983-14.39-33.732-23.124C329.96,223.473,294.231,218.294,256,218.294z"/>
	<path style="fill:#4BBAED;" d="M256,420.333c14.801,0,35.735-9.325,51.414-53.747c10.506-29.768,16.292-69.041,16.292-110.586
		s-5.786-80.819-16.292-110.587C291.735,100.991,270.801,91.667,256,91.667v30c4.51,0,14.39,8.983,23.124,33.731
		c9.403,26.643,14.582,62.371,14.582,100.603c0,38.231-5.179,73.959-14.582,100.602c-8.734,24.748-18.614,33.731-23.124,33.731"/>
</g>
<path style="fill:#388CB2;" d="M366.587,204.587C336.819,194.08,297.545,188.294,256,188.294v30
	c38.231,0,73.96,5.179,100.602,14.582c24.748,8.734,33.732,18.614,33.732,23.124c0,4.509-8.983,14.389-33.732,23.123
	c-26.643,9.403-62.371,14.582-100.602,14.582v30c41.545,0,80.819-5.786,110.587-16.293c44.423-15.678,53.747-36.612,53.747-51.413
	C420.334,241.199,411.009,220.265,366.587,204.587z"/>
<path style="fill:#4BBAED;" d="M256,121.667c4.51,0,14.39,8.983,23.124,33.731c9.403,26.643,14.582,62.371,14.582,100.603
	c0,0.135-0.004,0.268-0.004,0.403h30c0-0.135,0.004-0.268,0.004-0.403c0-41.545-5.786-80.819-16.292-110.587
	C291.735,100.991,270.801,91.667,256,91.667"/>
<g>
</g>
<g>
</g>
<g>
</g>
<g>
</g>
<g>
</g>
<g>
</g>
<g>
</g>
<g>
</g>
<g>
</g>
<g>
</g>
<g>
</g>
<g>
</g>
<g>
</g>
<g>
</g>
<g>
</g>
</svg>
