<?xml version="1.0" encoding="iso-8859-1"?>
<!-- Generator: Adobe Illustrator 19.0.0, SVG Export Plug-In . SVG Version: 6.00 Build 0)  -->
<svg version="1.1" id="Capa_1" xmlns="http://www.w3.org/2000/svg" xmlns:xlink="http://www.w3.org/1999/xlink" x="0px" y="0px"
	 viewBox="0 0 512.001 512.001" style="enable-background:new 0 0 512.001 512.001;" xml:space="preserve">
<path style="fill:#3A3A41;" d="M405.114,7.987c-24.328,0-48.138,8.396-67.042,23.641c-18.614,15.012-31.8,36.053-37.124,59.247
	l14.621,3.357l0,0l94.206,112.399l0,0l0.749,14.982c56.902-2.844,101.476-49.731,101.476-106.741
	C512,55.937,464.051,7.987,405.114,7.987z"/>
<path style="fill:#57555C;" d="M211.052,90.876c-5.325-23.194-18.51-44.235-37.125-59.247
	c-18.904-15.245-42.713-23.641-67.042-23.641C47.949,7.987,0,55.937,0,114.873c0,57.011,44.573,103.897,101.476,106.741
	l0.749-14.982l0,0l94.206-112.399l0,0L211.052,90.876z"/>
<path style="fill:#C5C3CA;" d="M428.133,239.03c0,59.193-63.133,143.148-116.096,203.151c-5.82,6.58-12.661,12.011-20.341,16.131
	l-7.09-13.221l-27.641-0.47l-29.362-0.49l-7.54,12.971c-6.8-3.96-12.911-8.98-18.161-14.921
	C148.938,382.167,85.795,298.213,85.795,239.03c0-94.385,76.784-171.169,171.169-171.169S428.133,144.645,428.133,239.03z"/>
<path style="fill:#ABAAB0;" d="M428.133,239.03c0,59.193-63.133,143.148-116.096,203.151c-5.82,6.58-12.661,12.011-20.341,16.131
	l-7.09-13.221l-27.641-0.47V67.861C351.349,67.861,428.133,144.645,428.133,239.03z"/>
<g>
	<path style="fill:#57555C;" d="M300.026,460.001c0,23.951-19.221,43.492-43.062,44.002c-0.31,0.01-0.63,0.01-0.95,0.01
		c-24.271,0-44.012-19.741-44.012-44.012c0-24.261,19.741-44.002,44.012-44.002c0.32,0,0.64,0,0.95,0.01
		C280.805,416.519,300.026,436.06,300.026,460.001z"/>
	<circle style="fill:#57555C;" cx="207.261" cy="299.407" r="15.521"/>
</g>
<circle style="fill:#3A3A41;" cx="310.206" cy="299.407" r="15.521"/>
<g>
	<rect x="101.815" y="329.008" style="fill:#88868F;" width="106.156" height="30.002"/>
	
		<rect x="151.073" y="350.273" transform="matrix(-0.2692 -0.9631 0.9631 -0.2692 -172.2486 664.7167)" style="fill:#88868F;" width="30.002" height="94.876"/>
</g>
<path style="fill:#3A3A41;" d="M300.026,460.001c0,23.951-19.221,43.492-43.062,44.002v-87.995
	C280.805,416.519,300.026,436.06,300.026,460.001z"/>
<g>
	<rect x="306.976" y="329.008" style="fill:#78777F;" width="106.156" height="30.002"/>
	
		<rect x="300.943" y="382.713" transform="matrix(-0.9631 -0.2692 0.2692 -0.9631 576.8385 874.5301)" style="fill:#78777F;" width="94.876" height="30.002"/>
</g>
<g>
</g>
<g>
</g>
<g>
</g>
<g>
</g>
<g>
</g>
<g>
</g>
<g>
</g>
<g>
</g>
<g>
</g>
<g>
</g>
<g>
</g>
<g>
</g>
<g>
</g>
<g>
</g>
<g>
</g>
</svg>
