<?xml version="1.0" encoding="iso-8859-1"?>
<!-- Generator: Adobe Illustrator 19.0.0, SVG Export Plug-In . SVG Version: 6.00 Build 0)  -->
<svg version="1.1" id="Capa_1" xmlns="http://www.w3.org/2000/svg" xmlns:xlink="http://www.w3.org/1999/xlink" x="0px" y="0px"
	 viewBox="0 0 512 512" style="enable-background:new 0 0 512 512;" xml:space="preserve">
<path style="fill:#974C00;" d="M493.784,37.919c-6.623-16.973-16.825-28.467-30.321-34.162c-18.65-7.873-35.858-1.053-37.76-0.249
	l-0.618,0.261l-88.158,46.959l14.103,26.479l5.496-2.927l56.883,46.749l-0.808,14.979c3.612,0.194,7.115,0.292,10.517,0.292
	c32.511-0.001,55.407-8.89,68.137-26.483C504.253,91.846,505.127,66.985,493.784,37.919z"/>
<path style="fill:#E37500;" d="M86.297,3.507c-1.899-0.803-19.107-7.623-37.76,0.249c-13.496,5.696-23.698,17.19-30.321,34.163
	C6.872,66.985,7.747,91.846,20.745,109.813c12.731,17.595,35.622,26.483,68.137,26.483c3.4,0,6.908-0.098,10.518-0.292
	l-0.808-14.979l56.883-46.749l5.496,2.928l14.104-26.479L86.915,3.768L86.297,3.507z"/>
<path style="fill:#FFA720;" d="M461.509,240.642c0.03,3.62-0.21,26.22-9.43,54.39c-13.09,40-38.3,72.86-72.89,95.029l-3.7,2.37
	h-7.06v-15H143.571v15h-7.06l-3.7-2.37c-34.59-22.17-59.8-55.03-72.89-95.029c-9.22-28.17-9.46-50.77-9.43-54.39
	c-1.81-62.02,15.35-112.099,51.01-148.859c23.42-24.15,51.45-39.01,77.17-48.14c10.54-3.75,20.7-6.54,30-8.6
	c12.85-2.87,24.04-4.36,32.33-5.14c8.64-0.82,14.12-0.86,15-0.86h0.06c1.05,0,6.48,0.06,14.94,0.86c8.29,0.78,19.48,2.27,32.33,5.14
	c9.3,2.06,19.46,4.85,30,8.6c25.72,9.13,53.75,23.99,77.17,48.14C446.159,128.543,463.319,178.622,461.509,240.642z"/>
<path style="fill:#FF8600;" d="M461.509,240.642c0.03,3.62-0.21,26.22-9.43,54.39c-13.09,40-38.3,72.86-72.89,95.029l-3.7,2.37
	h-7.06v-15H256.06V29.044c1.05,0,6.48,0.06,14.94,0.86c8.29,0.78,19.48,2.27,32.33,5.14c9.3,2.06,19.46,4.85,30,8.6
	c25.72,9.13,53.75,23.99,77.17,48.14C446.159,128.543,463.319,178.622,461.509,240.642z"/>
<path style="fill:#FFA720;" d="M340.029,431.01c0,2.07-0.29,20.74-10.34,39.95c-9.79,18.71-30.51,41.02-73.63,41.04H256
	c-43.15,0-63.92-22.31-73.75-41.02c-10.08-19.21-10.4-37.87-10.41-39.94l15-0.03h0.06l14.94-0.11v0.11H340.029z"/>
<circle style="fill:#57555C;" cx="142.709" cy="238.998" r="15.52"/>
<circle style="fill:#3A3A41;" cx="369.287" cy="238.998" r="15.52"/>
<g>
	<path style="fill:#E37500;" d="M271,29.903v92.309h-30V29.903c8.64-0.82,14.12-0.86,15-0.86h0.06
		C257.11,29.044,262.54,29.103,271,29.903z"/>
	<path style="fill:#E37500;" d="M208.67,35.044v64.01h-30v-55.41C189.21,39.894,199.37,37.103,208.67,35.044z"/>
</g>
<path style="fill:#974C00;" d="M333.329,43.644v55.41h-30v-64.01C312.63,37.103,322.79,39.894,333.329,43.644z"/>
<path style="fill:#FFD8A6;" d="M354.139,429.071c-12.22,11.27-28.6,16.92-48.95,16.92c-14.4,0-30.8-2.82-49.13-8.49
	c-0.02-0.01-0.04-0.01-0.06-0.02c-44.25,13.68-77.25,10.85-98.139-8.41c-30.27-27.94-21.08-77.71-17.54-92.299
	c4.57-18.85,14.9-42.08,30.7-69.06l4.35-7.42l80.69,0.01h80.58l4.34,7.41c15.8,26.98,26.13,50.21,30.7,69.06
	C375.219,351.361,384.409,401.13,354.139,429.071z"/>
<path style="fill:#FF8600;" d="M340.029,431.01c0,2.07-0.29,20.74-10.34,39.95c-9.79,18.71-30.51,41.02-73.63,41.04v-80.99H340.029z
	"/>
<path style="fill:#FFC173;" d="M354.139,429.071c-12.22,11.27-28.6,16.92-48.95,16.92c-14.4,0-30.8-2.82-49.13-8.49V260.302h80.58
	l4.34,7.41c15.8,26.98,26.13,50.21,30.7,69.06C375.219,351.361,384.409,401.13,354.139,429.071z"/>
<path style="fill:#974C00;" d="M271,122.212h-14.94V29.043c1.05,0,6.48,0.06,14.94,0.86V122.212z"/>
<path style="fill:#E37500;" d="M283.51,365.861l-19.02,32.95c-1.88,3.25-5.15,4.89-8.43,4.91c-3.32,0.01-6.65-1.62-8.55-4.91
	l-19.02-32.95c-3.78-6.53,0.94-14.7,8.49-14.7h38.04C282.57,351.161,287.29,359.331,283.51,365.861z"/>
<path style="fill:#974C00;" d="M283.51,365.861l-19.02,32.95c-1.88,3.25-5.15,4.89-8.43,4.91v-52.56h18.96
	C282.57,351.161,287.29,359.331,283.51,365.861z"/>
<g>
</g>
<g>
</g>
<g>
</g>
<g>
</g>
<g>
</g>
<g>
</g>
<g>
</g>
<g>
</g>
<g>
</g>
<g>
</g>
<g>
</g>
<g>
</g>
<g>
</g>
<g>
</g>
<g>
</g>
</svg>
