<?xml version="1.0" encoding="iso-8859-1"?>
<!-- Generator: Adobe Illustrator 19.0.0, SVG Export Plug-In . SVG Version: 6.00 Build 0)  -->
<svg version="1.1" id="Capa_1" xmlns="http://www.w3.org/2000/svg" xmlns:xlink="http://www.w3.org/1999/xlink" x="0px" y="0px"
	 viewBox="0 0 511.999 511.999" style="enable-background:new 0 0 511.999 511.999;" xml:space="preserve">
<rect x="92.287" y="287.114" style="fill:#57555C;" width="30.009" height="30.009"/>
<rect x="176.833" y="10.754" transform="matrix(-0.6232 -0.7821 0.7821 -0.6232 300.9403 196.5155)" style="fill:#C5C3CA;" width="41.96" height="30.01"/>
<rect x="299.188" y="4.783" transform="matrix(-0.7821 -0.6232 0.6232 -0.7821 543.8611 241.7102)" style="fill:#ABAAB0;" width="30.01" height="41.96"/>
<path style="fill:#57555C;" d="M347.627,107.089c0,6.622-0.71,13.224-2.121,19.626l-14.654-3.221H181.147l-14.654,3.221
	c-1.41-6.402-2.121-13.004-2.121-19.626c0-50.525,41.102-91.637,91.627-91.637S347.627,56.564,347.627,107.089z"/>
<path style="fill:#FF3B62;" d="M457.089,302.036c0,115.774-90.207,209.962-201.09,209.962S54.91,417.811,54.91,302.036
	c0-115.764,90.207-209.952,201.09-209.952S457.089,186.272,457.089,302.036z"/>
<path style="fill:#3A3A41;" d="M347.627,107.089c0,6.622-0.71,13.224-2.121,19.626l-14.654-3.221h-74.852V15.451
	C306.524,15.451,347.627,56.564,347.627,107.089z"/>
<path style="fill:#E50020;" d="M457.089,302.036c0,115.774-90.207,209.962-201.09,209.962V92.084
	C366.882,92.084,457.089,186.272,457.089,302.036z"/>
<g>
	<rect x="130.358" y="195.687" style="fill:#57555C;" width="30.009" height="30.009"/>
	<rect x="187.975" y="145.112" style="fill:#57555C;" width="30.009" height="30.009"/>
	<rect x="197.798" y="254.444" style="fill:#57555C;" width="30.009" height="30.009"/>
	<rect x="179.373" y="334.548" style="fill:#57555C;" width="30.009" height="30.009"/>
	<rect x="119.355" y="380.392" style="fill:#57555C;" width="30.009" height="30.009"/>
	<rect x="194.377" y="430.987" style="fill:#57555C;" width="30.009" height="30.009"/>
</g>
<g>
	<rect x="354.775" y="195.687" style="fill:#3A3A41;" width="30.009" height="30.009"/>
	<rect x="297.158" y="145.112" style="fill:#3A3A41;" width="30.009" height="30.009"/>
	<rect x="287.335" y="254.444" style="fill:#3A3A41;" width="30.009" height="30.009"/>
	<rect x="305.76" y="334.548" style="fill:#3A3A41;" width="30.009" height="30.009"/>
	<rect x="365.778" y="380.392" style="fill:#3A3A41;" width="30.009" height="30.009"/>
	<rect x="392.856" y="287.034" style="fill:#3A3A41;" width="30.009" height="30.009"/>
	<rect x="290.756" y="430.987" style="fill:#3A3A41;" width="30.009" height="30.009"/>
</g>
<g>
</g>
<g>
</g>
<g>
</g>
<g>
</g>
<g>
</g>
<g>
</g>
<g>
</g>
<g>
</g>
<g>
</g>
<g>
</g>
<g>
</g>
<g>
</g>
<g>
</g>
<g>
</g>
<g>
</g>
</svg>
