<?xml version="1.0" encoding="iso-8859-1"?>
<!-- Generator: Adobe Illustrator 19.0.0, SVG Export Plug-In . SVG Version: 6.00 Build 0)  -->
<svg version="1.1" id="Capa_1" xmlns="http://www.w3.org/2000/svg" xmlns:xlink="http://www.w3.org/1999/xlink" x="0px" y="0px"
	 viewBox="0 0 512 512" style="enable-background:new 0 0 512 512;" xml:space="preserve">
<g>
	<path style="fill:#E37500;" d="M287.394,424.893c0,7.632-2.385,14.697-6.469,20.51c-3.08,4.402-7.135,8.059-11.845,10.693
		c-5.147,2.891-11.089,4.532-17.42,4.532c-2.465,0-4.879-0.239-7.204-0.725c-16.277-3.329-28.52-17.738-28.52-35.009
		c0-9.311,3.548-17.797,9.4-24.137l26.015-1.322l24.058-1.232C282.764,404.74,287.394,414.27,287.394,424.893z"/>
	<path style="fill:#E37500;" d="M287.394,370.258c0,11-4.601,20.918-11.984,27.943c-6.39,6.061-14.847,9.957-24.207,10.504
		c-0.765,0.06-1.541,0.08-2.325,0.08c-8.874,0-17.033-3.001-23.542-8.029c-9.112-7.055-14.985-18.086-14.985-30.497
		c0-6.131,1.441-11.935,3.985-17.072c0.795-1.609,1.709-3.16,2.712-4.641h63.647c1.561,2.286,2.882,4.74,3.925,7.334
		C286.411,360.322,287.394,365.171,287.394,370.258z"/>
</g>
<g>
	<polygon style="fill:#FF8600;" points="368.24,363.454 332.629,363.454 292.7,344.035 305.737,317.226 339.494,333.642 
		368.24,333.642 	"/>
	<polygon style="fill:#FF8600;" points="361.246,228.661 308.818,210.39 318.629,182.241 361.343,197.126 397.208,184.876 
		406.844,213.088 	"/>
	<polygon style="fill:#FF8600;" points="355.353,280.068 308.043,252.992 322.852,227.119 360.396,248.605 399.036,240.69 
		405.017,269.896 	"/>
	<polygon style="fill:#FF8600;" points="384.472,321.871 348.582,321.871 304.567,300.5 317.587,273.683 355.437,292.06 
		384.472,292.06 	"/>
</g>
<g>
	<polygon style="fill:#FFA720;" points="169.798,363.454 134.187,363.454 134.187,333.642 162.933,333.642 196.69,317.226 
		209.727,344.035 	"/>
	<polygon style="fill:#FFA720;" points="141.181,228.661 95.583,213.088 105.219,184.876 141.084,197.126 183.798,182.241 
		193.609,210.39 	"/>
	<polygon style="fill:#FFA720;" points="147.074,280.068 97.41,269.896 103.391,240.69 142.031,248.605 179.575,227.119 
		194.384,252.992 	"/>
	<polygon style="fill:#FFA720;" points="153.845,321.871 117.956,321.871 117.956,292.06 146.99,292.06 184.84,273.683 
		197.86,300.5 	"/>
</g>
<g>
	<path style="fill:#E37500;" d="M334.467,233.761c-0.368,10.872-1.431,21.782-3.24,32.494c-0.725,4.313-1.57,8.586-2.544,12.819
		c-0.04,0.229-0.1,0.458-0.149,0.685c-2.326,10.016-5.327,19.408-8.914,28.052c-1.908,4.601-3.975,8.993-6.201,13.146
		c-4.542,8.516-9.699,16.059-15.333,22.468c-0.665,0.765-1.342,1.511-2.037,2.236c-3.628,3.885-7.453,7.304-11.428,10.215
		c-10.355,7.612-21.703,11.776-33.409,11.776h-0.01c-13.028,0-25.609-5.157-36.867-14.468c-2.742-2.266-5.396-4.779-7.959-7.522
		c-6.439-6.866-12.292-15.175-17.37-24.703c-2.226-4.154-4.293-8.546-6.201-13.146c-3.588-8.646-6.588-18.036-8.913-28.052
		c-0.05-0.229-0.109-0.458-0.149-0.685c-0.974-4.233-1.818-8.506-2.544-12.819c-1.808-10.712-2.871-21.623-3.24-32.494
		c-0.169-4.809-0.189-9.619-0.089-14.399c0.249-11.089,1.222-22.031,2.872-32.574c0.825-5.217,1.808-10.344,2.951-15.333
		c5.247-22.855,13.902-43.038,25.519-57.645c14.072-17.698,32.047-27.059,51.991-27.059h0.01c19.944,0,37.93,9.361,52.001,27.059
		c11.597,14.588,20.252,34.74,25.499,57.566c1.153,5.018,2.146,10.165,2.971,15.412c1.649,10.543,2.624,21.485,2.872,32.574
		C334.656,224.142,334.636,228.952,334.467,233.761z"/>
	<path style="fill:#E37500;" d="M301.933,471.647c0,10.245-5.018,19.318-12.73,24.892c-5.048,3.656-11.259,5.813-17.976,5.813
		c-16.963,0-30.706-13.743-30.706-30.706c0-5.316,1.352-10.335,3.746-14.697l17.003-6.758l0.01-0.01l19.456-7.731
		C293.049,446.447,301.933,458.003,301.933,471.647z"/>
	<path style="fill:#E37500;" d="M369.157,454.456c-0.109,12.789-5.137,25.042-12.799,35.187
		c-11.021,14.597-28.639,25.25-47.43,21.653c-8.715-1.669-15.581-7.294-19.655-14.558c-4.711-8.387-5.694-18.96-1.501-28.162
		c0.457-1.004,0.974-1.987,1.56-2.941c7.682-12.65,24.416-16.804,38.297-16.565c15.969,0.279,27.646-5.177,40.862-13.116
		C369.346,441.856,369.207,448.444,369.157,454.456z"/>
	<path style="fill:#E37500;" d="M222.422,120.955c-2.456-1.156-24.116-11.908-28.806-33.2c-1.944-8.829-1.535-22.61,11.459-38.125
		l22.855,19.139c-2.864,3.422-6.094,8.371-5.211,12.521c1.189,5.592,8.932,10.998,12.496,12.739l-0.093-0.044L222.422,120.955z"/>
</g>
<g>
	<path style="fill:#974C00;" d="M280.005,120.955l-12.701-26.97l-0.093,0.044c3.564-1.741,11.307-7.147,12.496-12.739
		c0.883-4.15-2.347-9.099-5.211-12.521l22.855-19.139c12.993,15.515,13.402,29.296,11.459,38.125
		C304.121,109.046,282.46,119.799,280.005,120.955z"/>
	<path style="fill:#974C00;" d="M334.556,219.363c-0.249-11.09-1.222-22.031-2.872-32.574c-0.825-5.247-1.818-10.394-2.971-15.412
		c-5.247-22.825-13.902-42.978-25.499-57.566c-14.071-17.698-32.057-27.059-52.001-27.059h-0.01v321.954l10.066,41.487
		l27.923,46.347h0.01c7.712-5.575,12.73-14.647,12.73-24.892c0-13.009-8.083-24.103-19.506-28.572
		c3.16-5.331,4.968-11.541,4.968-18.182c0-10.623-4.631-20.153-11.984-26.692c7.383-7.025,11.984-16.943,11.984-27.943
		c0-5.088-0.984-9.938-2.772-14.379c3.975-2.911,7.801-6.33,11.428-10.215c0.695-0.725,1.372-1.471,2.037-2.236
		c5.635-6.41,10.792-13.952,15.333-22.468c2.226-4.154,4.293-8.546,6.201-13.146c3.588-8.646,6.588-18.036,8.914-28.052
		c0.05-0.229,0.109-0.458,0.149-0.685c0.974-4.233,1.818-8.506,2.544-12.819c1.808-10.713,2.872-21.623,3.24-32.495
		C334.636,228.952,334.656,224.142,334.556,219.363z"/>
	<path style="fill:#974C00;" d="M369.157,454.456c-0.109,12.789-5.137,25.042-12.799,35.187
		c-11.021,14.597-28.639,25.25-47.43,21.653c-8.715-1.669-15.581-7.294-19.655-14.558l-0.07-0.199c0,0,49.507-14.409,79.288-60.587
		C369.346,441.856,369.207,448.444,369.157,454.456z"/>
</g>
<path style="fill:#FFA720;" d="M303.215,113.811c-14.071-17.698-32.057-27.059-52.001-27.059h-0.01
	c-19.944,0-37.92,9.361-51.991,27.059c-6.042,7.599-11.275,16.715-15.653,26.922l-44.124,8.919l-21.433-30.434L93.63,136.382
	l32.637,46.345l49.98-10.101c3.132,1.401,6.954,2.988,11.408,4.614c4.223,1.531,9.002,3.1,14.279,4.562
	c13.544,3.756,30.348,6.827,49.269,6.926c15.263,0.09,31.909-1.749,49.338-6.718c4.691-1.332,9.44-2.892,14.239-4.701
	c4.601-1.739,9.251-3.706,13.932-5.932C323.467,148.55,314.811,128.398,303.215,113.811z"/>
<path style="fill:#FF8600;" d="M418.42,136.382l-24.373-17.165l-21.433,30.434l-54.377-10.992l-0.085,0.421
	c-4.229-9.542-9.224-18.084-14.938-25.27c-14.071-17.698-32.057-27.059-52.001-27.059h-0.01v101.975
	c15.263,0.09,31.909-1.749,49.338-6.718c4.691-1.332,9.44-2.892,14.239-4.701c4.601-1.739,9.251-3.706,13.932-5.932
	c-0.015-0.065-0.031-0.128-0.046-0.193l57.116,11.544L418.42,136.382z"/>
<path style="fill:#E37500;" d="M159.822,15.74l-19.705,22.866c-4.174,4.839-10.215,6.807-15.392,5.018
	c-5.187-1.798-8.715-7.085-8.993-13.465L114.409,0L91.265,19.388C80.573,28.351,71.867,41.399,66.76,56.134
	c-12.461,35.933-1.193,71.379,25.648,80.68c4.313,1.501,8.725,2.216,13.156,2.216c23.104,0,46.476-19.546,56.93-49.706
	c5.108-14.737,6.35-30.378,3.498-44.031L159.822,15.74z"/>
<path style="fill:#974C00;" d="M445.287,56.134c-5.108-14.737-13.813-27.795-24.505-36.748L397.647,0l-1.332,30.159
	c-0.279,6.38-3.806,11.666-8.983,13.465c-5.177,1.788-11.229-0.179-15.392-5.008L352.234,15.74l-6.181,29.553
	c-2.852,13.654-1.609,29.295,3.498,44.031c10.464,30.159,33.826,49.706,56.94,49.706c4.422,0,8.834-0.715,13.146-2.216
	c13.654-4.73,23.978-16.824,28.331-33.17C451.835,89.146,450.88,72.273,445.287,56.134z"/>
<g>
</g>
<g>
</g>
<g>
</g>
<g>
</g>
<g>
</g>
<g>
</g>
<g>
</g>
<g>
</g>
<g>
</g>
<g>
</g>
<g>
</g>
<g>
</g>
<g>
</g>
<g>
</g>
<g>
</g>
</svg>
