<?xml version="1.0" encoding="iso-8859-1"?>
<!-- Generator: Adobe Illustrator 19.0.0, SVG Export Plug-In . SVG Version: 6.00 Build 0)  -->
<svg version="1.1" id="Capa_1" xmlns="http://www.w3.org/2000/svg" xmlns:xlink="http://www.w3.org/1999/xlink" x="0px" y="0px"
	 viewBox="0 0 512.001 512.001" style="enable-background:new 0 0 512.001 512.001;" xml:space="preserve">
<path style="fill:#E37500;" d="M436.837,512.001h-294.38l1.37-16.259c0.08-0.9,2.03-22.499,16.349-45.248
	c13.17-20.929,39.619-47.168,90.827-53.318l1.78,14.899h73.727l1.79-14.899c51.198,6.15,77.647,32.389,90.817,53.318
	c14.32,22.749,16.269,44.348,16.349,45.248L436.837,512.001z"/>
<path style="fill:#974C00;" d="M436.837,512.001H288.972v-99.926h37.539l1.79-14.899c51.198,6.15,77.647,32.389,90.817,53.318
	c14.32,22.749,16.269,44.348,16.349,45.248L436.837,512.001z"/>
<path style="fill:#FFA720;" d="M341.403,451.993H232.017l2.46-17.139c0.05-0.34,4.74-34.239,2.29-89.317l-1.95-29.999
	c-1.7-20.169-4.46-43.308-8.8-68.778c-1.65-9.68-3.53-19.689-5.68-29.999c-7.57-36.439-18.379-76.607-33.779-118.896l14.09-5.13
	l14.089-5.14c0.87,2.38,1.71,4.74,2.55,7.11l17.879,2.11l7.4,0.88l13.16-7.19c13.33,24.399,32.799,65.578,49.858,123.196
	c4.82,16.259,9.15,32.859,13.01,49.768c2.26,9.9,4.35,19.899,6.29,29.999c3.93,20.609,7.17,41.639,9.73,63.038
	c1.17,9.92,2.2,19.919,3.08,29.999c1.45,16.449,2.48,33.089,3.12,49.918L341.403,451.993z"/>
<path style="fill:#FF8600;" d="M288.965,451.993c5.32-134.915-33.189-285.4-53.798-355.178l7.4,0.88l13.16-7.19
	c13.33,24.399,32.799,65.578,49.858,123.196c4.82,16.259,9.15,32.859,13.01,49.768c2.26,9.9,4.35,19.899,6.29,29.999
	c3.93,20.609,7.17,41.639,9.73,63.038c1.17,9.92,2.2,19.919,3.08,29.999c1.45,16.449,2.48,33.089,3.12,49.918l0.59,15.569H288.965z"
	/>
<polygon style="fill:#E37500;" points="266.746,315.538 266.746,345.537 236.767,345.537 234.817,315.538 "/>
<g>
	<path style="fill:#974C00;" d="M337.693,386.505h-33.619v-29.999h30.539C335.784,366.426,336.814,376.426,337.693,386.505z"/>
	<path style="fill:#974C00;" d="M324.884,293.468h-35.919v-29.999h29.629C320.854,273.369,322.944,283.369,324.884,293.468z"/>
</g>
<path style="fill:#E37500;" d="M261.076,216.761v29.999h-35.059c-1.65-9.68-3.53-19.689-5.68-29.999H261.076z"/>
<path style="fill:#00AA00;" d="M230.288,186.311c-0.149-0.847-3.795-20.949-17.459-40.178c-13.072-18.393-37.77-39.589-81.18-36.115
	c-77.388,6.19-114.634,68.679-116.181,71.335L2.333,203.904h101.397l15.895-11.458l12.937,11.458h100.812L230.288,186.311z"/>
<g>
	<path style="fill:#008000;" d="M496.533,181.354c-1.68-2.885-42.122-70.733-126.18-77.457
		c-27.243-2.177-49.596,4.395-66.441,19.539c-27.596,24.809-28.926,63.439-28.969,65.071l-0.407,15.395h94.386l14.626-12.956
		l17.974,12.956h108.144L496.533,181.354z"/>
	<path style="fill:#008000;" d="M426.269,45.718c-2.143-2.278-53.372-55.672-131.485-44.069
		c-25.437,3.776-44.553,14.564-56.816,32.062c-20.064,28.63-13.093,64.342-12.786,65.848l3.073,15.091l86.964-20.108l10.284-14.444
		l18.54,7.78l100.101-23.148L426.269,45.718z"/>
</g>
<path style="fill:#00AA00;" d="M219.174,33.711c-12.263-17.497-31.379-28.285-56.816-32.062
	C84.238-9.958,33.014,43.441,30.872,45.719l-17.876,19.01l100.102,23.146l18.54-7.78l10.284,14.444l86.964,20.107l3.073-15.091
	C232.265,98.051,239.238,62.34,219.174,33.711z"/>
<g>
</g>
<g>
</g>
<g>
</g>
<g>
</g>
<g>
</g>
<g>
</g>
<g>
</g>
<g>
</g>
<g>
</g>
<g>
</g>
<g>
</g>
<g>
</g>
<g>
</g>
<g>
</g>
<g>
</g>
</svg>
