<?xml version="1.0" encoding="iso-8859-1"?>
<!-- Generator: Adobe Illustrator 19.0.0, SVG Export Plug-In . SVG Version: 6.00 Build 0)  -->
<svg version="1.1" id="Capa_1" xmlns="http://www.w3.org/2000/svg" xmlns:xlink="http://www.w3.org/1999/xlink" x="0px" y="0px"
	 viewBox="0 0 512 512" style="enable-background:new 0 0 512 512;" xml:space="preserve">
<path style="fill:#FF7A53;" d="M501.553,222.286L376.172,323.189l47.627,140.02c3.92,11.499,0.22,23.708-9.429,31.098
	c-5.06,3.89-10.989,5.84-16.929,5.84c-5.37,0-10.759-1.59-15.549-4.81L256,410.933l-125.891,84.404
	c-10.089,6.77-22.838,6.37-32.478-1.03c-9.649-7.389-13.349-19.599-9.429-31.098l47.627-140.02L10.437,222.286
	c-9.329-7.509-12.789-19.679-8.809-30.978c3.98-11.309,14.299-18.609,26.288-18.609h155.809l45.747-141.55
	c3.74-11.549,14.399-19.299,26.528-19.299s22.788,7.749,26.528,19.299l45.747,141.55h155.809c11.989,0,22.308,7.299,26.288,18.609
	C514.352,202.608,510.892,214.777,501.553,222.286z"/>
<path style="fill:#FF4F19;" d="M501.553,222.286L376.172,323.189l47.627,140.02c3.92,11.499,0.22,23.708-9.429,31.098
	c-5.06,3.89-10.989,5.84-16.929,5.84c-5.37,0-10.759-1.59-15.549-4.81L256,410.933V11.851c12.129,0,22.788,7.749,26.528,19.299
	l45.747,141.55h155.809c11.989,0,22.308,7.299,26.288,18.609C514.352,202.608,510.892,214.777,501.553,222.286z"/>
<g>
	<rect x="241.173" y="179.577" style="fill:#FFD8A6;" width="29.658" height="29.668"/>
	<rect x="241.173" y="117.612" style="fill:#FFD8A6;" width="29.658" height="29.668"/>
</g>
<g>
	
		<rect x="302.792" y="358.372" transform="matrix(0.7701 -0.6379 0.6379 0.7701 -165.0525 288.4109)" style="fill:#FFC173;" width="29.664" height="29.664"/>
	
		<rect x="342.31" y="406.098" transform="matrix(0.7701 -0.6379 0.6379 0.7701 -186.4126 324.5915)" style="fill:#FFC173;" width="29.664" height="29.664"/>
</g>
<g>
	
		<rect x="180.321" y="358.34" transform="matrix(-0.7701 -0.6379 0.6379 -0.7701 107.3927 785.0458)" style="fill:#FFD8A6;" width="29.664" height="29.664"/>
	
		<rect x="140.785" y="406.063" transform="matrix(-0.7701 -0.6379 0.6379 -0.7701 6.966 844.3008)" style="fill:#FFD8A6;" width="29.664" height="29.664"/>
</g>
<g>
	
		<rect x="332.468" y="233.074" transform="matrix(-0.3204 -0.9473 0.9473 -0.3204 223.7352 656.3268)" style="fill:#FFC173;" width="29.665" height="29.665"/>
	
		<rect x="391.177" y="213.228" transform="matrix(-0.3204 -0.9473 0.9473 -0.3204 320.0551 685.7375)" style="fill:#FFC173;" width="29.665" height="29.665"/>
</g>
<g>
	
		<rect x="149.854" y="233.068" transform="matrix(0.3204 -0.9473 0.9473 0.3204 -122.9109 324.4796)" style="fill:#FFD8A6;" width="29.665" height="29.665"/>
	
		<rect x="91.162" y="213.217" transform="matrix(0.3204 -0.9473 0.9473 0.3204 -143.9931 255.3907)" style="fill:#FFD8A6;" width="29.665" height="29.665"/>
</g>
<path style="fill:#FFA720;" d="M301.577,289.232c0,25.128-20.449,45.577-45.577,45.577s-45.577-20.449-45.577-45.577
	s20.449-45.577,45.577-45.577S301.577,264.103,301.577,289.232z"/>
<g>
	<rect x="256.002" y="117.612" style="fill:#FFC173;" width="14.829" height="29.668"/>
	<rect x="256.002" y="179.577" style="fill:#FFC173;" width="14.829" height="29.668"/>
</g>
<path style="fill:#FF8600;" d="M301.577,289.232c0,25.128-20.449,45.577-45.577,45.577v-91.154
	C281.128,243.655,301.577,264.103,301.577,289.232z"/>
<g>
</g>
<g>
</g>
<g>
</g>
<g>
</g>
<g>
</g>
<g>
</g>
<g>
</g>
<g>
</g>
<g>
</g>
<g>
</g>
<g>
</g>
<g>
</g>
<g>
</g>
<g>
</g>
<g>
</g>
</svg>
