<?xml version="1.0" encoding="iso-8859-1"?>
<!-- Generator: Adobe Illustrator 19.0.0, SVG Export Plug-In . SVG Version: 6.00 Build 0)  -->
<svg version="1.1" id="Capa_1" xmlns="http://www.w3.org/2000/svg" xmlns:xlink="http://www.w3.org/1999/xlink" x="0px" y="0px"
	 viewBox="0 0 512 512" style="enable-background:new 0 0 512 512;" xml:space="preserve">
<path style="fill:#FF7A53;" d="M512,208.29c0,18.283-7.427,35.406-19.962,47.841C504.573,268.567,512,285.69,512,303.973v36.306
	h-67.714c-32.807,0-61.046-19.942-73.221-48.341c-2.279-5.318-3.998-10.926-5.068-16.763c-0.88-4.718-1.339-9.566-1.339-14.534
	v-9.016c0-2.259,0.09-4.488,0.28-6.697c0.53-6.298,1.789-12.395,3.709-18.203c10.476-31.748,40.424-54.739,75.64-54.739H512V208.29z
	"/>
<g>
	<path style="fill:#FF4F19;" d="M512,303.973v36.306h-67.714c-32.807,0-61.046-19.942-73.221-48.341
		c-2.279-5.318-3.998-10.926-5.068-16.763c-0.88-4.718-1.339-9.566-1.339-14.534v-4.508h127.38
		C504.573,268.567,512,285.69,512,303.973z"/>
	<path style="fill:#FF4F19;" d="M272.351,352.483h-0.002h-14.992v2.41l-72.879,11.718c-1.62-2.299-2.448-3.848-2.607-4.154
		l0.064,0.128l-13.462,6.6h-0.002l0,0l-13.463,6.601c1.147,2.34,27.801,54.783,106.351,54.783c3.857,0,7.845-0.127,11.956-0.392
		l14.029-0.905v-76.788L272.351,352.483L272.351,352.483z"/>
</g>
<path style="fill:#FF7A53;" d="M282.464,81.873c-52.48-3.381-86.517,13.257-105.838,27.812
	c-21.206,15.976-29.848,32.817-30.764,34.684l26.925,13.202l-0.054,0.108c0.17-0.332,0.972-1.852,2.52-4.148l91.25,14.672v2.411
	h14.994l0,0l0,0h14.994V82.778L282.464,81.873z"/>
<path style="fill:#FFA720;" d="M397.705,256.142l-2.929,3.569l-4.848,5.928c-2.519,3.079-5.038,6.088-7.577,9.046
	c-3.739,4.388-7.507,8.637-11.286,12.755c-27.409,29.908-55.368,52.659-83.717,68.173c-4.988,2.739-9.986,5.238-14.994,7.527
	c-4.988,2.269-9.986,4.318-14.994,6.148c-19.752,7.207-39.675,10.946-59.707,11.186c-0.73,0.02-1.449,0.02-2.169,0.02
	c-3.229,0-6.447-0.09-9.686-0.28c-3.479-0.19-6.957-0.5-10.436-0.91c-6.727-0.8-13.465-1.999-20.182-3.599
	c-10.426-2.479-20.822-5.918-31.118-10.296c-24.151-10.246-47.771-25.6-70.073-45.712c-30.568-27.579-47.991-54.289-48.721-55.408
	L0,256.142l0.01-0.01l5.258-8.137c1.949-3.009,46.732-71.242,120.143-101.76c3.009-1.26,6.078-2.449,9.186-3.569
	c4.988-1.789,9.996-3.369,15.024-4.718c7.597-2.039,15.234-3.569,22.871-4.598c8.157-1.09,16.334-1.599,24.51-1.519
	c7.227,0.06,14.444,0.58,21.652,1.559c15.994,2.169,31.978,6.617,47.851,13.285c5.018,2.099,10.016,4.418,14.994,6.967
	c5.018,2.549,10.016,5.328,14.994,8.347c6.268,3.769,12.505,7.887,18.703,12.365c12.615,9.106,25.21,19.732,37.695,31.808
	c5.278,5.098,10.526,10.456,15.754,16.074c4.028,4.318,8.037,8.787,12.025,13.405c3.099,3.579,6.188,7.247,9.256,11.006l4.718,5.758
	l3.049,3.729L397.705,256.142z"/>
<path style="fill:#FF8600;" d="M397.705,256.142l-2.929,3.569l-4.848,5.928c-2.519,3.079-5.038,6.088-7.577,9.046
	c-3.739,4.388-7.507,8.637-11.286,12.755c-27.409,29.908-55.368,52.659-83.717,68.173c-4.988,2.739-9.986,5.238-14.994,7.527
	c-4.988,2.269-9.986,4.318-14.994,6.148c-19.752,7.207-39.675,10.946-59.707,11.186c-0.73,0.02-1.449,0.02-2.169,0.02
	c-3.229,0-6.447-0.09-9.686-0.28c-3.479-0.19-6.957-0.5-10.436-0.91c-6.727-0.8-13.465-1.999-20.182-3.599
	c-10.426-2.479-20.822-5.918-31.118-10.296c-24.151-10.246-47.771-25.6-70.073-45.712c-30.568-27.579-47.991-54.289-48.721-55.408
	L0,256.142l0.01-0.01h397.685L397.705,256.142z"/>
<path style="fill:#FFD8A6;" d="M149.222,256.132c-0.09,24.87-3.809,52.499-13.815,81.548c-1.589,4.658-3.359,9.366-5.308,14.094
	c-1.839,4.518-3.848,9.066-6.038,13.635c-24.151-10.246-47.771-25.6-70.073-45.712c-30.568-27.579-47.991-54.289-48.721-55.408
	L0,256.142l0.01-0.01l5.258-8.137c1.949-3.009,46.732-71.242,120.143-101.76c1.539,3.229,3.639,7.867,5.948,13.765
	c1.609,4.118,3.329,8.857,5.028,14.144C142.934,194.396,149.342,222.785,149.222,256.132z"/>
<circle style="fill:#57555C;" cx="89.495" cy="214.976" r="15.514"/>
<path style="fill:#FFC173;" d="M0.01,256.132h149.212c-0.09,24.87-3.809,52.499-13.815,81.548
	c-1.589,4.658-3.359,9.366-5.308,14.094c-1.839,4.518-3.848,9.066-6.038,13.635c-24.151-10.246-47.771-25.6-70.073-45.712
	c-30.568-27.579-47.991-54.289-48.721-55.408L0,256.142L0.01,256.132z"/>
<g>
</g>
<g>
</g>
<g>
</g>
<g>
</g>
<g>
</g>
<g>
</g>
<g>
</g>
<g>
</g>
<g>
</g>
<g>
</g>
<g>
</g>
<g>
</g>
<g>
</g>
<g>
</g>
<g>
</g>
</svg>
