<?xml version="1.0" encoding="iso-8859-1"?>
<!-- Generator: Adobe Illustrator 19.0.0, SVG Export Plug-In . SVG Version: 6.00 Build 0)  -->
<svg version="1.1" id="Capa_1" xmlns="http://www.w3.org/2000/svg" xmlns:xlink="http://www.w3.org/1999/xlink" x="0px" y="0px"
	 viewBox="0 0 512 512" style="enable-background:new 0 0 512 512;" xml:space="preserve">
<path style="fill:#00AA00;" d="M512,294.25c0,54.99-27.12,106.45-76.35,144.9c-48.15,37.6-111.95,58.3-179.65,58.3
	s-131.5-20.7-179.65-58.3C27.12,400.7,0,349.24,0,294.25v-0.7c0.19-44.04,18.34-86.74,51.45-121.64
	c-11.83-16.74-18.22-36.69-18.22-57.5c0-55.06,44.8-99.86,99.86-99.86c25.45,0,49.68,9.57,68.24,26.96
	c14.65,13.73,24.69,31.29,29.09,50.54c8.51-0.67,17.04-1.01,25.58-1.01s17.07,0.34,25.58,1.01c4.4-19.25,14.44-36.81,29.09-50.54
	c18.56-17.39,42.79-26.96,68.24-26.96c55.06,0,99.86,44.8,99.86,99.86c0,20.81-6.39,40.76-18.22,57.5
	c29.16,30.73,46.72,67.53,50.61,105.95C511.72,283.3,512,288.76,512,294.25z"/>
<path style="fill:#008000;" d="M512,294.25c0,54.99-27.12,106.45-76.35,144.9c-48.15,37.6-111.95,58.3-179.65,58.3V91.04
	c8.54,0,17.07,0.34,25.58,1.01c4.4-19.25,14.44-36.81,29.09-50.54c18.56-17.39,42.79-26.96,68.24-26.96
	c55.06,0,99.86,44.8,99.86,99.86c0,20.81-6.39,40.76-18.22,57.5c29.16,30.73,46.72,67.53,50.61,105.95
	C511.72,283.3,512,288.76,512,294.25z"/>
<g>
	<circle style="fill:#FFFFFF;" cx="133.09" cy="114.41" r="36.703"/>
	<circle style="fill:#FFFFFF;" cx="378.91" cy="114.41" r="36.703"/>
</g>
<path style="fill:#DEDEE0;" d="M133.09,62.71c-28.51,0-51.7,23.19-51.7,51.7s23.19,51.71,51.7,51.71s51.71-23.2,51.71-51.71
	S161.6,62.71,133.09,62.71z M133.09,136.12c-11.96,0-21.7-9.74-21.7-21.71c0-11.96,9.74-21.7,21.7-21.7
	c11.97,0,21.71,9.74,21.71,21.7C154.8,126.38,145.06,136.12,133.09,136.12z"/>
<path style="fill:#D6D6D8;" d="M378.91,62.71c-28.51,0-51.71,23.19-51.71,51.7s23.2,51.71,51.71,51.71c28.51,0,51.7-23.2,51.7-51.71
	S407.42,62.71,378.91,62.71z M378.91,136.12c-11.97,0-21.71-9.74-21.71-21.71c0-11.96,9.74-21.7,21.71-21.7
	c11.96,0,21.7,9.74,21.7,21.7C400.61,126.38,390.87,136.12,378.91,136.12z"/>
<rect x="275.501" y="269.705" transform="matrix(-0.827 -0.5621 0.5621 -0.827 379.7611 686.251)" style="fill:#67BA00;" width="39.899" height="29.998"/>
<rect x="201.542" y="264.785" transform="matrix(-0.5621 -0.8271 0.8271 -0.5621 102.7587 623.8788)" style="fill:#6BCA00;" width="30.001" height="39.902"/>
<circle style="fill:#57555C;" cx="133.09" cy="114.41" r="21.791"/>
<circle style="fill:#3A3A41;" cx="378.91" cy="114.41" r="21.791"/>
<path style="fill:#6BCA00;" d="M512,294.25c0,54.99-27.12,106.45-76.35,144.9c-48.15,37.6-111.95,58.3-179.65,58.3
	s-131.5-20.7-179.65-58.3C27.12,400.7,0,349.24,0,294.25v-0.7c4.18,1.56,9.24,3.4,15.08,5.44c4.62,1.6,9.74,3.33,15.29,5.15
	C80.82,320.63,167.81,344,256,344.08h0.48c88.39,0,175.25-30.93,225.49-52.73c5.34-2.32,10.26-4.53,14.72-6.59
	c5.56-2.56,10.41-4.89,14.47-6.9C511.72,283.3,512,288.76,512,294.25z"/>
<path style="fill:#67BA00;" d="M512,294.25c0,54.99-27.12,106.45-76.35,144.9c-48.15,37.6-111.95,58.3-179.65,58.3V344.08h0.48
	c88.39,0,175.25-30.93,225.49-52.73c5.34-2.32,10.26-4.53,14.72-6.59c5.56-2.56,10.41-4.89,14.47-6.9
	C511.72,283.3,512,288.76,512,294.25z"/>
<g>
</g>
<g>
</g>
<g>
</g>
<g>
</g>
<g>
</g>
<g>
</g>
<g>
</g>
<g>
</g>
<g>
</g>
<g>
</g>
<g>
</g>
<g>
</g>
<g>
</g>
<g>
</g>
<g>
</g>
</svg>
