<?xml version="1.0" encoding="iso-8859-1"?>
<!-- Generator: Adobe Illustrator 19.0.0, SVG Export Plug-In . SVG Version: 6.00 Build 0)  -->
<svg version="1.1" id="Capa_1" xmlns="http://www.w3.org/2000/svg" xmlns:xlink="http://www.w3.org/1999/xlink" x="0px" y="0px"
	 viewBox="0 0 512 512" style="enable-background:new 0 0 512 512;" xml:space="preserve">
<path style="fill:#E37500;" d="M178.307,129.924c1.589-5.378,14.953-53.432-4.589-84.129C147.816,5.115,98.024,0.96,95.917,0.803
	L85.146,0L80.96,9.957c-0.924,2.196-22.365,54.264-0.639,95.108c16.933,31.834,59.819,46.264,61.636,46.863l4.72-14.276
	l17.229-11.978L178.307,129.924z"/>
<path style="fill:#974C00;" d="M431.04,9.957L426.854,0l-10.77,0.803c-2.107,0.157-51.901,4.312-77.8,44.994
	c-19.543,30.696-6.178,78.75-4.589,84.129l14.4-4.252l17.251,11.993l0,0l4.697,14.261c1.818-0.599,44.703-15.028,61.637-46.863
	C453.405,64.22,431.963,12.154,431.04,9.957z"/>
<path style="fill:#FFA720;" d="M367.977,367.562c-3.373,8.228-6.516,15.885-8.868,22.461c-2.242,6.286-3.784,11.581-4.134,15.475
	c-0.24,2.622-0.44,5.475-0.651,8.508c-1.231,17.707-2.923,41.95-15.885,61.949C322.944,499.848,295.248,511.98,256.12,512H256
	c-39.187,0-66.924-12.132-82.439-36.054c-12.962-19.989-14.654-44.232-15.885-61.939c-0.21-3.033-0.41-5.886-0.651-8.508
	c-0.37-4.134-2.082-9.869-4.574-16.676c-2.302-6.306-5.265-13.523-8.428-21.26c-16.796-40.989-42.19-102.929-30.679-175.698
	c7.297-46.084,34.803-78.885,79.546-94.871c13.513-4.825,26.615-7.367,37.416-8.688c13.093-1.612,22.792-1.421,25.695-1.311h0.12
	c4.244-0.16,21.13-0.42,41.95,4.054c6.706,1.441,13.813,3.363,21.04,5.946c44.743,15.985,72.249,48.787,79.546,94.871
	C410.168,264.633,384.773,326.573,367.977,367.562z"/>
<path style="fill:#FFD8A6;" d="M359.109,390.023c-2.242,6.286-3.784,11.581-4.134,15.475c-0.24,2.622-0.44,5.475-0.651,8.508
	c-1.231,17.707-2.923,41.95-15.885,61.949C322.944,499.848,295.248,511.98,256.12,512H256c-39.187,0-66.924-12.132-82.439-36.054
	c-12.962-19.989-14.654-44.232-15.885-61.939c-0.21-3.033-0.41-5.886-0.651-8.508c-0.37-4.134-2.082-9.869-4.574-16.676
	c21.01-10.71,57.325-24.584,103.669-23.943C286.609,365.3,321.443,372.006,359.109,390.023z"/>
<path style="fill:#E37500;" d="M367.977,367.562c-3.373,8.228-6.516,15.885-8.868,22.461c-2.242,6.286-3.784,11.581-4.134,15.475
	c-0.24,2.622-0.44,5.475-0.651,8.508c-1.231,17.707-2.923,41.95-15.885,61.949C322.944,499.848,295.248,511.98,256.12,512V86.993
	c4.244-0.16,21.13-0.42,41.95,4.054c6.706,1.441,13.813,3.363,21.04,5.946c44.743,15.985,72.249,48.787,79.546,94.871
	C410.168,264.633,384.773,326.573,367.977,367.562z"/>
<path style="fill:#FFC173;" d="M359.109,390.023c-2.242,6.286-3.784,11.581-4.134,15.475c-0.24,2.622-0.44,5.475-0.651,8.508
	c-1.231,17.707-2.923,41.95-15.885,61.949C322.944,499.848,295.248,511.98,256.12,512V364.879
	C286.609,365.3,321.443,372.006,359.109,390.023z"/>
<circle style="fill:#57555C;" cx="183.376" cy="270.749" r="16.198"/>
<circle style="fill:#3A3A41;" cx="328.625" cy="270.749" r="16.198"/>
<rect x="217.308" y="411.614" style="fill:#E37500;" width="30.029" height="34.253"/>
<rect x="264.663" y="411.614" style="fill:#974C00;" width="30.029" height="34.253"/>
<path style="fill:#E37500;" d="M289.282,194.586c-17.897,31.911-8.428,57.805-8.428,57.805s-10.94-0.901-24.734-6.076
	c-22.271-8.338-52-27.827-55.123-72.64c-3.984-57.185,19.278-78.785,29.308-85.372c13.093-1.612,22.792-1.421,25.695-1.311h0.12
	c4.244-0.16,21.13-0.42,41.95,4.054C314.646,118.023,306.058,164.668,289.282,194.586z"/>
<path style="fill:#974C00;" d="M280.854,252.392c0,0-10.94-0.901-24.734-6.076V86.993c4.244-0.16,21.13-0.42,41.95,4.054
	c16.576,26.976,7.988,73.62-8.788,103.539C271.385,226.497,280.854,252.392,280.854,252.392z"/>
<g>
</g>
<g>
</g>
<g>
</g>
<g>
</g>
<g>
</g>
<g>
</g>
<g>
</g>
<g>
</g>
<g>
</g>
<g>
</g>
<g>
</g>
<g>
</g>
<g>
</g>
<g>
</g>
<g>
</g>
</svg>
