<?xml version="1.0" encoding="iso-8859-1"?>
<!-- Generator: Adobe Illustrator 19.0.0, SVG Export Plug-In . SVG Version: 6.00 Build 0)  -->
<svg version="1.1" id="Capa_1" xmlns="http://www.w3.org/2000/svg" xmlns:xlink="http://www.w3.org/1999/xlink" x="0px" y="0px"
	 viewBox="0 0 512 512" style="enable-background:new 0 0 512 512;" xml:space="preserve">
<rect y="245" style="fill:#FFA720;" width="512" height="267"/>
<rect x="256" y="245" style="fill:#FF8600;" width="256" height="267"/>
<path style="fill:#FFD82D;" d="M461.16,64.15c0,35.38-28.78,64.16-64.15,64.16c-35.38,0-64.16-28.78-64.16-64.16
	C332.85,28.78,361.63,0,397.01,0C432.38,0,461.16,28.78,461.16,64.15z"/>
<polygon style="fill:#E37500;" points="512,356.93 512,400.05 490.04,422.73 457.24,433.05 442.81,512 412.32,512 424.88,443.23 
	375.05,458.9 348.22,386.45 269.74,357.76 269.44,359.17 256,368.49 222.81,391.51 245.96,492.82 256,501.01 269.47,512 179.17,512 
	215.28,493.22 194.06,400.38 83.33,400.38 46.43,427.22 95.08,512 60.49,512 17.32,436.77 0,436.46 0,406.46 23.4,406.88 
	55.19,383.75 9.28,339.38 64.25,245 98.98,245 47.04,334.16 84.52,370.38 200.64,370.38 242.56,341.3 256,277.95 262.99,245 
	293.66,245 276.03,328.12 354.93,356.96 395.03,307.09 395.03,245 425.03,245 425.03,317.66 376.9,377.51 393.27,421.72 
	473.78,396.4 "/>
<path style="fill:#FBBD00;" d="M461.16,64.15c0,35.38-28.78,64.16-64.15,64.16V0C432.38,0,461.16,28.78,461.16,64.15z"/>
<g>
	<polygon style="fill:#974C00;" points="256,501.01 269.47,512 256,512 	"/>
	<polygon style="fill:#974C00;" points="512,356.93 512,400.05 490.04,422.73 457.24,433.05 442.81,512 412.32,512 424.88,443.23 
		375.05,458.9 348.22,386.45 269.74,357.76 269.44,359.17 256,368.49 256,277.95 262.99,245 293.66,245 276.03,328.12 
		354.93,356.96 395.03,307.09 395.03,245 425.03,245 425.03,317.66 376.9,377.51 393.27,421.72 473.78,396.4 	"/>
</g>
<g>
</g>
<g>
</g>
<g>
</g>
<g>
</g>
<g>
</g>
<g>
</g>
<g>
</g>
<g>
</g>
<g>
</g>
<g>
</g>
<g>
</g>
<g>
</g>
<g>
</g>
<g>
</g>
<g>
</g>
</svg>
