<?xml version="1.0" encoding="iso-8859-1"?>
<!-- Generator: Adobe Illustrator 19.0.0, SVG Export Plug-In . SVG Version: 6.00 Build 0)  -->
<svg version="1.1" id="Capa_1" xmlns="http://www.w3.org/2000/svg" xmlns:xlink="http://www.w3.org/1999/xlink" x="0px" y="0px"
	 viewBox="0 0 512 512" style="enable-background:new 0 0 512 512;" xml:space="preserve">
<path style="fill:#A0D6F3;" d="M511.925,371.387c0,77.538-63.083,140.613-140.613,140.613c-13.325,0-26.226-1.861-38.453-5.343
	c-2.222-0.634-4.421-1.316-6.603-2.053c-3.265-1.107-6.474-2.334-9.627-3.674c-2.102-0.891-4.18-1.829-6.225-2.816
	c-2.045-0.987-4.068-2.021-6.065-3.113c-1.989-1.083-3.955-2.206-5.888-3.386c-1.933-1.18-3.835-2.399-5.704-3.658
	c-18.708-12.651-34.217-29.675-45.055-49.596c-10.831-19.928-16.992-42.744-16.992-66.973c0-45.304,22.27-102.931,66.195-171.3
	c32.244-50.173,63.988-86.942,65.321-88.482l9.097-10.486l9.089,10.486c1.34,1.541,33.085,38.308,65.32,88.482
	C489.655,268.456,511.925,326.083,511.925,371.387z"/>
<path style="fill:#4CB8EA;" d="M511.925,371.387c0,77.538-63.083,140.613-140.613,140.613V101.12l9.089,10.486
	c1.34,1.541,33.085,38.308,65.32,88.482C489.655,268.456,511.925,326.083,511.925,371.387z"/>
<path style="fill:#FFFFFF;" d="M438.054,443.87l-18.638-23.498c16.977-13.463,25.395-29.807,25.022-48.579
	c-0.294-14.812-6.01-25.966-6.067-26.078l13.256-7.01l13.211-7.094c0.895,1.665,8.753,16.868,9.541,38.006
	C475.13,389.753,469.437,418.979,438.054,443.87z"/>
<path style="fill:#A0D6F3;" d="M350.512,336.781c0,96.622-78.607,175.219-175.219,175.219c-16.605,0-32.68-2.319-47.916-6.658
	c-2.769-0.79-5.508-1.64-8.228-2.559c-4.069-1.38-8.068-2.909-11.996-4.579c-2.619-1.11-5.208-2.279-7.758-3.509
	c-2.549-1.23-5.069-2.519-7.558-3.879c-2.479-1.35-4.929-2.749-7.338-4.219c-2.409-1.47-4.779-2.989-7.108-4.559
	c-23.313-15.765-42.638-36.979-56.144-61.802C7.753,395.404,0.075,366.972,0.075,336.781c0-56.453,27.752-128.262,82.486-213.457
	c40.178-62.522,79.737-108.338,81.396-110.258L175.294,0l11.327,13.066c1.67,1.919,41.228,47.736,81.396,110.258
	C322.76,208.519,350.512,280.328,350.512,336.781z"/>
<path style="fill:#4CB8EA;" d="M350.512,336.781c0,96.622-78.607,175.219-175.219,175.219V0l11.327,13.066
	c1.67,1.919,41.228,47.736,81.396,110.258C322.76,208.519,350.512,280.328,350.512,336.781z"/>
<path style="fill:#C7E5F6;" d="M252.832,434.109l-18.637-23.498c27.053-21.456,40.196-47.723,39.065-78.073
	c-0.842-22.559-9.472-39.219-9.559-39.38l26.422-14.188c0.49,0.911,11.995,22.657,13.106,52.451
	C304.267,359.21,296.364,399.583,252.832,434.109z"/>
<g>
</g>
<g>
</g>
<g>
</g>
<g>
</g>
<g>
</g>
<g>
</g>
<g>
</g>
<g>
</g>
<g>
</g>
<g>
</g>
<g>
</g>
<g>
</g>
<g>
</g>
<g>
</g>
<g>
</g>
</svg>
