<?xml version="1.0" encoding="iso-8859-1"?>
<!-- Generator: Adobe Illustrator 19.0.0, SVG Export Plug-In . SVG Version: 6.00 Build 0)  -->
<svg version="1.1" id="Capa_1" xmlns="http://www.w3.org/2000/svg" xmlns:xlink="http://www.w3.org/1999/xlink" x="0px" y="0px"
	 viewBox="0 0 512 512" style="enable-background:new 0 0 512 512;" xml:space="preserve">
<path style="fill:#00AA00;" d="M460.57,169.71v91.38c0,28.9-23.51,52.42-52.42,52.42h-69.59V512H234.41V349.7h-64.13
	c-28.91,0-52.42-23.52-52.42-52.42v-78.11c0-26.79,21.8-48.58,48.59-48.58s48.59,21.79,48.59,48.58v33.35h19.37V88.07
	c0-28.69,23.32-52.03,52.01-52.07h0.07c28.71,0,52.07,23.36,52.07,52.07v128.26h24.83v-46.62c0-26.79,21.8-48.59,48.59-48.59
	C438.77,121.12,460.57,142.92,460.57,169.71z"/>
<path style="fill:#FFD82D;" d="M169.13,53.82c0,29.68-24.14,53.82-53.82,53.82c-29.67,0-53.82-24.14-53.82-53.82S85.64,0,115.31,0
	C144.99,0,169.13,24.14,169.13,53.82z"/>
<path style="fill:#008000;" d="M460.57,169.71v91.38c0,28.9-23.51,52.42-52.42,52.42h-69.59V512h-52.14V36h0.07
	c28.71,0,52.07,23.36,52.07,52.07v128.26h24.83v-46.62c0-26.79,21.8-48.59,48.59-48.59C438.77,121.12,460.57,142.92,460.57,169.71z"
	/>
<path style="fill:#FBBD00;" d="M169.13,53.82c0,29.68-24.14,53.82-53.82,53.82V0C144.99,0,169.13,24.14,169.13,53.82z"/>
<rect y="482" style="fill:#FFA720;" width="512" height="30"/>
<rect x="286.42" y="482" style="fill:#FF8600;" width="225.58" height="30"/>
<g>
</g>
<g>
</g>
<g>
</g>
<g>
</g>
<g>
</g>
<g>
</g>
<g>
</g>
<g>
</g>
<g>
</g>
<g>
</g>
<g>
</g>
<g>
</g>
<g>
</g>
<g>
</g>
<g>
</g>
</svg>
