<?xml version="1.0" encoding="iso-8859-1"?>
<!-- Generator: Adobe Illustrator 19.0.0, SVG Export Plug-In . SVG Version: 6.00 Build 0)  -->
<svg version="1.1" id="Capa_1" xmlns="http://www.w3.org/2000/svg" xmlns:xlink="http://www.w3.org/1999/xlink" x="0px" y="0px"
	 viewBox="0 0 512 512" style="enable-background:new 0 0 512 512;" xml:space="preserve">
<path style="fill:#6BCA00;" d="M213.062,163.035c-2.762,4.303-6.004,8.355-9.746,12.098c-3.522,3.522-7.325,6.604-11.347,9.256
	c-12.598,8.335-27.398,12.458-42.547,12.458c-22.655,0-46.09-9.206-64.201-27.318c-13.789-13.789-26.527-42.357-38.935-87.336
	c-6.814-24.686-11.457-46.98-13.289-56.246c-0.52-2.662-0.821-4.253-0.861-4.513L28.173,0l21.444,3.953
	c0.27,0.05,1.941,0.36,4.753,0.921c9.396,1.861,31.52,6.474,56.006,13.229c44.979,12.418,73.537,25.156,87.326,38.935
	C227.692,87.036,233.255,131.625,213.062,163.035z"/>
<path style="fill:#67BA00;" d="M483.827,0l-3.963,21.434c-0.04,0.26-0.33,1.791-0.831,4.353v0.01
	c-1.811,9.166-6.464,31.58-13.319,56.396c-12.408,44.979-25.146,73.547-38.935,87.336c-18.112,18.112-41.557,27.318-64.201,27.318
	c-15.15,0-29.949-4.123-42.557-12.468c-4.023-2.642-7.825-5.734-11.337-9.246c-3.742-3.742-6.995-7.805-9.756-12.108
	c-20.183-31.41-14.619-75.989,15.37-105.988c13.789-13.779,42.347-26.517,87.326-38.935c24.336-6.714,46.34-11.307,55.836-13.199
	c2.912-0.57,4.643-0.901,4.923-0.951L483.827,0z"/>
<path style="fill:#00AA00;" d="M483.827,0l-3.963,21.434c-0.04,0.26-0.33,1.791-0.831,4.353v0.01L320.021,184.379L271.01,233.26
	v113.613H240.99V233.26l-49.022-48.872L32.996,25.947c-0.52-2.662-0.821-4.253-0.861-4.513L28.173,0l21.444,3.953
	c0.27,0.05,1.941,0.36,4.753,0.921l158.692,158.162L256,205.833l42.928-42.808L457.46,4.903c2.912-0.57,4.643-0.901,4.923-0.951
	L483.827,0z"/>
<path style="fill:#008000;" d="M483.827,0l-3.963,21.434c-0.04,0.26-0.33,1.791-0.831,4.353v0.01L320.021,184.379L271.01,233.26
	v113.613H256V205.833l42.928-42.808L457.46,4.903c2.912-0.57,4.643-0.901,4.923-0.951L483.827,0z"/>
<path style="fill:#E37500;" d="M426.37,448.519c0,35.003-28.478,63.481-63.481,63.481H149.111
	c-35.003,0-63.481-28.478-63.481-63.481s28.478-63.481,63.481-63.481c2.562,0,5.093,0.15,7.595,0.45
	c3.642-13.419,10.807-25.687,21.004-35.623c14.75-14.359,34.202-22.274,54.795-22.274c8.125,0,16.03,1.221,23.495,3.552
	c15.37,4.773,28.909,14.189,38.795,27.107c6.244-2.211,12.858-3.352,19.623-3.352c21.764,0,41.227,11.768,51.453,30.209
	C399.492,386.669,426.37,414.517,426.37,448.519z"/>
<path style="fill:#974C00;" d="M426.37,448.519c0,35.003-28.478,63.481-63.481,63.481H256V331.143
	c15.37,4.773,28.909,14.189,38.795,27.107c6.244-2.211,12.858-3.352,19.623-3.352c21.764,0,41.227,11.768,51.453,30.209
	C399.492,386.669,426.37,414.517,426.37,448.519z"/>
<g>
</g>
<g>
</g>
<g>
</g>
<g>
</g>
<g>
</g>
<g>
</g>
<g>
</g>
<g>
</g>
<g>
</g>
<g>
</g>
<g>
</g>
<g>
</g>
<g>
</g>
<g>
</g>
<g>
</g>
</svg>
