<?xml version="1.0" encoding="iso-8859-1"?>
<!-- Generator: Adobe Illustrator 19.0.0, SVG Export Plug-In . SVG Version: 6.00 Build 0)  -->
<svg version="1.1" id="Capa_1" xmlns="http://www.w3.org/2000/svg" xmlns:xlink="http://www.w3.org/1999/xlink" x="0px" y="0px"
	 viewBox="0 0 512 512" style="enable-background:new 0 0 512 512;" xml:space="preserve">
<path style="fill:#3A3A41;" d="M408.349,0c-45.276,0-83.798,32.329-91.596,76.871l14.775,2.587l111.198,83.584l6.617,13.462
	c32.084-15.77,52.015-47.764,52.015-83.494C501.357,41.724,459.635,0,408.349,0z"/>
<path style="fill:#57555C;" d="M180.474,79.458l14.775-2.587C187.451,32.329,148.93,0,103.653,0c-51.286,0-93.01,41.724-93.01,93.01
	c0,35.73,19.931,67.723,52.015,83.494l6.617-13.462L180.474,79.458z"/>
<path style="fill:#DEDEE0;" d="M453.031,396.21c-15.78,21.25-37.27,34.63-62.49,39.03c-5.07,7.9-14.87,21.49-29.64,35.01
	c-12.09,11.06-25.23,20.01-39.16,26.75c-20.48,9.89-42.67,15-65.76,15c-38.81,0-75.09-14.44-104.92-41.75
	c-14.76-13.52-24.56-27.11-29.64-35.01c-25.21-4.4-46.7-17.78-62.48-39.03c-20.89-28.1-41.43-83.86-20.7-189.88
	c12.45-63.64,54.43-110.55,121.42-135.66c48.81-18.31,93.63-18.59,96.29-18.59h0.12c2.6,0,47.42,0.28,96.24,18.59
	c66.98,25.11,108.97,72.02,121.41,135.66C494.461,312.35,473.911,368.11,453.031,396.21z"/>
<path style="fill:#D6D6D8;" d="M453.031,396.21c-15.78,21.25-37.27,34.63-62.49,39.03c-5.07,7.9-14.87,21.49-29.64,35.01
	c-12.09,11.06-25.23,20.01-39.16,26.75h-65.76V52.08h0.09c2.6,0,47.42,0.28,96.24,18.59c66.98,25.11,108.97,72.02,121.41,135.66
	C494.461,312.35,473.911,368.11,453.031,396.21z"/>
<path style="fill:#3A3A41;" d="M384.531,208.279c-10.765-15.249-25.338-26.665-41.035-32.144
	c-17.219-6.01-34.526-4.209-47.484,4.939c-12.96,9.148-20.451,24.854-20.554,43.089c-0.094,16.626,5.783,34.181,16.547,49.43
	c10.765,15.249,25.338,26.664,41.035,32.143c6.702,2.339,13.415,3.495,19.883,3.495c10.147-0.001,19.686-2.847,27.602-8.434
	c12.96-9.148,20.451-24.854,20.554-43.089C401.172,241.083,395.296,223.528,384.531,208.279z"/>
<path style="fill:#57555C;" d="M215.989,181.075c-12.959-9.149-30.269-10.949-47.484-4.939
	c-15.697,5.479-30.271,16.895-41.035,32.144h0.001c-10.765,15.248-16.642,32.803-16.548,49.429
	c0.103,18.236,7.594,33.941,20.554,43.089c7.916,5.588,17.453,8.434,27.602,8.434c6.467,0,13.182-1.156,19.883-3.495
	c15.697-5.479,30.27-16.895,41.034-32.143c10.765-15.249,16.642-32.803,16.548-49.43
	C236.439,205.928,228.949,190.223,215.989,181.075z"/>
<g>
	<circle style="fill:#FFFFFF;" cx="188.23" cy="219.94" r="14.5"/>
	<circle style="fill:#FFFFFF;" cx="323.771" cy="219.94" r="14.5"/>
</g>
<path style="fill:#88868F;" d="M328.831,399.44c0,24.21-19.7,43.91-43.91,43.91c-11.07,0-21.19-4.12-28.92-10.9
	c-0.01,0.01-0.01,0.01-0.02,0.02c-7.73,6.77-17.84,10.88-28.9,10.88c-24.21,0-43.91-19.7-43.91-43.91h30
	c0,7.67,6.24,13.91,13.91,13.91c7.68,0,13.92-6.24,13.92-13.91h30c0,7.67,6.24,13.91,13.92,13.91c7.67,0,13.91-6.24,13.91-13.91
	H328.831z"/>
<path style="fill:#78777F;" d="M328.831,399.44c0,24.21-19.7,43.91-43.91,43.91c-11.07,0-21.19-4.12-28.92-10.9
	c-0.01,0.01-0.01,0.01-0.02,0.02v-33.03H271c0,7.67,6.24,13.91,13.92,13.91c7.67,0,13.91-6.24,13.91-13.91H328.831z"/>
<path style="fill:#57555C;" d="M296.041,359.96c0,4.2-1.11,8.4-3.32,12.23l-15.54,26.91c-4.42,7.66-12.34,12.23-21.18,12.23
	c-0.01,0-0.01,0-0.02,0c-8.83-0.01-16.74-4.58-21.16-12.23l-15.54-26.91c-4.42-7.66-4.42-16.8,0-24.46s12.34-12.23,21.18-12.23
	h31.08c8.84,0,16.76,4.57,21.18,12.23C294.93,351.56,296.041,355.76,296.041,359.96z"/>
<path style="fill:#3A3A41;" d="M296.041,359.96c0,4.2-1.11,8.4-3.32,12.23l-15.54,26.91c-4.42,7.66-12.34,12.23-21.18,12.23
	c-0.01,0-0.01,0-0.02,0V335.5h15.56c8.84,0,16.76,4.57,21.18,12.23C294.93,351.56,296.041,355.76,296.041,359.96z"/>
<g>
</g>
<g>
</g>
<g>
</g>
<g>
</g>
<g>
</g>
<g>
</g>
<g>
</g>
<g>
</g>
<g>
</g>
<g>
</g>
<g>
</g>
<g>
</g>
<g>
</g>
<g>
</g>
<g>
</g>
</svg>
