<?xml version="1.0" encoding="iso-8859-1"?>
<!-- Generator: Adobe Illustrator 19.0.0, SVG Export Plug-In . SVG Version: 6.00 Build 0)  -->
<svg version="1.1" id="Capa_1" xmlns="http://www.w3.org/2000/svg" xmlns:xlink="http://www.w3.org/1999/xlink" x="0px" y="0px"
	 viewBox="0 0 511.999 511.999" style="enable-background:new 0 0 511.999 511.999;" xml:space="preserve">
<path style="fill:#78777F;" d="M457.169,33.939c-0.309-1.022-0.603-1.991-0.873-2.905c-4.498-15.184-15.428-26.011-29.986-29.707
	c-14.339-3.642-29.956,0.358-39.788,10.191c-11.627,11.628-47.429,52.524-48.948,54.259l11.303,9.89l42.121,69.324l0,0l4.561,14.309
	c38.491-12.266,61.262-33.856,67.676-64.171C468.36,70.92,461.355,47.77,457.169,33.939z"/>
<path style="fill:#88868F;" d="M125.476,11.518c-9.833-9.832-25.451-13.831-39.787-10.191C71.131,5.023,60.201,15.851,55.703,31.034
	c-0.27,0.913-0.564,1.883-0.873,2.905c-4.186,13.831-11.191,36.981-6.067,61.191c6.415,30.315,29.185,51.905,67.676,64.171
	l4.561-14.309l0,0l42.121-69.324l11.303-9.89C172.905,64.042,137.103,23.146,125.476,11.518z"/>
<path style="fill:#C5C3CA;" d="M412.68,219.402v142.003l-0.12,0.921c-0.871,7.059-9.171,65.229-45.696,79.967
	c-3.044,7.639-8.841,19.324-19.043,31.098c-15.279,17.611-43.603,38.607-91.822,38.607s-76.543-20.996-91.822-38.607
	c-10.202-11.774-15.999-23.459-19.043-31.098c-36.525-14.738-44.825-72.909-45.696-79.967l-0.12-0.921V219.402
	c-5.276-40.159,1.161-75.262,19.153-104.347c14.097-22.808,35.023-41.521,62.196-55.628c23.228-12.065,49.28-18.102,75.332-18.102
	s52.104,6.037,75.332,18.102c27.173,14.107,48.099,32.82,62.196,55.628C411.518,144.141,417.956,179.243,412.68,219.402z"/>
<path style="fill:#ABAAB0;" d="M412.68,219.402v142.003l-0.12,0.921c-0.871,7.059-9.171,65.229-45.696,79.967
	c-3.044,7.639-8.841,19.324-19.043,31.098c-15.279,17.611-43.603,38.607-91.822,38.607V41.325c26.052,0,52.104,6.037,75.332,18.102
	c27.173,14.107,48.099,32.82,62.196,55.628C411.518,144.141,417.956,179.243,412.68,219.402z"/>
<path style="fill:#57555C;" d="M314.16,329.657c0,33.551-26.092,60.844-58.161,60.844s-58.161-27.293-58.161-60.844
	c0-27.123,37.015-111.796,44.434-128.497l13.727-30.878l13.727,30.878C277.145,217.86,314.16,302.534,314.16,329.657z"/>
<rect x="307.518" y="180.224" transform="matrix(-0.2079 -0.9782 0.9782 -0.2079 191.3921 560.2376)" style="fill:#3A3A41;" width="30.038" height="44.8"/>
<rect x="167.056" y="187.6" transform="matrix(-0.9782 -0.2079 0.2079 -0.9782 332.6496 440.1981)" style="fill:#57555C;" width="44.8" height="30.038"/>
<rect x="235.977" y="436.911" style="fill:#88868F;" width="40.049" height="30.037"/>
<rect x="256.001" y="436.911" style="fill:#78777F;" width="20.024" height="30.037"/>
<path style="fill:#3A3A41;" d="M314.16,329.657c0,33.551-26.092,60.844-58.161,60.844V170.282l13.727,30.878
	C277.145,217.86,314.16,302.534,314.16,329.657z"/>
<g>
</g>
<g>
</g>
<g>
</g>
<g>
</g>
<g>
</g>
<g>
</g>
<g>
</g>
<g>
</g>
<g>
</g>
<g>
</g>
<g>
</g>
<g>
</g>
<g>
</g>
<g>
</g>
<g>
</g>
</svg>
