<?xml version="1.0" encoding="iso-8859-1"?>
<!-- Generator: Adobe Illustrator 19.0.0, SVG Export Plug-In . SVG Version: 6.00 Build 0)  -->
<svg version="1.1" id="Capa_1" xmlns="http://www.w3.org/2000/svg" xmlns:xlink="http://www.w3.org/1999/xlink" x="0px" y="0px"
	 viewBox="0 0 512 512" style="enable-background:new 0 0 512 512;" xml:space="preserve">
<polygon style="fill:#FFD82D;" points="476.862,256 512,324.595 447.267,366.426 443.405,443.405 366.426,447.267 324.595,512 
	256,476.862 187.405,512 145.574,447.267 68.595,443.405 64.733,366.426 0,324.595 35.138,256 0,187.405 64.733,145.574 
	68.595,68.595 145.574,64.733 187.405,0 256,35.138 324.595,0 366.426,64.733 443.405,68.595 447.267,145.574 512,187.405 "/>
<polygon style="fill:#FBBD00;" points="476.862,256 512,324.595 447.267,366.426 443.405,443.405 366.426,447.267 324.595,512 
	256,476.862 256,35.138 324.595,0 366.426,64.733 443.405,68.595 447.267,145.574 512,187.405 "/>
<circle style="fill:#FFA720;" cx="256" cy="256" r="152.387"/>
<path style="fill:#FF8600;" d="M408.387,256c0,84.163-68.225,152.387-152.387,152.387V103.613
	C340.163,103.613,408.387,171.837,408.387,256z"/>
<g>
</g>
<g>
</g>
<g>
</g>
<g>
</g>
<g>
</g>
<g>
</g>
<g>
</g>
<g>
</g>
<g>
</g>
<g>
</g>
<g>
</g>
<g>
</g>
<g>
</g>
<g>
</g>
<g>
</g>
</svg>
