<?xml version="1.0" encoding="iso-8859-1"?>
<!-- Generator: Adobe Illustrator 19.0.0, SVG Export Plug-In . SVG Version: 6.00 Build 0)  -->
<svg version="1.1" id="Capa_1" xmlns="http://www.w3.org/2000/svg" xmlns:xlink="http://www.w3.org/1999/xlink" x="0px" y="0px"
	 viewBox="0 0 512 512" style="enable-background:new 0 0 512 512;" xml:space="preserve">
<polygon style="fill:#78777F;" points="135.742,225.403 44.578,272.738 0,384.158 132.903,384.158 "/>
<polygon style="fill:#ABAAB0;" points="472.207,291.017 468.375,282.054 358.819,213.051 298.768,128.332 298.418,127.842 
	137.654,177.058 129.081,228.866 122.96,265.858 108.344,354.148 105.854,369.153 103.373,384.158 512,384.158 "/>
<polygon style="fill:#88868F;" points="472.207,291.017 452.151,289.566 420.319,287.255 243.24,274.411 285.524,163.174 
	292.276,145.418 298.768,128.332 358.819,213.051 468.375,282.054 "/>
<polygon style="fill:#C5C3CA;" points="472.207,291.017 452.151,289.566 420.319,287.255 243.24,274.411 358.819,213.051 
	468.375,282.054 "/>
<g>
</g>
<g>
</g>
<g>
</g>
<g>
</g>
<g>
</g>
<g>
</g>
<g>
</g>
<g>
</g>
<g>
</g>
<g>
</g>
<g>
</g>
<g>
</g>
<g>
</g>
<g>
</g>
<g>
</g>
</svg>
