<?xml version="1.0" encoding="iso-8859-1"?>
<!-- Generator: Adobe Illustrator 19.0.0, SVG Export Plug-In . SVG Version: 6.00 Build 0)  -->
<svg version="1.1" id="Capa_1" xmlns="http://www.w3.org/2000/svg" xmlns:xlink="http://www.w3.org/1999/xlink" x="0px" y="0px"
	 viewBox="0 0 512 512" style="enable-background:new 0 0 512 512;" xml:space="preserve">
<path style="fill:#00AA00;" d="M412.55,156.55c0,75.35-53.67,140.07-127.62,153.89l-2.76-14.74h-52.34l-2.76,14.74
	C153.12,296.62,99.45,231.9,99.45,156.55C99.45,70.23,169.68,0,256,0S412.55,70.23,412.55,156.55z"/>
<path style="fill:#008000;" d="M412.55,156.55c0,75.35-53.67,140.07-127.62,153.89l-2.76-14.74H256V0
	C342.32,0,412.55,70.23,412.55,156.55z"/>
<polygon style="fill:#E37500;" points="342.65,219.25 295.35,251.4 304.54,512 207.46,512 217.18,236.36 172.36,207.25 
	150.61,150.76 178.6,139.98 196.86,187.39 218.42,201.39 222.02,99.21 289.98,99.21 294.1,215.97 316.49,200.75 332.06,141.55 
	361.08,149.19 "/>
<polygon style="fill:#974C00;" points="342.65,219.25 295.35,251.4 304.54,512 256,512 256,99.21 289.98,99.21 294.1,215.97 
	316.49,200.75 332.06,141.55 361.08,149.19 "/>
<g>
</g>
<g>
</g>
<g>
</g>
<g>
</g>
<g>
</g>
<g>
</g>
<g>
</g>
<g>
</g>
<g>
</g>
<g>
</g>
<g>
</g>
<g>
</g>
<g>
</g>
<g>
</g>
<g>
</g>
</svg>
