<?xml version="1.0" encoding="iso-8859-1"?>
<!-- Generator: Adobe Illustrator 19.0.0, SVG Export Plug-In . SVG Version: 6.00 Build 0)  -->
<svg version="1.1" id="Capa_1" xmlns="http://www.w3.org/2000/svg" xmlns:xlink="http://www.w3.org/1999/xlink" x="0px" y="0px"
	 viewBox="0 0 512 512" style="enable-background:new 0 0 512 512;" xml:space="preserve">
<rect x="336.214" y="389.987" style="fill:#E37500;" width="75.261" height="86.34"/>
<polygon style="fill:#00AA00;" points="512,413.206 235.701,413.206 293.537,331.758 251.42,331.758 301.399,261.386 
	264.352,261.386 373.855,107.173 483.357,261.386 446.31,261.386 496.282,331.758 454.165,331.758 "/>
<rect x="373.859" y="389.987" style="fill:#974C00;" width="37.628" height="86.34"/>
<polygon style="fill:#008000;" points="512,413.206 373.855,413.206 373.855,107.173 483.357,261.386 446.31,261.386 
	496.282,331.758 454.165,331.758 "/>
<rect x="130.106" y="383.155" style="fill:#E37500;" width="97.419" height="111.754"/>
<polygon style="fill:#00AA00;" points="357.631,413.208 0,413.208 74.86,307.785 20.345,307.785 85.038,216.697 37.084,216.697 
	178.82,17.091 320.557,216.697 272.603,216.697 337.286,307.785 282.771,307.785 "/>
<rect x="178.82" y="383.155" style="fill:#974C00;" width="48.705" height="111.754"/>
<polygon style="fill:#008000;" points="357.631,413.208 178.82,413.208 178.82,17.091 320.557,216.697 272.603,216.697 
	337.286,307.785 282.771,307.785 "/>
<g>
</g>
<g>
</g>
<g>
</g>
<g>
</g>
<g>
</g>
<g>
</g>
<g>
</g>
<g>
</g>
<g>
</g>
<g>
</g>
<g>
</g>
<g>
</g>
<g>
</g>
<g>
</g>
<g>
</g>
</svg>
