<?xml version="1.0" encoding="iso-8859-1"?>
<!-- Generator: Adobe Illustrator 19.0.0, SVG Export Plug-In . SVG Version: 6.00 Build 0)  -->
<svg version="1.1" id="Capa_1" xmlns="http://www.w3.org/2000/svg" xmlns:xlink="http://www.w3.org/1999/xlink" x="0px" y="0px"
	 viewBox="0 0 512 512" style="enable-background:new 0 0 512 512;" xml:space="preserve">
<path style="fill:#00623D;" d="M256,512c-65.662,0-136.333-18.795-136.333-60.061V336.993h272.667v114.946
	C392.333,493.205,321.661,512,256,512z"/>
<path style="fill:#183713;" d="M256,336.993h136.333v114.946C392.333,493.205,321.661,512,256,512"/>
<path style="fill:#00935C;" d="M256,422.055c-65.662,0-136.333-18.795-136.333-60.061v-80.179h272.667v80.179
	C392.333,403.26,321.661,422.055,256,422.055z"/>
<path style="fill:#00784B;" d="M256,281.816h136.333v80.179c0,41.266-70.671,60.061-136.333,60.061"/>
<path style="fill:#60DD4D;" d="M256,221.755c-65.662,0-136.333,18.795-136.333,60.061S190.338,341.877,256,341.877
	s136.333-18.795,136.333-60.061S321.661,221.755,256,221.755z"/>
<path style="fill:#56C745;" d="M256,341.876c65.662,0,136.333-18.795,136.333-60.061S321.662,221.754,256,221.754"/>
<path style="fill:#B7E4F8;" d="M256,234.967l-37.175-38.633h-95.158V0h264.666v196.333h-95.158L256,234.967z"/>
<polygon style="fill:#6FC8F1;" points="256,0 256,234.967 293.174,196.333 388.333,196.333 388.333,0 "/>
<g>
	<rect x="181" y="83.5" style="fill:#265D77;" width="30" height="30"/>
	<rect x="241" y="83.5" style="fill:#265D77;" width="30" height="30"/>
</g>
<g>
	<rect x="256" y="83.5" style="fill:#132F3B;" width="15" height="30"/>
	<rect x="301" y="83.5" style="fill:#132F3B;" width="30" height="30"/>
</g>
<g>
</g>
<g>
</g>
<g>
</g>
<g>
</g>
<g>
</g>
<g>
</g>
<g>
</g>
<g>
</g>
<g>
</g>
<g>
</g>
<g>
</g>
<g>
</g>
<g>
</g>
<g>
</g>
<g>
</g>
</svg>
