<?xml version="1.0" encoding="iso-8859-1"?>
<!-- Generator: Adobe Illustrator 19.0.0, SVG Export Plug-In . SVG Version: 6.00 Build 0)  -->
<svg version="1.1" id="Capa_1" xmlns="http://www.w3.org/2000/svg" xmlns:xlink="http://www.w3.org/1999/xlink" x="0px" y="0px"
	 viewBox="0 0 512 512" style="enable-background:new 0 0 512 512;" xml:space="preserve">
<path style="fill:#00623D;" d="M116.334,329.667C60.304,329.667,0,313.629,0,278.417v-98.083h232.667v98.083
	C232.667,313.629,172.363,329.667,116.334,329.667z"/>
<path style="fill:#183713;" d="M116.334,180.333h116.334v98.083c0,35.212-60.304,51.25-116.334,51.25"/>
<path style="fill:#00935C;" d="M116.334,252.917C60.304,252.917,0,236.879,0,201.667V133.25h232.667v68.417
	C232.667,236.879,172.363,252.917,116.334,252.917z"/>
<path style="fill:#00784B;" d="M116.334,133.25h116.334v68.417c0,35.212-60.304,51.25-116.334,51.25"/>
<path style="fill:#60DD4D;" d="M116.334,82C60.304,82,0,98.038,0,133.25s60.304,51.25,116.334,51.25s116.334-16.038,116.334-51.25
	C232.667,98.038,172.363,82,116.334,82z"/>
<path style="fill:#56C745;" d="M116.334,184.5c56.03,0,116.334-16.038,116.334-51.25S172.364,82,116.334,82"/>
<path style="fill:#00623D;" d="M395.667,329.667c-56.03,0-116.333-16.038-116.333-51.25v-98.083H512v98.083
	C512,313.629,451.697,329.667,395.667,329.667z"/>
<path style="fill:#183713;" d="M395.667,180.333H512v98.083c0,35.212-60.304,51.25-116.333,51.25"/>
<path style="fill:#00935C;" d="M395.667,252.917c-56.03,0-116.333-16.038-116.333-51.25V133.25H512v68.417
	C512,236.879,451.697,252.917,395.667,252.917z"/>
<path style="fill:#00784B;" d="M395.667,133.25H512v68.417c0,35.212-60.304,51.25-116.333,51.25"/>
<path style="fill:#60DD4D;" d="M395.667,82c-56.03,0-116.333,16.038-116.333,51.25s60.304,51.25,116.333,51.25
	S512,168.462,512,133.25S451.697,82,395.667,82z"/>
<path style="fill:#56C745;" d="M395.667,184.5c56.03,0,116.333-16.038,116.333-51.25S451.697,82,395.667,82"/>
<path style="fill:#00623D;" d="M256,430c-67.268,0-139.667-19.255-139.667-61.529V250.714h279.334V368.47
	C395.667,410.745,323.268,430,256,430z"/>
<path style="fill:#183713;" d="M256,250.714h139.667V368.47c0,42.275-72.399,61.53-139.667,61.53"/>
<path style="fill:#00935C;" d="M256,337.856c-67.268,0-139.667-19.255-139.667-61.529v-82.139h279.334v82.139
	C395.667,318.601,323.268,337.856,256,337.856z"/>
<path style="fill:#00784B;" d="M256,194.188h139.667v82.139c0,42.275-72.399,61.529-139.667,61.529"/>
<path style="fill:#60DD4D;" d="M256,132.658c-67.268,0-139.667,19.255-139.667,61.529c0,42.275,72.399,61.529,139.667,61.529
	s139.667-19.255,139.667-61.529S323.268,132.658,256,132.658z"/>
<path style="fill:#56C745;" d="M256,255.717c67.268,0,139.667-19.255,139.667-61.529c0-42.275-72.399-61.529-139.667-61.529"/>
<g>
</g>
<g>
</g>
<g>
</g>
<g>
</g>
<g>
</g>
<g>
</g>
<g>
</g>
<g>
</g>
<g>
</g>
<g>
</g>
<g>
</g>
<g>
</g>
<g>
</g>
<g>
</g>
<g>
</g>
</svg>
