<?xml version="1.0" encoding="iso-8859-1"?>
<!-- Generator: Adobe Illustrator 19.0.0, SVG Export Plug-In . SVG Version: 6.00 Build 0)  -->
<svg version="1.1" id="Capa_1" xmlns="http://www.w3.org/2000/svg" xmlns:xlink="http://www.w3.org/1999/xlink" x="0px" y="0px"
	 viewBox="0 0 512 512" style="enable-background:new 0 0 512 512;" xml:space="preserve">
<polygon style="fill:#265D77;" points="324.58,66.483 291.338,99.724 0,99.724 0,445.517 512,445.517 512,66.483 "/>
<polygon style="fill:#132F3B;" points="324.58,66.483 291.338,99.724 256,99.724 256,445.517 512,445.517 512,66.483 "/>
<path style="fill:#B7E4F8;" d="M357.256,261.866c-2.942-22.906-13.492-43.95-30.439-60.279
	C307.786,183.249,282.636,173.15,256,173.15s-51.786,10.099-70.817,28.438c-16.946,16.329-27.497,37.373-30.439,60.279
	c-25.469,6.346-44.395,29.415-44.395,56.82c0,32.285,26.266,58.55,58.55,58.55h174.202c32.285,0,58.55-26.266,58.55-58.551
	C401.651,291.281,382.725,268.213,357.256,261.866z"/>
<path style="fill:#6FC8F1;" d="M357.256,261.866c-2.942-22.906-13.492-43.95-30.439-60.279
	c-19.031-18.338-44.18-28.437-70.817-28.437v204.087h87.101c32.285,0,58.55-26.266,58.55-58.551
	C401.651,291.281,382.725,268.213,357.256,261.866z"/>
<g>
</g>
<g>
</g>
<g>
</g>
<g>
</g>
<g>
</g>
<g>
</g>
<g>
</g>
<g>
</g>
<g>
</g>
<g>
</g>
<g>
</g>
<g>
</g>
<g>
</g>
<g>
</g>
<g>
</g>
</svg>
