<?xml version="1.0" encoding="iso-8859-1"?>
<!-- Generator: Adobe Illustrator 19.0.0, SVG Export Plug-In . SVG Version: 6.00 Build 0)  -->
<svg version="1.1" id="Capa_1" xmlns="http://www.w3.org/2000/svg" xmlns:xlink="http://www.w3.org/1999/xlink" x="0px" y="0px"
	 viewBox="0 0 512 512" style="enable-background:new 0 0 512 512;" xml:space="preserve">
<polygon style="fill:#FF4F19;" points="428.726,439.189 413.383,454.533 413.383,337.236 271.01,337.236 271.01,255.062 
	240.989,255.062 240.989,337.236 98.616,337.236 98.616,454.533 83.273,439.189 62.045,460.417 113.627,512 165.209,460.417 
	143.981,439.189 128.637,454.533 128.637,367.257 240.989,367.257 240.989,454.533 225.644,439.189 204.417,460.417 256,512 
	307.582,460.417 286.354,439.189 271.01,454.533 271.01,367.257 383.362,367.257 383.362,454.533 368.018,439.189 346.79,460.417 
	398.372,512 449.954,460.417 "/>
<polygon style="fill:#BF3B13;" points="428.726,439.189 413.383,454.533 413.383,337.236 271.01,337.236 271.01,255.062 
	256,255.062 256,512 307.582,460.417 286.354,439.189 271.01,454.533 271.01,367.257 383.362,367.257 383.362,454.533 
	368.018,439.189 346.79,460.417 398.372,512 449.954,460.417 "/>
<path style="fill:#B7E4F8;" d="M378.131,274.125H133.868c-41.948,0-76.076-34.128-76.076-76.076
	c0-37.046,26.616-67.992,61.728-74.719c3.164-32.382,17.57-62.218,41.358-85.14C186.435,13.562,220.216,0,255.999,0
	c35.783,0,69.565,13.562,95.122,38.189c23.789,22.922,38.195,52.758,41.359,85.141c35.114,6.728,61.729,37.673,61.729,74.719
	C454.207,239.997,420.08,274.125,378.131,274.125z"/>
<path style="fill:#6FC8F1;" d="M392.479,123.329c-3.164-32.382-17.57-62.218-41.359-85.141C325.563,13.562,291.782,0,256,0v274.125
	h122.131c41.948,0,76.076-34.128,76.076-76.076C454.207,161.003,427.592,130.057,392.479,123.329z"/>
<g>
</g>
<g>
</g>
<g>
</g>
<g>
</g>
<g>
</g>
<g>
</g>
<g>
</g>
<g>
</g>
<g>
</g>
<g>
</g>
<g>
</g>
<g>
</g>
<g>
</g>
<g>
</g>
<g>
</g>
</svg>
