<?xml version="1.0" encoding="iso-8859-1"?>
<!-- Generator: Adobe Illustrator 19.0.0, SVG Export Plug-In . SVG Version: 6.00 Build 0)  -->
<svg version="1.1" id="Capa_1" xmlns="http://www.w3.org/2000/svg" xmlns:xlink="http://www.w3.org/1999/xlink" x="0px" y="0px"
	 viewBox="0 0 512 512" style="enable-background:new 0 0 512 512;" xml:space="preserve">
<path style="fill:#265D77;" d="M239.383,424.214H16.616v-170.88h222.767V424.214z"/>
<path style="fill:#132F3B;" d="M239.383,424.214H128v-170.88h111.384v170.88H239.383z"/>
<path style="fill:#B7E4F8;" d="M256,468.333H0v-50.704h256V468.333z"/>
<path style="fill:#6FC8F1;" d="M256,468.333H128v-50.704h128V468.333z"/>
<path style="fill:#265D77;" d="M495.384,424.214H272.616v-170.88h222.767v170.88H495.384z"/>
<path style="fill:#132F3B;" d="M495.384,424.214H384v-170.88h111.384V424.214z"/>
<path style="fill:#B7E4F8;" d="M512,468.333H256v-50.704h256V468.333z"/>
<path style="fill:#6FC8F1;" d="M512,468.333H384v-50.704h128V468.333z"/>
<rect x="112.67" y="180" style="fill:#FF4F19;" width="30" height="171"/>
<rect x="128" y="180" style="fill:#BF3B13;" width="14.667" height="171"/>
<polygon style="fill:#FF4F19;" points="429.195,327.019 384,372.213 338.805,327.019 360.018,305.805 369,314.787 369,186.667 
	399,186.667 399,314.787 407.982,305.805 "/>
<polygon style="fill:#BF3B13;" points="384,372.213 384,186.667 399,186.667 399,314.787 407.982,305.805 429.195,327.019 "/>
<path style="fill:#CECED1;" d="M452.334,201.667H59.667v-158h392.667L452.334,201.667L452.334,201.667z"/>
<path style="fill:#AEADB3;" d="M452.334,201.667H256v-158h196.334L452.334,201.667L452.334,201.667z"/>
<path style="fill:#838286;" d="M452.334,165.333H59.667V80h392.667L452.334,165.333L452.334,165.333z"/>
<path style="fill:#57575A;" d="M452.334,165.333H256V80h196.334L452.334,165.333L452.334,165.333z"/>
<rect x="151.33" y="107.67" style="fill:#FFDB2D;" width="30" height="30"/>
<rect x="330.67" y="107.67" style="fill:#56C745;" width="30" height="30"/>
<rect x="271.33" y="107.67" style="fill:#6FC8F1;" width="30" height="30"/>
<g>
</g>
<g>
</g>
<g>
</g>
<g>
</g>
<g>
</g>
<g>
</g>
<g>
</g>
<g>
</g>
<g>
</g>
<g>
</g>
<g>
</g>
<g>
</g>
<g>
</g>
<g>
</g>
<g>
</g>
</svg>
