<?xml version="1.0" encoding="iso-8859-1"?>
<!-- Generator: Adobe Illustrator 19.0.0, SVG Export Plug-In . SVG Version: 6.00 Build 0)  -->
<svg version="1.1" id="Capa_1" xmlns="http://www.w3.org/2000/svg" xmlns:xlink="http://www.w3.org/1999/xlink" x="0px" y="0px"
	 viewBox="0 0 512 512" style="enable-background:new 0 0 512 512;" xml:space="preserve">
<g>
	<rect x="241" y="341.33" style="fill:#FF4F19;" width="30" height="85.33"/>
	<polygon style="fill:#FF4F19;" points="415.941,507.607 461.135,462.412 415.941,417.217 394.727,438.43 403.709,447.412 
		275.589,447.412 275.589,477.412 403.709,477.412 394.727,486.394 	"/>
</g>
<polygon style="fill:#BF3B13;" points="461.135,462.412 275.589,462.412 275.589,477.412 403.709,477.412 394.727,486.394 
	415.941,507.607 "/>
<polygon style="fill:#FF4F19;" points="96.059,507.607 50.865,462.412 96.059,417.217 117.273,438.43 108.291,447.412 
	236.411,447.412 236.411,477.412 108.291,477.412 117.273,486.394 "/>
<polygon style="fill:#BF3B13;" points="50.865,462.412 236.411,462.412 236.411,477.412 108.291,477.412 117.273,486.394 
	96.059,507.607 "/>
<path style="fill:#FFDB2D;" d="M345.667,512H166.333v-94h179.333v94H345.667z"/>
<rect x="256" y="418" style="fill:#FFB300;" width="89.67" height="94"/>
<polygon style="fill:#B7E4F8;" points="91.667,0 91.667,81.801 208.503,226.128 208.503,388.641 303.497,350.124 303.497,226.128 
	420.333,81.801 420.333,0 "/>
<g>
	<polygon style="fill:#6FC8F1;" points="256,0 256,369.382 303.497,350.124 303.497,226.128 420.333,81.801 420.333,0 	"/>
	<rect x="91.67" style="fill:#6FC8F1;" width="328.67" height="81.8"/>
</g>
<rect x="256" style="fill:#388CB2;" width="164.33" height="81.8"/>
<g>
</g>
<g>
</g>
<g>
</g>
<g>
</g>
<g>
</g>
<g>
</g>
<g>
</g>
<g>
</g>
<g>
</g>
<g>
</g>
<g>
</g>
<g>
</g>
<g>
</g>
<g>
</g>
<g>
</g>
</svg>
