<?xml version="1.0" encoding="iso-8859-1"?>
<!-- Generator: Adobe Illustrator 19.0.0, SVG Export Plug-In . SVG Version: 6.00 Build 0)  -->
<svg version="1.1" id="Capa_1" xmlns="http://www.w3.org/2000/svg" xmlns:xlink="http://www.w3.org/1999/xlink" x="0px" y="0px"
	 viewBox="0 0 512 512" style="enable-background:new 0 0 512 512;" xml:space="preserve">
<rect x="224" y="401" style="fill:#FF4F19;" width="74.67" height="30"/>
<path style="fill:#00623D;" d="M395.667,473.667c-56.03,0-116.333-16.038-116.333-51.25v-98.083H512v98.083
	C512,457.629,451.696,473.667,395.667,473.667z"/>
<path style="fill:#183713;" d="M395.667,324.333H512v98.083c0,35.212-60.304,51.25-116.333,51.25"/>
<path style="fill:#00935C;" d="M395.667,396.917c-56.03,0-116.333-16.038-116.333-51.25V277.25H512v68.416
	C512,380.879,451.696,396.917,395.667,396.917z"/>
<path style="fill:#00784B;" d="M395.667,277.25H512v68.416c0,35.212-60.304,51.25-116.333,51.25"/>
<path style="fill:#60DD4D;" d="M395.667,226.001c-56.03,0-116.333,16.038-116.333,51.25s60.304,51.25,116.333,51.25
	c56.03,0,116.333-16.038,116.333-51.25S451.696,226.001,395.667,226.001z"/>
<path style="fill:#56C745;" d="M395.667,328.5c56.03,0,116.333-16.038,116.333-51.25S451.696,226,395.667,226"/>
<path style="fill:#CECED1;" d="M232.666,463H0V38.333h232.666V463z"/>
<path style="fill:#AEADB3;" d="M232.666,463H116.333V38.333h116.333V463z"/>
<path style="fill:#838286;" d="M232.666,423H0V78.333h232.666V423z"/>
<path style="fill:#57575A;" d="M232.666,423H116.333V78.333h116.333V423z"/>
<g>
	<rect x="53.33" y="113" style="fill:#B7E4F8;" width="126" height="83.33"/>
	<rect x="53.33" y="219.67" style="fill:#B7E4F8;" width="126" height="30"/>
	<rect x="53.33" y="358.33" style="fill:#B7E4F8;" width="126" height="30"/>
</g>
<rect x="101.33" y="289" style="fill:#FFDB2D;" width="30" height="30"/>
<g>
	<rect x="116.33" y="113" style="fill:#6FC8F1;" width="63" height="83.33"/>
	<rect x="116.33" y="219.67" style="fill:#6FC8F1;" width="63" height="30"/>
	<rect x="116.33" y="358.33" style="fill:#6FC8F1;" width="63" height="30"/>
</g>
<rect x="116.33" y="289" style="fill:#FFB300;" width="15" height="30"/>
<rect x="83.33" y="143" style="fill:#265D77;" width="66" height="23.333"/>
<rect x="116.33" y="143" style="fill:#132F3B;" width="33" height="23.333"/>
<g>
</g>
<g>
</g>
<g>
</g>
<g>
</g>
<g>
</g>
<g>
</g>
<g>
</g>
<g>
</g>
<g>
</g>
<g>
</g>
<g>
</g>
<g>
</g>
<g>
</g>
<g>
</g>
<g>
</g>
</svg>
