<?xml version="1.0" encoding="iso-8859-1"?>
<!-- Generator: Adobe Illustrator 19.0.0, SVG Export Plug-In . SVG Version: 6.00 Build 0)  -->
<svg version="1.1" id="Capa_1" xmlns="http://www.w3.org/2000/svg" xmlns:xlink="http://www.w3.org/1999/xlink" x="0px" y="0px"
	 viewBox="0 0 512.002 512.002" style="enable-background:new 0 0 512.002 512.002;" xml:space="preserve">
<polygon style="fill:#FF4F19;" points="271,239.856 271,166.278 241,166.278 241,239.856 56.367,239.856 56.367,377.56 
	86.367,377.56 86.367,269.856 241,269.856 241,348.034 271,348.034 271,269.856 425.633,269.856 425.633,377.56 455.633,377.56 
	455.633,239.856 "/>
<polygon style="fill:#BF3B13;" points="271,239.856 271,166.278 256,166.278 256,348.034 271,348.034 271,269.856 425.633,269.856 
	425.633,377.56 455.633,377.56 455.633,239.856 "/>
<rect x="184.06" y="30.106" style="fill:#FFDB2D;" width="143.88" height="143.88"/>
<rect x="256" y="30.106" style="fill:#FFB300;" width="71.942" height="143.88"/>
<rect y="338.016" style="fill:#FFDB2D;" width="143.88" height="143.88"/>
<rect x="71.942" y="338.016" style="fill:#FFB300;" width="71.942" height="143.88"/>
<rect x="184.06" y="338.016" style="fill:#FFDB2D;" width="143.88" height="143.88"/>
<rect x="256" y="338.016" style="fill:#FFB300;" width="71.942" height="143.88"/>
<rect x="368.12" y="338.016" style="fill:#FFDB2D;" width="143.88" height="143.88"/>
<rect x="440.06" y="338.016" style="fill:#FFB300;" width="71.942" height="143.88"/>
<g>
</g>
<g>
</g>
<g>
</g>
<g>
</g>
<g>
</g>
<g>
</g>
<g>
</g>
<g>
</g>
<g>
</g>
<g>
</g>
<g>
</g>
<g>
</g>
<g>
</g>
<g>
</g>
<g>
</g>
</svg>
