<?xml version="1.0" encoding="iso-8859-1"?>
<!-- Generator: Adobe Illustrator 19.0.0, SVG Export Plug-In . SVG Version: 6.00 Build 0)  -->
<svg version="1.1" id="Capa_1" xmlns="http://www.w3.org/2000/svg" xmlns:xlink="http://www.w3.org/1999/xlink" x="0px" y="0px"
	 viewBox="0 0 512.014 512.014" style="enable-background:new 0 0 512.014 512.014;" xml:space="preserve">
<path style="fill:#B7E4F8;" d="M337.148,440.214H29.814V0h307.334L337.148,440.214L337.148,440.214z"/>
<path style="fill:#6FC8F1;" d="M337.148,426.667H183.481V0h153.667V426.667z"/>
<path style="fill:#265D77;" d="M337.148,512H29.814v-85.333h307.334L337.148,512L337.148,512z"/>
<path style="fill:#132F3B;" d="M337.148,512H183.481v-85.333h153.667V512z"/>
<rect x="328.419" y="274.09" transform="matrix(-0.8057 0.5923 -0.5923 -0.8057 909.1561 482.6753)" style="fill:#FF4F19;" width="94.006" height="232.685"/>
<polygon style="fill:#BF3B13;" points="344.351,268.856 302.882,299.337 443.996,484.371 482.148,456.329 "/>
<circle style="fill:#DBF1FB;" cx="245.631" cy="218.56" r="138.67"/>
<path style="fill:#B7E4F8;" d="M335.784,342.999c0.039-0.029,0.079-0.055,0.119-0.084c68.569-49.779,83.855-146.061,34.077-214.629
	C320.201,59.717,223.918,44.431,155.35,94.21c-0.039,0.029-0.077,0.058-0.116,0.087"/>
<path style="fill:#388CB2;" d="M245.626,372.229c-84.732,0-153.667-68.935-153.667-153.667S160.894,64.895,245.626,64.895
	s153.667,68.935,153.667,153.667S330.359,372.229,245.626,372.229z M245.626,94.896c-68.191,0-123.667,55.477-123.667,123.667
	S177.435,342.23,245.626,342.23c68.19,0,123.667-55.477,123.667-123.667C369.293,150.372,313.817,94.896,245.626,94.896z"/>
<g>
	<rect x="170.631" y="203.56" style="fill:#265D77;" width="30" height="30"/>
	<rect x="230.631" y="203.56" style="fill:#265D77;" width="30" height="30"/>
	<rect x="290.621" y="203.56" style="fill:#265D77;" width="30" height="30"/>
	<path style="fill:#265D77;" d="M155.35,94.21c-0.039,0.029-0.077,0.058-0.116,0.087l17.624,24.277
		c0.039-0.029,0.077-0.058,0.117-0.087c55.182-40.061,132.667-27.758,172.728,27.424c40.06,55.182,27.758,132.667-27.424,172.728
		c-0.039,0.029-0.079,0.055-0.119,0.084L335.784,343c0.039-0.029,0.079-0.055,0.119-0.084
		c68.569-49.779,83.855-146.061,34.077-214.629C320.201,59.717,223.918,44.431,155.35,94.21z"/>
</g>
<g>
</g>
<g>
</g>
<g>
</g>
<g>
</g>
<g>
</g>
<g>
</g>
<g>
</g>
<g>
</g>
<g>
</g>
<g>
</g>
<g>
</g>
<g>
</g>
<g>
</g>
<g>
</g>
<g>
</g>
</svg>
