<?xml version="1.0" encoding="iso-8859-1"?>
<!-- Generator: Adobe Illustrator 19.0.0, SVG Export Plug-In . SVG Version: 6.00 Build 0)  -->
<svg version="1.1" id="Capa_1" xmlns="http://www.w3.org/2000/svg" xmlns:xlink="http://www.w3.org/1999/xlink" x="0px" y="0px"
	 viewBox="0 0 512 512" style="enable-background:new 0 0 512 512;" xml:space="preserve">
<polygon style="fill:#FF4F19;" points="415.941,507.607 461.135,462.412 415.941,417.217 394.727,438.43 403.709,447.412 
	275.589,447.412 275.589,477.412 403.709,477.412 394.727,486.394 "/>
<polygon style="fill:#BF3B13;" points="461.135,462.412 275.589,462.412 275.589,477.412 403.709,477.412 394.727,486.394 
	415.941,507.607 "/>
<polygon style="fill:#FF4F19;" points="96.059,507.607 50.865,462.412 96.059,417.217 117.273,438.43 108.291,447.412 
	236.412,447.412 236.412,477.412 108.291,477.412 117.273,486.394 "/>
<polygon style="fill:#BF3B13;" points="50.865,462.412 236.412,462.412 236.412,477.412 108.291,477.412 117.273,486.394 
	96.059,507.607 "/>
<rect x="241" y="298.67" style="fill:#FF4F19;" width="30" height="85.33"/>
<path style="fill:#FFDB2D;" d="M345.667,512H166.334v-94h42.667v-49h94v49h42.667v94H345.667z"/>
<polygon style="fill:#FFB300;" points="303.001,418 303.001,369 256,369 256,512 345.667,512 345.667,418 "/>
<rect x="182.37" y="256.82" style="fill:#132F3B;" width="147.26" height="53.608"/>
<rect x="51.17" style="fill:#B7E4F8;" width="409.67" height="279.22"/>
<rect x="256" style="fill:#6FC8F1;" width="204.83" height="279.22"/>
<rect x="51.17" y="232.46" style="fill:#4BBAED;" width="409.67" height="46.756"/>
<rect x="256" y="232.46" style="fill:#388CB2;" width="204.83" height="46.756"/>
<rect x="162.22" y="294" style="fill:#265D77;" width="187.57" height="30"/>
<polygon style="fill:#FF4F19;" points="298.667,127.617 225.429,169.901 225.429,85.333 "/>
<polygon style="fill:#BF3B13;" points="256,103.541 256,152.809 298.667,128.175 "/>
<g>
</g>
<g>
</g>
<g>
</g>
<g>
</g>
<g>
</g>
<g>
</g>
<g>
</g>
<g>
</g>
<g>
</g>
<g>
</g>
<g>
</g>
<g>
</g>
<g>
</g>
<g>
</g>
<g>
</g>
</svg>
