<?xml version="1.0" encoding="iso-8859-1"?>
<!-- Generator: Adobe Illustrator 19.0.0, SVG Export Plug-In . SVG Version: 6.00 Build 0)  -->
<svg version="1.1" id="Capa_1" xmlns="http://www.w3.org/2000/svg" xmlns:xlink="http://www.w3.org/1999/xlink" x="0px" y="0px"
	 viewBox="0 0 512 512" style="enable-background:new 0 0 512 512;" xml:space="preserve">
<path style="fill:#265D77;" d="M452.333,452.334H59.666V59.667h392.667V452.334z"/>
<rect x="256.97" y="59.667" style="fill:#132F3B;" width="195.36" height="392.67"/>
<g>
	<rect x="134.33" style="fill:#CECED1;" width="30" height="74.67"/>
	<rect x="205.44" style="fill:#CECED1;" width="30" height="74.67"/>
</g>
<g>
	<rect x="276.56" style="fill:#AEADB3;" width="30" height="74.67"/>
	<rect x="347.67" style="fill:#AEADB3;" width="30" height="74.67"/>
</g>
<g>
	<rect y="347.67" style="fill:#CECED1;" width="74.67" height="30"/>
	<rect y="276.56" style="fill:#CECED1;" width="74.67" height="30"/>
	<rect y="205.44" style="fill:#CECED1;" width="74.67" height="30"/>
	<rect y="134.33" style="fill:#CECED1;" width="74.67" height="30"/>
</g>
<g>
	<rect x="347.67" y="437.33" style="fill:#AEADB3;" width="30" height="74.67"/>
	<rect x="276.55" y="437.33" style="fill:#AEADB3;" width="30" height="74.67"/>
</g>
<g>
	<rect x="205.44" y="437.33" style="fill:#CECED1;" width="30" height="74.67"/>
	<rect x="134.33" y="437.33" style="fill:#CECED1;" width="30" height="74.67"/>
</g>
<g>
	<rect x="437.33" y="134.33" style="fill:#AEADB3;" width="74.67" height="30"/>
	<rect x="437.33" y="205.44" style="fill:#AEADB3;" width="74.67" height="30"/>
	<rect x="437.33" y="276.56" style="fill:#AEADB3;" width="74.67" height="30"/>
	<rect x="437.33" y="347.67" style="fill:#AEADB3;" width="74.67" height="30"/>
</g>
<path style="fill:#FFDB2D;" d="M256,150.334c-40.62,0-73.667,33.047-73.667,73.667v137.667h147.334V224.001
	C329.667,183.381,296.62,150.334,256,150.334z M299.667,246.334h-87.334v-22.333c0-24.078,19.589-43.667,43.667-43.667
	s43.667,19.589,43.667,43.667V246.334z"/>
<g>
	<path style="fill:#FFB300;" d="M256.969,150.359v30c23.631,0.519,42.698,19.889,42.698,43.642v22.333h-42.698v115.334h72.698
		V224.001C329.667,183.706,297.142,150.882,256.969,150.359z"/>
	<path style="fill:#FFB300;" d="M212.333,246.334v-22.333c0-24.078,19.589-43.667,43.667-43.667s43.667,19.589,43.667,43.667v22.333
		h30v-22.333c0-40.62-33.047-73.667-73.667-73.667s-73.667,33.047-73.667,73.667v22.333L212.333,246.334L212.333,246.334z"/>
</g>
<path style="fill:#FF9900;" d="M256,150.334v30c24.078,0,43.667,19.589,43.667,43.667v22.333h30v-22.333
	C329.667,183.381,296.62,150.334,256,150.334z"/>
<g>
</g>
<g>
</g>
<g>
</g>
<g>
</g>
<g>
</g>
<g>
</g>
<g>
</g>
<g>
</g>
<g>
</g>
<g>
</g>
<g>
</g>
<g>
</g>
<g>
</g>
<g>
</g>
<g>
</g>
</svg>
