<?xml version="1.0" encoding="iso-8859-1"?>
<!-- Generator: Adobe Illustrator 19.0.0, SVG Export Plug-In . SVG Version: 6.00 Build 0)  -->
<svg version="1.1" id="Capa_1" xmlns="http://www.w3.org/2000/svg" xmlns:xlink="http://www.w3.org/1999/xlink" x="0px" y="0px"
	 viewBox="0 0 512 512" style="enable-background:new 0 0 512 512;" xml:space="preserve">
<path style="fill:#B7E4F8;" d="M454.728,483.634H277.27c-31.58,0-57.272-25.692-57.272-57.272c0-27.372,19.302-50.321,45.01-55.951
	c2.63-23.431,13.227-44.989,30.496-61.629c18.942-18.253,43.978-28.305,70.495-28.305s51.553,10.052,70.495,28.305
	c17.269,16.64,27.866,38.198,30.496,61.63c25.707,5.629,45.01,28.578,45.01,55.951C512,457.942,486.308,483.634,454.728,483.634z"/>
<path style="fill:#6FC8F1;" d="M466.99,370.411c-2.63-23.431-13.228-44.989-30.496-61.63
	c-18.942-18.253-43.978-28.305-70.495-28.305v203.157h88.729c31.58,0,57.272-25.692,57.272-57.272
	C512,398.99,492.698,376.041,466.99,370.411z"/>
<rect x="91.21" y="173.7" style="fill:#FFDB2D;" width="329.59" height="226.87"/>
<g>
	<rect x="256" y="173.7" style="fill:#FFB300;" width="164.79" height="226.87"/>
	<polygon style="fill:#FFB300;" points="91.207,173.701 256,28.366 420.793,173.701 	"/>
</g>
<polyline style="fill:#FF9900;" points="256,173.701 256,28.366 420.793,173.701 "/>
<polygon style="fill:#BEBDC2;" points="129,86.701 129,233.77 256,329.912 383,233.769 383,86.701 "/>
<polygon style="fill:#838286;" points="256,86.701 256,329.912 383,233.769 383,86.701 "/>
<rect x="207.47" y="172.03" style="fill:#B7E4F8;" width="97.06" height="30"/>
<rect x="256" y="172.03" style="fill:#6FC8F1;" width="48.53" height="30"/>
<path style="fill:#B7E4F8;" d="M234.73,483.634H57.272C25.692,483.634,0,457.942,0,426.362c0-27.372,19.302-50.321,45.01-55.951
	c2.63-23.431,13.227-44.989,30.496-61.629c18.942-18.253,43.978-28.305,70.495-28.305s51.553,10.052,70.495,28.305
	c17.269,16.64,27.866,38.198,30.496,61.63c25.708,5.629,45.01,28.578,45.01,55.951C292.002,457.942,266.31,483.634,234.73,483.634z"
	/>
<path style="fill:#6FC8F1;" d="M246.992,370.411c-2.63-23.431-13.228-44.989-30.496-61.63
	c-18.942-18.253-43.978-28.305-70.495-28.305v203.157h88.729c31.58,0,57.272-25.692,57.272-57.272
	C292.002,398.99,272.7,376.041,246.992,370.411z"/>
<g>
</g>
<g>
</g>
<g>
</g>
<g>
</g>
<g>
</g>
<g>
</g>
<g>
</g>
<g>
</g>
<g>
</g>
<g>
</g>
<g>
</g>
<g>
</g>
<g>
</g>
<g>
</g>
<g>
</g>
</svg>
