<?xml version="1.0" encoding="iso-8859-1"?>
<!-- Generator: Adobe Illustrator 19.0.0, SVG Export Plug-In . SVG Version: 6.00 Build 0)  -->
<svg version="1.1" id="Capa_1" xmlns="http://www.w3.org/2000/svg" xmlns:xlink="http://www.w3.org/1999/xlink" x="0px" y="0px"
	 viewBox="0 0 512 512" style="enable-background:new 0 0 512 512;" xml:space="preserve">
<path style="fill:#00623D;" d="M365.646,512c-52.839,0-109.708-15.125-109.708-48.331v-92.497h219.416v92.497
	C475.354,496.875,418.484,512,365.646,512z"/>
<path style="fill:#183713;" d="M365.646,371.172h109.708v92.497c0,33.207-56.869,48.331-109.708,48.331"/>
<path style="fill:#00935C;" d="M365.646,439.621c-52.839,0-109.708-15.124-109.708-48.331v-64.52h219.416v64.52
	C475.354,424.497,418.484,439.621,365.646,439.621z"/>
<path style="fill:#00784B;" d="M365.646,326.77h109.708v64.52c0,33.207-56.869,48.331-109.708,48.331"/>
<path style="fill:#60DD4D;" d="M365.646,278.439c-52.839,0-109.708,15.125-109.708,48.331c0,33.207,56.869,48.331,109.708,48.331
	s109.708-15.124,109.708-48.331S418.484,278.439,365.646,278.439z"/>
<path style="fill:#56C745;" d="M365.646,375.101c52.839,0,109.708-15.124,109.708-48.331s-56.869-48.331-109.708-48.331"/>
<path style="fill:#00935C;" d="M146.354,512c-52.839,0-109.708-15.125-109.708-48.331v-69.002h219.416v69.002
	C256.062,496.875,199.193,512,146.354,512z"/>
<path style="fill:#00784B;" d="M146.354,394.667h109.708v69.002c0,33.207-56.869,48.331-109.708,48.331"/>
<path style="fill:#60DD4D;" d="M146.354,342.959c-52.839,0-109.708,15.124-109.708,48.331s56.869,48.331,109.708,48.331
	s109.708-15.124,109.708-48.331S199.193,342.959,146.354,342.959z"/>
<path style="fill:#56C745;" d="M146.354,439.621c52.839,0,109.708-15.124,109.708-48.331s-56.869-48.331-109.708-48.331"/>
<path style="fill:#B7E4F8;" d="M365.646,234.967l-37.175-38.633h-95.158V0h264.666v196.333H402.82L365.646,234.967z"/>
<polygon style="fill:#6FC8F1;" points="365.646,0 365.646,234.967 402.82,196.333 497.979,196.333 497.979,0 "/>
<g>
	<rect x="290.65" y="83.5" style="fill:#265D77;" width="30" height="30"/>
	<rect x="350.65" y="83.5" style="fill:#265D77;" width="30" height="30"/>
</g>
<g>
	<rect x="365.65" y="83.5" style="fill:#132F3B;" width="15" height="30"/>
	<rect x="410.65" y="83.5" style="fill:#132F3B;" width="30" height="30"/>
</g>
<path style="fill:#B7E4F8;" d="M146.354,352l-37.175-38.633H14.021V145h264.666v168.366h-95.158L146.354,352z"/>
<polygon style="fill:#6FC8F1;" points="146.354,145 146.354,352 183.529,313.366 278.687,313.366 278.687,145 "/>
<g>
	<rect x="71.35" y="215.33" style="fill:#265D77;" width="30" height="30"/>
	<rect x="131.35" y="215.33" style="fill:#265D77;" width="30" height="30"/>
</g>
<g>
	<rect x="146.35" y="215.33" style="fill:#132F3B;" width="15" height="30"/>
	<rect x="191.35" y="215.33" style="fill:#132F3B;" width="30" height="30"/>
</g>
<g>
</g>
<g>
</g>
<g>
</g>
<g>
</g>
<g>
</g>
<g>
</g>
<g>
</g>
<g>
</g>
<g>
</g>
<g>
</g>
<g>
</g>
<g>
</g>
<g>
</g>
<g>
</g>
<g>
</g>
</svg>
