<?xml version="1.0" encoding="iso-8859-1"?>
<!-- Generator: Adobe Illustrator 19.0.0, SVG Export Plug-In . SVG Version: 6.00 Build 0)  -->
<svg version="1.1" id="Capa_1" xmlns="http://www.w3.org/2000/svg" xmlns:xlink="http://www.w3.org/1999/xlink" x="0px" y="0px"
	 viewBox="0 0 512 512" style="enable-background:new 0 0 512 512;" xml:space="preserve">
<polygon style="fill:#FF4F19;" points="466.805,301.195 512,256 466.805,210.805 445.592,232.018 454.574,241 326.453,241 
	326.453,271 454.574,271 445.592,279.982 "/>
<polygon style="fill:#BF3B13;" points="512,256 326.453,256 326.453,271 454.574,271 445.592,279.982 466.805,301.195 "/>
<polygon style="fill:#FF4F19;" points="45.195,301.195 0,256 45.195,210.805 66.408,232.018 57.426,241 185.547,241 185.547,271 
	57.426,271 66.408,279.982 "/>
<polygon style="fill:#BF3B13;" points="0,256 185.547,256 185.547,271 57.426,271 66.408,279.982 45.195,301.195 "/>
<rect x="117.33" y="96" style="fill:#B7E4F8;" width="277.33" height="256"/>
<rect x="256" y="96" style="fill:#6FC8F1;" width="138.67" height="256"/>
<path style="fill:#DBF1FB;" d="M102.333,81v350h307.333V81H102.333z M379.666,337H132.333V111h247.333V337z"/>
<polygon style="fill:#00935C;" points="379.666,337 379.666,261.641 342.795,223.602 299.621,261.795 213.086,169.852 
	132.333,259.577 132.333,337 "/>
<rect x="290" y="151.33" style="fill:#FFE257;" width="30" height="30"/>
<polygon style="fill:#B7E4F8;" points="256,81 256,111 379.666,111 379.666,337 256,337 256,431 409.666,431 409.666,81 "/>
<polygon style="fill:#00623D;" points="342.795,223.602 299.621,261.795 256,215.447 256,337 379.666,337 379.666,261.641 "/>
<g>
</g>
<g>
</g>
<g>
</g>
<g>
</g>
<g>
</g>
<g>
</g>
<g>
</g>
<g>
</g>
<g>
</g>
<g>
</g>
<g>
</g>
<g>
</g>
<g>
</g>
<g>
</g>
<g>
</g>
</svg>
