<?xml version="1.0" encoding="iso-8859-1"?>
<!-- Generator: Adobe Illustrator 19.0.0, SVG Export Plug-In . SVG Version: 6.00 Build 0)  -->
<svg version="1.1" id="Capa_1" xmlns="http://www.w3.org/2000/svg" xmlns:xlink="http://www.w3.org/1999/xlink" x="0px" y="0px"
	 viewBox="0 0 512 512" style="enable-background:new 0 0 512 512;" xml:space="preserve">
<g>
	<rect x="241" y="341.33" style="fill:#FF4F19;" width="30" height="85.33"/>
	<polygon style="fill:#FF4F19;" points="415.941,507.607 461.135,462.412 415.941,417.217 394.727,438.43 403.709,447.412 
		275.589,447.412 275.589,477.412 403.709,477.412 394.727,486.394 	"/>
</g>
<polygon style="fill:#BF3B13;" points="461.135,462.412 275.589,462.412 275.589,477.412 403.709,477.412 394.727,486.394 
	415.941,507.607 "/>
<polygon style="fill:#FF4F19;" points="96.059,507.607 50.865,462.412 96.059,417.217 117.273,438.43 108.291,447.412 
	236.412,447.412 236.412,477.412 108.291,477.412 117.273,486.394 "/>
<polygon style="fill:#BF3B13;" points="50.865,462.412 236.412,462.412 236.412,477.412 108.291,477.412 117.273,486.394 
	96.059,507.607 "/>
<path style="fill:#FFDB2D;" d="M345.667,512H166.334v-94h179.334v94H345.667z"/>
<rect x="256" y="418" style="fill:#FFB300;" width="89.67" height="94"/>
<path style="fill:#CECED1;" d="M378.839,104.666H133.161V0h245.677L378.839,104.666L378.839,104.666z"/>
<path style="fill:#AEADB3;" d="M378.839,104.666H254.548V0h124.291V104.666z"/>
<path style="fill:#265D77;" d="M59.667,74.667v222h392.667v-222C452.334,74.667,59.667,74.667,59.667,74.667z"/>
<path style="fill:#132F3B;" d="M254.548,74.667l1.452,222h196.333v-222C452.333,74.667,254.548,74.667,254.548,74.667z"/>
<rect x="288" y="132" style="fill:#FF4F19;" width="30" height="30"/>
<rect x="347.67" y="132" style="fill:#6FC8F1;" width="30" height="30"/>
<path style="fill:#AEADB3;" d="M133.161,193h245.678v167.667H185.084l-51.923-51.922V193z"/>
<polygon style="fill:#CECED1;" points="185.084,360.667 256,360.667 256,193 133.161,193 133.161,308.745 "/>
<polygon style="fill:#AEADB3;" points="185.084,360.667 185.084,308.833 133.161,308.745 "/>
<g>
</g>
<g>
</g>
<g>
</g>
<g>
</g>
<g>
</g>
<g>
</g>
<g>
</g>
<g>
</g>
<g>
</g>
<g>
</g>
<g>
</g>
<g>
</g>
<g>
</g>
<g>
</g>
<g>
</g>
</svg>
