<?xml version="1.0" encoding="iso-8859-1"?>
<!-- Generator: Adobe Illustrator 19.0.0, SVG Export Plug-In . SVG Version: 6.00 Build 0)  -->
<svg version="1.1" id="Capa_1" xmlns="http://www.w3.org/2000/svg" xmlns:xlink="http://www.w3.org/1999/xlink" x="0px" y="0px"
	 viewBox="0 0 512 512" style="enable-background:new 0 0 512 512;" xml:space="preserve">
<path style="fill:#FFDB2D;" d="M413.667,512H98.334V295.057h176.051l19.679-19.678h119.604V512H413.667z"/>
<polygon style="fill:#FFB300;" points="294.063,275.379 274.384,295.057 256,295.057 256,512 413.667,512 413.667,275.379 "/>
<path style="fill:#CECED1;" d="M452.333,132.333H59.667V0h392.667L452.333,132.333L452.333,132.333z"/>
<path style="fill:#AEADB3;" d="M452.333,132.333H256V0h196.334L452.333,132.333L452.333,132.333z"/>
<path style="fill:#838286;" d="M452.333,101.902H59.667V30.431h392.667L452.333,101.902L452.333,101.902z"/>
<path style="fill:#57575A;" d="M452.333,101.902H256V30.431h196.334L452.333,101.902L452.333,101.902z"/>
<rect x="151.33" y="51.17" style="fill:#FFDB2D;" width="30" height="30"/>
<rect x="330.67" y="51.17" style="fill:#56C745;" width="30" height="30"/>
<rect x="271.329" y="51.17" style="fill:#6FC8F1;" width="30" height="30"/>
<g>
	<path style="fill:#B7E4F8;" d="M186.674,220.612c15.747-21.189,40.958-34.945,69.326-34.945s53.579,13.757,69.326,34.945
		l23.227-19.004c-21.271-27.9-54.842-45.941-92.554-45.941s-71.283,18.041-92.553,45.941L186.674,220.612z"/>
	<path style="fill:#B7E4F8;" d="M307.237,235.412C295.798,219.439,277.101,209,256,209s-39.798,10.439-51.237,26.412l23.297,19.061
		C233.905,245.187,244.24,239,256,239c11.759,0,22.095,6.188,27.941,15.473L307.237,235.412z"/>
</g>
<g>
	<path style="fill:#6FC8F1;" d="M256,209v30c11.759,0,22.095,6.188,27.941,15.473l23.297-19.061
		C295.798,219.439,277.101,209,256,209z"/>
	<path style="fill:#6FC8F1;" d="M256,155.667v30c28.368,0,53.579,13.757,69.326,34.945l23.227-19.004
		C327.283,173.708,293.711,155.667,256,155.667z"/>
</g>
<g>
</g>
<g>
</g>
<g>
</g>
<g>
</g>
<g>
</g>
<g>
</g>
<g>
</g>
<g>
</g>
<g>
</g>
<g>
</g>
<g>
</g>
<g>
</g>
<g>
</g>
<g>
</g>
<g>
</g>
</svg>
