<?xml version="1.0" encoding="iso-8859-1"?>
<!-- Generator: Adobe Illustrator 19.0.0, SVG Export Plug-In . SVG Version: 6.00 Build 0)  -->
<svg version="1.1" id="Capa_1" xmlns="http://www.w3.org/2000/svg" xmlns:xlink="http://www.w3.org/1999/xlink" x="0px" y="0px"
	 viewBox="0 0 512 512" style="enable-background:new 0 0 512 512;" xml:space="preserve">
<rect x="166.47" y="376.01" style="fill:#132F3B;" width="179.05" height="78.57"/>
<rect y="54.33" style="fill:#B7E4F8;" width="512" height="346.39"/>
<rect x="256" y="54.33" style="fill:#6FC8F1;" width="256" height="346.39"/>
<rect y="355.67" style="fill:#4BBAED;" width="512" height="45.05"/>
<rect x="256" y="355.67" style="fill:#388CB2;" width="256" height="45.05"/>
<rect x="138.79" y="427.67" style="fill:#265D77;" width="234.42" height="30"/>
<path style="fill:#132F3B;" d="M277.9,299.836l-21.901,9.221l-21.901-9.221c-37.391-15.744-61.705-52.363-61.705-92.933v-65.058
	l83.606-26.402l83.606,26.402v65.058C339.606,247.473,315.291,284.092,277.9,299.836z"/>
<path style="fill:#FF4F19;" d="M255.999,99.713l-98.606,31.139v76.051c0,46.722,27.823,88.626,70.884,106.758L256,325.333
	l27.723-11.672c43.061-18.131,70.884-60.036,70.884-106.758v-76.051L255.999,99.713z M324.606,197.251H271v-61.34l53.606,16.928
	V197.251z M240.999,135.91v61.34h-53.606v-44.412L240.999,135.91z M189.835,227.251h51.164v59.216l-1.08-0.455
	C214.432,275.28,196.162,253.303,189.835,227.251z M272.08,286.011l-1.08,0.455V227.25h51.164
	C315.837,253.303,297.567,275.28,272.08,286.011z"/>
<path style="fill:#BF3B13;" d="M255.999,99.713v225.62l27.723-11.672c43.061-18.131,70.884-60.036,70.884-106.758v-76.051
	L255.999,99.713z M272.08,286.011l-1.08,0.455V227.25h51.164C315.837,253.303,297.567,275.28,272.08,286.011z M324.606,197.251H271
	v-61.34l53.606,16.928V197.251z"/>
<g>
</g>
<g>
</g>
<g>
</g>
<g>
</g>
<g>
</g>
<g>
</g>
<g>
</g>
<g>
</g>
<g>
</g>
<g>
</g>
<g>
</g>
<g>
</g>
<g>
</g>
<g>
</g>
<g>
</g>
</svg>
