<?xml version="1.0" encoding="iso-8859-1"?>
<!-- Generator: Adobe Illustrator 19.0.0, SVG Export Plug-In . SVG Version: 6.00 Build 0)  -->
<svg version="1.1" id="Capa_1" xmlns="http://www.w3.org/2000/svg" xmlns:xlink="http://www.w3.org/1999/xlink" x="0px" y="0px"
	 viewBox="0 0 512.001 512.001" style="enable-background:new 0 0 512.001 512.001;" xml:space="preserve">
<polygon style="fill:#FF4F19;" points="271.001,396.712 271.001,266.378 241.001,266.378 241.001,396.712 192.001,396.712 
	192.001,426.712 320.001,426.712 320.001,396.712 "/>
<polygon style="fill:#BF3B13;" points="271.001,396.712 271.001,266.378 256.001,266.378 256.001,426.712 320.001,426.712 
	320.001,396.712 "/>
<path style="fill:#00623D;" d="M99.688,512c-48.012,0-99.687-13.743-99.687-43.917v-84.049h199.375v84.049
	C199.376,498.257,147.701,512,99.688,512z"/>
<path style="fill:#183713;" d="M99.688,384.035h99.687v84.049c0,30.174-51.675,43.917-99.687,43.917"/>
<path style="fill:#00935C;" d="M99.688,446.232c-48.012,0-99.687-13.743-99.687-43.916v-58.627h199.375v58.627
	C199.376,432.489,147.701,446.232,99.688,446.232z"/>
<path style="fill:#00784B;" d="M99.688,343.689h99.687v58.627c0,30.174-51.675,43.917-99.687,43.917"/>
<path style="fill:#60DD4D;" d="M99.688,299.772c-48.012,0-99.687,13.743-99.687,43.917c0,30.174,51.675,43.917,99.687,43.917
	s99.687-13.743,99.687-43.917C199.376,313.515,147.701,299.772,99.688,299.772z"/>
<path style="fill:#56C745;" d="M99.688,387.605c48.013,0,99.687-13.743,99.687-43.917c0-30.174-51.675-43.917-99.687-43.917"/>
<path style="fill:#00623D;" d="M412.314,512c-48.013,0-99.687-13.743-99.687-43.917v-84.049H512v84.049
	C512,498.257,460.326,512,412.314,512z"/>
<path style="fill:#183713;" d="M412.314,384.035H512v84.049C512,498.257,460.326,512,412.314,512"/>
<path style="fill:#00935C;" d="M412.314,446.232c-48.013,0-99.687-13.743-99.687-43.917v-58.627H512v58.627
	C512,432.489,460.326,446.232,412.314,446.232z"/>
<path style="fill:#00784B;" d="M412.314,343.689H512v58.627c0,30.174-51.675,43.917-99.687,43.917"/>
<path style="fill:#60DD4D;" d="M412.314,299.772c-48.013,0-99.687,13.743-99.687,43.917c0,30.174,51.675,43.917,99.687,43.917
	S512,373.862,512,343.689C512,313.515,460.326,299.772,412.314,299.772z"/>
<path style="fill:#56C745;" d="M412.314,387.605c48.012,0,99.687-13.743,99.687-43.917c0-30.174-51.675-43.917-99.687-43.917"/>
<path style="fill:#B7E4F8;" d="M378.048,273.933H133.955c-41.919,0-76.023-34.104-76.023-76.023
	c0-37.02,26.597-67.944,61.686-74.667c3.162-32.359,17.558-62.174,41.329-85.08C186.485,13.553,220.243,0,256.001,0
	s69.516,13.553,95.055,38.162c23.772,22.906,38.168,52.721,41.33,85.081c35.089,6.723,61.685,37.648,61.685,74.667
	C454.07,239.829,419.967,273.933,378.048,273.933z"/>
<path style="fill:#6FC8F1;" d="M392.385,123.243c-3.162-32.359-17.558-62.174-41.33-85.081C325.516,13.553,291.759,0,256.001,0
	v273.933h122.046c41.919,0,76.023-34.104,76.023-76.023C454.07,160.89,427.474,129.966,392.385,123.243z"/>
<path style="fill:#838286;" d="M303.001,149.283c0-3.177-0.321-6.28-0.925-9.282l15.421-8.903l-15-25.981l-15.452,8.921
	c-4.632-4.085-10.07-7.269-16.044-9.287V86.934h-30v17.818c-5.975,2.018-11.413,5.202-16.045,9.287l-15.452-8.921l-15,25.981
	l15.421,8.903c-0.604,3.001-0.925,6.104-0.925,9.281s0.321,6.28,0.925,9.282l-15.421,8.903l15,25.98l15.452-8.921
	c4.632,4.085,10.07,7.269,16.045,9.287v17.819h30v-17.819c5.974-2.018,11.413-5.202,16.044-9.287l15.452,8.921l15-25.98
	l-15.421-8.903C302.681,155.563,303.001,152.46,303.001,149.283z M256.001,166.283c-9.374,0-17.001-7.626-17.001-17
	s7.627-17,17.001-17c9.374,0,17,7.626,17,17S265.375,166.283,256.001,166.283z"/>
<path style="fill:#57575A;" d="M303.001,149.283c0-3.177-0.321-6.28-0.925-9.282l15.421-8.903l-15-25.981l-15.452,8.921
	c-4.632-4.085-10.07-7.269-16.044-9.287V86.934h-15v45.35l0,0c9.374,0,17,7.626,17,17s-7.626,17-17,17l0,0v45.35h15v-17.819
	c5.974-2.018,11.413-5.202,16.044-9.287l15.452,8.921l15-25.98l-15.421-8.903C302.681,155.563,303.001,152.46,303.001,149.283z"/>
<g>
</g>
<g>
</g>
<g>
</g>
<g>
</g>
<g>
</g>
<g>
</g>
<g>
</g>
<g>
</g>
<g>
</g>
<g>
</g>
<g>
</g>
<g>
</g>
<g>
</g>
<g>
</g>
<g>
</g>
</svg>
