<?xml version="1.0" encoding="iso-8859-1"?>
<!-- Generator: Adobe Illustrator 19.0.0, SVG Export Plug-In . SVG Version: 6.00 Build 0)  -->
<svg version="1.1" id="Capa_1" xmlns="http://www.w3.org/2000/svg" xmlns:xlink="http://www.w3.org/1999/xlink" x="0px" y="0px"
	 viewBox="0 0 512 512" style="enable-background:new 0 0 512 512;" xml:space="preserve">
<polygon style="fill:#FF4F19;" points="190.846,375.573 145.651,420.767 100.456,375.573 121.669,354.359 130.651,363.341 
	130.651,196.768 160.651,196.768 160.651,363.341 169.633,354.359 "/>
<polygon style="fill:#BF3B13;" points="145.651,420.767 145.651,196.768 160.651,196.768 160.651,363.341 169.633,354.359 
	190.846,375.573 "/>
<path style="fill:#93D6F4;" d="M234.73,238.325H57.272C25.692,238.325,0,212.632,0,181.053c0-27.372,19.302-50.321,45.01-55.951
	c2.63-23.431,13.227-44.989,30.496-61.629c18.942-18.253,43.978-28.305,70.495-28.305s51.553,10.052,70.495,28.305
	c17.269,16.64,27.866,38.198,30.496,61.63c25.708,5.63,45.01,28.578,45.01,55.951C292.002,212.632,266.31,238.325,234.73,238.325z"
	/>
<path style="fill:#6FC8F1;" d="M246.992,125.101c-2.63-23.431-13.227-44.989-30.496-61.63
	c-18.942-18.253-43.978-28.305-70.495-28.305v203.157h88.729c31.58,0,57.272-25.692,57.272-57.272
	C292.002,153.68,272.7,130.732,246.992,125.101z"/>
<path style="fill:#B7E4F8;" d="M435.977,329.22H191.884c-41.919,0-76.023-34.104-76.023-76.023c0-37.02,26.597-67.944,61.686-74.667
	c3.162-32.359,17.558-62.174,41.329-85.08c25.539-24.61,59.297-38.163,95.054-38.163c35.758,0,69.516,13.553,95.055,38.162
	c23.772,22.906,38.168,52.721,41.329,85.08C485.403,185.255,512,216.178,512,253.198C512,295.117,477.897,329.22,435.977,329.22z"/>
<path style="fill:#6FC8F1;" d="M450.314,178.531c-3.162-32.359-17.558-62.174-41.329-85.08
	c-25.539-24.609-59.297-38.162-95.054-38.162V329.22h122.046c41.92,0,76.023-34.104,76.023-76.023
	C512,216.178,485.403,185.255,450.314,178.531z"/>
<polygon style="fill:#FF4F19;" points="359.125,220.894 313.93,175.699 268.736,220.894 289.949,242.107 298.93,233.126 
	298.93,476.833 328.93,476.833 328.93,233.126 337.912,242.107 "/>
<polygon style="fill:#BF3B13;" points="313.93,175.699 313.93,476.833 328.93,476.833 328.93,233.126 337.912,242.107 
	359.125,220.894 "/>
<g>
</g>
<g>
</g>
<g>
</g>
<g>
</g>
<g>
</g>
<g>
</g>
<g>
</g>
<g>
</g>
<g>
</g>
<g>
</g>
<g>
</g>
<g>
</g>
<g>
</g>
<g>
</g>
<g>
</g>
</svg>
