<?xml version="1.0" encoding="iso-8859-1"?>
<!-- Generator: Adobe Illustrator 19.0.0, SVG Export Plug-In . SVG Version: 6.00 Build 0)  -->
<svg version="1.1" id="Capa_1" xmlns="http://www.w3.org/2000/svg" xmlns:xlink="http://www.w3.org/1999/xlink" x="0px" y="0px"
	 viewBox="0 0 512 512" style="enable-background:new 0 0 512 512;" xml:space="preserve">
<rect x="241" y="309.33" style="fill:#FF4F19;" width="30" height="64"/>
<path style="fill:#CECED1;" d="M452.333,512H59.667V354h392.667L452.333,512L452.333,512z"/>
<path style="fill:#AEADB3;" d="M452.333,512H256V354h196.334L452.333,512L452.333,512z"/>
<path style="fill:#838286;" d="M452.333,475.667H59.667v-85.333h392.667L452.333,475.667L452.333,475.667z"/>
<path style="fill:#57575A;" d="M452.333,475.667H256v-85.333h196.334L452.333,475.667L452.333,475.667z"/>
<rect x="151.33" y="418" style="fill:#FFDB2D;" width="30" height="30"/>
<rect x="330.67" y="418" style="fill:#56C745;" width="30" height="30"/>
<rect x="271.329" y="418" style="fill:#6FC8F1;" width="30" height="30"/>
<path style="fill:#BEBDC2;" d="M364.295,269.772H147.704V0H318.52l45.776,45.775L364.295,269.772L364.295,269.772z"/>
<polygon style="fill:#838286;" points="318.52,0 256,0 256,269.772 364.295,269.772 364.295,45.775 "/>
<polygon style="fill:#BEBDC2;" points="318.52,0 318.52,45.696 364.295,45.775 "/>
<rect x="213.22" y="115.75" style="fill:#B7E4F8;" width="85.56" height="26.448"/>
<rect x="256" y="115.75" style="fill:#6FC8F1;" width="42.782" height="26.448"/>
<rect x="213.22" y="68.21" style="fill:#B7E4F8;" width="85.56" height="26.448"/>
<rect x="256" y="68.21" style="fill:#6FC8F1;" width="42.782" height="26.448"/>
<path style="fill:#FFDB2D;" d="M395,324.411H117V133.153h155.208l17.349-17.348H395V324.411z"/>
<polygon style="fill:#FFB300;" points="289.557,115.805 272.208,133.153 256,133.153 256,324.411 395,324.411 395,115.805 "/>
<g>
</g>
<g>
</g>
<g>
</g>
<g>
</g>
<g>
</g>
<g>
</g>
<g>
</g>
<g>
</g>
<g>
</g>
<g>
</g>
<g>
</g>
<g>
</g>
<g>
</g>
<g>
</g>
<g>
</g>
</svg>
