<?xml version="1.0" encoding="iso-8859-1"?>
<!-- Generator: Adobe Illustrator 19.0.0, SVG Export Plug-In . SVG Version: 6.00 Build 0)  -->
<svg version="1.1" id="Capa_1" xmlns="http://www.w3.org/2000/svg" xmlns:xlink="http://www.w3.org/1999/xlink" x="0px" y="0px"
	 viewBox="0 0 512.001 512.001" style="enable-background:new 0 0 512.001 512.001;" xml:space="preserve">
<path style="fill:#BEBDC2;" d="M378.839,339.701H133.161v-306h193.755l51.923,51.922L378.839,339.701L378.839,339.701z"/>
<polygon style="fill:#838286;" points="326.916,33.7 256,33.7 256,339.701 378.839,339.701 378.839,85.622 "/>
<polygon style="fill:#BEBDC2;" points="326.916,33.7 326.916,85.534 378.839,85.622 "/>
<rect x="207.47" y="165.05" style="fill:#B7E4F8;" width="97.06" height="30"/>
<rect x="256" y="165.05" style="fill:#6FC8F1;" width="48.53" height="30"/>
<rect x="207.47" y="111.13" style="fill:#B7E4F8;" width="97.06" height="30"/>
<rect x="256" y="111.13" style="fill:#6FC8F1;" width="48.53" height="30"/>
<path style="fill:#FFDB2D;" d="M413.667,401.677H98.334V184.735h176.051l19.679-19.678h119.603L413.667,401.677L413.667,401.677z"/>
<polygon style="fill:#FFB300;" points="294.064,165.057 274.385,184.735 256,184.735 256,401.677 413.667,401.677 413.667,165.057 
	"/>
<path style="fill:#B7E4F8;" d="M454.728,478.3H277.271c-31.58,0-57.272-25.692-57.272-57.272c0-27.372,19.302-50.321,45.01-55.951
	c2.63-23.431,13.227-44.989,30.496-61.629c18.942-18.253,43.978-28.305,70.495-28.305s51.553,10.052,70.495,28.305
	c17.269,16.64,27.866,38.198,30.496,61.629c25.708,5.63,45.01,28.578,45.01,55.951C512,452.608,486.308,478.3,454.728,478.3z"/>
<path style="fill:#6FC8F1;" d="M466.99,365.077c-2.63-23.431-13.227-44.989-30.496-61.629
	c-18.942-18.253-43.978-28.305-70.495-28.305V478.3h88.729c31.58,0,57.272-25.692,57.272-57.272
	C512,393.655,492.698,370.707,466.99,365.077z"/>
<path style="fill:#B7E4F8;" d="M234.73,478.3H57.272C25.692,478.3,0,452.608,0,421.029c0-27.372,19.302-50.321,45.01-55.951
	c2.63-23.431,13.227-44.989,30.496-61.629c18.942-18.253,43.978-28.305,70.495-28.305s51.553,10.052,70.495,28.305
	c17.269,16.64,27.866,38.198,30.496,61.629c25.708,5.63,45.01,28.578,45.01,55.951C292.002,452.608,266.31,478.3,234.73,478.3z"/>
<path style="fill:#6FC8F1;" d="M246.992,365.077c-2.63-23.431-13.228-44.989-30.496-61.629
	c-18.942-18.253-43.978-28.305-70.495-28.305V478.3h88.729c31.58,0,57.272-25.692,57.272-57.272
	C292.002,393.655,272.7,370.707,246.992,365.077z"/>
<g>
</g>
<g>
</g>
<g>
</g>
<g>
</g>
<g>
</g>
<g>
</g>
<g>
</g>
<g>
</g>
<g>
</g>
<g>
</g>
<g>
</g>
<g>
</g>
<g>
</g>
<g>
</g>
<g>
</g>
</svg>
