<?xml version="1.0" encoding="iso-8859-1"?>
<!-- Generator: Adobe Illustrator 19.0.0, SVG Export Plug-In . SVG Version: 6.00 Build 0)  -->
<svg version="1.1" id="Capa_1" xmlns="http://www.w3.org/2000/svg" xmlns:xlink="http://www.w3.org/1999/xlink" x="0px" y="0px"
	 viewBox="0 0 512 512" style="enable-background:new 0 0 512 512;" xml:space="preserve">
<path style="fill:#B7E4F8;" d="M359.111,236.087H152.889c-36.699,0-66.555-29.857-66.555-66.555
	c0-31.809,22.431-58.478,52.305-65.02c3.057-27.229,15.371-52.281,35.439-71.619C196.091,11.682,225.185,0,256,0
	s59.909,11.682,81.921,32.893c20.068,19.338,32.383,44.39,35.44,71.619c29.875,6.542,52.305,33.211,52.305,65.02
	C425.667,206.231,395.81,236.087,359.111,236.087z"/>
<path style="fill:#6FC8F1;" d="M373.361,104.512c-3.057-27.229-15.372-52.282-35.44-71.619C315.909,11.682,286.815,0,256,0v236.087
	h103.111c36.699,0,66.555-29.857,66.555-66.556C425.667,137.723,403.236,111.054,373.361,104.512z"/>
<path style="fill:#265D77;" d="M399,467.333H113V263h286V467.333z"/>
<path style="fill:#132F3B;" d="M399,467.333H256V263h143V467.333z"/>
<path style="fill:#B7E4F8;" d="M420.333,512H91.667v-51.333h328.667L420.333,512L420.333,512z"/>
<path style="fill:#6FC8F1;" d="M420.333,512H256v-51.333h164.333V512z"/>
<g>
	<rect x="181" y="362.67" style="fill:#B7E4F8;" width="30" height="30"/>
	<rect x="241" y="362.67" style="fill:#B7E4F8;" width="30" height="30"/>
</g>
<g>
	<rect x="256" y="362.67" style="fill:#6FC8F1;" width="15" height="30"/>
	<rect x="301" y="362.67" style="fill:#6FC8F1;" width="30" height="30"/>
</g>
<polygon style="fill:#FF4F19;" points="301.195,162.648 256,117.454 210.805,162.648 232.018,183.862 241,174.88 241,309.333 
	271,309.333 271,174.88 279.982,183.862 "/>
<polygon style="fill:#BF3B13;" points="256,117.454 256,309.333 271,309.333 271,174.88 279.982,183.862 301.195,162.648 "/>
<g>
</g>
<g>
</g>
<g>
</g>
<g>
</g>
<g>
</g>
<g>
</g>
<g>
</g>
<g>
</g>
<g>
</g>
<g>
</g>
<g>
</g>
<g>
</g>
<g>
</g>
<g>
</g>
<g>
</g>
</svg>
