<?xml version="1.0" encoding="iso-8859-1"?>
<!-- Generator: Adobe Illustrator 19.0.0, SVG Export Plug-In . SVG Version: 6.00 Build 0)  -->
<svg version="1.1" id="Capa_1" xmlns="http://www.w3.org/2000/svg" xmlns:xlink="http://www.w3.org/1999/xlink" x="0px" y="0px"
	 viewBox="0 0 512 512" style="enable-background:new 0 0 512 512;" xml:space="preserve">
<rect x="241" y="112" style="fill:#FF4F19;" width="30" height="288"/>
<path style="fill:#B7E4F8;" d="M344.729,357.579H167.271c-31.58,0-57.272-25.692-57.272-57.272c0-27.372,19.302-50.321,45.01-55.951
	c2.63-23.431,13.227-44.989,30.496-61.629c18.942-18.253,43.978-28.305,70.495-28.305s51.553,10.052,70.495,28.305
	c17.269,16.64,27.866,38.198,30.496,61.629c25.708,5.63,45.01,28.578,45.01,55.951C402.001,331.886,376.309,357.579,344.729,357.579
	z"/>
<path style="fill:#6FC8F1;" d="M356.991,244.356c-2.63-23.431-13.228-44.989-30.496-61.629
	c-18.942-18.253-43.978-28.305-70.495-28.305v203.157h88.729c31.58,0,57.272-25.692,57.272-57.272
	C402.001,272.934,382.699,249.985,356.991,244.356z"/>
<path style="fill:#CECED1;" d="M452.333,132.333H59.667V0h392.667L452.333,132.333L452.333,132.333z"/>
<path style="fill:#AEADB3;" d="M452.333,132.333H256V0h196.334L452.333,132.333L452.333,132.333z"/>
<path style="fill:#838286;" d="M452.333,101.902H59.667V30.431h392.667L452.333,101.902L452.333,101.902z"/>
<path style="fill:#57575A;" d="M452.333,101.902H256V30.431h196.334L452.333,101.902L452.333,101.902z"/>
<rect x="151.33" y="51.17" style="fill:#FFDB2D;" width="30" height="30"/>
<rect x="330.67" y="51.17" style="fill:#56C745;" width="30" height="30"/>
<rect x="271.329" y="51.17" style="fill:#6FC8F1;" width="30" height="30"/>
<path style="fill:#CECED1;" d="M452.333,512H59.667V379.667h392.667L452.333,512L452.333,512z"/>
<path style="fill:#AEADB3;" d="M452.333,512H256V379.667h196.334L452.333,512L452.333,512z"/>
<path style="fill:#838286;" d="M452.333,481.569H59.667v-71.471h392.667L452.333,481.569L452.333,481.569z"/>
<path style="fill:#57575A;" d="M452.333,481.569H256v-71.471h196.334L452.333,481.569L452.333,481.569z"/>
<rect x="151.33" y="430.83" style="fill:#FFDB2D;" width="30" height="30"/>
<rect x="330.67" y="430.83" style="fill:#56C745;" width="30" height="30"/>
<rect x="271.329" y="430.83" style="fill:#6FC8F1;" width="30" height="30"/>
<g>
</g>
<g>
</g>
<g>
</g>
<g>
</g>
<g>
</g>
<g>
</g>
<g>
</g>
<g>
</g>
<g>
</g>
<g>
</g>
<g>
</g>
<g>
</g>
<g>
</g>
<g>
</g>
<g>
</g>
</svg>
