<?xml version="1.0" encoding="iso-8859-1"?>
<!-- Generator: Adobe Illustrator 19.0.0, SVG Export Plug-In . SVG Version: 6.00 Build 0)  -->
<svg version="1.1" id="Capa_1" xmlns="http://www.w3.org/2000/svg" xmlns:xlink="http://www.w3.org/1999/xlink" x="0px" y="0px"
	 viewBox="0 0 512 512" style="enable-background:new 0 0 512 512;" xml:space="preserve">
<polygon style="fill:#FF4F19;" points="289.459,138.656 289.444,168.656 426.293,168.726 426.23,341.318 456.23,341.333 
	456.308,138.741 "/>
<rect x="347.599" y="232.663" transform="matrix(-3.800000e-004 1 -1 -3.800000e-004 689.1009 -208.7666)" style="fill:#BF3B13;" width="202.59" height="14.746"/>
<rect x="163.171" y="178.42" style="fill:#FF4F19;" width="30" height="107.91"/>
<rect x="178.171" y="178.42" style="fill:#BF3B13;" width="15" height="107.91"/>
<path style="fill:#B7E4F8;" d="M323.912,203.157H146.454c-31.58,0-57.272-25.692-57.272-57.272c0-27.372,19.302-50.321,45.01-55.951
	c2.63-23.431,13.227-44.989,30.496-61.629C183.631,10.052,208.665,0,235.183,0s51.553,10.052,70.495,28.305
	c17.269,16.64,27.866,38.198,30.496,61.63c25.707,5.629,45.01,28.578,45.01,55.951C381.184,177.465,355.492,203.157,323.912,203.157
	z"/>
<path style="fill:#6FC8F1;" d="M336.175,89.934c-2.63-23.431-13.228-44.989-30.496-61.63C286.736,10.052,261.7,0,235.183,0v203.157
	h88.729c31.58,0,57.272-25.692,57.272-57.272C381.185,118.513,361.882,95.564,336.175,89.934z"/>
<path style="fill:#B7E4F8;" d="M498.167,512h-115.35v-36.294h115.35V512z"/>
<path style="fill:#265D77;" d="M498.167,482.282h-115.35v-148.59h115.35V482.282z"/>
<path style="fill:#132F3B;" d="M498.167,482.282h-57.675v-148.59h57.675V482.282z"/>
<path style="fill:#6FC8F1;" d="M498.167,512h-57.675v-29.718h57.675V512z"/>
<path style="fill:#265D77;" d="M321.168,467.333h-286V263h286V467.333z"/>
<path style="fill:#132F3B;" d="M321.168,467.333h-143V263h143V467.333z"/>
<path style="fill:#B7E4F8;" d="M342.501,512H13.834v-51.333h328.667V512z"/>
<path style="fill:#6FC8F1;" d="M342.501,512H178.168v-51.333h164.333V512z"/>
<g>
	<rect x="103.171" y="362.67" style="fill:#B7E4F8;" width="30" height="30"/>
	<rect x="163.171" y="362.67" style="fill:#B7E4F8;" width="30" height="30"/>
</g>
<g>
	<rect x="178.171" y="362.67" style="fill:#6FC8F1;" width="15" height="30"/>
	<rect x="223.171" y="362.67" style="fill:#6FC8F1;" width="30" height="30"/>
</g>
<g>
</g>
<g>
</g>
<g>
</g>
<g>
</g>
<g>
</g>
<g>
</g>
<g>
</g>
<g>
</g>
<g>
</g>
<g>
</g>
<g>
</g>
<g>
</g>
<g>
</g>
<g>
</g>
<g>
</g>
</svg>
