<?xml version="1.0" encoding="iso-8859-1"?>
<!-- Generator: Adobe Illustrator 19.0.0, SVG Export Plug-In . SVG Version: 6.00 Build 0)  -->
<svg version="1.1" id="Capa_1" xmlns="http://www.w3.org/2000/svg" xmlns:xlink="http://www.w3.org/1999/xlink" x="0px" y="0px"
	 viewBox="0 0 512 512" style="enable-background:new 0 0 512 512;" xml:space="preserve">
<rect x="177.23" y="416.05" style="fill:#132F3B;" width="157.54" height="78.57"/>
<rect x="35.17" y="148.84" style="fill:#4BBAED;" width="441.67" height="299.93"/>
<g>
	<rect x="256" y="148.84" style="fill:#388CB2;" width="220.83" height="299.93"/>
	<rect x="35.17" y="412.37" style="fill:#388CB2;" width="441.67" height="36.404"/>
</g>
<rect x="155.79" y="467.7" style="fill:#265D77;" width="200.42" height="30"/>
<path style="fill:#B7E4F8;" d="M344.729,217.456H167.271c-31.58,0-57.272-25.692-57.272-57.272c0-27.372,19.302-50.321,45.01-55.951
	c2.63-23.431,13.227-44.989,30.496-61.629C204.447,24.351,229.483,14.298,256,14.298s51.553,10.052,70.495,28.305
	c17.269,16.64,27.866,38.198,30.496,61.629c25.707,5.63,45.01,28.578,45.01,55.951C402.001,191.763,376.308,217.456,344.729,217.456
	z"/>
<path style="fill:#6FC8F1;" d="M356.991,104.233c-2.63-23.431-13.228-44.989-30.496-61.629
	C307.552,24.351,282.517,14.298,256,14.298v203.157h88.729c31.58,0,57.272-25.692,57.272-57.272
	C402.001,132.811,382.698,109.862,356.991,104.233z"/>
<path style="fill:#265D77;" d="M494.21,453.582H255.707v-170.88H494.21V453.582z"/>
<path style="fill:#132F3B;" d="M494.21,453.582H374.958v-170.88H494.21V453.582z"/>
<path style="fill:#B7E4F8;" d="M512,497.702H237.917v-50.704H512V497.702z"/>
<path style="fill:#6FC8F1;" d="M512,497.702H374.958v-50.704H512V497.702z"/>
<path style="fill:#B7E4F8;" d="M115.35,497.702H0v-36.294h115.35V497.702z"/>
<path style="fill:#265D77;" d="M115.35,467.984H0v-148.59h115.35V467.984z"/>
<path style="fill:#132F3B;" d="M115.35,467.984H57.675v-148.59h57.675V467.984z"/>
<path style="fill:#6FC8F1;" d="M115.35,497.702H57.675v-29.718h57.675V497.702z"/>
<g>
</g>
<g>
</g>
<g>
</g>
<g>
</g>
<g>
</g>
<g>
</g>
<g>
</g>
<g>
</g>
<g>
</g>
<g>
</g>
<g>
</g>
<g>
</g>
<g>
</g>
<g>
</g>
<g>
</g>
</svg>
