<?xml version="1.0" encoding="iso-8859-1"?>
<!-- Generator: Adobe Illustrator 19.0.0, SVG Export Plug-In . SVG Version: 6.00 Build 0)  -->
<svg version="1.1" id="Capa_1" xmlns="http://www.w3.org/2000/svg" xmlns:xlink="http://www.w3.org/1999/xlink" x="0px" y="0px"
	 viewBox="0 0 512 512" style="enable-background:new 0 0 512 512;" xml:space="preserve">
<path style="fill:#BEBDC2;" d="M378.839,512H133.16V206h193.755l51.923,51.922V512L378.839,512z"/>
<polygon style="fill:#838286;" points="326.915,206 255.999,206 255.999,512 378.839,512 378.839,257.922 "/>
<polygon style="fill:#BEBDC2;" points="326.915,206 326.915,257.833 378.839,257.922 "/>
<rect x="207.469" y="389.33" style="fill:#B7E4F8;" width="97.06" height="30"/>
<rect x="255.999" y="389.33" style="fill:#6FC8F1;" width="48.53" height="30"/>
<rect x="207.469" y="335.41" style="fill:#B7E4F8;" width="97.06" height="30"/>
<rect x="255.999" y="335.41" style="fill:#6FC8F1;" width="48.53" height="30"/>
<path style="fill:#B7E4F8;" d="M359.11,236.087H152.889c-36.699,0-66.556-29.857-66.556-66.556c0-31.809,22.431-58.478,52.306-65.02
	c3.056-27.229,15.371-52.281,35.439-71.619C196.09,11.682,225.184,0,255.999,0s59.909,11.682,81.922,32.893
	c20.068,19.337,32.383,44.39,35.44,71.619c29.874,6.542,52.306,33.211,52.306,65.02C425.667,206.23,395.81,236.087,359.11,236.087z"
	/>
<path style="fill:#6FC8F1;" d="M373.36,104.512c-3.056-27.229-15.372-52.282-35.44-71.619C315.909,11.682,286.815,0,255.999,0
	v236.087H359.11c36.699,0,66.556-29.857,66.556-66.556C425.667,137.723,403.235,111.054,373.36,104.512z"/>
<polygon style="fill:#FF4F19;" points="301.195,151.981 255.999,106.787 210.804,151.981 232.018,173.195 240.999,164.213 
	240.999,298.667 271,298.667 271,164.213 279.982,173.195 "/>
<polygon style="fill:#BF3B13;" points="255.999,106.787 255.999,298.667 271,298.667 271,164.213 279.982,173.195 301.195,151.981 
	"/>
<g>
</g>
<g>
</g>
<g>
</g>
<g>
</g>
<g>
</g>
<g>
</g>
<g>
</g>
<g>
</g>
<g>
</g>
<g>
</g>
<g>
</g>
<g>
</g>
<g>
</g>
<g>
</g>
<g>
</g>
</svg>
