<?xml version="1.0" encoding="iso-8859-1"?>
<!-- Generator: Adobe Illustrator 19.0.0, SVG Export Plug-In . SVG Version: 6.00 Build 0)  -->
<svg version="1.1" id="Capa_1" xmlns="http://www.w3.org/2000/svg" xmlns:xlink="http://www.w3.org/1999/xlink" x="0px" y="0px"
	 viewBox="0 0 512 512" style="enable-background:new 0 0 512 512;" xml:space="preserve">
<path style="fill:#265D77;" d="M403.492,465.93H108.508V255.179h294.984V465.93z"/>
<path style="fill:#132F3B;" d="M403.492,465.93H256V255.179h147.492V465.93z"/>
<path style="fill:#B7E4F8;" d="M425.495,512H86.505v-52.946h338.99V512z"/>
<path style="fill:#6FC8F1;" d="M425.495,512H256v-52.946h169.495V512z"/>
<polygon style="fill:#FF4F19;" points="301.195,349.352 256,394.546 210.805,349.352 232.018,328.138 241,337.12 241,202.667 
	271,202.667 271,337.12 279.982,328.138 "/>
<polygon style="fill:#BF3B13;" points="256,394.546 256,202.667 271,202.667 271,337.12 279.982,328.138 301.195,349.352 "/>
<path style="fill:#FFDB2D;" d="M405.944,225.436H106.055V18.613h166.997L291.666,0h114.278L405.944,225.436L405.944,225.436z"/>
<polygon style="fill:#FFB300;" points="291.666,0 273.053,18.613 256,18.613 256,225.436 405.944,225.436 405.944,0 "/>
<g>
	<rect x="181" y="106.67" style="fill:#FFFFFF;" width="30" height="30"/>
	<rect x="241" y="106.67" style="fill:#FFFFFF;" width="30" height="30"/>
</g>
<g>
	<rect x="256" y="106.67" style="fill:#FFE257;" width="15" height="30"/>
	<rect x="301" y="106.67" style="fill:#FFE257;" width="30" height="30"/>
</g>
<g>
</g>
<g>
</g>
<g>
</g>
<g>
</g>
<g>
</g>
<g>
</g>
<g>
</g>
<g>
</g>
<g>
</g>
<g>
</g>
<g>
</g>
<g>
</g>
<g>
</g>
<g>
</g>
<g>
</g>
</svg>
