<?xml version="1.0" encoding="iso-8859-1"?>
<!-- Generator: Adobe Illustrator 19.0.0, SVG Export Plug-In . SVG Version: 6.00 Build 0)  -->
<svg version="1.1" id="Capa_1" xmlns="http://www.w3.org/2000/svg" xmlns:xlink="http://www.w3.org/1999/xlink" x="0px" y="0px"
	 viewBox="0 0 512 512" style="enable-background:new 0 0 512 512;" xml:space="preserve">
<path style="fill:#B7E4F8;" d="M374.089,512H137.911v-80.087h236.178V512z"/>
<path style="fill:#265D77;" d="M374.089,446.423H137.911V118.541h236.178V446.423z"/>
<path style="fill:#132F3B;" d="M374.089,446.423H256V118.541h118.089V446.423z"/>
<path style="fill:#6FC8F1;" d="M374.089,512H256v-65.577h118.089V512z"/>
<g>
	<rect x="181" y="354" style="fill:#B7E4F8;" width="30" height="30"/>
	<rect x="241" y="354" style="fill:#B7E4F8;" width="30" height="30"/>
</g>
<g>
	<rect x="256" y="354" style="fill:#6FC8F1;" width="15" height="30"/>
	<rect x="301" y="354" style="fill:#6FC8F1;" width="30" height="30"/>
</g>
<polygon style="fill:#FF4F19;" points="301.195,274.685 256,319.88 210.805,274.685 232.018,253.472 241,262.454 241,134.333 
	271,134.333 271,262.454 279.982,253.472 "/>
<polygon style="fill:#BF3B13;" points="256,319.88 256,134.333 271,134.333 271,262.454 279.982,253.472 301.195,274.685 "/>
<path style="fill:#B7E4F8;" d="M344.729,203.157H167.271c-31.58,0-57.272-25.692-57.272-57.272c0-27.372,19.302-50.321,45.01-55.951
	c2.63-23.431,13.227-44.989,30.496-61.629C204.447,10.052,229.483,0,256,0s51.553,10.052,70.495,28.305
	c17.269,16.64,27.866,38.198,30.496,61.63c25.708,5.629,45.01,28.578,45.01,55.951C402.001,177.465,376.309,203.157,344.729,203.157
	z"/>
<path style="fill:#6FC8F1;" d="M356.991,89.934c-2.63-23.431-13.227-44.989-30.496-61.63C307.553,10.052,282.517,0,256,0v203.157
	h88.729c31.58,0,57.272-25.692,57.272-57.272C402.001,118.513,382.699,95.564,356.991,89.934z"/>
<g>
</g>
<g>
</g>
<g>
</g>
<g>
</g>
<g>
</g>
<g>
</g>
<g>
</g>
<g>
</g>
<g>
</g>
<g>
</g>
<g>
</g>
<g>
</g>
<g>
</g>
<g>
</g>
<g>
</g>
</svg>
