<?xml version="1.0" encoding="iso-8859-1"?>
<!-- Generator: Adobe Illustrator 19.0.0, SVG Export Plug-In . SVG Version: 6.00 Build 0)  -->
<svg version="1.1" id="Capa_1" xmlns="http://www.w3.org/2000/svg" xmlns:xlink="http://www.w3.org/1999/xlink" x="0px" y="0px"
	 viewBox="0 0 512 512" style="enable-background:new 0 0 512 512;" xml:space="preserve">
<polygon style="fill:#FF4F19;" points="415.941,507.607 461.135,462.412 415.941,417.217 394.727,438.43 403.709,447.412 
	275.589,447.412 275.589,477.412 403.709,477.412 394.727,486.394 "/>
<polygon style="fill:#BF3B13;" points="461.135,462.412 275.589,462.412 275.589,477.412 403.709,477.412 394.727,486.394 
	415.941,507.607 "/>
<polygon style="fill:#FF4F19;" points="96.059,507.607 50.865,462.412 96.059,417.217 117.273,438.43 108.291,447.412 
	236.411,447.412 236.411,477.412 108.291,477.412 117.273,486.394 "/>
<polygon style="fill:#BF3B13;" points="50.865,462.412 236.411,462.412 236.411,477.412 108.291,477.412 117.273,486.394 
	96.059,507.607 "/>
<rect x="241" y="298.67" style="fill:#FF4F19;" width="30" height="85.33"/>
<path style="fill:#FFDB2D;" d="M345.667,512H166.333v-94H209v-49h94v49h42.667V512z"/>
<polygon style="fill:#FFB300;" points="303,418 303,369 256,369 256,512 345.667,512 345.667,418 "/>
<rect x="102.33" y="138.67" width="30" height="53.33"/>
<rect x="102.33" y="143" style="fill:#00935C;" width="307.33" height="53.33"/>
<rect x="256" y="143" style="fill:#00623D;" width="153.67" height="53.33"/>
<path style="fill:#CECED1;" d="M452.333,335H59.667V177h392.667L452.333,335L452.333,335z"/>
<path style="fill:#AEADB3;" d="M452.333,335H256V177h196.334L452.333,335L452.333,335z"/>
<path style="fill:#838286;" d="M452.333,298.667H59.667v-85.333h392.667L452.333,298.667L452.333,298.667z"/>
<path style="fill:#57575A;" d="M452.333,298.667H256v-85.333h196.334L452.333,298.667L452.333,298.667z"/>
<rect x="151.33" y="241" style="fill:#FFDB2D;" width="30" height="30"/>
<rect x="330.67" y="241" style="fill:#56C745;" width="30" height="30"/>
<rect x="271.33" y="241" style="fill:#6FC8F1;" width="30" height="30"/>
<path style="fill:#CECED1;" d="M452.333,158H59.667V0h392.667L452.333,158L452.333,158z"/>
<path style="fill:#AEADB3;" d="M452.333,158H256V0h196.334L452.333,158L452.333,158z"/>
<path style="fill:#838286;" d="M452.333,121.667H59.667V36.333h392.667L452.333,121.667L452.333,121.667z"/>
<path style="fill:#57575A;" d="M452.333,121.667H256V36.333h196.334L452.333,121.667L452.333,121.667z"/>
<rect x="151.33" y="64" style="fill:#FFDB2D;" width="30" height="30"/>
<rect x="330.67" y="64" style="fill:#56C745;" width="30" height="30"/>
<rect x="271.33" y="64" style="fill:#6FC8F1;" width="30" height="30"/>
<g>
</g>
<g>
</g>
<g>
</g>
<g>
</g>
<g>
</g>
<g>
</g>
<g>
</g>
<g>
</g>
<g>
</g>
<g>
</g>
<g>
</g>
<g>
</g>
<g>
</g>
<g>
</g>
<g>
</g>
</svg>
