<?xml version="1.0" encoding="iso-8859-1"?>
<!-- Generator: Adobe Illustrator 19.0.0, SVG Export Plug-In . SVG Version: 6.00 Build 0)  -->
<svg version="1.1" id="Capa_1" xmlns="http://www.w3.org/2000/svg" xmlns:xlink="http://www.w3.org/1999/xlink" x="0px" y="0px"
	 viewBox="0 0 512 512" style="enable-background:new 0 0 512 512;" xml:space="preserve">
<path style="fill:#00623D;" d="M116.333,475.833C60.304,475.833,0,459.796,0,424.583V326.5h232.667v98.083
	C232.667,459.796,172.363,475.833,116.333,475.833z"/>
<path style="fill:#183713;" d="M116.333,326.5h116.333v98.083c0,35.212-60.304,51.25-116.333,51.25"/>
<path style="fill:#00935C;" d="M116.333,399.083C60.304,399.083,0,383.046,0,347.833v-68.416h232.667v68.416
	C232.667,383.046,172.363,399.083,116.333,399.083z"/>
<path style="fill:#00784B;" d="M116.333,279.417h116.333v68.416c0,35.212-60.304,51.25-116.333,51.25"/>
<path style="fill:#60DD4D;" d="M116.333,228.167C60.304,228.167,0,244.205,0,279.417s60.304,51.25,116.333,51.25
	s116.333-16.038,116.333-51.25S172.363,228.167,116.333,228.167z"/>
<path style="fill:#56C745;" d="M116.333,330.667c56.03,0,116.333-16.038,116.333-51.25s-60.304-51.25-116.333-51.25"/>
<path style="fill:#00623D;" d="M395.667,475.833c-56.03,0-116.333-16.038-116.333-51.25V326.5H512v98.083
	C512,459.796,451.696,475.833,395.667,475.833z"/>
<path style="fill:#183713;" d="M395.667,326.5H512v98.083c0,35.212-60.304,51.25-116.333,51.25"/>
<path style="fill:#00935C;" d="M395.667,399.083c-56.03,0-116.333-16.038-116.333-51.25v-68.416H512v68.416
	C512,383.046,451.696,399.083,395.667,399.083z"/>
<path style="fill:#00784B;" d="M395.667,279.417H512v68.416c0,35.212-60.304,51.25-116.333,51.25"/>
<path style="fill:#60DD4D;" d="M395.667,228.167c-56.03,0-116.333,16.038-116.333,51.25s60.304,51.25,116.333,51.25
	S512,314.629,512,279.417S451.696,228.167,395.667,228.167z"/>
<path style="fill:#56C745;" d="M395.667,330.667c56.03,0,116.333-16.038,116.333-51.25s-60.304-51.25-116.333-51.25"/>
<polygon style="fill:#FF4F19;" points="419.648,133.972 410.667,142.953 410.667,36.167 101.333,36.167 101.333,142.953 
	92.352,133.972 71.139,155.185 116.333,200.38 161.528,155.185 140.315,133.972 131.333,142.954 131.333,66.167 380.667,66.167 
	380.667,142.954 371.685,133.972 350.472,155.185 395.667,200.38 440.861,155.185 "/>
<polygon style="fill:#BF3B13;" points="419.648,133.972 410.667,142.953 410.667,36.167 256,36.167 256,66.167 380.667,66.167 
	380.667,142.954 371.685,133.972 350.472,155.185 395.667,200.38 440.861,155.185 "/>
<g>
</g>
<g>
</g>
<g>
</g>
<g>
</g>
<g>
</g>
<g>
</g>
<g>
</g>
<g>
</g>
<g>
</g>
<g>
</g>
<g>
</g>
<g>
</g>
<g>
</g>
<g>
</g>
<g>
</g>
</svg>
