<?xml version="1.0" encoding="iso-8859-1"?>
<!-- Generator: Adobe Illustrator 19.0.0, SVG Export Plug-In . SVG Version: 6.00 Build 0)  -->
<svg version="1.1" id="Capa_1" xmlns="http://www.w3.org/2000/svg" xmlns:xlink="http://www.w3.org/1999/xlink" x="0px" y="0px"
	 viewBox="0 0 512 512" style="enable-background:new 0 0 512 512;" xml:space="preserve">
<path style="fill:#00623D;" d="M395.667,492.833c-56.03,0-116.333-16.038-116.333-51.25V343.5H512v98.083
	C512,476.795,451.696,492.833,395.667,492.833z"/>
<path style="fill:#183713;" d="M395.667,343.5H512v98.083c0,35.212-60.304,51.25-116.333,51.25"/>
<path style="fill:#00935C;" d="M395.667,416.083c-56.03,0-116.333-16.038-116.333-51.25v-68.416H512v68.416
	C512,400.045,451.696,416.083,395.667,416.083z"/>
<path style="fill:#00784B;" d="M395.667,296.417H512v68.416c0,35.212-60.304,51.25-116.333,51.25"/>
<path style="fill:#60DD4D;" d="M395.667,245.167c-56.03,0-116.333,16.038-116.333,51.25s60.304,51.25,116.333,51.25
	S512,331.629,512,296.417S451.696,245.167,395.667,245.167z"/>
<path style="fill:#56C745;" d="M395.667,347.667c56.03,0,116.333-16.038,116.333-51.25s-60.304-51.25-116.333-51.25"/>
<polygon style="fill:#FF4F19;" points="243.564,136.132 243.564,166.132 380.413,166.132 380.413,290.167 410.413,290.167 
	410.413,136.132 "/>
<rect x="395.67" y="136.13" style="fill:#BF3B13;" width="14.747" height="154.03"/>
<path style="fill:#265D77;" d="M247.488,437.679H17.179v-170.88h230.309V437.679z"/>
<path style="fill:#132F3B;" d="M247.488,437.679H132.333v-170.88h115.155L247.488,437.679L247.488,437.679z"/>
<path style="fill:#B7E4F8;" d="M264.667,481.798H0v-50.704h264.667V481.798z"/>
<path style="fill:#6FC8F1;" d="M264.667,481.798H132.333v-50.704h132.333v50.704H264.667z"/>
<polygon style="fill:#FF4F19;" points="177.783,340.484 132.588,385.678 87.394,340.484 108.606,319.271 117.588,328.252 
	117.588,200.132 147.588,200.132 147.588,328.252 156.57,319.271 "/>
<polygon style="fill:#BF3B13;" points="132.588,385.678 132.588,200.132 147.588,200.132 147.588,328.252 156.57,319.271 
	177.783,340.484 "/>
<path style="fill:#B7E4F8;" d="M301.272,107.884c-2.942-22.907-13.492-43.95-30.438-60.28
	c-19.031-18.338-44.181-28.437-70.818-28.437c-26.636,0-51.786,10.099-70.817,28.438c-16.946,16.329-27.497,37.373-30.438,60.279
	c-25.469,6.346-44.395,29.414-44.395,56.82c0,32.285,26.266,58.55,58.55,58.55h174.202c32.285,0,58.55-26.266,58.55-58.551
	C345.667,137.298,326.741,114.23,301.272,107.884z"/>
<path style="fill:#6FC8F1;" d="M301.272,107.884c-2.942-22.907-13.492-43.95-30.438-60.28
	c-19.031-18.338-44.181-28.437-70.818-28.437v204.087h87.101c32.285,0,58.55-26.266,58.55-58.551
	C345.667,137.298,326.741,114.23,301.272,107.884z"/>
<g>
</g>
<g>
</g>
<g>
</g>
<g>
</g>
<g>
</g>
<g>
</g>
<g>
</g>
<g>
</g>
<g>
</g>
<g>
</g>
<g>
</g>
<g>
</g>
<g>
</g>
<g>
</g>
<g>
</g>
</svg>
