<?xml version="1.0" encoding="iso-8859-1"?>
<!-- Generator: Adobe Illustrator 19.0.0, SVG Export Plug-In . SVG Version: 6.00 Build 0)  -->
<svg version="1.1" id="Capa_1" xmlns="http://www.w3.org/2000/svg" xmlns:xlink="http://www.w3.org/1999/xlink" x="0px" y="0px"
	 viewBox="0 0 512 512" style="enable-background:new 0 0 512 512;" xml:space="preserve">
<polygon style="fill:#FF4F19;" points="415.94,507.607 461.135,462.412 415.94,417.217 394.727,438.43 403.709,447.412 
	275.588,447.412 275.588,477.412 403.709,477.412 394.727,486.394 "/>
<polygon style="fill:#BF3B13;" points="461.135,462.412 275.588,462.412 275.588,477.412 403.709,477.412 394.727,486.394 
	415.94,507.607 "/>
<polygon style="fill:#FF4F19;" points="96.059,507.607 50.865,462.412 96.059,417.217 117.272,438.43 108.291,447.412 
	236.411,447.412 236.411,477.412 108.291,477.412 117.272,486.394 "/>
<polygon style="fill:#BF3B13;" points="50.865,462.412 236.411,462.412 236.411,477.412 108.291,477.412 117.272,486.394 
	96.059,507.607 "/>
<rect x="241" y="298.67" style="fill:#FF4F19;" width="30" height="85.33"/>
<path style="fill:#FFDB2D;" d="M345.667,512H166.333v-94H209v-49h94v49h42.667V512z"/>
<polygon style="fill:#FFB300;" points="303,418 303,369 256,369 256,512 345.667,512 345.667,418 "/>
<polygon style="fill:#265D77;" points="310.777,0 283.67,27.106 44.479,27.106 44.479,314.617 467.521,314.617 467.521,0 "/>
<polygon style="fill:#132F3B;" points="310.777,0 283.67,27.106 256,27.106 256,314.617 467.521,314.617 467.521,0 "/>
<rect x="207.47" y="187.67" style="fill:#B7E4F8;" width="97.06" height="30"/>
<rect x="256" y="187.67" style="fill:#6FC8F1;" width="48.53" height="30"/>
<rect x="207.47" y="133.75" style="fill:#B7E4F8;" width="97.06" height="30"/>
<rect x="256" y="133.75" style="fill:#6FC8F1;" width="48.53" height="30"/>
<g>
</g>
<g>
</g>
<g>
</g>
<g>
</g>
<g>
</g>
<g>
</g>
<g>
</g>
<g>
</g>
<g>
</g>
<g>
</g>
<g>
</g>
<g>
</g>
<g>
</g>
<g>
</g>
<g>
</g>
</svg>
