<?xml version="1.0" encoding="iso-8859-1"?>
<!-- Generator: Adobe Illustrator 19.0.0, SVG Export Plug-In . SVG Version: 6.00 Build 0)  -->
<svg version="1.1" id="Capa_1" xmlns="http://www.w3.org/2000/svg" xmlns:xlink="http://www.w3.org/1999/xlink" x="0px" y="0px"
	 viewBox="0 0 512 512" style="enable-background:new 0 0 512 512;" xml:space="preserve">
<path style="fill:#00623D;" d="M256,512c-56.03,0-116.333-16.038-116.333-51.25v-98.083h232.667v98.083
	C372.333,495.962,312.03,512,256,512z"/>
<path style="fill:#183713;" d="M256,362.667h116.333v98.083C372.333,495.962,312.03,512,256,512"/>
<path style="fill:#00935C;" d="M256,435.25c-56.03,0-116.333-16.038-116.333-51.25v-68.416h232.667V384
	C372.333,419.212,312.03,435.25,256,435.25z"/>
<path style="fill:#00784B;" d="M256,315.584h116.333V384c0,35.212-60.304,51.25-116.333,51.25"/>
<path style="fill:#60DD4D;" d="M256,264.334c-56.03,0-116.333,16.038-116.333,51.25s60.304,51.25,116.333,51.25
	s116.333-16.038,116.333-51.25C372.333,280.371,312.03,264.334,256,264.334z"/>
<path style="fill:#56C745;" d="M256,366.834c56.03,0,116.333-16.038,116.333-51.25s-60.304-51.25-116.333-51.25"/>
<path style="fill:#FFDB2D;" d="M407,226.965H105V18.758h168.235L291.994,0H407V226.965z"/>
<polygon style="fill:#FFB300;" points="291.994,0 273.235,18.758 256,18.758 256,226.965 407,226.965 407,0 "/>
<polygon style="fill:#FF4F19;" points="301.195,141.315 256,96.121 210.805,141.315 232.018,162.529 241,153.547 241,309.333 
	271,309.333 271,153.547 279.982,162.529 "/>
<polygon style="fill:#BF3B13;" points="256,96.121 256,309.333 271,309.333 271,153.547 279.982,162.529 301.195,141.315 "/>
<g>
</g>
<g>
</g>
<g>
</g>
<g>
</g>
<g>
</g>
<g>
</g>
<g>
</g>
<g>
</g>
<g>
</g>
<g>
</g>
<g>
</g>
<g>
</g>
<g>
</g>
<g>
</g>
<g>
</g>
</svg>
