<?xml version="1.0" encoding="iso-8859-1"?>
<!-- Generator: Adobe Illustrator 19.0.0, SVG Export Plug-In . SVG Version: 6.00 Build 0)  -->
<svg version="1.1" id="Capa_1" xmlns="http://www.w3.org/2000/svg" xmlns:xlink="http://www.w3.org/1999/xlink" x="0px" y="0px"
	 viewBox="0 0 512 512" style="enable-background:new 0 0 512 512;" xml:space="preserve">
<path style="fill:#CECED1;" d="M452.333,512H59.667V354h392.667L452.333,512L452.333,512z"/>
<path style="fill:#AEADB3;" d="M452.333,512H256V354h196.334L452.333,512L452.333,512z"/>
<path style="fill:#838286;" d="M452.333,475.667H59.667v-85.333h392.667L452.333,475.667L452.333,475.667z"/>
<path style="fill:#57575A;" d="M452.333,475.667H256v-85.333h196.334L452.333,475.667L452.333,475.667z"/>
<rect x="151.33" y="418" style="fill:#FFDB2D;" width="30" height="30"/>
<rect x="330.67" y="418" style="fill:#56C745;" width="30" height="30"/>
<rect x="271.329" y="418" style="fill:#6FC8F1;" width="30" height="30"/>
<path style="fill:#CECED1;" d="M452.333,384H59.667V226h392.667L452.333,384L452.333,384z"/>
<path style="fill:#AEADB3;" d="M452.333,384H256V226h196.334L452.333,384L452.333,384z"/>
<path style="fill:#838286;" d="M452.333,347.667H59.667v-85.333h392.667L452.333,347.667L452.333,347.667z"/>
<path style="fill:#57575A;" d="M452.333,347.667H256v-85.333h196.334L452.333,347.667L452.333,347.667z"/>
<rect x="151.33" y="290" style="fill:#FFDB2D;" width="30" height="30"/>
<rect x="330.67" y="290" style="fill:#56C745;" width="30" height="30"/>
<rect x="271.329" y="290" style="fill:#6FC8F1;" width="30" height="30"/>
<path style="fill:#B7E4F8;" d="M256,234.967l-37.175-38.633h-95.158V0h264.666v196.333h-95.158L256,234.967z"/>
<polygon style="fill:#6FC8F1;" points="256,0 256,234.967 293.174,196.333 388.333,196.333 388.333,0 "/>
<g>
	<rect x="181" y="83.5" style="fill:#265D77;" width="30" height="30"/>
	<rect x="241" y="83.5" style="fill:#265D77;" width="30" height="30"/>
</g>
<g>
	<rect x="256" y="83.5" style="fill:#132F3B;" width="15" height="30"/>
	<rect x="301" y="83.5" style="fill:#132F3B;" width="30" height="30"/>
</g>
<g>
</g>
<g>
</g>
<g>
</g>
<g>
</g>
<g>
</g>
<g>
</g>
<g>
</g>
<g>
</g>
<g>
</g>
<g>
</g>
<g>
</g>
<g>
</g>
<g>
</g>
<g>
</g>
<g>
</g>
</svg>
