<?xml version="1.0" encoding="iso-8859-1"?>
<!-- Generator: Adobe Illustrator 19.0.0, SVG Export Plug-In . SVG Version: 6.00 Build 0)  -->
<svg version="1.1" id="Capa_1" xmlns="http://www.w3.org/2000/svg" xmlns:xlink="http://www.w3.org/1999/xlink" x="0px" y="0px"
	 viewBox="0 0 512 512" style="enable-background:new 0 0 512 512;" xml:space="preserve">
<path style="fill:#B7E4F8;" d="M378.046,273.933H133.954c-41.919,0-76.023-34.104-76.023-76.023
	c0-37.02,26.597-67.944,61.686-74.667c3.162-32.359,17.558-62.174,41.329-85.08C186.484,13.553,220.242,0,255.999,0
	c35.758,0,69.516,13.553,95.055,38.162c23.772,22.906,38.168,52.721,41.33,85.08c35.089,6.723,61.686,37.647,61.686,74.667
	C454.069,239.829,419.966,273.933,378.046,273.933z"/>
<path style="fill:#6FC8F1;" d="M392.384,123.243c-3.162-32.359-17.558-62.174-41.33-85.08C325.515,13.553,291.758,0,256,0v273.933
	h122.046c41.919,0,76.023-34.104,76.023-76.023C454.069,160.89,427.473,129.966,392.384,123.243z"/>
<rect x="241" y="309.33" style="fill:#FF4F19;" width="30" height="64"/>
<path style="fill:#CECED1;" d="M452.333,512H59.667V354h392.667L452.333,512L452.333,512z"/>
<path style="fill:#AEADB3;" d="M452.333,512H256V354h196.334L452.333,512L452.333,512z"/>
<path style="fill:#838286;" d="M452.333,475.667H59.667v-85.333h392.667L452.333,475.667L452.333,475.667z"/>
<path style="fill:#57575A;" d="M452.333,475.667H256v-85.333h196.334L452.333,475.667L452.333,475.667z"/>
<rect x="151.33" y="418" style="fill:#FFDB2D;" width="30" height="30"/>
<rect x="330.67" y="418" style="fill:#56C745;" width="30" height="30"/>
<rect x="271.329" y="418" style="fill:#6FC8F1;" width="30" height="30"/>
<g>
	<path style="fill:#FFDB2D;" d="M256,113c-40.62,0-73.667,33.047-73.667,73.667v137.667h147.334V186.667
		C329.667,146.047,296.62,113,256,113z M299.667,209h-87.334v-22.333C212.333,162.589,231.922,143,256,143
		s43.667,19.589,43.667,43.667V209z"/>
	<path style="fill:#FFDB2D;" d="M256,113c-40.62,0-73.667,33.047-73.667,73.667v137.667h147.334V186.667
		C329.667,146.047,296.62,113,256,113z M299.667,209h-87.334v-22.333C212.333,162.589,231.922,143,256,143
		s43.667,19.589,43.667,43.667V209z"/>
</g>
<g>
	<path style="fill:#FFB300;" d="M256.97,113.025v30c23.631,0.519,42.697,19.889,42.697,43.642V209H256.97v115.334h72.697V186.667
		C329.667,146.372,297.143,113.548,256.97,113.025z"/>
	<path style="fill:#FFB300;" d="M212.333,209v-22.333C212.333,162.589,231.922,143,256,143s43.667,19.589,43.667,43.667V209h30
		v-22.333C329.667,146.047,296.62,113,256,113s-73.667,33.047-73.667,73.667V209H212.333z"/>
</g>
<path style="fill:#FF9900;" d="M256,113v30c24.078,0,43.667,19.589,43.667,43.667V209h30v-22.333
	C329.667,146.047,296.62,113,256,113z"/>
<g>
</g>
<g>
</g>
<g>
</g>
<g>
</g>
<g>
</g>
<g>
</g>
<g>
</g>
<g>
</g>
<g>
</g>
<g>
</g>
<g>
</g>
<g>
</g>
<g>
</g>
<g>
</g>
<g>
</g>
</svg>
