<?xml version="1.0" encoding="iso-8859-1"?>
<!-- Generator: Adobe Illustrator 19.0.0, SVG Export Plug-In . SVG Version: 6.00 Build 0)  -->
<svg version="1.1" id="Capa_1" xmlns="http://www.w3.org/2000/svg" xmlns:xlink="http://www.w3.org/1999/xlink" x="0px" y="0px"
	 viewBox="0 0 512 512" style="enable-background:new 0 0 512 512;" xml:space="preserve">
<path style="fill:#00623D;" d="M116.333,281.667C60.304,281.667,0,265.629,0,230.417v-98.083h232.667v98.083
	C232.667,265.629,172.363,281.667,116.333,281.667z"/>
<path style="fill:#183713;" d="M116.333,132.333h116.333v98.083c0,35.212-60.304,51.25-116.333,51.25"/>
<path style="fill:#00935C;" d="M116.333,204.917C60.304,204.917,0,188.879,0,153.667V85.25h232.667v68.416
	C232.667,188.879,172.363,204.917,116.333,204.917z"/>
<path style="fill:#00784B;" d="M116.333,85.25h116.333v68.416c0,35.212-60.304,51.25-116.333,51.25"/>
<path style="fill:#60DD4D;" d="M116.333,34C60.304,34,0,50.038,0,85.25s60.304,51.25,116.333,51.25s116.333-16.038,116.333-51.25
	C232.667,50.038,172.363,34,116.333,34z"/>
<path style="fill:#56C745;" d="M116.333,136.5c56.03,0,116.333-16.038,116.333-51.25S172.362,34,116.333,34"/>
<path style="fill:#00623D;" d="M395.667,281.667c-56.03,0-116.333-16.038-116.333-51.25v-98.083H512v98.083
	C512,265.629,451.697,281.667,395.667,281.667z"/>
<path style="fill:#183713;" d="M395.667,132.333H512v98.083c0,35.212-60.304,51.25-116.333,51.25"/>
<path style="fill:#00935C;" d="M395.667,204.917c-56.03,0-116.333-16.038-116.333-51.25V85.25H512v68.416
	C512,188.879,451.697,204.917,395.667,204.917z"/>
<path style="fill:#00784B;" d="M395.667,85.25H512v68.416c0,35.212-60.304,51.25-116.333,51.25"/>
<path style="fill:#60DD4D;" d="M395.667,34c-56.03,0-116.333,16.038-116.333,51.25s60.304,51.25,116.333,51.25
	S512,120.462,512,85.25S451.697,34,395.667,34z"/>
<path style="fill:#56C745;" d="M395.667,136.5C451.697,136.5,512,120.462,512,85.25S451.697,34,395.667,34"/>
<path style="fill:#B7E4F8;" d="M439.567,420.662H72.433V158.363h367.134L439.567,420.662L439.567,420.662z"/>
<path style="fill:#4BBAED;" d="M439.567,420.662H256V158.363h183.567L439.567,420.662L439.567,420.662z"/>
<path style="fill:#265D77;" d="M466.952,478H45.048v-65.896h421.904V478z"/>
<path style="fill:#132F3B;" d="M466.952,478H256v-65.896h210.952V478z"/>
<g>
	<rect x="181" y="292.33" style="fill:#FF4F19;" width="30" height="32"/>
	<rect x="241" y="271" style="fill:#FF4F19;" width="30" height="53.33"/>
</g>
<g>
	<rect x="256" y="271" style="fill:#BF3B13;" width="15" height="53.33"/>
	<rect x="301" y="239" style="fill:#BF3B13;" width="30" height="85.33"/>
</g>
<g>
</g>
<g>
</g>
<g>
</g>
<g>
</g>
<g>
</g>
<g>
</g>
<g>
</g>
<g>
</g>
<g>
</g>
<g>
</g>
<g>
</g>
<g>
</g>
<g>
</g>
<g>
</g>
<g>
</g>
</svg>
