<?xml version="1.0" encoding="iso-8859-1"?>
<!-- Generator: Adobe Illustrator 19.0.0, SVG Export Plug-In . SVG Version: 6.00 Build 0)  -->
<svg version="1.1" id="Capa_1" xmlns="http://www.w3.org/2000/svg" xmlns:xlink="http://www.w3.org/1999/xlink" x="0px" y="0px"
	 viewBox="0 0 512 512" style="enable-background:new 0 0 512 512;" xml:space="preserve">
<path style="fill:#B7E4F8;" d="M439.567,454.662H72.433V192.363h367.134L439.567,454.662L439.567,454.662z"/>
<path style="fill:#4BBAED;" d="M439.567,454.662H256V192.363h183.567L439.567,454.662L439.567,454.662z"/>
<path style="fill:#265D77;" d="M466.952,512H45.048v-65.896h421.904V512z"/>
<path style="fill:#132F3B;" d="M466.952,512H256v-65.896h210.952V512z"/>
<polygon style="fill:#FF4F19;" points="301.195,319.94 256,365.134 210.805,319.94 232.018,298.726 241,307.708 241,179.587 
	271,179.587 271,307.708 279.982,298.726 "/>
<polygon style="fill:#BF3B13;" points="256,365.134 256,179.587 271,179.587 271,307.708 279.982,298.726 301.195,319.94 "/>
<path style="fill:#00623D;" d="M256,247.666c-56.03,0-116.333-16.038-116.333-51.25V98.333h232.667v98.083
	C372.333,231.628,312.03,247.666,256,247.666z"/>
<path style="fill:#183713;" d="M256,98.333h116.333v98.083c0,35.212-60.304,51.25-116.333,51.25"/>
<path style="fill:#00935C;" d="M256,170.916c-56.03,0-116.333-16.038-116.333-51.25V51.25h232.667v68.416
	C372.333,154.878,312.03,170.916,256,170.916z"/>
<path style="fill:#00784B;" d="M256,51.25h116.333v68.416c0,35.212-60.304,51.25-116.333,51.25"/>
<path style="fill:#60DD4D;" d="M256,0c-56.03,0-116.333,16.038-116.333,51.25S199.971,102.5,256,102.5s116.333-16.038,116.333-51.25
	S312.03,0,256,0z"/>
<path style="fill:#56C745;" d="M256,102.5c56.03,0,116.333-16.038,116.333-51.25S312.03,0,256,0"/>
<g>
</g>
<g>
</g>
<g>
</g>
<g>
</g>
<g>
</g>
<g>
</g>
<g>
</g>
<g>
</g>
<g>
</g>
<g>
</g>
<g>
</g>
<g>
</g>
<g>
</g>
<g>
</g>
<g>
</g>
</svg>
