<?xml version="1.0" encoding="iso-8859-1"?>
<!-- Generator: Adobe Illustrator 19.0.0, SVG Export Plug-In . SVG Version: 6.00 Build 0)  -->
<svg version="1.1" id="Capa_1" xmlns="http://www.w3.org/2000/svg" xmlns:xlink="http://www.w3.org/1999/xlink" x="0px" y="0px"
	 viewBox="0 0 512.041 512.041" style="enable-background:new 0 0 512.041 512.041;" xml:space="preserve">
<path style="fill:#00623D;" d="M136.333,506.832C70.671,506.832,0,488.037,0,446.771V331.825h272.667v114.946
	C272.667,488.037,201.996,506.832,136.333,506.832z"/>
<path style="fill:#183713;" d="M136.333,331.825h136.333v114.946c0,41.266-70.671,60.061-136.333,60.061"/>
<path style="fill:#00935C;" d="M136.333,416.887C70.671,416.887,0,398.092,0,356.826v-80.179h272.667v80.179
	C272.667,398.092,201.996,416.887,136.333,416.887z"/>
<path style="fill:#00784B;" d="M136.333,276.647h136.333v80.179c0,41.266-70.671,60.061-136.333,60.061"/>
<path style="fill:#60DD4D;" d="M136.333,216.587C70.671,216.587,0,235.382,0,276.647c0,41.266,70.671,60.061,136.333,60.061
	s136.333-18.795,136.333-60.061C272.667,235.382,201.996,216.587,136.333,216.587z"/>
<path style="fill:#56C745;" d="M136.333,336.708c65.662,0,136.333-18.795,136.333-60.061s-70.671-60.061-136.333-60.061"/>
<rect x="358.26" y="214.399" transform="matrix(-0.8057 0.5923 -0.5923 -0.8057 927.6868 357.2137)" style="fill:#FF4F19;" width="94.006" height="232.685"/>
<polygon style="fill:#BF3B13;" points="374.203,209.171 332.735,239.651 473.848,424.686 512,396.643 "/>
<circle style="fill:#DBF1FB;" cx="275.48" cy="158.881" r="138.67"/>
<g>
	<path style="fill:#B7E4F8;" d="M365.636,283.313c0.039-0.029,0.079-0.055,0.119-0.084C434.324,233.45,449.61,137.168,399.832,68.6
		c-49.779-68.568-146.061-83.855-214.63-34.076c-0.039,0.029-0.077,0.058-0.117,0.087"/>
	<path style="fill:#B7E4F8;" d="M275.478,312.543c-84.732,0-153.667-68.934-153.667-153.667
		c0-84.732,68.935-153.667,153.667-153.667s153.667,68.935,153.667,153.667C429.146,243.609,360.211,312.543,275.478,312.543z
		 M275.478,35.21c-68.19,0-123.667,55.477-123.667,123.667s55.477,123.667,123.667,123.667s123.667-55.477,123.667-123.667
		C399.146,90.687,343.669,35.21,275.478,35.21z"/>
</g>
<g>
	<rect x="200.48" y="143.881" style="fill:#265D77;" width="30" height="30"/>
	<rect x="260.48" y="143.881" style="fill:#265D77;" width="30" height="30"/>
	<rect x="320.48" y="143.881" style="fill:#265D77;" width="30" height="30"/>
</g>
<path style="fill:#6FC8F1;" d="M185.202,34.524c-0.039,0.029-0.077,0.058-0.117,0.087l17.625,24.277
	c0.039-0.029,0.077-0.058,0.117-0.087c55.182-40.061,132.667-27.759,172.728,27.423c40.06,55.182,27.758,132.667-27.424,172.728
	c-0.039,0.029-0.079,0.055-0.119,0.084l17.624,24.277c0.039-0.029,0.079-0.055,0.119-0.084
	C434.324,233.45,449.61,137.168,399.832,68.6C350.053,0.032,253.771-15.255,185.202,34.524z"/>
<g>
</g>
<g>
</g>
<g>
</g>
<g>
</g>
<g>
</g>
<g>
</g>
<g>
</g>
<g>
</g>
<g>
</g>
<g>
</g>
<g>
</g>
<g>
</g>
<g>
</g>
<g>
</g>
<g>
</g>
</svg>
