<?xml version="1.0" encoding="iso-8859-1"?>
<!-- Generator: Adobe Illustrator 19.0.0, SVG Export Plug-In . SVG Version: 6.00 Build 0)  -->
<svg version="1.1" id="Capa_1" xmlns="http://www.w3.org/2000/svg" xmlns:xlink="http://www.w3.org/1999/xlink" x="0px" y="0px"
	 viewBox="0 0 512 512" style="enable-background:new 0 0 512 512;" xml:space="preserve">
<path style="fill:#BDB5B2;" d="M307.509,339.96c20.688,0,39.216-9.432,51.509-24.221c12.293,14.787,30.821,24.221,51.509,24.221
	c36.923,0,66.962-30.039,66.962-66.962h-30.905c0,19.881-16.175,36.056-36.056,36.056c-19.882,0-36.056-16.175-36.056-36.056
	h-30.905c0,19.881-16.175,36.056-36.056,36.056c-19.881,0-36.056-16.175-36.056-36.056H256l-15.453,42.741H256
	C268.293,330.527,286.821,339.96,307.509,339.96z"/>
<path style="fill:#D6D0CD;" d="M204.491,309.054c-19.881,0-36.056-16.175-36.056-36.056h-30.905
	c0,19.881-16.175,36.056-36.056,36.056s-36.056-16.175-36.056-36.056H34.511c0,36.923,30.039,66.962,66.962,66.962
	c20.688,0,39.216-9.432,51.509-24.221c12.293,14.787,30.821,24.221,51.509,24.221s39.216-9.432,51.509-24.221v-42.741h-15.453
	C240.547,292.879,224.372,309.054,204.491,309.054z"/>
<path style="fill:#BDB5B2;" d="M307.509,236.942c20.688,0,39.216-9.432,51.509-24.221c12.293,14.787,30.821,24.221,51.509,24.221
	c36.923,0,66.962-30.039,66.962-66.962h-30.905c0,19.881-16.175,36.056-36.056,36.056c-19.882,0-36.056-16.175-36.056-36.056
	h-30.905c0,19.881-16.175,36.056-36.056,36.056c-19.881,0-36.056-16.175-36.056-36.056H256l-15.453,42.741H256
	C268.293,227.509,286.821,236.942,307.509,236.942z"/>
<path style="fill:#D6D0CD;" d="M204.491,206.036c-19.881,0-36.056-16.175-36.056-36.056h-30.905
	c0,19.881-16.175,36.056-36.056,36.056s-36.056-16.175-36.056-36.056H34.511c0,36.923,30.039,66.962,66.962,66.962
	c20.688,0,39.216-9.432,51.509-24.221c12.293,14.787,30.821,24.221,51.509,24.221s39.216-9.432,51.509-24.221V169.98h-15.453
	C240.547,189.861,224.372,206.036,204.491,206.036z"/>
<path style="fill:#BDB5B2;" d="M307.509,133.924c20.688,0,39.216-9.432,51.509-24.221c12.293,14.787,30.821,24.221,51.509,24.221
	c36.923,0,66.962-30.039,66.962-66.962h-30.905c0,19.881-16.175,36.056-36.056,36.056c-19.882,0-36.056-16.175-36.056-36.056
	h-30.905c0,19.881-16.175,36.056-36.056,36.056c-19.881,0-36.056-16.175-36.056-36.056H256l-15.453,42.741H256
	C268.293,124.491,286.821,133.924,307.509,133.924z"/>
<path style="fill:#D6D0CD;" d="M204.491,103.018c-19.881,0-36.056-16.175-36.056-36.056h-30.905
	c0,19.881-16.175,36.056-36.056,36.056S65.416,86.843,65.416,66.962H34.511c0,36.923,30.039,66.962,66.962,66.962
	c20.688,0,39.216-9.432,51.509-24.221c12.293,14.787,30.821,24.221,51.509,24.221s39.216-9.432,51.509-24.221V66.962h-15.453
	C240.547,86.843,224.372,103.018,204.491,103.018z"/>
<path style="fill:#BDB5B2;" d="M307.509,442.978c20.688,0,39.216-9.432,51.509-24.221c12.293,14.787,30.821,24.221,51.509,24.221
	c36.923,0,66.962-30.039,66.962-66.962h-30.905c0,19.881-16.175,36.056-36.056,36.056c-19.882,0-36.056-16.175-36.056-36.056
	h-30.905c0,19.881-16.175,36.056-36.056,36.056c-19.881,0-36.056-16.175-36.056-36.056H256l-15.453,42.741H256
	C268.293,433.546,286.821,442.978,307.509,442.978z"/>
<path style="fill:#D6D0CD;" d="M204.491,412.072c-19.881,0-36.056-16.175-36.056-36.056h-30.905
	c0,19.881-16.175,36.056-36.056,36.056s-36.056-16.175-36.056-36.056H34.511c0,36.923,30.039,66.962,66.962,66.962
	c20.688,0,39.216-9.432,51.509-24.221c12.293,14.787,30.821,24.221,51.509,24.221s39.216-9.432,51.509-24.221v-42.741h-15.453
	C240.547,395.898,224.372,412.072,204.491,412.072z"/>
<rect x="34.511" y="15.453" style="fill:#6C533A;" width="30.905" height="496.547"/>
<rect x="446.583" y="15.453" style="fill:#593927;" width="30.905" height="496.547"/>
<polygon style="fill:#6C533A;" points="508.394,0 256,0 225.095,15.453 256,30.905 508.394,30.905 "/>
<rect x="3.606" style="fill:#907154;" width="252.394" height="30.905"/>
<g>
</g>
<g>
</g>
<g>
</g>
<g>
</g>
<g>
</g>
<g>
</g>
<g>
</g>
<g>
</g>
<g>
</g>
<g>
</g>
<g>
</g>
<g>
</g>
<g>
</g>
<g>
</g>
<g>
</g>
</svg>
