<?xml version="1.0" encoding="iso-8859-1"?>
<!-- Generator: Adobe Illustrator 19.0.0, SVG Export Plug-In . SVG Version: 6.00 Build 0)  -->
<svg version="1.1" id="Capa_1" xmlns="http://www.w3.org/2000/svg" xmlns:xlink="http://www.w3.org/1999/xlink" x="0px" y="0px"
	 viewBox="0 0 512 512" style="enable-background:new 0 0 512 512;" xml:space="preserve">
<rect x="68.857" y="76" style="fill:#907154;" width="30" height="165"/>
<g>
	<rect x="413.14" y="76" style="fill:#6C533A;" width="30" height="165"/>
	<rect x="344.29" y="76" style="fill:#6C533A;" width="30" height="165"/>
	<rect x="275.43" y="76" style="fill:#6C533A;" width="30" height="165"/>
</g>
<g>
	<rect x="206.57" y="76" style="fill:#907154;" width="30" height="165"/>
	<rect x="137.71" y="76" style="fill:#907154;" width="30" height="165"/>
</g>
<polygon style="fill:#6C533A;" points="497,61 256,61 236,76 256,91 497,91 "/>
<rect x="15" y="61" style="fill:#907154;" width="241" height="30"/>
<polygon style="fill:#6C533A;" points="497,226 256,226 236,241 256,256 497,256 "/>
<rect x="15" y="226" style="fill:#907154;" width="241" height="30"/>
<polygon style="fill:#6C533A;" points="497,301 256,301 236,331 256,361 497,361 "/>
<rect x="15" y="301" style="fill:#907154;" width="241" height="60"/>
<rect x="482" y="31" style="fill:#593927;" width="30" height="450"/>
<rect y="31" style="fill:#6C533A;" width="30" height="450"/>
<g>
</g>
<g>
</g>
<g>
</g>
<g>
</g>
<g>
</g>
<g>
</g>
<g>
</g>
<g>
</g>
<g>
</g>
<g>
</g>
<g>
</g>
<g>
</g>
<g>
</g>
<g>
</g>
<g>
</g>
</svg>
