<?xml version="1.0" encoding="iso-8859-1"?>
<!-- Generator: Adobe Illustrator 19.0.0, SVG Export Plug-In . SVG Version: 6.00 Build 0)  -->
<svg version="1.1" id="Capa_1" xmlns="http://www.w3.org/2000/svg" xmlns:xlink="http://www.w3.org/1999/xlink" x="0px" y="0px"
	 viewBox="0 0 512 512" style="enable-background:new 0 0 512 512;" xml:space="preserve">
<rect x="241" style="fill:#D6D0CD;" width="30" height="512"/>
<path style="fill:#BDB5B2;" d="M49.855,370c-0.871-44.231-5.565-68.89-10.121-92.807C34.729,250.91,30,226.084,30,175H0
	c0,53.916,5.218,81.313,10.265,107.807C15.271,309.09,20,333.916,20,385v127h30V400h100v112h30V370H49.855z"/>
<path style="fill:#9B918B;" d="M482,175c0,51.084-4.729,75.91-9.735,102.193c-4.555,23.917-9.249,48.575-10.12,92.807H332v142h30
	V400h100v112h30V385c0-51.084,4.729-75.91,9.735-102.193C506.781,256.313,512,228.916,512,175H482z"/>
<rect x="392" y="295" style="fill:#7A6C64;" width="30" height="217"/>
<rect x="90" y="295" style="fill:#9B918B;" width="30" height="217"/>
<polygon style="fill:#D95D27;" points="452,280 256,280 226,295 256,310 452,310 "/>
<rect x="60" y="280" style="fill:#EB7330;" width="196" height="30"/>
<path style="fill:#21B4D3;" d="M512,130c0-19.564-7.493-38.999-21.099-54.723c-13.606-15.725-31.762-25.934-51.123-28.745
	L258.156,20.155L256,19.843l-40,62.735L256,145h256V130z"/>
<path style="fill:#26D4F8;" d="M72.222,46.532C52.86,49.344,34.705,59.553,21.099,75.277S0,110.436,0,130v15h256V19.843
	L72.222,46.532z"/>
<g>
</g>
<g>
</g>
<g>
</g>
<g>
</g>
<g>
</g>
<g>
</g>
<g>
</g>
<g>
</g>
<g>
</g>
<g>
</g>
<g>
</g>
<g>
</g>
<g>
</g>
<g>
</g>
<g>
</g>
</svg>
