<?xml version="1.0" encoding="iso-8859-1"?>
<!-- Generator: Adobe Illustrator 19.0.0, SVG Export Plug-In . SVG Version: 6.00 Build 0)  -->
<svg version="1.1" id="Capa_1" xmlns="http://www.w3.org/2000/svg" xmlns:xlink="http://www.w3.org/1999/xlink" x="0px" y="0px"
	 viewBox="0 0 512 512" style="enable-background:new 0 0 512 512;" xml:space="preserve">
<path style="fill:#9B918B;" d="M151,512h-50v-30h20.453c2.796-45.089,18.044-70.756,31.651-93.661
	C167.45,364.19,181,341.381,181,295h30c0,54.619-17.056,83.33-32.104,108.661C164.55,427.81,151,450.619,151,497V512z"/>
<path style="fill:#7A6C64;" d="M411,512h-50v-15c0-46.381-13.55-69.19-27.896-93.339C318.056,378.33,301,349.619,301,295h30
	c0,46.381,13.55,69.19,27.896,93.339c13.607,22.905,28.855,48.572,31.651,93.661H411V512z"/>
<rect x="241" style="fill:#D6D0CD;" width="30" height="512"/>
<polygon style="fill:#D95D27;" points="452,280 256,280 226,295 256,310 452,310 "/>
<rect x="60" y="280" style="fill:#EB7330;" width="196" height="30"/>
<path style="fill:#21B4D3;" d="M512,130c0-19.564-7.493-38.999-21.099-54.723c-13.606-15.725-31.762-25.934-51.123-28.745
	L258.156,20.155L256,19.843l-40,62.735L256,145h256V130z"/>
<path style="fill:#26D4F8;" d="M72.222,46.532C52.86,49.344,34.705,59.553,21.099,75.277S0,110.436,0,130v15h256V19.843
	L72.222,46.532z"/>
<g>
</g>
<g>
</g>
<g>
</g>
<g>
</g>
<g>
</g>
<g>
</g>
<g>
</g>
<g>
</g>
<g>
</g>
<g>
</g>
<g>
</g>
<g>
</g>
<g>
</g>
<g>
</g>
<g>
</g>
</svg>
