<?xml version="1.0" encoding="iso-8859-1"?>
<!-- Generator: Adobe Illustrator 19.0.0, SVG Export Plug-In . SVG Version: 6.00 Build 0)  -->
<svg version="1.1" id="Capa_1" xmlns="http://www.w3.org/2000/svg" xmlns:xlink="http://www.w3.org/1999/xlink" x="0px" y="0px"
	 viewBox="0 0 512 512" style="enable-background:new 0 0 512 512;" xml:space="preserve">
<path style="fill:#480306;" d="M482,451h-50v-15c0-62.332,7.85-93.992,15.44-124.609C454.928,281.191,462,252.668,462,194v-71.726
	h30V194c0,62.332-7.85,93.992-15.44,124.609c-6.82,27.506-13.295,53.62-14.396,102.391H482V451z"/>
<path style="fill:#8B2613;" d="M80,451H30v-30h19.836c-1.101-48.771-7.575-74.885-14.396-102.391C27.85,287.992,20,256.332,20,194
	v-71.726h30V194c0,58.668,7.072,87.191,14.56,117.391C72.15,342.008,80,373.668,80,436V451z"/>
<path style="fill:#C7461F;" d="M256,61l-60,135.5L256,332c141.385,0,256-114.615,256-256V61H256z"/>
<path style="fill:#D95D27;" d="M0,61v15c0,141.385,114.615,256,256,256V61H0z"/>
<g>
</g>
<g>
</g>
<g>
</g>
<g>
</g>
<g>
</g>
<g>
</g>
<g>
</g>
<g>
</g>
<g>
</g>
<g>
</g>
<g>
</g>
<g>
</g>
<g>
</g>
<g>
</g>
<g>
</g>
</svg>
