<?xml version="1.0" encoding="iso-8859-1"?>
<!-- Generator: Adobe Illustrator 19.0.0, SVG Export Plug-In . SVG Version: 6.00 Build 0)  -->
<svg version="1.1" id="Capa_1" xmlns="http://www.w3.org/2000/svg" xmlns:xlink="http://www.w3.org/1999/xlink" x="0px" y="0px"
	 viewBox="0 0 512 512" style="enable-background:new 0 0 512 512;" xml:space="preserve">
<polygon style="fill:#D95D27;" points="437,422 256,422 226,437 256,452 437,452 "/>
<rect x="75" y="422" style="fill:#EB7330;" width="181" height="30"/>
<polygon style="fill:#8B2613;" points="452,482 452,357 422,357 422,482 377,482 377,512 497,512 497,482 "/>
<polygon style="fill:#C7461F;" points="90,482 90,357 60,357 60,482 15,482 15,512 135,512 135,482 "/>
<polygon style="fill:#EB7330;" points="256,0 196,357 482,357 482,0 "/>
<polygon style="fill:#F9963B;" points="30,0 30,357 45,357 60,357 256,357 256,0 "/>
<polygon style="fill:#D95D27;" points="512,342 256,342 226,357 256,372 512,372 "/>
<rect y="342" style="fill:#EB7330;" width="256" height="30"/>
<g>
</g>
<g>
</g>
<g>
</g>
<g>
</g>
<g>
</g>
<g>
</g>
<g>
</g>
<g>
</g>
<g>
</g>
<g>
</g>
<g>
</g>
<g>
</g>
<g>
</g>
<g>
</g>
<g>
</g>
</svg>
