<?xml version="1.0" encoding="iso-8859-1"?>
<!-- Generator: Adobe Illustrator 19.0.0, SVG Export Plug-In . SVG Version: 6.00 Build 0)  -->
<svg version="1.1" id="Capa_1" xmlns="http://www.w3.org/2000/svg" xmlns:xlink="http://www.w3.org/1999/xlink" x="0px" y="0px"
	 viewBox="0 0 512 512" style="enable-background:new 0 0 512 512;" xml:space="preserve">
<g>
	<polygon style="fill:#D95D27;" points="302,436 272,436 272,376 302,346 	"/>
	<polygon style="fill:#D95D27;" points="482,436 452,436 452,346 482,376 	"/>
</g>
<rect x="272" y="256" style="fill:#C7461F;" width="210" height="120"/>
<rect x="362" y="271" style="fill:#7DE5FB;" width="30" height="45"/>
<rect x="272" y="166" style="fill:#D95D27;" width="210" height="120"/>
<rect x="362" y="181" style="fill:#7DE5FB;" width="30" height="45"/>
<g>
	<rect x="287" y="91" style="fill:#C7461F;" width="180" height="105"/>
	<polygon style="fill:#C7461F;" points="482,91 206,91 272,196 482,196 	"/>
</g>
<g>
	<rect x="45" y="91" style="fill:#D95D27;" width="227" height="105"/>
	<rect x="30" y="91" style="fill:#D95D27;" width="30" height="345"/>
</g>
<rect x="362" y="91" style="fill:#7DE5FB;" width="30" height="45"/>
<polygon style="fill:#D95D27;" points="512,76 272,76 226,91 272,106 512,106 "/>
<rect y="76" style="fill:#EB7330;" width="272" height="30"/>
<g>
</g>
<g>
</g>
<g>
</g>
<g>
</g>
<g>
</g>
<g>
</g>
<g>
</g>
<g>
</g>
<g>
</g>
<g>
</g>
<g>
</g>
<g>
</g>
<g>
</g>
<g>
</g>
<g>
</g>
</svg>
