<?xml version="1.0" encoding="iso-8859-1"?>
<!-- Generator: Adobe Illustrator 19.0.0, SVG Export Plug-In . SVG Version: 6.00 Build 0)  -->
<svg version="1.1" id="Capa_1" xmlns="http://www.w3.org/2000/svg" xmlns:xlink="http://www.w3.org/1999/xlink" x="0px" y="0px"
	 viewBox="0 0 512 512" style="enable-background:new 0 0 512 512;" xml:space="preserve">
<polygon style="fill:#FFF2A3;" points="45,512 75,512 75,317 45,347 "/>
<polygon style="fill:#FEDD90;" points="437,317 437,512 467,512 467,347 "/>
<path style="fill:#7DE5FB;" d="M169.9,30h-39.4v242H256V0C224.7,0,194.3,10.6,169.9,30z"/>
<path style="fill:#26D4F8;" d="M381.5,30h-39.4C317.7,10.6,287.3,0,256,0v272h125.5V30z"/>
<polygon style="fill:#FEDD90;" points="245.7,257 185.7,347 45,347 45,257 "/>
<polygon style="fill:#FFF2A3;" points="316,257 256,347 185.7,347 185.7,257 "/>
<polygon style="fill:#FEDD90;" points="386.3,257 326.3,347 256,347 256,257 "/>
<rect x="326.3" y="257" style="fill:#E3C281;" width="140.7" height="90"/>
<rect x="381.7" y="257" style="fill:#C7A772;" width="30" height="45"/>
<g>
	<rect x="241" y="257" style="fill:#E3C281;" width="30" height="45"/>
	<rect x="100.3" y="257" style="fill:#E3C281;" width="30" height="45"/>
</g>
<polygon style="fill:#AC8C63;" points="512,242 256,242 236,257 256,272 512,272 "/>
<rect y="242" style="fill:#C7A772;" width="256" height="30"/>
<polygon style="fill:#FEDD90;" points="256,392 236,407 256,422 311.3,422 311.3,512 341.3,512 341.3,392 "/>
<polygon style="fill:#FFF2A3;" points="170.7,392 170.7,512 200.7,512 200.7,422 256,422 256,392 "/>
<g>
</g>
<g>
</g>
<g>
</g>
<g>
</g>
<g>
</g>
<g>
</g>
<g>
</g>
<g>
</g>
<g>
</g>
<g>
</g>
<g>
</g>
<g>
</g>
<g>
</g>
<g>
</g>
<g>
</g>
</svg>
