<?xml version="1.0" encoding="iso-8859-1"?>
<!-- Generator: Adobe Illustrator 19.0.0, SVG Export Plug-In . SVG Version: 6.00 Build 0)  -->
<svg version="1.1" id="Capa_1" xmlns="http://www.w3.org/2000/svg" xmlns:xlink="http://www.w3.org/1999/xlink" x="0px" y="0px"
	 viewBox="0 0 512 512" style="enable-background:new 0 0 512 512;" xml:space="preserve">
<polygon style="fill:#EB7330;" points="121.455,15 61.455,15 61.455,256 121.455,316 "/>
<polygon style="fill:#C7461F;" points="60.545,482 60.545,512 90.545,512 90.545,452 "/>
<polygon style="fill:#8B2613;" points="451.455,482 451.455,512 421.455,512 421.455,452 "/>
<polygon style="fill:#D95D27;" points="226.395,16 226.395,316 451.455,256 451.455,15 "/>
<polygon style="fill:#26D4F8;" points="90.965,15 90.965,256 256,316 256,15 "/>
<path style="fill:#1B94AD;" d="M188.455,118.129V60h-30v58.129c-13.242,5.787-22.5,18.995-22.5,35.371V286h75V153.5
	C210.955,137.124,201.697,123.917,188.455,118.129z"/>
<rect x="338.93" y="60.06" style="fill:#FCBA66;" width="30" height="30"/>
<polygon style="fill:#C7461F;" points="451.455,256 451.455,482 256,482 196,369 256,256 "/>
<polygon style="fill:#D95D27;" points="256,256 256,482 61.455,482 60.545,482 60.965,256 61.455,256 "/>
<polygon style="fill:#8B2613;" points="481,30 481,0 256,0 236,15 256,30 "/>
<rect x="31" style="fill:#C7461F;" width="225" height="30"/>
<g>
</g>
<g>
</g>
<g>
</g>
<g>
</g>
<g>
</g>
<g>
</g>
<g>
</g>
<g>
</g>
<g>
</g>
<g>
</g>
<g>
</g>
<g>
</g>
<g>
</g>
<g>
</g>
<g>
</g>
</svg>
