<?xml version="1.0" encoding="iso-8859-1"?>
<!-- Generator: Adobe Illustrator 19.0.0, SVG Export Plug-In . SVG Version: 6.00 Build 0)  -->
<svg version="1.1" id="Capa_1" xmlns="http://www.w3.org/2000/svg" xmlns:xlink="http://www.w3.org/1999/xlink" x="0px" y="0px"
	 viewBox="0 0 512 512" style="enable-background:new 0 0 512 512;" xml:space="preserve">
<rect x="121" y="10" style="fill:#AC8C63;" width="45" height="492"/>
<rect x="346" y="10" style="fill:#907154;" width="45" height="492"/>
<polygon style="fill:#7DE5FB;" points="361,15 361,360 166,420 256,15 "/>
<rect x="151" y="15" style="fill:#A8EEFC;" width="105" height="345"/>
<g>
	<rect x="181" y="150" style="fill:#21B4D3;" width="30" height="45"/>
	<rect x="241" y="150" style="fill:#21B4D3;" width="30" height="45"/>
	<rect x="301" y="150" style="fill:#21B4D3;" width="30" height="45"/>
	<rect x="181" y="60" style="fill:#21B4D3;" width="30" height="45"/>
	<rect x="241" y="60" style="fill:#21B4D3;" width="30" height="45"/>
	<rect x="301" y="60" style="fill:#21B4D3;" width="30" height="45"/>
	<rect x="181" y="330" style="fill:#21B4D3;" width="30" height="45"/>
	<rect x="241" y="330" style="fill:#21B4D3;" width="30" height="45"/>
	<rect x="301" y="330" style="fill:#21B4D3;" width="30" height="45"/>
	<rect x="181" y="240" style="fill:#21B4D3;" width="30" height="45"/>
	<rect x="241" y="240" style="fill:#21B4D3;" width="30" height="45"/>
	<rect x="301" y="240" style="fill:#21B4D3;" width="30" height="45"/>
</g>
<polygon style="fill:#907154;" points="371,210 371,180 256,180 236,195 256,210 "/>
<rect x="141" y="180" style="fill:#AC8C63;" width="115" height="30"/>
<polygon style="fill:#907154;" points="371,120 371,90 256,90 236,105 256,120 "/>
<rect x="141" y="90" style="fill:#AC8C63;" width="115" height="30"/>
<polygon style="fill:#907154;" points="371,300 371,270 256,270 236,285 256,300 "/>
<rect x="141" y="270" style="fill:#AC8C63;" width="115" height="30"/>
<polygon style="fill:#907154;" points="361,360 361,497 196,497 256,360 "/>
<rect x="151" y="360" style="fill:#AC8C63;" width="105" height="137"/>
<rect x="196" y="390" style="fill:#FFF2A3;" width="30" height="30"/>
<rect x="286" y="390" style="fill:#FCBA66;" width="30" height="30"/>
<polygon style="fill:#6C533A;" points="421,30 421,0 256,0 236,15 256,30 "/>
<rect x="91" style="fill:#907154;" width="165" height="30"/>
<polygon style="fill:#6C533A;" points="421,512 421,482 256,482 236,497 256,512 "/>
<rect x="91" y="482" style="fill:#907154;" width="165" height="30"/>
<g>
</g>
<g>
</g>
<g>
</g>
<g>
</g>
<g>
</g>
<g>
</g>
<g>
</g>
<g>
</g>
<g>
</g>
<g>
</g>
<g>
</g>
<g>
</g>
<g>
</g>
<g>
</g>
<g>
</g>
</svg>
