<?xml version="1.0" encoding="iso-8859-1"?>
<!-- Generator: Adobe Illustrator 19.0.0, SVG Export Plug-In . SVG Version: 6.00 Build 0)  -->
<svg version="1.1" id="Capa_1" xmlns="http://www.w3.org/2000/svg" xmlns:xlink="http://www.w3.org/1999/xlink" x="0px" y="0px"
	 viewBox="0 0 512 512" style="enable-background:new 0 0 512 512;" xml:space="preserve">
<polygon style="fill:#21B4D3;" points="512,368.5 482,368.5 482,308.5 512,338.5 "/>
<polygon style="fill:#26D4F8;" points="0,338.5 0,368.5 30,368.5 30,308.5 "/>
<polygon style="fill:#C7461F;" points="512,241 512,338.5 336.33,338.5 276.33,173.5 "/>
<rect x="409.17" y="221" style="fill:#26D4F8;" width="30" height="50"/>
<polygon style="fill:#D95D27;" points="512,143.5 512,241 276.33,241 336.33,143.5 409.165,143.5 424.165,153.5 439.165,143.5 "/>
<rect x="409.17" y="143.5" style="fill:#7DE5FB;" width="30" height="30"/>
<polygon style="fill:#26D4F8;" points="168.165,143.5 108.165,233.5 168.165,338.5 336.33,338.5 336.33,143.5 "/>
<rect y="143.5" style="fill:#7DE5FB;" width="168.16" height="195"/>
<rect x="100.67" y="188.5" style="fill:#21B4D3;" width="30" height="30"/>
<rect x="220.67" y="188.5" style="fill:#1B94AD;" width="30" height="30"/>
<g>
</g>
<g>
</g>
<g>
</g>
<g>
</g>
<g>
</g>
<g>
</g>
<g>
</g>
<g>
</g>
<g>
</g>
<g>
</g>
<g>
</g>
<g>
</g>
<g>
</g>
<g>
</g>
<g>
</g>
</svg>
