<?xml version="1.0" encoding="iso-8859-1"?>
<!-- Generator: Adobe Illustrator 19.0.0, SVG Export Plug-In . SVG Version: 6.00 Build 0)  -->
<svg version="1.1" id="Capa_1" xmlns="http://www.w3.org/2000/svg" xmlns:xlink="http://www.w3.org/1999/xlink" x="0px" y="0px"
	 viewBox="0 0 512 512" style="enable-background:new 0 0 512 512;" xml:space="preserve">
<rect x="241" y="209.5" style="fill:#355669;" width="45" height="75"/>
<rect x="226" y="209.5" style="fill:#1B94AD;" width="30" height="75"/>
<polygon style="fill:#21B4D3;" points="512,489.5 482,489.5 482,429.5 512,459.5 "/>
<polygon style="fill:#26D4F8;" points="0,459.5 0,489.5 30,489.5 30,429.5 "/>
<polygon style="fill:#C7461F;" points="512,362 512,459.5 336.33,459.5 276.33,294.5 "/>
<rect x="409.17" y="342" style="fill:#26D4F8;" width="30" height="50"/>
<polygon style="fill:#D95D27;" points="512,264.5 512,362 276.33,362 336.33,264.5 409.165,264.5 424.165,274.5 439.165,264.5 "/>
<rect x="409.17" y="264.5" style="fill:#7DE5FB;" width="30" height="30"/>
<polygon style="fill:#26D4F8;" points="168.165,264.5 108.165,354.5 168.165,459.5 336.33,459.5 336.33,264.5 "/>
<rect y="264.5" style="fill:#7DE5FB;" width="168.16" height="195"/>
<rect x="100.67" y="309.5" style="fill:#21B4D3;" width="30" height="30"/>
<rect x="220.67" y="309.5" style="fill:#1B94AD;" width="30" height="30"/>
<polygon style="fill:#480306;" points="421.5,22.5 256,22.5 196,128.5 256,234.5 421.5,234.5 "/>
<rect x="90.5" y="22.5" style="fill:#355669;" width="165.5" height="212"/>
<g>
</g>
<g>
</g>
<g>
</g>
<g>
</g>
<g>
</g>
<g>
</g>
<g>
</g>
<g>
</g>
<g>
</g>
<g>
</g>
<g>
</g>
<g>
</g>
<g>
</g>
<g>
</g>
<g>
</g>
</svg>
