<?xml version="1.0" encoding="iso-8859-1"?>
<!-- Generator: Adobe Illustrator 19.0.0, SVG Export Plug-In . SVG Version: 6.00 Build 0)  -->
<svg version="1.1" id="Capa_1" xmlns="http://www.w3.org/2000/svg" xmlns:xlink="http://www.w3.org/1999/xlink" x="0px" y="0px"
	 viewBox="0 0 512 512" style="enable-background:new 0 0 512 512;" xml:space="preserve">
<polygon style="fill:#480306;" points="406,452 406,512 436,512 436,482 "/>
<polygon style="fill:#8B2613;" points="436,0 436,122 286,152 316,0 "/>
<rect x="361" y="45" style="fill:#480306;" width="30" height="30"/>
<polygon style="fill:#C7461F;" points="256,0 226,152 316,152 316,0 "/>
<polygon style="fill:#D95D27;" points="196,0 166,152 256,152 256,0 "/>
<polygon style="fill:#EB7330;" points="76,0 76,122 196,152 196,0 "/>
<rect x="121" y="45" style="fill:#C7461F;" width="30" height="30"/>
<rect x="241" y="45" style="fill:#8B2613;" width="30" height="30"/>
<polygon style="fill:#F9963B;" points="436,122 436,189.5 286,257 316,122 "/>
<polygon style="fill:#EB7330;" points="436,189.5 436,272 286,332 286,189.5 "/>
<polygon style="fill:#FCBA66;" points="256,122 196,332 316,332 316,122 "/>
<polygon style="fill:#FFF2A3;" points="76,122 76,272 256,332 256,122 "/>
<polygon style="fill:#8B2613;" points="256,272 226,369.5 256,482 436,482 436,272 "/>
<line style="fill:none;stroke:#000000;stroke-width:30;stroke-miterlimit:10;" x1="436" y1="361.6" x2="436" y2="361.6"/>
<rect x="301" y="317" style="fill:#480306;" width="30" height="30"/>
<polygon style="fill:#8B2613;" points="76,482 76,512 106,512 106,452 "/>
<rect x="76" y="272" style="fill:#C7461F;" width="180" height="210"/>
<rect x="181" y="317" style="fill:#8B2613;" width="30" height="30"/>
<polygon style="fill:#F9963B;" points="466,287 466,257 256,257 236,272 256,287 "/>
<rect x="46" y="257" style="fill:#FCBA66;" width="210" height="30"/>
<g>
</g>
<g>
</g>
<g>
</g>
<g>
</g>
<g>
</g>
<g>
</g>
<g>
</g>
<g>
</g>
<g>
</g>
<g>
</g>
<g>
</g>
<g>
</g>
<g>
</g>
<g>
</g>
<g>
</g>
</svg>
