<?xml version="1.0" encoding="iso-8859-1"?>
<!-- Generator: Adobe Illustrator 19.0.0, SVG Export Plug-In . SVG Version: 6.00 Build 0)  -->
<svg version="1.1" id="Capa_1" xmlns="http://www.w3.org/2000/svg" xmlns:xlink="http://www.w3.org/1999/xlink" x="0px" y="0px"
	 viewBox="0 0 512 512" style="enable-background:new 0 0 512 512;" xml:space="preserve">
<polygon style="fill:#26D4F8;" points="421,101 421,0 346,0 346,101 255,166 255,181 502,181 512,166 "/>
<polygon style="fill:#BDB5B2;" points="225,166 255,196 512,196 512,166 "/>
<rect x="112.5" y="241" style="fill:#7A6C64;" width="30" height="105"/>
<rect x="48.75" y="271" style="fill:#BDB5B2;" width="30" height="75"/>
<rect x="176.25" y="271" style="fill:#9B918B;" width="30" height="75"/>
<polygon style="fill:#480306;" points="512,316 512,512 255,512 205,414 255,316 "/>
<polygon style="fill:#C7461F;" points="127.5,0 77.5,98 127.5,196 255,196 255,0 "/>
<rect x="303.75" y="361" style="fill:#7A6C64;" width="159.5" height="30"/>
<rect x="176.25" y="121" style="fill:#480306;" width="30" height="30"/>
<polygon style="fill:#C7461F;" points="255,316 255,512 127.5,512 77.5,414 127.5,316 "/>
<rect x="176.25" y="361" style="fill:#480306;" width="30" height="30"/>
<rect y="316" style="fill:#D95D27;" width="127.5" height="196"/>
<rect x="48.75" y="361" style="fill:#8B2613;" width="30" height="30"/>
<rect style="fill:#D95D27;" width="127.5" height="196"/>
<rect x="48.75" y="121" style="fill:#8B2613;" width="30" height="30"/>
<g>
</g>
<g>
</g>
<g>
</g>
<g>
</g>
<g>
</g>
<g>
</g>
<g>
</g>
<g>
</g>
<g>
</g>
<g>
</g>
<g>
</g>
<g>
</g>
<g>
</g>
<g>
</g>
<g>
</g>
</svg>
