<?xml version="1.0" encoding="iso-8859-1"?>
<!-- Generator: Adobe Illustrator 19.0.0, SVG Export Plug-In . SVG Version: 6.00 Build 0)  -->
<svg version="1.1" id="Capa_1" xmlns="http://www.w3.org/2000/svg" xmlns:xlink="http://www.w3.org/1999/xlink" x="0px" y="0px"
	 viewBox="0 0 512 512" style="enable-background:new 0 0 512 512;" xml:space="preserve">
<polygon style="fill:#480306;" points="497,482 497,512 467,512 467,452 "/>
<polygon style="fill:#21B4D3;" points="396.33,180.5 336.33,0 175.67,0 115.67,180.5 "/>
<polygon style="fill:#26D4F8;" points="175.67,180.5 175.67,0 15,0 15,120.5 "/>
<polygon style="fill:#1B94AD;" points="366.33,301 366.33,120.5 175.67,120.5 115.67,301 "/>
<polygon style="fill:#21B4D3;" points="175.67,301 175.67,120.5 15,120.5 15,241 "/>
<g>
	<polygon style="fill:#480306;" points="175.67,241 125.67,361.5 175.67,482 336.33,482 366.33,241 	"/>
	<polygon style="fill:#480306;" points="15,482 15,512 45,512 45,452 	"/>
</g>
<rect x="15" y="241" style="fill:#8B2613;" width="160.67" height="241"/>
<rect x="100.67" y="286" style="fill:#F9963B;" width="30" height="30"/>
<rect x="220.67" y="286" style="fill:#EB7330;" width="30" height="30"/>
<polygon style="fill:#8B2613;" points="497,361.5 497,482 336.33,482 336.33,361.5 416.665,301.5 "/>
<polygon style="fill:#C7461F;" points="497,241 497,361.5 336.33,361.5 336.33,241 416.665,181 "/>
<rect x="401.67" y="406.75" style="fill:#F9963B;" width="30" height="30"/>
<rect x="401.67" y="286.25" style="fill:#FCBA66;" width="30" height="30"/>
<polygon style="fill:#480306;" points="497,120.5 497,241 336.33,241 336.33,120.5 416.665,60.5 "/>
<rect x="336.33" style="fill:#8B2613;" width="160.67" height="120.5"/>
<g>
</g>
<g>
</g>
<g>
</g>
<g>
</g>
<g>
</g>
<g>
</g>
<g>
</g>
<g>
</g>
<g>
</g>
<g>
</g>
<g>
</g>
<g>
</g>
<g>
</g>
<g>
</g>
<g>
</g>
</svg>
