<?xml version="1.0" encoding="iso-8859-1"?>
<!-- Generator: Adobe Illustrator 19.0.0, SVG Export Plug-In . SVG Version: 6.00 Build 0)  -->
<svg version="1.1" id="Capa_1" xmlns="http://www.w3.org/2000/svg" xmlns:xlink="http://www.w3.org/1999/xlink" x="0px" y="0px"
	 viewBox="0 0 512 512" style="enable-background:new 0 0 512 512;" xml:space="preserve">
<polygon style="fill:#D6D0CD;" points="421,90 421,347 226,407 226,30 "/>
<polygon style="fill:#FFFFFF;" points="256,30 256,407 91,347 91,90 "/>
<polygon style="fill:#9B918B;" points="441,347 441,467 256,467 206,347 "/>
<rect x="71" y="347" style="fill:#BDB5B2;" width="185" height="120"/>
<polygon style="fill:#9B918B;" points="421,0 441,90 256,90 216,45 256,0 "/>
<polygon style="fill:#BDB5B2;" points="256,0 256,90 71,90 91,0 "/>
<rect x="143.5" y="392" style="fill:#9B918B;" width="60" height="30"/>
<rect x="308.5" y="392" style="fill:#7A6C64;" width="60" height="30"/>
<rect x="277" y="150" style="fill:#480306;" width="30" height="30"/>
<rect x="205" y="150" style="fill:#8B2613;" width="30" height="30"/>
<rect x="349" y="150" style="fill:#480306;" width="30" height="30"/>
<rect x="133" y="150" style="fill:#8B2613;" width="30" height="30"/>
<rect x="61" style="fill:#D6D0CD;" width="30" height="512"/>
<rect x="421" style="fill:#BDB5B2;" width="30" height="512"/>
<polygon style="fill:#8B2613;" points="481,362 481,332 256,332 236,347 256,362 "/>
<rect x="31" y="332" style="fill:#C7461F;" width="225" height="30"/>
<g>
</g>
<g>
</g>
<g>
</g>
<g>
</g>
<g>
</g>
<g>
</g>
<g>
</g>
<g>
</g>
<g>
</g>
<g>
</g>
<g>
</g>
<g>
</g>
<g>
</g>
<g>
</g>
<g>
</g>
</svg>
