<?xml version="1.0" encoding="iso-8859-1"?>
<!-- Generator: Adobe Illustrator 19.0.0, SVG Export Plug-In . SVG Version: 6.00 Build 0)  -->
<svg version="1.1" id="Capa_1" xmlns="http://www.w3.org/2000/svg" xmlns:xlink="http://www.w3.org/1999/xlink" x="0px" y="0px"
	 viewBox="0 0 512 512" style="enable-background:new 0 0 512 512;" xml:space="preserve">
<g>
	<polygon style="fill:#C7461F;" points="173.28,482 151,482 151,512 188.72,512 256,417.807 256,366.193 	"/>
	<polygon style="fill:#C7461F;" points="338.72,482 256,366.193 256,417.807 323.28,512 361,512 361,482 	"/>
</g>
<path style="fill:#8B2613;" d="M316,60h-60V30h60c8.271,0,15-6.729,15-15V0h30v15C361,39.813,340.813,60,316,60z"/>
<path style="fill:#C7461F;" d="M256,90h-60c-24.813,0-45-20.187-45-45V30h30v15c0,8.271,6.729,15,15,15h60V90z"/>
<path style="fill:#8B2613;" d="M316,150h-60v-30h60c8.271,0,15-6.729,15-15V90h30v15C361,129.813,340.813,150,316,150z"/>
<path style="fill:#C7461F;" d="M256,180h-60c-24.813,0-45-20.187-45-45v-15h30v15c0,8.271,6.729,15,15,15h60V180z"/>
<polygon style="fill:#8B2613;" points="241,387.193 241,512 271,512 271,387.193 256,366.193 "/>
<rect x="241" style="fill:#480306;" width="30" height="387.19"/>
<g>
</g>
<g>
</g>
<g>
</g>
<g>
</g>
<g>
</g>
<g>
</g>
<g>
</g>
<g>
</g>
<g>
</g>
<g>
</g>
<g>
</g>
<g>
</g>
<g>
</g>
<g>
</g>
<g>
</g>
</svg>
