<?xml version="1.0" encoding="iso-8859-1"?>
<!-- Generator: Adobe Illustrator 19.0.0, SVG Export Plug-In . SVG Version: 6.00 Build 0)  -->
<svg version="1.1" id="Capa_1" xmlns="http://www.w3.org/2000/svg" xmlns:xlink="http://www.w3.org/1999/xlink" x="0px" y="0px"
	 viewBox="0 0 512 512" style="enable-background:new 0 0 512 512;" xml:space="preserve">
<g>
	<rect x="241" y="120" style="fill:#480306;" width="30" height="122"/>
	<polygon style="fill:#480306;" points="422,512 392,512 392,452 422,482 	"/>
</g>
<g>
	<polygon style="fill:#593927;" points="90,482 90,512 120,512 120,452 	"/>
	<polygon style="fill:#593927;" points="422,347 422,482 256,482 196,287 	"/>
</g>
<g>
	<polygon style="fill:#6C533A;" points="256,287 256,482 90,482 90,347 	"/>
	<polygon style="fill:#6C533A;" points="422,212 422,347 256,347 196,279.5 256,212 	"/>
</g>
<rect x="90" y="212" style="fill:#907154;" width="166" height="135"/>
<polygon style="fill:#FEDD90;" points="308.707,0 256,0 226,75 256,150 333.707,150 "/>
<polygon style="fill:#FFF2A3;" points="203.293,0 178.293,150 256,150 256,0 "/>
<polygon style="fill:#593927;" points="301,294.5 301,264.5 256,264.5 236,279.5 256,294.5 "/>
<rect x="211" y="264.5" style="fill:#6C533A;" width="45" height="30"/>
<polygon style="fill:#480306;" points="301,429.5 301,399.5 256,399.5 236,414.5 256,429.5 "/>
<rect x="211" y="399.5" style="fill:#593927;" width="45" height="30"/>
<g>
</g>
<g>
</g>
<g>
</g>
<g>
</g>
<g>
</g>
<g>
</g>
<g>
</g>
<g>
</g>
<g>
</g>
<g>
</g>
<g>
</g>
<g>
</g>
<g>
</g>
<g>
</g>
<g>
</g>
</svg>
