<?xml version="1.0" encoding="iso-8859-1"?>
<!-- Generator: Adobe Illustrator 19.0.0, SVG Export Plug-In . SVG Version: 6.00 Build 0)  -->
<svg version="1.1" id="Capa_1" xmlns="http://www.w3.org/2000/svg" xmlns:xlink="http://www.w3.org/1999/xlink" x="0px" y="0px"
	 viewBox="0 0 512 512" style="enable-background:new 0 0 512 512;" xml:space="preserve">
<polygon style="fill:#8B2613;" points="2.5,0 2.5,352.1 257.5,352.1 167.5,0 "/>
<polygon style="fill:#480306;" points="165,0 165,381.1 420,381.1 330,0 "/>
<path style="fill:#FFF2A3;" d="M270,302v35H135l30-95h45C243,242,270,269,270,302z"/>
<path style="fill:#FFFFFF;" d="M165,242v95H59v-35c0-33,27-60,60-60H165z"/>
<path style="fill:#21B4D3;" d="M330,362l30,60H135l30-120h105C303,302,330,329,330,362z"/>
<path style="fill:#26D4F8;" d="M0,362v30l165,30V302H60C27,302,0,329,0,362z"/>
<polygon style="fill:#FCBA66;" points="30,512 0,512 0,482 30,452 "/>
<rect y="392" style="fill:#EB7330;" width="165" height="90"/>
<rect x="165" y="392" style="fill:#D95D27;" width="195" height="90"/>
<polygon style="fill:#8B2613;" points="421,342 330,392 330,512 512,512 512,392 "/>
<polygon style="fill:#C7461F;" points="330,272 330,392 512,392 512,272 421,222 "/>
<rect x="391" y="317" style="fill:#8B2613;" width="60" height="30"/>
<rect x="391" y="437" style="fill:#480306;" width="60" height="30"/>
<polygon style="fill:#FCBA66;" points="421,30 330,60 330,272 512,272 512,60 "/>
<rect x="330" style="fill:#C7461F;" width="182" height="60"/>
<g>
</g>
<g>
</g>
<g>
</g>
<g>
</g>
<g>
</g>
<g>
</g>
<g>
</g>
<g>
</g>
<g>
</g>
<g>
</g>
<g>
</g>
<g>
</g>
<g>
</g>
<g>
</g>
<g>
</g>
</svg>
