<?xml version="1.0" encoding="iso-8859-1"?>
<!-- Generator: Adobe Illustrator 19.0.0, SVG Export Plug-In . SVG Version: 6.00 Build 0)  -->
<svg version="1.1" id="Capa_1" xmlns="http://www.w3.org/2000/svg" xmlns:xlink="http://www.w3.org/1999/xlink" x="0px" y="0px"
	 viewBox="0 0 512 512" style="enable-background:new 0 0 512 512;" xml:space="preserve">
<path style="fill:#FFF2A3;" d="M180,105v60L30,105c0-33,27-60,60-60h30C153,45,180,72,180,105z"/>
<path style="fill:#21B4D3;" d="M482,165l-256,40l30-100h166C455,105,482,132,482,165z"/>
<polygon style="fill:#26D4F8;" points="256,105 256,195 135,195 180,105 "/>
<polygon style="fill:#FEDD90;" points="180,105 180,195 15,165 15,105 "/>
<polygon style="fill:#8B2613;" points="497,165 497,225 256,225 226,195 256,165 "/>
<rect x="15" y="165" style="fill:#C7461F;" width="241" height="60"/>
<path style="fill:#FFF2A3;" d="M180,347v60L30,347c0-33,27-60,60-60h30C153,287,180,314,180,347z"/>
<path style="fill:#21B4D3;" d="M482,407l-256,40l30-100h166C455,347,482,374,482,407z"/>
<polygon style="fill:#26D4F8;" points="256,347 256,437 135,437 180,347 "/>
<polygon style="fill:#FEDD90;" points="180,347 180,437 15,407 15,347 "/>
<polygon style="fill:#8B2613;" points="497,407 497,467 256,467 226,437 256,407 "/>
<rect x="15" y="407" style="fill:#C7461F;" width="241" height="60"/>
<rect style="fill:#EB7330;" width="30" height="512"/>
<rect x="482" style="fill:#C7461F;" width="30" height="512"/>
<g>
</g>
<g>
</g>
<g>
</g>
<g>
</g>
<g>
</g>
<g>
</g>
<g>
</g>
<g>
</g>
<g>
</g>
<g>
</g>
<g>
</g>
<g>
</g>
<g>
</g>
<g>
</g>
<g>
</g>
</svg>
