<?xml version="1.0" encoding="iso-8859-1"?>
<!-- Generator: Adobe Illustrator 19.0.0, SVG Export Plug-In . SVG Version: 6.00 Build 0)  -->
<svg version="1.1" id="Capa_1" xmlns="http://www.w3.org/2000/svg" xmlns:xlink="http://www.w3.org/1999/xlink" x="0px" y="0px"
	 viewBox="0 0 512 512" style="enable-background:new 0 0 512 512;" xml:space="preserve">
<polygon style="fill:#C7461F;" points="256,30 196,255 422,255 422,30 "/>
<rect x="90" y="30" style="fill:#D95D27;" width="166" height="225"/>
<polygon style="fill:#FCBA66;" points="105,512 75,512 75,482 105,452 "/>
<polygon style="fill:#F9963B;" points="437,512 407,512 407,452 437,482 "/>
<rect x="75" style="fill:#C7461F;" width="30" height="240"/>
<rect x="407" style="fill:#8B2613;" width="30" height="240"/>
<path style="fill:#FFF2A3;" d="M377,180c0-33-27-60-60-60h-61l-50,105h171V180z"/>
<path style="fill:#FFFFFF;" d="M195,120c-33,0-60,27-60,60v45h121V120H195z"/>
<path style="fill:#26D4F8;" d="M377,180H256l-60,195l241-60v-75C437,207,410,180,377,180z"/>
<path style="fill:#7DE5FB;" d="M256,180H135c-33,0-60,27-60,60v75l181,60V180z"/>
<polygon style="fill:#8B2613;" points="256,482 437,482 437,315 256,315 206,398.5 "/>
<rect x="75" y="315" style="fill:#C7461F;" width="181" height="167"/>
<g>
</g>
<g>
</g>
<g>
</g>
<g>
</g>
<g>
</g>
<g>
</g>
<g>
</g>
<g>
</g>
<g>
</g>
<g>
</g>
<g>
</g>
<g>
</g>
<g>
</g>
<g>
</g>
<g>
</g>
</svg>
