<?xml version="1.0" encoding="iso-8859-1"?>
<!-- Generator: Adobe Illustrator 19.0.0, SVG Export Plug-In . SVG Version: 6.00 Build 0)  -->
<svg version="1.1" id="Capa_1" xmlns="http://www.w3.org/2000/svg" xmlns:xlink="http://www.w3.org/1999/xlink" x="0px" y="0px"
	 viewBox="0 0 512 512" style="enable-background:new 0 0 512 512;" xml:space="preserve">
<polygon style="fill:#FEDD90;" points="60.204,379.733 72.293,452.267 145.707,452.267 157.796,379.733 157.796,319.733 "/>
<polygon style="fill:#FCBA66;" points="353.796,379.733 365.885,452.267 439.707,452.267 451.796,379.733 353.796,319.733 "/>
<path style="fill:#1B94AD;" d="M392,59.733h-68v180l188-60C512,113.733,458,59.733,392,59.733z"/>
<path style="fill:#267083;" d="M353.796,379.733h98c33,0,60.204-27,60.204-60v-140H353.796V379.733z"/>
<path style="fill:#21B4D3;" d="M324,59.733h-68l-90,180l218-60C384,113.733,357,59.733,324,59.733z"/>
<path style="fill:#1B94AD;" d="M256,379.733h97.796c16.5,0,30.204-27,30.204-60v-140H166L256,379.733z"/>
<path style="fill:#7DE5FB;" d="M188,59.733h-68c-66,0-120,54-120,120l188,60V59.733z"/>
<g>
	<path style="fill:#26D4F8;" d="M0,179.733v140c0,33,26.796,60,59.796,60h98v-200H0z"/>
	<path style="fill:#26D4F8;" d="M256,59.733h-68c-33,0-60,54-60,120l64,60l64-60V59.733z"/>
</g>
<path style="fill:#21B4D3;" d="M128,179.733v140c0,33,13.296,60,29.796,60H256v-200H128z"/>
<g>
</g>
<g>
</g>
<g>
</g>
<g>
</g>
<g>
</g>
<g>
</g>
<g>
</g>
<g>
</g>
<g>
</g>
<g>
</g>
<g>
</g>
<g>
</g>
<g>
</g>
<g>
</g>
<g>
</g>
</svg>
