<?xml version="1.0" encoding="iso-8859-1"?>
<!-- Generator: Adobe Illustrator 19.0.0, SVG Export Plug-In . SVG Version: 6.00 Build 0)  -->
<svg version="1.1" id="Capa_1" xmlns="http://www.w3.org/2000/svg" xmlns:xlink="http://www.w3.org/1999/xlink" x="0px" y="0px"
	 viewBox="0 0 512 512" style="enable-background:new 0 0 512 512;" xml:space="preserve">
<polygon style="fill:#F9963B;" points="372.342,120 372.342,45 226,45 256,120 "/>
<rect x="139.66" y="45" style="fill:#FCBA66;" width="116.34" height="75"/>
<polygon style="fill:#F9963B;" points="372.342,240.667 372.342,210.667 256,210.667 236,225.667 256,240.667 "/>
<rect x="139.66" y="210.67" style="fill:#FCBA66;" width="116.34" height="30"/>
<polygon style="fill:#BDB5B2;" points="382.685,391.333 382.685,361.333 256,361.333 236,376.333 256,391.333 "/>
<rect x="129.31" y="361.33" style="fill:#D6D0CD;" width="126.69" height="30"/>
<polygon style="fill:#EB7330;" points="407.032,512 376.965,73.973 347.035,76.027 376.962,512 "/>
<polygon style="fill:#F9963B;" points="104.968,512 135.035,73.973 164.965,76.027 135.038,512 "/>
<polygon style="fill:#8B2613;" points="407,0 256,0 226,45 256,90 407,90 "/>
<rect x="105" style="fill:#C7461F;" width="151" height="90"/>
<g>
</g>
<g>
</g>
<g>
</g>
<g>
</g>
<g>
</g>
<g>
</g>
<g>
</g>
<g>
</g>
<g>
</g>
<g>
</g>
<g>
</g>
<g>
</g>
<g>
</g>
<g>
</g>
<g>
</g>
</svg>
