<?xml version="1.0" encoding="iso-8859-1"?>
<!-- Generator: Adobe Illustrator 19.0.0, SVG Export Plug-In . SVG Version: 6.00 Build 0)  -->
<svg version="1.1" id="Capa_1" xmlns="http://www.w3.org/2000/svg" xmlns:xlink="http://www.w3.org/1999/xlink" x="0px" y="0px"
	 viewBox="0 0 512 512" style="enable-background:new 0 0 512 512;" xml:space="preserve">
<path style="fill:#BDB5B2;" d="M459.5,134c-28.99,0-52.5,23.51-52.5,52.5L317,332l90,180h67.5V236.81
	c21.68-6.45,37.5-26.53,37.5-50.31C512,157.51,488.49,134,459.5,134z"/>
<path style="fill:#D6D0CD;" d="M52.5,134C23.51,134,0,157.51,0,186.5c0,23.78,15.82,43.86,37.5,50.31V512H105l90-180l-90-145.5
	C105,157.51,81.49,134,52.5,134z"/>
<polygon style="fill:#7A6C64;" points="407,392 407,512 347,512 317,362 "/>
<polygon style="fill:#BDB5B2;" points="347,362 347,512 256,512 211,362 "/>
<polygon style="fill:#9B918B;" points="195,362 165,512 105,512 105,392 "/>
<rect x="165" y="362" style="fill:#D6D0CD;" width="91" height="150"/>
<path style="fill:#7A6C64;" d="M347,0L226,30v302h181V60C407,27,380,0,347,0z"/>
<path style="fill:#9B918B;" d="M165,0c-33,0-60,27-60,60v272h151V30L165,0z"/>
<path style="fill:#BDB5B2;" d="M347,0v15c0,24.75-20.25,45-45,45h-46l-30-30l30-30H347z"/>
<path style="fill:#D6D0CD;" d="M256,0v60h-46c-24.75,0-45-20.25-45-45V0H256z"/>
<path style="fill:#9B918B;" d="M347,272h-91l-60,60l60,60h151v-60C407,299,380,272,347,272z"/>
<path style="fill:#BDB5B2;" d="M165,272c-33,0-60,27-60,60v60h151V272H165z"/>
<g>
</g>
<g>
</g>
<g>
</g>
<g>
</g>
<g>
</g>
<g>
</g>
<g>
</g>
<g>
</g>
<g>
</g>
<g>
</g>
<g>
</g>
<g>
</g>
<g>
</g>
<g>
</g>
<g>
</g>
</svg>
