<?xml version="1.0" encoding="iso-8859-1"?>
<!-- Generator: Adobe Illustrator 19.0.0, SVG Export Plug-In . SVG Version: 6.00 Build 0)  -->
<svg version="1.1" id="Capa_1" xmlns="http://www.w3.org/2000/svg" xmlns:xlink="http://www.w3.org/1999/xlink" x="0px" y="0px"
	 viewBox="0 0 512 512" style="enable-background:new 0 0 512 512;" xml:space="preserve">
<polygon style="fill:#EB7330;" points="512,512 482,512 482,467 512,482 "/>
<polygon style="fill:#F9963B;" points="30,512 0,512 0,482 30,467 "/>
<polygon style="fill:#480306;" points="256,482 512,482 512,452 196,422 "/>
<polygon style="fill:#593927;" points="0,452 0,482 256,482 256,422 "/>
<path style="fill:#21B4D3;" d="M512,198c0-43.561-35.439-79-79-79H106l150,333h256V198z"/>
<g>
	<path style="fill:#26D4F8;" d="M79,119c-43.561,0-79,35.439-79,79v254h256V119H79z"/>
	<path style="fill:#26D4F8;" d="M437,75c0-41.355-33.645-75-75-75H256l-70,332h251V75z"/>
</g>
<path style="fill:#7DE5FB;" d="M150,0c-41.355,0-75,33.645-75,75v257h181V0H150z"/>
<path style="fill:#1B94AD;" d="M437,332c0-41.355-33.645-75-75-75H256l-60,60l60,60h181V332z"/>
<rect x="150.5" y="119" style="fill:#26D4F8;" width="30" height="30"/>
<g>
	<rect x="331.5" y="119" style="fill:#21B4D3;" width="30" height="30"/>
	<path style="fill:#21B4D3;" d="M150,257c-41.355,0-75,33.645-75,75v45h181V257H150z"/>
</g>
<g>
</g>
<g>
</g>
<g>
</g>
<g>
</g>
<g>
</g>
<g>
</g>
<g>
</g>
<g>
</g>
<g>
</g>
<g>
</g>
<g>
</g>
<g>
</g>
<g>
</g>
<g>
</g>
<g>
</g>
</svg>
