<?xml version="1.0" encoding="iso-8859-1"?>
<!-- Generator: Adobe Illustrator 19.0.0, SVG Export Plug-In . SVG Version: 6.00 Build 0)  -->
<svg version="1.1" id="Capa_1" xmlns="http://www.w3.org/2000/svg" xmlns:xlink="http://www.w3.org/1999/xlink" x="0px" y="0px"
	 viewBox="0 0 512 512" style="enable-background:new 0 0 512 512;" xml:space="preserve">
<polygon style="fill:#EB7330;" points="512,451 482,451 482,406 512,421 "/>
<polygon style="fill:#F9963B;" points="30,451 0,451 0,421 30,406 "/>
<polygon style="fill:#480306;" points="256,421 512,421 512,391 196,361 "/>
<polygon style="fill:#593927;" points="0,391 0,421 256,421 256,361 "/>
<path style="fill:#21B4D3;" d="M512,196c0-24.853-20.147-45-45-45H156l100,240h256V196z"/>
<g>
	<path style="fill:#26D4F8;" d="M45,151c-24.853,0-45,20.147-45,45v195h256V151H45z"/>
	<path style="fill:#26D4F8;" d="M452,106v180l-266,25l70-205c0-24.75,20.25-45,45-45h106C431.75,61,452,81.25,452,106z"/>
</g>
<path style="fill:#7DE5FB;" d="M256,106v205L60,286V106c0-24.75,35.25-45,60-45h91C235.75,61,256,81.25,256,106z"/>
<path style="fill:#1B94AD;" d="M452,286v45H256l-30-20l30-25c0-24.75,20.25-45,45-45h106C431.75,241,452,261.25,452,286z"/>
<g>
	<path style="fill:#21B4D3;" d="M211,241H105c-24.75,0-45,20.25-45,45v45h196v-45C256,261.25,235.75,241,211,241z"/>
	<rect x="339" y="136" style="fill:#21B4D3;" width="30" height="30"/>
</g>
<rect x="143" y="136" style="fill:#26D4F8;" width="30" height="30"/>
<g>
</g>
<g>
</g>
<g>
</g>
<g>
</g>
<g>
</g>
<g>
</g>
<g>
</g>
<g>
</g>
<g>
</g>
<g>
</g>
<g>
</g>
<g>
</g>
<g>
</g>
<g>
</g>
<g>
</g>
</svg>
