<?xml version="1.0" encoding="iso-8859-1"?>
<!-- Generator: Adobe Illustrator 19.0.0, SVG Export Plug-In . SVG Version: 6.00 Build 0)  -->
<svg version="1.1" id="Capa_1" xmlns="http://www.w3.org/2000/svg" xmlns:xlink="http://www.w3.org/1999/xlink" x="0px" y="0px"
	 viewBox="0 0 512 512" style="enable-background:new 0 0 512 512;" xml:space="preserve">
<path style="fill:#593927;" d="M501.382,411.615c0.174-0.586,0.347-1.173,0.521-1.761l-31.266-30v30
	c-4.52,15.758-8.637,33.627-8.637,64.999v15h50v-30h-19.615C493.582,437.939,497.39,425.086,501.382,411.615z"/>
<path style="fill:#6C533A;" d="M10.005,411.615c3.991,13.471,8.417,26.324,9.614,48.238H0.005v30h50v-15
	c0-31.373-4.117-49.242-8.637-64.999v-30l-31.882,30C9.658,410.443,9.831,411.029,10.005,411.615z"/>
<path style="fill:#E3C281;" d="M407.001,70.858c-19.217,0-37.022,6.029-51.641,16.291c-22.545-30.341-58.654-50.002-99.358-50.002
	l-50,106.854l50,106.854h150.999c49.706,0,89.999-40.294,89.999-89.999S456.706,70.858,407.001,70.858z"/>
<path style="fill:#FEDD90;" d="M156.644,87.149c-14.618-10.262-32.424-16.291-51.641-16.291c-49.706,0-89.999,40.294-89.999,89.999
	s40.294,89.999,89.999,89.999h150.999V37.147C215.298,37.147,179.189,56.808,156.644,87.149z"/>
<rect x="89.999" y="145.859" style="fill:#FFFFFF;" width="30" height="30"/>
<rect x="391.996" y="145.859" style="fill:#FFF2A3;" width="30" height="30"/>
<path style="fill:#593927;" d="M407.001,55.858c-16.997,0-33.463,4.034-48.318,11.758c-11.191-12.298-24.591-22.605-39.333-30.186
	c-19.443-9.999-41.349-15.284-63.348-15.284l-20,15l20,15c34.739,0,66.565,16.019,87.318,43.948l8.708,11.719l11.95-8.388
	C376.623,90.549,391.5,85.857,407,85.857c41.355,0,74.999,33.645,74.999,74.999S448.355,235.855,407,235.855v30
	c57.896,0,104.999-47.103,104.999-104.999C512,102.96,464.897,55.858,407.001,55.858z"/>
<path style="fill:#6C533A;" d="M105.004,235.856c-41.355,0-74.999-33.645-74.999-74.999s33.645-74.999,74.999-74.999
	c15.501,0,30.378,4.692,43.022,13.568l11.95,8.389l8.708-11.719c20.754-27.93,52.58-43.948,87.318-43.948v-30
	c-22,0-43.905,5.285-63.348,15.284c-14.742,7.581-28.142,17.888-39.333,30.185C138.467,59.892,122,55.859,105.003,55.859
	c-57.896,0-104.999,47.103-104.999,104.999s47.103,104.999,104.999,104.999v-30.001H105.004z"/>
<path style="fill:#FEDD90;" d="M406.996,235.856H255.997l-40,144.999l295.997-40C511.995,282.959,464.892,235.856,406.996,235.856z"
	/>
<path style="fill:#FFF2A3;" d="M104.999,235.856C47.103,235.856,0,282.959,0,340.855l255.997,40V235.856H104.999z"/>
<path style="fill:#593927;" d="M510.364,370.855c0.988-8.512,1.598-18.31,1.631-30H256.003l-40,69.999L510.364,370.855z"/>
<path style="fill:#6C533A;" d="M256.003,340.855H0.009c0.033,11.69,0.575,21.488,1.473,30l254.521,40V340.855z"/>
<path style="fill:#480306;" d="M256.003,370.855l-30,34.5l30,34.5c31.333,0,61.701-10.614,86.148-30h159.752
	c3.286-11.117,6.568-22.701,8.461-39H256.003z"/>
<path style="fill:#593927;" d="M1.482,370.855c1.719,16.299,4.743,27.883,8.004,39h160.368c24.446,19.386,54.815,30,86.148,30
	v-68.999H1.482z"/>
<g>
</g>
<g>
</g>
<g>
</g>
<g>
</g>
<g>
</g>
<g>
</g>
<g>
</g>
<g>
</g>
<g>
</g>
<g>
</g>
<g>
</g>
<g>
</g>
<g>
</g>
<g>
</g>
<g>
</g>
</svg>
