<?xml version="1.0" encoding="iso-8859-1"?>
<!-- Generator: Adobe Illustrator 19.0.0, SVG Export Plug-In . SVG Version: 6.00 Build 0)  -->
<svg version="1.1" id="Capa_1" xmlns="http://www.w3.org/2000/svg" xmlns:xlink="http://www.w3.org/1999/xlink" x="0px" y="0px"
	 viewBox="0 0 512 512" style="enable-background:new 0 0 512 512;" xml:space="preserve">
<rect x="317" y="166" style="fill:#D95D27;" width="30" height="136"/>
<rect x="226" y="166" style="fill:#EB7330;" width="30" height="136"/>
<path style="fill:#C7461F;" d="M377,196h30c0-24.813-20.187-45-45-45H256l-20,15l20,15h106C370.271,181,377,187.729,377,196z"/>
<rect x="109.64" y="151" style="fill:#D95D27;" width="146.37" height="30"/>
<polygon style="fill:#EB7330;" points="134.344,301 88.653,453.81 117.396,462.404 165.656,301 "/>
<polygon style="fill:#8B2613;" points="75.656,0 46.914,8.594 134.344,301 165.656,301 "/>
<rect x="303.505" y="364.569" transform="matrix(-0.2865 -0.9581 0.9581 -0.2865 132.2818 857.651)" style="fill:#D95D27;" width="163.983" height="30"/>
<polygon style="fill:#8B2613;" points="256,316 407,316 407,286 256,286 236,301 "/>
<rect x="105" y="286" style="fill:#C7461F;" width="151" height="30"/>
<path style="fill:#8B2613;" d="M471.395,392.781c-59.385,59.384-137.39,89.076-215.394,89.076l-20,15.072L256,512
	c89.378,0,173.406-34.806,236.606-98.006L471.395,392.781z"/>
<path style="fill:#C7461F;" d="M40.606,392.781l-21.213,21.213C82.594,477.194,166.622,512,256,512v-30.143
	C177.996,481.857,99.991,452.165,40.606,392.781z"/>
<g>
</g>
<g>
</g>
<g>
</g>
<g>
</g>
<g>
</g>
<g>
</g>
<g>
</g>
<g>
</g>
<g>
</g>
<g>
</g>
<g>
</g>
<g>
</g>
<g>
</g>
<g>
</g>
<g>
</g>
</svg>
