<?xml version="1.0" encoding="iso-8859-1"?>
<!-- Generator: Adobe Illustrator 19.0.0, SVG Export Plug-In . SVG Version: 6.00 Build 0)  -->
<svg version="1.1" id="Capa_1" xmlns="http://www.w3.org/2000/svg" xmlns:xlink="http://www.w3.org/1999/xlink" x="0px" y="0px"
	 viewBox="0 0 512 512" style="enable-background:new 0 0 512 512;" xml:space="preserve">
<path style="fill:#F9963B;" d="M407,150c0-27.587-9.595-54.527-27.018-75.857c-15.729-19.257-37.186-33.222-60.969-39.811
	C305.263,12.993,281.712,0,256,0l-50,362l201-31V150z"/>
<path style="fill:#FCBA66;" d="M192.986,34.333c-23.783,6.588-45.239,20.553-60.969,39.811C114.595,95.473,105,122.413,105,150v181
	l151,31V0C230.288,0,206.737,12.993,192.986,34.333z"/>
<path style="fill:#8B2613;" d="M407,512h-50v-15c0-35.925,5.397-54.144,10.618-71.761C372.442,408.955,377,393.575,377,362h30
	c0,35.925-5.397,54.144-10.618,71.761c-3.991,13.471-7.8,26.324-8.996,48.239H407V512z"/>
<g>
	<path style="fill:#C7461F;" d="M155,512h-50v-30h19.614c-1.196-21.915-5.005-34.768-8.996-48.239
		C110.397,416.144,105,397.925,105,362h30c0,31.575,4.558,46.955,9.382,63.239C149.603,442.856,155,461.075,155,497V512z"/>
	<rect x="165.5" y="135" style="fill:#C7461F;" width="30" height="30"/>
</g>
<rect x="316.5" y="135" style="fill:#8B2613;" width="30" height="30"/>
<path style="fill:#C7461F;" d="M482,196c-24.813,0-45,20.187-45,45v105h-61l31,30h60V241c0-8.271,6.729-15,15-15h15v-30H482z"/>
<path style="fill:#FCBA66;" d="M407,360v-29c0-41.355-33.645-75-75-75h-76l-50,104H407z"/>
<path style="fill:#FFF2A3;" d="M256,256h-76c-41.355,0-75,33.645-75,75v30h151V256z"/>
<path style="fill:#D95D27;" d="M30,196c24.813,0,45,20.187,45,45v105h61l-31,30H45V241c0-8.271-6.729-15-15-15H15v-30H30z"/>
<polygon style="fill:#F9963B;" points="256,346 236,362 256,376 407,376 407,346 "/>
<rect x="105" y="346" style="fill:#FCBA66;" width="151" height="30"/>
<g>
</g>
<g>
</g>
<g>
</g>
<g>
</g>
<g>
</g>
<g>
</g>
<g>
</g>
<g>
</g>
<g>
</g>
<g>
</g>
<g>
</g>
<g>
</g>
<g>
</g>
<g>
</g>
<g>
</g>
</svg>
