<?xml version="1.0" encoding="iso-8859-1"?>
<!-- Generator: Adobe Illustrator 19.0.0, SVG Export Plug-In . SVG Version: 6.00 Build 0)  -->
<svg version="1.1" id="Capa_1" xmlns="http://www.w3.org/2000/svg" xmlns:xlink="http://www.w3.org/1999/xlink" x="0px" y="0px"
	 viewBox="0 0 512 512" style="enable-background:new 0 0 512 512;" xml:space="preserve">
<rect x="120" y="422" style="fill:#907154;" width="136" height="30"/>
<rect x="256" y="422" style="fill:#6C533A;" width="136" height="30"/>
<rect x="241" y="316" style="fill:#9B918B;" width="30" height="121"/>
<path style="fill:#480306;" d="M392,512c-24.813,0-45-20.187-45-45s20.187-45,45-45s45,20.187,45,45S416.813,512,392,512z"/>
<path style="fill:#593927;" d="M120,512c-24.813,0-45-20.187-45-45s20.187-45,45-45s45,20.187,45,45S144.813,512,120,512z"/>
<path style="fill:#480306;" d="M256,422l-25,45l25,45c24.813,0,45-20.187,45-45S280.813,422,256,422z"/>
<path style="fill:#593927;" d="M211,467c0,24.813,20.187,45,45,45v-90C231.187,422,211,442.187,211,467z"/>
<path style="fill:#6C533A;" d="M407,75c0-41.355-33.645-75-75-75h-76l-70,316h221V75z"/>
<path style="fill:#907154;" d="M180,0c-41.355,0-75,33.645-75,75v241h151V0H180z"/>
<path style="fill:#480306;" d="M407,316c0-41.355-33.645-75-75-75h-76l-50,110l201-20V316z"/>
<path style="fill:#593927;" d="M180,241c-41.355,0-75,33.645-75,75v15l151,20V241H180z"/>
<polygon style="fill:#F9963B;" points="437,331 256,331 236,346 256,361 467,361 467,196 437,211 "/>
<rect x="437" y="181" style="fill:#480306;" width="60" height="30"/>
<polygon style="fill:#FCBA66;" points="75,331 75,211 45,196 45,361 256,361 256,331 "/>
<rect x="15" y="181" style="fill:#593927;" width="60" height="30"/>
<g>
</g>
<g>
</g>
<g>
</g>
<g>
</g>
<g>
</g>
<g>
</g>
<g>
</g>
<g>
</g>
<g>
</g>
<g>
</g>
<g>
</g>
<g>
</g>
<g>
</g>
<g>
</g>
<g>
</g>
</svg>
