<?xml version="1.0" encoding="iso-8859-1"?>
<!-- Generator: Adobe Illustrator 19.0.0, SVG Export Plug-In . SVG Version: 6.00 Build 0)  -->
<svg version="1.1" id="Capa_1" xmlns="http://www.w3.org/2000/svg" xmlns:xlink="http://www.w3.org/1999/xlink" x="0px" y="0px"
	 viewBox="0 0 512 512" style="enable-background:new 0 0 512 512;" xml:space="preserve">
<polygon style="fill:#9B918B;" points="105,361 105,391 151,391 171,376 151,361 "/>
<g>
	<polygon style="fill:#BDB5B2;" points="181,316 181,361 151,361 151,391 211,391 211,316 	"/>
	<rect x="120" y="422" style="fill:#BDB5B2;" width="136" height="30"/>
</g>
<g>
	<rect x="256" y="422" style="fill:#9B918B;" width="136" height="30"/>
	<rect x="241" y="316" style="fill:#9B918B;" width="30" height="121"/>
</g>
<rect x="241" y="196" style="fill:#480306;" width="45" height="60"/>
<rect x="226" y="196" style="fill:#593927;" width="30" height="60"/>
<path style="fill:#480306;" d="M392,512c-24.813,0-45-20.187-45-45s20.187-45,45-45s45,20.187,45,45S416.813,512,392,512z"/>
<path style="fill:#593927;" d="M120,512c-24.813,0-45-20.187-45-45s20.187-45,45-45s45,20.187,45,45S144.813,512,120,512z"/>
<path style="fill:#480306;" d="M256,422l-25,45l25,45c24.813,0,45-20.187,45-45S280.813,422,256,422z"/>
<path style="fill:#593927;" d="M211,467c0,24.813,20.187,45,45,45v-90C231.187,422,211,442.187,211,467z"/>
<path style="fill:#21B4D3;" d="M407,136V75c0-41.355-33.645-75-75-75h-76l-70,105.5L256,211h76C373.355,211,407,177.355,407,136z"/>
<path style="fill:#26D4F8;" d="M180,0c-41.355,0-75,33.645-75,75v61c0,41.355,33.645,75,75,75h76V0H180z"/>
<path style="fill:#21B4D3;" d="M407,331v-30c0-33.084-26.916-60-60-60h-91l-70,45l70,45H407z"/>
<path style="fill:#26D4F8;" d="M105,301v30h151v-90h-91C131.916,241,105,267.916,105,301z"/>
<g>
</g>
<g>
</g>
<g>
</g>
<g>
</g>
<g>
</g>
<g>
</g>
<g>
</g>
<g>
</g>
<g>
</g>
<g>
</g>
<g>
</g>
<g>
</g>
<g>
</g>
<g>
</g>
<g>
</g>
</svg>
