<?xml version="1.0" encoding="iso-8859-1"?>
<!-- Generator: Adobe Illustrator 19.0.0, SVG Export Plug-In . SVG Version: 6.00 Build 0)  -->
<svg version="1.1" id="Capa_1" xmlns="http://www.w3.org/2000/svg" xmlns:xlink="http://www.w3.org/1999/xlink" x="0px" y="0px"
	 viewBox="0 0 512 512" style="enable-background:new 0 0 512 512;" xml:space="preserve">
<rect x="241" y="15" style="fill:#D95D27;" width="30" height="240"/>
<rect x="309" y="33.2" style="fill:#C7461F;" width="30" height="222.8"/>
<rect x="173" y="33.2" style="fill:#D95D27;" width="30" height="222.8"/>
<path style="fill:#8B2613;" d="M256,0l-20,15l20,15c66.72,0,121,54.28,121,121v361h30V361l-15-30l15-15V151
	C407,67.738,339.262,0,256,0z"/>
<g>
	<path style="fill:#C7461F;" d="M105,151v165l15,15l-15,30v151h30V151c0-66.72,54.28-121,121-121V0C172.738,0,105,67.738,105,151z"
		/>
	<polygon style="fill:#C7461F;" points="407,331 407,361 256,361 232.488,301 	"/>
</g>
<polygon style="fill:#D95D27;" points="256,301 256,361 105,361 105,331 "/>
<path style="fill:#21B4D3;" d="M332,241h-76l-30,45l30,45h151v-15C407,274.645,373.355,241,332,241z"/>
<path style="fill:#26D4F8;" d="M180,241c-41.355,0-75,33.645-75,75v15h151v-90H180z"/>
<g>
</g>
<g>
</g>
<g>
</g>
<g>
</g>
<g>
</g>
<g>
</g>
<g>
</g>
<g>
</g>
<g>
</g>
<g>
</g>
<g>
</g>
<g>
</g>
<g>
</g>
<g>
</g>
<g>
</g>
</svg>
