<?xml version="1.0" encoding="iso-8859-1"?>
<!-- Generator: Adobe Illustrator 19.0.0, SVG Export Plug-In . SVG Version: 6.00 Build 0)  -->
<svg version="1.1" id="Capa_1" xmlns="http://www.w3.org/2000/svg" xmlns:xlink="http://www.w3.org/1999/xlink" x="0px" y="0px"
	 viewBox="0 0 512.002 512.002" style="enable-background:new 0 0 512.002 512.002;" xml:space="preserve">
<rect x="241" y="202.67" style="fill:#FFDB2D;" width="30" height="89.31"/>
<polygon style="fill:#5B5B5B;" points="363.844,512.002 291.435,335 324.334,335 324.334,273 187.668,273 187.668,335 220.567,335 
	148.157,512.002 180.57,512.002 241.001,364.282 241.001,512 271.001,512 271.001,364.282 331.432,512.002 "/>
<polygon points="291.435,335 324.334,335 324.334,273 256.001,273 256.001,512 271.001,512 271.001,364.282 331.432,512.002 
	363.844,512.002 "/>
<polygon style="fill:#C1C1C1;" points="405.334,64 388.334,64 388.334,32 328.028,32 306.695,0 205.307,0 183.974,32 123.668,32 
	123.668,64 106.668,64 106.668,94 123.668,94 123.668,209.048 388.334,209.048 388.334,94 405.334,94 "/>
<polygon style="fill:#8E8E8E;" points="388.334,64 388.334,32 328.028,32 306.695,0 256.001,0 256.001,209.048 388.334,209.048 
	388.334,94 405.334,94 405.334,64 "/>
<circle style="fill:#5B5B5B;" cx="256" cy="117.33" r="53.33"/>
<path d="M256.001,64c29.455,0,53.333,23.878,53.333,53.334c0,29.455-23.878,53.333-53.333,53.333"/>
<path style="fill:#EFEFEF;" d="M256.001,185.667c-37.679,0-68.333-30.654-68.333-68.333c0-37.68,30.654-68.334,68.333-68.334
	s68.333,30.654,68.333,68.334C324.334,155.013,293.68,185.667,256.001,185.667z M256.001,79c-21.137,0-38.333,17.196-38.333,38.334
	c0,21.137,17.196,38.333,38.333,38.333s38.333-17.196,38.333-38.333C294.334,96.196,277.138,79,256.001,79z"/>
<path style="fill:#FFFFFF;" d="M256.001,185.667c-37.679,0-68.333-30.654-68.333-68.333c0-37.68,30.654-68.334,68.333-68.334
	s68.333,30.654,68.333,68.334C324.334,155.013,293.68,185.667,256.001,185.667z M256.001,79c-21.137,0-38.333,17.196-38.333,38.334
	c0,21.137,17.196,38.333,38.333,38.333s38.333-17.196,38.333-38.333C294.334,96.196,277.138,79,256.001,79z"/>
<path style="fill:#E6E6E6;" d="M256.001,49v30c21.137,0,38.333,17.196,38.333,38.334c0,21.137-17.196,38.333-38.333,38.333v30
	c37.679,0,68.333-30.654,68.333-68.333C324.334,79.654,293.68,49,256.001,49z"/>
<g>
</g>
<g>
</g>
<g>
</g>
<g>
</g>
<g>
</g>
<g>
</g>
<g>
</g>
<g>
</g>
<g>
</g>
<g>
</g>
<g>
</g>
<g>
</g>
<g>
</g>
<g>
</g>
<g>
</g>
</svg>
