<?xml version="1.0" encoding="iso-8859-1"?>
<!-- Generator: Adobe Illustrator 19.0.0, SVG Export Plug-In . SVG Version: 6.00 Build 0)  -->
<svg version="1.1" id="Capa_1" xmlns="http://www.w3.org/2000/svg" xmlns:xlink="http://www.w3.org/1999/xlink" x="0px" y="0px"
	 viewBox="0 0 512.001 512.001" style="enable-background:new 0 0 512.001 512.001;" xml:space="preserve">
<path style="fill:#95DAF9;" d="M416.667,354.848c32.433,0,58.818-26.386,58.818-58.818c0-32.433-26.386-58.818-58.818-58.818
	s-58.818,26.386-58.818,58.818C357.848,328.462,384.234,354.848,416.667,354.848z"/>
<path style="fill:#4EC1F5;" d="M416.667,354.848c32.433,0,58.818-26.386,58.818-58.818c0-32.433-26.386-58.818-58.818-58.818"/>
<path style="fill:#95DAF9;" d="M416.667,368.666c-52.566,0-95.333,42.767-95.333,95.334v15H512v-15
	C512,411.434,469.234,368.666,416.667,368.666z"/>
<path style="fill:#FD0023;" d="M256,237.212c-32.433,0-58.818,26.386-58.818,58.818s26.386,58.818,58.818,58.818
	s58.818-26.386,58.818-58.818C314.819,263.598,288.433,237.212,256,237.212z"/>
<path style="fill:#E60020;" d="M256,354.848c32.433,0,58.818-26.386,58.818-58.818c0-32.433-26.386-58.818-58.818-58.818"/>
<path style="fill:#FD0023;" d="M256,368.666c-52.567,0-95.333,42.767-95.333,95.334v15h190.667v-15
	C351.333,411.434,308.567,368.666,256,368.666z"/>
<path style="fill:#FFE97F;" d="M95.333,237.212c-32.432,0-58.818,26.386-58.818,58.818s26.386,58.818,58.818,58.818
	c32.433,0,58.818-26.386,58.818-58.818C154.152,263.598,127.766,237.212,95.333,237.212z"/>
<path style="fill:#FFDB2D;" d="M95.333,354.848c32.433,0,58.818-26.386,58.818-58.818c0-32.433-26.386-58.818-58.818-58.818"/>
<polygon style="fill:#EFEFEF;" points="17,33 17,180.333 102.333,180.333 102.333,208.822 173.556,180.333 222.302,180.333 
	256,208.927 289.699,180.333 338.445,180.333 409.667,208.822 409.667,180.333 495,180.333 495,33 "/>
<polygon style="fill:#E6E6E6;" points="256,33 256,208.926 256,208.927 289.699,180.333 338.445,180.333 409.667,208.822 
	409.667,180.333 495,180.333 495,33 "/>
<path style="fill:#E60020;" d="M256,368.666L256,368.666V479h95.333v-15C351.333,411.434,308.567,368.666,256,368.666z"/>
<path style="fill:#4EC1F5;" d="M416.667,368.666c-0.223,0-0.444,0.007-0.666,0.009V479h96v-15
	C512,411.434,469.234,368.666,416.667,368.666z"/>
<path style="fill:#FFE97F;" d="M95.333,368.666C42.767,368.666,0,411.434,0,464v15h190.667v-15
	C190.667,411.434,147.9,368.666,95.333,368.666z"/>
<path style="fill:#FFDB2D;" d="M96,368.675V479h94.667v-15C190.667,411.655,148.261,369.035,96,368.675z"/>
<g>
</g>
<g>
</g>
<g>
</g>
<g>
</g>
<g>
</g>
<g>
</g>
<g>
</g>
<g>
</g>
<g>
</g>
<g>
</g>
<g>
</g>
<g>
</g>
<g>
</g>
<g>
</g>
<g>
</g>
</svg>
