<?xml version="1.0" encoding="iso-8859-1"?>
<!-- Generator: Adobe Illustrator 19.0.0, SVG Export Plug-In . SVG Version: 6.00 Build 0)  -->
<svg version="1.1" id="Capa_1" xmlns="http://www.w3.org/2000/svg" xmlns:xlink="http://www.w3.org/1999/xlink" x="0px" y="0px"
	 viewBox="0 0 512 512" style="enable-background:new 0 0 512 512;" xml:space="preserve">
<rect x="59.667" y="10.667" style="fill:#EFEFEF;" width="392.67" height="260.33"/>
<rect x="256" y="10.667" style="fill:#E6E6E6;" width="196.33" height="260.33"/>
<rect x="37.33" style="fill:#95DAF9;" width="437.33" height="30"/>
<rect x="256" style="fill:#4EC1F5;" width="218.67" height="30"/>
<g>
	<path style="fill:#5B5B5B;" d="M256,199.133c34.923,0,63.335-28.413,63.335-63.335c0-34.924-28.412-63.336-63.335-63.336
		s-63.336,28.412-63.336,63.336C192.665,170.721,221.077,199.133,256,199.133z"/>
	<path style="fill:#5B5B5B;" d="M256,217.469c-57.134,0-103.616,46.482-103.616,103.615v15h207.231v-15
		C359.616,263.951,313.134,217.469,256,217.469z"/>
</g>
<path d="M256,217.469L256,217.469v118.615h103.616v-15C359.616,263.951,313.134,217.469,256,217.469z"/>
<path d="M256,72.462L256,72.462v126.671l0,0c34.923,0,63.335-28.413,63.335-63.335C319.336,100.874,290.924,72.462,256,72.462z"/>
<polygon style="fill:#95DAF9;" points="384,298.923 128,298.923 128,328.923 142.539,328.923 142.539,512 369.462,512 
	369.462,328.923 384,328.923 "/>
<polygon style="fill:#4EC1F5;" points="256,298.923 256,512 369.462,512 369.462,328.923 384,328.923 384,298.923 "/>
<g>
</g>
<g>
</g>
<g>
</g>
<g>
</g>
<g>
</g>
<g>
</g>
<g>
</g>
<g>
</g>
<g>
</g>
<g>
</g>
<g>
</g>
<g>
</g>
<g>
</g>
<g>
</g>
<g>
</g>
</svg>
