<?xml version="1.0" encoding="iso-8859-1"?>
<!-- Generator: Adobe Illustrator 19.0.0, SVG Export Plug-In . SVG Version: 6.00 Build 0)  -->
<svg version="1.1" id="Capa_1" xmlns="http://www.w3.org/2000/svg" xmlns:xlink="http://www.w3.org/1999/xlink" x="0px" y="0px"
	 viewBox="0 0 512 512" style="enable-background:new 0 0 512 512;" xml:space="preserve">
<rect x="50.4" style="fill:#FFF8D5;" width="392.67" height="512"/>
<rect x="246.73" style="fill:#FFE97F;" width="196.33" height="512"/>
<g>
	<rect x="118.73" y="166" style="fill:#FFDB2D;" width="256" height="30"/>
	<rect x="118.73" y="219.67" style="fill:#FFDB2D;" width="256" height="30"/>
	<rect x="118.73" y="273.33" style="fill:#FFDB2D;" width="256" height="30"/>
	<rect x="182.73" y="70.33" style="fill:#FFDB2D;" width="128" height="30"/>
</g>
<g>
	<rect x="278.73" y="401" style="fill:#FCB72C;" width="64" height="30"/>
	<rect x="246.73" y="70.33" style="fill:#FCB72C;" width="64" height="30"/>
	<rect x="246.73" y="166" style="fill:#FCB72C;" width="128" height="30"/>
	<rect x="246.73" y="219.67" style="fill:#FCB72C;" width="128" height="30"/>
</g>
<path style="fill:#DC001E;" d="M442.242,145.825c-25.811-25.811-67.811-25.811-93.621,0L225.655,268.791l11.702,81.918
	l81.919,11.702l122.966-122.966C468.053,213.635,468.053,171.637,442.242,145.825z"/>
<rect x="258.249" y="186.818" transform="matrix(-0.7071 -0.7071 0.7071 -0.7071 243.8552 730.6426)" style="fill:#FCB72C;" width="30" height="255.998"/>
<g>
</g>
<g>
</g>
<g>
</g>
<g>
</g>
<g>
</g>
<g>
</g>
<g>
</g>
<g>
</g>
<g>
</g>
<g>
</g>
<g>
</g>
<g>
</g>
<g>
</g>
<g>
</g>
<g>
</g>
</svg>
