<?xml version="1.0" encoding="iso-8859-1"?>
<!-- Generator: Adobe Illustrator 19.0.0, SVG Export Plug-In . SVG Version: 6.00 Build 0)  -->
<svg version="1.1" id="Capa_1" xmlns="http://www.w3.org/2000/svg" xmlns:xlink="http://www.w3.org/1999/xlink" x="0px" y="0px"
	 viewBox="0 0 512 512" style="enable-background:new 0 0 512 512;" xml:space="preserve">
<path style="fill:#5B5B5B;" d="M512,94.979l-121.362,26.383L417.021,0H94.979l26.384,121.363L0,94.979V417.02l121.363-26.383
	L94.979,512H417.02l-26.383-121.363L512,417.021V94.979z"/>
<polygon points="512,94.979 390.638,121.363 417.021,0 256,0 256,512 417.021,512 390.638,390.637 512,417.021 "/>
<rect x="121.25" y="121.25" style="fill:#C1C1C1;" width="269.5" height="269.51"/>
<rect x="256" y="121.25" style="fill:#8E8E8E;" width="134.75" height="269.51"/>
<path style="fill:#EFEFEF;" d="M256,367c-61.206,0-110.999-49.794-110.999-111S194.794,145,256,145c61.205,0,111,49.794,111,111
	S317.205,367,256,367z M256,182.138c-40.729,0-73.862,33.134-73.862,73.862s33.134,73.862,73.862,73.862
	s73.862-33.134,73.862-73.862S296.728,182.138,256,182.138z"/>
<path style="fill:#E6E6E6;" d="M256,145v37.138c40.728,0,73.862,33.135,73.862,73.862S296.728,329.862,256,329.862V367
	c61.205,0,111-49.794,111-111S317.205,145,256,145z"/>
<circle style="fill:#FD0023;" cx="256" cy="256" r="81.77"/>
<path style="fill:#DC001E;" d="M256,174.235c45.157,0,81.765,36.607,81.765,81.765S301.157,337.765,256,337.765"/>
<g>
</g>
<g>
</g>
<g>
</g>
<g>
</g>
<g>
</g>
<g>
</g>
<g>
</g>
<g>
</g>
<g>
</g>
<g>
</g>
<g>
</g>
<g>
</g>
<g>
</g>
<g>
</g>
<g>
</g>
</svg>
