<?xml version="1.0" encoding="iso-8859-1"?>
<!-- Generator: Adobe Illustrator 19.0.0, SVG Export Plug-In . SVG Version: 6.00 Build 0)  -->
<svg version="1.1" id="Capa_1" xmlns="http://www.w3.org/2000/svg" xmlns:xlink="http://www.w3.org/1999/xlink" x="0px" y="0px"
	 viewBox="0 0 512 512" style="enable-background:new 0 0 512 512;" xml:space="preserve">
<polygon style="fill:#ADADAD;" points="273.937,115.36 331.437,0.36 297.896,0.36 256,84.154 214.104,0.36 180.563,0.36 
	238.063,115.36 "/>
<polygon style="fill:#848484;" points="297.896,0.36 256,84.154 256,115.36 273.937,115.36 331.437,0.36 "/>
<rect x="15" y="171.03" style="fill:#EFEFEF;" width="482" height="325.61"/>
<rect x="256" y="171.03" style="fill:#E6E6E6;" width="241" height="325.61"/>
<path style="fill:#FD0023;" d="M512,511.64H0V156.027h512V511.64z M30,481.64h452V186.027H30V481.64z"/>
<rect x="241" y="230.69" width="30" height="200.67"/>
<path style="fill:#D6D6D6;" d="M207.609,431.36H70.333V230.694h137.276L207.609,431.36L207.609,431.36z"/>
<g>
	<path style="fill:#C1C1C1;" d="M207.609,431.36H70.333l137.276-200.667L207.609,431.36L207.609,431.36z"/>
	<rect x="304.39" y="230.69" style="fill:#C1C1C1;" width="137.28" height="30"/>
	<rect x="304.39" y="316.03" style="fill:#C1C1C1;" width="137.28" height="30"/>
	<rect x="304.39" y="401.36" style="fill:#C1C1C1;" width="137.28" height="30"/>
</g>
<polygon style="fill:#E60020;" points="256,156.027 256,186.027 482,186.027 482,481.64 256,481.64 256,511.64 512,511.64 
	512,156.027 "/>
<rect x="187.67" y="102.69" width="136.67" height="83.33"/>
<g>
</g>
<g>
</g>
<g>
</g>
<g>
</g>
<g>
</g>
<g>
</g>
<g>
</g>
<g>
</g>
<g>
</g>
<g>
</g>
<g>
</g>
<g>
</g>
<g>
</g>
<g>
</g>
<g>
</g>
</svg>
