<?xml version="1.0" encoding="iso-8859-1"?>
<!-- Generator: Adobe Illustrator 19.0.0, SVG Export Plug-In . SVG Version: 6.00 Build 0)  -->
<svg version="1.1" id="Capa_1" xmlns="http://www.w3.org/2000/svg" xmlns:xlink="http://www.w3.org/1999/xlink" x="0px" y="0px"
	 viewBox="0 0 512 512" style="enable-background:new 0 0 512 512;" xml:space="preserve">
<polygon style="fill:#4EC1F5;" points="286.46,166.45 269.819,141.488 295.14,124.608 295.14,33.699 359.514,65.886 346.098,92.719 
	325.14,82.24 325.14,140.664 "/>
<polygon style="fill:#FD0023;" points="167.514,134.45 150.873,109.488 176.193,92.608 176.193,1.699 240.568,33.886 
	227.151,60.719 206.193,50.24 206.193,108.664 "/>
<rect x="160" y="202.971" style="fill:#D6D6D6;" width="192" height="307.33"/>
<g>
	<rect x="160" y="480.301" style="fill:#C1C1C1;" width="192" height="30"/>
	<rect x="160" y="202.971" style="fill:#C1C1C1;" width="192" height="30"/>
</g>
<rect x="341.33" y="202.971" style="fill:#5B5B5B;" width="170.67" height="307.33"/>
<rect x="426.67" y="202.971" width="85.33" height="307.33"/>
<rect y="202.971" style="fill:#5B5B5B;" width="170.67" height="307.33"/>
<rect x="85.33" y="202.971" width="85.33" height="307.33"/>
<path style="fill:#FFE97F;" d="M85.333,450.945c-27.57,0-50-22.43-50-50s22.43-50,50-50s50,22.43,50,50
	S112.903,450.945,85.333,450.945z"/>
<path style="fill:#FFDB2D;" d="M85.333,350.945c27.57,0,50,22.43,50,50s-22.43,50-50,50"/>
<path d="M85.333,380.945c-11.028,0-20,8.972-20,20s8.972,20,20,20s20-8.972,20-20S96.361,380.945,85.333,380.945z"/>
<g>
	<rect x="70.33" y="285.221" style="fill:#FFE97F;" width="30" height="30"/>
	<path style="fill:#FFE97F;" d="M426.667,450.945c-27.57,0-50-22.43-50-50s22.43-50,50-50s50,22.43,50,50
		S454.237,450.945,426.667,450.945z"/>
</g>
<path style="fill:#FFDB2D;" d="M426.667,350.945c27.57,0,50,22.43,50,50s-22.43,50-50,50"/>
<path d="M426.667,380.945c-11.028,0-20,8.972-20,20s8.972,20,20,20s20-8.972,20-20S437.694,380.945,426.667,380.945z"/>
<rect x="411.67" y="285.221" style="fill:#FFE97F;" width="30" height="30"/>
<g>
	<rect x="213.33" y="280.741" style="fill:#5B5B5B;" width="85.33" height="30"/>
	<rect x="213.33" y="323.401" style="fill:#5B5B5B;" width="30" height="30"/>
</g>
<rect x="268.67" y="323.401" width="30" height="30"/>
<g>
	<rect x="213.33" y="366.071" style="fill:#5B5B5B;" width="85.33" height="30"/>
	<rect x="213.33" y="408.741" style="fill:#5B5B5B;" width="30" height="30"/>
</g>
<rect x="268.67" y="408.741" width="30" height="30"/>
<rect x="256" y="366.071" width="42.667" height="30"/>
<rect x="256" y="280.741" width="42.667" height="30"/>
<g>
</g>
<g>
</g>
<g>
</g>
<g>
</g>
<g>
</g>
<g>
</g>
<g>
</g>
<g>
</g>
<g>
</g>
<g>
</g>
<g>
</g>
<g>
</g>
<g>
</g>
<g>
</g>
<g>
</g>
</svg>
