<?xml version="1.0" encoding="iso-8859-1"?>
<!-- Generator: Adobe Illustrator 19.0.0, SVG Export Plug-In . SVG Version: 6.00 Build 0)  -->
<svg version="1.1" id="Capa_1" xmlns="http://www.w3.org/2000/svg" xmlns:xlink="http://www.w3.org/1999/xlink" x="0px" y="0px"
	 viewBox="0 0 512 512" style="enable-background:new 0 0 512 512;" xml:space="preserve">
<path style="fill:#EFEFEF;" d="M59.666,0v512h392.667V0H59.666z"/>
<rect x="256" style="fill:#E6E6E6;" width="196.33" height="512"/>
<path style="fill:#00E08B;" d="M123.666,139.334v83.333h83.333v-83.333L123.666,139.334L123.666,139.334z M176.999,192.667h-23.333
	v-23.333h23.333V192.667z"/>
<rect x="234.671" y="166" style="fill:#ADADAD;" width="42.667" height="30"/>
<g>
	<rect x="256" y="166" style="fill:#848484;" width="21.334" height="30"/>
	<rect x="298.671" y="166" style="fill:#848484;" width="85.33" height="30"/>
</g>
<path style="fill:#00E08B;" d="M123.666,329.334h83.333V246h-83.333C123.666,246,123.666,329.334,123.666,329.334z M153.667,276
	h23.333v23.333h-23.333L153.667,276L153.667,276z"/>
<rect x="234.671" y="272.67" style="fill:#ADADAD;" width="42.667" height="30"/>
<rect x="298.671" y="272.67" style="fill:#848484;" width="85.33" height="30"/>
<path style="fill:#FD0023;" d="M123.666,436h83.333v-83.333h-83.333C123.666,352.667,123.666,436,123.666,436z M153.667,382.667
	h23.333V406h-23.333L153.667,382.667L153.667,382.667z"/>
<rect x="234.671" y="379.33" style="fill:#ADADAD;" width="42.667" height="30"/>
<rect x="298.671" y="379.33" style="fill:#848484;" width="85.33" height="30"/>
<rect x="192" y="70.33" style="fill:#ADADAD;" width="128" height="30"/>
<g>
	<rect x="256" y="272.67" style="fill:#848484;" width="21.334" height="30"/>
	<rect x="256" y="379.33" style="fill:#848484;" width="21.334" height="30"/>
	<rect x="256" y="70.33" style="fill:#848484;" width="64" height="30"/>
</g>
<g>
</g>
<g>
</g>
<g>
</g>
<g>
</g>
<g>
</g>
<g>
</g>
<g>
</g>
<g>
</g>
<g>
</g>
<g>
</g>
<g>
</g>
<g>
</g>
<g>
</g>
<g>
</g>
<g>
</g>
</svg>
