<?xml version="1.0" encoding="iso-8859-1"?>
<!-- Generator: Adobe Illustrator 19.0.0, SVG Export Plug-In . SVG Version: 6.00 Build 0)  -->
<svg version="1.1" id="Capa_1" xmlns="http://www.w3.org/2000/svg" xmlns:xlink="http://www.w3.org/1999/xlink" x="0px" y="0px"
	 viewBox="0 0 512 512" style="enable-background:new 0 0 512 512;" xml:space="preserve">
<rect x="241" y="122.39" width="30" height="39.25"/>
<path style="fill:#95DAF9;" d="M489.494,371.686c-2.133-59.179-26.172-114.509-68.267-156.603
	c-44.134-44.134-102.812-68.44-165.227-68.44s-121.094,24.306-165.228,68.439c-42.094,42.094-66.133,97.424-68.267,156.603h466.989
	V371.686z"/>
<path style="fill:#DCF3FD;" d="M123.328,329.599l-28.021-10.717c12.307-32.177,33.782-59.674,62.103-79.518
	c28.987-20.311,63.079-31.046,98.591-31.046v30c-29.32,0-57.459,8.857-81.376,25.615
	C151.226,280.329,133.488,303.035,123.328,329.599z"/>
<path style="fill:#4EC1F5;" d="M256,371.686h233.493c-2.133-59.179-26.172-114.509-68.267-156.603
	c-44.133-44.134-102.811-68.44-165.226-68.44l0,0V371.686z"/>
<rect y="359.61" style="fill:#5B5B5B;" width="512" height="30"/>
<rect x="256" y="359.61" width="256" height="30"/>
<g>
</g>
<g>
</g>
<g>
</g>
<g>
</g>
<g>
</g>
<g>
</g>
<g>
</g>
<g>
</g>
<g>
</g>
<g>
</g>
<g>
</g>
<g>
</g>
<g>
</g>
<g>
</g>
<g>
</g>
</svg>
