<?xml version="1.0" encoding="iso-8859-1"?>
<!-- Generator: Adobe Illustrator 19.0.0, SVG Export Plug-In . SVG Version: 6.00 Build 0)  -->
<svg version="1.1" id="Capa_1" xmlns="http://www.w3.org/2000/svg" xmlns:xlink="http://www.w3.org/1999/xlink" x="0px" y="0px"
	 viewBox="0 0 512.003 512.003" style="enable-background:new 0 0 512.003 512.003;" xml:space="preserve">
<rect x="66.366" y="300.048" style="fill:#4EC1F5;" width="107.869" height="211.955"/>
<polygon style="fill:#5B5B5B;" points="4.162,314.837 173.706,314.837 193.725,212.085 173.706,118.007 4.162,118.007 "/>
<rect x="68.953" y="201.406" style="fill:#95DAF9;" width="30.025" height="30.025"/>
<path style="fill:#DC001E;" d="M448.348,157.352c-5.396,0-10.621,0.736-15.595,2.088v114.812c4.973,1.353,10.198,2.088,15.595,2.088
	c32.805,0,59.493-26.689,59.493-59.493S481.153,157.352,448.348,157.352z"/>
<polygon style="fill:#FD0023;" points="439.259,22.923 173.706,118.521 173.706,315.17 439.259,410.769 "/>
<polygon style="fill:#E60020;" points="259.111,87.777 259.111,345.916 439.259,410.769 439.259,22.923 "/>
<polygon style="fill:#4EC1F5;" points="452.24,0 422.215,0 422.215,433.691 437.228,433.691 452.24,433.691 "/>
<g>
</g>
<g>
</g>
<g>
</g>
<g>
</g>
<g>
</g>
<g>
</g>
<g>
</g>
<g>
</g>
<g>
</g>
<g>
</g>
<g>
</g>
<g>
</g>
<g>
</g>
<g>
</g>
<g>
</g>
</svg>
