<?xml version="1.0" encoding="iso-8859-1"?>
<!-- Generator: Adobe Illustrator 19.0.0, SVG Export Plug-In . SVG Version: 6.00 Build 0)  -->
<svg version="1.1" id="Capa_1" xmlns="http://www.w3.org/2000/svg" xmlns:xlink="http://www.w3.org/1999/xlink" x="0px" y="0px"
	 viewBox="0 0 512 512" style="enable-background:new 0 0 512 512;" xml:space="preserve">
<rect x="60.273" y="147.402" width="29.907" height="359.553"/>
<path style="fill:#FD0023;" d="M494.04,109.192c11.283-24.257,17.167-50.711,17.167-77.737V5.045l-84.028,50.417h-83.418
	c-30.906,0-59.231,14.416-77.343,38.96h-20.836c-18.113-24.544-46.439-38.96-77.344-38.96H84.82L0.793,5.045v26.411
	c0,27.026,5.882,53.48,17.168,77.737H0l1.515,16.334c3.834,41.365,22.876,79.663,53.618,107.837
	c30.94,28.356,71.108,43.972,113.105,43.972c18.37,0,36.233-5.2,51.659-15.036c12.291-7.837,22.599-18.31,30.209-30.62h11.785
	c7.61,12.309,17.919,22.783,30.209,30.62c15.427,9.836,33.292,15.036,51.659,15.036c41.996,0,82.165-15.616,113.105-43.972
	c30.742-28.174,49.785-66.471,53.619-107.837L512,109.193L494.04,109.192L494.04,109.192z M309.168,161.363
	c0,0,14.565-14.566,18.797-18.798c10.382-10.382,27.214-10.382,37.596,0c6.15,6.15,18.797,18.798,18.797,18.798
	s-14.565,14.566-18.797,18.798c-10.382,10.383-27.214,10.383-37.596,0C321.815,174.012,309.168,161.363,309.168,161.363z
	 M146.439,180.161c-4.232-4.232-18.798-18.798-18.798-18.798s12.649-12.649,18.798-18.798c10.382-10.382,27.213-10.382,37.595,0
	c4.232,4.232,18.798,18.798,18.798,18.798s-12.649,12.649-18.798,18.798C173.651,190.543,156.821,190.543,146.439,180.161z"/>
<path style="fill:#E60020;" d="M494.04,109.192c11.283-24.257,17.167-50.711,17.167-77.737V5.045l-84.028,50.417h-83.418
	c-30.906,0-59.231,14.416-77.343,38.96h-10.419v137.258h5.893c7.61,12.309,17.919,22.783,30.209,30.62
	c15.427,9.836,33.292,15.036,51.659,15.036c41.996,0,82.165-15.616,113.105-43.972c30.742-28.174,49.785-66.471,53.619-107.837
	L512,109.193L494.04,109.192L494.04,109.192z M365.561,180.161c-10.382,10.383-27.214,10.383-37.596,0
	c-6.15-6.149-18.797-18.798-18.797-18.798s14.565-14.566,18.797-18.798c10.382-10.382,27.214-10.382,37.596,0
	c6.15,6.15,18.797,18.798,18.797,18.798S369.793,175.93,365.561,180.161z"/>
<g>
</g>
<g>
</g>
<g>
</g>
<g>
</g>
<g>
</g>
<g>
</g>
<g>
</g>
<g>
</g>
<g>
</g>
<g>
</g>
<g>
</g>
<g>
</g>
<g>
</g>
<g>
</g>
<g>
</g>
</svg>
