<?xml version="1.0" encoding="iso-8859-1"?>
<!-- Generator: Adobe Illustrator 19.0.0, SVG Export Plug-In . SVG Version: 6.00 Build 0)  -->
<svg version="1.1" id="Capa_1" xmlns="http://www.w3.org/2000/svg" xmlns:xlink="http://www.w3.org/1999/xlink" x="0px" y="0px"
	 viewBox="0 0 512 512" style="enable-background:new 0 0 512 512;" xml:space="preserve">
<path style="fill:#FD0023;" d="M336.897,0H175.103c-47.555,0-86.244,38.689-86.244,86.244v238.089h331.149l3.13-142.671
	l0.004-95.418C423.142,38.689,384.452,0,336.897,0z"/>
<rect x="270.83" y="119.33" style="fill:#FFDB2D;" width="30" height="30"/>
<g>
	<rect x="211.17" y="119.33" style="fill:#FFE97F;" width="30" height="30"/>
	<polygon style="fill:#FFE97F;" points="155.433,404.546 125.433,404.546 125.433,482 102.873,482 102.873,512 177.992,512 
		177.992,482 155.433,482 	"/>
</g>
<polygon style="fill:#FFDB2D;" points="386.567,482 386.567,404.546 356.567,404.546 356.567,482 334.008,482 334.008,512 
	409.127,512 409.127,482 "/>
<rect x="124.88" y="250.87" style="fill:#DC001E;" width="262.24" height="93.79"/>
<rect x="256" y="250.87" style="fill:#B6001A;" width="131.12" height="93.79"/>
<polygon style="fill:#FD0023;" points="479.021,213.333 373.132,202.667 373.333,320.206 138.667,320.206 138.868,202.667 
	32.979,213.333 32.979,257.752 60.916,257.752 60.916,419.546 451.084,419.546 451.084,257.752 479.021,257.752 "/>
<polygon style="fill:#DC001E;" points="373.132,202.667 373.333,320.206 256,320.206 256,419.546 451.084,419.546 451.084,257.752 
	479.021,257.752 479.021,213.333 "/>
<rect x="32.979" y="169.97" style="fill:#FFE97F;" width="105.69" height="43.37"/>
<rect x="373.33" y="169.97" style="fill:#FFDB2D;" width="105.69" height="43.37"/>
<g>
</g>
<g>
</g>
<g>
</g>
<g>
</g>
<g>
</g>
<g>
</g>
<g>
</g>
<g>
</g>
<g>
</g>
<g>
</g>
<g>
</g>
<g>
</g>
<g>
</g>
<g>
</g>
<g>
</g>
</svg>
