<?xml version="1.0" encoding="iso-8859-1"?>
<!-- Generator: Adobe Illustrator 19.0.0, SVG Export Plug-In . SVG Version: 6.00 Build 0)  -->
<svg version="1.1" id="Capa_1" xmlns="http://www.w3.org/2000/svg" xmlns:xlink="http://www.w3.org/1999/xlink" x="0px" y="0px"
	 viewBox="0 0 511.999 511.999" style="enable-background:new 0 0 511.999 511.999;" xml:space="preserve">
<polygon style="fill:#00BB75;" points="298.729,163.697 298.729,117.332 213.397,117.384 213.397,163.742 161.302,204.467 
	160.765,511.999 350.696,511.911 351.234,204.37 "/>
<polygon style="fill:#008A56;" points="298.729,163.697 298.729,117.332 256.063,117.358 256.063,511.955 350.696,511.911 
	351.234,204.37 "/>
<path style="fill:#FFF8D5;" d="M324.452,405.419H187.731V284.03h23.189c2.158-7.655,6.248-14.671,12.023-20.452
	c8.897-8.906,20.73-13.813,33.318-13.819c0.007,0,0.016,0,0.022,0c12.582,0,24.409,4.896,33.309,13.789
	c5.791,5.786,9.892,12.814,12.053,20.483h22.741L324.452,405.419z"/>
<g>
	<polygon style="fill:#FFE97F;" points="213.397,0 213.397,123.972 256.238,149.331 298.729,124.124 298.729,0 	"/>
	<path style="fill:#FFE97F;" d="M256.063,405.419h68.39l-0.066-121.39h-22.741c-2.162-7.669-6.262-14.697-12.053-20.483
		c-8.901-8.893-20.729-13.789-33.309-13.789c-0.007,0-0.016,0-0.022,0c-0.066,0-0.132,0.004-0.198,0.005L256.063,405.419
		L256.063,405.419z"/>
</g>
<polygon style="fill:#FFDB2D;" points="256.063,0 256.063,149.228 256.238,149.331 298.729,124.124 298.729,0 "/>
<rect x="213.396" style="fill:#FF9900;" width="85.329" height="32"/>
<rect x="256.066" style="fill:#DD8500;" width="42.666" height="32"/>
<g>
</g>
<g>
</g>
<g>
</g>
<g>
</g>
<g>
</g>
<g>
</g>
<g>
</g>
<g>
</g>
<g>
</g>
<g>
</g>
<g>
</g>
<g>
</g>
<g>
</g>
<g>
</g>
<g>
</g>
</svg>
