<?xml version="1.0" encoding="iso-8859-1"?>
<!-- Generator: Adobe Illustrator 19.0.0, SVG Export Plug-In . SVG Version: 6.00 Build 0)  -->
<svg version="1.1" id="Capa_1" xmlns="http://www.w3.org/2000/svg" xmlns:xlink="http://www.w3.org/1999/xlink" x="0px" y="0px"
	 viewBox="0 0 512 512" style="enable-background:new 0 0 512 512;" xml:space="preserve">
<polygon points="342.333,56.157 342.333,137.223 447,165.26 447,28.119 "/>
<rect x="225" y="170.67" style="fill:#FFDB2D;" width="30" height="121.31"/>
<polygon style="fill:#5B5B5B;" points="347.844,512 275.434,334.998 308.333,334.998 308.333,272.998 171.667,272.998 
	171.667,334.998 204.567,334.998 132.157,512 164.569,512 225,364.28 225,511.998 255,511.998 255,364.28 315.431,512 "/>
<polygon points="275.434,334.998 308.333,334.998 308.333,272.998 240,272.998 240,511.998 255,511.998 255,364.28 315.431,512 
	347.844,512 "/>
<rect x="65" y="27.667" style="fill:#5B5B5B;" width="104.67" height="83.33"/>
<rect x="107.67" style="fill:#C1C1C1;" width="264.67" height="193.38"/>
<rect x="165.33" y="53.33" style="fill:#FFFFFF;" width="64" height="30"/>
<rect x="240" style="fill:#8E8E8E;" width="132.33" height="193.38"/>
<rect x="252.67" y="53.33" style="fill:#E6E6E6;" width="30" height="30"/>
<g>
</g>
<g>
</g>
<g>
</g>
<g>
</g>
<g>
</g>
<g>
</g>
<g>
</g>
<g>
</g>
<g>
</g>
<g>
</g>
<g>
</g>
<g>
</g>
<g>
</g>
<g>
</g>
<g>
</g>
</svg>
