<?xml version="1.0" encoding="iso-8859-1"?>
<!-- Generator: Adobe Illustrator 19.0.0, SVG Export Plug-In . SVG Version: 6.00 Build 0)  -->
<svg version="1.1" id="Capa_1" xmlns="http://www.w3.org/2000/svg" xmlns:xlink="http://www.w3.org/1999/xlink" x="0px" y="0px"
	 viewBox="0 0 511.999 511.999" style="enable-background:new 0 0 511.999 511.999;" xml:space="preserve">
<path style="fill:#E6E6E6;" d="M341.947,373.333v22.718c0,47.392-38.557,85.948-85.948,85.948s-85.948-38.556-85.948-85.948v-22.718
	h-30v22.718c0,63.934,52.015,115.948,115.948,115.948s115.948-52.014,115.948-115.948v-22.718H341.947z"/>
<path style="fill:#D6D6D6;" d="M341.947,373.333v22.718c0,47.392-38.557,85.948-85.948,85.948v30
	c63.934,0,115.948-52.014,115.948-115.948v-22.718H341.947z"/>
<polygon style="fill:#FFF8D5;" points="255.999,31.827 93.866,387.253 418.133,387.253 "/>
<polygon style="fill:#FFE97F;" points="255.999,31.828 255.999,387.253 418.133,387.253 "/>
<g>
	<polygon style="fill:#95DAF9;" points="334.578,204.085 153.869,255.716 122.447,324.598 358.753,257.083 	"/>
	<polygon style="fill:#95DAF9;" points="255.999,31.827 170.234,219.84 321.986,176.482 	"/>
	<polygon style="fill:#95DAF9;" points="418.133,387.253 371.345,284.686 106.082,360.475 93.866,387.253 	"/>
</g>
<g>
	<polygon style="fill:#4EC1F5;" points="358.753,257.083 334.578,204.085 255.999,226.536 255.999,286.441 	"/>
	<polygon style="fill:#4EC1F5;" points="321.986,176.482 255.999,31.828 255.999,195.335 	"/>
	<polygon style="fill:#4EC1F5;" points="418.133,387.253 371.345,284.686 255.999,317.641 255.999,387.253 	"/>
</g>
<polygon style="fill:#FD0023;" points="276.563,77.333 318.225,43.667 299.369,20.333 270.999,43.26 270.999,0 240.999,0 
	240.999,43.259 212.63,20.333 193.774,43.667 235.435,77.333 "/>
<polygon style="fill:#DC001E;" points="299.369,20.333 270.999,43.26 270.999,0 255.999,0 255.999,77.333 276.563,77.333 
	318.225,43.667 "/>
<g>
</g>
<g>
</g>
<g>
</g>
<g>
</g>
<g>
</g>
<g>
</g>
<g>
</g>
<g>
</g>
<g>
</g>
<g>
</g>
<g>
</g>
<g>
</g>
<g>
</g>
<g>
</g>
<g>
</g>
</svg>
