<?xml version="1.0" encoding="iso-8859-1"?>
<!-- Generator: Adobe Illustrator 19.0.0, SVG Export Plug-In . SVG Version: 6.00 Build 0)  -->
<svg version="1.1" id="Capa_1" xmlns="http://www.w3.org/2000/svg" xmlns:xlink="http://www.w3.org/1999/xlink" x="0px" y="0px"
	 viewBox="0 0 512 512" style="enable-background:new 0 0 512 512;" xml:space="preserve">
<polygon style="fill:#E6E6E6;" points="315.395,92.353 352.199,0 159.801,0 196.605,92.353 241,92.353 241,170.667 216.62,170.667 
	216.62,200.667 295.38,200.667 295.38,170.667 271,170.667 271,92.353 "/>
<polygon style="fill:#D6D6D6;" points="241,92.353 241,170.667 216.62,170.667 216.62,200.667 295.38,200.667 295.38,170.667 
	271,170.667 271,92.353 "/>
<polygon style="fill:#FFE97F;" points="315.395,92.353 335.195,42.667 176.805,42.667 196.605,92.353 "/>
<polygon style="fill:#FFDB2D;" points="256,42.667 256,92.353 315.395,92.353 335.195,42.667 "/>
<rect x="208.879" y="27.79" transform="matrix(0.7071 0.7071 -0.7071 0.7071 95.8296 -145.7736)" style="fill:#FFFFFF;" width="30" height="30"/>
<polygon style="fill:#E6E6E6;" points="240.927,252.353 277.73,160 85.333,160 122.137,252.353 166.532,252.353 166.532,330.667 
	142.151,330.667 142.151,360.667 220.913,360.667 220.913,330.667 196.532,330.667 196.532,252.353 "/>
<polygon style="fill:#D6D6D6;" points="166.532,252.353 166.532,330.667 142.151,330.667 142.151,360.667 220.913,360.667 
	220.913,330.667 196.532,330.667 196.532,252.353 "/>
<polygon style="fill:#FFE97F;" points="240.927,252.353 260.728,202.667 102.336,202.667 122.137,252.353 "/>
<polygon style="fill:#FFDB2D;" points="181.532,202.667 181.532,252.353 240.927,252.353 260.728,202.667 "/>
<rect x="134.415" y="187.79" transform="matrix(0.7071 0.7071 -0.7071 0.7071 187.1564 -46.2567)" style="fill:#FFFFFF;" width="30" height="30"/>
<polygon style="fill:#E6E6E6;" points="400.927,252.353 437.73,160 245.333,160 282.137,252.353 326.532,252.353 326.532,330.667 
	302.151,330.667 302.151,360.667 380.913,360.667 380.913,330.667 356.532,330.667 356.532,252.353 "/>
<polygon style="fill:#D6D6D6;" points="326.532,252.353 326.532,330.667 302.151,330.667 302.151,360.667 380.913,360.667 
	380.913,330.667 356.532,330.667 356.532,252.353 "/>
<polygon style="fill:#FFE97F;" points="400.927,252.353 420.728,202.667 262.336,202.667 282.137,252.353 "/>
<polygon style="fill:#FFDB2D;" points="341.532,202.667 341.532,252.353 400.927,252.353 420.728,202.667 "/>
<rect x="294.409" y="187.794" transform="matrix(0.7071 0.7071 -0.7071 0.7071 234.0204 -159.3884)" style="fill:#FFFFFF;" width="30" height="30"/>
<polygon style="fill:#E6E6E6;" points="155.594,413.549 192.397,321.197 0,321.197 36.804,413.549 81.199,413.549 81.199,482 
	56.818,482 56.818,512 135.579,512 135.579,482 111.199,482 111.199,413.549 "/>
<polygon style="fill:#D6D6D6;" points="81.199,413.549 81.199,482 56.818,482 56.818,512 135.579,512 135.579,482 111.199,482 
	111.199,413.549 "/>
<polygon style="fill:#FFE97F;" points="155.594,413.549 175.394,363.863 17.003,363.863 36.804,413.549 "/>
<polygon style="fill:#FFDB2D;" points="96.199,363.863 96.199,413.549 155.594,413.549 175.394,363.863 "/>
<rect x="49.069" y="348.989" transform="matrix(0.7071 0.7071 -0.7071 0.7071 276.1444 61.306)" style="fill:#FFFFFF;" width="30" height="30"/>
<polygon style="fill:#E6E6E6;" points="475.196,413.549 512,321.197 319.603,321.197 356.406,413.549 400.801,413.549 400.801,482 
	376.421,482 376.421,512 455.182,512 455.182,482 430.801,482 430.801,413.549 "/>
<polygon style="fill:#D6D6D6;" points="400.801,413.549 400.801,482 376.421,482 376.421,512 455.182,512 455.182,482 430.801,482 
	430.801,413.549 "/>
<polygon style="fill:#FFE97F;" points="475.196,413.549 494.997,363.863 336.606,363.863 356.406,413.549 "/>
<polygon style="fill:#FFDB2D;" points="415.801,363.863 415.801,413.549 475.196,413.549 494.997,363.863 "/>
<rect x="368.68" y="348.99" transform="matrix(0.7071 0.7071 -0.7071 0.7071 369.7568 -164.6927)" style="fill:#FFFFFF;" width="30" height="30"/>
<polygon style="fill:#E6E6E6;" points="315.395,413.549 352.199,321.197 159.801,321.197 196.605,413.549 241,413.549 241,482 
	216.62,482 216.62,512 295.38,512 295.38,482 271,482 271,413.549 "/>
<polygon style="fill:#D6D6D6;" points="241,413.549 241,482 216.62,482 216.62,512 295.38,512 295.38,482 271,482 271,413.549 "/>
<polygon style="fill:#FFE97F;" points="315.395,413.549 335.195,363.863 176.805,363.863 196.605,413.549 "/>
<polygon style="fill:#FFDB2D;" points="256,363.863 256,413.549 315.395,413.549 335.195,363.863 "/>
<rect x="208.875" y="348.994" transform="matrix(0.7071 0.7071 -0.7071 0.7071 322.9541 -51.6919)" style="fill:#FFFFFF;" width="30" height="30"/>
<g>
</g>
<g>
</g>
<g>
</g>
<g>
</g>
<g>
</g>
<g>
</g>
<g>
</g>
<g>
</g>
<g>
</g>
<g>
</g>
<g>
</g>
<g>
</g>
<g>
</g>
<g>
</g>
<g>
</g>
</svg>
