<?xml version="1.0" encoding="iso-8859-1"?>
<!-- Generator: Adobe Illustrator 19.0.0, SVG Export Plug-In . SVG Version: 6.00 Build 0)  -->
<svg version="1.1" id="Capa_1" xmlns="http://www.w3.org/2000/svg" xmlns:xlink="http://www.w3.org/1999/xlink" x="0px" y="0px"
	 viewBox="0 0 511.999 511.999" style="enable-background:new 0 0 511.999 511.999;" xml:space="preserve">
<path style="fill:#E6E6E6;" d="M410.884,414.739l-14.221,10.666c-14.331,10.747-32.463,14.209-49.741,9.495
	c-17.395-4.744-35.359-3.58-51.533,3.019l51.8-163.744h-31.443L256,463.044l-59.748-188.87H164.81l75.235,237.825h34.962
	c0.223-15.648,7.439-30.033,19.906-39.555c12.666-9.672,28.746-12.817,44.122-8.623c26.272,7.163,53.831,1.903,75.616-14.435
	l14.221-10.666L410.884,414.739z"/>
<path style="fill:#D6D6D6;" d="M410.884,414.739l-14.221,10.666c-14.331,10.747-32.463,14.209-49.741,9.495
	c-17.395-4.744-35.359-3.58-51.533,3.019l51.8-163.744h-31.443L256,463.044v48.955h19.007c0.223-15.648,7.439-30.033,19.906-39.555
	c12.666-9.672,28.746-12.817,44.122-8.623c26.272,7.163,53.831,1.903,75.616-14.435l14.221-10.666L410.884,414.739z"/>
<path style="fill:#95DAF9;" d="M430.447,45.95C405.049,16.319,371.08,0,334.798,0s-70.251,16.319-95.65,45.95
	c-24.819,28.955-38.487,67.302-38.487,107.979s13.668,79.025,38.487,107.98c25.398,29.631,59.367,45.95,95.65,45.95
	s70.25-16.319,95.649-45.95c24.819-28.955,38.487-67.302,38.487-107.98S455.266,74.905,430.447,45.95z"/>
<path style="fill:#4EC1F5;" d="M334.521,308.237c36.281,0,70.25-16.319,95.648-45.95c24.82-28.955,38.488-67.302,38.488-107.98
	s-13.668-79.025-38.488-107.979c-25.397-29.631-59.366-45.95-95.648-45.95"/>
<rect x="379.452" y="70.778" transform="matrix(-0.7071 0.7071 -0.7071 -0.7071 733.9984 -132.4989)" style="fill:#95DAF9;" width="29.978" height="29.978"/>
<path style="fill:#FD0023;" d="M272.849,45.95C247.451,16.319,213.482,0,177.2,0s-70.25,16.319-95.649,45.95
	C56.732,74.905,43.065,113.253,43.065,153.93s13.668,79.025,38.487,107.98c25.398,29.631,59.366,45.95,95.649,45.95
	s70.251-16.319,95.65-45.95c24.819-28.955,38.487-67.302,38.487-107.98S297.668,74.905,272.849,45.95z"/>
<path style="fill:#E60020;" d="M177.2,307.86c36.282,0,70.251-16.319,95.65-45.95c24.819-28.955,38.487-67.302,38.487-107.98
	S297.668,74.905,272.849,45.95C247.451,16.319,213.482,0,177.2,0"/>
<g>
	
		<rect x="81.013" y="113.178" transform="matrix(-0.7071 0.7071 -0.7071 -0.7071 254.5137 150.9113)" style="fill:#FE99A7;" width="29.978" height="29.978"/>
	
		<rect x="123.877" y="70.543" transform="matrix(-0.7071 0.7071 -0.7071 -0.7071 297.5396 47.8191)" style="fill:#FE99A7;" width="29.978" height="29.978"/>
</g>
<g>
</g>
<g>
</g>
<g>
</g>
<g>
</g>
<g>
</g>
<g>
</g>
<g>
</g>
<g>
</g>
<g>
</g>
<g>
</g>
<g>
</g>
<g>
</g>
<g>
</g>
<g>
</g>
<g>
</g>
</svg>
