<?xml version="1.0" encoding="iso-8859-1"?>
<!-- Generator: Adobe Illustrator 19.0.0, SVG Export Plug-In . SVG Version: 6.00 Build 0)  -->
<svg version="1.1" id="Capa_1" xmlns="http://www.w3.org/2000/svg" xmlns:xlink="http://www.w3.org/1999/xlink" x="0px" y="0px"
	 viewBox="0 0 512 512" style="enable-background:new 0 0 512 512;" xml:space="preserve">
<path d="M276.294,512c-41.036,0-74.423-33.386-74.423-74.423v-80.41h30.912v80.41c0,23.992,19.519,43.512,43.511,43.512
	c23.992,0,43.512-19.519,43.512-43.512h30.912C350.718,478.614,317.331,512,276.294,512z"/>
<rect x="131.586" y="153.945" style="fill:#FFE97F;" width="171.485" height="256.277"/>
<g>
	<rect x="217.323" y="153.945" style="fill:#FFDB2D;" width="85.737" height="256.277"/>
	
		<rect x="341.505" y="367.763" transform="matrix(-0.7071 0.7071 -0.7071 -0.7071 879.4317 401.4066)" style="fill:#FFDB2D;" width="30.154" height="30.154"/>
	
		<rect x="384.625" y="324.88" transform="matrix(-0.7071 0.7071 -0.7071 -0.7071 922.7192 297.7116)" style="fill:#FFDB2D;" width="30.154" height="30.154"/>
</g>
<g>
	<polygon style="fill:#FD0023;" points="131.586,153.947 131.586,304.789 282.427,153.947 	"/>
	<polygon style="fill:#FD0023;" points="303.069,276.196 169.037,410.226 303.069,410.226 	"/>
	<polygon style="fill:#FD0023;" points="303.069,177.022 131.586,348.505 131.586,403.962 303.069,232.48 	"/>
</g>
<g>
	<polygon style="fill:#DC001E;" points="282.427,153.947 217.327,153.947 217.327,219.048 	"/>
	<polygon style="fill:#DC001E;" points="303.069,410.226 303.069,276.196 217.327,361.936 217.327,410.226 	"/>
	<polygon style="fill:#DC001E;" points="303.069,232.48 303.069,177.022 217.327,262.763 217.327,318.221 	"/>
</g>
<polygon style="fill:#5B5B5B;" points="217.327,0 90.977,194.697 343.678,194.697 "/>
<polygon points="217.327,194.697 343.678,194.697 217.327,0 217.327,0 "/>
<g>
</g>
<g>
</g>
<g>
</g>
<g>
</g>
<g>
</g>
<g>
</g>
<g>
</g>
<g>
</g>
<g>
</g>
<g>
</g>
<g>
</g>
<g>
</g>
<g>
</g>
<g>
</g>
<g>
</g>
</svg>
