<?xml version="1.0" encoding="iso-8859-1"?>
<!-- Generator: Adobe Illustrator 19.0.0, SVG Export Plug-In . SVG Version: 6.00 Build 0)  -->
<svg version="1.1" id="Capa_1" xmlns="http://www.w3.org/2000/svg" xmlns:xlink="http://www.w3.org/1999/xlink" x="0px" y="0px"
	 viewBox="0 0 512 512" style="enable-background:new 0 0 512 512;" xml:space="preserve">
<path style="fill:#FFDB2D;" d="M319.114,0c-25.909,0-48.899,12.688-63.119,32.167C241.776,12.688,218.786,0,192.876,0
	c-43.075,0-78.119,35.044-78.119,78.119s35.044,78.119,78.119,78.119h126.238c43.075,0,78.119-35.044,78.119-78.119
	S362.189,0,319.114,0z M240.995,126.238h-48.119c-26.533,0-48.119-21.586-48.119-48.119S166.343,30,192.876,30
	s48.119,21.586,48.119,48.119V126.238z M319.114,126.238h-48.119V78.119c0-26.533,21.586-48.119,48.119-48.119
	s48.119,21.586,48.119,48.119S345.647,126.238,319.114,126.238z"/>
<path style="fill:#FCB72C;" d="M319.114,0c-25.909,0-48.899,12.688-63.119,32.167l0,0v124.071h63.119
	c43.075,0,78.119-35.044,78.119-78.119S362.189,0,319.114,0z M319.114,126.238h-48.119V78.119c0-26.533,21.586-48.119,48.119-48.119
	s48.119,21.586,48.119,48.119S345.647,126.238,319.114,126.238z"/>
<polygon style="fill:#FD0023;" points="271.662,160.667 63.114,160.667 63.114,344.286 77.115,360 63.114,374.286 63.114,512 
	271.662,512 "/>
<polygon style="fill:#E60020;" points="253.678,160.667 253.678,512 448.876,512 448.876,374.286 440.162,359.5 448.876,346 
	448.876,160.667 "/>
<rect x="40.165" y="126.24" style="fill:#DC001E;" width="431.67" height="121.81"/>
<rect x="256.855" y="126.24" style="fill:#B6001A;" width="214.98" height="121.81"/>
<polygon style="fill:#FFE97F;" points="270.995,344.286 270.995,126 240.995,126 240.995,344.286 63.114,344.286 63.114,374.286 
	240.995,374.286 240.995,512 270.995,512 270.995,374.286 448.876,374.286 448.876,344.286 "/>
<polygon style="fill:#FFDB2D;" points="270.995,344.286 270.995,126 255.995,126 255.995,512 270.995,512 270.995,374.286 
	448.876,374.286 448.876,344.286 "/>
<g>
</g>
<g>
</g>
<g>
</g>
<g>
</g>
<g>
</g>
<g>
</g>
<g>
</g>
<g>
</g>
<g>
</g>
<g>
</g>
<g>
</g>
<g>
</g>
<g>
</g>
<g>
</g>
<g>
</g>
</svg>
