<?xml version="1.0" encoding="iso-8859-1"?>
<!-- Generator: Adobe Illustrator 19.0.0, SVG Export Plug-In . SVG Version: 6.00 Build 0)  -->
<svg version="1.1" id="Capa_1" xmlns="http://www.w3.org/2000/svg" xmlns:xlink="http://www.w3.org/1999/xlink" x="0px" y="0px"
	 viewBox="0 0 512 512" style="enable-background:new 0 0 512 512;" xml:space="preserve">
<g>
	
		<rect x="134.209" y="63.388" transform="matrix(-0.7071 0.7071 -0.7071 -0.7071 310.1441 28.3098)" style="fill:#FFE97F;" width="30" height="30"/>
	
		<rect x="198.448" y="31.387" transform="matrix(-0.7071 0.7071 -0.7071 -0.7071 397.1784 -71.7435)" style="fill:#FFE97F;" width="30" height="30"/>
</g>
<g>
	
		<rect x="273.119" y="63.385" transform="matrix(-0.7071 0.7071 -0.7071 -0.7071 547.2764 -69.9201)" style="fill:#FFDB2D;" width="30" height="30"/>
	
		<rect x="347.784" y="31.378" transform="matrix(-0.7071 0.7071 -0.7071 -0.7071 652.1056 -177.3545)" style="fill:#FFDB2D;" width="30" height="30"/>
</g>
<path style="fill:#E6E6E6;" d="M91.667,127.022v132.333c0,25.916,21.084,47,47,47s47-21.084,47-47V127.022H91.667z"/>
<polygon style="fill:#D6D6D6;" points="153.667,415.022 153.667,291.355 123.667,291.355 123.667,415.022 106.667,415.022 
	106.667,445.022 170.667,445.022 170.667,415.022 "/>
<path style="fill:#FFE97F;" d="M91.667,185.169v74.186c0,25.916,21.084,47,47,47s47-21.084,47-47v-74.186L91.667,185.169
	L91.667,185.169z"/>
<rect x="102.33" y="244.834" transform="matrix(-0.7071 0.7071 -0.7071 -0.7071 384.0246 360.5988)" style="fill:#FFFFFF;" width="30" height="30"/>
<path style="fill:#E6E6E6;" d="M420.334,127.022v132.333c0,25.916-21.084,47-47,47s-47-21.084-47-47V127.022H420.334z"/>
<polygon style="fill:#D6D6D6;" points="358.334,415.022 358.334,291.355 388.334,291.355 388.334,415.022 405.334,415.022 
	405.334,445.022 341.334,445.022 341.334,415.022 "/>
<path style="fill:#FFE97F;" d="M420.334,185.169v74.186c0,25.916-21.084,47-47,47s-47-21.084-47-47v-74.186L420.334,185.169
	L420.334,185.169z"/>
<polygon style="fill:#D6D6D6;" points="271,415.022 271,291.355 241,291.355 241,415.022 224,415.022 224,445.022 288,445.022 
	288,415.022 "/>
<path style="fill:#E6E6E6;" d="M209,127.022v132.333c0,25.916,21.084,47,47,47s47-21.084,47-47V127.022H209z"/>
<path style="fill:#FFE97F;" d="M209,185.169v74.186c0,25.916,21.084,47,47,47s47-21.084,47-47v-74.186L209,185.169L209,185.169z"/>
<path style="fill:#FFDB2D;" d="M256,185.169v121.186c25.916,0,47-21.084,47-47v-74.186L256,185.169L256,185.169z"/>
<rect x="251.663" y="212.838" transform="matrix(-0.7071 0.7071 -0.7071 -0.7071 616.3279 200.3846)" style="fill:#FFFFFF;" width="30" height="30"/>
<polygon style="fill:#FFE97F;" points="454.334,377.573 454.334,434.462 57.667,434.462 57.667,377.573 0,377.573 0,407.573 
	27.667,407.573 27.667,486.835 484.333,486.835 484.334,407.573 512,407.573 512,377.573 "/>
<g>
	<polygon style="fill:#FFDB2D;" points="454.334,377.573 454.334,434.462 256,434.462 256,486.835 484.333,486.835 484.334,407.573 
		512,407.573 512,377.573 	"/>
	<path style="fill:#FFDB2D;" d="M138.667,185.169v121.186c25.916,0,47-21.084,47-47v-74.186L138.667,185.169L138.667,185.169z"/>
	<path style="fill:#FFDB2D;" d="M373.334,185.169v121.186c25.916,0,47-21.084,47-47v-74.186L373.334,185.169L373.334,185.169z"/>
</g>
<rect x="358.334" y="244.844" transform="matrix(0.7071 0.7071 -0.7071 0.7071 293.0847 -187.8805)" style="fill:#FFFFFF;" width="30" height="30"/>
<g>
</g>
<g>
</g>
<g>
</g>
<g>
</g>
<g>
</g>
<g>
</g>
<g>
</g>
<g>
</g>
<g>
</g>
<g>
</g>
<g>
</g>
<g>
</g>
<g>
</g>
<g>
</g>
<g>
</g>
</svg>
