<?xml version="1.0" encoding="iso-8859-1"?>
<!-- Generator: Adobe Illustrator 19.0.0, SVG Export Plug-In . SVG Version: 6.00 Build 0)  -->
<svg version="1.1" id="Capa_1" xmlns="http://www.w3.org/2000/svg" xmlns:xlink="http://www.w3.org/1999/xlink" x="0px" y="0px"
	 viewBox="0 0 511.999 511.999" style="enable-background:new 0 0 511.999 511.999;" xml:space="preserve">
<polygon style="fill:#95DAF9;" points="403.709,262.43 410.719,220.367 382.059,177.377 179.73,154.897 137.263,169.053 
	125.323,204.876 99.855,230.343 110.55,262.43 "/>
<polygon style="fill:#00BB75;" points="270.192,80.274 256.075,128.914 213.027,138.618 138.752,394.527 282.063,436.121 
	356.336,180.21 325.171,148.968 339.051,101.147 "/>
<polygon style="fill:#008A56;" points="269.612,82.272 256.075,128.914 255.999,128.931 255.999,428.556 282.063,436.121 
	356.336,180.21 325.171,148.968 339.051,101.147 "/>
<path style="fill:#FFFFFF;" d="M221.827,375.978L221.827,375.978c-15.9-4.615-25.049-21.245-20.434-37.146l39.272-135.312
	c4.615-15.9,21.245-25.049,37.146-20.434l0,0c15.9,4.615,25.049,21.245,20.434,37.146l-39.273,135.312
	C254.358,371.444,237.726,380.593,221.827,375.978z"/>
<polygon style="fill:#FFE97F;" points="293.489,0 269.546,82.499 298.055,112.895 338.683,102.413 362.586,20.053 "/>
<polygon style="fill:#FF9900;" points="354.344,48.131 362.586,20.053 293.489,0 285.454,27.688 "/>
<path style="fill:#FFE97F;" d="M277.811,183.086L277.811,183.086c-7.563-2.195-15.29-1.271-21.811,2.008v177.343
	c1.249-2.117,2.256-4.424,2.973-6.893l39.273-135.312C302.859,204.331,293.711,187.701,277.811,183.086z"/>
<polygon style="fill:#EFEFEF;" points="89.567,246.774 119.704,511.999 392.295,511.999 422.432,246.774 "/>
<polygon style="fill:#E6E6E6;" points="255.999,246.774 255.999,511.999 392.295,511.999 422.432,246.774 "/>
<polygon style="fill:#D6D6D6;" points="324.658,388.424 187.341,388.424 187.341,319.765 218.071,319.765 218.071,357.693 
	293.928,357.693 293.928,319.765 324.658,319.765 "/>
<polygon style="fill:#ADADAD;" points="293.928,319.765 293.928,357.693 255.999,357.693 255.999,388.424 324.658,388.424 
	324.658,319.765 "/>
<g>
</g>
<g>
</g>
<g>
</g>
<g>
</g>
<g>
</g>
<g>
</g>
<g>
</g>
<g>
</g>
<g>
</g>
<g>
</g>
<g>
</g>
<g>
</g>
<g>
</g>
<g>
</g>
<g>
</g>
</svg>
