<?xml version="1.0" encoding="iso-8859-1"?>
<!-- Generator: Adobe Illustrator 19.0.0, SVG Export Plug-In . SVG Version: 6.00 Build 0)  -->
<svg version="1.1" id="Capa_1" xmlns="http://www.w3.org/2000/svg" xmlns:xlink="http://www.w3.org/1999/xlink" x="0px" y="0px"
	 viewBox="0 0 512 512" style="enable-background:new 0 0 512 512;" xml:space="preserve">
<path style="fill:#FD0023;" d="M404.137,129.628C390.433,198.895,329.229,251.29,256,251.29s-134.433-52.395-148.137-121.661H40.09
	v317.749h60.621V194.667c31.943,52.352,89.602,87.376,155.289,87.376c90.236,0,165.309-66.097,179.388-152.415H404.137z"/>
<path style="fill:#DC001E;" d="M404.152,129.628C390.449,198.897,329.23,251.29,256,251.29v30.754
	c65.688,0,123.347-35.024,155.29-87.377v252.71h60.621V129.628H404.152z"/>
<g>
	<path style="fill:#FFE97F;" d="M70.4,53.956c-30.829,0-55.91,25.081-55.91,55.91s25.081,55.911,55.91,55.911
		s55.91-25.082,55.91-55.911S101.229,53.956,70.4,53.956z"/>
	<rect y="427.29" style="fill:#FFE97F;" width="140.8" height="30.754"/>
</g>
<g>
	<path style="fill:#FFDB2D;" d="M441.6,53.956c-30.829,0-55.911,25.081-55.911,55.91s25.082,55.911,55.911,55.911
		s55.91-25.082,55.91-55.911S472.429,53.956,441.6,53.956z"/>
	<rect x="371.2" y="427.29" style="fill:#FFDB2D;" width="140.8" height="30.754"/>
</g>
<g>
</g>
<g>
</g>
<g>
</g>
<g>
</g>
<g>
</g>
<g>
</g>
<g>
</g>
<g>
</g>
<g>
</g>
<g>
</g>
<g>
</g>
<g>
</g>
<g>
</g>
<g>
</g>
<g>
</g>
</svg>
