<?xml version="1.0" encoding="iso-8859-1"?>
<!-- Generator: Adobe Illustrator 19.0.0, SVG Export Plug-In . SVG Version: 6.00 Build 0)  -->
<svg version="1.1" id="Capa_1" xmlns="http://www.w3.org/2000/svg" xmlns:xlink="http://www.w3.org/1999/xlink" x="0px" y="0px"
	 viewBox="0 0 512 512" style="enable-background:new 0 0 512 512;" xml:space="preserve">
<rect x="38.33" y="410.668" style="fill:#5B5B5B;" width="30" height="42.667"/>
<rect x="443.67" y="410.668" width="30" height="42.667"/>
<rect y="235.668" style="fill:#95DAF9;" width="512" height="185.04"/>
<rect x="256" y="235.668" style="fill:#4EC1F5;" width="256" height="185.04"/>
<circle style="fill:#EFEFEF;" cx="256" cy="261.328" r="96"/>
<path style="fill:#E6E6E6;" d="M256,165.331c53.02,0,96,42.98,96,96s-42.98,96-96,96"/>
<path style="fill:#5B5B5B;" d="M256,372.331c-61.206,0-111-49.794-111-111s49.794-111,111-111s111,49.794,111,111
	S317.206,372.331,256,372.331z M256,180.331c-44.663,0-81,36.336-81,81s36.337,81,81,81s81-36.336,81-81
	S300.663,180.331,256,180.331z"/>
<rect x="91.67" y="335.998" style="fill:#EFEFEF;" width="30" height="30"/>
<rect x="91.67" y="335.998" style="fill:#FFFFFF;" width="30" height="30"/>
<rect x="32" y="335.998" style="fill:#EFEFEF;" width="30" height="30"/>
<rect x="32" y="335.998" style="fill:#FFFFFF;" width="30" height="30"/>
<rect x="390.33" y="335.998" style="fill:#E6E6E6;" width="30" height="30"/>
<rect x="390.33" y="335.998" style="fill:#FFFFFF;" width="30" height="30"/>
<rect x="450" y="335.998" style="fill:#E6E6E6;" width="30" height="30"/>
<rect x="450" y="335.998" style="fill:#FFFFFF;" width="30" height="30"/>
<g>
	<rect x="241" y="58.665" style="fill:#FFE97F;" width="30" height="53.33"/>
	
		<rect x="146.666" y="92.49" transform="matrix(0.5 0.866 -0.866 0.5 179.7515 -96.3635)" style="fill:#FFE97F;" width="53.329" height="29.999"/>
	
		<rect x="86.158" y="153.003" transform="matrix(0.866 0.5 -0.5 0.866 99.1191 -33.9032)" style="fill:#FFE97F;" width="53.329" height="29.999"/>
</g>
<g>
	
		<rect x="311.996" y="92.494" transform="matrix(-0.5 0.866 -0.866 -0.5 601.0859 -132.0438)" style="fill:#FFDB2D;" width="53.329" height="29.999"/>
	
		<rect x="372.51" y="152.994" transform="matrix(-0.866 0.5 -0.5 -0.866 828.8652 113.8876)" style="fill:#FFDB2D;" width="53.329" height="29.999"/>
</g>
<path d="M256,150.331v30c44.663,0,81,36.336,81,81s-36.337,81-81,81v30c61.206,0,111-49.795,111-111S317.206,150.331,256,150.331z"
	/>
<g>
	<path style="fill:#FFFFFF;" d="M313.667,261.331h-30c0-15.256-12.411-27.667-27.667-27.667v-30
		C287.798,203.665,313.667,229.534,313.667,261.331z"/>
	<path style="fill:#FFFFFF;" d="M256,318.998c-31.797,0-57.666-25.869-57.666-57.667h30c0,15.256,12.411,27.667,27.666,27.667
		V318.998z"/>
</g>
<rect x="256" y="58.665" style="fill:#FFDB2D;" width="15" height="53.33"/>
<g>
</g>
<g>
</g>
<g>
</g>
<g>
</g>
<g>
</g>
<g>
</g>
<g>
</g>
<g>
</g>
<g>
</g>
<g>
</g>
<g>
</g>
<g>
</g>
<g>
</g>
<g>
</g>
<g>
</g>
</svg>
