<?xml version="1.0" encoding="iso-8859-1"?>
<!-- Generator: Adobe Illustrator 19.0.0, SVG Export Plug-In . SVG Version: 6.00 Build 0)  -->
<svg version="1.1" id="Capa_1" xmlns="http://www.w3.org/2000/svg" xmlns:xlink="http://www.w3.org/1999/xlink" x="0px" y="0px"
	 viewBox="0 0 512 512" style="enable-background:new 0 0 512 512;" xml:space="preserve">
<rect y="40.04" style="fill:#EFEFEF;" width="512" height="471.96"/>
<rect x="256" y="40.04" style="fill:#E6E6E6;" width="256" height="471.96"/>
<rect y="40.04" style="fill:#95DAF9;" width="512" height="130.62"/>
<rect x="256" y="40.04" style="fill:#4EC1F5;" width="256" height="130.62"/>
<rect x="241" style="fill:#5B5B5B;" width="30" height="111.47"/>
<rect x="256" width="15" height="111.47"/>
<rect x="107.67" style="fill:#5B5B5B;" width="30" height="111.47"/>
<rect x="374.33" width="30" height="111.47"/>
<g>
	<path style="fill:#D6D6D6;" d="M164.333,322.167H81v-83.334h83.333L164.333,322.167L164.333,322.167z M111,292.167h23.333v-23.334
		H111V292.167z"/>
	<path style="fill:#D6D6D6;" d="M164.333,428.833H81V345.5h83.333L164.333,428.833L164.333,428.833z M111,398.833h23.333V375.5H111
		V398.833z"/>
</g>
<g>
	<path style="fill:#ADADAD;" d="M431,322.167h-83.333v-83.334H431V322.167z M377.667,292.167H401v-23.334h-23.333V292.167z"/>
	<path style="fill:#ADADAD;" d="M431,428.833h-83.333V345.5H431V428.833z M377.667,398.833H401V375.5h-23.333V398.833z"/>
</g>
<path style="fill:#D6D6D6;" d="M297.667,322.167h-83.333v-83.334h83.333V322.167z M244.333,292.167h23.333v-23.334h-23.333
	L244.333,292.167L244.333,292.167z"/>
<path style="fill:#FD0023;" d="M256,428.833c-22.975,0-41.667-18.691-41.667-41.666c0-22.976,18.691-41.667,41.667-41.667
	s41.667,18.691,41.667,41.667C297.667,410.142,278.975,428.833,256,428.833z M256,375.5c-6.433,0-11.667,5.233-11.667,11.667
	c0,6.433,5.233,11.666,11.667,11.666s11.667-5.233,11.667-11.666C267.667,380.733,262.433,375.5,256,375.5z"/>
<polygon style="fill:#ADADAD;" points="256,238.833 256,268.833 267.667,268.833 267.667,292.167 256,292.167 256,322.167 
	297.667,322.167 297.667,238.833 "/>
<path style="fill:#DC001E;" d="M256,345.5v30c6.433,0,11.667,5.233,11.667,11.667c0,6.433-5.233,11.666-11.667,11.666v30
	c22.975,0,41.667-18.691,41.667-41.666C297.667,364.191,278.975,345.5,256,345.5z"/>
<g>
</g>
<g>
</g>
<g>
</g>
<g>
</g>
<g>
</g>
<g>
</g>
<g>
</g>
<g>
</g>
<g>
</g>
<g>
</g>
<g>
</g>
<g>
</g>
<g>
</g>
<g>
</g>
<g>
</g>
</svg>
