<?xml version="1.0"?>
<svg xmlns="http://www.w3.org/2000/svg" xmlns:xlink="http://www.w3.org/1999/xlink" version="1.1" id="Layer_1" x="0px" y="0px" viewBox="0 0 502 502" style="enable-background:new 0 0 502 502;" xml:space="preserve" width="512px" height="512px" class=""><g transform="matrix(0.689449 0 0 0.689449 77.9482 77.9482)"><g>
	<g>
		<g>
			<path d="M461.63,251.914l-15.038-34.207c-0.89-2.026-1.879-4.035-2.938-5.968c-6.272-11.469-16.565-20.103-28.981-24.313     c-12.377-4.196-25.794-3.636-37.784,1.578l-5.795,2.52l-7.405-16.845c-0.001-0.002-0.002-0.005-0.003-0.007l-5.456-12.41     c-4.662-10.604-13.188-18.74-24.007-22.907c-10.766-4.146-22.478-3.845-32.987,0.846l-19.228,8.33     c-3.557-5.06-7.877-8.921-12.914-11.528c-10.521-5.445-23.178-4.987-37.621,1.363l-13.759,6.048l-17.81-40.514     c-7.25-16.493-20.706-27.81-36.916-31.05c-15.239-3.046-30.755,1.265-41.51,11.53c-16.139,15.402-20.776,38.528-11.822,58.895     l67.466,154.435c-5.649-1.143-11.602-1.666-17.643-1.519c-15.691,0.387-29.8,5.377-39.247,13.79     c-0.62,0.402-1.203,0.878-1.737,1.428c-9.494,9.777-14.174,21.604-13.537,34.201c0.797,15.743,9.79,31.268,26.006,44.898     c0.082,0.069,0.165,0.137,0.25,0.203l138.681,109.147c1.794,1.413,3.979,2.142,6.186,2.142c1.362,0,2.732-0.278,4.023-0.846     l198.672-87.337c3.425-1.505,5.723-4.797,5.956-8.531l1.081-17.312C488.713,341.548,480.351,294.499,461.63,251.914z      M465.853,386.728l-0.702,11.231L277.55,480.431L143.715,375.097c-11.612-9.796-18.28-20.623-18.78-30.498     c-0.324-6.402,1.87-12.364,6.526-17.748c0.336-0.267,0.658-0.558,0.964-0.873c11.971-12.329,41.824-13.181,57.414-1.748     l34.447,33.084c1.939,1.862,4.434,2.788,6.926,2.788c2.627,0,5.25-1.029,7.214-3.073c3.826-3.983,3.698-10.314-0.285-14.14     l-33.516-32.191l-76.648-175.452c-6.717-15.28-0.627-28.821,7.313-36.398c5.953-5.682,15.066-8.129,23.782-6.386     c9.87,1.973,17.87,8.893,22.527,19.486l58.06,132.072c1.647,3.747,5.313,5.978,9.16,5.978c1.344,0,2.71-0.272,4.019-0.848     c5.056-2.223,7.353-8.123,5.13-13.179l-32.201-73.249l13.76-6.049c8.636-3.795,15.493-4.438,20.379-1.909     c3.458,1.79,6.373,5.338,8.663,10.546l34.24,77.888c1.647,3.747,5.313,5.978,9.16,5.978c1.344,0,2.71-0.272,4.019-0.848     c5.056-2.223,7.353-8.123,5.13-13.179l-30.194-68.685l18.32-7.937c0.039-0.017,0.077-0.033,0.115-0.051     c5.625-2.521,11.904-2.685,17.681-0.46c5.809,2.237,10.385,6.602,12.886,12.292l40.687,92.565     c1.647,3.747,5.313,5.978,9.16,5.978c1.344,0,2.71-0.272,4.019-0.848c5.056-2.222,7.353-8.123,5.13-13.179l-19.779-44.992     l5.722-2.488c15.467-6.727,33.2-0.713,41.244,13.994c0.783,1.431,1.514,2.916,2.173,4.416l15.039,34.208     C460.762,299.638,468.554,343.473,465.853,386.728z" data-original="#000000" class="active-path" fill="#000000"/>
			<path d="M426.561,384.075l-9.865,4.327c-5.058,2.218-7.359,8.116-5.141,13.174c1.645,3.751,5.313,5.986,9.163,5.986     c1.341,0,2.705-0.271,4.011-0.845l9.865-4.327c5.058-2.218,7.359-8.116,5.141-13.174     C437.518,384.158,431.62,381.856,426.561,384.075z" data-original="#000000" class="active-path" fill="#000000"/>
			<path d="M386.77,401.751l-105.353,46.208c-5.058,2.218-7.359,8.116-5.141,13.174c1.645,3.751,5.313,5.986,9.163,5.986     c1.341,0,2.705-0.271,4.011-0.844l105.353-46.209c5.058-2.218,7.359-8.116,5.141-13.174     C397.727,401.835,391.83,399.533,386.77,401.751z" data-original="#000000" class="active-path" fill="#000000"/>
			<path d="M127.017,45.197c0.976,4.727,5.139,7.98,9.783,7.98c0.67,0,1.351-0.068,2.032-0.208     c5.409-1.117,8.888-6.407,7.771-11.816l-6.85-33.174c-1.116-5.408-6.408-8.885-11.815-7.771     c-5.409,1.116-8.888,6.406-7.771,11.815L127.017,45.197z" data-original="#000000" class="active-path" fill="#000000"/>
			<path d="M41.035,46.913c2.909-4.696,1.459-10.859-3.236-13.767l-6.907-4.277c-4.696-2.909-10.859-1.46-13.767,3.236     c-2.909,4.696-1.459,10.859,3.236,13.767l6.907,4.277c1.64,1.016,3.459,1.5,5.256,1.5C35.871,51.649,39.143,49.968,41.035,46.913     z" data-original="#000000" class="active-path" fill="#000000"/>
			<path d="M60.454,72.245l21.332,14.031c1.694,1.114,3.6,1.646,5.486,1.646c3.253,0,6.443-1.585,8.365-4.506     c3.035-4.614,1.754-10.815-2.86-13.85L71.444,55.535c-4.615-3.035-10.815-1.754-13.85,2.86     C54.559,63.009,55.84,69.21,60.454,72.245z" data-original="#000000" class="active-path" fill="#000000"/>
			<path d="M86.622,135.491c-1.117-5.408-6.405-8.886-11.816-7.771l-33.174,6.85c-5.409,1.116-8.888,6.406-7.771,11.815     c0.976,4.727,5.139,7.98,9.783,7.98c0.67,0,1.351-0.068,2.033-0.208l33.174-6.85C84.26,146.19,87.739,140.9,86.622,135.491z" data-original="#000000" class="active-path" fill="#000000"/>
			<path d="M111.775,186.982c-4.615-3.036-10.816-1.754-13.85,2.86l-18.614,28.301c-3.035,4.614-1.754,10.815,2.86,13.85     c1.694,1.114,3.6,1.646,5.486,1.646c3.253,0,6.443-1.585,8.364-4.506l18.614-28.301     C117.67,196.218,116.389,190.017,111.775,186.982z" data-original="#000000" class="active-path" fill="#000000"/>
			<path d="M221.355,105.18c0.976,4.726,5.139,7.979,9.783,7.979c0.67,0,1.35-0.068,2.033-0.208l22.116-4.567     c5.409-1.117,8.888-6.407,7.771-11.816c-1.117-5.409-6.406-8.888-11.816-7.771l-22.116,4.567     C223.717,94.481,220.238,99.771,221.355,105.18z" data-original="#000000" class="active-path" fill="#000000"/>
			<path d="M293.34,100.315c0.67,0,1.351-0.068,2.033-0.208l6.912-1.427c5.409-1.117,8.888-6.407,7.771-11.816     c-1.117-5.408-6.404-8.887-11.816-7.771l-6.912,1.427c-5.409,1.117-8.888,6.407-7.771,11.816     C284.533,97.062,288.696,100.315,293.34,100.315z" data-original="#000000" class="active-path" fill="#000000"/>
			<path d="M190.907,61.982c1.694,1.114,3.6,1.646,5.486,1.646c3.253,0,6.444-1.585,8.364-4.506l18.614-28.301     c3.035-4.614,1.754-10.815-2.86-13.85c-4.615-3.036-10.816-1.754-13.85,2.86l-18.614,28.301     C185.012,52.746,186.293,58.947,190.907,61.982z" data-original="#000000" class="active-path" fill="#000000"/>
		</g>
	</g>
</g></g> </svg>
