<svg xmlns="http://www.w3.org/2000/svg" width="42" height="42" viewBox="0 0 42 42"><g stroke="#000" stroke-miterlimit="10"><path d="M15.91 25.73l8.18-16.55 3.84 1.9-8.18 16.55-3.74 2.84-.1-4.74zm.21-.05l3.58 1.88" fill="none" stroke-width=".963"/><path stroke-width=".753" d="M15.83 32.82h10.55"/></g><path d="M9.62 18.7A2 2 0 0 0 11 17.3l.27-1 .27 1A2 2 0 0 0 13 18.7l1 .3-1 .27a2 2 0 0 0-1.41 1.41l-.27 1-.27-1a2 2 0 0 0-1.41-1.41l-1-.27zm20.43 4.23a1.52 1.52 0 0 0 1.08-1.08l.2-.76.2.76a1.52 1.52 0 0 0 1.08 1.08l.76.2-.76.2a1.52 1.52 0 0 0-1.08 1.08l-.2.76-.2-.76a1.52 1.52 0 0 0-1.08-1.08l-.76-.2zM13 11.13a1.17 1.17 0 0 0 .82-.82l.18-.58.16.58a1.17 1.17 0 0 0 .82.82l.58.16-.58.16a1.17 1.17 0 0 0-.82.82l-.16.58-.16-.58a1.17 1.17 0 0 0-.84-.82l-.58-.16z" stroke="#000" stroke-miterlimit="10"/></svg>