<?xml version="1.0" encoding="iso-8859-1"?>
<!-- Generator: Adobe Illustrator 19.0.0, SVG Export Plug-In . SVG Version: 6.00 Build 0)  -->
<svg version="1.1" id="Capa_1" xmlns="http://www.w3.org/2000/svg" xmlns:xlink="http://www.w3.org/1999/xlink" x="0px" y="0px"
	 viewBox="0 0 370 370" style="enable-background:new 0 0 370 370;" xml:space="preserve">
<g id="XMLID_1093_">
	<path id="XMLID_1095_" style="fill:#FFE98F;" d="M317.494,105.017L317.5,105L330,70l-122.75,36.496
		c6.535,7.941,11.869,16.908,15.727,26.623L317.494,105.017z"/>
	<path id="XMLID_1096_" style="fill:#FFDA44;" d="M130,114.444c28.145,0,51.385,20.933,55.04,48.075l43.913,21.957
		C229.639,179.75,230,174.917,230,170c0-13.025-2.493-25.469-7.023-36.881c-3.857-9.715-9.191-18.682-15.727-26.623
		C188.909,84.211,161.114,70,130,70c-27.734,0-52.829,11.293-70.944,29.528l43.895,21.947
		C110.957,117.004,120.178,114.444,130,114.444z"/>
	<path id="XMLID_1097_" style="fill:#FF9811;" d="M130,114.444c-9.822,0-19.043,2.56-27.049,7.031L180,160l5.04,2.52
		C181.385,135.377,158.145,114.444,130,114.444z"/>
	<polygon id="XMLID_1098_" style="fill:#00D7DF;" points="366.956,105 317.5,105 317.494,105.017 280,210 228.953,184.477 
		185.04,162.52 180,160 180,300 350,300 370,70 	"/>
	<polygon id="XMLID_1099_" style="fill:#00A1A7;" points="366.956,105 370,70 330,70 317.5,105 	"/>
	<polygon id="XMLID_1100_" style="fill:#CCF7F9;" points="180,160 102.951,121.476 59.056,99.528 0,70 20,300 180,300 	"/>
</g>
<g>
</g>
<g>
</g>
<g>
</g>
<g>
</g>
<g>
</g>
<g>
</g>
<g>
</g>
<g>
</g>
<g>
</g>
<g>
</g>
<g>
</g>
<g>
</g>
<g>
</g>
<g>
</g>
<g>
</g>
</svg>
