<?xml version="1.0" encoding="iso-8859-1"?>
<!-- Generator: Adobe Illustrator 19.0.0, SVG Export Plug-In . SVG Version: 6.00 Build 0)  -->
<svg version="1.1" id="Capa_1" xmlns="http://www.w3.org/2000/svg" xmlns:xlink="http://www.w3.org/1999/xlink" x="0px" y="0px"
	 viewBox="0 0 360 360" style="enable-background:new 0 0 360 360;" xml:space="preserve">
<g id="XMLID_20_">
	<polygon id="XMLID_27_" style="fill:#A0815C;" points="150,233.75 150,212.623 0,180.938 0,83.75 0,83.75 0,331.25 180,331.25 
		180,233.75 	"/>
	<rect id="XMLID_26_" x="360" y="83.75" style="fill:#A0815C;" width="0.001" height="247.5"/>
	<path id="XMLID_21_" style="fill:#A0815C;" d="M155,58.75h50c15.823,0,29.211,10.561,33.525,25h30.689
		c-4.826-31.108-31.774-55-64.213-55h-50c-32.44,0-59.387,23.892-64.213,55h30.688C125.789,69.311,139.177,58.75,155,58.75z"/>
	<polygon id="XMLID_22_" style="fill:#786145;" points="360,83.75 360,180.938 210,212.623 210,233.75 180,233.75 180,233.75 
		180,331.25 360,331.25 360,83.75 	"/>
	<polygon id="XMLID_23_" style="fill:#50412E;" points="150,212.623 150,193.75 180,193.75 210,193.75 210,212.623 360,180.938 
		360,83.75 269.213,83.75 238.525,83.75 121.475,83.75 90.787,83.75 0,83.75 0,180.938 	"/>
	<polygon id="XMLID_24_" style="fill:#FFF0B4;" points="180,193.75 150,193.75 150,212.623 150,233.75 180,233.75 180,233.75 	"/>
	<polygon id="XMLID_25_" style="fill:#FFDA44;" points="180,193.75 180,233.75 210,233.75 210,212.623 210,193.75 	"/>
</g>
<g>
</g>
<g>
</g>
<g>
</g>
<g>
</g>
<g>
</g>
<g>
</g>
<g>
</g>
<g>
</g>
<g>
</g>
<g>
</g>
<g>
</g>
<g>
</g>
<g>
</g>
<g>
</g>
<g>
</g>
</svg>
