<?xml version="1.0" encoding="iso-8859-1"?>
<!-- Generator: Adobe Illustrator 19.0.0, SVG Export Plug-In . SVG Version: 6.00 Build 0)  -->
<svg version="1.1" id="Capa_1" xmlns="http://www.w3.org/2000/svg" xmlns:xlink="http://www.w3.org/1999/xlink" x="0px" y="0px"
	 viewBox="0 0 380 380" style="enable-background:new 0 0 380 380;" xml:space="preserve">
<g id="XMLID_1398_">
	<polygon id="XMLID_1400_" style="fill:#FFF0B4;" points="160,70 160,100 189.999,100 190,100 190,70 	"/>
	<rect id="XMLID_1401_" x="190" y="70" style="fill:#FFDA44;" width="30" height="30"/>
	<path id="XMLID_1402_" style="fill:#ACABB1;" d="M130,75c0-19.299,15.701-35,35-35h50c19.299,0,35,15.701,35,35v25h30V75
		c0-35.841-29.159-65-65-65h-50c-35.841,0-65,29.159-65,65v25h30V75z"/>
	<polygon id="XMLID_1403_" style="fill:#DEDDE0;" points="40,330 40,140 189.999,140 189.999,100 160,100 130,100 100,100 0,100 
		0,370 189.999,370 189.999,330 	"/>
	<polygon id="XMLID_1404_" style="fill:#CDCDD0;" points="280,100 250,100 220,100 190,100 189.999,100 189.999,140 190,140 
		340,140 340,330 190,330 189.999,330 189.999,370 380,370 380,100 	"/>
	<path id="XMLID_1405_" style="fill:#ACABB1;" d="M176.235,208.439c0,2.684,0.938,4.801,2.819,6.358
		c1.875,1.559,4.691,2.927,8.449,4.106v-19.799C179.991,199.745,176.235,202.859,176.235,208.439z"/>
	<path id="XMLID_1406_" style="fill:#ACABB1;" d="M40,330h149.999H190v-19.5h-4.266v-18.836c-7.404-0.643-14.732-2.143-21.975-4.505
		c-7.243-2.359-13.765-5.473-19.559-9.34l11.59-23.021c0.43,0.541,1.582,1.427,3.462,2.656c1.875,1.238,4.267,2.522,7.163,3.862
		c2.896,1.349,6.171,2.632,9.819,3.869c3.649,1.232,7.407,2.117,11.269,2.655v-21.41l-7.727-2.257
		c-5.26-1.61-9.82-3.355-13.682-5.23c-3.865-1.878-7.06-4.052-9.579-6.518c-2.523-2.469-4.403-5.316-5.636-8.533
		c-1.233-3.221-1.852-6.979-1.852-11.272c0-5.579,0.966-10.541,2.9-14.891c1.931-4.344,4.531-8.07,7.807-11.188
		c3.273-3.111,7.135-5.55,11.591-7.321c4.451-1.77,9.255-2.924,14.407-3.464V159.5H190V140h-0.001H40V330z"/>
	<path id="XMLID_1407_" style="fill:#818085;" d="M207.467,259.63c0-2.79-1.127-4.964-3.381-6.519
		c-2.255-1.558-5.259-2.977-9.014-4.267v19.318C203.334,267.842,207.467,264.995,207.467,259.63z"/>
	<path id="XMLID_1408_" style="fill:#818085;" d="M196.843,159.5v16.258c6.973,0.648,13.52,2.201,19.638,4.67
		c6.117,2.472,11.43,4.992,15.938,7.564l-11.59,21.897c-0.321-0.429-1.263-1.13-2.817-2.099c-1.556-0.963-3.542-2.008-5.956-3.137
		c-2.416-1.123-5.099-2.199-8.049-3.221c-2.953-1.02-5.931-1.738-8.934-2.17v21.892l5.15,1.289
		c5.474,1.503,10.408,3.138,14.811,4.908c4.398,1.771,8.129,3.972,11.188,6.602c3.059,2.632,5.419,5.82,7.082,9.578
		c1.664,3.756,2.496,8.266,2.496,13.524c0,6.115-1.072,11.32-3.218,15.611c-2.151,4.298-5.021,7.807-8.613,10.546
		c-3.597,2.737-7.728,4.807-12.396,6.197c-4.67,1.391-9.578,2.199-14.729,2.413V310.5H190V330h150V140H190v19.5H196.843z"/>
	<path id="XMLID_1409_" style="fill:#FFFFFF;" d="M196.843,291.824c5.151-0.214,10.059-1.022,14.729-2.413
		c4.668-1.391,8.799-3.46,12.396-6.197c3.593-2.739,6.462-6.248,8.613-10.546c2.145-4.291,3.218-9.496,3.218-15.611
		c0-5.259-0.832-9.769-2.496-13.524c-1.663-3.758-4.023-6.946-7.082-9.578c-3.059-2.63-6.789-4.831-11.188-6.602
		c-4.402-1.77-9.337-3.405-14.811-4.908l-5.15-1.289v-21.892c3.003,0.432,5.98,1.15,8.934,2.17c2.95,1.021,5.633,2.098,8.049,3.221
		c2.414,1.129,4.4,2.174,5.956,3.137c1.555,0.969,2.496,1.67,2.817,2.099l11.59-21.897c-4.508-2.572-9.82-5.093-15.938-7.564
		c-6.117-2.469-12.665-4.022-19.638-4.67V159.5H190h-4.266v16.258c-5.152,0.54-9.956,1.693-14.407,3.464
		c-4.456,1.771-8.318,4.21-11.591,7.321c-3.275,3.118-5.876,6.845-7.807,11.188c-1.935,4.35-2.9,9.312-2.9,14.891
		c0,4.294,0.618,8.052,1.852,11.272c1.232,3.217,3.113,6.064,5.636,8.533c2.52,2.466,5.714,4.64,9.579,6.518
		c3.861,1.874,8.422,3.619,13.682,5.23l7.727,2.257v21.41c-3.861-0.538-7.619-1.423-11.269-2.655
		c-3.648-1.237-6.923-2.521-9.819-3.869c-2.896-1.34-5.288-2.624-7.163-3.862c-1.88-1.23-3.032-2.115-3.462-2.656l-11.59,23.021
		c5.794,3.867,12.315,6.98,19.559,9.34c7.243,2.362,14.57,3.862,21.975,4.505V310.5H190h6.843V291.824z M187.504,218.903
		c-3.758-1.18-6.574-2.547-8.449-4.106c-1.881-1.558-2.819-3.675-2.819-6.358c0-5.579,3.756-8.693,11.269-9.334V218.903z
		 M195.072,248.845c3.755,1.29,6.759,2.709,9.014,4.267c2.254,1.555,3.381,3.729,3.381,6.519c0,5.365-4.133,8.212-12.395,8.533
		V248.845z"/>
</g>
<g>
</g>
<g>
</g>
<g>
</g>
<g>
</g>
<g>
</g>
<g>
</g>
<g>
</g>
<g>
</g>
<g>
</g>
<g>
</g>
<g>
</g>
<g>
</g>
<g>
</g>
<g>
</g>
<g>
</g>
</svg>
