<?xml version="1.0" encoding="iso-8859-1"?>
<!-- Generator: Adobe Illustrator 19.0.0, SVG Export Plug-In . SVG Version: 6.00 Build 0)  -->
<svg version="1.1" id="Capa_1" xmlns="http://www.w3.org/2000/svg" xmlns:xlink="http://www.w3.org/1999/xlink" x="0px" y="0px"
	 viewBox="0 0 450 450" style="enable-background:new 0 0 450 450;" xml:space="preserve">
<g id="XMLID_1107_">
	<polygon id="XMLID_1122_" style="fill:#A0815C;" points="145,420 145,310 225,310 225,280 145,280 145,170 225,170 225,140 
		145,140 145,30 225,30 225,0 115,0 115,450 225,450 225,420 	"/>
	<polygon id="XMLID_1123_" style="fill:#50412E;" points="225,0 225,30 305,30 305,140 225,140 225,170 305,170 305,280 225,280 
		225,310 305,310 305,420 225,420 225,450 335,450 335,0 	"/>
	<path id="XMLID_1124_" style="fill:#B39A7D;" d="M145,420h80h80V310h-80h-80V420z M185,340h80v30h-80V340z"/>
	<path id="XMLID_1127_" style="fill:#B39A7D;" d="M145,280h80h80V170h-80h-80V280z M185,200h80v30h-80V200z"/>
	<path id="XMLID_1130_" style="fill:#B39A7D;" d="M145,140h80h80V30h-80h-80V140z M185,60h80v30h-80V60z"/>
	<rect id="XMLID_1133_" x="185" y="60" style="fill:#50412E;" width="80" height="30"/>
	<rect id="XMLID_1134_" x="185" y="200" style="fill:#50412E;" width="80" height="30"/>
	<rect id="XMLID_1135_" x="185" y="340" style="fill:#50412E;" width="80" height="30"/>
</g>
<g>
</g>
<g>
</g>
<g>
</g>
<g>
</g>
<g>
</g>
<g>
</g>
<g>
</g>
<g>
</g>
<g>
</g>
<g>
</g>
<g>
</g>
<g>
</g>
<g>
</g>
<g>
</g>
<g>
</g>
</svg>
