<?xml version="1.0" encoding="iso-8859-1"?>
<!-- Generator: Adobe Illustrator 19.0.0, SVG Export Plug-In . SVG Version: 6.00 Build 0)  -->
<svg version="1.1" id="Capa_1" xmlns="http://www.w3.org/2000/svg" xmlns:xlink="http://www.w3.org/1999/xlink" x="0px" y="0px"
	 viewBox="0 0 400 400" style="enable-background:new 0 0 400 400;" xml:space="preserve">
<g id="XMLID_17_">
	<polygon id="XMLID_853_" style="fill:#ACABB1;" points="95,370 95,130 65,130 65,400 200,400 200,370 	"/>
	<polygon id="XMLID_854_" style="fill:#818085;" points="305,370 200,370 200,400 335,400 335,130 305,130 	"/>
	<path id="XMLID_42_" style="fill:#DEDDE0;" d="M65,0v130h30v240h105h105V130h30V0H65z M125,30h150v70H125V30z M155,340h-30v-30h30
		V340z M155,280h-30v-30h30V280z M155,220h-30v-30h30V220z M155,160h-30v-30h30V160z M215,340h-30v-30h30V340z M215,280h-30v-30h30
		V280z M215,220h-30v-30h30V220z M215,160h-30v-30h30V160z M275,340h-30v-90h30V340z M275,220h-30v-30h30V220z M275,160h-30v-30h30
		V160z"/>
	<rect id="XMLID_855_" x="125" y="130" style="fill:#FFFFFF;" width="30" height="30"/>
	<rect id="XMLID_869_" x="185" y="130" style="fill:#FF9811;" width="30" height="30"/>
	<rect id="XMLID_870_" x="245" y="130" style="fill:#FF5023;" width="30" height="30"/>
	<rect id="XMLID_871_" x="125" y="190" style="fill:#FFFFFF;" width="30" height="30"/>
	<rect id="XMLID_872_" x="185" y="190" style="fill:#FFFFFF;" width="30" height="30"/>
	<rect id="XMLID_873_" x="245" y="190" style="fill:#FFFFFF;" width="30" height="30"/>
	<rect id="XMLID_874_" x="125" y="250" style="fill:#FFFFFF;" width="30" height="30"/>
	<rect id="XMLID_875_" x="185" y="250" style="fill:#FFFFFF;" width="30" height="30"/>
	<rect id="XMLID_876_" x="245" y="250" style="fill:#FFFFFF;" width="30" height="90"/>
	<rect id="XMLID_877_" x="125" y="310" style="fill:#FFFFFF;" width="30" height="30"/>
	<rect id="XMLID_878_" x="185" y="310" style="fill:#FFFFFF;" width="30" height="30"/>
	<rect id="XMLID_879_" x="125" y="30" style="fill:#565659;" width="150" height="70"/>
</g>
<g>
</g>
<g>
</g>
<g>
</g>
<g>
</g>
<g>
</g>
<g>
</g>
<g>
</g>
<g>
</g>
<g>
</g>
<g>
</g>
<g>
</g>
<g>
</g>
<g>
</g>
<g>
</g>
<g>
</g>
</svg>
