<?xml version="1.0" encoding="iso-8859-1"?>
<!-- Generator: Adobe Illustrator 19.0.0, SVG Export Plug-In . SVG Version: 6.00 Build 0)  -->
<svg version="1.1" id="Capa_1" xmlns="http://www.w3.org/2000/svg" xmlns:xlink="http://www.w3.org/1999/xlink" x="0px" y="0px"
	 viewBox="0 0 380 380" style="enable-background:new 0 0 380 380;" xml:space="preserve">
<g id="XMLID_894_">
	<path id="XMLID_895_" style="fill:#818085;" d="M30,190c0-88.366,71.636-160,160-160V0C85.066,0,0,85.066,0,190s85.066,190,190,190
		v-30C101.636,350,30,278.365,30,190z"/>
	<path id="XMLID_896_" style="fill:#565659;" d="M190,0v30c88.364,0,160,71.634,160,160c0,88.365-71.636,160-160,160v30
		c104.934,0,190-85.066,190-190S294.934,0,190,0z"/>
	<path id="XMLID_897_" style="fill:#FFFFFF;" d="M30,190c0,88.365,71.636,160,160,160s160-71.635,160-160
		c0-88.366-71.636-160-160-160S30,101.634,30,190z M175,60h30v30h-30V60z M175,175v-55h30v55h85h30v30h-30h-85h-30V175z M175,290h30
		v30h-30V290z M90,205H60v-30h30V205z"/>
	<rect id="XMLID_903_" x="175" y="60" style="fill:#ACABB1;" width="30" height="30"/>
	<rect id="XMLID_904_" x="175" y="290" style="fill:#ACABB1;" width="30" height="30"/>
	<rect id="XMLID_905_" x="205" y="175" style="fill:#2B2B2C;" width="85" height="30"/>
	<rect id="XMLID_906_" x="290" y="175" style="fill:#ACABB1;" width="30" height="30"/>
	<rect id="XMLID_907_" x="60" y="175" style="fill:#ACABB1;" width="30" height="30"/>
	<polygon id="XMLID_908_" style="fill:#D80027;" points="205,205 205,175 205,120 175,120 175,175 175,205 	"/>
</g>
<g>
</g>
<g>
</g>
<g>
</g>
<g>
</g>
<g>
</g>
<g>
</g>
<g>
</g>
<g>
</g>
<g>
</g>
<g>
</g>
<g>
</g>
<g>
</g>
<g>
</g>
<g>
</g>
<g>
</g>
</svg>
