<?xml version="1.0" encoding="iso-8859-1"?>
<!-- Generator: Adobe Illustrator 19.0.0, SVG Export Plug-In . SVG Version: 6.00 Build 0)  -->
<svg version="1.1" id="Capa_1" xmlns="http://www.w3.org/2000/svg" xmlns:xlink="http://www.w3.org/1999/xlink" x="0px" y="0px"
	 viewBox="0 0 410 410" style="enable-background:new 0 0 410 410;" xml:space="preserve">
<g id="XMLID_1234_">
	<path id="XMLID_1235_" style="fill:#DEDDE0;" d="M185,380v-52.07c-2.316-0.273-4.512-0.871-6.506-2.024
		c-7.588-4.391-9.816-14.815-14.206-22.403C160.032,296.147,152,289.108,152,280c0-9.109,8.032-16.147,12.288-23.502
		c4.39-7.588,6.618-18.014,14.206-22.403C185.849,229.839,195.892,233,205,233v-43h-80v-30h80v-30h-80v-30h80V0h-80v70H55v340h150
		v-40L185,380z"/>
	<path id="XMLID_1236_" style="fill:#CDCDD0;" d="M205,0v100h80v30h-80v30h80v30h-80v43c9.108,0,19.151-3.161,26.506,1.094
		c7.588,4.391,9.816,14.816,14.206,22.404C249.968,263.853,258,270.891,258,280s-8.032,16.147-12.288,23.502
		c-4.39,7.588-6.618,18.014-14.206,22.403c-1.994,1.153-4.189,1.751-6.506,2.024V380l-20-10v40h150V0H205z"/>
	<polygon id="XMLID_1237_" style="fill:#FFFFFF;" points="125,130 205,130 285,130 285,100 205,100 125,100 	"/>
	<polygon id="XMLID_1238_" style="fill:#FFFFFF;" points="125,190 205,190 285,190 285,160 205,160 125,160 	"/>
	<polygon id="XMLID_1239_" style="fill:#ACABB1;" points="125,0 55,70 125,70 	"/>
	<path id="XMLID_1240_" style="fill:#FF5023;" d="M205,327c-6.64,0-13.771,1.668-20,0.93V380l20-10l20,10v-52.07
		C218.77,328.668,211.64,327,205,327z"/>
	<path id="XMLID_1241_" style="fill:#A2001D;" d="M178.494,234.095c-7.588,4.39-9.816,14.816-14.206,22.403
		C160.032,263.853,152,270.891,152,280c0,9.108,8.032,16.147,12.288,23.502c4.39,7.588,6.618,18.013,14.206,22.403
		c1.994,1.153,4.189,1.751,6.506,2.024c6.229,0.738,13.36-0.93,20-0.93c6.64,0,13.77,1.668,20,0.93
		c2.316-0.273,4.512-0.871,6.506-2.024c7.588-4.39,9.816-14.815,14.206-22.403C249.968,296.147,258,289.109,258,280
		s-8.032-16.147-12.288-23.502c-4.39-7.588-6.619-18.014-14.206-22.404C224.151,229.839,214.108,233,205,233
		C195.892,233,185.849,229.839,178.494,234.095z M235,280c0,16.567-13.432,30-30,30c-16.568,0-30-13.433-30-30
		c0-16.568,13.432-30,30-30C221.568,250,235,263.432,235,280z"/>
	<circle id="XMLID_1244_" style="fill:#FF5023;" cx="205" cy="280" r="30"/>
</g>
<g>
</g>
<g>
</g>
<g>
</g>
<g>
</g>
<g>
</g>
<g>
</g>
<g>
</g>
<g>
</g>
<g>
</g>
<g>
</g>
<g>
</g>
<g>
</g>
<g>
</g>
<g>
</g>
<g>
</g>
</svg>
