<?xml version="1.0" encoding="iso-8859-1"?>
<!-- Generator: Adobe Illustrator 19.0.0, SVG Export Plug-In . SVG Version: 6.00 Build 0)  -->
<svg version="1.1" id="Capa_1" xmlns="http://www.w3.org/2000/svg" xmlns:xlink="http://www.w3.org/1999/xlink" x="0px" y="0px"
	 viewBox="0 0 460 460" style="enable-background:new 0 0 460 460;" xml:space="preserve">
<g id="XMLID_5_">
	<path id="XMLID_54_" style="fill:#ACABB1;" d="M325,405h25.501c-0.328-1.615-0.501-3.287-0.501-5c0-13.807,11.193-25,25-25h-50V405
		z"/>
	<path id="XMLID_53_" style="fill:#ACABB1;" d="M295,375h-50c13.807,0,25,11.193,25,25c0,1.713-0.173,3.385-0.501,5H295V375z"/>
	<polygon id="XMLID_1273_" style="fill:#ACABB1;" points="295,235 295,265 325,265 325,235 310,235 	"/>
	<rect id="XMLID_1274_" x="295" y="305" style="fill:#ACABB1;" width="30" height="70"/>
	<polygon id="XMLID_1275_" style="fill:#565659;" points="295,405 295,425 325,425 325,405 325,375 295,375 	"/>
	<polygon id="XMLID_49_" style="fill:#CCF7F9;" points="310,35 230,35 220,125 310,125 	"/>
	<polygon id="XMLID_1276_" style="fill:#CCF7F9;" points="310,185 220,185 220,235 295,235 310,235 	"/>
	<polygon id="XMLID_1277_" style="fill:#00D7DF;" points="310,235 325,235 400,235 400,185 310,185 	"/>
	<polygon id="XMLID_46_" style="fill:#00D7DF;" points="400,125 390,35 310,35 310,125 	"/>
	<polygon id="XMLID_1278_" style="fill:#00A1A7;" points="220,265 220,305 295,305 325,305 400,305 400,265 325,265 295,265 	"/>
	<path id="XMLID_1279_" style="fill:#565659;" d="M245,375c-13.807,0-25,11.193-25,25s11.193,25,25,25
		c12.094,0,22.182-8.59,24.499-20c0.328-1.615,0.501-3.287,0.501-5C270,386.193,258.807,375,245,375z"/>
	<path id="XMLID_1280_" style="fill:#565659;" d="M350,400c0,1.713,0.173,3.385,0.501,5c2.317,11.41,12.405,20,24.499,20
		c13.807,0,25-11.193,25-25s-11.193-25-25-25S350,386.193,350,400z"/>
	<path id="XMLID_1281_" style="fill:#A0815C;" d="M0,125v300h30v-29.998h160V185h30v-60H0z M160,365H30v-90h130V365z M160,245H30
		v-90h130V245z"/>
	<polygon id="XMLID_1285_" style="fill:#786145;" points="310,125 220,125 220,185 310,185 400,185 430,185 430,425 460,425 
		460,125 	"/>
	<path id="XMLID_1286_" style="fill:#B39A7D;" d="M30,155v90h130v-90H30z M130,215H60v-30h70V215z"/>
	<rect id="XMLID_1289_" x="60" y="185" style="fill:#50412E;" width="70" height="30"/>
	<path id="XMLID_1290_" style="fill:#B39A7D;" d="M30,365h130v-90H30V365z M60,305h70v30H60V305z"/>
	<rect id="XMLID_1293_" x="60" y="305" style="fill:#50412E;" width="70" height="30"/>
</g>
<g>
</g>
<g>
</g>
<g>
</g>
<g>
</g>
<g>
</g>
<g>
</g>
<g>
</g>
<g>
</g>
<g>
</g>
<g>
</g>
<g>
</g>
<g>
</g>
<g>
</g>
<g>
</g>
<g>
</g>
</svg>
