<?xml version="1.0" encoding="iso-8859-1"?>
<!-- Generator: Adobe Illustrator 19.0.0, SVG Export Plug-In . SVG Version: 6.00 Build 0)  -->
<svg version="1.1" id="Capa_1" xmlns="http://www.w3.org/2000/svg" xmlns:xlink="http://www.w3.org/1999/xlink" x="0px" y="0px"
	 viewBox="0 0 320 320" style="enable-background:new 0 0 320 320;" xml:space="preserve">
<g id="XMLID_1193_">
	<polygon id="XMLID_1194_" style="fill:#ACABB1;" points="260.001,0 260,0 260,110 160,110 160,170 290,170 290,200 290,290 
		160,290 160,320 320,320 320,60.002 	"/>
	<polygon id="XMLID_1195_" style="fill:#CDCDD0;" points="30,290 30,200 30,170 160,170 160,110 70,110 30,110 30,0 0,0 0,320 
		160,320 160,290 	"/>
	<path id="XMLID_1196_" style="fill:#FFFFFF;" d="M30,200v90h130h130v-90H30z M260,260H60v-30h200V260z"/>
	<polygon id="XMLID_1199_" style="fill:#FFDA44;" points="30,200 290,200 290,170 160,170 30,170 	"/>
	<rect id="XMLID_1200_" x="60" y="230" style="fill:#565659;" width="200" height="30"/>
	<rect id="XMLID_1201_" x="30" style="fill:#818085;" width="40" height="110"/>
	<path id="XMLID_1202_" style="fill:#565659;" d="M160,110h100V0H70v110H160z M190,30h40v50h-40V30z"/>
	<rect id="XMLID_1205_" x="190" y="30" style="fill:#818085;" width="40" height="50"/>
</g>
<g>
</g>
<g>
</g>
<g>
</g>
<g>
</g>
<g>
</g>
<g>
</g>
<g>
</g>
<g>
</g>
<g>
</g>
<g>
</g>
<g>
</g>
<g>
</g>
<g>
</g>
<g>
</g>
<g>
</g>
</svg>
