<?xml version="1.0" encoding="iso-8859-1"?>
<!-- Generator: Adobe Illustrator 19.0.0, SVG Export Plug-In . SVG Version: 6.00 Build 0)  -->
<svg version="1.1" id="Capa_1" xmlns="http://www.w3.org/2000/svg" xmlns:xlink="http://www.w3.org/1999/xlink" x="0px" y="0px"
	 viewBox="0 0 360 360" style="enable-background:new 0 0 360 360;" xml:space="preserve">
<g id="XMLID_1245_">
	<path id="XMLID_1246_" style="fill:#CDCDD0;" d="M230.949,181.881C232.189,184.43,233,187.11,233,190
		c0,1.299-0.178,2.553-0.471,3.774L360,300V60L230.949,181.881z"/>
	<path id="XMLID_1247_" style="fill:#DEDDE0;" d="M127,190c0-2.89,0.812-5.57,2.051-8.119L0,60v240l127.471-106.226
		C127.178,192.553,127,191.299,127,190z"/>
	<path id="XMLID_1248_" style="fill:#CDCDD0;" d="M153.494,235.905c-7.588-4.39-9.816-14.816-14.206-22.403
		c-3.648-6.307-10.058-12.383-11.817-19.728L0,300h180v-63C170.892,237,160.85,240.161,153.494,235.905z"/>
	<path id="XMLID_1249_" style="fill:#BDBCC1;" d="M220.713,213.502c-4.391,7.588-6.619,18.014-14.207,22.403
		c-7.355,4.256-17.396,1.095-26.505,1.095C180,237,180,237,180,237v63h180L232.529,193.774
		C230.77,201.119,224.361,207.195,220.713,213.502z"/>
	<path id="XMLID_1250_" style="fill:#F2F2F3;" d="M139.288,166.498c4.391-7.588,6.619-18.015,14.207-22.404
		C160.85,139.839,170.892,143,180,143V60H0l129.051,121.881C131.719,176.395,136.382,171.52,139.288,166.498z"/>
	<path id="XMLID_1251_" style="fill:#DEDDE0;" d="M180.001,143c9.109,0,19.15-3.161,26.505,1.095
		c7.588,4.39,9.816,14.816,14.207,22.403c2.906,5.022,7.568,9.896,10.236,15.383L360,60H180L180.001,143
		C180,143,180,143,180.001,143z"/>
	<path id="XMLID_1252_" style="fill:#A2001D;" d="M206.506,144.095c-7.355-4.256-17.396-1.095-26.505-1.095C180,143,180,143,180,143
		c-9.108,0-19.15-3.161-26.505,1.094c-7.588,4.39-9.816,14.816-14.207,22.404c-2.906,5.022-7.569,9.896-10.237,15.383
		C127.812,184.43,127,187.11,127,190c0,1.299,0.178,2.553,0.471,3.774c1.759,7.345,8.169,13.421,11.817,19.728
		c4.391,7.588,6.619,18.014,14.206,22.403C160.85,240.161,170.892,237,180,237c0,0,0,0,0.001,0c9.109,0,19.15,3.161,26.505-1.095
		c7.588-4.39,9.816-14.816,14.207-22.403c3.648-6.307,10.058-12.383,11.816-19.728c0.293-1.222,0.471-2.476,0.471-3.774
		c0-2.89-0.811-5.57-2.051-8.119c-2.668-5.486-7.33-10.36-10.236-15.383C216.322,158.91,214.094,148.484,206.506,144.095z
		 M180.001,220C163.432,220,150,206.567,150,190c0-16.568,13.432-30,30.001-30C196.568,160,210,173.432,210,190
		C210,206.567,196.568,220,180.001,220z"/>
	<circle id="XMLID_1255_" style="fill:#FF5023;" cx="180" cy="190" r="30"/>
</g>
<g>
</g>
<g>
</g>
<g>
</g>
<g>
</g>
<g>
</g>
<g>
</g>
<g>
</g>
<g>
</g>
<g>
</g>
<g>
</g>
<g>
</g>
<g>
</g>
<g>
</g>
<g>
</g>
<g>
</g>
</svg>
