<?xml version="1.0" encoding="iso-8859-1"?>
<!-- Generator: Adobe Illustrator 19.0.0, SVG Export Plug-In . SVG Version: 6.00 Build 0)  -->
<svg version="1.1" id="Capa_1" xmlns="http://www.w3.org/2000/svg" xmlns:xlink="http://www.w3.org/1999/xlink" x="0px" y="0px"
	 viewBox="0 0 400.002 400.002" style="enable-background:new 0 0 400.002 400.002;" xml:space="preserve">
<g id="XMLID_935_">
	<polygon id="XMLID_987_" style="fill:#DEDDE0;" points="200.001,245.001 120.001,245.001 120.001,215.001 200.001,215.001 
		200.001,185.001 135.001,185.001 135.001,155.001 200.001,155.001 200.001,90.001 200.001,90.001 100.001,90.001 100.001,50.001 
		0.002,50.001 0.001,310 200.001,310 	"/>
	<polygon id="XMLID_988_" style="fill:#CDCDD0;" points="400.001,90.001 300.001,90.001 200.001,90.001 200.001,155.001 
		265.001,155.001 265.001,185.001 200.001,185.001 200.001,215.001 280.001,215.001 280.001,245.001 200.001,245.001 200.001,310 
		400,310 400,350.001 400.001,350.001 400.002,350.001 400.002,90.001 	"/>
	<polygon id="XMLID_989_" style="fill:#ACABB1;" points="200.001,310 0.001,310 0,310 0,350.001 0.001,350.001 400,350.001 400,310 
			"/>
	<polygon id="XMLID_990_" style="fill:#FF9811;" points="200.001,90.001 200.001,50.001 100.002,50.001 100.001,50.001 
		100.001,90.001 	"/>
	<polygon id="XMLID_991_" style="fill:#FF5023;" points="200.001,90.001 300.001,90.001 300.001,50.001 200.001,50.001 
		200.001,90.001 	"/>
	<rect id="XMLID_992_" x="300.001" y="50.001" style="fill:#D80027;" width="100" height="40"/>
	<polygon id="XMLID_993_" style="fill:#FFFFFF;" points="135.001,185.001 200.001,185.001 265.001,185.001 265.001,155.001 
		200.001,155.001 135.001,155.001 	"/>
	<polygon id="XMLID_994_" style="fill:#FFFFFF;" points="120.001,245.001 200.001,245.001 280.001,245.001 280.001,215.001 
		200.001,215.001 120.001,215.001 	"/>
</g>
<g>
</g>
<g>
</g>
<g>
</g>
<g>
</g>
<g>
</g>
<g>
</g>
<g>
</g>
<g>
</g>
<g>
</g>
<g>
</g>
<g>
</g>
<g>
</g>
<g>
</g>
<g>
</g>
<g>
</g>
</svg>
