<?xml version="1.0" encoding="iso-8859-1"?>
<!-- Generator: Adobe Illustrator 19.0.0, SVG Export Plug-In . SVG Version: 6.00 Build 0)  -->
<svg version="1.1" id="Capa_1" xmlns="http://www.w3.org/2000/svg" xmlns:xlink="http://www.w3.org/1999/xlink" x="0px" y="0px"
	 viewBox="0 0 350 350" style="enable-background:new 0 0 350 350;" xml:space="preserve">
<g id="XMLID_909_">
	<path id="XMLID_911_" style="fill:#DEDDE0;" d="M160,320V130h15v-30H55v250h120v-30H160z M130,320h-30V130h30V320z"/>
	<path id="XMLID_914_" style="fill:#ACABB1;" d="M175,130h15v190h-15v30h120V100H175V130z M220,130h30v190h-30V130z"/>
	<polygon id="XMLID_917_" style="fill:#FFFFFF;" points="160,320 175,320 190,320 190,130 175,130 160,130 	"/>
	<rect id="XMLID_918_" x="100" y="130" style="fill:#FFFFFF;" width="30" height="190"/>
	<rect id="XMLID_919_" x="220" y="130" style="fill:#FFFFFF;" width="30" height="190"/>
	<path id="XMLID_920_" style="fill:#565659;" d="M325,60h-75V0H100v60H25v40h30h120h120h30V60z M130,30h90v30h-90V30z"/>
</g>
<g>
</g>
<g>
</g>
<g>
</g>
<g>
</g>
<g>
</g>
<g>
</g>
<g>
</g>
<g>
</g>
<g>
</g>
<g>
</g>
<g>
</g>
<g>
</g>
<g>
</g>
<g>
</g>
<g>
</g>
</svg>
