<?xml version="1.0" encoding="iso-8859-1"?>
<!-- Generator: Adobe Illustrator 19.0.0, SVG Export Plug-In . SVG Version: 6.00 Build 0)  -->
<svg version="1.1" id="Capa_1" xmlns="http://www.w3.org/2000/svg" xmlns:xlink="http://www.w3.org/1999/xlink" x="0px" y="0px"
	 viewBox="0 0 420 420" style="enable-background:new 0 0 420 420;" xml:space="preserve">
<g id="XMLID_1305_">
	<path id="XMLID_1306_" style="fill:#91DC5A;" d="M246.173,135.345l-9.809,31.163v18.038c0,8.985-4.499,16.917-11.364,21.677v9.906
		c11.753,0.876,55.849,2.256,81.369-23.266c29.633-29.634,22.996-84.319,22.996-84.319s-33.266-4.037-61.967,8.246
		C261.616,124.272,254.406,130.596,246.173,135.345z"/>
	<path id="XMLID_1307_" style="fill:#91DC5A;" d="M183.636,184.546v-18.038l-9.809-31.163c-8.233-4.749-15.442-11.072-21.225-18.555
		c-28.701-12.283-61.967-8.246-61.967-8.246s-6.638,54.686,22.996,84.319c25.52,25.521,69.616,24.142,81.369,23.266v-9.906
		C188.135,201.463,183.636,193.531,183.636,184.546z"/>
	<path id="XMLID_1308_" style="fill:#6DA544;" d="M225,216.129v-9.906c6.865-4.76,11.364-12.691,11.364-21.677v-18.038H210h-26.364
		v18.038c0,8.985,4.499,16.917,11.364,21.677v9.906V240h30V216.129z"/>
	<path id="XMLID_1309_" style="fill:#FFE98F;" d="M173.827,135.345l9.809,31.163H210c0,0,0-120.371,0-166.508
		c-40.041,0-72.5,32.459-72.5,72.5c0,16.68,5.636,32.04,15.102,44.29C158.384,124.272,165.594,130.596,173.827,135.345z"/>
	<path id="XMLID_1310_" style="fill:#FFDA44;" d="M210,166.508h26.364l9.809-31.163c8.233-4.749,15.442-11.072,21.225-18.555
		c9.466-12.25,15.102-27.61,15.102-44.29C282.5,32.459,250.041,0,210,0C210,46.137,210,166.508,210,166.508z"/>
	<polygon id="XMLID_1311_" style="fill:#FFDA44;" points="114.706,290 130,420 210,420 210,290 	"/>
	<polygon id="XMLID_1312_" style="fill:#FF9811;" points="210,420 290,420 305.294,290 210,290 	"/>
	<polygon id="XMLID_1313_" style="fill:#FF5023;" points="330,240 225,240 195,240 90,240 90,290 114.706,290 210,290 305.294,290 
		330,290 	"/>
</g>
<g>
</g>
<g>
</g>
<g>
</g>
<g>
</g>
<g>
</g>
<g>
</g>
<g>
</g>
<g>
</g>
<g>
</g>
<g>
</g>
<g>
</g>
<g>
</g>
<g>
</g>
<g>
</g>
<g>
</g>
</svg>
