<?xml version="1.0" encoding="iso-8859-1"?>
<!-- Generator: Adobe Illustrator 19.0.0, SVG Export Plug-In . SVG Version: 6.00 Build 0)  -->
<svg version="1.1" id="Capa_1" xmlns="http://www.w3.org/2000/svg" xmlns:xlink="http://www.w3.org/1999/xlink" x="0px" y="0px"
	 viewBox="0 0 370 370" style="enable-background:new 0 0 370 370;" xml:space="preserve">
<g id="XMLID_1206_">
	<path id="XMLID_1207_" style="fill:#FF9811;" d="M0,150c0,44.183,35.817,80,80,80h10v-80H0z"/>
	<path id="XMLID_1208_" style="fill:#FFAD41;" d="M90,70H80c-44.183,0-80,35.817-80,80h90V70z"/>
	<polygon id="XMLID_1209_" style="fill:#FF5023;" points="100.77,370 180,370 170,230 90,230 	"/>
	<path id="XMLID_1210_" style="fill:#FF5023;" d="M370,150c0-29.729-21.627-54.378-50-59.139v118.277
		C348.373,204.378,370,179.727,370,150z"/>
	<polygon id="XMLID_1211_" style="fill:#FFDA44;" points="90,150 90,230 170,230 200,230 290,300 290,150 	"/>
	<polygon id="XMLID_1212_" style="fill:#FFE98F;" points="290,150 290,0 200,70 90,70 90,150 	"/>
	<polygon id="XMLID_1213_" style="fill:#FF9811;" points="320,0 290,0 290,150 290,300 320,300 320,209.139 320,90.861 	"/>
</g>
<g>
</g>
<g>
</g>
<g>
</g>
<g>
</g>
<g>
</g>
<g>
</g>
<g>
</g>
<g>
</g>
<g>
</g>
<g>
</g>
<g>
</g>
<g>
</g>
<g>
</g>
<g>
</g>
<g>
</g>
</svg>
