<?xml version="1.0" encoding="iso-8859-1"?>
<!-- Generator: Adobe Illustrator 19.0.0, SVG Export Plug-In . SVG Version: 6.00 Build 0)  -->
<svg version="1.1" id="Capa_1" xmlns="http://www.w3.org/2000/svg" xmlns:xlink="http://www.w3.org/1999/xlink" x="0px" y="0px"
	 viewBox="0 0 400 400" style="enable-background:new 0 0 400 400;" xml:space="preserve">
<g id="XMLID_1378_">
	<path id="XMLID_1384_" style="fill:#FFFFFF;" d="M143.437,130H54.882c-1.19,13.191-11.69,23.691-24.882,24.882v90.236
		c13.191,1.19,23.692,11.69,24.882,24.882h88.555C123.043,253.5,110,228.275,110,200S123.043,146.5,143.437,130z"/>
	<path id="XMLID_1385_" style="fill:#FFFFFF;" d="M256.563,270h88.555c1.19-13.191,11.69-23.691,24.882-24.882v-90.236
		c-13.191-1.19-23.692-11.69-24.882-24.882h-88.555C276.956,146.5,290,171.725,290,200S276.956,253.5,256.563,270z"/>
	<path id="XMLID_1386_" style="fill:#6DA544;" d="M200,100v24.5h6.843v16.258c6.973,0.648,13.521,2.201,19.638,4.67
		c6.117,2.472,11.429,4.992,15.936,7.564l-11.59,21.897c-0.321-0.429-1.262-1.13-2.817-2.099c-1.556-0.963-3.542-2.008-5.956-3.137
		c-2.416-1.123-5.098-2.199-8.049-3.221c-2.953-1.02-5.93-1.738-8.934-2.17v21.892l5.151,1.289
		c5.473,1.503,10.408,3.138,14.81,4.908c4.398,1.771,8.129,3.972,11.187,6.602c3.06,2.632,5.419,5.82,7.082,9.578
		c1.664,3.756,2.496,8.266,2.496,13.524c0,6.115-1.072,11.32-3.217,15.611c-2.151,4.298-5.021,7.807-8.613,10.546
		c-3.597,2.737-7.728,4.807-12.395,6.197c-4.671,1.391-9.579,2.199-14.73,2.413V275.5H200V300h200V100H200z M256.563,130h88.555
		c1.19,13.191,11.69,23.691,24.882,24.882v90.236c-13.191,1.19-23.692,11.69-24.882,24.882h-88.555
		C276.956,253.5,290,228.275,290,200S276.956,146.5,256.563,130z"/>
	<path id="XMLID_1389_" style="fill:#6DA544;" d="M217.467,224.63c0-2.79-1.127-4.964-3.381-6.519
		c-2.255-1.558-5.259-2.977-9.014-4.267v19.318C213.334,232.842,217.467,229.995,217.467,224.63z"/>
	<path id="XMLID_1390_" style="fill:#91DC5A;" d="M186.235,173.439c0,2.684,0.939,4.801,2.82,6.358
		c1.874,1.559,4.691,2.927,8.449,4.106v-19.799C189.991,164.745,186.235,167.859,186.235,173.439z"/>
	<path id="XMLID_1391_" style="fill:#91DC5A;" d="M200,275.5h-4.266v-18.836c-7.404-0.643-14.731-2.143-21.974-4.505
		c-7.243-2.359-13.765-5.473-19.558-9.34l11.59-23.021c0.429,0.541,1.581,1.427,3.461,2.656c1.875,1.238,4.266,2.522,7.163,3.862
		c2.897,1.349,6.171,2.632,9.819,3.869c3.649,1.232,7.407,2.117,11.269,2.655v-21.41l-7.727-2.257
		c-5.259-1.61-9.819-3.355-13.682-5.23c-3.865-1.878-7.059-4.052-9.579-6.518c-2.523-2.469-4.403-5.316-5.636-8.533
		c-1.233-3.221-1.851-6.979-1.851-11.272c0-5.579,0.965-10.541,2.899-14.891c1.931-4.344,4.531-8.07,7.807-11.188
		c3.272-3.111,7.134-5.55,11.591-7.321c4.451-1.77,9.255-2.924,14.407-3.464V124.5H200V100H0v200h200V275.5z M143.437,270H54.882
		c-1.19-13.191-11.69-23.691-24.882-24.882v-90.236c13.191-1.19,23.692-11.69,24.882-24.882h88.555
		C123.043,146.5,110,171.725,110,200S123.043,253.5,143.437,270z"/>
	<path id="XMLID_1394_" style="fill:#FFFFFF;" d="M195.734,140.758c-5.152,0.54-9.956,1.693-14.407,3.464
		c-4.456,1.771-8.318,4.21-11.591,7.321c-3.276,3.118-5.876,6.845-7.807,11.188c-1.934,4.35-2.899,9.312-2.899,14.891
		c0,4.294,0.618,8.052,1.851,11.272c1.233,3.217,3.114,6.064,5.636,8.533c2.52,2.466,5.713,4.64,9.579,6.518
		c3.862,1.874,8.423,3.619,13.682,5.23l7.727,2.257v21.41c-3.862-0.538-7.62-1.423-11.269-2.655
		c-3.648-1.237-6.922-2.52-9.819-3.869c-2.897-1.34-5.288-2.624-7.163-3.862c-1.88-1.229-3.033-2.115-3.461-2.656l-11.59,23.021
		c5.793,3.867,12.315,6.98,19.558,9.34c7.243,2.362,14.57,3.862,21.974,4.505V275.5H200h6.843v-18.676
		c5.151-0.214,10.06-1.022,14.73-2.413c4.667-1.391,8.798-3.46,12.395-6.197c3.592-2.739,6.462-6.248,8.613-10.546
		c2.145-4.291,3.217-9.496,3.217-15.611c0-5.259-0.831-9.768-2.496-13.524c-1.663-3.758-4.023-6.946-7.082-9.578
		c-3.058-2.63-6.789-4.831-11.187-6.602c-4.402-1.77-9.337-3.405-14.81-4.908l-5.151-1.289v-21.892
		c3.003,0.432,5.981,1.15,8.934,2.17c2.951,1.021,5.633,2.098,8.049,3.221c2.415,1.129,4.4,2.174,5.956,3.137
		c1.555,0.969,2.496,1.67,2.817,2.099l11.59-21.897c-4.507-2.572-9.819-5.093-15.936-7.564c-6.118-2.469-12.666-4.022-19.638-4.67
		V124.5H200h-4.266V140.758z M205.072,213.845c3.755,1.29,6.759,2.709,9.014,4.267c2.254,1.555,3.381,3.729,3.381,6.519
		c0,5.365-4.133,8.212-12.395,8.533V213.845z M197.504,183.903c-3.758-1.18-6.575-2.547-8.449-4.106
		c-1.881-1.558-2.82-3.675-2.82-6.358c0-5.579,3.756-8.693,11.269-9.334V183.903z"/>
</g>
<g>
</g>
<g>
</g>
<g>
</g>
<g>
</g>
<g>
</g>
<g>
</g>
<g>
</g>
<g>
</g>
<g>
</g>
<g>
</g>
<g>
</g>
<g>
</g>
<g>
</g>
<g>
</g>
<g>
</g>
</svg>
