<?xml version="1.0" encoding="iso-8859-1"?>
<!-- Generator: Adobe Illustrator 19.0.0, SVG Export Plug-In . SVG Version: 6.00 Build 0)  -->
<svg version="1.1" id="Capa_1" xmlns="http://www.w3.org/2000/svg" xmlns:xlink="http://www.w3.org/1999/xlink" x="0px" y="0px"
	 viewBox="0 0 400 400" style="enable-background:new 0 0 400 400;" xml:space="preserve">
<g id="XMLID_1015_">
	<polygon id="XMLID_1016_" style="fill:#DEDDE0;" points="120,340 120,310 200,310 200,280 120,280 120,250 200,250 200,220 
		120,220 120,190 200,190 200,160 120,160 120,130 200,130 200,70 50,70 50,400 200,400 200,340 	"/>
	<polygon id="XMLID_1017_" style="fill:#CDCDD0;" points="200,130 200,160 200,190 280,190 280,220 200,220 200,250 280,250 
		280,280 200,280 200,310 280,310 280,340 200,340 200,400 350,400 350,70 200,70 	"/>
	<polygon id="XMLID_1018_" style="fill:#FF9811;" points="315,20 315,40 285,40 285,20 215,20 215,40 200,40 200,70 350,70 350,20 	
		"/>
	<polygon id="XMLID_1019_" style="fill:#FFDA44;" points="200,40 185,40 185,20 115,20 115,40 85,40 85,20 50,20 50,70 200,70 	"/>
	<rect id="XMLID_1020_" x="120" y="130" style="fill:#FFFFFF;" width="80" height="30"/>
	<polygon id="XMLID_1021_" style="fill:#FFFFFF;" points="120,220 200,220 280,220 280,190 200,190 120,190 	"/>
	<polygon id="XMLID_1022_" style="fill:#FFFFFF;" points="120,280 200,280 280,280 280,250 200,250 120,250 	"/>
	<polygon id="XMLID_1023_" style="fill:#FFFFFF;" points="120,340 200,340 280,340 280,310 200,310 120,310 	"/>
	<polygon id="XMLID_1024_" style="fill:#565659;" points="115,40 115,20 115,0 85,0 85,20 85,40 	"/>
	<polygon id="XMLID_1025_" style="fill:#565659;" points="200,40 215,40 215,20 215,0 185,0 185,20 185,40 	"/>
	<polygon id="XMLID_1026_" style="fill:#565659;" points="315,40 315,20 315,0 285,0 285,20 285,40 	"/>
</g>
<g>
</g>
<g>
</g>
<g>
</g>
<g>
</g>
<g>
</g>
<g>
</g>
<g>
</g>
<g>
</g>
<g>
</g>
<g>
</g>
<g>
</g>
<g>
</g>
<g>
</g>
<g>
</g>
<g>
</g>
</svg>
