<?xml version="1.0" encoding="iso-8859-1"?>
<!-- Generator: Adobe Illustrator 19.0.0, SVG Export Plug-In . SVG Version: 6.00 Build 0)  -->
<svg version="1.1" id="Capa_1" xmlns="http://www.w3.org/2000/svg" xmlns:xlink="http://www.w3.org/1999/xlink" x="0px" y="0px"
	 viewBox="0 0 390 390" style="enable-background:new 0 0 390 390;" xml:space="preserve">
<g id="XMLID_10_">
	<path id="XMLID_1061_" style="fill:#ACABB1;" d="M235.501,370c-0.328-1.615-0.501-3.287-0.501-5c0-13.807,11.193-25,25-25h-50v30
		H235.501z"/>
	<path id="XMLID_1062_" style="fill:#ACABB1;" d="M130,340c13.807,0,25,11.193,25,25c0,1.713-0.173,3.385-0.501,5H180v-30H130z"/>
	<rect id="XMLID_1063_" x="180" y="270" style="fill:#ACABB1;" width="30" height="70"/>
	<polygon id="XMLID_1064_" style="fill:#ACABB1;" points="195,200 180,200 180,230 210,230 210,200 	"/>
	<polygon id="XMLID_1065_" style="fill:#ACABB1;" points="285,200 285,230 285,270 315,270 315,190 285,190 	"/>
	<polygon id="XMLID_1066_" style="fill:#565659;" points="180,370 180,390 210,390 210,370 210,340 180,340 	"/>
	<polygon id="XMLID_1067_" style="fill:#565659;" points="335,160 285,160 285,190 315,190 335,190 	"/>
	<polygon id="XMLID_1068_" style="fill:#ACABB1;" points="105,200 105,190 75,190 75,270 105,270 105,230 	"/>
	<polygon id="XMLID_1069_" style="fill:#565659;" points="105,160 55,160 55,190 75,190 105,190 	"/>
	<polygon id="XMLID_1070_" style="fill:#CCF7F9;" points="105,200 180,200 195,200 195,0 115,0 105,160 105,190 	"/>
	<polygon id="XMLID_1071_" style="fill:#00D7DF;" points="210,200 285,200 285,190 285,160 275,0 195,0 195,200 	"/>
	<polygon id="XMLID_1072_" style="fill:#00A1A7;" points="210,230 180,230 105,230 105,270 180,270 210,270 285,270 285,230 	"/>
	<path id="XMLID_1073_" style="fill:#565659;" d="M130,340c-13.807,0-25,11.193-25,25s11.193,25,25,25
		c12.094,0,22.183-8.59,24.499-20c0.328-1.615,0.501-3.287,0.501-5C155,351.193,143.807,340,130,340z"/>
	<path id="XMLID_1074_" style="fill:#565659;" d="M235,365c0,1.713,0.173,3.385,0.501,5c2.316,11.41,12.405,20,24.499,20
		c13.807,0,25-11.193,25-25s-11.193-25-25-25C246.193,340,235,351.193,235,365z"/>
</g>
<g>
</g>
<g>
</g>
<g>
</g>
<g>
</g>
<g>
</g>
<g>
</g>
<g>
</g>
<g>
</g>
<g>
</g>
<g>
</g>
<g>
</g>
<g>
</g>
<g>
</g>
<g>
</g>
<g>
</g>
</svg>
