<?xml version="1.0" encoding="iso-8859-1"?>
<!-- Generator: Adobe Illustrator 19.0.0, SVG Export Plug-In . SVG Version: 6.00 Build 0)  -->
<svg version="1.1" id="Capa_1" xmlns="http://www.w3.org/2000/svg" xmlns:xlink="http://www.w3.org/1999/xlink" x="0px" y="0px"
	 viewBox="0 0 438.203 438.203" style="enable-background:new 0 0 438.203 438.203;" xml:space="preserve">
<g id="XMLID_12_">
	<polygon id="XMLID_964_" style="fill:#00D7DF;" points="325.048,79.631 285.233,75.793 274.398,188.203 314.583,188.203 	"/>
	<polygon id="XMLID_965_" style="fill:#CCF7F9;" points="325.048,79.631 314.583,188.203 354.863,188.203 364.863,83.469 	"/>
	<polygon id="XMLID_966_" style="fill:#FFE98F;" points="364.863,83.469 332.723,0 348.809,41.774 308.955,37.934 332.723,0 
		285.233,75.793 325.048,79.631 	"/>
	<polygon id="XMLID_967_" style="fill:#565659;" points="348.809,41.774 332.723,0 308.955,37.934 	"/>
	<polygon id="XMLID_968_" style="fill:#FFDA44;" points="125.834,8.703 99.309,25.92 104.334,45.278 133.372,37.741 	"/>
	<polygon id="XMLID_48_" style="fill:#FF9811;" points="136.44,109.264 78.365,124.339 94.864,188.203 156.93,188.203 	"/>
	<polygon id="XMLID_969_" style="fill:#FFDA44;" points="156.93,188.203 218.919,188.203 194.515,94.189 136.44,109.264 	"/>
	<polygon id="XMLID_970_" style="fill:#565659;" points="194.515,94.189 189.49,74.831 155.428,63.01 147.891,33.973 
		133.372,37.741 104.334,45.278 89.815,49.047 97.353,78.084 73.34,104.98 78.365,124.339 136.44,109.264 	"/>
	<path id="XMLID_971_" style="fill:#CDCDD0;" d="M224.863,378.203c-11.046,0-20-8.954-20-20s8.954-20,20-20v-50
		c-11.046,0-20-8.954-20-20s8.954-20,20-20v-30h-130v190h130V378.203z M144.863,378.203c-11.046,0-20-8.954-20-20s8.954-20,20-20
		s20,8.954,20,20S155.909,378.203,144.863,378.203z M144.863,288.203c-11.046,0-20-8.954-20-20s8.954-20,20-20s20,8.954,20,20
		S155.909,288.203,144.863,288.203z"/>
	<path id="XMLID_975_" style="fill:#ACABB1;" d="M224.863,248.203c11.046,0,20,8.954,20,20s-8.954,20-20,20v50
		c11.046,0,20,8.954,20,20s-8.954,20-20,20v30h130v-190h-130V248.203z M304.863,248.203c11.046,0,20,8.954,20,20s-8.954,20-20,20
		s-20-8.954-20-20S293.818,248.203,304.863,248.203z M304.863,338.203c11.046,0,20,8.954,20,20s-8.954,20-20,20s-20-8.954-20-20
		S293.818,338.203,304.863,338.203z"/>
	<polygon id="XMLID_979_" style="fill:#565659;" points="94.864,188.203 94.864,218.203 224.863,218.203 354.863,218.203 
		354.863,188.203 354.768,188.203 	"/>
	<polygon id="XMLID_980_" style="fill:#565659;" points="94.864,408.203 94.864,438.203 224.863,438.203 354.863,438.203 
		354.863,408.203 224.863,408.203 	"/>
	<circle id="XMLID_981_" style="fill:#FFFFFF;" cx="144.863" cy="268.203" r="20"/>
	<circle id="XMLID_982_" style="fill:#FFFFFF;" cx="224.863" cy="268.203" r="20"/>
	<circle id="XMLID_983_" style="fill:#FFFFFF;" cx="304.863" cy="268.203" r="20"/>
	<circle id="XMLID_984_" style="fill:#FFFFFF;" cx="144.863" cy="358.203" r="20"/>
	<circle id="XMLID_985_" style="fill:#FFFFFF;" cx="224.863" cy="358.203" r="20"/>
	<circle id="XMLID_986_" style="fill:#FFFFFF;" cx="304.863" cy="358.203" r="20"/>
</g>
<g>
</g>
<g>
</g>
<g>
</g>
<g>
</g>
<g>
</g>
<g>
</g>
<g>
</g>
<g>
</g>
<g>
</g>
<g>
</g>
<g>
</g>
<g>
</g>
<g>
</g>
<g>
</g>
<g>
</g>
</svg>
