<?xml version="1.0" encoding="iso-8859-1"?>
<!-- Generator: Adobe Illustrator 19.0.0, SVG Export Plug-In . SVG Version: 6.00 Build 0)  -->
<svg version="1.1" id="Capa_1" xmlns="http://www.w3.org/2000/svg" xmlns:xlink="http://www.w3.org/1999/xlink" x="0px" y="0px"
	 viewBox="0 0 440 440" style="enable-background:new 0 0 440 440;" xml:space="preserve">
<g id="XMLID_14_">
	<path id="XMLID_948_" style="fill:#565659;" d="M225,25.364V0h-40v25.364C190.885,21.959,197.712,20,205,20
		S219.115,21.959,225,25.364z"/>
	<path id="XMLID_949_" style="fill:#00D7DF;" d="M225,25.364C219.115,21.959,212.288,20,205,20s-14.115,1.959-20,5.364
		C173.047,32.282,165,45.197,165,60h80C245,45.197,236.953,32.282,225,25.364z"/>
	<rect id="XMLID_950_" x="205" y="90" style="fill:#00D7DF;" width="40" height="120"/>
	<rect id="XMLID_951_" x="165" y="90" style="fill:#CCF7F9;" width="40" height="120"/>
	<polygon id="XMLID_952_" style="fill:#00D7DF;" points="205,380 235,380 245,240 205,240 	"/>
	<polygon id="XMLID_953_" style="fill:#CCF7F9;" points="205,380 205,240 165,240 175,380 	"/>
	<polygon id="XMLID_954_" style="fill:#00A1A7;" points="245,90 245,60 165,60 165,90 205,90 	"/>
	<polygon id="XMLID_955_" style="fill:#00A1A7;" points="165,210 165,240 205,240 245,240 245,210 205,210 	"/>
	<polygon id="XMLID_956_" style="fill:#565659;" points="245,60 245,90 245,210 275,210 275,60 	"/>
	<path id="XMLID_957_" style="fill:#565659;" d="M205,380h-30l15,40v5c0,8.284,6.716,15,15,15s15-6.716,15-15v-5l15-40H205z"/>
</g>
<g>
</g>
<g>
</g>
<g>
</g>
<g>
</g>
<g>
</g>
<g>
</g>
<g>
</g>
<g>
</g>
<g>
</g>
<g>
</g>
<g>
</g>
<g>
</g>
<g>
</g>
<g>
</g>
<g>
</g>
</svg>
