<?xml version="1.0" encoding="iso-8859-1"?>
<!-- Generator: Adobe Illustrator 19.0.0, SVG Export Plug-In . SVG Version: 6.00 Build 0)  -->
<svg version="1.1" id="Capa_1" xmlns="http://www.w3.org/2000/svg" xmlns:xlink="http://www.w3.org/1999/xlink" x="0px" y="0px"
	 viewBox="0 0 400 400" style="enable-background:new 0 0 400 400;" xml:space="preserve">
<g id="XMLID_845_">
	<polygon id="XMLID_846_" style="fill:#ACABB1;" points="275,80 275,0 245,0 245,40 215,40 215,0 185,0 185,40 155,40 155,0 125,0 
		125,80 200,80 	"/>
	<rect id="XMLID_847_" x="155" style="fill:#565659;" width="30" height="40"/>
	<rect id="XMLID_848_" x="215" style="fill:#565659;" width="30" height="40"/>
	<path id="XMLID_849_" style="fill:#FFDA44;" d="M150,300c0-27.614,22.386-50,50-50c0-84.074,0-170,0-170h-75h-25v220
		c0,55.228,44.771,100,100,100c0-10.145,0-27.892,0-50C172.386,350,150,327.614,150,300z"/>
	<path id="XMLID_850_" style="fill:#FF9811;" d="M275,80h-75c0,0,0,85.926,0,170c27.614,0,50,22.386,50,50s-22.386,50-50,50
		c0,22.108,0,39.855,0,50c55.228,0,100-44.772,100-100V80H275z"/>
	<circle id="XMLID_851_" style="fill:#FFFFFF;" cx="200" cy="300" r="50"/>
</g>
<g>
</g>
<g>
</g>
<g>
</g>
<g>
</g>
<g>
</g>
<g>
</g>
<g>
</g>
<g>
</g>
<g>
</g>
<g>
</g>
<g>
</g>
<g>
</g>
<g>
</g>
<g>
</g>
<g>
</g>
</svg>
