<?xml version="1.0" encoding="iso-8859-1"?>
<!-- Generator: Adobe Illustrator 19.0.0, SVG Export Plug-In . SVG Version: 6.00 Build 0)  -->
<svg version="1.1" id="Capa_1" xmlns="http://www.w3.org/2000/svg" xmlns:xlink="http://www.w3.org/1999/xlink" x="0px" y="0px"
	 viewBox="0 0 400 400" style="enable-background:new 0 0 400 400;" xml:space="preserve">
<g id="XMLID_807_">
	<path id="XMLID_808_" style="fill:#DEDDE0;" d="M140,280c0-38.417,31.402-69.672,70-69.672v-16.721c-23.159,0-42-18.753-42-41.803
		C168,128.752,186.841,110,210,110V0H100v400h110V280H140z"/>
	<path id="XMLID_809_" style="fill:#CDCDD0;" d="M320,200V100V0H210v110c23.159,0,42,18.752,42,41.803
		c0,23.05-18.841,41.803-42,41.803v16.721c38.598,0,70,31.255,70,69.672h-70v120h110V300V200z"/>
	<polygon id="XMLID_810_" style="fill:#ACABB1;" points="60,0 60,35 80,35 80,65 60,65 60,135 80,135 80,165 60,165 60,235 80,235 
		80,265 60,265 60,335 80,335 80,365 60,365 60,400 100,400 100,0 	"/>
	<rect id="XMLID_811_" x="320" style="fill:#FFDA44;" width="40" height="100"/>
	<rect id="XMLID_812_" x="320" y="100" style="fill:#FF9811;" width="40" height="100"/>
	<rect id="XMLID_813_" x="320" y="200" style="fill:#FF5023;" width="40" height="100"/>
	<rect id="XMLID_814_" x="320" y="300" style="fill:#D80027;" width="40" height="100"/>
	<polygon id="XMLID_815_" style="fill:#565659;" points="80,35 60,35 40,35 40,65 60,65 80,65 	"/>
	<polygon id="XMLID_816_" style="fill:#565659;" points="80,335 60,335 40,335 40,365 60,365 80,365 	"/>
	<polygon id="XMLID_817_" style="fill:#565659;" points="80,235 60,235 40,235 40,265 60,265 80,265 	"/>
	<polygon id="XMLID_818_" style="fill:#565659;" points="80,135 60,135 40,135 40,165 60,165 80,165 	"/>
	<path id="XMLID_819_" style="fill:#FFFFFF;" d="M168,151.803c0,23.05,18.841,41.803,42,41.803s42-18.753,42-41.803
		C252,128.752,233.159,110,210,110S168,128.752,168,151.803z"/>
	<path id="XMLID_820_" style="fill:#FFFFFF;" d="M140,280h70h70c0-38.417-31.402-69.672-70-69.672S140,241.583,140,280z"/>
</g>
<g>
</g>
<g>
</g>
<g>
</g>
<g>
</g>
<g>
</g>
<g>
</g>
<g>
</g>
<g>
</g>
<g>
</g>
<g>
</g>
<g>
</g>
<g>
</g>
<g>
</g>
<g>
</g>
<g>
</g>
</svg>
