<?xml version="1.0" encoding="iso-8859-1"?>
<!-- Generator: Adobe Illustrator 19.0.0, SVG Export Plug-In . SVG Version: 6.00 Build 0)  -->
<svg version="1.1" id="Capa_1" xmlns="http://www.w3.org/2000/svg" xmlns:xlink="http://www.w3.org/1999/xlink" x="0px" y="0px"
	 viewBox="0 0 394.974 394.974" style="enable-background:new 0 0 394.974 394.974;" xml:space="preserve">
<g id="XMLID_4_">
	<path id="XMLID_36_" style="fill:#FF5023;" d="M378.891,138.597l-21.213,21.213c9.748,9.748,9.748,25.608,0,35.356
		c-5.129,5.128-11.95,7.555-18.683,7.286c-6.257-47.078-41.526-86.5-89.926-104.49c-1.234,7.004-3.679,13.585-7.116,19.525H190v230
		c13.854,0,27.265-1.635,40-4.682v24.682h50v-45.994c32.1-20.898,54.203-52.697,59.008-89.055c0.331,0.006,0.661,0.023,0.992,0.023
		c14.082-0.001,28.17-5.362,38.891-16.083C400.336,194.935,400.335,160.041,378.891,138.597z"/>
	<path id="XMLID_1379_" style="fill:#FF9811;" d="M190,117.487h-51.954c-5.108-8.827-8.046-19.067-8.046-30
		c0-4.469,0.503-8.816,1.43-13.007C108.46,57.497,80,57.487,80,57.487v71.63c-11.193,10.46-20.424,22.517-27.186,35.735L0,187.487
		v60l52.814,22.635c10.455,20.436,26.804,38.102,47.186,51.371v45.994h20h30v-24.682c12.735,3.047,26.146,4.682,40,4.682V117.487z
		 M105,197.487c-8.284,0-15-6.716-15-15c0-8.284,6.716-15,15-15s15,6.716,15,15C120,190.771,113.284,197.487,105,197.487z"/>
	<path id="XMLID_32_" style="fill:#FFE98F;" d="M138.046,117.487H190v-90c-28.669,0-52.627,20.112-58.57,46.993
		c-0.927,4.19-1.43,8.538-1.43,13.007C130,98.42,132.938,108.66,138.046,117.487z"/>
	<path id="XMLID_1382_" style="fill:#FFDA44;" d="M190,117.487h51.954c3.438-5.94,5.882-12.521,7.116-19.525
		c0.6-3.402,0.93-6.899,0.93-10.475c0-33.138-26.863-60-60-60V117.487z"/>
	<circle id="XMLID_1383_" style="fill:#FFFFFF;" cx="105" cy="182.487" r="15"/>
</g>
<g>
</g>
<g>
</g>
<g>
</g>
<g>
</g>
<g>
</g>
<g>
</g>
<g>
</g>
<g>
</g>
<g>
</g>
<g>
</g>
<g>
</g>
<g>
</g>
<g>
</g>
<g>
</g>
<g>
</g>
</svg>
