<?xml version="1.0" encoding="iso-8859-1"?>
<!-- Generator: Adobe Illustrator 19.0.0, SVG Export Plug-In . SVG Version: 6.00 Build 0)  -->
<svg version="1.1" id="Capa_1" xmlns="http://www.w3.org/2000/svg" xmlns:xlink="http://www.w3.org/1999/xlink" x="0px" y="0px"
	 viewBox="0 0 440 440" style="enable-background:new 0 0 440 440;" xml:space="preserve">
<g id="XMLID_1101_">
	<path id="XMLID_1102_" style="fill:#00D7DF;" d="M104.954,221.63c-12.176,0-23.057,5.542-30.261,14.238
		c-5.632,6.798-9.018,15.523-9.018,25.04c0,3.476,0.456,6.843,1.304,10.052c-5.427-2.831-11.593-4.441-18.138-4.441
		C29.121,266.519,12.805,281.058,10,300h189.958c0.247-1.774,0.386-3.581,0.386-5.425c0-21.693-17.585-39.278-39.278-39.278
		c-6.043,0-11.765,1.368-16.88,3.806c-0.348-7.676-2.903-14.774-7.039-20.685C130.047,228.27,118.279,221.63,104.954,221.63z"/>
	<path id="XMLID_1103_" style="fill:#CCF7F9;" d="M171.707,204.391l-22.164-26.597l-74.421,5.133L42.927,140H0
		c0,0,26.293,52.586,32.195,64.391c5.252,10.503,14.768,27.79,42.498,31.478c7.204-8.696,18.085-14.238,30.261-14.238
		c13.325,0,25.093,6.641,32.192,16.788l82.731,2.954v-36.982H171.707z"/>
	<polygon id="XMLID_1104_" style="fill:#00A1A7;" points="219.878,204.391 311.22,204.391 240.067,171.551 171.707,140 118.049,140 
		149.543,177.794 171.707,204.391 	"/>
	<path id="XMLID_1105_" style="fill:#00D7DF;" d="M370,190l59.027-9.858c-10.872-11.278-27.977-18.679-42.686-18.679
		l-146.274,10.088l71.152,32.84h-91.342v36.982l166.464,5.944c21.806,0,48.872-16.262,53.078-37.316H370V190z"/>
	<path id="XMLID_1106_" style="fill:#CCF7F9;" d="M429.027,180.142L370,190v20h69.42c0.367-1.837,0.58-3.707,0.58-5.609
		C440,195.391,435.679,187.041,429.027,180.142z"/>
</g>
<g>
</g>
<g>
</g>
<g>
</g>
<g>
</g>
<g>
</g>
<g>
</g>
<g>
</g>
<g>
</g>
<g>
</g>
<g>
</g>
<g>
</g>
<g>
</g>
<g>
</g>
<g>
</g>
<g>
</g>
</svg>
