<?xml version="1.0" encoding="iso-8859-1"?>
<!-- Generator: Adobe Illustrator 19.0.0, SVG Export Plug-In . SVG Version: 6.00 Build 0)  -->
<svg version="1.1" id="Capa_1" xmlns="http://www.w3.org/2000/svg" xmlns:xlink="http://www.w3.org/1999/xlink" x="0px" y="0px"
	 viewBox="0 0 360 360" style="enable-background:new 0 0 360 360;" xml:space="preserve">
<g id="XMLID_21_">
	<rect id="XMLID_35_" x="80" y="15" style="fill:#DEDDE0;" width="100" height="60"/>
	<rect id="XMLID_34_" x="180" y="15" style="fill:#CDCDD0;" width="100" height="60"/>
	<path id="XMLID_31_" style="fill:#00A1A7;" d="M180,225V75H80H0v210h80v-60H180z M80,135h80v30H80V135z"/>
	<path id="XMLID_27_" style="fill:#006C70;" d="M360,75h-80H180v150h100v60h80V75z M220,165h-30v-30h30V165z M280,165h-30v-30h30
		V165z"/>
	<polygon id="XMLID_26_" style="fill:#DEDDE0;" points="180,225 80,225 80,285 80,345 180,345 	"/>
	<polygon id="XMLID_25_" style="fill:#CDCDD0;" points="180,225 180,345 280,345 280,285 280,225 	"/>
	<rect id="XMLID_24_" x="250" y="135" style="fill:#FFFFFF;" width="30" height="30"/>
	<rect id="XMLID_23_" x="190" y="135" style="fill:#FFFFFF;" width="30" height="30"/>
	<rect id="XMLID_22_" x="80" y="135" style="fill:#FFFFFF;" width="80" height="30"/>
</g>
<g>
</g>
<g>
</g>
<g>
</g>
<g>
</g>
<g>
</g>
<g>
</g>
<g>
</g>
<g>
</g>
<g>
</g>
<g>
</g>
<g>
</g>
<g>
</g>
<g>
</g>
<g>
</g>
<g>
</g>
</svg>
