<?xml version="1.0" encoding="iso-8859-1"?>
<!-- Generator: Adobe Illustrator 19.0.0, SVG Export Plug-In . SVG Version: 6.00 Build 0)  -->
<svg version="1.1" id="Capa_1" xmlns="http://www.w3.org/2000/svg" xmlns:xlink="http://www.w3.org/1999/xlink" x="0px" y="0px"
	 viewBox="0 0 360 360" style="enable-background:new 0 0 360 360;" xml:space="preserve">
<g id="XMLID_1168_">
	<polygon id="XMLID_1169_" style="fill:#ACABB1;" points="153.75,220 180,360 180,220 	"/>
	<polygon id="XMLID_1170_" style="fill:#818085;" points="180,360 206.25,220 180,220 	"/>
	<path id="XMLID_1171_" style="fill:#CCF7F9;" d="M180,40h-51l-13.297,103.416C103.976,153.273,94.549,165.775,88.33,180H180V40z"/>
	<path id="XMLID_1172_" style="fill:#00D7DF;" d="M180,180h91.67c-6.219-14.225-15.645-26.727-27.373-36.584L231,40h-51V180z"/>
	<polygon id="XMLID_1173_" style="fill:#00A1A7;" points="231,40 250,40 250,0 110,0 110,40 129,40 180,40 	"/>
	<path id="XMLID_1174_" style="fill:#00A1A7;" d="M271.67,180H180H88.33C82.976,192.25,80,205.775,80,220h73.75H180h26.25H280
		C280,205.775,277.024,192.25,271.67,180z"/>
</g>
<g>
</g>
<g>
</g>
<g>
</g>
<g>
</g>
<g>
</g>
<g>
</g>
<g>
</g>
<g>
</g>
<g>
</g>
<g>
</g>
<g>
</g>
<g>
</g>
<g>
</g>
<g>
</g>
<g>
</g>
</svg>
