<?xml version="1.0" encoding="iso-8859-1"?>
<!-- Generator: Adobe Illustrator 19.0.0, SVG Export Plug-In . SVG Version: 6.00 Build 0)  -->
<svg version="1.1" id="Capa_1" xmlns="http://www.w3.org/2000/svg" xmlns:xlink="http://www.w3.org/1999/xlink" x="0px" y="0px"
	 viewBox="0 0 380 380" style="enable-background:new 0 0 380 380;" xml:space="preserve">
<g id="XMLID_242_">
	<rect id="XMLID_243_" x="110" y="290" style="fill:#818085;" width="160" height="40"/>
	<polygon id="XMLID_244_" style="fill:#ACABB1;" points="110,330 80,330 80,360 300,360 300,330 270,330 	"/>
	<polygon id="XMLID_245_" style="fill:#DEDDE0;" points="30,260 30,230 30,80 30,50 190,50 190,20 0,20 0,290 190,290 190,260 	"/>
	<polygon id="XMLID_307_" style="fill:#ACABB1;" points="190,20 190,50 350,50 350,80 350,230 350,260 190,260 190,290 380,290 
		380,20 	"/>
	<polygon id="XMLID_308_" style="fill:#FFFFFF;" points="30,80 350,80 350,50 190,50 30,50 	"/>
	<polygon id="XMLID_309_" style="fill:#FFFFFF;" points="265,230 235,230 205,230 175,230 145,230 115,230 85,230 30,230 30,260 
		190,260 350,260 350,230 295,230 	"/>
	<polygon id="XMLID_311_" style="fill:#FFDA44;" points="30,80 30,230 85,230 85,200 85,170 115,170 115,200 115,230 145,230 
		145,200 145,150 175,150 175,200 175,230 205,230 205,200 205,130 235,130 235,200 235,230 265,230 265,200 265,110 295,110 
		295,200 295,230 350,230 350,80 	"/>
	<rect id="XMLID_312_" x="85" y="200" style="fill:#FF9811;" width="30" height="30"/>
	<rect id="XMLID_333_" x="85" y="170" style="fill:#FFFFFF;" width="30" height="30"/>
	<rect id="XMLID_334_" x="145" y="200" style="fill:#FF5023;" width="30" height="30"/>
	<rect id="XMLID_337_" x="145" y="150" style="fill:#FFFFFF;" width="30" height="50"/>
	<rect id="XMLID_338_" x="205" y="200" style="fill:#D80027;" width="30" height="30"/>
	<rect id="XMLID_340_" x="205" y="130" style="fill:#FFFFFF;" width="30" height="70"/>
	<rect id="XMLID_341_" x="265" y="200" style="fill:#A2001D;" width="30" height="30"/>
	<rect id="XMLID_348_" x="265" y="110" style="fill:#FFFFFF;" width="30" height="90"/>
</g>
<g>
</g>
<g>
</g>
<g>
</g>
<g>
</g>
<g>
</g>
<g>
</g>
<g>
</g>
<g>
</g>
<g>
</g>
<g>
</g>
<g>
</g>
<g>
</g>
<g>
</g>
<g>
</g>
<g>
</g>
</svg>
