<?xml version="1.0" encoding="iso-8859-1"?>
<!-- Generator: Adobe Illustrator 19.0.0, SVG Export Plug-In . SVG Version: 6.00 Build 0)  -->
<svg version="1.1" id="Capa_1" xmlns="http://www.w3.org/2000/svg" xmlns:xlink="http://www.w3.org/1999/xlink" x="0px" y="0px"
	 viewBox="0 0 390 390" style="enable-background:new 0 0 390 390;" xml:space="preserve">
<g id="XMLID_350_">
	<path id="XMLID_351_" style="fill:#DEDDE0;" d="M175,350c0-11.046,8.954-20,20-20v-20h-90v-30V110V80h90V50h-30V30h30V0H85v390h110
		v-20C183.954,370,175,361.046,175,350z"/>
	<path id="XMLID_352_" style="fill:#ACABB1;" d="M195,0v30h30v20h-30v30h90v30v170v30h-90v20c11.046,0,20,8.954,20,20
		s-8.954,20-20,20v20h110V0H195z"/>
	<polygon id="XMLID_439_" style="fill:#FFFFFF;" points="105,110 285,110 285,80 195,80 105,80 	"/>
	<polygon id="XMLID_440_" style="fill:#FFFFFF;" points="210,280 180,280 150,280 105,280 105,310 195,310 285,310 285,280 240,280 
			"/>
	<polygon id="XMLID_441_" style="fill:#FFDA44;" points="105,110 105,280 150,280 150,250.001 150,250 150,170.001 180,170.001 
		180,250 180,250.001 180,280 210,280 210,254.615 210,140 240,140 240,254.615 240,280 285,280 285,110 	"/>
	<polygon id="XMLID_443_" style="fill:#FFFFFF;" points="165,50 195,50 225,50 225,30 195,30 165,30 	"/>
	<circle id="XMLID_444_" style="fill:#FFFFFF;" cx="195" cy="350" r="20"/>
	<rect id="XMLID_445_" x="150" y="250.001" style="fill:#FF9811;" width="30" height="30"/>
	<polygon id="XMLID_446_" style="fill:#FFFFFF;" points="180,250 180,170.001 150,170.001 150,250 150,250.001 180,250.001 	"/>
	<rect id="XMLID_447_" x="210" y="254.615" style="fill:#FF5023;" width="30" height="25.385"/>
	<rect id="XMLID_448_" x="210" y="140" style="fill:#FFFFFF;" width="30" height="114.615"/>
</g>
<g>
</g>
<g>
</g>
<g>
</g>
<g>
</g>
<g>
</g>
<g>
</g>
<g>
</g>
<g>
</g>
<g>
</g>
<g>
</g>
<g>
</g>
<g>
</g>
<g>
</g>
<g>
</g>
<g>
</g>
</svg>
