<?xml version="1.0" encoding="iso-8859-1"?>
<!-- Generator: Adobe Illustrator 19.0.0, SVG Export Plug-In . SVG Version: 6.00 Build 0)  -->
<svg version="1.1" id="Capa_1" xmlns="http://www.w3.org/2000/svg" xmlns:xlink="http://www.w3.org/1999/xlink" x="0px" y="0px"
	 viewBox="0 0 370 370" style="enable-background:new 0 0 370 370;" xml:space="preserve">
<g id="XMLID_1136_">
	<path id="XMLID_1162_" style="fill:#50412E;" d="M225,80c0,22.092-17.908,40-40,40v150h40.714l14.119-131.777
		C255.318,123.634,265,102.953,265,80c0-44.183-35.817-80-80-80v40C207.092,40,225,57.908,225,80z"/>
	<path id="XMLID_1163_" style="fill:#A0815C;" d="M185,120c-22.092,0-40-17.908-40-40s17.908-40,40-40V0c-44.183,0-80,35.817-80,80
		c0,22.953,9.682,43.634,25.167,58.223L144.286,270H185V120z"/>
	<rect id="XMLID_1164_" x="75" y="340" style="fill:#ACABB1;" width="220" height="30"/>
	<polygon id="XMLID_1165_" style="fill:#565659;" points="225.714,270 185,270 144.286,270 45,270 45,340 75,340 295,340 325,340 
		325,270 	"/>
	<path id="XMLID_1166_" style="fill:#FFDA44;" d="M145,80c0,22.092,17.908,40,40,40V40C162.908,40,145,57.908,145,80z"/>
	<path id="XMLID_1167_" style="fill:#FF9811;" d="M225,80c0-22.092-17.908-40-40-40v80C207.092,120,225,102.092,225,80z"/>
</g>
<g>
</g>
<g>
</g>
<g>
</g>
<g>
</g>
<g>
</g>
<g>
</g>
<g>
</g>
<g>
</g>
<g>
</g>
<g>
</g>
<g>
</g>
<g>
</g>
<g>
</g>
<g>
</g>
<g>
</g>
</svg>
