<?xml version="1.0" encoding="iso-8859-1"?>
<!-- Generator: Adobe Illustrator 19.0.0, SVG Export Plug-In . SVG Version: 6.00 Build 0)  -->
<svg version="1.1" id="Capa_1" xmlns="http://www.w3.org/2000/svg" xmlns:xlink="http://www.w3.org/1999/xlink" x="0px" y="0px"
	 viewBox="0 0 390 390" style="enable-background:new 0 0 390 390;" xml:space="preserve">
<g id="XMLID_1430_">
	<path id="XMLID_1431_" style="fill:#FF9811;" d="M208.076,71.949V40h-25h-25v31.949c8.146-1.279,16.494-1.949,25-1.949
		C191.582,70,199.93,70.67,208.076,71.949z"/>
	<polygon id="XMLID_1432_" style="fill:#A2001D;" points="208.076,40 233.076,40 233.076,0 183.076,0 183.076,40 	"/>
	<polygon id="XMLID_1433_" style="fill:#FF5023;" points="183.076,0 133.076,0 133.076,40 158.076,40 183.076,40 	"/>
	<path id="XMLID_1434_" style="fill:#FF9811;" d="M306.322,127.968l21.711-21.711L306.82,85.043l-21.711,21.711
		C292.824,113.148,299.928,120.253,306.322,127.968z"/>
	<polygon id="XMLID_1435_" style="fill:#A2001D;" points="366.924,102.721 310.355,46.152 289.143,67.365 306.82,85.043 
		345.711,123.934 	"/>
	<path id="XMLID_1436_" style="fill:#FF5023;" d="M63.076,230c0-66.273,53.726-120,120-120V70c-8.506,0-16.854,0.67-25,1.949
		c-76.489,12.002-135,78.191-135,158.051c0,88.365,71.635,160,160,160v-40C116.802,350,63.076,296.272,63.076,230z"/>
	<path id="XMLID_1437_" style="fill:#A2001D;" d="M285.109,106.754c-21.621-17.92-48.035-30.255-77.033-34.805
		c-8.146-1.279-16.494-1.949-25-1.949v40c66.274,0,120,53.727,120,120c0,66.272-53.726,120-120,120v40c88.365,0,160-71.635,160-160
		c0-38.781-13.801-74.337-36.754-102.032C299.928,120.253,292.824,113.148,285.109,106.754z"/>
	<path id="XMLID_1438_" style="fill:#FF9811;" d="M169.312,203.439c0,2.684,0.938,4.801,2.819,6.358
		c1.875,1.559,4.691,2.927,8.449,4.106v-19.799C173.067,194.745,169.312,197.859,169.312,203.439z"/>
	<path id="XMLID_1439_" style="fill:#FF9811;" d="M63.076,230c0,66.272,53.726,120,120,120s120-53.728,120-120h-82.633
		c2.508,2.418,4.486,5.259,5.936,8.532c1.664,3.756,2.496,8.266,2.496,13.524c0,6.115-1.072,11.32-3.218,15.611
		c-2.151,4.298-5.021,7.807-8.613,10.546c-3.597,2.737-7.728,4.807-12.395,6.197c-4.67,1.391-9.578,2.199-14.73,2.413V305.5h-11.108
		v-18.836c-7.404-0.643-14.731-2.143-21.975-4.505c-7.243-2.359-13.765-5.473-19.559-9.34l11.59-23.021
		c0.43,0.541,1.582,1.427,3.462,2.656c1.875,1.238,4.267,2.522,7.163,3.862c2.896,1.349,6.171,2.632,9.819,3.869
		c3.649,1.232,7.407,2.117,11.268,2.655v-21.41l-7.727-2.257c-5.26-1.61-9.82-3.355-13.682-5.23
		c-3.865-1.878-7.06-4.052-9.579-6.518c-2.522-2.469-4.403-5.316-5.636-8.533c-1.233-3.221-1.852-6.979-1.852-11.272
		c0-5.579,0.966-10.541,2.9-14.891c1.931-4.344,4.531-8.07,7.807-11.188c3.272-3.111,7.135-5.55,11.591-7.321
		c4.451-1.77,9.255-2.924,14.407-3.464V154.5h4.266V110C116.802,110,63.076,163.727,63.076,230z"/>
	<path id="XMLID_1440_" style="fill:#FF9811;" d="M197.162,248.111c-2.255-1.558-5.259-2.977-9.014-4.267v19.318
		c8.262-0.321,12.395-3.168,12.395-8.533C200.543,251.84,199.416,249.666,197.162,248.111z"/>
	<path id="XMLID_1441_" style="fill:#FFDA44;" d="M189.919,154.5v16.258c6.973,0.648,13.521,2.201,19.638,4.67
		c6.117,2.472,11.43,4.992,15.938,7.564l-11.59,21.897c-0.321-0.429-1.263-1.13-2.817-2.099c-1.556-0.963-3.542-2.008-5.956-3.137
		c-2.416-1.123-5.099-2.199-8.049-3.221c-2.953-1.02-5.931-1.738-8.934-2.17v21.892l5.15,1.289
		c5.474,1.503,10.408,3.138,14.811,4.908c4.398,1.771,8.129,3.972,11.188,6.602c0.395,0.339,0.775,0.688,1.146,1.046h82.633
		c0-66.273-53.726-120-120-120v44.5H189.919z"/>
	<path id="XMLID_1442_" style="fill:#FFFFFF;" d="M219.297,228.954c-3.059-2.63-6.789-4.831-11.188-6.602
		c-4.402-1.77-9.337-3.405-14.811-4.908l-5.15-1.289v-21.892c3.003,0.432,5.98,1.15,8.934,2.17c2.95,1.021,5.633,2.098,8.049,3.221
		c2.414,1.129,4.4,2.174,5.956,3.137c1.555,0.969,2.496,1.67,2.817,2.099l11.59-21.897c-4.508-2.572-9.82-5.093-15.938-7.564
		c-6.117-2.469-12.665-4.022-19.638-4.67V154.5h-6.843h-4.266v16.258c-5.152,0.54-9.956,1.693-14.407,3.464
		c-4.456,1.771-8.318,4.21-11.591,7.321c-3.275,3.118-5.876,6.845-7.807,11.188c-1.935,4.35-2.9,9.312-2.9,14.891
		c0,4.294,0.618,8.052,1.852,11.272c1.232,3.217,3.113,6.064,5.636,8.533c2.52,2.466,5.714,4.64,9.579,6.518
		c3.861,1.874,8.422,3.619,13.682,5.23l7.727,2.257v21.41c-3.861-0.538-7.619-1.423-11.268-2.655
		c-3.648-1.237-6.923-2.521-9.819-3.869c-2.896-1.34-5.288-2.624-7.163-3.862c-1.88-1.229-3.032-2.115-3.462-2.656l-11.59,23.021
		c5.794,3.867,12.315,6.98,19.559,9.34c7.243,2.362,14.57,3.862,21.975,4.505V305.5h11.108v-18.676
		c5.151-0.214,10.06-1.022,14.73-2.413c4.668-1.391,8.799-3.46,12.395-6.197c3.593-2.739,6.462-6.248,8.613-10.546
		c2.145-4.291,3.218-9.496,3.218-15.611c0-5.259-0.832-9.768-2.496-13.524c-1.449-3.273-3.428-6.114-5.936-8.532
		C220.072,229.643,219.691,229.293,219.297,228.954z M180.58,213.903c-3.758-1.18-6.574-2.547-8.449-4.106
		c-1.881-1.558-2.819-3.675-2.819-6.358c0-5.579,3.756-8.693,11.268-9.334V213.903z M188.148,263.163v-19.318
		c3.755,1.29,6.759,2.709,9.014,4.267c2.254,1.555,3.381,3.729,3.381,6.519C200.543,259.995,196.41,262.842,188.148,263.163z"/>
</g>
<g>
</g>
<g>
</g>
<g>
</g>
<g>
</g>
<g>
</g>
<g>
</g>
<g>
</g>
<g>
</g>
<g>
</g>
<g>
</g>
<g>
</g>
<g>
</g>
<g>
</g>
<g>
</g>
<g>
</g>
</svg>
