<?xml version="1.0" encoding="iso-8859-1"?>
<!-- Generator: Adobe Illustrator 19.0.0, SVG Export Plug-In . SVG Version: 6.00 Build 0)  -->
<svg version="1.1" id="Capa_1" xmlns="http://www.w3.org/2000/svg" xmlns:xlink="http://www.w3.org/1999/xlink" x="0px" y="0px"
	 viewBox="0 0 410 410" style="enable-background:new 0 0 410 410;" xml:space="preserve">
<g id="XMLID_821_">
	<polygon id="XMLID_822_" style="fill:#DEDDE0;" points="95,360 95,330 205,330 205,300 95,300 95,270 205,270 205,240 95,240 
		95,210 205,210 205,180 95,180 95,150 205,150 205,100 65,100 65,410 205,410 205,360 	"/>
	<path id="XMLID_823_" style="fill:#CDCDD0;" d="M205,150h50v30h-50v30h50v30h-50v30h50v30h-50v30h50v30h-50v50h140V100H205V150z
		 M285,150h30v30h-30V150z M285,210h30v30h-30V210z M285,270h30v30h-30V270z M285,330h30v30h-30V330z"/>
	<polygon id="XMLID_829_" style="fill:#ACABB1;" points="285,60 285,80 125,80 125,60 65,60 65,100 205,100 345,100 345,60 	"/>
	<path id="XMLID_830_" style="fill:#565659;" d="M285,80V60V40h-40c0-22.091-17.908-40-40-40s-40,17.909-40,40h-40v20v20H285z"/>
	<polygon id="XMLID_831_" style="fill:#FFFFFF;" points="95,360 205,360 255,360 255,330 205,330 95,330 	"/>
	<polygon id="XMLID_832_" style="fill:#FFFFFF;" points="95,240 205,240 255,240 255,210 205,210 95,210 	"/>
	<polygon id="XMLID_833_" style="fill:#FFFFFF;" points="95,180 205,180 255,180 255,150 205,150 95,150 	"/>
	<polygon id="XMLID_834_" style="fill:#FFFFFF;" points="95,300 205,300 255,300 255,270 205,270 95,270 	"/>
	<rect id="XMLID_835_" x="285" y="330" style="fill:#FFFFFF;" width="30" height="30"/>
	<rect id="XMLID_836_" x="285" y="210" style="fill:#D80027;" width="30" height="30"/>
	<rect id="XMLID_837_" x="285" y="150" style="fill:#64C37D;" width="30" height="30"/>
	<rect id="XMLID_838_" x="285" y="270" style="fill:#FFFFFF;" width="30" height="30"/>
</g>
<g>
</g>
<g>
</g>
<g>
</g>
<g>
</g>
<g>
</g>
<g>
</g>
<g>
</g>
<g>
</g>
<g>
</g>
<g>
</g>
<g>
</g>
<g>
</g>
<g>
</g>
<g>
</g>
<g>
</g>
</svg>
