<?xml version="1.0" encoding="iso-8859-1"?>
<!-- Generator: Adobe Illustrator 19.0.0, SVG Export Plug-In . SVG Version: 6.00 Build 0)  -->
<svg version="1.1" id="Capa_1" xmlns="http://www.w3.org/2000/svg" xmlns:xlink="http://www.w3.org/1999/xlink" x="0px" y="0px"
	 viewBox="0 0 400 400" style="enable-background:new 0 0 400 400;" xml:space="preserve">
<g id="XMLID_9_">
	<rect id="XMLID_1109_" x="130" y="370" style="fill:#565659;" width="30" height="30"/>
	<rect id="XMLID_1110_" x="240" y="370" style="fill:#565659;" width="30" height="30"/>
	<rect id="XMLID_1111_" x="130" y="30" style="fill:#565659;" width="30" height="110"/>
	<rect id="XMLID_1112_" x="240" y="30" style="fill:#565659;" width="30" height="110"/>
	<polygon id="XMLID_1113_" style="fill:#00797D;" points="270,140 240,140 200,140 200,180 270,180 270,210 200,210 200,240 
		270,240 270,270 200,270 200,300 270,300 270,330 200,330 200,370 240,370 270,370 300,370 300,140 	"/>
	<polygon id="XMLID_1114_" style="fill:#00A1A7;" points="130,330 130,300 200,300 200,270 130,270 130,240 200,240 200,210 
		130,210 130,180 200,180 200,140 160,140 130,140 100,140 100,370 130,370 160,370 200,370 200,330 	"/>
	<rect id="XMLID_1115_" x="130" y="180" style="fill:#CCF7F9;" width="70" height="30"/>
	<rect id="XMLID_1116_" x="200" y="180" style="fill:#00D7DF;" width="70" height="30"/>
	<rect id="XMLID_1117_" x="130" y="240" style="fill:#CCF7F9;" width="70" height="30"/>
	<rect id="XMLID_1118_" x="200" y="240" style="fill:#00D7DF;" width="70" height="30"/>
	<rect id="XMLID_1119_" x="130" y="300" style="fill:#CCF7F9;" width="70" height="30"/>
	<rect id="XMLID_1120_" x="200" y="300" style="fill:#00D7DF;" width="70" height="30"/>
	<polygon id="XMLID_1121_" style="fill:#ACABB1;" points="240,30 270,30 270,0 130,0 130,30 160,30 	"/>
</g>
<g>
</g>
<g>
</g>
<g>
</g>
<g>
</g>
<g>
</g>
<g>
</g>
<g>
</g>
<g>
</g>
<g>
</g>
<g>
</g>
<g>
</g>
<g>
</g>
<g>
</g>
<g>
</g>
<g>
</g>
</svg>
