<?xml version="1.0" encoding="iso-8859-1"?>
<!-- Generator: Adobe Illustrator 19.0.0, SVG Export Plug-In . SVG Version: 6.00 Build 0)  -->
<svg version="1.1" id="Capa_1" xmlns="http://www.w3.org/2000/svg" xmlns:xlink="http://www.w3.org/1999/xlink" x="0px" y="0px"
	 viewBox="0 0 380 380" style="enable-background:new 0 0 380 380;" xml:space="preserve">
<g id="XMLID_19_">
	<rect id="XMLID_26_" x="50" y="20" style="fill:#DEDDE0;" width="140" height="60"/>
	<rect id="XMLID_27_" x="190" y="20" style="fill:#CDCDD0;" width="140" height="60"/>
	<path id="XMLID_28_" style="fill:#00A1A7;" d="M130,330c-8.284,0-15-6.716-15-15s6.716-15,15-15h60v-60c-8.284,0-15-6.716-15-15
		s6.716-15,15-15v-30c-26.123,0-48.334-16.699-56.572-40H30v20v80.001L0,270v90h190v-30H130z M130,210c8.284,0,15,6.716,15,15
		s-6.716,15-15,15s-15-6.716-15-15S121.716,210,130,210z M70,330c-8.284,0-15-6.716-15-15s6.716-15,15-15s15,6.716,15,15
		S78.284,330,70,330z M70,240c-8.284,0-15-6.716-15-15s6.716-15,15-15s15,6.716,15,15S78.284,240,70,240z"/>
	<path id="XMLID_85_" style="fill:#006C70;" d="M350,140H246.572c-8.238,23.301-30.45,40-56.572,40v30c8.284,0,15,6.716,15,15
		s-6.716,15-15,15v60h60c8.284,0,15,6.716,15,15s-6.716,15-15,15h-60v30h190v-90l-30-30v-80V140z M250,240c-8.284,0-15-6.716-15-15
		s6.716-15,15-15c8.284,0,15,6.716,15,15S258.284,240,250,240z M310,330c-8.284,0-15-6.716-15-15s6.716-15,15-15s15,6.716,15,15
		S318.284,330,310,330z M310,240c-8.284,0-15-6.716-15-15s6.716-15,15-15s15,6.716,15,15S318.284,240,310,240z"/>
	<circle id="XMLID_90_" style="fill:#FFFFFF;" cx="310" cy="225" r="15"/>
	<circle id="XMLID_91_" style="fill:#FFFFFF;" cx="310" cy="315" r="15"/>
	<circle id="XMLID_92_" style="fill:#FFFFFF;" cx="250" cy="225" r="15"/>
	<circle id="XMLID_93_" style="fill:#FFFFFF;" cx="190" cy="225" r="15"/>
	<circle id="XMLID_102_" style="fill:#FFFFFF;" cx="130" cy="225" r="15"/>
	<circle id="XMLID_103_" style="fill:#FFFFFF;" cx="70" cy="225" r="15"/>
	<circle id="XMLID_104_" style="fill:#FFFFFF;" cx="70" cy="315" r="15"/>
	<path id="XMLID_105_" style="fill:#FFFFFF;" d="M115,315c0,8.284,6.716,15,15,15h60h60c8.284,0,15-6.716,15-15s-6.716-15-15-15h-60
		h-60C121.716,300,115,306.716,115,315z"/>
	<path id="XMLID_106_" style="fill:#FFFFFF;" d="M133.428,140c8.238,23.301,30.45,40,56.572,40c26.122,0,48.334-16.699,56.572-40
		H133.428z"/>
	<polygon id="XMLID_107_" style="fill:#565659;" points="133.428,140 246.572,140 350,140 350,80 330,80 190,80 50,80 30,80 30,140 
			"/>
	<polygon id="XMLID_108_" style="fill:#ACABB1;" points="30,80 30,60 0,60 0,160 30,160 30,140 	"/>
	<polygon id="XMLID_109_" style="fill:#ACABB1;" points="350,160 380,160 380,60 350,60 350,80 350,140 	"/>
</g>
<g>
</g>
<g>
</g>
<g>
</g>
<g>
</g>
<g>
</g>
<g>
</g>
<g>
</g>
<g>
</g>
<g>
</g>
<g>
</g>
<g>
</g>
<g>
</g>
<g>
</g>
<g>
</g>
<g>
</g>
</svg>
