<?xml version="1.0" encoding="iso-8859-1"?>
<!-- Generator: Adobe Illustrator 19.0.0, SVG Export Plug-In . SVG Version: 6.00 Build 0)  -->
<svg version="1.1" id="Capa_1" xmlns="http://www.w3.org/2000/svg" xmlns:xlink="http://www.w3.org/1999/xlink" x="0px" y="0px"
	 viewBox="0 0 512 512" style="enable-background:new 0 0 512 512;" xml:space="preserve">
<path style="fill:#78777F;" d="M418.95,195.5c-2.03-2.04-4.1-4.01-6.2-5.96V69.04C412.75,30.97,381.78,0,343.71,0H168.29
	c-38.07,0-69.04,30.97-69.04,69.04v120.5c-2.1,1.95-4.17,3.92-6.2,5.96c-43.53,43.52-67.5,101.4-67.5,162.95
	c0,54.16,19.17,106.79,53.99,148.2l4.49,5.35h343.94l4.49-5.35c34.82-41.41,53.99-94.04,53.99-148.2
	C486.45,296.9,462.48,239.02,418.95,195.5z M329.97,140.08C306.45,132.14,281.55,128,256,128s-50.45,4.14-73.97,12.08V80h147.94
	V140.08z"/>
<path style="fill:#57555C;" d="M486.45,358.45c0,54.16-19.17,106.79-53.99,148.2l-4.49,5.35H256V128c25.55,0,50.45,4.14,73.97,12.08
	V80H256V0h87.71c38.07,0,69.04,30.97,69.04,69.04v120.5c2.1,1.95,4.17,3.92,6.2,5.96C462.48,239.02,486.45,296.9,486.45,358.45z"/>
<g>
	<rect x="186.7" y="249" style="fill:#D8D8DA;" width="138.6" height="30"/>
	<rect x="186.7" y="313" style="fill:#D8D8DA;" width="138.6" height="30"/>
	<rect x="186.7" y="377" style="fill:#D8D8DA;" width="138.6" height="30"/>
</g>
<g>
	<rect x="256" y="249" style="fill:#C7C5CC;" width="69.3" height="30"/>
	<rect x="256" y="313" style="fill:#C7C5CC;" width="69.3" height="30"/>
	<rect x="256" y="377" style="fill:#C7C5CC;" width="69.3" height="30"/>
</g>
<g>
</g>
<g>
</g>
<g>
</g>
<g>
</g>
<g>
</g>
<g>
</g>
<g>
</g>
<g>
</g>
<g>
</g>
<g>
</g>
<g>
</g>
<g>
</g>
<g>
</g>
<g>
</g>
<g>
</g>
</svg>
