<?xml version="1.0" encoding="iso-8859-1"?>
<!-- Generator: Adobe Illustrator 19.0.0, SVG Export Plug-In . SVG Version: 6.00 Build 0)  -->
<svg version="1.1" id="Capa_1" xmlns="http://www.w3.org/2000/svg" xmlns:xlink="http://www.w3.org/1999/xlink" x="0px" y="0px"
	 viewBox="0 0 512 512" style="enable-background:new 0 0 512 512;" xml:space="preserve">
<path style="fill:#B0DBFF;" d="M336.48,189.5V224h17.59v288H157.93V224h17.59v-34.5h-17.59V131c0-43.56,35.44-79,79-79h38.14
	c43.56,0,79,35.44,79,79v58.5H336.48z"/>
<path style="fill:#83C9FF;" d="M336.48,189.5V224h17.59v288H256V52h19.07c43.56,0,79,35.44,79,79v58.5H336.48z"/>
<g>
	<rect x="157.93" y="293.55" style="fill:#6D76E6;" width="62.64" height="30"/>
	<rect x="157.93" y="353.54" style="fill:#6D76E6;" width="62.64" height="30"/>
	<rect x="157.93" y="413.54" style="fill:#6D76E6;" width="62.64" height="30"/>
</g>
<g>
	<rect x="291.43" y="293.55" style="fill:#495AE3;" width="62.64" height="30"/>
	<rect x="291.43" y="353.54" style="fill:#495AE3;" width="62.64" height="30"/>
	<rect x="291.43" y="413.54" style="fill:#495AE3;" width="62.64" height="30"/>
</g>
<rect x="212.83" style="fill:#6D76E6;" width="86.5" height="55.77"/>
<rect x="256" style="fill:#495AE3;" width="43.33" height="55.77"/>
<g>
</g>
<g>
</g>
<g>
</g>
<g>
</g>
<g>
</g>
<g>
</g>
<g>
</g>
<g>
</g>
<g>
</g>
<g>
</g>
<g>
</g>
<g>
</g>
<g>
</g>
<g>
</g>
<g>
</g>
</svg>
