<?xml version="1.0" encoding="iso-8859-1"?>
<!-- Generator: Adobe Illustrator 19.0.0, SVG Export Plug-In . SVG Version: 6.00 Build 0)  -->
<svg version="1.1" id="Capa_1" xmlns="http://www.w3.org/2000/svg" xmlns:xlink="http://www.w3.org/1999/xlink" x="0px" y="0px"
	 viewBox="0 0 512 512" style="enable-background:new 0 0 512 512;" xml:space="preserve">
<rect x="241" y="288.27" style="fill:#78777F;" width="30" height="140.27"/>
<rect x="256" y="288.27" style="fill:#57555C;" width="15" height="140.27"/>
<path style="fill:#FF3100;" d="M374.52,118.52c0,22.63-6.41,44.64-18.53,63.65c-1.1,1.72-2.29,3.48-3.53,5.21
	c-3.92,6.07-11.91,19.35-18.8,36.62c-2.03,5.05-3.96,10.45-5.66,16.11L324.19,254l-13.49,49.27H201.35L187.86,254l-2.99-10.92
	l-0.09-0.3c-1.89-6.63-4.1-12.94-6.44-18.78c-6.9-17.27-14.88-30.55-18.8-36.62c-14.43-20.18-22.06-43.98-22.06-68.86
	C137.48,53.17,190.65,0,256,0S374.52,53.17,374.52,118.52z"/>
<rect x="107.63" y="413.54" style="fill:#ADACB2;" width="296.74" height="98.46"/>
<path style="fill:#C91C00;" d="M310.7,303.27H256V0c65.35,0,118.52,53.17,118.52,118.52c0,22.63-6.41,44.64-18.53,63.65
	c-1.1,1.72-2.29,3.48-3.53,5.21c-3.92,6.07-11.91,19.35-18.8,36.62c-2.03,5.05-3.96,10.45-5.66,16.11L324.19,254L310.7,303.27z"/>
<rect x="256" y="413.54" style="fill:#8A8891;" width="148.37" height="98.46"/>
<path style="fill:#FFDAA8;" d="M333.66,224c-2.03,5.05-3.96,10.45-5.66,16.11L324.19,254H187.86l-2.99-10.92l-0.09-0.3
	c-1.89-6.63-4.1-12.94-6.44-18.78H333.66z"/>
<path style="fill:#FFC373;" d="M333.66,224c-2.03,5.05-3.96,10.45-5.66,16.11L324.19,254H256v-30H333.66z"/>
<g>
</g>
<g>
</g>
<g>
</g>
<g>
</g>
<g>
</g>
<g>
</g>
<g>
</g>
<g>
</g>
<g>
</g>
<g>
</g>
<g>
</g>
<g>
</g>
<g>
</g>
<g>
</g>
<g>
</g>
</svg>
