<?xml version="1.0" encoding="iso-8859-1"?>
<!-- Generator: Adobe Illustrator 19.0.0, SVG Export Plug-In . SVG Version: 6.00 Build 0)  -->
<svg version="1.1" id="Capa_1" xmlns="http://www.w3.org/2000/svg" xmlns:xlink="http://www.w3.org/1999/xlink" x="0px" y="0px"
	 viewBox="0 0 512 512" style="enable-background:new 0 0 512 512;" xml:space="preserve">
<rect y="113.34" style="fill:#ADACB2;" width="92.77" height="29.541"/>
<path style="fill:#FFA920;" d="M436.901,134.039v136.727h-97.043v170.483H67.27v-307.21c0-34.898,28.399-63.287,63.297-63.287
	h243.046c5.091,0,10.054,0.601,14.8,1.753C416.193,79.181,436.901,104.232,436.901,134.039z"/>
<path style="fill:#FF8800;" d="M436.896,134.039v136.727h-96.974V134.039c0-7.247,1.221-14.209,3.486-20.699
	c7.001-20.206,23.968-35.784,45.011-40.836c21.014,5.052,37.99,20.63,44.991,40.836
	C435.675,119.829,436.896,126.791,436.896,134.039z"/>
<path style="fill:#8A8891;" d="M512,113.34v29.541H339.922v-8.843c0-7.247,1.221-14.209,3.486-20.699
	C343.408,113.34,512,113.34,512,113.34z"/>
<rect x="67.266" y="332.921" style="fill:#FFDAA8;" width="272.469" height="29.541"/>
<g>
</g>
<g>
</g>
<g>
</g>
<g>
</g>
<g>
</g>
<g>
</g>
<g>
</g>
<g>
</g>
<g>
</g>
<g>
</g>
<g>
</g>
<g>
</g>
<g>
</g>
<g>
</g>
<g>
</g>
</svg>
