<?xml version="1.0" encoding="iso-8859-1"?>
<!-- Generator: Adobe Illustrator 19.0.0, SVG Export Plug-In . SVG Version: 6.00 Build 0)  -->
<svg version="1.1" id="Capa_1" xmlns="http://www.w3.org/2000/svg" xmlns:xlink="http://www.w3.org/1999/xlink" x="0px" y="0px"
	 viewBox="0 0 512 512" style="enable-background:new 0 0 512 512;" xml:space="preserve">
<rect x="52.95" y="302.469" style="fill:#FF3100;" width="428.05" height="71.5"/>
<rect x="278.04" y="302.469" style="fill:#C91C00;" width="202.96" height="71.5"/>
<g>
	<rect x="52.951" y="55.029" style="fill:#ADACB2;" width="30" height="42.584"/>
	<polygon style="fill:#ADACB2;" points="512,361.971 512,456.971 482,456.971 482,391.971 82.95,391.971 82.95,456.971 
		52.95,456.971 52.95,391.971 15,391.971 15,361.971 52.95,361.971 52.95,214.231 82.95,214.231 82.95,361.971 	"/>
</g>
<path style="fill:#78777F;" d="M67.95,89.181c-37.47,0-67.95,30.48-67.95,67.95s30.48,67.95,67.95,67.95s67.95-30.48,67.95-67.95
	S105.42,89.181,67.95,89.181z M67.95,172.151c-8.3,0-15.02-6.72-15.02-15.02s6.72-15.02,15.02-15.02s15.03,6.72,15.03,15.02
	C82.98,165.431,76.25,172.151,67.95,172.151z"/>
<path style="fill:#57555C;" d="M135.9,157.131c0,37.47-30.48,67.95-67.95,67.95v-52.93c8.3,0,15.03-6.72,15.03-15.02
	s-6.73-15.02-15.03-15.02v-52.93C105.42,89.181,135.9,119.661,135.9,157.131z"/>
<polygon style="fill:#8A8891;" points="512,361.971 512,456.971 482,456.971 482,391.971 278.04,391.971 278.04,361.971 "/>
<g>
</g>
<g>
</g>
<g>
</g>
<g>
</g>
<g>
</g>
<g>
</g>
<g>
</g>
<g>
</g>
<g>
</g>
<g>
</g>
<g>
</g>
<g>
</g>
<g>
</g>
<g>
</g>
<g>
</g>
</svg>
