<?xml version="1.0" encoding="iso-8859-1"?>
<!-- Generator: Adobe Illustrator 19.0.0, SVG Export Plug-In . SVG Version: 6.00 Build 0)  -->
<svg version="1.1" id="Capa_1" xmlns="http://www.w3.org/2000/svg" xmlns:xlink="http://www.w3.org/1999/xlink" x="0px" y="0px"
	 viewBox="0 0 512 512" style="enable-background:new 0 0 512 512;" xml:space="preserve">
<path style="fill:#78777F;" d="M457.365,191.111h-30v-66.183c0-10.1-8.217-18.316-18.316-18.316H103.194
	c-10.1,0-18.316,8.217-18.316,18.316v66.183h-30v-66.183c0-26.642,21.675-48.316,48.316-48.316h305.855
	c26.642,0,48.316,21.675,48.316,48.316V191.111z"/>
<path style="fill:#57555C;" d="M457.361,124.93v66.18h-30v-66.18c0-10.1-8.21-18.32-18.31-18.32h-153.02v-30h153.02
	C435.692,76.61,457.361,98.29,457.361,124.93z"/>
<rect x="54.639" y="290" style="fill:#78777F;" width="30" height="31"/>
<rect x="427.362" y="290" style="fill:#57555C;" width="30" height="31"/>
<rect x="181.962" style="fill:#D8D8DA;" width="148.32" height="449.54"/>
<rect x="84.492" y="419.54" style="fill:#ADACB2;" width="343.26" height="92.46"/>
<rect x="24.788" y="176.11" style="fill:#FF3100;" width="89.7" height="125.89"/>
<rect x="397.512" y="176.11" style="fill:#C91C00;" width="89.7" height="125.89"/>
<rect x="256.032" style="fill:#C7C5CC;" width="74.25" height="449.54"/>
<rect x="256.032" y="419.54" style="fill:#8A8891;" width="171.72" height="92.46"/>
<rect x="164.122" y="333.59" style="fill:#78777F;" width="184" height="30"/>
<rect x="256.032" y="333.59" style="fill:#57555C;" width="92.09" height="30"/>
<g>
</g>
<g>
</g>
<g>
</g>
<g>
</g>
<g>
</g>
<g>
</g>
<g>
</g>
<g>
</g>
<g>
</g>
<g>
</g>
<g>
</g>
<g>
</g>
<g>
</g>
<g>
</g>
<g>
</g>
</svg>
