<?xml version="1.0" encoding="iso-8859-1"?>
<!-- Generator: Adobe Illustrator 19.0.0, SVG Export Plug-In . SVG Version: 6.00 Build 0)  -->
<svg version="1.1" id="Capa_1" xmlns="http://www.w3.org/2000/svg" xmlns:xlink="http://www.w3.org/1999/xlink" x="0px" y="0px"
	 viewBox="0 0 512 512" style="enable-background:new 0 0 512 512;" xml:space="preserve">
<polygon style="fill:#D8D8DA;" points="440,240.818 440,270.818 336.64,270.818 297.22,331.967 255.74,279.688 213.26,331.298 
	172.48,270.818 75,270.818 75,240.818 188.44,240.818 198.19,255.288 215.65,281.188 236.97,255.288 256.17,231.958 274.68,255.288 
	294.7,280.518 310.96,255.288 320.28,240.818 "/>
<polygon style="fill:#C7C5CC;" points="440,255.288 440,270.818 336.64,270.818 297.22,331.967 255.74,279.688 213.26,331.298 
	172.48,270.818 75,270.818 75,255.288 198.19,255.288 215.65,281.188 236.97,255.288 274.68,255.288 294.7,280.518 310.96,255.288 
	"/>
<g>
	<rect y="180.033" style="fill:#78777F;" width="90" height="150.5"/>
	<rect x="422" y="180.033" style="fill:#78777F;" width="90" height="150.5"/>
</g>
<g>
	<rect y="255.283" style="fill:#57555C;" width="90" height="75.25"/>
	<rect x="422" y="255.283" style="fill:#57555C;" width="90" height="75.25"/>
</g>
<g>
</g>
<g>
</g>
<g>
</g>
<g>
</g>
<g>
</g>
<g>
</g>
<g>
</g>
<g>
</g>
<g>
</g>
<g>
</g>
<g>
</g>
<g>
</g>
<g>
</g>
<g>
</g>
<g>
</g>
</svg>
