<?xml version="1.0" encoding="iso-8859-1"?>
<!-- Generator: Adobe Illustrator 19.0.0, SVG Export Plug-In . SVG Version: 6.00 Build 0)  -->
<svg version="1.1" id="Capa_1" xmlns="http://www.w3.org/2000/svg" xmlns:xlink="http://www.w3.org/1999/xlink" x="0px" y="0px"
	 viewBox="0 0 512 512" style="enable-background:new 0 0 512 512;" xml:space="preserve">
<polygon style="fill:#FFDAA8;" points="370.77,140.59 370.77,371.41 338.26,512 173.74,512 141.23,371.41 141.23,140.59 173.74,0 
	338.26,0 "/>
<polygon style="fill:#FFC373;" points="370.77,140.59 370.77,371.41 338.26,512 256.45,512 256.45,0 338.26,0 "/>
<g>
	<polygon style="fill:#6D76E6;" points="370.71,140.33 141.29,140.33 152.02,93.93 158.96,63.93 173.74,0 338.26,0 353.04,63.93 
		359.98,93.93 	"/>
	<polygon style="fill:#6D76E6;" points="370.77,371 370.77,371.41 359.98,418.07 353.04,448.07 338.26,512 173.74,512 
		158.96,448.07 152.02,418.07 141.23,371.41 141.23,371 	"/>
</g>
<polygon style="fill:#FF3100;" points="288.51,241 288.51,271 241,271 241,202.5 271,202.5 271,241 "/>
<g>
	<rect x="241" y="140.33" style="fill:#FFA920;" width="30" height="40"/>
	<rect x="141.23" y="241" style="fill:#FFA920;" width="30.5" height="30"/>
</g>
<rect x="340.27" y="241" style="fill:#FF8800;" width="30.5" height="30"/>
<g>
	<rect x="241" y="331.67" style="fill:#FFA920;" width="30" height="39.33"/>
	<polygon style="fill:#FFA920;" points="359.98,93.93 152.02,93.93 158.96,63.93 353.04,63.93 	"/>
	<polygon style="fill:#FFA920;" points="359.98,418.07 353.04,448.07 158.96,448.07 152.02,418.07 	"/>
</g>
<g>
	<polygon style="fill:#495AE3;" points="370.71,140.33 256.45,140.33 256.45,0 338.26,0 353.04,63.93 359.98,93.93 	"/>
	<polygon style="fill:#495AE3;" points="370.77,371 370.77,371.41 359.98,418.07 353.04,448.07 338.26,512 256.45,512 256.45,371 	
		"/>
</g>
<g>
	<rect x="256.45" y="140.33" style="fill:#FF8800;" width="14.55" height="40"/>
	<rect x="256.45" y="331.67" style="fill:#FF8800;" width="14.55" height="39.33"/>
</g>
<polygon style="fill:#C91C00;" points="288.51,271 256.45,271 256.45,202.5 271,202.5 271,241 288.51,241 "/>
<g>
	<polygon style="fill:#FF8800;" points="256.45,418.07 359.98,418.07 353.04,448.07 256.45,448.07 	"/>
	<polygon style="fill:#FF8800;" points="359.98,93.93 256.45,93.93 256.45,63.93 353.04,63.93 	"/>
</g>
<g>
</g>
<g>
</g>
<g>
</g>
<g>
</g>
<g>
</g>
<g>
</g>
<g>
</g>
<g>
</g>
<g>
</g>
<g>
</g>
<g>
</g>
<g>
</g>
<g>
</g>
<g>
</g>
<g>
</g>
</svg>
