<?xml version="1.0" encoding="iso-8859-1"?>
<!-- Generator: Adobe Illustrator 19.0.0, SVG Export Plug-In . SVG Version: 6.00 Build 0)  -->
<svg version="1.1" id="Capa_1" xmlns="http://www.w3.org/2000/svg" xmlns:xlink="http://www.w3.org/1999/xlink" x="0px" y="0px"
	 viewBox="0 0 512 512" style="enable-background:new 0 0 512 512;" xml:space="preserve">
<path style="fill:#FF3100;" d="M512,210.12v200.2H0v-200.2h26.88c19.43,0,35.25-15.81,35.25-35.24v-73.2h91.81v50.44
	c0,43.56,35.44,79,79,79h46.11c43.54,0,78.97-35.42,78.99-78.96l0.03-50.48h91.8v73.2c0,19.43,15.82,35.24,35.25,35.24H512
	L512,210.12z"/>
<path style="fill:#C91C00;" d="M512,210.12v200.2H256v-179.2h23.05c43.54,0,78.97-35.42,78.99-78.96l0.03-50.48h91.8v73.2
	c0,19.43,15.82,35.24,35.25,35.24H512L512,210.12z"/>
<rect y="335.52" style="fill:#FFA920;" width="512" height="30"/>
<rect x="256" y="335.52" style="fill:#FF8800;" width="256" height="30"/>
<g>
</g>
<g>
</g>
<g>
</g>
<g>
</g>
<g>
</g>
<g>
</g>
<g>
</g>
<g>
</g>
<g>
</g>
<g>
</g>
<g>
</g>
<g>
</g>
<g>
</g>
<g>
</g>
<g>
</g>
</svg>
