<?xml version="1.0" encoding="iso-8859-1"?>
<!-- Generator: Adobe Illustrator 19.0.0, SVG Export Plug-In . SVG Version: 6.00 Build 0)  -->
<svg version="1.1" id="Capa_1" xmlns="http://www.w3.org/2000/svg" xmlns:xlink="http://www.w3.org/1999/xlink" x="0px" y="0px"
	 viewBox="0 0 512 512" style="enable-background:new 0 0 512 512;" xml:space="preserve">
<polygon style="fill:#78777F;" points="152.249,362.197 74.66,289.583 116.102,132.494 87.094,124.842 22.598,369.323 
	51.605,376.975 65.967,322.535 131.75,384.101 "/>
<polygon style="fill:#FF3100;" points="146.306,161.382 69.148,136.391 34.022,61.544 61.18,48.799 90.776,111.862 155.55,132.842 
	"/>
<path style="fill:#ADACB2;" d="M512,413.051v50.15H0v-105.67h456.48C487.09,357.531,512,382.441,512,413.051z"/>
<path style="fill:#8A8891;" d="M512,413.051v50.15H256v-105.67h200.48C487.09,357.531,512,382.441,512,413.051z"/>
<g>
	<rect x="61" y="395.36" style="fill:#D8D8DA;" width="30" height="30"/>
	<rect x="121" y="395.36" style="fill:#D8D8DA;" width="30" height="30"/>
	<rect x="181" y="395.36" style="fill:#D8D8DA;" width="30" height="30"/>
	<rect x="241" y="395.36" style="fill:#D8D8DA;" width="30" height="30"/>
	<rect x="301" y="395.36" style="fill:#D8D8DA;" width="30" height="30"/>
	<rect x="361" y="395.36" style="fill:#D8D8DA;" width="30" height="30"/>
	<rect x="421" y="395.36" style="fill:#D8D8DA;" width="30" height="30"/>
</g>
<g>
	<rect x="256" y="395.36" style="fill:#C7C5CC;" width="15" height="30"/>
	<rect x="301" y="395.36" style="fill:#C7C5CC;" width="30" height="30"/>
	<rect x="361" y="395.36" style="fill:#C7C5CC;" width="30" height="30"/>
	<rect x="421" y="395.36" style="fill:#C7C5CC;" width="30" height="30"/>
</g>
<g>
</g>
<g>
</g>
<g>
</g>
<g>
</g>
<g>
</g>
<g>
</g>
<g>
</g>
<g>
</g>
<g>
</g>
<g>
</g>
<g>
</g>
<g>
</g>
<g>
</g>
<g>
</g>
<g>
</g>
</svg>
