<?xml version="1.0" encoding="iso-8859-1"?>
<!-- Generator: Adobe Illustrator 19.0.0, SVG Export Plug-In . SVG Version: 6.00 Build 0)  -->
<svg version="1.1" id="Capa_1" xmlns="http://www.w3.org/2000/svg" xmlns:xlink="http://www.w3.org/1999/xlink" x="0px" y="0px"
	 viewBox="0 0 512 512" style="enable-background:new 0 0 512 512;" xml:space="preserve">
<path style="fill:#B0DBFF;" d="M453.015,140.883c0,51.677-42.029,93.716-93.706,93.716c-32.882,0-63.404-17.496-80.23-45.298
	H173.946c-16.836,27.803-47.348,45.298-80.24,45.298C42.039,234.599,0,192.56,0,140.883c0-51.667,42.039-93.706,93.706-93.706
	c32.892,0,63.404,17.496,80.24,45.288h105.133c16.826-27.793,47.348-45.288,80.23-45.288
	C410.986,47.177,453.015,89.216,453.015,140.883z"/>
<path style="fill:#83C9FF;" d="M453.015,140.883c0,51.677-42.029,93.716-93.706,93.716c-32.882,0-63.404-17.496-80.23-45.298
	H173.946c-16.836,27.803-47.348,45.298-80.24,45.298C42.039,234.599,0,192.56,0,140.883H453.015z"/>
<path style="fill:#B0DBFF;" d="M512,371.107c0,51.677-42.029,93.716-93.706,93.716c-32.882,0-63.404-17.496-80.23-45.298H232.931
	c-16.836,27.803-47.348,45.298-80.24,45.298c-51.667,0-93.706-42.039-93.706-93.716c0-51.667,42.039-93.706,93.706-93.706
	c32.892,0,63.404,17.496,80.24,45.289h105.133c16.826-27.793,47.348-45.289,80.23-45.289C469.971,277.401,512,319.44,512,371.107z"
	/>
<path style="fill:#83C9FF;" d="M512,371.107c0,51.677-42.029,93.716-93.706,93.716c-32.882,0-63.404-17.496-80.23-45.298H232.931
	c-16.836,27.803-47.348,45.298-80.24,45.298c-51.667,0-93.706-42.039-93.706-93.716H512z"/>
<g>
</g>
<g>
</g>
<g>
</g>
<g>
</g>
<g>
</g>
<g>
</g>
<g>
</g>
<g>
</g>
<g>
</g>
<g>
</g>
<g>
</g>
<g>
</g>
<g>
</g>
<g>
</g>
<g>
</g>
</svg>
