<?xml version="1.0" encoding="iso-8859-1"?>
<!-- Generator: Adobe Illustrator 19.0.0, SVG Export Plug-In . SVG Version: 6.00 Build 0)  -->
<svg version="1.1" id="Capa_1" xmlns="http://www.w3.org/2000/svg" xmlns:xlink="http://www.w3.org/1999/xlink" x="0px" y="0px"
	 viewBox="0 0 512 512" style="enable-background:new 0 0 512 512;" xml:space="preserve">
<rect x="447.41" y="89" style="fill:#FFDAA8;" width="30" height="39"/>
<rect x="462.41" y="89" style="fill:#FFC373;" width="15" height="39"/>
<rect x="0.92" style="fill:#FFDAA8;" width="388.33" height="512"/>
<rect x="195.09" style="fill:#FFC373;" width="194.16" height="512"/>
<polygon style="fill:#B0DBFF;" points="255.08,0 240.08,0 150.09,0 135.09,0 120.09,0 120.09,83 270.08,83 270.08,0 "/>
<path style="fill:#FF3100;" d="M511.08,167.45v275.71L471.37,512h-17.91l-39.71-68.84V167.45c0-21.6,14.15-39.96,33.66-46.3
	c4.73-1.54,9.77-2.37,15-2.37s10.27,0.83,15,2.37c7.4,2.4,14.02,6.52,19.4,11.9C505.62,141.87,511.08,154.04,511.08,167.45z"/>
<rect x="195.09" style="fill:#83C9FF;" width="74.99" height="83"/>
<rect x="73.75" y="148.67" style="fill:#FF3100;" width="29" height="30"/>
<rect x="123.75" y="148.67" style="fill:#E57500;" width="192.67" height="30"/>
<rect x="73.75" y="211.33" style="fill:#FF3100;" width="29" height="30"/>
<rect x="123.75" y="211.33" style="fill:#E57500;" width="192.67" height="30"/>
<rect x="73.75" y="274" style="fill:#FF3100;" width="29" height="30"/>
<rect x="123.75" y="274" style="fill:#E57500;" width="192.67" height="30"/>
<rect x="73.75" y="336.67" style="fill:#FF3100;" width="29" height="30"/>
<rect x="123.75" y="336.67" style="fill:#E57500;" width="192.67" height="30"/>
<g>
	<rect x="195.09" y="148.67" style="fill:#BF6100;" width="121.33" height="30"/>
	<rect x="195.09" y="211.33" style="fill:#BF6100;" width="121.33" height="30"/>
	<rect x="195.09" y="274" style="fill:#BF6100;" width="121.33" height="30"/>
	<rect x="195.09" y="336.67" style="fill:#BF6100;" width="121.33" height="30"/>
</g>
<path style="fill:#C91C00;" d="M511.08,167.45v275.71L471.37,512h-8.96V118.78c5.23,0,10.27,0.83,15,2.37
	c7.4,2.4,14.02,6.52,19.4,11.9C505.62,141.87,511.08,154.04,511.08,167.45z"/>
<rect x="413.75" y="211.83" style="fill:#B0DBFF;" width="97.33" height="30"/>
<rect x="462.41" y="211.83" style="fill:#83C9FF;" width="48.67" height="30"/>
<g>
</g>
<g>
</g>
<g>
</g>
<g>
</g>
<g>
</g>
<g>
</g>
<g>
</g>
<g>
</g>
<g>
</g>
<g>
</g>
<g>
</g>
<g>
</g>
<g>
</g>
<g>
</g>
<g>
</g>
</svg>
