<?xml version="1.0" encoding="iso-8859-1"?>
<!-- Generator: Adobe Illustrator 19.0.0, SVG Export Plug-In . SVG Version: 6.00 Build 0)  -->
<svg version="1.1" id="Capa_1" xmlns="http://www.w3.org/2000/svg" xmlns:xlink="http://www.w3.org/1999/xlink" x="0px" y="0px"
	 viewBox="0 0 512 512" style="enable-background:new 0 0 512 512;" xml:space="preserve">
<path style="fill:#6D76E6;" d="M512,256c0,68.38-26.63,132.67-74.98,181.02S324.38,512,256,512c-25.75,0-50.91-3.75-74.89-11.06
	h-0.01c-28.76-8.78-55.86-22.67-80.35-41.38c-0.1-0.07-0.18-0.14-0.28-0.22l-0.01-0.01c-20.25-15.5-38.21-34.14-53.04-54.93
	c-7.01-9.82-13.33-20.12-18.86-30.8c-0.99-1.92-1.96-3.84-2.9-5.78c-8.72-17.91-15.26-36.67-19.56-56.05
	c-1.45-6.54-2.65-13.14-3.58-19.81c-0.51-3.58-0.94-7.19-1.28-10.81C0.41,272.8,0,264.38,0,256c0-11.97,0.83-23.91,2.48-35.68
	c0.66-4.76,1.46-9.49,2.39-14.19c1.16-5.88,2.53-11.71,4.11-17.48c11.67-42.69,34.59-82.18,66.01-113.66
	c3.34-3.35,6.77-6.6,10.29-9.75c37.71-33.77,83.33-55.17,132.83-62.46c5.78-0.86,11.62-1.52,17.51-1.98
	c4.84-0.38,9.76-0.63,14.7-0.74C252.21,0.02,254.11,0,256,0c18.84,0,37.56,2.05,55.77,6.11c3.39,0.75,6.76,1.58,10.12,2.47
	c6.65,1.76,13.22,3.79,19.7,6.1c14.74,5.21,28.99,11.79,42.58,19.67c1.69,0.98,3.37,1.98,5.04,3c10.45,6.37,20.42,13.48,29.84,21.28
	c9.52,7.87,18.48,16.45,26.81,25.66c0.12,0.12,0.23,0.25,0.35,0.38c20.59,22.84,36.7,48.94,47.81,77c0.01,0,0.01,0.01,0,0.03
	C505.81,191.44,512,223.36,512,256z"/>
<g>
	<path style="fill:#FFFFFF;" d="M250.32,0.06c-1.45,5.1-3.03,10.16-4.74,15.16c-1.77,5.17-3.67,10.29-5.71,15.34
		c-17.62,43.82-45.16,83.11-80.85,115.04c-2.37,2.12-4.76,4.2-7.19,6.23c-34.55,29.07-74.68,50.03-117.84,61.7
		c-5.26,1.43-10.56,2.72-15.91,3.86c-5.16,1.11-10.36,2.08-15.6,2.93c0.66-4.76,1.46-9.49,2.39-14.19
		c1.16-5.88,2.53-11.71,4.11-17.48c5.64-1.15,11.23-2.47,16.75-3.95c5.95-1.6,11.83-3.39,17.62-5.37
		c32.08-10.93,61.58-27.54,87.27-48.71c31.04-25.58,56.5-57.82,74.19-94.78c2.64-5.52,5.11-11.14,7.4-16.87v-0.01
		c2.13-5.31,4.1-10.7,5.9-16.18c5.78-0.86,11.62-1.52,17.51-1.98C240.46,0.42,245.38,0.17,250.32,0.06z"/>
	<path style="fill:#FFFFFF;" d="M341.59,14.68c-0.18,5.23-0.49,10.44-0.94,15.62c-0.43,5.17-1,10.31-1.69,15.42
		c-9.01,66.65-39.38,128.22-87.76,176.6c-4.84,4.84-9.81,9.5-14.91,13.97c-55.24,48.53-125.06,75.48-199.08,76.57
		c-1.55,0.02-3.11,0.03-4.66,0.03c-3.61,0-7.22-0.06-10.84-0.19c-5.22-0.18-10.43-0.49-15.61-0.93c-1.45-6.54-2.65-13.14-3.58-19.81
		c-0.51-3.58-0.94-7.19-1.28-10.81c5.03,0.56,10.11,0.99,15.2,1.27c5.04,0.3,10.1,0.45,15.15,0.46c0.32,0.01,0.64,0.01,0.96,0.01
		c69.64,0,133.42-25.63,182.38-67.96c51.48-44.49,86.58-107.44,94.93-178.46c0.59-5,1.05-10.03,1.36-15.1
		c0.32-5.05,0.51-10.14,0.55-15.26c3.39,0.75,6.76,1.58,10.12,2.47C328.54,10.34,335.11,12.37,341.59,14.68z"/>
	<path style="fill:#FFFFFF;" d="M421.67,99.13c0,1.05-0.01,2.1-0.02,3.15c-0.8,82.05-33.13,159.06-91.24,217.17
		c-1.83,1.83-3.68,3.63-5.54,5.42c-58.17,55.41-134.13,85.84-214.77,85.84c-6.47,0-12.93-0.2-19.36-0.6
		c-7.28-0.44-14.53-1.14-21.74-2.09c-7.24-0.96-14.44-2.16-21.58-3.62c-7.01-9.82-13.33-20.12-18.86-30.8
		c-0.99-1.92-1.96-3.84-2.9-5.78c6.51,2.06,13.09,3.86,19.73,5.42h0.01c6.55,1.54,13.15,2.84,19.8,3.9
		c14.78,2.38,29.78,3.57,44.9,3.57c74.84,0,142.95-29.35,193.44-77.17c54.24-51.34,88.13-123.99,88.13-204.41
		c0-8.26-0.36-16.51-1.08-24.7c-0.58-6.71-1.4-13.38-2.46-20v-0.01c-1.07-6.75-2.39-13.44-3.96-20.07c1.69,0.98,3.37,1.98,5.04,3
		c10.45,6.37,20.42,13.48,29.84,21.28c0.94,7.24,1.63,14.53,2.07,21.85C421.49,86.68,421.67,92.9,421.67,99.13z"/>
	<path style="fill:#FFFFFF;" d="M495.03,187.02c0,9.76-0.44,19.46-1.32,29.06v0.01c-2.05,22.52-6.48,44.52-13.18,65.74
		c-14.56,46.17-39.81,88.58-74.51,124.19c-0.96,1-1.94,1.99-2.93,2.98c-29.95,29.94-64.87,53.09-102.91,68.66
		c-20.58,8.44-42.06,14.65-64.16,18.52h-0.01c-17.95,3.15-36.29,4.76-54.9,4.76h-0.01c-28.76-8.78-55.86-22.67-80.35-41.38
		c-0.1-0.07-0.18-0.14-0.28-0.22c13.51,3.98,27.3,6.96,41.27,8.9h0.01c12.99,1.8,26.12,2.7,39.36,2.7c1.51,0,3.03-0.01,4.53-0.04
		h0.03c77.97-1.23,148.4-34.04,199.04-86.19c49.69-51.15,80.32-120.91,80.32-197.69c0-6.16-0.19-12.3-0.58-18.4
		c0,0,0-0.01-0.01-0.02c-0.94-14.8-3.02-29.42-6.24-43.77v-0.01c-3.07-13.77-7.19-27.3-12.34-40.53c0.12,0.12,0.23,0.25,0.35,0.38
		c20.59,22.84,36.7,48.94,47.81,77c0.01,0,0.01,0.01,0,0.03C494.7,170.09,495.03,178.53,495.03,187.02z"/>
</g>
<path style="fill:#495AE3;" d="M512,256c0,68.38-26.63,132.67-74.98,181.02L74.99,74.99c3.34-3.35,6.77-6.6,10.29-9.75
	c37.71-33.77,83.33-55.17,132.83-62.46c5.78-0.86,11.62-1.52,17.51-1.98c4.84-0.38,9.76-0.63,14.7-0.74C252.21,0.02,254.11,0,256,0
	c18.84,0,37.56,2.05,55.77,6.11c3.39,0.75,6.76,1.58,10.12,2.47c6.65,1.76,13.22,3.79,19.7,6.1c14.74,5.21,28.99,11.79,42.58,19.67
	c1.69,0.98,3.37,1.98,5.04,3c10.45,6.37,20.42,13.48,29.84,21.28c9.52,7.87,18.48,16.45,26.81,25.66c0.12,0.12,0.23,0.25,0.35,0.38
	c20.59,22.84,36.7,48.94,47.81,77c0.01,0,0.01,0.01,0,0.03C505.81,191.44,512,223.36,512,256z"/>
<g>
	<path style="fill:#C9E7F8;" d="M239.87,30.56c-17.62,43.82-45.16,83.11-80.85,115.04c-2.37,2.12-4.76,4.2-7.19,6.23l-21.21-21.21
		c31.04-25.58,56.5-57.82,74.19-94.78c2.64-5.52,5.11-11.14,7.4-16.87v-0.01c2.13-5.31,4.1-10.7,5.9-16.18
		c5.78-0.86,11.62-1.52,17.51-1.98c4.84-0.38,9.76-0.63,14.7-0.74c-1.45,5.1-3.03,10.16-4.74,15.16
		C243.81,20.39,241.91,25.51,239.87,30.56z"/>
	<path style="fill:#C9E7F8;" d="M338.96,45.72c-9.01,66.65-39.38,128.22-87.76,176.6c-4.84,4.84-9.81,9.5-14.91,13.97l-21.36-21.36
		c51.48-44.49,86.58-107.44,94.93-178.46c0.59-5,1.05-10.03,1.36-15.1c0.32-5.05,0.51-10.14,0.55-15.26
		c3.39,0.75,6.76,1.58,10.12,2.47c6.65,1.76,13.22,3.79,19.7,6.1c-0.18,5.23-0.49,10.44-0.94,15.62
		C340.22,35.47,339.65,40.61,338.96,45.72z"/>
	<path style="fill:#C9E7F8;" d="M421.65,102.28c-0.8,82.05-33.13,159.06-91.24,217.17c-1.83,1.83-3.68,3.63-5.54,5.42l-21.33-21.33
		c54.24-51.34,88.13-123.99,88.13-204.41c0-8.26-0.36-16.51-1.08-24.7c-0.58-6.71-1.4-13.38-2.46-20v-0.01
		c-1.07-6.75-2.39-13.44-3.96-20.07c1.69,0.98,3.37,1.98,5.04,3c10.45,6.37,20.42,13.48,29.84,21.28
		c0.94,7.24,1.63,14.53,2.07,21.85c0.37,6.2,0.55,12.42,0.55,18.65C421.67,100.18,421.66,101.23,421.65,102.28z"/>
	<path style="fill:#C9E7F8;" d="M495.03,187.02c0,9.76-0.44,19.46-1.32,29.06v0.01c-2.05,22.52-6.48,44.52-13.18,65.74
		c-14.56,46.17-39.81,88.58-74.51,124.19l-21.31-21.31c49.69-51.15,80.32-120.91,80.32-197.69c0-6.16-0.19-12.3-0.58-18.4
		c0,0,0-0.01-0.01-0.02c-0.94-14.8-3.02-29.42-6.24-43.77v-0.01c-3.07-13.77-7.19-27.3-12.34-40.53c0.12,0.12,0.23,0.25,0.35,0.38
		c20.59,22.84,36.7,48.94,47.81,77c0.01,0,0.01,0.01,0,0.03C494.7,170.09,495.03,178.53,495.03,187.02z"/>
</g>
<g>
</g>
<g>
</g>
<g>
</g>
<g>
</g>
<g>
</g>
<g>
</g>
<g>
</g>
<g>
</g>
<g>
</g>
<g>
</g>
<g>
</g>
<g>
</g>
<g>
</g>
<g>
</g>
<g>
</g>
</svg>
