<?xml version="1.0" encoding="iso-8859-1"?>
<!-- Generator: Adobe Illustrator 19.0.0, SVG Export Plug-In . SVG Version: 6.00 Build 0)  -->
<svg version="1.1" id="Capa_1" xmlns="http://www.w3.org/2000/svg" xmlns:xlink="http://www.w3.org/1999/xlink" x="0px" y="0px"
	 viewBox="0 0 512 512" style="enable-background:new 0 0 512 512;" xml:space="preserve">
<rect y="52" style="fill:#FFFFFF;" width="512" height="460"/>
<rect x="256" y="52" style="fill:#C9E7F8;" width="256" height="460"/>
<g>
	<rect y="52" style="fill:#6D76E6;" width="512" height="125.67"/>
	<rect x="231.22" y="231" style="fill:#6D76E6;" width="49.56" height="30"/>
	<rect x="315.66" y="231" style="fill:#6D76E6;" width="49.56" height="30"/>
	<rect x="400.1" y="231" style="fill:#6D76E6;" width="49.57" height="30"/>
	<rect x="62.33" y="296" style="fill:#6D76E6;" width="49.564" height="30"/>
	<rect x="146.78" y="296" style="fill:#6D76E6;" width="49.564" height="30"/>
	<rect x="231.22" y="296" style="fill:#6D76E6;" width="49.56" height="30"/>
	<rect x="315.66" y="296" style="fill:#6D76E6;" width="49.56" height="30"/>
	<rect x="400.1" y="296" style="fill:#6D76E6;" width="49.57" height="30"/>
	<rect x="62.33" y="361" style="fill:#6D76E6;" width="49.564" height="30"/>
	<rect x="146.78" y="361" style="fill:#6D76E6;" width="49.564" height="30"/>
	<rect x="231.22" y="361" style="fill:#6D76E6;" width="49.56" height="30"/>
	<rect x="315.66" y="361" style="fill:#6D76E6;" width="49.56" height="30"/>
	<rect x="400.1" y="361" style="fill:#6D76E6;" width="49.57" height="30"/>
	<rect x="62.33" y="426" style="fill:#6D76E6;" width="49.564" height="30"/>
	<rect x="146.78" y="426" style="fill:#6D76E6;" width="49.564" height="30"/>
	<rect x="231.22" y="426" style="fill:#6D76E6;" width="49.56" height="30"/>
	<rect x="315.66" y="426" style="fill:#6D76E6;" width="49.56" height="30"/>
</g>
<g>
	<rect x="256" y="231" style="fill:#495AE3;" width="24.78" height="30"/>
	<rect x="256" y="296" style="fill:#495AE3;" width="24.78" height="30"/>
	<rect x="256" y="361" style="fill:#495AE3;" width="24.78" height="30"/>
	<rect x="256" y="426" style="fill:#495AE3;" width="24.78" height="30"/>
	<rect x="315.66" y="231" style="fill:#495AE3;" width="49.56" height="30"/>
	<rect x="315.66" y="296" style="fill:#495AE3;" width="49.56" height="30"/>
	<rect x="315.66" y="361" style="fill:#495AE3;" width="49.56" height="30"/>
	<rect x="315.66" y="426" style="fill:#495AE3;" width="49.56" height="30"/>
	<rect x="400.1" y="231" style="fill:#495AE3;" width="49.57" height="30"/>
	<rect x="400.1" y="296" style="fill:#495AE3;" width="49.57" height="30"/>
	<rect x="400.1" y="361" style="fill:#495AE3;" width="49.57" height="30"/>
	<rect x="256" y="52" style="fill:#495AE3;" width="256" height="125.67"/>
</g>
<rect x="79.59" style="fill:#FF3100;" width="69.66" height="108.67"/>
<rect x="362.75" style="fill:#C91C00;" width="69.66" height="108.67"/>
<g>
</g>
<g>
</g>
<g>
</g>
<g>
</g>
<g>
</g>
<g>
</g>
<g>
</g>
<g>
</g>
<g>
</g>
<g>
</g>
<g>
</g>
<g>
</g>
<g>
</g>
<g>
</g>
<g>
</g>
</svg>
