<?xml version="1.0" encoding="iso-8859-1"?>
<!-- Generator: Adobe Illustrator 19.0.0, SVG Export Plug-In . SVG Version: 6.00 Build 0)  -->
<svg version="1.1" id="Capa_1" xmlns="http://www.w3.org/2000/svg" xmlns:xlink="http://www.w3.org/1999/xlink" x="0px" y="0px"
	 viewBox="0 0 512 512" style="enable-background:new 0 0 512 512;" xml:space="preserve">
<rect x="387.918" y="129.847" transform="matrix(-0.7118 -0.7024 0.7024 -0.7118 581.0723 547.7656)" style="fill:#ADACB2;" width="29.999" height="49.643"/>
<rect x="377.679" y="122.004" transform="matrix(-0.711 -0.7032 0.7032 -0.711 622.8666 529.9969)" style="fill:#78777F;" width="85.33" height="30"/>
<polygon style="fill:#ADACB2;" points="302.173,70.69 302.173,123.19 272.173,123.19 272.173,113 233.173,113 233.173,123.19 
	203.173,123.19 203.173,70.69 233.173,70.69 233.173,75 272.173,75 272.173,70.69 "/>
<polygon style="fill:#8A8891;" points="272.173,113 252.673,113 252.673,75 272.173,75 272.173,70.69 302.173,70.69 302.173,123.19 
	272.173,123.19 "/>
<path style="fill:#FF3100;" d="M454.573,310.1c0,111.33-90.57,201.9-201.9,201.9s-201.9-90.57-201.9-201.9
	c0-111.34,90.57-201.91,201.9-201.91S454.573,198.76,454.573,310.1z"/>
<path style="fill:#C91C00;" d="M454.573,310.1c0,111.33-90.57,201.9-201.9,201.9V108.19
	C364.003,108.19,454.573,198.76,454.573,310.1z"/>
<rect x="185.047" style="fill:#78777F;" width="135.26" height="85.69"/>
<rect x="252.677" style="fill:#57555C;" width="67.63" height="85.69"/>
<path style="fill:#FFFFFF;" d="M403.803,310.1c0,83.33-67.8,151.13-151.13,151.13s-151.13-67.8-151.13-151.13
	c0-83.34,67.8-151.13,151.13-151.13S403.803,226.76,403.803,310.1z"/>
<path style="fill:#C9E7F8;" d="M403.803,310.1c0,83.33-67.8,151.13-151.13,151.13V158.97
	C336.003,158.97,403.803,226.76,403.803,310.1z"/>
<rect x="237.677" y="222.19" style="fill:#78777F;" width="30" height="87.91"/>
<rect x="252.677" y="222.19" style="fill:#57555C;" width="15" height="87.91"/>
<g>
</g>
<g>
</g>
<g>
</g>
<g>
</g>
<g>
</g>
<g>
</g>
<g>
</g>
<g>
</g>
<g>
</g>
<g>
</g>
<g>
</g>
<g>
</g>
<g>
</g>
<g>
</g>
<g>
</g>
</svg>
