<?xml version="1.0" encoding="iso-8859-1"?>
<!-- Generator: Adobe Illustrator 19.0.0, SVG Export Plug-In . SVG Version: 6.00 Build 0)  -->
<svg version="1.1" id="Capa_1" xmlns="http://www.w3.org/2000/svg" xmlns:xlink="http://www.w3.org/1999/xlink" x="0px" y="0px"
	 viewBox="0 0 512 512" style="enable-background:new 0 0 512 512;" xml:space="preserve">
<path style="fill:#B0DBFF;" d="M367.97,202.63v253.3c0,30.92-23.51,56.07-52.4,56.07H196.43c-28.89,0-52.4-25.15-52.4-56.07v-253.3
	c0-21.38,5.61-42.21,16.22-60.23l46.91-79.68h97.68l46.91,79.68C362.36,160.42,367.97,181.25,367.97,202.63z"/>
<path style="fill:#83C9FF;" d="M367.97,202.63v253.3c0,30.92-23.51,56.07-52.4,56.07H256V62.72h48.84l46.91,79.68
	C362.36,160.42,367.97,181.25,367.97,202.63z"/>
<g>
	<rect x="144.03" y="241" style="fill:#FFFFFF;" width="65.85" height="30"/>
	<rect x="144.03" y="312.35" style="fill:#FFFFFF;" width="65.85" height="30"/>
	<rect x="144.03" y="383.7" style="fill:#FFFFFF;" width="65.85" height="30"/>
</g>
<g>
	<rect x="302.12" y="241" style="fill:#C9E7F8;" width="65.85" height="30"/>
	<rect x="302.12" y="312.35" style="fill:#C9E7F8;" width="65.85" height="30"/>
	<rect x="302.12" y="383.7" style="fill:#C9E7F8;" width="65.85" height="30"/>
</g>
<rect x="177.75" style="fill:#6D76E6;" width="156.5" height="92.72"/>
<rect x="256" style="fill:#495AE3;" width="78.25" height="92.72"/>
<g>
</g>
<g>
</g>
<g>
</g>
<g>
</g>
<g>
</g>
<g>
</g>
<g>
</g>
<g>
</g>
<g>
</g>
<g>
</g>
<g>
</g>
<g>
</g>
<g>
</g>
<g>
</g>
<g>
</g>
</svg>
