<?xml version="1.0" encoding="iso-8859-1"?>
<!-- Generator: Adobe Illustrator 19.0.0, SVG Export Plug-In . SVG Version: 6.00 Build 0)  -->
<svg version="1.1" id="Layer_1" xmlns="http://www.w3.org/2000/svg" xmlns:xlink="http://www.w3.org/1999/xlink" x="0px" y="0px"
	 viewBox="0 0 495 495" style="enable-background:new 0 0 495 495;" xml:space="preserve">
<g>
	<rect x="97.948" y="416.017" style="fill:#D1E7F8;" width="319.104" height="38.983"/>
	<path style="fill:#1E81CE;" d="M97.948,416.017h149.553v-116.37H167.5c0-44.183,35.817-80,80-80c0.001,0,0.001-15,0.001-15
		c-24.378,0-44.139-19.761-44.139-44.138s19.761-44.138,44.138-44.138c0.001,0,0.001-116.371,0.001-116.371H57.948v495h379.104v-40
		H97.948V416.017z"/>
	<path style="fill:#165C92;" d="M291.638,160.509c0,24.376-19.761,44.137-44.137,44.138v15c44.182,0,79.999,35.818,79.999,80
		h-79.999v116.37h189.551V0H247.501v116.371C271.877,116.371,291.638,136.132,291.638,160.509z"/>
	<path style="fill:#96C8EF;" d="M291.638,160.509c0-24.376-19.761-44.137-44.137-44.138c-0.001,0-0.001,88.276-0.001,88.276
		C271.877,204.646,291.638,184.885,291.638,160.509z"/>
	<path style="fill:#96C8EF;" d="M247.501,219.647c-0.001,0-0.001,80-0.001,80h80C327.5,255.464,291.683,219.647,247.501,219.647z"/>
	<path style="fill:#D1E7F8;" d="M203.362,160.509c0,24.377,19.761,44.138,44.138,44.138v-88.276
		C223.123,116.371,203.362,136.132,203.362,160.509z"/>
	<path style="fill:#D1E7F8;" d="M167.5,299.647h80v-80C203.317,219.647,167.5,255.464,167.5,299.647z"/>
</g>
<g>
</g>
<g>
</g>
<g>
</g>
<g>
</g>
<g>
</g>
<g>
</g>
<g>
</g>
<g>
</g>
<g>
</g>
<g>
</g>
<g>
</g>
<g>
</g>
<g>
</g>
<g>
</g>
<g>
</g>
</svg>
