<?xml version="1.0" encoding="iso-8859-1"?>
<!-- Generator: Adobe Illustrator 19.0.0, SVG Export Plug-In . SVG Version: 6.00 Build 0)  -->
<svg version="1.1" id="Layer_1" xmlns="http://www.w3.org/2000/svg" xmlns:xlink="http://www.w3.org/1999/xlink" x="0px" y="0px"
	 viewBox="0 0 487.29 487.29" style="enable-background:new 0 0 487.29 487.29;" xml:space="preserve">
<g>
	<rect x="85.865" y="199.03" style="fill:#1E81CE;" width="78.52" height="198.26"/>
	<rect x="204.385" y="199.03" style="fill:#1E81CE;" width="39.26" height="198.26"/>
	<rect x="243.645" y="199.03" style="fill:#165C92;" width="39.26" height="198.26"/>
	<rect x="322.905" y="199.03" style="fill:#165C92;" width="78.52" height="198.26"/>
	<polygon style="fill:#A7ADF0;" points="401.425,199.03 401.425,397.29 322.905,397.29 322.905,199.03 282.905,199.03 
		282.905,397.29 243.645,397.29 243.645,487.29 462.215,487.29 462.215,397.29 441.425,397.29 441.425,199.03 	"/>
	<rect x="243.645" y="117.06" style="fill:#FF9811;" width="218.57" height="81.97"/>
	<polygon style="fill:#A7ADF0;" points="462.215,117.06 243.645,0 243.645,117.06 	"/>
	<polygon style="fill:#C4C8F5;" points="243.645,397.29 204.385,397.29 204.385,199.03 164.385,199.03 164.385,397.29 
		85.865,397.29 85.865,199.03 45.865,199.03 45.865,397.29 25.075,397.29 25.075,487.29 243.645,487.29 	"/>
	<rect x="25.075" y="117.06" style="fill:#FFB655;" width="218.57" height="81.97"/>
	<polygon style="fill:#C4C8F5;" points="243.645,0 25.075,117.06 243.645,117.06 	"/>
</g>
<g>
</g>
<g>
</g>
<g>
</g>
<g>
</g>
<g>
</g>
<g>
</g>
<g>
</g>
<g>
</g>
<g>
</g>
<g>
</g>
<g>
</g>
<g>
</g>
<g>
</g>
<g>
</g>
<g>
</g>
</svg>
