<?xml version="1.0" encoding="iso-8859-1"?>
<!-- Generator: Adobe Illustrator 19.0.0, SVG Export Plug-In . SVG Version: 6.00 Build 0)  -->
<svg version="1.1" id="Layer_1" xmlns="http://www.w3.org/2000/svg" xmlns:xlink="http://www.w3.org/1999/xlink" x="0px" y="0px"
	 viewBox="0 0 495.001 495.001" style="enable-background:new 0 0 495.001 495.001;" xml:space="preserve">
<g>
	<rect x="323" y="430.209" style="fill:#00CCB3;" width="172" height="64.792"/>
	<rect x="323" y="365.426" style="fill:#00AA95;" width="172" height="64.782"/>
	<rect x="323" y="300.634" style="fill:#00CCB3;" width="172" height="64.792"/>
	<rect x="0" y="430.209" style="fill:#00DDC2;" width="172" height="64.792"/>
	<rect x="0" y="365.426" style="fill:#00CCB3;" width="172" height="64.782"/>
	<rect x="0" y="300.634" style="fill:#00DDC2;" width="172" height="64.792"/>
	<path style="fill:#00EED1;" d="M109.242,300.634H172V0.001h75.5L109.242,0c0,60.326-48.916,109.241-109.241,109.241v82.151
		C60.326,191.393,109.242,240.308,109.242,300.634z"/>
	<path style="fill:#00DDC2;" d="M385.759,0H247.5L323,0.001v300.633h62.759c0-60.326,48.916-109.241,109.241-109.241v-82.151
		C434.675,109.241,385.759,60.326,385.759,0z"/>
	<path style="fill:#00CCB3;" d="M0,191.393v109.241h109.241C109.242,240.308,60.326,191.393,0,191.393z"/>
	<path style="fill:#00CCB3;" d="M109.242,0H0v109.241C60.326,109.241,109.242,60.326,109.242,0z"/>
	<path style="fill:#00AA95;" d="M385.759,0c0,60.326,48.916,109.241,109.241,109.241V0H385.759z"/>
	<path style="fill:#00AA95;" d="M385.759,300.634H495V191.393C434.675,191.393,385.759,240.308,385.759,300.634z"/>
	<rect x="172" y="300.631" style="fill:#44FFE8;" width="151" height="194.37"/>
	<rect x="172" y="0.001" style="fill:#AAFFF5;" width="151" height="300.63"/>
</g>
<g>
</g>
<g>
</g>
<g>
</g>
<g>
</g>
<g>
</g>
<g>
</g>
<g>
</g>
<g>
</g>
<g>
</g>
<g>
</g>
<g>
</g>
<g>
</g>
<g>
</g>
<g>
</g>
<g>
</g>
</svg>
