<?xml version="1.0" encoding="iso-8859-1"?>
<!-- Generator: Adobe Illustrator 19.0.0, SVG Export Plug-In . SVG Version: 6.00 Build 0)  -->
<svg version="1.1" id="Layer_1" xmlns="http://www.w3.org/2000/svg" xmlns:xlink="http://www.w3.org/1999/xlink" x="0px" y="0px"
	 viewBox="0 0 495 495" style="enable-background:new 0 0 495 495;" xml:space="preserve">
<g>
	<rect x="97.948" y="416.017" style="fill:#D1E7F8;" width="319.104" height="38.983"/>
	<path style="fill:#1E81CE;" d="M224.107,167.734c0,8.884,2.532,14.718,8.393,18.653v-36.586
		C227.374,154.096,224.107,160.54,224.107,167.734z"/>
	<path style="fill:#1E81CE;" d="M97.948,416.017h149.553V309.509H232.5v-9.992c-22.159-6.499-38.393-27-38.393-51.234h30
		c0,7.195,3.267,13.639,8.393,17.933v-47.216l-1.096-0.346c-24.052-7.598-37.297-25.682-37.297-50.92
		c0-24.233,16.234-44.734,38.393-51.234v-9.992h15.001V0H57.948v495h379.104v-40H97.948V416.017z"/>
	<path style="fill:#165C92;" d="M270.893,248.283c0-8.885-2.533-14.719-8.394-18.653v36.587
		C267.626,261.922,270.893,255.478,270.893,248.283z"/>
	<path style="fill:#165C92;" d="M262.5,106.509v9.992c22.16,6.499,38.394,27,38.394,51.234h-30c0-7.195-3.267-13.639-8.394-17.934
		v47.216l1.096,0.346c24.052,7.598,37.297,25.682,37.297,50.92c0,24.234-16.234,44.734-38.394,51.234v9.992h-14.999v106.509h189.551
		V0H247.501v106.509H262.5z"/>
	<path style="fill:#D1E7F8;" d="M262.5,299.517c22.16-6.499,38.394-27,38.394-51.234c0-25.239-13.246-43.323-37.297-50.92
		l-1.096-0.346v-47.216c5.126,4.295,8.394,10.739,8.394,17.934h30c0-24.234-16.234-44.734-38.394-51.234v-9.992h-30v9.992
		c-22.159,6.499-38.393,27-38.393,51.234c0,25.239,13.246,43.323,37.297,50.92l1.096,0.346v47.216
		c-5.126-4.295-8.393-10.739-8.393-17.933h-30c0,24.233,16.234,44.734,38.393,51.234v9.992h30V299.517z M262.5,229.63
		c5.861,3.934,8.394,9.768,8.394,18.653c0,7.195-3.267,13.639-8.394,17.934V229.63z M232.5,186.387
		c-5.861-3.934-8.393-9.768-8.393-18.653c0-7.195,3.267-13.639,8.393-17.933V186.387z"/>
</g>
<g>
</g>
<g>
</g>
<g>
</g>
<g>
</g>
<g>
</g>
<g>
</g>
<g>
</g>
<g>
</g>
<g>
</g>
<g>
</g>
<g>
</g>
<g>
</g>
<g>
</g>
<g>
</g>
<g>
</g>
</svg>
