<?xml version="1.0" encoding="iso-8859-1"?>
<!-- Generator: Adobe Illustrator 19.0.0, SVG Export Plug-In . SVG Version: 6.00 Build 0)  -->
<svg version="1.1" id="Layer_1" xmlns="http://www.w3.org/2000/svg" xmlns:xlink="http://www.w3.org/1999/xlink" x="0px" y="0px"
	 viewBox="0 0 495 495" style="enable-background:new 0 0 495 495;" xml:space="preserve">
<g>
	<polygon style="fill:#FFDA44;" points="210.958,71.035 284.042,71.035 284.042,90.965 324.042,90.965 324.042,31.035 
		170.958,31.035 170.958,90.965 210.958,90.965 	"/>
	<polygon style="fill:#957856;" points="192.5,230.215 247.5,230.215 247.5,90.965 0,90.965 0,230.215 	"/>
	<polygon style="fill:#806749;" points="247.5,90.965 247.5,230.215 302.5,230.215 495,230.215 495,90.965 	"/>
	<polygon style="fill:#806749;" points="192.5,309.965 192.5,230.215 0,230.215 0,463.965 247.5,463.965 247.5,309.965 	"/>
	<polygon style="fill:#957856;" points="302.5,309.965 247.5,309.965 247.5,463.965 495,463.965 495,230.215 302.5,230.215 	"/>
	<rect x="192.5" y="230.215" style="fill:#FFE477;" width="110" height="79.75"/>
</g>
<g>
</g>
<g>
</g>
<g>
</g>
<g>
</g>
<g>
</g>
<g>
</g>
<g>
</g>
<g>
</g>
<g>
</g>
<g>
</g>
<g>
</g>
<g>
</g>
<g>
</g>
<g>
</g>
<g>
</g>
</svg>
