<?xml version="1.0" encoding="iso-8859-1"?>
<!-- Generator: Adobe Illustrator 19.0.0, SVG Export Plug-In . SVG Version: 6.00 Build 0)  -->
<svg version="1.1" id="Layer_1" xmlns="http://www.w3.org/2000/svg" xmlns:xlink="http://www.w3.org/1999/xlink" x="0px" y="0px"
	 viewBox="0 0 495 495" style="enable-background:new 0 0 495 495;" xml:space="preserve">
<g>
	<path style="fill:#1E81CE;" d="M357.126,444.649c0,27.764,22.587,50.351,50.351,50.351V394.299
		C379.713,394.299,357.126,416.886,357.126,444.649z"/>
	<path style="fill:#165C92;" d="M407.477,394.299V495c27.764,0,50.351-22.587,50.351-50.351S435.24,394.299,407.477,394.299z"/>
	<path style="fill:#1E81CE;" d="M65.984,444.649c0,27.764,22.587,50.351,50.35,50.351V394.299
		C88.571,394.299,65.984,416.886,65.984,444.649z"/>
	<path style="fill:#165C92;" d="M116.334,394.299V495c27.763,0,50.35-22.587,50.35-50.351S144.097,394.299,116.334,394.299z"/>
	<rect x="281.9" y="246.26" style="fill:#FF6243;" width="193.1" height="88.126"/>
	<rect x="281.9" y="158.13" style="fill:#FF5023;" width="193.1" height="88.13"/>
	<rect x="281.9" y="70" style="fill:#FF6243;" width="193.1" height="88.13"/>
	<rect x="88.81" y="246.26" style="fill:#FF7956;" width="193.09" height="88.126"/>
	<rect x="88.81" y="158.13" style="fill:#FF6243;" width="193.09" height="88.13"/>
	<rect x="88.81" y="70" style="fill:#FF7956;" width="193.09" height="88.13"/>
	<polygon style="fill:#A7ADF0;" points="68.811,334.386 68.811,0 0,0 0,40 28.811,40 28.811,374.386 495,374.386 495,334.386 	"/>
</g>
<g>
</g>
<g>
</g>
<g>
</g>
<g>
</g>
<g>
</g>
<g>
</g>
<g>
</g>
<g>
</g>
<g>
</g>
<g>
</g>
<g>
</g>
<g>
</g>
<g>
</g>
<g>
</g>
<g>
</g>
</svg>
