<?xml version="1.0" encoding="iso-8859-1"?>
<!-- Generator: Adobe Illustrator 19.0.0, SVG Export Plug-In . SVG Version: 6.00 Build 0)  -->
<svg version="1.1" id="Layer_1" xmlns="http://www.w3.org/2000/svg" xmlns:xlink="http://www.w3.org/1999/xlink" x="0px" y="0px"
	 viewBox="0 0 495 495" style="enable-background:new 0 0 495 495;" xml:space="preserve">
<g>
	<path style="fill:#FFFFFF;" d="M247.5,212.499c-14.001,11.358-26.197,25.424-35.749,41.971
		c-9.552,16.547-15.644,34.138-18.473,51.948c16.841,6.451,35.118,9.976,54.221,9.976s37.38-3.525,54.221-9.976
		c-2.829-17.809-8.921-35.4-18.473-51.948S261.501,223.857,247.5,212.499z"/>
	<path style="fill:#005ECE;" d="M247.5,212.499c14.001,11.358,26.197,25.424,35.749,41.971s15.644,34.138,18.473,51.948
		c49.87-19.082,87.098-63.697,95.681-117.853C346.206,168.917,288.949,178.85,247.5,212.499z"/>
	<path style="fill:#46F8FF;" d="M193.279,306.418c2.828-17.809,8.921-35.4,18.473-51.948c9.552-16.547,21.747-30.614,35.749-41.971
		c-41.449-33.649-98.706-43.582-149.903-23.934C106.181,242.721,143.409,287.336,193.279,306.418z"/>
	<path style="fill:#F9B949;" d="M301.721,306.418c-16.841,6.451-35.118,9.976-54.221,9.976s-37.38-3.525-54.221-9.976
		c-8.42,52.72,11.608,107.268,54.221,141.776C290.113,413.685,310.142,359.138,301.721,306.418z"/>
	<path style="fill:#BDDBFF;" d="M419.084,198.911c-7.061-4.08-14.306-7.517-21.682-10.346
		c-8.584,54.156-45.812,98.771-95.681,117.853c8.42,52.72-11.608,107.268-54.221,141.776c6.136,4.983,12.739,9.541,19.8,13.61
		c72.596,41.917,165.427,17.037,207.344-55.559C516.55,333.648,491.68,240.828,419.084,198.911z"/>
	<path style="fill:#FFDA44;" d="M193.279,306.418c-49.87-19.082-87.098-63.697-95.681-117.853
		c-7.376,2.829-14.621,6.266-21.682,10.346C3.32,240.828-21.55,333.648,20.356,406.244C62.273,478.84,155.104,503.72,227.7,461.803
		c7.06-4.069,13.664-8.627,19.8-13.61C204.887,413.685,184.858,359.138,193.279,306.418z"/>
	<path style="fill:#2488FF;" d="M247.5,212.499c41.449-33.649,98.706-43.582,149.903-23.934c1.24-7.8,1.882-15.807,1.882-23.956
		c0-83.823-67.961-151.774-151.785-151.774c-83.823,0-151.785,67.951-151.785,151.774c0,8.148,0.642,16.155,1.882,23.956
		C148.794,168.917,206.051,178.85,247.5,212.499z"/>
</g>
<g>
</g>
<g>
</g>
<g>
</g>
<g>
</g>
<g>
</g>
<g>
</g>
<g>
</g>
<g>
</g>
<g>
</g>
<g>
</g>
<g>
</g>
<g>
</g>
<g>
</g>
<g>
</g>
<g>
</g>
</svg>
