<?xml version="1.0" encoding="iso-8859-1"?>
<!-- Generator: Adobe Illustrator 19.0.0, SVG Export Plug-In . SVG Version: 6.00 Build 0)  -->
<svg version="1.1" id="Layer_1" xmlns="http://www.w3.org/2000/svg" xmlns:xlink="http://www.w3.org/1999/xlink" x="0px" y="0px"
	 viewBox="0 0 485.902 485.902" style="enable-background:new 0 0 485.902 485.902;" xml:space="preserve">
<g>
	<path style="fill:#1E81CE;" d="M178.432,207.266H38.854v198.636h106.918C154.867,349.504,167.195,273.799,178.432,207.266z"/>
	<path style="fill:#1E81CE;" d="M219,207.266c-11.099,65.527-23.427,141.122-32.712,198.636h56.663V207.266H219z"/>
	<path style="fill:#165C92;" d="M447.049,405.902V207.266H307.471c11.163,66.066,23.389,141.046,32.687,198.636H447.049z"/>
	<path style="fill:#165C92;" d="M266.903,207.266h-23.952v198.636h56.689C290.171,347.308,277.94,272.406,266.903,207.266z"/>
	<path style="fill:#165C92;" d="M22.854,405.902v80h110.098c1.751-11.013,6.507-40.855,12.819-80H22.854z"/>
	<path style="fill:#165C92;" d="M173.455,485.902h69.496v-80h-56.663C180.456,442.036,175.824,471.031,173.455,485.902z"/>
	<path style="fill:#003F8A;" d="M340.158,405.902c5.672,35.132,10.254,63.792,12.837,80h110.053v-80H340.158z"/>
	<path style="fill:#003F8A;" d="M242.951,405.902v80h69.539c-2.863-17.937-7.399-46.268-12.85-80H242.951z"/>
	<path style="fill:#C4C8F5;" d="M307.471,207.266c-1.754-10.38-3.482-20.544-5.168-30.382c-4.126-24.083,6.984-34.842,26.977-51.783
		c15.333-12.992,32.711-27.719,32.711-52.294C361.992,27.233,301.466,0,242.951,0S123.91,27.233,123.91,72.807
		c0,24.576,17.378,39.302,32.711,52.294c19.993,16.942,31.104,27.7,26.977,51.783c-1.684,9.83-3.413,19.997-5.167,30.382
		c-11.237,66.533-23.565,142.237-32.661,198.636c-6.313,39.145-11.068,68.987-12.819,80h40.504c2.369-14.871,7-43.867,12.833-80
		c9.284-57.514,21.613-133.109,32.712-198.636c1.362-8.042,2.707-15.939,4.024-23.626c8.185-47.765-21.139-72.614-40.543-89.056
		c-11.555-9.791-18.571-16.143-18.571-21.777C163.91,59.596,197.1,40,242.951,40s79.041,19.596,79.041,32.807
		c0,5.635-7.016,11.986-18.571,21.777c-19.404,16.443-48.728,41.291-40.543,89.056c1.318,7.692,2.663,15.587,4.025,23.626
		c11.037,65.14,23.268,140.042,32.737,198.636c5.451,33.732,9.987,62.063,12.85,80h40.506c-2.584-16.208-7.166-44.868-12.837-80
		C330.861,348.312,318.634,273.332,307.471,207.266z"/>
</g>
<g>
</g>
<g>
</g>
<g>
</g>
<g>
</g>
<g>
</g>
<g>
</g>
<g>
</g>
<g>
</g>
<g>
</g>
<g>
</g>
<g>
</g>
<g>
</g>
<g>
</g>
<g>
</g>
<g>
</g>
</svg>
