<?xml version="1.0" encoding="iso-8859-1"?>
<!-- Generator: Adobe Illustrator 19.0.0, SVG Export Plug-In . SVG Version: 6.00 Build 0)  -->
<svg version="1.1" id="Layer_1" xmlns="http://www.w3.org/2000/svg" xmlns:xlink="http://www.w3.org/1999/xlink" x="0px" y="0px"
	 viewBox="0 0 495 495" style="enable-background:new 0 0 495 495;" xml:space="preserve">
<g>
	<polygon style="fill:#46F8FF;" points="102.5,375 102.5,267.5 227.5,267.5 227.5,375 247.5,375 267.5,375 267.5,267.5 392.5,267.5 
		392.5,375 412.5,375 432.5,375 432.5,227.5 267.5,227.5 267.5,120 247.5,120 227.5,120 227.5,227.5 62.5,227.5 62.5,375 82.5,375 	
		"/>
	<polygon style="fill:#FFDA44;" points="247.5,0 152.5,0 152.5,120 227.5,120 247.5,120 	"/>
	<polygon style="fill:#FFCD00;" points="247.5,120 267.5,120 342.5,120 342.5,0 247.5,0 	"/>
	<polygon style="fill:#FFDA44;" points="412.5,375 392.5,375 330,375 330,495 412.5,495 	"/>
	<polygon style="fill:#FFCD00;" points="432.5,375 412.5,375 412.5,495 495,495 495,375 	"/>
	<polygon style="fill:#BDDBFF;" points="247.5,375 227.5,375 165,375 165,495 247.5,495 	"/>
	<polygon style="fill:#9BC9FF;" points="267.5,375 247.5,375 247.5,495 330,495 330,375 	"/>
	<polygon style="fill:#FFDA44;" points="82.5,375 62.5,375 0,375 0,495 82.5,495 	"/>
	<polygon style="fill:#FFCD00;" points="102.5,375 82.5,375 82.5,495 165,495 165,375 	"/>
</g>
<g>
</g>
<g>
</g>
<g>
</g>
<g>
</g>
<g>
</g>
<g>
</g>
<g>
</g>
<g>
</g>
<g>
</g>
<g>
</g>
<g>
</g>
<g>
</g>
<g>
</g>
<g>
</g>
<g>
</g>
</svg>
