<?xml version="1.0" encoding="iso-8859-1"?>
<!-- Generator: Adobe Illustrator 19.0.0, SVG Export Plug-In . SVG Version: 6.00 Build 0)  -->
<svg version="1.1" id="Layer_1" xmlns="http://www.w3.org/2000/svg" xmlns:xlink="http://www.w3.org/1999/xlink" x="0px" y="0px"
	 viewBox="0 0 494.689 494.689" style="enable-background:new 0 0 494.689 494.689;" xml:space="preserve">
<g>
	<polygon style="fill:#C0AB91;" points="124.492,237.775 144.492,494.689 247.344,494.689 247.344,237.775 	"/>
	<polygon style="fill:#B39A7C;" points="247.344,494.689 350.197,494.689 370.197,237.775 247.344,237.775 	"/>
	<path style="fill:#6E76E5;" d="M247.344,109.803V0c-30.272,0-54.901,24.629-54.901,54.902S217.072,109.803,247.344,109.803z"/>
	<path style="fill:#515BE0;" d="M302.246,54.902C302.246,24.629,277.617,0,247.344,0v109.803
		C277.617,109.803,302.246,85.174,302.246,54.902z"/>
	<path style="fill:#6E76E5;" d="M247.344,127.972c-42.645,0-78.44,29.88-87.555,69.803H334.9
		C325.784,157.852,289.99,127.972,247.344,127.972z"/>
	<rect x="104.549" y="197.775" style="fill:#957856;" width="285.592" height="40"/>
</g>
<g>
</g>
<g>
</g>
<g>
</g>
<g>
</g>
<g>
</g>
<g>
</g>
<g>
</g>
<g>
</g>
<g>
</g>
<g>
</g>
<g>
</g>
<g>
</g>
<g>
</g>
<g>
</g>
<g>
</g>
</svg>
