<?xml version="1.0" encoding="iso-8859-1"?>
<!-- Generator: Adobe Illustrator 19.0.0, SVG Export Plug-In . SVG Version: 6.00 Build 0)  -->
<svg version="1.1" id="Layer_1" xmlns="http://www.w3.org/2000/svg" xmlns:xlink="http://www.w3.org/1999/xlink" x="0px" y="0px"
	 viewBox="0 0 495 495" style="enable-background:new 0 0 495 495;" xml:space="preserve">
<g>
	<path style="fill:#6E76E5;" d="M145,243.793V65.862c-49.056,0-88.965,39.91-88.965,88.966S95.944,243.793,145,243.793z"/>
	<path style="fill:#00EED1;" d="M350,243.793V65.862c-49.056,0-88.966,39.91-88.966,88.966S300.944,243.793,350,243.793z"/>
	<path style="fill:#515BE0;" d="M233.965,154.828c0-49.056-39.91-88.966-88.965-88.966v177.931
		C194.056,243.793,233.965,203.884,233.965,154.828z"/>
	<path style="fill:#00CCB3;" d="M438.966,154.828c0-49.056-39.91-88.966-88.966-88.966v177.931
		C399.056,243.793,438.966,203.884,438.966,154.828z"/>
	<path style="fill:#6E76E5;" d="M330,369.138V265.543c-31.255,4.363-60.256,18.833-82.536,41.094
		C273.73,332.894,290,369.152,290,409.138v20h60v-60H330z"/>
	<path style="fill:#515BE0;" d="M370,265.524v103.614h-20v60h145v-20C495,335.97,440.522,275.297,370,265.524z"/>
	<path style="fill:#00EED1;" d="M125,369.138V265.524C54.478,275.297,0,335.97,0,409.138v20h145v-60H125z"/>
	<path style="fill:#00CCB3;" d="M247.464,306.637c-21.797-21.789-50.482-36.681-82.464-41.113v103.614h-20v60h145v-20
		C290,369.152,273.73,332.894,247.464,306.637z"/>
	<path style="fill:#424EDE;" d="M165,369.138V265.524c-6.54-0.906-13.215-1.386-20-1.386s-13.46,0.479-20,1.386v103.614H165z"/>
	<path style="fill:#00EED1;" d="M370,369.138V265.524c-6.54-0.906-13.215-1.386-20-1.386c-6.74,0-13.418,0.486-20,1.405v103.595H370
		z"/>
</g>
<g>
</g>
<g>
</g>
<g>
</g>
<g>
</g>
<g>
</g>
<g>
</g>
<g>
</g>
<g>
</g>
<g>
</g>
<g>
</g>
<g>
</g>
<g>
</g>
<g>
</g>
<g>
</g>
<g>
</g>
</svg>
