<?xml version="1.0" encoding="iso-8859-1"?>
<!-- Generator: Adobe Illustrator 19.0.0, SVG Export Plug-In . SVG Version: 6.00 Build 0)  -->
<svg version="1.1" id="Layer_1" xmlns="http://www.w3.org/2000/svg" xmlns:xlink="http://www.w3.org/1999/xlink" x="0px" y="0px"
	 viewBox="0 0 491.568 491.568" style="enable-background:new 0 0 491.568 491.568;" xml:space="preserve">
<g>
	<polygon style="fill:#00EED1;" points="389.142,124.142 417.426,152.426 491.568,78.285 417.426,4.142 389.142,32.426 415,58.284 
		8.284,58.284 8.284,98.284 415,98.284 	"/>
	<polygon style="fill:#00DDC2;" points="102.426,367.426 74.142,339.142 0,413.284 74.142,487.426 102.426,459.142 76.568,433.284 
		483.284,433.284 483.284,393.284 76.568,393.284 	"/>
	<path style="fill:#00AA95;" d="M273.837,200.622h30c0-26.824-18.291-49.448-43.053-56.078v-12.579h-30v12.579
		c-24.762,6.63-43.053,29.253-43.053,56.078c0,27.442,14.402,47.104,40.552,55.365l2.501,0.79v57.858
		c-7.838-4.981-13.053-13.734-13.053-23.688h-30c0,26.824,18.291,49.448,43.053,56.078v12.579h30v-12.579
		c24.762-6.63,43.053-29.253,43.053-56.078c0-27.442-14.402-47.104-40.552-55.365l-2.501-0.79v-57.858
		C268.622,181.914,273.837,190.667,273.837,200.622z M230.784,224.717c-9.068-4.708-13.053-12.223-13.053-24.096
		c0-9.954,5.216-18.708,13.053-23.688V224.717z M273.837,290.947c0,9.954-5.216,18.708-13.053,23.688v-47.784
		C269.852,271.559,273.837,279.074,273.837,290.947z"/>
</g>
<g>
</g>
<g>
</g>
<g>
</g>
<g>
</g>
<g>
</g>
<g>
</g>
<g>
</g>
<g>
</g>
<g>
</g>
<g>
</g>
<g>
</g>
<g>
</g>
<g>
</g>
<g>
</g>
<g>
</g>
</svg>
