<?xml version="1.0" encoding="iso-8859-1"?>
<!-- Generator: Adobe Illustrator 19.0.0, SVG Export Plug-In . SVG Version: 6.00 Build 0)  -->
<svg version="1.1" id="Layer_1" xmlns="http://www.w3.org/2000/svg" xmlns:xlink="http://www.w3.org/1999/xlink" x="0px" y="0px"
	 viewBox="0 0 495 495" style="enable-background:new 0 0 495 495;" xml:space="preserve">
<g>
	<path style="fill:#00E7F0;" d="M70.714,375.21c0,0.011,0,87.153,0,87.153h70.714V335.577
		C120.519,352.592,97.336,366.354,70.714,375.21z"/>
	<path style="fill:#00E7F0;" d="M212.143,258.749v203.614h70.714V160.097C258.738,192.191,236.262,226.656,212.143,258.749z"/>
	<path style="fill:#00E7F0;" d="M353.561,83.269c0.011,0.011,0.011,379.094,0.011,379.094h70.714V43.636
		C397.665,52.492,374.47,66.254,353.561,83.269z"/>
	<path style="fill:#46F8FF;" d="M424.286,43.636v418.726H495V32.637C468.857,32.637,445.489,36.576,424.286,43.636z"/>
	<path style="fill:#46F8FF;" d="M353.561,83.269c-26.436,21.519-49.228,48.238-70.703,76.828v302.265h70.714
		C353.571,462.363,353.571,83.28,353.561,83.269z"/>
	<path style="fill:#46F8FF;" d="M141.429,335.577v126.785h70.714V258.749C190.667,287.339,167.865,314.058,141.429,335.577z"/>
	<path style="fill:#46F8FF;" d="M0,386.209v76.154h70.714v-87.142C49.511,382.271,26.143,386.209,0,386.209z"/>
</g>
<g>
</g>
<g>
</g>
<g>
</g>
<g>
</g>
<g>
</g>
<g>
</g>
<g>
</g>
<g>
</g>
<g>
</g>
<g>
</g>
<g>
</g>
<g>
</g>
<g>
</g>
<g>
</g>
<g>
</g>
</svg>
