<?xml version="1.0" encoding="iso-8859-1"?>
<!-- Generator: Adobe Illustrator 19.0.0, SVG Export Plug-In . SVG Version: 6.00 Build 0)  -->
<svg version="1.1" id="Layer_1" xmlns="http://www.w3.org/2000/svg" xmlns:xlink="http://www.w3.org/1999/xlink" x="0px" y="0px"
	 viewBox="0 0 487 487" style="enable-background:new 0 0 487 487;" xml:space="preserve">
<g>
	<path style="fill:#00CCB3;" d="M468.433,224.933H312.019v-20h125.613c10.238,0,18.567-8.329,18.567-18.567
		s-8.329-18.567-18.567-18.567H231.844c-4.714,48.312-43.208,86.871-91.491,91.685v92.587c15.077,6.711,58.441,24.267,99.419,24.267
		h164.14c10.238,0,18.567-8.329,18.567-18.567s-8.329-18.567-18.567-18.567h-91.893v-20h125.613
		c10.238,0,18.567-8.329,18.567-18.567s-8.329-18.567-18.567-18.567H312.019v-20h156.414c10.238,0,18.567-8.329,18.567-18.567
		S478.671,224.933,468.433,224.933z"/>
	<path style="fill:#00EED1;" d="M140.353,259.483c48.283-4.814,86.778-43.374,91.491-91.685c0.321-3.291,0.488-6.626,0.488-10v-10
		h81.521c10.238,0,18.567-8.329,18.567-18.567s-8.329-18.567-18.567-18.567h-74.081c-40.976,0-84.339,17.555-99.419,24.267V259.483z
		"/>
	<rect x="62.164" y="104.603" style="fill:#FFE477;" width="78.189" height="138.897"/>
	<rect x="62.164" y="243.5" style="fill:#FFDA44;" width="78.189" height="138.897"/>
	<rect y="79.782" style="fill:#515BE0;" width="62.164" height="327.435"/>
</g>
<g>
</g>
<g>
</g>
<g>
</g>
<g>
</g>
<g>
</g>
<g>
</g>
<g>
</g>
<g>
</g>
<g>
</g>
<g>
</g>
<g>
</g>
<g>
</g>
<g>
</g>
<g>
</g>
<g>
</g>
</svg>
