<?xml version="1.0" encoding="iso-8859-1"?>
<!-- Generator: Adobe Illustrator 19.0.0, SVG Export Plug-In . SVG Version: 6.00 Build 0)  -->
<svg version="1.1" id="Layer_1" xmlns="http://www.w3.org/2000/svg" xmlns:xlink="http://www.w3.org/1999/xlink" x="0px" y="0px"
	 viewBox="0 0 495 495" style="enable-background:new 0 0 495 495;" xml:space="preserve">
<g>
	<path style="fill:#FFE477;" d="M133.042,431.388v-40H247.5v-25H133.042v-40H247.5v-25h-89.803v-20
		c0-49.518,40.286-89.803,89.803-89.803v-18.169c-30.273,0-54.901-24.629-54.901-54.902s24.628-54.902,54.901-54.902V0H63.042v495
		H247.5v-63.612H133.042z"/>
	<path style="fill:#FFDA44;" d="M247.5,0v63.612c30.273,0,54.901,24.629,54.901,54.902s-24.628,54.902-54.901,54.902v18.169
		c49.518,0,89.803,40.286,89.803,89.803v20H247.5v25h114.458v40H247.5V495h184.458V0H247.5z"/>
	<path style="fill:#957856;" d="M192.599,118.514c0,30.273,24.628,54.902,54.901,54.902V63.612
		C217.227,63.612,192.599,88.241,192.599,118.514z"/>
	<path style="fill:#806749;" d="M302.401,118.514c0-30.273-24.628-54.902-54.901-54.902v109.803
		C277.773,173.416,302.401,148.787,302.401,118.514z"/>
	<path style="fill:#957856;" d="M157.697,281.388v20h179.606v-20c0-49.518-40.285-89.803-89.803-89.803
		S157.697,231.87,157.697,281.388z"/>
	<rect x="133.042" y="391.388" style="fill:#806749;" width="114.458" height="40"/>
	<rect x="133.042" y="326.388" style="fill:#806749;" width="228.916" height="40"/>
</g>
<g>
</g>
<g>
</g>
<g>
</g>
<g>
</g>
<g>
</g>
<g>
</g>
<g>
</g>
<g>
</g>
<g>
</g>
<g>
</g>
<g>
</g>
<g>
</g>
<g>
</g>
<g>
</g>
<g>
</g>
</svg>
