<?xml version="1.0" encoding="iso-8859-1"?>
<!-- Generator: Adobe Illustrator 19.0.0, SVG Export Plug-In . SVG Version: 6.00 Build 0)  -->
<svg version="1.1" id="Layer_1" xmlns="http://www.w3.org/2000/svg" xmlns:xlink="http://www.w3.org/1999/xlink" x="0px" y="0px"
	 viewBox="0 0 499.698 499.698" style="enable-background:new 0 0 499.698 499.698;" xml:space="preserve">
<g>
	<path style="fill:#957856;" d="M160.046,365.712v-20c0-49.518,40.285-89.803,89.803-89.803V237.74
		c-30.273,0-54.901-24.628-54.901-54.901s24.628-54.901,54.901-54.901V0l-14.402,14.948
		C188.739,63.425,128.044,90.123,64.542,90.125c-12.129,0-24.387-1.009-36.432-3L3.901,83.124l0.963,24.519
		c2.861,72.847,16.971,138.61,41.938,195.463c20.175,45.941,47.421,86.163,80.983,119.547
		c57.636,57.333,113.967,74.626,116.337,75.334l5.726,1.711V365.712H160.046z"/>
	<path style="fill:#806749;" d="M471.587,87.125c-12.041,1.991-24.298,3-36.433,3c-63.497,0.002-124.192-26.697-170.903-75.178
		L249.849,0v127.937c30.273,0,54.901,24.628,54.901,54.901s-24.628,54.901-54.901,54.901v18.169
		c49.518,0,89.803,40.285,89.803,89.803v20h-89.803v133.986l5.726-1.711c2.37-0.708,58.701-18.001,116.337-75.334
		c33.562-33.385,60.809-73.606,80.983-119.547c24.967-56.853,39.077-122.616,41.938-195.463l0.963-24.519L471.587,87.125z"/>
	<path style="fill:#FFE477;" d="M194.948,182.838c0,30.273,24.628,54.901,54.901,54.901V127.937
		C219.576,127.937,194.948,152.565,194.948,182.838z"/>
	<path style="fill:#FFDA44;" d="M304.75,182.838c0-30.273-24.628-54.901-54.901-54.901V237.74
		C280.122,237.74,304.75,213.111,304.75,182.838z"/>
	<path style="fill:#FFE477;" d="M160.046,345.712v20h179.605v-20c0-49.518-40.285-89.803-89.803-89.803
		S160.046,296.194,160.046,345.712z"/>
</g>
<g>
</g>
<g>
</g>
<g>
</g>
<g>
</g>
<g>
</g>
<g>
</g>
<g>
</g>
<g>
</g>
<g>
</g>
<g>
</g>
<g>
</g>
<g>
</g>
<g>
</g>
<g>
</g>
<g>
</g>
</svg>
