<?xml version="1.0" encoding="iso-8859-1"?>
<!-- Generator: Adobe Illustrator 19.0.0, SVG Export Plug-In . SVG Version: 6.00 Build 0)  -->
<svg version="1.1" id="Layer_1" xmlns="http://www.w3.org/2000/svg" xmlns:xlink="http://www.w3.org/1999/xlink" x="0px" y="0px"
	 viewBox="0 0 433.875 433.875" style="enable-background:new 0 0 433.875 433.875;" xml:space="preserve">
<g>
	<path style="fill:#00EED1;" d="M53.577,284.604c-33.258-80.292-2.76-171.358,68.054-216.62l0,51.983h40l0-104.853l-104.853,0v40
		l15.707,0c-24.058,21.442-43.167,48.2-55.863,78.851c-22.163,53.506-22.163,112.44,0,165.947
		c14.501,35.008,37.946,65.673,67.801,88.681c28.94,22.301,63.328,37.052,99.447,42.657l6.134-39.527
		C128.402,382.163,77.401,342.118,53.577,284.604z"/>
	<path style="fill:#00DDC2;" d="M417.253,299.911c22.163-53.506,22.163-112.441,0-165.947
		c-14.501-35.008-37.946-65.673-67.801-88.68c-28.94-22.302-63.329-37.053-99.447-42.658l-6.134,39.527
		c61.603,9.559,112.604,49.604,136.427,107.118c18.074,43.635,18.074,91.697,0,135.332c-14.05,33.919-37.717,62.002-68.054,81.319
		l0-52.013h-40l0,104.853l104.853,0v-40l-15.707,0C385.448,357.321,404.557,330.563,417.253,299.911z"/>
	<path style="fill:#00AA95;" d="M234.439,206.735l-2.501-0.79v-57.858c7.838,4.981,13.053,13.734,13.053,23.688h30
		c0-26.824-18.291-49.448-43.053-56.078v-12.579h-30v12.579c-24.762,6.63-43.053,29.253-43.053,56.078
		c0,27.442,14.402,47.104,40.552,55.365l2.501,0.79v57.858c-7.838-4.981-13.053-13.734-13.053-23.688h-30
		c0,26.824,18.291,49.448,43.053,56.078v12.579h30v-12.579c24.762-6.63,43.053-29.253,43.053-56.078
		C274.991,234.658,260.589,214.996,234.439,206.735z M201.938,195.871c-9.068-4.708-13.053-12.223-13.053-24.096
		c0-9.954,5.216-18.708,13.053-23.688V195.871z M231.938,285.789v-47.784c9.068,4.708,13.053,12.223,13.053,24.096
		C244.991,272.055,239.775,280.808,231.938,285.789z"/>
</g>
<g>
</g>
<g>
</g>
<g>
</g>
<g>
</g>
<g>
</g>
<g>
</g>
<g>
</g>
<g>
</g>
<g>
</g>
<g>
</g>
<g>
</g>
<g>
</g>
<g>
</g>
<g>
</g>
<g>
</g>
</svg>
