<?xml version="1.0" encoding="iso-8859-1"?>
<!-- Generator: Adobe Illustrator 19.0.0, SVG Export Plug-In . SVG Version: 6.00 Build 0)  -->
<svg version="1.1" id="Layer_1" xmlns="http://www.w3.org/2000/svg" xmlns:xlink="http://www.w3.org/1999/xlink" x="0px" y="0px"
	 viewBox="0 0 495 495" style="enable-background:new 0 0 495 495;" xml:space="preserve">
<g>
	<path style="fill:#FFE477;" d="M184.911,187.286H247.5V0C154.285,0,78.448,75.837,78.448,169.052
		c0,53.983,25.953,104.48,68.842,136.12h53.621L184.911,187.286z"/>
	<polygon style="fill:#FFE477;" points="230.706,227.286 241.277,305.173 247.5,305.173 247.5,227.286 	"/>
	<polygon style="fill:#FFDA44;" points="247.5,227.286 247.5,305.173 252.837,305.173 263.408,227.286 	"/>
	<path style="fill:#FFDA44;" d="M416.552,169.052C416.552,75.837,340.715,0,247.5,0v187.286h61.703l-16,117.887h54.507
		C390.599,273.532,416.552,223.036,416.552,169.052z"/>
	<polygon style="fill:#6E76E5;" points="200.911,305.173 241.277,305.173 230.706,227.286 263.408,227.286 252.837,305.173 
		293.204,305.173 309.203,187.286 184.911,187.286 	"/>
	<path style="fill:#00CCB3;" d="M247.5,495c55.273,0,100.242-44.968,100.242-100.242H147.258C147.258,450.032,192.227,495,247.5,495
		z"/>
	<rect x="147.258" y="305.173" style="fill:#00EED1;" width="200.484" height="89.585"/>
</g>
<g>
</g>
<g>
</g>
<g>
</g>
<g>
</g>
<g>
</g>
<g>
</g>
<g>
</g>
<g>
</g>
<g>
</g>
<g>
</g>
<g>
</g>
<g>
</g>
<g>
</g>
<g>
</g>
<g>
</g>
</svg>
