<?xml version="1.0" encoding="iso-8859-1"?>
<!-- Generator: Adobe Illustrator 19.0.0, SVG Export Plug-In . SVG Version: 6.00 Build 0)  -->
<svg version="1.1" id="Layer_1" xmlns="http://www.w3.org/2000/svg" xmlns:xlink="http://www.w3.org/1999/xlink" x="0px" y="0px"
	 viewBox="0 0 495 495" style="enable-background:new 0 0 495 495;" xml:space="preserve">
<g>
	<polygon style="fill:#44FFE8;" points="247.5,50.288 247.5,261.448 346.045,162.904 410.091,98.858 495,183.767 495,50.288 	"/>
	<polygon style="fill:#44FFE8;" points="283.479,395.288 495,395.288 495,183.767 430.954,247.813 	"/>
	<path style="fill:#AAFFF5;" d="M247.5,261.448V50.288H0v345h163.36l20.064-69.764L247.5,261.448z M141.25,212.585
		c26.151,8.261,40.553,27.923,40.553,55.365c0,26.824-18.291,49.448-43.053,56.078v12.579h-30v-12.579
		c-24.762-6.63-43.054-29.253-43.054-56.078h30c0,9.954,5.216,18.708,13.054,23.688v-57.858l-2.501-0.79
		c-26.151-8.261-40.553-27.923-40.553-55.365c0-26.824,18.292-49.448,43.054-56.078v-12.579h30v12.579
		c24.762,6.63,43.053,29.253,43.053,56.078h-30c0-9.954-5.215-18.708-13.053-23.688v57.858L141.25,212.585z"/>
	<path style="fill:#AAFFF5;" d="M138.75,291.639c7.837-4.981,13.053-13.734,13.053-23.688c0-11.872-3.985-19.387-13.053-24.095
		V291.639z"/>
	<path style="fill:#AAFFF5;" d="M95.697,177.625c0,11.873,3.985,19.388,13.054,24.096v-47.784
		C100.913,158.918,95.697,167.671,95.697,177.625z"/>
	<polygon style="fill:#00AA95;" points="388.499,205.359 346.045,162.904 183.424,325.524 268.333,410.434 225.879,367.979 	"/>
	<polygon style="fill:#008877;" points="388.499,205.359 225.879,367.979 268.333,410.434 283.479,395.288 430.954,247.813 	"/>
	<polygon style="fill:#00DDC2;" points="149.146,444.712 268.333,410.434 183.424,325.524 	"/>
	<polygon style="fill:#008877;" points="346.045,162.904 388.499,205.359 452.545,141.313 495,183.767 410.091,98.858 	"/>
	
		<rect x="411.73" y="149.275" transform="matrix(-0.7071 -0.7071 0.7071 -0.7071 616.537 644.5037)" style="fill:#00665A;" width="60.04" height="90.575"/>
	<path style="fill:#00AA95;" d="M151.803,177.625h30c0-26.824-18.291-49.448-43.053-56.078v-12.579h-30v12.579
		c-24.762,6.63-43.054,29.253-43.054,56.078c0,27.442,14.401,47.104,40.553,55.365l2.501,0.79v57.858
		c-7.838-4.98-13.054-13.734-13.054-23.688h-30c0,26.824,18.292,49.448,43.054,56.078v12.579h30v-12.579
		c24.762-6.63,43.053-29.253,43.053-56.078c0-27.442-14.401-47.104-40.553-55.365l-2.5-0.79v-57.858
		C146.588,158.918,151.803,167.671,151.803,177.625z M108.75,201.721c-9.069-4.708-13.054-12.223-13.054-24.096
		c0-9.954,5.216-18.708,13.054-23.688V201.721z M151.803,267.951c0,9.954-5.215,18.708-13.053,23.688v-47.784
		C147.819,248.563,151.803,256.078,151.803,267.951z"/>
</g>
<g>
</g>
<g>
</g>
<g>
</g>
<g>
</g>
<g>
</g>
<g>
</g>
<g>
</g>
<g>
</g>
<g>
</g>
<g>
</g>
<g>
</g>
<g>
</g>
<g>
</g>
<g>
</g>
<g>
</g>
</svg>
