<?xml version="1.0" encoding="iso-8859-1"?>
<!-- Generator: Adobe Illustrator 19.0.0, SVG Export Plug-In . SVG Version: 6.00 Build 0)  -->
<svg version="1.1" id="Layer_1" xmlns="http://www.w3.org/2000/svg" xmlns:xlink="http://www.w3.org/1999/xlink" x="0px" y="0px"
	 viewBox="0 0 462.896 462.896" style="enable-background:new 0 0 462.896 462.896;" xml:space="preserve">
<g>
	<path style="fill:#00EED1;" d="M81.469,182.217c0-19.172,15.598-34.77,34.77-34.77c19.172,0,34.77,15.597,34.77,34.77v81.976h80.44
		v-69.597c-34.512,0-62.5-27.988-62.5-62.5s27.988-62.5,62.5-62.5V0h-121.5c0,53.014-42.987,96-96,96v72.194
		c26.326,0,50.177,10.604,67.521,27.77V182.217z"/>
	<path style="fill:#00DDC2;" d="M352.948,0h-121.5v69.597c34.512,0,62.5,27.988,62.5,62.5s-27.988,62.5-62.5,62.5v69.597h121.5
		c0-53.013,42.987-96,96-96V96C395.935,96,352.948,53.014,352.948,0z"/>
	<path style="fill:#00CCB3;" d="M168.948,132.097c0,34.512,27.988,62.5,62.5,62.5v-125
		C196.936,69.597,168.948,97.585,168.948,132.097z"/>
	<path style="fill:#00AA95;" d="M293.948,132.097c0-34.512-27.988-62.5-62.5-62.5v125
		C265.96,194.597,293.948,166.609,293.948,132.097z"/>
	<path style="fill:#00CCB3;" d="M109.948,0h-96v96C66.961,96,109.948,53.014,109.948,0z"/>
	<path style="fill:#00AA95;" d="M352.948,0c0,53.014,42.987,96,96,96V0H352.948z"/>
	<path style="fill:#00AA95;" d="M352.948,264.194h96v-96C395.935,168.194,352.948,211.18,352.948,264.194z"/>
	<path style="fill:#00CCB3;" d="M81.469,195.963c-17.344-17.165-41.195-27.77-67.521-27.77v96h67.521V195.963z"/>
	<path style="fill:#FFCD00;" d="M151.008,264.194v56.833c70.553,8.699,125.354,69.002,125.354,141.87h73.604
		c5.95-12.765,31.46-70.715,31.46-125.549v-73.154H151.008z"/>
	<path style="fill:#FFE477;" d="M151.008,321.026V182.217c0-19.172-15.597-34.77-34.77-34.77c-19.172,0-34.77,15.597-34.77,34.77
		v166.69c0,52.791,29.013,111.72,30.143,113.989h164.75C276.363,390.028,221.562,329.725,151.008,321.026z"/>
</g>
<g>
</g>
<g>
</g>
<g>
</g>
<g>
</g>
<g>
</g>
<g>
</g>
<g>
</g>
<g>
</g>
<g>
</g>
<g>
</g>
<g>
</g>
<g>
</g>
<g>
</g>
<g>
</g>
<g>
</g>
</svg>
