<?xml version="1.0" encoding="iso-8859-1"?>
<!-- Generator: Adobe Illustrator 19.0.0, SVG Export Plug-In . SVG Version: 6.00 Build 0)  -->
<svg version="1.1" id="Layer_1" xmlns="http://www.w3.org/2000/svg" xmlns:xlink="http://www.w3.org/1999/xlink" x="0px" y="0px"
	 viewBox="0 0 495 495" style="enable-background:new 0 0 495 495;" xml:space="preserve">
<g>
	<path style="fill:#EE8700;" d="M333.73,135.64L367.4,10.42h-33.19l-5.07,3.41c-6.71,4.52-10.4,7.01-19.76,7.01
		c-9.37,0-13.06-2.49-19.77-7.01C280.94,8,269.07,0,247.5,0v135.64H333.73z"/>
	<path style="fill:#CC7400;" d="M403.8,196.95c-18.08-26.12-42.08-47.06-70.07-61.31H247.5v65.541h15v12.579
		c24.762,6.63,43.053,29.253,43.053,56.078h-30c0-9.954-5.216-18.708-13.053-23.688v57.858l2.501,0.79
		c26.15,8.261,40.552,27.923,40.552,55.365c0,26.824-18.291,49.448-43.053,56.078v12.579h-15V495h190V305
		C437.5,266.15,425.85,228.78,403.8,196.95z"/>
	<path style="fill:#CC7400;" d="M275.553,360.163c0-11.873-3.985-19.388-13.053-24.096v47.784
		C270.338,378.87,275.553,370.117,275.553,360.163z"/>
	<path style="fill:#EE8700;" d="M232.5,428.819V416.24c-24.762-6.63-43.053-29.253-43.053-56.078h30
		c0,9.954,5.216,18.708,13.053,23.688v-57.858l-2.5-0.79c-26.151-8.261-40.553-27.923-40.553-55.365
		c0-26.824,18.291-49.448,43.053-56.078v-12.579h15V135.64h-86.23c-27.99,14.25-51.99,35.19-70.07,61.31
		C69.15,228.78,57.5,266.15,57.5,305v190h190v-66.181H232.5z"/>
	<path style="fill:#EE8700;" d="M219.447,269.837c0,11.873,3.985,19.388,13.053,24.096v-47.784
		C224.662,251.13,219.447,259.883,219.447,269.837z"/>
	<path style="fill:#FF9811;" d="M247.5,0c-21.58,0-33.45,8-42.12,13.83c-6.7,4.52-10.4,7.01-19.76,7.01
		c-9.36,0-13.05-2.49-19.76-7.01l-5.07-3.41h-33.2l33.68,125.22h86.23V0z"/>
	<path style="fill:#FFCD00;" d="M232.5,213.76c-24.762,6.63-43.053,29.253-43.053,56.078c0,27.442,14.402,47.104,40.553,55.365
		l2.5,0.79v57.858c-7.838-4.981-13.053-13.734-13.053-23.688h-30c0,26.824,18.291,49.448,43.053,56.078v12.579h30V416.24
		c24.762-6.63,43.053-29.253,43.053-56.078c0-27.442-14.402-47.104-40.552-55.365l-2.501-0.79v-57.858
		c7.838,4.981,13.053,13.734,13.053,23.688h30c0-26.824-18.291-49.448-43.053-56.078v-12.579h-30V213.76z M219.447,269.837
		c0-9.954,5.216-18.708,13.053-23.688v47.784C223.432,289.225,219.447,281.71,219.447,269.837z M275.553,360.163
		c0,9.954-5.216,18.708-13.053,23.688v-47.784C271.568,340.775,275.553,348.29,275.553,360.163z"/>
</g>
<g>
</g>
<g>
</g>
<g>
</g>
<g>
</g>
<g>
</g>
<g>
</g>
<g>
</g>
<g>
</g>
<g>
</g>
<g>
</g>
<g>
</g>
<g>
</g>
<g>
</g>
<g>
</g>
<g>
</g>
</svg>
