<?xml version="1.0" encoding="iso-8859-1"?>
<!-- Generator: Adobe Illustrator 19.0.0, SVG Export Plug-In . SVG Version: 6.00 Build 0)  -->
<svg version="1.1" id="Layer_1" xmlns="http://www.w3.org/2000/svg" xmlns:xlink="http://www.w3.org/1999/xlink" x="0px" y="0px"
	 viewBox="0 0 495 495" style="enable-background:new 0 0 495 495;" xml:space="preserve">
<g>
	<path style="fill:#D1E7F8;" d="M247.5,383.174V56.8c-13.36-14.632-53.427-29.254-88.882-29.254
		C98.445,27.546,41.504,64.568,0,64.568v326.374c41.504,0,98.445-37.022,158.618-37.022
		C194.073,353.92,234.14,368.541,247.5,383.174z"/>
	<path style="fill:#B3D8F4;" d="M414.766,43.364v155.115l-43.516-23.347l-43.516,23.347V27.829
		C294.639,29.907,259.782,43.342,247.5,56.8v326.374c13.36-14.632,53.427-29.254,88.882-29.254
		c60.172,0,117.114,37.022,158.618,37.022V64.568C472.23,64.568,444.815,53.427,414.766,43.364z"/>
	<path style="fill:#B3D8F4;" d="M158.618,353.92C98.445,353.92,41.504,390.941,0,390.941v76.513
		c41.504,0,98.445-37.022,158.618-37.022c35.455,0,57.67,14.632,71.03,29.254H247.5v-76.513
		C234.14,368.541,194.073,353.92,158.618,353.92z"/>
	<path style="fill:#96C8EF;" d="M247.5,383.174v76.513h17.853c13.349-14.622,35.575-29.254,71.03-29.254
		c60.172,0,117.114,37.022,158.618,37.022v-76.513c-41.504,0-98.445-37.022-158.618-37.022
		C300.927,353.92,260.86,368.541,247.5,383.174z"/>
	<path style="fill:#165C92;" d="M414.766,198.479V43.364c-14.001-4.689-28.579-9.138-43.516-12.119v143.887L414.766,198.479z"/>
	<path style="fill:#1E81CE;" d="M371.25,175.132V31.245c-11.434-2.285-23.096-3.699-34.868-3.699c-2.861,0-5.744,0.098-8.649,0.283
		v170.65L371.25,175.132z"/>
</g>
<g>
</g>
<g>
</g>
<g>
</g>
<g>
</g>
<g>
</g>
<g>
</g>
<g>
</g>
<g>
</g>
<g>
</g>
<g>
</g>
<g>
</g>
<g>
</g>
<g>
</g>
<g>
</g>
<g>
</g>
</svg>
