<?xml version="1.0" encoding="iso-8859-1"?>
<!-- Generator: Adobe Illustrator 19.0.0, SVG Export Plug-In . SVG Version: 6.00 Build 0)  -->
<svg version="1.1" id="Layer_1" xmlns="http://www.w3.org/2000/svg" xmlns:xlink="http://www.w3.org/1999/xlink" x="0px" y="0px"
	 viewBox="0 0 495 495" style="enable-background:new 0 0 495 495;" xml:space="preserve">
<g>
	<polygon style="fill:#2488FF;" points="227.5,365 227.5,455 267.5,455 267.5,365 247.5,365 	"/>
	<rect x="227.5" style="fill:#005ECE;" width="40" height="40"/>
	<polygon style="fill:#005ECE;" points="130,455 130,495 365,495 365,455 267.5,455 227.5,455 	"/>
	<polygon style="fill:#FFDA44;" points="247.5,230.784 225.223,253.062 115.858,143.698 144.142,115.414 225.223,196.493 
		247.5,174.216 247.5,80 40,80 40,365 227.5,365 247.5,365 	"/>
	<polygon style="fill:#FFCD00;" points="247.5,174.216 269.778,151.938 379.143,261.302 350.857,289.586 269.778,208.506 
		247.5,230.784 247.5,365 267.5,365 455,365 455,80 247.5,80 	"/>
	<polygon style="fill:#2488FF;" points="495,40 267.5,40 227.5,40 0,40 0,80 40,80 247.5,80 455,80 495,80 	"/>
	<polygon style="fill:#2488FF;" points="144.142,115.414 115.858,143.698 225.223,253.062 247.5,230.784 269.778,208.506 
		350.857,289.586 379.143,261.302 269.778,151.938 247.5,174.216 225.223,196.493 	"/>
</g>
<g>
</g>
<g>
</g>
<g>
</g>
<g>
</g>
<g>
</g>
<g>
</g>
<g>
</g>
<g>
</g>
<g>
</g>
<g>
</g>
<g>
</g>
<g>
</g>
<g>
</g>
<g>
</g>
<g>
</g>
</svg>
