<?xml version="1.0" encoding="iso-8859-1"?>
<!-- Generator: Adobe Illustrator 19.0.0, SVG Export Plug-In . SVG Version: 6.00 Build 0)  -->
<svg version="1.1" id="Layer_1" xmlns="http://www.w3.org/2000/svg" xmlns:xlink="http://www.w3.org/1999/xlink" x="0px" y="0px"
	 viewBox="0 0 497.001 497.001" style="enable-background:new 0 0 497.001 497.001;" xml:space="preserve">
<g>
	
		<rect x="437.902" y="9.06" transform="matrix(0.7071 0.7071 -0.7071 0.7071 161.7719 -312.3419)" style="fill:#003F8A;" width="40" height="60.075"/>
	
		<rect x="8.278" y="448.7" transform="matrix(0.7071 -0.7071 0.7071 0.7071 -323.1329 157.2909)" style="fill:#003F8A;" width="40.044" height="40"/>
	<polygon style="fill:#165C92;" points="42.459,454.543 62.541,474.625 175.564,442.112 419.171,198.506 358.833,138.168 	"/>
	<polygon style="fill:#1E81CE;" points="358.833,138.168 298.496,77.831 54.89,321.437 22.377,434.461 42.459,454.543 	"/>
	
		<rect x="326.561" y="50.077" transform="matrix(0.7071 0.7071 -0.7071 0.7071 180.8228 -266.3224)" style="fill:#1E81CE;" width="170.66" height="70.068"/>
	<polygon style="fill:#003F8A;" points="326.781,49.546 298.492,77.828 433.355,212.69 343.243,302.802 371.528,331.086 
		489.923,212.69 447.455,170.222 	"/>
</g>
<g>
</g>
<g>
</g>
<g>
</g>
<g>
</g>
<g>
</g>
<g>
</g>
<g>
</g>
<g>
</g>
<g>
</g>
<g>
</g>
<g>
</g>
<g>
</g>
<g>
</g>
<g>
</g>
<g>
</g>
</svg>
