<?xml version="1.0" encoding="iso-8859-1"?>
<!-- Generator: Adobe Illustrator 19.0.0, SVG Export Plug-In . SVG Version: 6.00 Build 0)  -->
<svg version="1.1" id="Layer_1" xmlns="http://www.w3.org/2000/svg" xmlns:xlink="http://www.w3.org/1999/xlink" x="0px" y="0px"
	 viewBox="0 0 495.039 495.039" style="enable-background:new 0 0 495.039 495.039;" xml:space="preserve">
<g>
	<path style="fill:#9BC9FF;" d="M176.071,288.79l-63.172,36.472l-79.703,46.017c42.763,73.983,122.74,123.74,214.324,123.74V330.029
		C216.985,330.029,190.333,313.44,176.071,288.79z"/>
	<path style="fill:#FFCD00;" d="M318.968,288.789c-14.261,24.65-40.913,41.24-71.448,41.24V495.02
		c91.584,0,171.561-49.757,214.356-123.719c-0.033-0.022-80.214-46.315-80.214-46.315S318.968,288.79,318.968,288.789z"/>
	<path style="fill:#FFDA44;" d="M461.879,371.296c42.655-74.042,45.757-168.183-0.035-247.497l-142.886,82.495
		c15.268,26.444,14.227,57.82,0.01,82.495c0,0.001,62.694,36.197,62.694,36.197S461.844,371.278,461.879,371.296z"/>
	<path style="fill:#00E7F0;" d="M247.519,165.037c28.478,0.026,56.171,14.812,71.439,41.256l142.886-82.495
		C416.052,44.484,332.973,0.101,247.523,0.02c-0.003,0.039-0.003,90.028-0.003,90.028L247.519,165.037z"/>
	<path style="fill:#46F8FF;" d="M247.519,165.037l0-74.99l0-89.988C162.067,0.101,78.987,44.484,33.195,123.798l142.886,82.495
		C191.349,179.85,219.041,165.063,247.519,165.037z"/>
	<path style="fill:#BDDBFF;" d="M176.071,288.79c-14.217-24.676-15.258-56.052,0.01-82.496L33.195,123.798
		c-45.792,79.314-42.69,173.455-0.035,247.497c0.035-0.017,79.739-46.034,79.739-46.034S176.071,288.79,176.071,288.79z"/>
</g>
<g>
</g>
<g>
</g>
<g>
</g>
<g>
</g>
<g>
</g>
<g>
</g>
<g>
</g>
<g>
</g>
<g>
</g>
<g>
</g>
<g>
</g>
<g>
</g>
<g>
</g>
<g>
</g>
<g>
</g>
</svg>
