<?xml version="1.0" encoding="iso-8859-1"?>
<!-- Generator: Adobe Illustrator 19.0.0, SVG Export Plug-In . SVG Version: 6.00 Build 0)  -->
<svg version="1.1" id="Layer_1" xmlns="http://www.w3.org/2000/svg" xmlns:xlink="http://www.w3.org/1999/xlink" x="0px" y="0px"
	 viewBox="0 0 494.96 494.96" style="enable-background:new 0 0 494.96 494.96;" xml:space="preserve">
<g>
	<g id="XMLID_12_">
		<path style="fill:#00E7F0;" d="M494.955,227.48h-137.86c0-24.74-10.03-47.15-26.25-63.36l97.49-97.49
			C469.495,107.8,494.955,164.66,494.955,227.48z"/>
		<path style="fill:#9BC9FF;" d="M317.095,267.48h137.86c0,125.63-101.84,227.48-227.47,227.48c-62.82,0-119.69-25.46-160.86-66.63
			l97.49-97.49c16.21,16.22,38.62,26.25,63.37,26.25C276.975,357.09,317.095,316.97,317.095,267.48z"/>
		<path style="fill:#46F8FF;" d="M428.335,66.63l-97.49,97.49c-16.21-16.22-38.62-26.25-63.36-26.25V0
			C330.305,0,387.165,25.46,428.335,66.63z"/>
		<path style="fill:#BDDBFF;" d="M227.485,40v137.87c-49.5,0-89.62,40.12-89.62,89.61c0,24.74,10.03,47.15,26.25,63.36l-97.49,97.49
			c-41.16-41.17-66.62-98.03-66.62-160.85C0.005,141.85,101.845,40,227.485,40z"/>
	</g>
</g>
<g>
</g>
<g>
</g>
<g>
</g>
<g>
</g>
<g>
</g>
<g>
</g>
<g>
</g>
<g>
</g>
<g>
</g>
<g>
</g>
<g>
</g>
<g>
</g>
<g>
</g>
<g>
</g>
<g>
</g>
</svg>
