<?xml version="1.0" encoding="iso-8859-1"?>
<!-- Generator: Adobe Illustrator 19.0.0, SVG Export Plug-In . SVG Version: 6.00 Build 0)  -->
<svg version="1.1" id="Layer_1" xmlns="http://www.w3.org/2000/svg" xmlns:xlink="http://www.w3.org/1999/xlink" x="0px" y="0px"
	 viewBox="0 0 495 495" style="enable-background:new 0 0 495 495;" xml:space="preserve">
<g>
	<path style="fill:#EEBF00;" d="M232.5,111.537v-0.896C232.491,110.94,232.5,111.238,232.5,111.537z"/>
	<g>
		<path style="fill:#DDB200;" d="M161.636,396.68c-12.608,4.955-26.328,7.679-40.673,7.679
			c-61.502,0-111.538-50.035-111.538-111.537v90.642C9.426,444.965,59.461,495,120.963,495c49.295,0,91.217-32.147,105.919-76.577
			C203.36,415.603,181.278,408.029,161.636,396.68z"/>
		<path style="fill:#FFCD00;" d="M86.409,308.23C41.77,293.65,9.426,251.625,9.426,202.179v90.642
			c0,61.502,50.036,111.538,111.538,111.538c14.345,0,28.065-2.724,40.673-7.679C127.389,376.892,100.563,345.649,86.409,308.23z"/>
		<path style="fill:#DDB200;" d="M75.337,247.5c0-11.227,1.093-22.202,3.155-32.835C37.996,197.926,9.426,158.008,9.426,111.537
			v90.642c0,49.445,32.344,91.471,76.984,106.051C79.262,289.335,75.337,268.868,75.337,247.5z"/>
		<path style="fill:#FFCD00;" d="M120.963,130.892V0C59.461,0,9.426,50.035,9.426,111.537c0,46.471,28.571,86.389,69.066,103.128
			C84.685,182.729,99.728,153.917,120.963,130.892z"/>
		<path style="fill:#EEBF00;" d="M226.874,76.578C212.173,32.149,170.258,0,120.963,0v130.892
			C148.048,101.524,185.193,81.577,226.874,76.578z"/>
	</g>
</g>
<g>
	<path style="fill:#DDB200;" d="M374.037,404.358c-14.345,0-28.065-2.724-40.673-7.679c-19.642,11.35-41.724,18.923-65.247,21.744
		C282.82,462.853,324.742,495,374.037,495c61.502,0,111.537-50.035,111.537-111.537v-90.642
		C485.574,354.323,435.539,404.358,374.037,404.358z"/>
	<path style="fill:#FFCD00;" d="M408.591,308.23c-14.154,37.419-40.98,68.661-75.227,88.449c12.608,4.955,26.328,7.679,40.673,7.679
		c61.502,0,111.537-50.035,111.537-111.537v-0.896v-89.746C485.574,251.625,453.231,293.65,408.591,308.23z"/>
	<path style="fill:#DDB200;" d="M416.509,214.665c2.062,10.633,3.155,21.608,3.155,32.835c0,21.368-3.925,41.835-11.072,60.73
		c44.639-14.58,76.983-56.606,76.983-106.051v-0.896v-89.747C485.574,158.008,457.004,197.926,416.509,214.665z"/>
	<path style="fill:#FFCD00;" d="M374.037,130.892V0c-49.295,0-91.218,32.147-105.919,76.576
		C309.802,81.574,346.951,101.522,374.037,130.892z"/>
	<path style="fill:#EEBF00;" d="M485.563,110.642C485.079,49.551,435.24,0,374.037,0v130.892
		c21.236,23.026,36.279,51.838,42.471,83.773c40.495-16.739,69.066-56.657,69.066-103.128
		C485.574,111.238,485.565,110.94,485.563,110.642z"/>
</g>
<g>
	<path style="fill:#FFDA44;" d="M275.554,292.663c0-11.873-3.985-19.388-13.054-24.096v47.784
		C270.338,311.37,275.554,302.617,275.554,292.663z"/>
	<path style="fill:#FFDA44;" d="M247.5,75.337v58.343h15v12.579c24.762,6.63,43.054,29.253,43.054,56.078h-30
		c0-9.954-5.216-18.708-13.054-23.688v57.858l2.501,0.79c26.151,8.261,40.553,27.923,40.553,55.365
		c0,26.824-18.292,49.448-43.054,56.078v12.579h-15v58.343c94.931,0,172.163-77.232,172.163-172.163S342.431,75.337,247.5,75.337z"
		/>
	<path style="fill:#FFE477;" d="M219.447,202.337c0,11.873,3.985,19.388,13.054,24.096v-47.784
		C224.662,183.63,219.447,192.383,219.447,202.337z"/>
	<path style="fill:#FFE477;" d="M232.5,361.319V348.74c-24.762-6.63-43.054-29.253-43.054-56.078h30
		c0,9.954,5.216,18.708,13.054,23.688v-57.858l-2.501-0.79c-26.151-8.261-40.553-27.923-40.553-55.365
		c0-26.824,18.292-49.448,43.054-56.078v-12.579h15V75.337c-94.931,0-172.163,77.232-172.163,172.163S152.57,419.663,247.5,419.663
		v-58.343H232.5z"/>
	<path style="fill:#DDB200;" d="M232.5,146.26c-24.762,6.63-43.054,29.253-43.054,56.078c0,27.442,14.401,47.104,40.553,55.365
		l2.501,0.79v57.858c-7.838-4.98-13.054-13.734-13.054-23.688h-30c0,26.824,18.292,49.448,43.054,56.078v12.579h15h15V348.74
		c24.762-6.63,43.054-29.253,43.054-56.078c0-27.442-14.401-47.104-40.553-55.365l-2.501-0.79v-57.858
		c7.838,4.98,13.054,13.734,13.054,23.688h30c0-26.824-18.292-49.448-43.054-56.078v-12.579h-15h-15V146.26z M232.5,226.433
		c-9.069-4.708-13.054-12.223-13.054-24.096c0-9.954,5.216-18.708,13.054-23.688V226.433z M262.5,268.567
		c9.069,4.708,13.054,12.223,13.054,24.096c0,9.954-5.216,18.708-13.054,23.688V268.567z"/>
</g>
<g>
</g>
<g>
</g>
<g>
</g>
<g>
</g>
<g>
</g>
<g>
</g>
<g>
</g>
<g>
</g>
<g>
</g>
<g>
</g>
<g>
</g>
<g>
</g>
<g>
</g>
<g>
</g>
<g>
</g>
</svg>
