<?xml version="1.0" encoding="iso-8859-1"?>
<!-- Generator: Adobe Illustrator 19.0.0, SVG Export Plug-In . SVG Version: 6.00 Build 0)  -->
<svg version="1.1" id="Layer_1" xmlns="http://www.w3.org/2000/svg" xmlns:xlink="http://www.w3.org/1999/xlink" x="0px" y="0px"
	 viewBox="0 0 486.682 486.682" style="enable-background:new 0 0 486.682 486.682;" xml:space="preserve">
<g>
	<polygon style="fill:#C4C8F5;" points="171.666,286.76 0.028,458.398 28.312,486.682 199.951,315.043 185.823,300.916 	"/>
	<path style="fill:#FF6243;" d="M350.854,277.363l-70.746-70.746l-94.286,94.3l14.129,14.127L315.28,430.359l14.142-14.156
		c17.777-17.791,28.447-41.825,30.858-69.509C362.175,324.93,358.908,301.185,350.854,277.363z"/>
	<polygon style="fill:#FF5023;" points="350.854,277.363 486.654,125.837 423.785,62.939 280.108,206.616 	"/>
	<path style="fill:#FF7956;" d="M280.108,206.616l-70.767-70.767c-55.183-18.781-106.434-11.059-138.869,21.475l-14.1,14.142
		L171.666,286.76l14.156,14.156L280.108,206.616z"/>
	<polygon style="fill:#FF6243;" points="423.785,62.939 360.888,0 209.341,135.849 280.108,206.616 	"/>
</g>
<g>
</g>
<g>
</g>
<g>
</g>
<g>
</g>
<g>
</g>
<g>
</g>
<g>
</g>
<g>
</g>
<g>
</g>
<g>
</g>
<g>
</g>
<g>
</g>
<g>
</g>
<g>
</g>
<g>
</g>
</svg>
