<?xml version="1.0" encoding="iso-8859-1"?>
<!-- Generator: Adobe Illustrator 19.0.0, SVG Export Plug-In . SVG Version: 6.00 Build 0)  -->
<svg version="1.1" id="Layer_1" xmlns="http://www.w3.org/2000/svg" xmlns:xlink="http://www.w3.org/1999/xlink" x="0px" y="0px"
	 viewBox="0 0 495 495" style="enable-background:new 0 0 495 495;" xml:space="preserve">
<g>
	<polygon style="fill:#6E76E5;" points="72.918,249.573 72.918,121.03 0,121.03 0,329.573 18.598,329.573 18.598,495 92.918,495 
		92.918,249.573 	"/>
	<polygon style="fill:#515BE0;" points="112.918,249.573 92.918,249.573 92.918,495 167.239,495 167.239,329.573 185.836,329.573 
		185.836,121.03 112.918,121.03 	"/>
	<rect x="72.918" y="121.03" style="fill:#00EED1;" width="40" height="128.543"/>
	<path style="fill:#6E76E5;" d="M92.918,110.989V0c-30.6,0-55.495,24.895-55.495,55.494S62.319,110.989,92.918,110.989z"/>
	<path style="fill:#515BE0;" d="M148.413,55.494C148.413,24.895,123.518,0,92.918,0v110.989
		C123.518,110.989,148.413,86.094,148.413,55.494z"/>
	<path style="fill:#C0AB91;" d="M211.89,0v495h141.555V0H211.89z M291.89,282.5h-40v-70h40V282.5z"/>
	<rect x="353.445" style="fill:#B39A7C;" width="141.555" height="495"/>
	<rect x="251.89" y="212.5" style="fill:#806749;" width="40" height="70"/>
</g>
<g>
</g>
<g>
</g>
<g>
</g>
<g>
</g>
<g>
</g>
<g>
</g>
<g>
</g>
<g>
</g>
<g>
</g>
<g>
</g>
<g>
</g>
<g>
</g>
<g>
</g>
<g>
</g>
<g>
</g>
</svg>
