<?xml version="1.0" encoding="iso-8859-1"?>
<!-- Generator: Adobe Illustrator 19.0.0, SVG Export Plug-In . SVG Version: 6.00 Build 0)  -->
<svg version="1.1" id="Layer_1" xmlns="http://www.w3.org/2000/svg" xmlns:xlink="http://www.w3.org/1999/xlink" x="0px" y="0px"
	 viewBox="0 0 494.998 494.998" style="enable-background:new 0 0 494.998 494.998;" xml:space="preserve">
<g>
	<rect x="60" y="459.25" style="fill:#1E81CE;" width="40" height="35.748"/>
	<rect x="415" y="459.25" style="fill:#165C92;" width="40" height="35.748"/>
	<rect x="10" y="59.998" style="fill:#A7ADF0;" width="19.998" height="40"/>
	<rect x="10" y="359.248" style="fill:#A7ADF0;" width="19.998" height="40"/>
	<polygon style="fill:#A7ADF0;" points="257.498,0 257.498,60 424.998,60 424.998,399.25 257.498,399.25 257.498,459.25 
		484.998,459.25 484.998,0 	"/>
	<path style="fill:#165C92;" d="M337.998,229.62c0,44.39-36.11,80.5-80.5,80.5v89.13h167.5V60h-167.5v89.12
		C301.888,149.12,337.998,185.24,337.998,229.62z"/>
	<path style="fill:#A7ADF0;" d="M337.998,229.62c0-44.38-36.11-80.5-80.5-80.5v50.5c16.548,0,30,13.464,30,30
		c0,16.548-13.452,30-30,30v50.5C301.888,310.12,337.998,274.01,337.998,229.62z"/>
	<path style="fill:#165C92;" d="M287.498,229.62c0-16.536-13.452-30-30-30v60C274.046,259.62,287.498,246.168,287.498,229.62z"/>
	<polygon style="fill:#C4C8F5;" points="89.998,399.25 89.998,60 257.498,60 257.498,0 29.998,0 29.998,459.25 257.498,459.25 
		257.498,399.25 	"/>
	<path style="fill:#1E81CE;" d="M89.998,399.25h167.5v-89.13c-44.39,0-80.5-36.11-80.5-80.5c0-44.38,36.11-80.5,80.5-80.5V60h-167.5
		V399.25z"/>
	<path style="fill:#C4C8F5;" d="M227.498,229.62c0-16.536,13.464-30,30-30v-50.5c-44.39,0-80.5,36.12-80.5,80.5
		c0,44.39,36.11,80.5,80.5,80.5v-50.5C240.962,259.62,227.498,246.168,227.498,229.62z"/>
	<path style="fill:#1E81CE;" d="M227.498,229.62c0,16.548,13.464,30,30,30v-60C240.962,199.62,227.498,213.084,227.498,229.62z"/>
</g>
<g>
</g>
<g>
</g>
<g>
</g>
<g>
</g>
<g>
</g>
<g>
</g>
<g>
</g>
<g>
</g>
<g>
</g>
<g>
</g>
<g>
</g>
<g>
</g>
<g>
</g>
<g>
</g>
<g>
</g>
</svg>
