<?xml version="1.0" encoding="iso-8859-1"?>
<!-- Generator: Adobe Illustrator 19.0.0, SVG Export Plug-In . SVG Version: 6.00 Build 0)  -->
<svg version="1.1" id="Layer_1" xmlns="http://www.w3.org/2000/svg" xmlns:xlink="http://www.w3.org/1999/xlink" x="0px" y="0px"
	 viewBox="0 0 476.646 476.646" style="enable-background:new 0 0 476.646 476.646;" xml:space="preserve">
<g>
	<path style="fill:#BDDBFF;" d="M258.323,160.794v-35.506c-6.26,2.22-12.989,3.44-20,3.44s-13.74-1.22-20-3.44v35.506
		c6.458-1.352,13.147-2.066,20-2.066S251.865,159.443,258.323,160.794z"/>
	<path style="fill:#BDDBFF;" d="M119.961,196.741c0.013,0.516,0.039,1.028,0.039,1.547c0,13.72-4.64,26.371-12.418,36.49
		l33.804,10.984c1.472-13.724,5.798-26.607,12.379-38.036L119.961,196.741z"/>
	<path style="fill:#BDDBFF;" d="M166.08,321.636l-20.905,28.773c13.281,3.952,24.648,12.381,32.341,23.539l20.9-28.767
		C186.062,339.617,175.067,331.552,166.08,321.636z"/>
	<path style="fill:#BDDBFF;" d="M278.23,345.181l20.9,28.767c7.693-11.157,19.06-19.587,32.341-23.539l-20.905-28.773
		C301.579,331.552,290.585,339.617,278.23,345.181z"/>
	<path style="fill:#BDDBFF;" d="M356.686,196.741l-33.805,10.984c6.581,11.429,10.907,24.312,12.379,38.036l33.804-10.984
		c-7.778-10.119-12.418-22.77-12.418-36.49C356.646,197.768,356.672,197.256,356.686,196.741z"/>
	<path style="fill:#2488FF;" d="M356.686,196.741c-0.013,0.516-0.039,1.028-0.039,1.547c0,13.72,4.64,26.371,12.418,36.49
		c10.978,14.281,28.218,23.51,47.582,23.51v-120C384.081,138.287,357.511,164.371,356.686,196.741z"/>
	<path style="fill:#005ECE;" d="M416.646,138.287v120c33.084,0,60-26.916,60-60S449.73,138.287,416.646,138.287z"/>
	<path style="fill:#2488FF;" d="M238.323,8.728c-33.084,0-60,26.916-60,60c0,26.073,16.722,48.303,40,56.56
		c6.26,2.22,12.989,3.44,20,3.44V8.728z"/>
	<path style="fill:#005ECE;" d="M238.323,128.728c7.011,0,13.74-1.22,20-3.44c23.278-8.256,40-30.487,40-56.56
		c0-33.084-26.916-60-60-60V128.728z"/>
	<path style="fill:#46F8FF;" d="M238.323,158.728c-6.853,0-13.542,0.715-20,2.066c-27.574,5.772-50.907,23.225-64.558,46.93
		c-6.581,11.429-10.907,24.312-12.379,38.036c-0.369,3.44-0.563,6.931-0.563,10.467c0,25.146,9.57,48.097,25.257,65.408
		c8.987,9.917,19.982,17.981,32.336,23.545c12.187,5.489,25.697,8.547,39.907,8.547V158.728z"/>
	<path style="fill:#00E7F0;" d="M258.323,160.794c-6.458-1.352-13.147-2.066-20-2.066v195c14.21,0,27.72-3.058,39.907-8.547
		c12.354-5.564,23.349-13.629,32.336-23.545c15.687-17.31,25.257-40.262,25.257-65.408c0-3.536-0.194-7.027-0.563-10.467
		c-1.472-13.724-5.798-26.607-12.379-38.036C309.23,184.019,285.897,166.566,258.323,160.794z"/>
	<path style="fill:#2488FF;" d="M0,198.287c0,33.084,26.916,60,60,60v-120C26.916,138.287,0,165.203,0,198.287z"/>
	<path style="fill:#005ECE;" d="M119.961,196.741c-0.826-32.37-27.396-58.453-59.961-58.453v120c19.364,0,36.604-9.229,47.582-23.51
		c7.778-10.119,12.418-22.77,12.418-36.49C120,197.769,119.974,197.256,119.961,196.741z"/>
	<path style="fill:#2488FF;" d="M68.096,407.918c0,33.084,26.916,60,60,60v-120C95.012,347.918,68.096,374.834,68.096,407.918z"/>
	<path style="fill:#005ECE;" d="M145.175,350.409c-5.417-1.612-11.146-2.49-17.079-2.49v120c33.084,0,60-26.916,60-60
		c0-12.603-3.914-24.305-10.579-33.971C169.823,362.79,158.457,354.361,145.175,350.409z"/>
	<path style="fill:#2488FF;" d="M299.13,373.948c-6.665,9.666-10.579,21.368-10.579,33.971c0,33.084,26.916,60,60,60v-120
		c-5.933,0-11.663,0.879-17.079,2.49C318.19,354.361,306.823,362.79,299.13,373.948z"/>
	<path style="fill:#005ECE;" d="M408.55,407.918c0-33.084-26.916-60-60-60v120C381.634,467.918,408.55,441.002,408.55,407.918z"/>
</g>
<g>
</g>
<g>
</g>
<g>
</g>
<g>
</g>
<g>
</g>
<g>
</g>
<g>
</g>
<g>
</g>
<g>
</g>
<g>
</g>
<g>
</g>
<g>
</g>
<g>
</g>
<g>
</g>
<g>
</g>
</svg>
