<?xml version="1.0" encoding="iso-8859-1"?>
<!-- Generator: Adobe Illustrator 19.0.0, SVG Export Plug-In . SVG Version: 6.00 Build 0)  -->
<svg version="1.1" id="Layer_1" xmlns="http://www.w3.org/2000/svg" xmlns:xlink="http://www.w3.org/1999/xlink" x="0px" y="0px"
	 viewBox="0 0 495 495" style="enable-background:new 0 0 495 495;" xml:space="preserve">
<g>
	<polygon style="fill:#6E76E5;" points="88.869,249.573 88.869,121.03 15.951,121.03 15.951,329.573 34.549,329.573 34.549,495 
		108.869,495 108.869,249.573 	"/>
	<polygon style="fill:#515BE0;" points="128.869,249.573 108.869,249.573 108.869,495 183.189,495 183.189,329.573 201.788,329.573 
		201.788,121.03 128.869,121.03 	"/>
	<rect x="88.869" y="121.03" style="fill:#00EED1;" width="40" height="128.542"/>
	<path style="fill:#6E76E5;" d="M108.869,110.989V0c-30.6,0-55.494,24.895-55.494,55.494S78.27,110.989,108.869,110.989z"/>
	<path style="fill:#515BE0;" d="M164.363,55.494c0-30.6-24.895-55.494-55.494-55.494v110.989
		C139.469,110.989,164.363,86.094,164.363,55.494z"/>
	<path style="fill:#6E76E5;" d="M424.147,109.803V0c-30.272,0-54.901,24.629-54.901,54.902
		C369.246,85.174,393.875,109.803,424.147,109.803z"/>
	<path style="fill:#6E76E5;" d="M369.246,440.098c0,30.273,24.629,54.902,54.901,54.902V385.197
		C393.875,385.197,369.246,409.826,369.246,440.098z"/>
	<path style="fill:#6E76E5;" d="M369.246,311.699c0,30.273,24.629,54.902,54.901,54.902V256.798
		C393.875,256.798,369.246,281.427,369.246,311.699z"/>
	<path style="fill:#515BE0;" d="M424.147,256.798v109.803c30.272,0,54.901-24.629,54.901-54.902
		C479.049,281.427,454.42,256.798,424.147,256.798z"/>
	<path style="fill:#6E76E5;" d="M369.246,183.301c0,30.273,24.629,54.901,54.901,54.901V128.399
		C393.875,128.399,369.246,153.028,369.246,183.301z"/>
	<path style="fill:#515BE0;" d="M424.147,128.399v109.803c30.272,0,54.901-24.629,54.901-54.901
		C479.049,153.028,454.42,128.399,424.147,128.399z"/>
	<path style="fill:#515BE0;" d="M479.049,54.902C479.049,24.629,454.42,0,424.147,0v109.803
		C454.42,109.803,479.049,85.174,479.049,54.902z"/>
	<polygon style="fill:#00EED1;" points="266.517,227.5 231.787,227.5 231.787,267.5 266.517,267.5 266.517,460.098 341.246,460.098 
		341.246,420.098 306.517,420.098 306.517,331.699 341.246,331.699 341.246,291.699 306.517,291.699 306.517,203.301 
		341.246,203.301 341.246,163.301 306.517,163.301 306.517,74.902 341.246,74.902 341.246,34.902 266.517,34.902 	"/>
	<path style="fill:#515BE0;" d="M424.147,385.197V495c30.272,0,54.901-24.629,54.901-54.902
		C479.049,409.826,454.42,385.197,424.147,385.197z"/>
</g>
<g>
</g>
<g>
</g>
<g>
</g>
<g>
</g>
<g>
</g>
<g>
</g>
<g>
</g>
<g>
</g>
<g>
</g>
<g>
</g>
<g>
</g>
<g>
</g>
<g>
</g>
<g>
</g>
<g>
</g>
</svg>
