<?xml version="1.0" encoding="iso-8859-1"?>
<!-- Generator: Adobe Illustrator 19.0.0, SVG Export Plug-In . SVG Version: 6.00 Build 0)  -->
<svg version="1.1" id="Layer_1" xmlns="http://www.w3.org/2000/svg" xmlns:xlink="http://www.w3.org/1999/xlink" x="0px" y="0px"
	 viewBox="0 0 495 495" style="enable-background:new 0 0 495 495;" xml:space="preserve">
<g>
	<polygon style="fill:#B39A7C;" points="247.5,390.595 427.712,390.595 392.138,329.957 247.5,329.957 	"/>
	<polygon style="fill:#C0AB91;" points="247.5,329.957 102.862,329.957 67.288,390.595 247.5,390.595 	"/>
	<polygon style="fill:#FFDA44;" points="419.993,137.259 419.993,0 318.917,0 318.917,40.535 298.038,40.535 298.038,0 247.5,0 
		247.5,137.259 	"/>
	<polygon style="fill:#FFE477;" points="247.5,0 196.962,0 196.962,40.535 176.083,40.535 176.083,0 75.007,0 75.007,137.259 
		247.5,137.259 	"/>
	<polygon style="fill:#C0AB91;" points="247.5,137.259 75.007,137.259 112.151,196.614 247.5,196.614 	"/>
	<polygon style="fill:#B39A7C;" points="247.5,196.614 382.849,196.614 419.993,137.259 247.5,137.259 	"/>
	<polygon style="fill:#FFDA44;" points="247.5,329.957 392.138,329.957 382.849,196.614 247.5,196.614 	"/>
	<polygon style="fill:#FFE477;" points="247.5,196.614 112.151,196.614 102.862,329.957 247.5,329.957 	"/>
	<rect x="67.288" y="390.595" style="fill:#FFE477;" width="180.212" height="104.405"/>
	<rect x="247.5" y="390.595" style="fill:#FFDA44;" width="180.212" height="104.405"/>
</g>
<g>
</g>
<g>
</g>
<g>
</g>
<g>
</g>
<g>
</g>
<g>
</g>
<g>
</g>
<g>
</g>
<g>
</g>
<g>
</g>
<g>
</g>
<g>
</g>
<g>
</g>
<g>
</g>
<g>
</g>
</svg>
