<?xml version="1.0" encoding="iso-8859-1"?>
<!-- Generator: Adobe Illustrator 19.0.0, SVG Export Plug-In . SVG Version: 6.00 Build 0)  -->
<svg version="1.1" id="Layer_1" xmlns="http://www.w3.org/2000/svg" xmlns:xlink="http://www.w3.org/1999/xlink" x="0px" y="0px"
	 viewBox="0 0 495 495" style="enable-background:new 0 0 495 495;" xml:space="preserve">
<g>
	<path style="fill:#FFDA44;" d="M309.389,299.832c-28.689-14.781-48.354-44.708-48.354-79.142c0-49.056,39.91-88.965,88.965-88.965
		c0.265,0,0.528,0.008,0.792,0.01c-9.287-34.212-28.711-65.163-55.884-88.557C262.568,15.334,221.227,0,178.5,0v70h20v128.289
		l-20,0.033V357c28.207,0,56.305-6.753,81.255-19.529C278.288,327.982,295.173,315.134,309.389,299.832z"/>
	<path style="fill:#FFE477;" d="M70.033,198.5l-0.065-40l88.533-0.146V70h20V0C80.075,0,0,80.075,0,178.5S80.075,357,178.5,357
		V198.322L70.033,198.5z"/>
	<polygon style="fill:#515BE0;" points="158.5,158.354 69.967,158.5 70.033,198.5 178.5,198.322 198.5,198.289 198.5,70 158.5,70 	
		"/>
	<path style="fill:#6E76E5;" d="M350,131.724c-49.056,0-88.965,39.91-88.965,88.965c0,34.435,19.665,64.361,48.354,79.142
		c12.182,6.276,25.99,9.824,40.611,9.824V131.724z"/>
	<path style="fill:#515BE0;" d="M350,309.655c49.056,0,88.966-39.91,88.966-88.966c0-48.791-39.481-88.527-88.173-88.955
		c-0.264-0.002-0.527-0.01-0.792-0.01V309.655z"/>
	<path style="fill:#00EED1;" d="M330,435V331.386C259.478,341.159,205,401.832,205,475v20h145v-60H330z"/>
	<path style="fill:#00CCB3;" d="M370,331.386V435h-20v60h145v-20C495,401.832,440.522,341.159,370,331.386z"/>
	<path style="fill:#424EDE;" d="M370,435V331.386c-6.54-0.906-13.215-1.386-20-1.386s-13.46,0.479-20,1.386V435H370z"/>
</g>
<g>
</g>
<g>
</g>
<g>
</g>
<g>
</g>
<g>
</g>
<g>
</g>
<g>
</g>
<g>
</g>
<g>
</g>
<g>
</g>
<g>
</g>
<g>
</g>
<g>
</g>
<g>
</g>
<g>
</g>
</svg>
