<?xml version="1.0" encoding="iso-8859-1"?>
<!-- Generator: Adobe Illustrator 19.0.0, SVG Export Plug-In . SVG Version: 6.00 Build 0)  -->
<svg version="1.1" id="Layer_1" xmlns="http://www.w3.org/2000/svg" xmlns:xlink="http://www.w3.org/1999/xlink" x="0px" y="0px"
	 viewBox="0 0 495 495" style="enable-background:new 0 0 495 495;" xml:space="preserve">
<g>
	<path style="fill:#6E76E5;" d="M89.803,366.872V257.069c-30.272,0-54.901,24.629-54.901,54.902S59.53,366.872,89.803,366.872z"/>
	<path style="fill:#6E76E5;" d="M89.803,385.041C40.285,385.041,0,425.327,0,474.844v20h179.605v-20
		C179.605,425.327,139.32,385.041,89.803,385.041z"/>
	<path style="fill:#6E76E5;" d="M405.197,366.872V257.069c-30.272,0-54.901,24.629-54.901,54.902S374.925,366.872,405.197,366.872z"
		/>
	<path style="fill:#6E76E5;" d="M405.197,385.041c-49.518,0-89.803,40.286-89.803,89.803v20H495v-20
		C495,425.327,454.715,385.041,405.197,385.041z"/>
	<path style="fill:#6E76E5;" d="M247.5,109.959V0.156c-30.272,0-54.901,24.629-54.901,54.902S217.228,109.959,247.5,109.959z"/>
	<path style="fill:#515BE0;" d="M144.704,311.971c0-30.273-24.629-54.902-54.901-54.902v109.803
		C120.075,366.872,144.704,342.243,144.704,311.971z"/>
	<path style="fill:#515BE0;" d="M460.099,311.971c0-30.273-24.629-54.902-54.901-54.902v109.803
		C435.47,366.872,460.099,342.243,460.099,311.971z"/>
	<path style="fill:#515BE0;" d="M302.401,55.057c0-30.273-24.629-54.902-54.901-54.902v109.803
		C277.772,109.959,302.401,85.33,302.401,55.057z"/>
	<path style="fill:#6E76E5;" d="M337.303,217.931c0-49.518-40.285-89.803-89.803-89.803s-89.803,40.286-89.803,89.803v20h179.605
		V217.931z"/>
	<polygon style="fill:#00EED1;" points="267.5,333.052 267.5,267.816 227.5,267.816 227.5,333.052 171.004,365.67 191.004,400.311 
		247.5,367.693 303.996,400.311 323.996,365.67 	"/>
</g>
<g>
</g>
<g>
</g>
<g>
</g>
<g>
</g>
<g>
</g>
<g>
</g>
<g>
</g>
<g>
</g>
<g>
</g>
<g>
</g>
<g>
</g>
<g>
</g>
<g>
</g>
<g>
</g>
<g>
</g>
</svg>
