<?xml version="1.0" encoding="iso-8859-1"?>
<!-- Generator: Adobe Illustrator 19.0.0, SVG Export Plug-In . SVG Version: 6.00 Build 0)  -->
<svg version="1.1" id="Layer_1" xmlns="http://www.w3.org/2000/svg" xmlns:xlink="http://www.w3.org/1999/xlink" x="0px" y="0px"
	 viewBox="0 0 495 495" style="enable-background:new 0 0 495 495;" xml:space="preserve">
<g>
	<path style="fill:#6E76E5;" d="M405.197,257.225c-30.273,0-54.901,24.629-54.901,54.901c0,30.273,24.628,54.902,54.901,54.902
		V257.225z"/>
	<path style="fill:#6E76E5;" d="M405.197,385.197c-49.518,0-89.804,40.285-89.804,89.803v20H495v-20
		C495,425.482,454.715,385.197,405.197,385.197z"/>
	<path style="fill:#6E76E5;" d="M405.197,109.803V0c-30.273,0-54.901,24.629-54.901,54.902
		C350.295,85.174,374.924,109.803,405.197,109.803z"/>
	<path style="fill:#6E76E5;" d="M405.197,127.972c-49.518,0-89.803,40.285-89.803,89.803v20H495v-20
		C495,168.258,454.715,127.972,405.197,127.972z"/>
	<path style="fill:#6E76E5;" d="M89.803,238.416V128.612c-30.273,0-54.901,24.629-54.901,54.902S59.53,238.416,89.803,238.416z"/>
	<path style="fill:#515BE0;" d="M460.099,312.126c0-30.273-24.629-54.901-54.902-54.901v109.803
		C435.47,367.028,460.099,342.399,460.099,312.126z"/>
	<path style="fill:#515BE0;" d="M460.099,54.902C460.099,24.629,435.47,0,405.197,0v109.803
		C435.47,109.803,460.099,85.174,460.099,54.902z"/>
	<path style="fill:#515BE0;" d="M144.705,183.514c0-30.273-24.629-54.902-54.902-54.902v109.803
		C120.076,238.416,144.705,213.787,144.705,183.514z"/>
	<path style="fill:#6E76E5;" d="M89.803,256.584C40.285,256.584,0,296.87,0,346.388v20h179.606v-20
		C179.606,296.87,139.32,256.584,89.803,256.584z"/>
	<polygon style="fill:#00EED1;" points="329.064,396.112 329.064,356.112 267.5,356.112 267.5,138.888 329.064,138.888 
		329.064,98.888 227.5,98.888 227.5,227.5 162.771,227.5 162.771,267.5 227.5,267.5 227.5,396.112 	"/>
</g>
<g>
</g>
<g>
</g>
<g>
</g>
<g>
</g>
<g>
</g>
<g>
</g>
<g>
</g>
<g>
</g>
<g>
</g>
<g>
</g>
<g>
</g>
<g>
</g>
<g>
</g>
<g>
</g>
<g>
</g>
</svg>
