<?xml version="1.0" encoding="iso-8859-1"?>
<!-- Generator: Adobe Illustrator 19.0.0, SVG Export Plug-In . SVG Version: 6.00 Build 0)  -->
<svg version="1.1" id="Layer_1" xmlns="http://www.w3.org/2000/svg" xmlns:xlink="http://www.w3.org/1999/xlink" x="0px" y="0px"
	 viewBox="0 0 495 495" style="enable-background:new 0 0 495 495;" xml:space="preserve">
<g>
	<path style="fill:#FF9811;" d="M85,455h330v-45H40C40,434.81,60.19,455,85,455z"/>
	<path style="fill:#FFB655;" d="M85,365c-24.81,0-45,20.19-45,45h375v-45H85z"/>
	<rect x="247.5" style="fill:#FF5023;" width="247.5" height="90.25"/>
	<path style="fill:#FF6243;" d="M85,325h162.5V0H85C38.13,0,0,38.13,0,85v325C0,363.13,38.13,325,85,325z"/>
	<path style="fill:#FF5023;" d="M247.5,325H85c-46.87,0-85,38.13-85,85s38.13,85,85,85h370V365h40v-90.25H247.5V325z M415,455H85
		c-24.81,0-45-20.19-45-45s20.19-45,45-45h330V455z"/>
	<path style="fill:#FF7956;" d="M247.5,274.75H495V90.25H247.5V274.75z M339.75,152.5c16.542,0,30,13.458,30,30s-13.458,30-30,30
		s-30-13.458-30-30S323.208,152.5,339.75,152.5z"/>
	<path style="fill:#FFFFFF;" d="M339.75,212.5c16.542,0,30-13.458,30-30s-13.458-30-30-30s-30,13.458-30,30
		S323.208,212.5,339.75,212.5z"/>
</g>
<g>
</g>
<g>
</g>
<g>
</g>
<g>
</g>
<g>
</g>
<g>
</g>
<g>
</g>
<g>
</g>
<g>
</g>
<g>
</g>
<g>
</g>
<g>
</g>
<g>
</g>
<g>
</g>
<g>
</g>
</svg>
